<?xml version="1.0" encoding="UTF-8" standalone="no"?>
<!-- Created with Inkscape (http://www.inkscape.org/) -->
<svg xmlns:dc="http://purl.org/dc/elements/1.1/" xmlns:cc="http://creativecommons.org/ns#" xmlns:rdf="http://www.w3.org/1999/02/22-rdf-syntax-ns#" xmlns:svg="http://www.w3.org/2000/svg" xmlns="http://www.w3.org/2000/svg" xmlns:sodipodi="http://sodipodi.sourceforge.net/DTD/sodipodi-0.dtd" xmlns:inkscape="http://www.inkscape.org/namespaces/inkscape" width="250" height="250" id="svg2" sodipodi:version="0.32" inkscape:version="0.46" version="1.0" sodipodi:docname="A'dam-icon.svg" inkscape:output_extension="org.inkscape.output.svg.inkscape">
  <defs id="defs4">
    <inkscape:perspective sodipodi:type="inkscape:persp3d" inkscape:vp_x="0 : 526.18109 : 1" inkscape:vp_y="0 : 1000 : 0" inkscape:vp_z="744.09448 : 526.18109 : 1" inkscape:persp3d-origin="372.04724 : 350.78739 : 1" id="perspective10"/>
    <inkscape:perspective id="perspective3217" inkscape:persp3d-origin="372.04724 : 350.78739 : 1" inkscape:vp_z="744.09448 : 526.18109 : 1" inkscape:vp_y="0 : 1000 : 0" inkscape:vp_x="0 : 526.18109 : 1" sodipodi:type="inkscape:persp3d"/>
    <clipPath clipPathUnits="userSpaceOnUse" id="clipPath3225">
      <rect style="opacity: 1; fill: none; fill-opacity: 1; stroke: rgb(0, 0, 0); stroke-width: 2; stroke-linecap: round; stroke-linejoin: round; stroke-miterlimit: 4; stroke-dasharray: none; stroke-opacity: 1;" id="rect3227" width="184.5175" height="184.78261" x="46.129375" y="15.376458" transform="matrix(0.999986, -0.00523596, 0.00523596, 0.999986, 0, 0)"/>
    </clipPath>
  </defs>
  <sodipodi:namedview id="base" pagecolor="#ffffff" bordercolor="#666666" borderopacity="1.0" gridtolerance="10000" guidetolerance="10" objecttolerance="10" inkscape:pageopacity="0.0" inkscape:pageshadow="2" inkscape:zoom="3.772" inkscape:cx="125" inkscape:cy="125" inkscape:document-units="px" inkscape:current-layer="layer1" showgrid="false" inkscape:window-width="1904" inkscape:window-height="1150" inkscape:window-x="0" inkscape:window-y="14"/>
  <metadata id="metadata7">
    <rdf:RDF>
      <cc:Work rdf:about="">
        <dc:format>image/svg+xml</dc:format>
        <dc:type rdf:resource="http://purl.org/dc/dcmitype/StillImage"/>
      </cc:Work>
    </rdf:RDF>
  </metadata>
  <g inkscape:label="Layer 1" inkscape:groupmode="layer" id="layer1">
    <g id="g2447">
      <rect y="30" x="30" height="190" width="190" id="rect3236" style="fill: rgb(255, 255, 255); fill-opacity: 1; stroke: none; stroke-width: 2; stroke-linecap: round; stroke-linejoin: round; stroke-miterlimit: 4; stroke-dasharray: none; stroke-opacity: 1;"/>
      <path id="rect3229" d="M 25,25 L 25,225 L 225,225 L 225,25 L 25,25 z M 37.5,37.5 L 212.5,37.5 L 212.5,212.5 L 37.5,212.5 L 37.5,37.5 z" style="fill: rgb(0, 0, 0); fill-opacity: 1; stroke: none; stroke-width: 2; stroke-linecap: round; stroke-linejoin: round; stroke-miterlimit: 4; stroke-dasharray: none; stroke-opacity: 1;"/>
      <rect y="42.5" x="42.5" height="165" width="165" id="rect3234" style="fill: rgb(0, 0, 0); fill-opacity: 1; stroke: none; stroke-width: 2; stroke-linecap: round; stroke-linejoin: round; stroke-miterlimit: 4; stroke-dasharray: none; stroke-opacity: 1;"/>
      <path sodipodi:nodetypes="cczcsczcc" id="path3253" d="M 125,57.28125 C 88.567982,57.28125 59,69.37723 59,84.28125 C 59,84.28125 61.5,97.53212 61.5,103.28125 C 61.5,109.03038 59,122.28125 59,122.28125 C 59,137.18527 88.567984,149.28125 125,149.28125 C 161.43202,149.28125 191,137.18527 191,122.28125 C 191,122.28125 188.5,109.03038 188.5,103.28125 C 188.5,97.53212 191,84.28125 191,84.28125 C 191,69.377232 161.43202,57.281249 125,57.28125 z" style="fill: rgb(255, 255, 255); fill-opacity: 1; stroke: rgb(0, 0, 0); stroke-width: 2.99993; stroke-linecap: round; stroke-linejoin: round; stroke-miterlimit: 4; stroke-dasharray: none; stroke-opacity: 1;"/>
      <path id="path3262" d="M 125,100.03125 C 113.37186,100.03125 102.50082,101.21897 93.25,103.28125 C 102.50082,105.34353 113.37186,106.53125 125,106.53125 C 136.62814,106.53125 147.49918,105.34353 156.75,103.28125 C 147.49918,101.21897 136.62814,100.03125 125,100.03125 z" style="fill: rgb(0, 0, 0); fill-opacity: 1; stroke: rgb(0, 0, 0); stroke-width: 2.99993; stroke-linecap: round; stroke-linejoin: round; stroke-miterlimit: 4; stroke-dasharray: none; stroke-opacity: 1;"/>
      <path sodipodi:nodetypes="cszcsczsc" id="path3329" d="M 125,134.46875 C 107.33609,134.46875 93,140.74083 93,148.46875 C 93.000001,150.63015 94.429039,157.80588 94.125,160.5 L 93,170.46875 C 93.000002,178.19665 107.33609,184.46875 125,184.46875 C 142.6639,184.46875 157,178.19665 157,170.46875 L 155.875,160.5 C 155.57096,157.80588 157,150.63015 157,148.46875 C 157.00001,140.74083 142.6639,134.46875 125,134.46875 z" style="fill: rgb(255, 255, 255); fill-opacity: 1; stroke: rgb(0, 0, 0); stroke-width: 3.00038; stroke-linecap: round; stroke-linejoin: round; stroke-miterlimit: 4; stroke-dasharray: none; stroke-opacity: 1;"/>
      <path id="path3317" d="M 125,155.21875 C 120.09323,155.21875 115.49785,155.68399 111.53125,156.46875 C 115.49785,157.25351 120.09323,157.71875 125,157.71875 C 129.90677,157.71875 134.50215,157.25351 138.46875,156.46875 C 134.50215,155.68399 129.90677,155.21875 125,155.21875 z" style="fill: rgb(0, 0, 0); fill-opacity: 1; stroke: rgb(0, 0, 0); stroke-width: 3.00038; stroke-linecap: round; stroke-linejoin: round; stroke-miterlimit: 4; stroke-dasharray: none; stroke-opacity: 1;"/>
      <path id="rect3344" d="M 70.53125,74.28125 C 66.37164,77.28869 64,80.684808 64,84.28125 C 64,87.877692 66.37164,91.27381 70.53125,94.28125 L 70.53125,74.28125 z" style="fill: rgb(0, 0, 0); fill-opacity: 1; stroke: rgb(0, 0, 0); stroke-width: 3; stroke-linecap: round; stroke-linejoin: round; stroke-miterlimit: 4; stroke-dasharray: none; stroke-opacity: 1;"/>
      <path id="rect3346" d="M 76.09375,71 C 75.405655,71.336282 74.761174,71.6807 74.125,72.03125 L 74.125,96.53125 C 74.761174,96.8818 75.405655,97.226218 76.09375,97.5625 L 76.09375,71 z" style="fill: rgb(0, 0, 0); fill-opacity: 1; stroke: rgb(0, 0, 0); stroke-width: 1.0188; stroke-linecap: round; stroke-linejoin: round; stroke-miterlimit: 4; stroke-dasharray: none; stroke-opacity: 1;"/>
      <path id="rect3348" d="M 80.75,68.96875 C 80.208579,69.176916 79.675511,69.378081 79.15625,69.59375 L 79.15625,98.96875 C 79.675511,99.184419 80.208579,99.385584 80.75,99.59375 L 80.75,68.96875 z" style="fill: rgb(0, 0, 0); fill-opacity: 1; stroke: rgb(0, 0, 0); stroke-width: 0.912711; stroke-linecap: round; stroke-linejoin: round; stroke-miterlimit: 4; stroke-dasharray: none; stroke-opacity: 1;"/>
      <path id="rect3350" d="M 85.40625,67.375 C 85.008412,67.499099 84.60764,67.62227 84.21875,67.75 L 84.21875,100.8125 C 84.60764,100.94023 85.008412,101.0634 85.40625,101.1875 L 85.40625,67.375 z" style="fill: rgb(0, 0, 0); fill-opacity: 1; stroke: rgb(0, 0, 0); stroke-width: 0.795759; stroke-linecap: round; stroke-linejoin: round; stroke-miterlimit: 4; stroke-dasharray: none; stroke-opacity: 1;"/>
      <path id="rect3352" d="M 90.15625,66.03125 C 89.98986,66.073597 89.821424,66.113316 89.65625,66.15625 L 89.65625,102.40625 C 89.821424,102.44918 89.98986,102.4889 90.15625,102.53125 L 90.15625,66.03125 z" style="fill: rgb(0, 0, 0); fill-opacity: 1; stroke: rgb(0, 0, 0); stroke-width: 0.509211; stroke-linecap: round; stroke-linejoin: round; stroke-miterlimit: 4; stroke-dasharray: none; stroke-opacity: 1;"/>
      <path style="fill: rgb(0, 0, 0); fill-opacity: 1; stroke: rgb(0, 0, 0); stroke-width: 3; stroke-linecap: round; stroke-linejoin: round; stroke-miterlimit: 4; stroke-dasharray: none; stroke-opacity: 1;" d="M 179.46875,74.28125 C 183.62836,77.28869 186,80.684808 186,84.28125 C 186,87.877692 183.62836,91.27381 179.46875,94.28125 L 179.46875,74.28125 z" id="path3407"/>
      <path style="fill: rgb(0, 0, 0); fill-opacity: 1; stroke: rgb(0, 0, 0); stroke-width: 1.0188; stroke-linecap: round; stroke-linejoin: round; stroke-miterlimit: 4; stroke-dasharray: none; stroke-opacity: 1;" d="M 173.90625,71 C 174.59435,71.336282 175.23883,71.6807 175.875,72.03125 L 175.875,96.53125 C 175.23883,96.8818 174.59435,97.226218 173.90625,97.5625 L 173.90625,71 z" id="path3409"/>
      <path style="fill: rgb(0, 0, 0); fill-opacity: 1; stroke: rgb(0, 0, 0); stroke-width: 0.912711; stroke-linecap: round; stroke-linejoin: round; stroke-miterlimit: 4; stroke-dasharray: none; stroke-opacity: 1;" d="M 169.25,68.96875 C 169.79142,69.176916 170.32449,69.378081 170.84375,69.59375 L 170.84375,98.96875 C 170.32449,99.184419 169.79142,99.385584 169.25,99.59375 L 169.25,68.96875 z" id="path3411"/>
      <path style="fill: rgb(0, 0, 0); fill-opacity: 1; stroke: rgb(0, 0, 0); stroke-width: 0.795759; stroke-linecap: round; stroke-linejoin: round; stroke-miterlimit: 4; stroke-dasharray: none; stroke-opacity: 1;" d="M 164.59375,67.375 C 164.99159,67.499099 165.39236,67.62227 165.78125,67.75 L 165.78125,100.8125 C 165.39236,100.94023 164.99159,101.0634 164.59375,101.1875 L 164.59375,67.375 z" id="path3413"/>
      <path style="fill: rgb(0, 0, 0); fill-opacity: 1; stroke: rgb(0, 0, 0); stroke-width: 0.509211; stroke-linecap: round; stroke-linejoin: round; stroke-miterlimit: 4; stroke-dasharray: none; stroke-opacity: 1;" d="M 159.84375,66.03125 C 160.01014,66.073597 160.17858,66.113316 160.34375,66.15625 L 160.34375,102.40625 C 160.17858,102.44918 160.01014,102.4889 159.84375,102.53125 L 159.84375,66.03125 z" id="path3415"/>
      <path style="fill: rgb(255, 255, 255); fill-opacity: 1; stroke: rgb(0, 0, 0); stroke-width: 2.99993; stroke-linecap: round; stroke-linejoin: round; stroke-miterlimit: 4; stroke-dasharray: none; stroke-opacity: 1;" d="M 125,57.28125 C 88.567982,57.28125 59,69.37723 59,84.28125 C 59,99.185268 88.567984,111.28125 125,111.28125 C 161.43202,111.28125 191,99.185266 191,84.28125 C 191,69.377232 161.43202,57.281249 125,57.28125 z M 125,62.03125 C 158.67199,62.031251 186,71.999258 186,84.28125 C 186,96.563243 158.67199,106.53125 125,106.53125 C 91.328009,106.53125 64,96.563242 64,84.28125 C 64,71.999259 91.328008,62.03125 125,62.03125 z" id="path3247"/>
      <path id="path3433" d="M 100.0625,144.9375 C 98.741456,146.02813 97.999999,147.21499 98,148.46875 C 98,149.72251 98.741456,150.90937 100.0625,152 L 100.0625,144.9375 z" style="fill: rgb(0, 0, 0); fill-opacity: 1; stroke: rgb(0, 0, 0); stroke-width: 1.71939; stroke-linecap: round; stroke-linejoin: round; stroke-miterlimit: 4; stroke-dasharray: none; stroke-opacity: 1;"/>
      <path id="path3435" d="M 104.15625,142.59375 C 103.59096,142.82838 103.09038,143.09056 102.59375,143.34375 L 102.59375,153.59375 C 103.09795,153.8508 103.61257,154.10584 104.1875,154.34375 L 104.1875,142.59375 C 104.17887,142.59732 104.16487,142.59017 104.15625,142.59375 z" style="fill: rgb(0, 0, 0); fill-opacity: 1; stroke: rgb(0, 0, 0); stroke-width: 0.912711; stroke-linecap: round; stroke-linejoin: round; stroke-miterlimit: 4; stroke-dasharray: none; stroke-opacity: 1;"/>
      <path id="path3437" d="M 107.4375,141.46875 C 107.03471,141.58737 106.63163,141.71732 106.25,141.84375 L 106.25,155.09375 C 106.63163,155.22018 107.03471,155.35013 107.4375,155.46875 L 107.4375,141.46875 z" style="fill: rgb(0, 0, 0); fill-opacity: 1; stroke: rgb(0, 0, 0); stroke-width: 0.795759; stroke-linecap: round; stroke-linejoin: round; stroke-miterlimit: 4; stroke-dasharray: none; stroke-opacity: 1;"/>
      <path id="path3439" d="M 110.78161,140.84375 C 110.60853,140.88432 110.45176,140.92684 110.28161,140.96875 L 110.28161,155.96875 C 110.45176,156.01066 110.60853,156.05318 110.78161,156.09375 L 110.78161,140.84375 z" style="fill: rgb(0, 0, 0); fill-opacity: 1; stroke: rgb(0, 0, 0); stroke-width: 0.509211; stroke-linecap: round; stroke-linejoin: round; stroke-miterlimit: 4; stroke-dasharray: none; stroke-opacity: 1;"/>
      <path style="fill: rgb(0, 0, 0); fill-opacity: 1; stroke: rgb(0, 0, 0); stroke-width: 1.71939; stroke-linecap: round; stroke-linejoin: round; stroke-miterlimit: 4; stroke-dasharray: none; stroke-opacity: 1;" d="M 149.9375,144.9375 C 151.25854,146.02813 152,147.21499 152,148.46875 C 152,149.72251 151.25854,150.90937 149.9375,152 L 149.9375,144.9375 z" id="path3471"/>
      <path style="fill: rgb(0, 0, 0); fill-opacity: 1; stroke: rgb(0, 0, 0); stroke-width: 0.912711; stroke-linecap: round; stroke-linejoin: round; stroke-miterlimit: 4; stroke-dasharray: none; stroke-opacity: 1;" d="M 145.84375,142.59375 C 146.40904,142.82838 146.90962,143.09056 147.40625,143.34375 L 147.40625,153.59375 C 146.90205,153.8508 146.38743,154.10584 145.8125,154.34375 L 145.8125,142.59375 C 145.82113,142.59732 145.83513,142.59017 145.84375,142.59375 z" id="path3473"/>
      <path style="fill: rgb(0, 0, 0); fill-opacity: 1; stroke: rgb(0, 0, 0); stroke-width: 0.795759; stroke-linecap: round; stroke-linejoin: round; stroke-miterlimit: 4; stroke-dasharray: none; stroke-opacity: 1;" d="M 142.5625,141.46875 C 142.96529,141.58737 143.36837,141.71732 143.75,141.84375 L 143.75,155.09375 C 143.36837,155.22018 142.96529,155.35013 142.5625,155.46875 L 142.5625,141.46875 z" id="path3475"/>
      <path style="fill: rgb(0, 0, 0); fill-opacity: 1; stroke: rgb(0, 0, 0); stroke-width: 0.509211; stroke-linecap: round; stroke-linejoin: round; stroke-miterlimit: 4; stroke-dasharray: none; stroke-opacity: 1;" d="M 139.21861,140.84375 C 139.39169,140.88432 139.54846,140.92684 139.71861,140.96875 L 139.71861,155.96875 C 139.54846,156.01066 139.39169,156.05318 139.21861,156.09375 L 139.21861,140.84375 z" id="path3477"/>
      <path id="path3298" d="M 125,134.46875 C 107.33609,134.46875 93,140.74083 93,148.46875 C 93.000002,156.19665 107.33609,162.46875 125,162.46875 C 142.6639,162.46875 157,156.19665 157,148.46875 C 157.00001,140.74083 142.6639,134.46875 125,134.46875 z M 125,139.21875 C 139.90409,139.21875 152,143.36265 152,148.46875 C 151.99999,153.57487 139.90409,157.71875 125,157.71875 C 110.0959,157.71874 98,153.57487 98,148.46875 C 97.999996,143.36265 110.0959,139.21875 125,139.21875 z" style="fill: rgb(255, 255, 255); fill-opacity: 1; stroke: rgb(0, 0, 0); stroke-width: 3.00038; stroke-linecap: round; stroke-linejoin: round; stroke-miterlimit: 4; stroke-dasharray: none; stroke-opacity: 1;"/>
      <path sodipodi:nodetypes="csccssssssssscscsssssssc" id="path3536" d="M 125.0625,32.59375 C 75.658513,32.593751 35.5625,53.649765 35.5625,79.59375 C 35.562499,92.257449 45.130421,103.73331 60.65625,112.1875 C 60.893966,110.50007 61.096102,108.85039 61.25,107.28125 C 48.375931,99.865872 40.5625,90.176772 40.5625,79.59375 C 40.562501,56.271703 78.418457,37.34375 125.0625,37.34375 C 171.70654,37.343749 209.5625,56.271706 209.5625,79.59375 C 209.5625,85.424258 206.69339,96.761318 189.93823,105.35299 C 174,113.52577 145.3945,118.38084 121.92239,122.90933 C 99.022474,127.32742 72.606215,133.37723 56.557662,142.46463 C 32.224714,156.24303 34.799021,173.53463 35.609,178.576 C 39.432449,202.37341 75.163686,216.25 124.84375,216.25 C 174.52382,216.25001 214.84375,204.71119 214.84375,179.25 C 214.84375,161.68368 192.56382,145.9016 155.65625,144.4375 C 156.52996,145.70847 157,147.07207 157,148.46875 C 157,148.78829 156.9585,149.09046 156.90625,149.375 C 187.67399,151.00025 209.84376,163.36768 209.84375,179.25 C 209.84374,201.55895 171.76383,211.5 124.84375,211.5 C 77.923683,211.5 44.078331,198.39112 40.344,177.25 C 39.569851,172.86732 38.411308,159.57491 56.520546,148.44028 C 72.367623,138.69657 99.183419,131.92567 122.68061,127.5292 C 143.45962,123.64131 179.54694,118.08791 195.46845,108.14731 C 211.84806,97.920688 214.5625,86.079745 214.5625,79.59375 C 214.5625,53.649764 174.46649,32.59375 125.0625,32.59375 z" style="fill: rgb(255, 255, 255); fill-opacity: 1; stroke: rgb(0, 0, 0); stroke-width: 2.76612; stroke-linecap: round; stroke-linejoin: round; stroke-miterlimit: 4; stroke-opacity: 1;"/>
      <path id="path3570" d="M 44.491475,67.287396 L 40.453236,77.489263 L 40.94916,82.519351 L 44.491475,89.462288 L 44.491475,67.287396 z" style="fill: rgb(0, 0, 0); fill-rule: evenodd; stroke: rgb(0, 0, 0); stroke-width: 1px; stroke-linecap: butt; stroke-linejoin: miter; stroke-opacity: 1;"/>
      <path id="path3572" d="M 206.02104,69.837863 L 208.7132,73.876102 L 209.4925,79.118728 L 208.78404,84.786432 L 205.38342,90.454136 L 206.02104,69.837863 z" style="fill: rgb(0, 0, 0); fill-rule: evenodd; stroke: rgb(0, 0, 0); stroke-width: 1px; stroke-linecap: butt; stroke-linejoin: miter; stroke-opacity: 1;"/>
      <path id="path3574" d="M 206.30442,171.28976 L 209.27997,174.90292 L 210.05927,179.01201 L 208.99658,183.61702 L 206.09188,187.08849 L 206.30442,171.28976 z" style="fill: rgb(0, 0, 0); fill-rule: evenodd; stroke: rgb(0, 0, 0); stroke-width: 1px; stroke-linecap: butt; stroke-linejoin: miter; stroke-opacity: 1;"/>
      <path id="path3576" d="M 43.64132,164.57567 L 40.169851,170.24337 L 40.453236,177.39885 L 41.72847,183.20824 L 44.774861,185.61702 L 43.64132,164.57567 z" style="fill: rgb(0, 0, 0); fill-rule: evenodd; stroke: rgb(0, 0, 0); stroke-width: 1px; stroke-linecap: butt; stroke-linejoin: miter; stroke-opacity: 1;" sodipodi:nodetypes="cccccc"/>
    </g>
  </g>
</svg>