<?xml version="1.0" encoding="UTF-8" standalone="no"?>
<!-- Created with Inkscape (http://www.inkscape.org/) -->
<svg
   xmlns:dc="http://purl.org/dc/elements/1.1/"
   xmlns:cc="http://creativecommons.org/ns#"
   xmlns:rdf="http://www.w3.org/1999/02/22-rdf-syntax-ns#"
   xmlns:svg="http://www.w3.org/2000/svg"
   xmlns="http://www.w3.org/2000/svg"
   xmlns:sodipodi="http://sodipodi.sourceforge.net/DTD/sodipodi-0.dtd"
   xmlns:inkscape="http://www.inkscape.org/namespaces/inkscape"
   width="250"
   height="300"
   id="svg2"
   sodipodi:version="0.32"
   inkscape:version="0.46"
   version="1.0"
   sodipodi:docname="Andoran-icon.svg"
   inkscape:output_extension="org.inkscape.output.svg.inkscape">
  <defs
     id="defs4">
    <inkscape:perspective
       sodipodi:type="inkscape:persp3d"
       inkscape:vp_x="0 : 526.18109 : 1"
       inkscape:vp_y="0 : 1000 : 0"
       inkscape:vp_z="744.09448 : 526.18109 : 1"
       inkscape:persp3d-origin="372.04724 : 350.78739 : 1"
       id="perspective10" />
    <inkscape:perspective
       id="perspective3217"
       inkscape:persp3d-origin="372.04724 : 350.78739 : 1"
       inkscape:vp_z="744.09448 : 526.18109 : 1"
       inkscape:vp_y="0 : 1000 : 0"
       inkscape:vp_x="0 : 526.18109 : 1"
       sodipodi:type="inkscape:persp3d" />
    <clipPath
       clipPathUnits="userSpaceOnUse"
       id="clipPath3225">
      <rect
         style="opacity:1;fill:none;fill-opacity:1;stroke:#000000;stroke-width:2.91792989;stroke-linecap:round;stroke-linejoin:round;stroke-miterlimit:4;stroke-dasharray:none;stroke-opacity:1"
         id="rect3227"
         width="195.99936"
         height="223.83606"
         x="26.204988"
         y="10.82853"
         transform="matrix(0.9999756,-6.9812606e-3,6.9812606e-3,0.9999756,0,0)" />
    </clipPath>
  </defs>
  <sodipodi:namedview
     id="base"
     pagecolor="#ffffff"
     bordercolor="#666666"
     borderopacity="1.0"
     gridtolerance="10000"
     guidetolerance="10"
     objecttolerance="10"
     inkscape:pageopacity="0.0"
     inkscape:pageshadow="2"
     inkscape:zoom="3.1433333"
     inkscape:cx="37.354187"
     inkscape:cy="150"
     inkscape:document-units="px"
     inkscape:current-layer="layer1"
     showgrid="false"
     inkscape:window-width="1904"
     inkscape:window-height="1150"
     inkscape:window-x="0"
     inkscape:window-y="14" />
  <metadata
     id="metadata7">
    <rdf:RDF>
      <cc:Work
         rdf:about="">
        <dc:format>image/svg+xml</dc:format>
        <dc:type
           rdf:resource="http://purl.org/dc/dcmitype/StillImage" />
      </cc:Work>
    </rdf:RDF>
  </metadata>
  <g
     inkscape:label="Layer 1"
     inkscape:groupmode="layer"
     id="layer1">
    <g
       id="g3210">
      <rect
         y="55"
         x="30"
         height="190"
         width="190"
         id="rect2410"
         style="fill:#ffffff;fill-opacity:1;stroke:none;stroke-width:3;stroke-linecap:round;stroke-linejoin:round;stroke-miterlimit:4;stroke-dasharray:none;stroke-opacity:1" />
      <path
         id="rect3229"
         d="M 25,50.000082 L 25,250.00008 L 225,250.00008 L 225,50.000082 L 25,50.000082 z M 34,59.000082 L 216,59.000082 L 216,241.00008 L 34,241.00008 L 34,59.000082 z"
         style="fill:#000000;fill-opacity:1;stroke:none;stroke-width:3;stroke-linecap:round;stroke-linejoin:round;stroke-miterlimit:4;stroke-dasharray:none;stroke-opacity:1" />
      <rect
         y="61.50008"
         x="36.5"
         height="177"
         width="177"
         id="rect3231"
         style="fill:#000000;fill-opacity:1;stroke:none;stroke-width:3;stroke-linecap:round;stroke-linejoin:round;stroke-miterlimit:4;stroke-dasharray:none;stroke-opacity:1" />
      <path
         id="path3447"
         d="M 133.0625,22.500082 C 120.97667,22.846576 109.73815,27.958447 101.75,36.656332 C 97.825679,37.551106 94.472642,39.024464 91.71875,40.937582 C 86.473241,44.581617 83.323843,49.470359 81,53.656332 C 80.206224,55.085547 80.420525,56.862988 81.53125,58.062582 L 82.71875,59.343832 C 82.409792,62.285958 83.112379,65.158264 85,67.250082 C 86.828405,69.276279 89.605234,70.230953 92.46875,70.093832 L 94.75,72.593832 C 94.858072,72.704944 94.972872,72.809307 95.09375,72.906332 C 94.864623,73.291911 94.705901,73.715169 94.625,74.156332 C 93.67279,79.363222 92.272537,83.044722 90.78125,85.250082 C 89.289963,87.455442 87.94647,88.244611 86.125,88.531332 C 82.482061,89.104775 75.506352,86.285966 66.4375,79.187582 C 65.869046,78.744984 65.186011,78.473938 64.46875,78.406332 C 61.745437,78.140119 60.485776,77.851815 59.28125,77.468832 C 59.909139,77.668471 58.999667,77.266341 58.5625,76.718832 C 58.125333,76.171323 58.001232,75.540086 58,75.656332 C 58.000236,75.634031 58.105759,75.27726 58.71875,74.000082 C 59.331741,72.722904 60.178376,70.645468 60.15625,68.031332 C 60.135083,65.530403 59.553658,63.112852 58.6875,60.968832 C 57.821342,58.824812 56.807266,56.952732 55,55.468832 C 53.458674,54.208423 51.204125,54.358726 49.84375,55.812582 C 47.750256,53.229389 44.895344,51.138445 41.09375,50.750082 C 39.802154,50.628994 38.53861,51.17827 37.746126,52.205329 C 36.953641,53.232389 36.742791,54.593928 37.1875,55.812582 C 36.880299,55.6768 36.634747,55.511844 36.28125,55.406332 C 34.90838,54.996558 33.479948,54.744329 32,54.750082 C 29.509258,54.759763 26.696105,55.675623 24.78125,57.843832 C 23.881913,58.862266 23.597909,60.284816 24.037241,61.570507 C 24.476572,62.856198 25.571733,63.807475 26.90625,64.062582 C 26.860256,64.053835 27.006335,64.173696 27.03125,64.218832 C 26.717445,65.484685 26.497657,66.881101 26.59375,68.531332 C 26.610799,68.824121 26.716555,69.064413 26.75,69.343832 C 24.615546,69.352293 22.504588,69.814988 20.5,70.625082 C 18.436064,71.459159 16.283621,72.332699 15.0625,75.187582 C 14.508522,76.454875 14.690422,77.923487 15.536847,79.017328 C 16.383272,80.11117 17.759238,80.655801 19.125,80.437582 C 19.640484,80.356178 20.27214,80.686956 20.625,80.781332 C 21.391876,83.555017 23.087614,85.917093 25.21875,87.750082 C 27.872541,90.032607 31.265573,91.627996 35,91.656332 C 38.703648,91.684434 45.025655,94.404066 50.8125,99.125082 C 53.482459,101.30328 57.062973,105.39676 60.53125,109.28133 C 58.202931,111.44984 56.247617,113.14124 54.75,114.00008 C 52.700974,115.17514 51.088848,115.54675 48.03125,115.59383 C 45.224857,115.63705 43.697019,115.04856 41.8125,114.25008 C 39.927981,113.4516 37.549279,112.24583 34.28125,112.12508 C 31.369329,112.0175 28.546793,112.49315 26.09375,113.93758 C 23.640707,115.38201 21.755536,117.83875 20.8125,120.75008 C 20.237591,122.54915 21.077923,124.49659 22.78125,125.31258 C 21.214275,127.0062 19.844103,129.13343 19,131.81258 C 18.026345,134.90293 17.798896,138.75972 19.625,142.34383 C 20.218371,143.49946 21.363273,144.26973 22.657309,144.38391 C 23.951346,144.49809 25.213438,143.9402 26,142.90633 C 26.122897,144.73783 26.478373,146.66165 27.90625,148.40633 C 28.82102,149.53038 30.297636,150.03292 31.708176,149.70025 C 33.118717,149.36757 34.21516,148.25818 34.53125,146.84383 C 34.703485,146.0897 34.810861,145.78076 34.96875,145.56258 C 35.339949,145.6703 35.683546,145.81277 36.03125,145.87508 C 36.079865,146.54398 35.983453,147.22138 36.09375,147.87508 C 36.429763,149.86654 36.735934,151.85271 38.84375,153.65633 C 39.914423,154.56997 41.40386,154.81354 42.709792,154.28854 C 44.015724,153.76354 44.922132,152.55682 45.0625,151.15633 C 45.132347,150.44285 45.171192,150.38743 45.21875,150.06258 C 46.435798,150.13959 47.62294,149.97213 48.9375,149.78133 C 51.417277,149.42141 54.044912,148.77589 56.28125,146.75008 C 59.380389,143.94269 60.272811,140.64057 60.75,138.40633 C 65.627506,136.02482 70.443081,134.70805 75.4375,134.28133 C 76.468027,138.16628 77.697796,141.79855 79.1875,144.78133 C 81.093117,148.59688 82.961812,151.56442 86.03125,153.31258 C 87.039773,153.88368 88.25446,153.96087 89.327165,153.52204 C 90.39987,153.0832 91.21217,152.17679 91.53125,151.06258 C 98.062634,160.49206 104.66969,166.36151 110.4375,170.06258 C 109.94629,170.09588 109.66651,170.12786 109.09375,170.15633 C 105.89571,170.31528 101.57693,170.42724 96.96875,170.78133 C 87.752395,171.48952 77.224088,172.55947 71.40625,179.43758 C 70.967527,179.95514 70.676096,180.58117 70.5625,181.25008 C 69.026214,190.58863 70.740182,198.93442 75.1875,205.09383 C 78.751429,210.02977 84.062576,213.37343 90.25,214.84383 C 87.926272,220.52885 83.643183,223.83518 79.0625,227.18758 C 76.175217,229.30065 72.50259,230.83281 69.21875,231.78133 C 67.046514,230.22062 64.233767,228.55223 60.28125,228.59383 C 57.540365,228.62268 54.907135,229.01747 52.5,230.21883 C 50.092865,231.42019 48.073602,233.46901 46.71875,236.06258 C 46.044783,237.36318 46.182387,238.93599 47.071963,240.0998 C 47.961538,241.2636 49.44312,241.80912 50.875,241.50008 C 50.094459,243.229 49.688125,245.02487 49.5625,246.78133 C 49.433978,248.5783 49.391511,250.24635 50.4375,252.21883 C 51.078668,253.42651 52.321708,254.19412 53.688651,254.22652 C 55.055593,254.25891 56.333598,253.55103 57.03125,252.37508 C 57.260574,251.99067 57.244815,252.02317 57.34375,251.84383 C 58.418744,252.31351 59.526433,252.62076 60.65625,252.78133 C 60.719006,254.23673 61.081809,255.70026 61.90625,257.09383 C 62.644784,258.32369 64.015523,259.0299 65.445673,258.91734 C 66.875822,258.80478 68.119207,257.89284 68.65625,256.56258 C 68.911778,255.92294 68.984373,255.80197 69.15625,255.40633 C 69.581828,255.50719 70.000529,255.64817 70.4375,255.71883 C 72.060654,255.98129 73.819042,255.98403 75.59375,255.75008 C 75.909296,257.25458 76.23865,258.98102 78.65625,260.21883 C 79.729566,260.7617 80.997096,260.76172 82.07043,260.21889 C 83.143764,259.67605 83.894931,258.65508 84.09375,257.46883 C 84.150103,257.12708 84.229736,257.01409 84.3125,256.75008 C 85.486105,256.83571 86.795222,256.87887 88.28125,256.75008 C 91.557532,256.46613 95.487406,255.53848 99.0625,253.09383 C 102.78118,250.551 106.18692,246.22599 108.875,240.75008 C 110.65044,237.13331 112.01186,232.97582 112.71875,228.56258 C 113.67954,229.3442 114.96213,229.6059 116.15233,229.26317 C 117.34253,228.92044 118.28953,228.01671 118.6875,226.84383 C 119.44425,224.60239 119.56485,222.02209 119.25,218.87508 C 118.93515,215.72807 118.05879,212.11981 116.3125,208.59383 C 116.26792,208.50382 116.17089,208.43369 116.125,208.34383 C 120.04397,209.94605 124.06793,211.34551 128.46875,212.12508 C 127.89702,214.12684 127.48482,216.13919 127.5,218.21883 C 127.57024,227.84281 130.44715,233.16462 133.5,235.75008 C 134.00875,236.18381 134.62337,236.47494 135.28125,236.59383 C 141.13488,237.63007 147.95544,236.64833 153.875,235.40633 C 154.14908,236.52056 154.5627,237.65423 154.625,238.65633 C 154.74549,240.59439 154.38623,241.98408 153.8125,242.71883 C 152.22916,244.74655 150.91083,245.50257 149.5625,246.00008 C 147.38202,244.37696 144.4362,242.55009 140.28125,242.59383 C 137.54036,242.62268 134.90714,243.01747 132.5,244.21883 C 130.09286,245.42019 128.0736,247.46901 126.71875,250.06258 C 126.04478,251.36318 126.18239,252.93599 127.07196,254.0998 C 127.96154,255.2636 129.44312,255.80912 130.875,255.50008 C 130.09446,257.229 129.68813,259.02487 129.5625,260.78133 C 129.43398,262.5783 129.39151,264.24634 130.4375,266.21883 C 131.07867,267.42651 132.32171,268.19412 133.68865,268.22652 C 135.05559,268.25891 136.3336,267.55103 137.03125,266.37508 C 137.26057,265.99067 137.24482,266.02317 137.34375,265.84383 C 138.41874,266.31351 139.52643,266.62076 140.65625,266.78133 C 140.71901,268.23674 141.0818,269.70026 141.90625,271.09383 C 142.64478,272.32369 144.01552,273.0299 145.44567,272.91734 C 146.87582,272.80478 148.11921,271.89284 148.65625,270.56258 C 148.91178,269.92294 148.98437,269.80197 149.15625,269.40633 C 149.58183,269.50719 150.00053,269.64817 150.4375,269.71883 C 152.06065,269.98129 153.81904,269.98403 155.59375,269.75008 C 155.90856,271.26039 156.23025,272.97672 158.65625,274.21883 C 159.72957,274.7617 160.9971,274.76172 162.07043,274.21889 C 163.14376,273.67605 163.89493,272.65508 164.09375,271.46883 C 164.14493,271.15845 164.20683,271.05917 164.28125,270.81258 C 165.6372,270.95569 167.21876,271.03936 168.96875,270.87508 C 172.63203,270.53118 177.22987,269.16285 180.0625,265.03133 C 184.82406,258.08641 183.06806,252.23623 182.59375,249.37508 C 182.44467,248.4977 181.99098,247.70099 181.3125,247.12508 C 179.75078,245.80707 178.90361,245.45266 178.0625,244.31258 C 177.69545,243.81507 177.38202,243.18288 177.15625,242.40633 C 177.56716,242.60715 178.06931,242.79653 178.34375,243.00008 C 179.38675,243.77522 180.75464,243.96067 181.96637,243.4912 C 183.1781,243.02173 184.064,241.96309 184.3125,240.68758 C 185.67232,233.58795 182.16515,226.75011 178.625,221.21883 C 175.08485,215.68755 171.052,211.32712 170.21875,210.40633 C 169.34445,209.4391 168.03364,208.99036 166.75,209.21883 C 165.0153,209.51698 163.07823,209.89224 161.375,209.84383 C 160.79018,209.82721 160.34356,209.69355 159.875,209.59383 C 160.92812,207.97659 162.18221,206.41015 163.5625,204.87508 C 164.04316,205.9585 165.00389,206.75395 166.15795,207.02405 C 167.31202,207.29415 168.52597,207.00766 169.4375,206.25008 C 172.09443,204.03539 174.51622,200.47884 176.6875,196.09383 C 178.32472,192.78739 179.72701,189.07761 180.34375,185.25008 C 180.91525,185.25284 181.39104,185.28855 182,185.28133 C 191.2466,185.17172 199.95518,182.22227 206.53125,177.37508 C 213.10732,172.52789 217.68325,165.56484 217.75,157.62508 C 217.81017,150.46884 215.79533,145.65601 213.9375,142.37508 C 212.9403,140.61402 212.2298,139.42221 211.71875,138.40633 C 212.02385,138.42922 212.28093,138.56367 212.59375,138.56258 C 216.39219,138.54931 219.18765,136.79318 221.0625,135.65633 C 222.93735,134.51948 223.74751,134.08118 224.75,134.18758 C 226.10915,134.33183 226.4311,134.6498 226.75,135.28133 C 227.0689,135.91286 227.33882,137.45991 226.5,140.15633 C 225.87019,142.0761 226.86038,144.15189 228.74871,144.87046 C 230.63705,145.58903 232.75673,144.69664 233.5625,142.84383 C 236.08813,137.34104 237.39599,131.84877 235.90625,125.84383 C 235.04064,122.35471 232.87788,118.78585 229.625,115.75008 C 226.37212,112.71431 221.88074,110.26465 216.5625,110.21883 C 211.49668,110.17519 206.16817,111.75563 201.8125,115.00008 C 197.45683,118.24453 194.12815,123.45467 194.125,129.87508 C 194.12191,136.18399 196.75704,140.74673 198.90625,144.18758 C 201.05546,147.62843 202.54032,149.90387 202.5625,153.00008 C 202.60944,159.55001 197.7582,165.75477 186.5,165.87508 C 180.20975,165.94229 171.4231,162.26182 163.84375,158.62508 C 157.97424,153.77582 151.97513,150.04231 147.40625,146.46883 C 143.31338,143.26765 140.63848,140.32092 139.4375,137.03133 C 144.08968,131.1232 146.38983,125.2902 147.40625,117.75008 C 163.94663,108.35694 173.00211,95.856508 176.09375,82.750082 C 178.93949,70.686085 176.7537,58.443101 172,47.531332 L 172.34375,47.406332 C 173.56967,47.010471 174.50982,46.01787 174.8386,44.77228 C 175.16739,43.526691 174.8396,42.199405 173.96875,41.250082 C 161.60109,27.940032 146.79555,22.106363 133.0625,22.500082 z M 112.875,56.531332 C 114.46741,56.533175 116.85695,57.522781 118.6875,59.312582 C 120.51805,61.102383 121.72784,63.4917 121.75,65.906332 C 121.77063,68.154054 120.56276,70.45253 118.5625,72.250082 C 116.56224,74.047634 113.85373,75.121628 111.9375,75.125082 C 106.96922,75.134036 103.18915,73.610082 100.875,71.937582 C 101.11953,71.482981 101.26842,70.98314 101.3125,70.468832 C 102.01234,63.9153 104.02084,60.629927 106.0625,58.843832 C 108.10416,57.057737 110.51512,56.528601 112.875,56.531332 z"
         style="fill:#ffffff;fill-opacity:1;fill-rule:evenodd;stroke:none;stroke-width:3;stroke-linecap:round;stroke-linejoin:round;stroke-miterlimit:4;stroke-opacity:1" />
      <path
         sodipodi:nodetypes="csscscsssc"
         id="path3236"
         d="M 204.09375,126.71883 C 204.36211,129.94076 207.28129,134.79989 212.59375,134.78133 C 217.90517,134.76278 220.46097,129.93923 225.15625,130.43758 C 229.76433,130.92666 232.174,134.69476 230.125,141.28133 C 232.48614,136.13694 233.50274,131.79969 232.25,126.75008 C 230.99726,121.70048 224.88013,114.07201 216.53125,114.00008 C 208.09419,113.92739 197.91133,119.51079 197.90625,129.87508 C 197.90104,140.50449 206.2819,144.33668 206.34375,152.96883 C 206.40561,161.6008 199.33382,169.51952 186.53125,169.65633 C 178.7918,169.73903 169.6176,165.61955 161.90625,161.90633"
         style="fill:none;fill-rule:evenodd;stroke:#000000;stroke-width:3;stroke-linecap:round;stroke-linejoin:round;stroke-miterlimit:4;stroke-dasharray:none;stroke-opacity:1" />
      <path
         sodipodi:nodetypes="ccsssc"
         id="path3240"
         d="M 176.90625,181.37508 C 176.90608,181.39584 176.9065,181.4168 176.90625,181.43758 C 178.46191,181.49172 180.11813,181.52202 181.96875,181.50008 C 198.89273,181.29947 213.85952,170.58676 213.96875,157.59383 C 214.07799,144.60046 207.29998,142.15484 207.1875,136.09383 C 207.16562,134.91461 207.25843,133.86642 207.4375,132.93758"
         style="fill:none;fill-rule:evenodd;stroke:#000000;stroke-width:3;stroke-linecap:round;stroke-linejoin:round;stroke-miterlimit:4;stroke-dasharray:none;stroke-opacity:1" />
      <path
         sodipodi:nodetypes="ccssccc"
         id="path3245"
         d="M 97.75,92.468832 C 87.435767,107.87534 74.566654,108.98324 65.8125,109.53133 C 58.081652,117.16386 54.963759,119.26929 48.09375,119.37508 C 41.22208,119.4809 38.954844,116.08363 34.15625,115.90633 C 29.361201,115.72917 25.814537,117.55869 24.40625,121.90633 C 26.00276,121.49307 27.673468,121.25161 28.860536,121.31564 C 28.920247,123.29618 29.736408,123.55296 30.1875,124.81258"
         style="fill:none;fill-rule:evenodd;stroke:#000000;stroke-width:3;stroke-linecap:round;stroke-linejoin:round;stroke-miterlimit:4;stroke-dasharray:none;stroke-opacity:1" />
      <path
         sodipodi:nodetypes="csccc"
         id="path3247"
         d="M 36.75,123.40633 C 33.709944,123.27428 28.575871,124.90599 26.0625,127.25008 C 23.50952,129.6311 20.463043,135.64578 23,140.62508 C 24.151401,138.75632 25.210806,137.41863 26.415276,136.7856 C 27.394275,137.73088 28.74381,137.91527 30.25,137.62508"
         style="fill:none;fill-rule:evenodd;stroke:#000000;stroke-width:3;stroke-linecap:round;stroke-linejoin:round;stroke-miterlimit:4;stroke-dasharray:none;stroke-opacity:1" />
      <path
         sodipodi:nodetypes="csccc"
         id="path3249"
         d="M 39.5,130.00008 C 36.350195,130.01741 32.837373,132.09329 31.25,134.96883 C 29.662628,137.84437 28.912822,143.64074 30.84375,146.00008 C 31.432208,143.42352 32.722756,142.21837 34.590216,141.43086 C 37.491431,143.01002 38.673312,141.85606 39.6875,142.18758"
         style="fill:none;fill-rule:evenodd;stroke:#000000;stroke-width:3;stroke-linecap:round;stroke-linejoin:round;stroke-miterlimit:4;stroke-dasharray:none;stroke-opacity:1" />
      <path
         sodipodi:nodetypes="czcczccz"
         id="path3253"
         d="M 46.442462,134.33452 C 44.62036,134.26052 41.367778,136.29628 40.223895,139.52979 C 39.089034,142.73778 39.430914,149.16464 41.325919,150.78617 C 41.567887,148.31448 41.586842,147.14589 43.608684,145.74835 C 45.394378,146.71229 51.265519,146.20029 53.763053,143.93787 C 56.303516,141.63656 57.19175,137.28389 57.519185,135.72907 C 68.790244,129.75126 80.153021,128.95741 92.648775,131.97304 C 97.044072,125.28908 109.52347,119.23718 115.08284,119.14233"
         style="fill:none;fill-rule:evenodd;stroke:#000000;stroke-width:3;stroke-linecap:round;stroke-linejoin:round;stroke-miterlimit:4;stroke-dasharray:none;stroke-opacity:1" />
      <path
         sodipodi:nodetypes="csccsssccc"
         id="path3265"
         d="M 115.21875,168.65633 C 115.83594,170.48369 116.05251,172.12646 115.34375,172.96883 C 113.39786,175.28156 82.729556,171.88712 74.28125,181.87508 C 71.469722,198.96538 80.716038,210.81238 95.25,211.87508 C 93.324565,221.50569 86.789813,226.21861 81.28125,230.25008 C 75.77269,234.28155 68.327751,236.5951 63.90625,236.65633 C 59.48175,236.7176 55.40584,240.67551 54.34375,242.96883 C 53.216037,245.40386 52.990932,248.94723 53.78125,250.43758 C 54.909773,248.54585 54.98753,248.56103 56.8125,247.15633 C 58.821882,248.9359 62.174539,249.47321 65,249.03133"
         style="fill:none;fill-rule:evenodd;stroke:#000000;stroke-width:3;stroke-linecap:round;stroke-linejoin:round;stroke-miterlimit:4;stroke-dasharray:none;stroke-opacity:1" />
      <path
         sodipodi:nodetypes="ccccc"
         id="path3267"
         d="M 68.71875,235.96883 C 66.823108,234.40376 63.927285,232.33703 60.3125,232.37508 C 55.523585,232.42549 52.170652,233.77698 50.0625,237.81258 C 51.544975,237.1811 53.063706,237.23159 54.415529,237.75458 C 54.410217,238.96519 55.049115,239.95646 55.96875,240.71883"
         style="fill:none;fill-rule:evenodd;stroke:#000000;stroke-width:3;stroke-linecap:round;stroke-linejoin:round;stroke-miterlimit:4;stroke-dasharray:none;stroke-opacity:1" />
      <path
         sodipodi:nodetypes="csccsc"
         id="path3269"
         d="M 80.59375,238.12508 C 76.86275,238.10439 71.92353,239.61111 68.53125,243.09383 C 65.138966,246.57654 63.367914,252.13347 65.15625,255.15633 C 66.155437,252.65515 66.62864,251.29267 68.21875,250.87508 C 69.357918,251.92305 72.299445,252.40051 75.1875,252.00008 C 76.044393,251.88127 77.539988,251.31581 78.775707,250.73109"
         style="fill:none;fill-rule:evenodd;stroke:#000000;stroke-width:3;stroke-linecap:round;stroke-linejoin:round;stroke-miterlimit:4;stroke-dasharray:none;stroke-opacity:1" />
      <path
         sodipodi:nodetypes="csccsccc"
         id="path3271"
         d="M 86.46875,241.625 C 84.208306,241.75241 80.750277,243.85427 79.59375,246.9375 C 78.400238,250.11934 78.716075,255.99439 80.375,256.84375 C 80.681095,254.98745 81.065121,253.26165 82.0625,252.5625 C 83.623555,253.21618 91.246846,253.86002 96.9375,249.96875 C 102.66967,246.04909 109.79738,234.28285 109.46875,221.6875 C 111.73304,222.05675 113.87673,224.02242 115.09375,225.625 C 116.29559,222.06524 114.94179,208.94646 107.15625,200.46875"
         style="fill:none;fill-rule:evenodd;stroke:#000000;stroke-width:3;stroke-linecap:round;stroke-linejoin:round;stroke-miterlimit:4;stroke-dasharray:none;stroke-opacity:1" />
      <path
         sodipodi:nodetypes="cccscsc"
         id="path3299"
         d="M 78.25,130.28133 C 80.295599,140.06319 84.517752,148.10145 87.90625,150.03133 C 88.064444,147.3161 89.244307,145.02132 91.46875,144.31258 C 107.59452,171.14589 124.80806,171.06095 128.0625,175.68758 C 130.55477,179.23067 129.34017,183.1505 126.9375,185.62508 C 129.40009,189.27019 131.73636,189.69159 135.65625,191.15633 C 137.68174,191.91319 139.01318,193.69034 139.84375,195.50008"
         style="fill:none;fill-rule:evenodd;stroke:#000000;stroke-width:3;stroke-linecap:round;stroke-linejoin:round;stroke-miterlimit:4;stroke-dasharray:none;stroke-opacity:1" />
      <path
         id="path3297"
         d="M 116.125,84.906332 C 115.24897,84.891125 114.37156,84.892061 113.53125,84.906332 C 91.79584,85.275451 81.918592,95.380303 78.5,107.53133"
         style="fill:none;fill-rule:evenodd;stroke:#000000;stroke-width:3;stroke-linecap:round;stroke-linejoin:round;stroke-miterlimit:4;stroke-dasharray:none;stroke-opacity:1" />
      <path
         sodipodi:nodetypes="czzcz"
         id="path3301"
         d="M 139.9116,176.80486 C 140.81176,178.06103 142.8882,181.224 141.73617,189.411 C 140.58259,197.60904 131.2221,209.38734 131.28635,218.1895 C 131.3512,227.07459 133.97357,231.21152 135.93071,232.86902 C 144.3568,234.36065 158.89782,231.01543 162.71876,229.13695"
         style="fill:none;fill-rule:evenodd;stroke:#000000;stroke-width:3;stroke-linecap:round;stroke-linejoin:round;stroke-miterlimit:4;stroke-dasharray:none;stroke-opacity:1" />
      <path
         sodipodi:nodetypes="csssccc"
         id="path3314"
         d="M 156.6875,231.06258 C 158.37368,235.60009 159.51688,241.52791 156.78125,245.03133 C 152.5801,250.4116 148.32775,250.5951 143.90625,250.65633 C 139.48175,250.7176 135.40584,254.67551 134.34375,256.96883 C 133.21604,259.40386 132.99093,262.94723 133.78125,264.43758 C 134.90977,262.54585 134.98753,262.56103 136.8125,261.15633 C 138.82188,262.9359 142.17454,263.47321 145,263.03133"
         style="fill:none;fill-rule:evenodd;stroke:#000000;stroke-width:3;stroke-linecap:round;stroke-linejoin:round;stroke-miterlimit:4;stroke-dasharray:none;stroke-opacity:1" />
      <path
         style="fill:none;fill-rule:evenodd;stroke:#000000;stroke-width:3;stroke-linecap:round;stroke-linejoin:round;stroke-miterlimit:4;stroke-dasharray:none;stroke-opacity:1"
         d="M 148.71875,249.96883 C 146.82311,248.40376 143.92728,246.33703 140.3125,246.37508 C 135.52358,246.42549 132.17065,247.77698 130.0625,251.81258 C 131.54497,251.1811 133.06371,251.23159 134.41553,251.75458 C 134.41022,252.96519 135.04912,253.95646 135.96875,254.71883"
         id="path3316"
         sodipodi:nodetypes="ccccc" />
      <path
         style="fill:none;fill-rule:evenodd;stroke:#000000;stroke-width:3;stroke-linecap:round;stroke-linejoin:round;stroke-miterlimit:4;stroke-dasharray:none;stroke-opacity:1"
         d="M 160.59375,252.12508 C 156.86275,252.10439 151.92353,253.61111 148.53125,257.09383 C 145.13897,260.57654 143.36791,266.13347 145.15625,269.15633 C 146.15544,266.65515 146.62864,265.29267 148.21875,264.87508 C 149.35792,265.92305 152.29945,266.40051 155.1875,266.00008 C 156.04439,265.88127 157.53999,265.31581 158.77571,264.73109"
         id="path3318"
         sodipodi:nodetypes="csccsc" />
      <path
         sodipodi:nodetypes="csccsccccc"
         id="path3320"
         d="M 166.46875,255.62508 C 164.20831,255.75249 160.75028,257.85435 159.59375,260.93758 C 158.40024,264.11942 158.71608,269.99447 160.375,270.84383 C 160.68109,268.98754 161.06512,267.26173 162.0625,266.56258 C 163.62355,267.21626 173.0392,268.59217 176.9375,262.90633 C 181.079,256.86579 179.46874,253.58165 178.875,250.00008 C 177.42773,248.77866 171.86162,246.23684 173.34375,237.50008 C 175.91978,237.52803 178.77601,238.62063 180.59375,239.96883 C 182.60925,229.44586 169.19693,214.91639 167.40625,212.93758 C 164.08045,213.50921 158.11796,214.87457 154.59375,210.84383"
         style="fill:none;fill-rule:evenodd;stroke:#000000;stroke-width:3;stroke-linecap:round;stroke-linejoin:round;stroke-miterlimit:4;stroke-dasharray:none;stroke-opacity:1" />
      <path
         sodipodi:nodetypes="cscccscsccssc"
         id="path3347"
         d="M 42.75,68.468832 C 41.967298,65.071746 38.071586,59.892174 35.1875,59.031332 C 34.105967,58.708516 33.023155,58.527355 32,58.531332 C 30.294742,58.53796 28.745357,59.075241 27.625,60.343832 C 29.326109,60.667363 30.688222,62.296688 31.125,63.687582 C 30.505549,64.915978 30.237999,65.959817 30.375,68.312582 C 30.507286,70.584368 31.027331,71.670995 32.59375,74.656332 C 30.828986,73.6605 29.849251,73.121404 26.90625,73.093832 C 23.882006,73.065499 19.39431,74.669818 18.53125,76.687582 C 20.674379,76.349143 23.001437,77.266989 23.96875,78.375082 C 24.367324,83.139353 29.810015,87.835465 35.03125,87.875082 C 40.253734,87.914709 46.997459,91.112137 53.21875,96.187582 C 57.131811,99.37993 61.818986,105.17188 65.84375,109.53133"
         style="fill:none;fill-rule:evenodd;stroke:#000000;stroke-width:3;stroke-linecap:round;stroke-linejoin:round;stroke-miterlimit:4;stroke-dasharray:none;stroke-opacity:1" />
      <path
         sodipodi:nodetypes="csccc"
         id="path3349"
         d="M 49.5625,70.593832 C 49.973324,68.891823 50.562356,65.162977 49.15625,61.812582 C 47.779082,58.531139 44.381977,54.87431 40.71875,54.500082 C 41.524183,56.157063 41.210329,58.052471 40.78125,59.625082 C 39.650036,59.601778 38.513902,59.923852 37.59375,60.531332"
         style="fill:none;fill-rule:evenodd;stroke:#000000;stroke-width:3;stroke-linecap:round;stroke-linejoin:round;stroke-miterlimit:4;stroke-dasharray:none;stroke-opacity:1" />
      <path
         sodipodi:nodetypes="ccccccccccsssccccsssccsssccc"
         id="path3357"
         d="M 152.4375,218.78133 C 153.49432,209.45102 159.841,202.58575 166.71875,196.37508 C 167.17918,199.23293 167.1719,200.79089 167.03125,203.34383 C 170.71404,200.27404 176.83462,189.87267 176.90625,181.37508 C 166.46338,156.45914 138.61122,152.2014 135.21875,136.34383 C 140.99131,129.65129 143.0547,124.36354 143.96875,115.40633 C 177.77572,97.227863 178.38802,67.611549 166.90625,45.187582 L 171.1875,43.812582 C 159.46254,31.194205 145.75673,25.920083 133.15625,26.281332 C 122.03818,26.600081 111.76731,31.301502 104.46875,39.281332 C 110.71465,37.46885 112.11886,37.213486 113.625,37.187582 C 115.13104,37.16168 116.10061,37.528942 116.15625,38.562582 C 116.21188,39.596222 115.29354,39.752578 113.625,39.625082 C 95.594278,38.251616 88.760988,47.486955 84.3125,55.500082 L 86.75,58.156332 C 85.222898,63.614336 88.695859,67.521765 93.9375,66.062582 L 97.5625,70.062582 C 99.100119,55.66372 106.91574,52.743185 112.875,52.750082 C 118.64356,52.756757 125.46517,58.676007 125.53125,65.875082 C 125.59682,73.017934 118.14982,78.895134 111.9375,78.906332 C 106.06034,78.916924 101.37467,77.130278 98.34375,74.843832 C 94.306087,96.922638 82.815519,96.81026 64.09375,82.156332 C 61.20726,81.874168 59.58182,81.525783 58.125,81.062582 C 56.683511,80.604256 54.193249,78.030744 54.21875,75.625082 C 54.243654,73.275639 56.406958,71.838269 56.375,68.062582 C 56.343044,64.286835 54.469993,59.946867 52.59375,58.406332 C 52.348096,60.126975 52.305666,60.967218 51.625,62.187582 C 51.066161,62.064809 50.21242,62.169999 49.40625,62.500082"
         style="fill:none;fill-rule:evenodd;stroke:#000000;stroke-width:3;stroke-linecap:round;stroke-linejoin:round;stroke-miterlimit:4;stroke-dasharray:none;stroke-opacity:1" />
      <path
         style="fill:none;fill-rule:evenodd;stroke:#000000;stroke-width:3;stroke-linecap:round;stroke-linejoin:round;stroke-miterlimit:4;stroke-dasharray:none;stroke-opacity:1"
         d="M 169.75752,89.456598 C 176.33873,78.055622 166.36864,72.734272 159.31182,64.690266 C 156.30902,60.102647 155.86329,60.747338 154.44602,54.466479"
         id="path3379"
         sodipodi:nodetypes="ccc" />
      <path
         sodipodi:nodetypes="czc"
         id="path3381"
         d="M 155.13157,108.08964 C 160.53582,104.03136 158.72461,99.003655 153.86299,92.758584 C 148.91923,86.408009 146.94122,83.730211 147.55312,75.940498"
         style="fill:none;fill-rule:evenodd;stroke:#000000;stroke-width:3;stroke-linecap:round;stroke-linejoin:round;stroke-miterlimit:4;stroke-dasharray:none;stroke-opacity:1" />
      <path
         style="fill:none;fill-rule:evenodd;stroke:#000000;stroke-width:3;stroke-linecap:round;stroke-linejoin:round;stroke-miterlimit:4;stroke-dasharray:none;stroke-opacity:1"
         d="M 92.90625,198.12508 C 101.28442,194.22989 117.45436,208.29659 133.53125,209.00008"
         id="path2435"
         sodipodi:nodetypes="cc" />
    </g>
  </g>
</svg>
