<?xml version="1.0" encoding="UTF-8" standalone="no"?>
<!-- Created with Inkscape (http://www.inkscape.org/) -->
<svg
   xmlns:dc="http://purl.org/dc/elements/1.1/"
   xmlns:cc="http://creativecommons.org/ns#"
   xmlns:rdf="http://www.w3.org/1999/02/22-rdf-syntax-ns#"
   xmlns:svg="http://www.w3.org/2000/svg"
   xmlns="http://www.w3.org/2000/svg"
   xmlns:sodipodi="http://sodipodi.sourceforge.net/DTD/sodipodi-0.dtd"
   xmlns:inkscape="http://www.inkscape.org/namespaces/inkscape"
   width="300"
   height="300"
   id="svg2"
   sodipodi:version="0.32"
   inkscape:version="0.46"
   version="1.0"
   sodipodi:docname="Blight-icon.svg"
   inkscape:output_extension="org.inkscape.output.svg.inkscape">
  <defs
     id="defs4">
    <inkscape:perspective
       sodipodi:type="inkscape:persp3d"
       inkscape:vp_x="0 : 526.18109 : 1"
       inkscape:vp_y="0 : 1000 : 0"
       inkscape:vp_z="744.09448 : 526.18109 : 1"
       inkscape:persp3d-origin="372.04724 : 350.78739 : 1"
       id="perspective10" />
    <inkscape:perspective
       id="perspective3217"
       inkscape:persp3d-origin="372.04724 : 350.78739 : 1"
       inkscape:vp_z="744.09448 : 526.18109 : 1"
       inkscape:vp_y="0 : 1000 : 0"
       inkscape:vp_x="0 : 526.18109 : 1"
       sodipodi:type="inkscape:persp3d" />
    <clipPath
       clipPathUnits="userSpaceOnUse"
       id="clipPath3225">
      <rect
         style="opacity:1;fill:none;fill-opacity:1;stroke:#000000;stroke-width:2;stroke-linecap:round;stroke-linejoin:round;stroke-miterlimit:4;stroke-dasharray:none;stroke-opacity:1"
         id="rect3227"
         width="222.69353"
         height="203.34041"
         x="25.185577"
         y="22.799574"
         ry="1.5592785"
         transform="matrix(0.9999863,-5.2359638e-3,5.2359638e-3,0.9999863,0,0)" />
    </clipPath>
    <inkscape:perspective
       id="perspective2521"
       inkscape:persp3d-origin="372.04724 : 350.78739 : 1"
       inkscape:vp_z="744.09448 : 526.18109 : 1"
       inkscape:vp_y="0 : 1000 : 0"
       inkscape:vp_x="0 : 526.18109 : 1"
       sodipodi:type="inkscape:persp3d" />
    <clipPath
       clipPathUnits="userSpaceOnUse"
       id="clipPath3299">
      <path
         id="path3301"
         d="M 9.7991746,20.670102 L 7.3019801,225.05807 L 222.18704,227.68352 L 224.68424,23.295549 L 9.7991746,20.670102 z"
         style="fill:none;fill-opacity:1;stroke:#000000;stroke-width:2.09586453;stroke-linecap:round;stroke-linejoin:round;stroke-miterlimit:4;stroke-dasharray:none;stroke-opacity:1" />
    </clipPath>
  </defs>
  <sodipodi:namedview
     id="base"
     pagecolor="#ffffff"
     bordercolor="#666666"
     borderopacity="1.0"
     gridtolerance="10000"
     guidetolerance="10"
     objecttolerance="10"
     inkscape:pageopacity="0.0"
     inkscape:pageshadow="2"
     inkscape:zoom="3.1433333"
     inkscape:cx="150"
     inkscape:cy="150"
     inkscape:document-units="px"
     inkscape:current-layer="layer1"
     showgrid="false"
     inkscape:window-width="1916"
     inkscape:window-height="1150"
     inkscape:window-x="0"
     inkscape:window-y="14" />
  <metadata
     id="metadata7">
    <rdf:RDF>
      <cc:Work
         rdf:about="">
        <dc:format>image/svg+xml</dc:format>
        <dc:type
           rdf:resource="http://purl.org/dc/dcmitype/StillImage" />
      </cc:Work>
    </rdf:RDF>
  </metadata>
  <g
     inkscape:label="Layer 1"
     inkscape:groupmode="layer"
     id="layer1">
    <g
       id="g3546">
      <rect
         y="55"
         x="55"
         height="190"
         width="190"
         id="rect3236"
         style="fill:#ffffff;fill-opacity:1;stroke:none;stroke-width:2;stroke-linecap:round;stroke-linejoin:round;stroke-miterlimit:4;stroke-dasharray:none;stroke-opacity:1" />
      <path
         id="path3516"
         d="M 50,50 L 50,250 L 250,250 L 250,50 L 50,50 z"
         style="fill:#000000;fill-opacity:1;stroke:none;stroke-width:2;stroke-linecap:round;stroke-linejoin:round;stroke-miterlimit:4;stroke-dasharray:none;stroke-opacity:1" />
      <path
         transform="matrix(0.9754902,0,0,0.9825871,2.9746368,9.9500027)"
         d="M 227.20398,142.53189 A 76.484512,75.359734 0 1 1 74.234955,142.53189 A 76.484512,75.359734 0 1 1 227.20398,142.53189 z"
         sodipodi:ry="75.359734"
         sodipodi:rx="76.484512"
         sodipodi:cy="142.53189"
         sodipodi:cx="150.71947"
         id="path3316"
         style="opacity:1;fill:#ffffff;fill-opacity:1;stroke:none;stroke-width:2;stroke-linecap:round;stroke-linejoin:round;stroke-miterlimit:4;stroke-dasharray:none;stroke-opacity:1"
         sodipodi:type="arc" />
      <path
         sodipodi:nodetypes="csscsscssscscccsscccssccccssccsccsssccscccscccsscssccccccccsscsssssccsccsscccssssssscscccsccccsccscsccscsssccssssssssccscccccsssssssscccscccscscssscssscscscscssscsscccccccccsc"
         id="path3454"
         d="M 143.4375,26.375 C 142.21179,26.377465 141.02719,26.888338 140.1875,27.78125 C 139.3478,28.674163 138.92723,29.870198 139,31.09375 C 139.20018,34.576835 139.81219,37.923506 140.8125,41.03125 C 133.50505,38.339321 125.97189,36.472288 119.03125,36.21875 C 118.14043,36.186209 117.1785,36.161194 116.125,36.1875 C 115.98979,36.190876 115.85431,36.214466 115.71875,36.21875 C 111.27738,33.131242 105.88153,31.730772 100.40625,31.5 C 94.180397,31.237593 87.720463,32.446524 81.875,34.90625 C 76.765269,37.056385 71.726873,38.597253 67.75,38.875 C 63.773127,39.152747 61.28606,38.422448 59.375,36.34375 C 58.102535,34.949869 56.102244,34.470853 54.34375,35.15625 C 52.585255,35.841646 51.431066,37.550166 51.4375,39.4375 L 51.4375,39.5 C 51.431905,40.643578 51.855677,41.747615 52.625,42.59375 C 56.760917,47.092467 62.744638,48.435836 68.40625,48.03125 C 74.067862,47.626664 79.840209,45.730296 85.4375,43.375 C 87.409658,42.545131 89.491875,41.936385 91.59375,41.5 C 85.316919,44.174121 79.782845,47.794597 75.96875,52.25 C 74.540353,53.936395 74.377915,56.330084 75.5,58.1875 C 74.866408,57.750975 74.250103,57.288496 73.625,56.8125 C 72.694167,56.105016 71.542544,55.75067 70.375,55.8125 C 67.746589,55.946644 65.685015,58.11817 65.6875,60.75 L 65.6875,60.8125 C 65.682807,62.355594 66.399556,63.812212 67.625,64.75 C 73.243569,69.02836 79.387412,72.00734 85.84375,73.6875 C 85.783153,73.713811 85.716424,73.75535 85.65625,73.78125 C 82.072086,75.323975 79.344987,76.175881 75.5625,76.3125 C 65.874725,76.662411 57.785238,74.440645 52.9375,71.96875 C 52.209649,71.607703 51.406141,71.425575 50.59375,71.4375 C 37.289515,71.5354 28.20089,82.918546 25.6875,84.9375 C 24.485016,85.904399 23.784309,87.363249 23.78125,88.90625 L 23.78125,93.03125 C 23.783045,95.04917 24.967666,96.869826 26.8125,97.6875 C 28.657334,98.505177 30.816219,98.166437 32.3125,96.8125 C 37.782493,91.866229 41.61284,89.942184 45,89.28125 C 45.964883,89.092973 46.95694,89.002796 47.96875,89 C 44.950918,91.915062 42.60501,95.610096 41.5,99.96875 C 41.134119,101.39866 41.439705,102.92704 42.34375,104.09375 C 43.247794,105.26046 44.649028,105.93479 46.125,105.9375 L 46.15625,105.9375 C 48.336877,105.93392 50.239033,104.45589 50.78125,102.34375 C 51.486241,99.562958 52.949079,97.323114 55.15625,95.375 C 56.889651,93.84505 59.142872,92.541587 61.71875,91.53125 C 69.099283,92.869456 76.017265,92.768392 82.1875,91.3125 C 82.477689,91.886927 82.599852,92.659131 82.8125,93.375 C 73.126164,105.68262 65.106341,108.09128 60.375,109.53125 C 58.343678,110.14948 48.295549,112.32594 39.65625,119.65625 C 39.650112,119.66146 39.631137,119.65104 39.625,119.65625 C 30.677047,121.71672 19.750752,126.12063 12.84375,138.375 C 12.23131,139.46255 12.102522,140.7443 12.46875,141.9375 C 12.834978,143.13069 13.664142,144.13081 14.78125,144.6875 L 14.84375,144.71875 C 17.007615,145.80512 19.643249,145.00894 20.84375,142.90625 C 23.288511,138.56877 26.169836,135.59667 29.3125,133.46875 C 25.938556,140.89146 24.133228,150.44275 25.28125,162.46875 C 25.544594,165.08237 27.748155,167.06963 30.375,167.0625 L 33.125,167.0625 C 35.8641,167.05823 38.111799,164.89326 38.21875,162.15625 C 38.64158,150.83045 40.252891,143.84033 42.21875,139.34375 C 44.184609,134.84717 46.367177,132.67522 49.25,130.4375 C 50.090835,129.78482 50.92972,129.29697 51.8125,128.9375 C 49.944459,133.57284 48.77915,139.18403 48.59375,147.15625 C 48.456184,153.07159 48.460209,157.37843 48.125,160.15625 C 47.789791,162.93407 47.368738,163.80135 46.46875,164.6875 C 46.247417,164.90543 45.905031,165.18003 45.40625,165.5 C 43.594395,166.64731 42.773409,168.84779 43.375,170.90625 C 43.976591,172.9647 45.855456,174.38396 48,174.375 L 48.0625,174.375 C 48.980951,174.37773 49.880988,174.11747 50.65625,173.625 C 51.505285,173.08033 52.167617,172.47526 52.78125,171.90625 C 52.933593,171.8002 53.079671,171.68543 53.21875,171.5625 C 55.989347,168.8479 57.241791,165.16536 57.71875,161.34375 C 58.195709,157.52214 58.146569,153.19755 58.28125,147.40625 C 58.541771,136.20386 60.077824,132.40317 63.5,127.3125 C 65.428066,127.08891 67.505304,126.74169 69.6875,126.125 C 68.851812,129.64427 68.235244,133.7115 67.9375,138.5625 C 66.030199,140.13516 64.351437,141.964 62.96875,144.28125 C 60.992475,147.5933 59.500001,151.58453 59.5,155.96875 C 59.5,160.54089 60.752911,164.72942 63.53125,167.75 C 66.309589,170.77058 70.279682,172.21818 74.3125,172.4375 C 78.553678,172.66815 82.791953,171.06228 85.59375,167.96875 C 88.395547,164.87522 89.718749,160.62129 89.71875,155.96875 C 89.71875,151.74859 88.329618,147.92233 86.46875,144.6875 C 85.295321,142.64767 83.890368,140.93972 82.34375,139.4375 C 83.345338,132.80354 84.792274,128.52716 86.375,125.96875 C 86.930812,125.0703 87.506432,124.30744 88.125,123.59375 C 89.155526,128.11053 90.958749,132.43401 93.84375,136.21875 C 95.580498,142.7168 95.655705,148.75771 94.3125,153.375 C 93.913101,154.7241 94.188047,156.18618 95.03125,157.3125 C 95.87445,158.43882 97.186773,159.09696 98.59375,159.09375 L 98.625,159.09375 C 100.60983,159.09452 102.35569,157.78194 102.90625,155.875 C 103.91956,152.39175 104.35535,148.62996 104.21875,144.71875 C 106.2116,145.72397 108.38817,146.59571 110.75,147.25 C 112.84406,147.82792 115.05485,146.8468 116.03125,144.90625 L 116.0625,144.84375 C 116.66388,143.62989 116.70587,142.20691 116.15625,140.96875 C 115.60663,139.7306 114.52242,138.80571 113.21875,138.4375 C 108.05924,137.00818 104.53829,134.68074 102,131.8125 C 98.307013,127.63947 96.554533,121.94287 96.25,115.53125 C 100.4189,110.59753 104.00917,103.63515 104.375,93.9375 C 108.02005,91.351703 112.32192,89.066084 116.4375,87.625 C 117.64968,87.20055 118.67343,87.058613 119.8125,86.78125 C 117.73188,92.598866 116.52542,98.930735 116.75,105.21875 C 116.94736,110.74487 115.24355,113.3856 113.25,115.375 C 111.25645,117.3644 109.14901,118.23045 107.15625,119.25 C 104.66828,120.52242 103.66551,123.55858 104.90625,126.0625 L 106.78125,129.8125 C 107.45639,131.16688 108.68395,132.15003 110.15625,132.5 C 111.62855,132.84997 113.19388,132.53071 114.40625,131.625 C 113.95327,131.9621 114.89425,131.41991 116.3125,130.875 C 117.73075,130.33009 119.67674,129.56731 121.75,128.3125 C 125.89652,125.80288 130.45324,121.15579 133.0625,113.40625 C 133.49278,112.13207 133.40294,110.73958 132.8125,109.53125 C 133.14748,110.21578 132.77779,109.33419 132.75,108.15625 C 132.72221,106.97831 132.81408,105.36645 133.03125,103.71875 C 133.32538,101.48713 133.93145,99.13829 134.5,97.46875 C 137.06323,103.54715 137.20023,109.89019 132.875,118 C 132.08284,119.49071 132.12959,121.27234 133,122.71875 C 133.87041,124.16516 135.43689,125.06434 137.125,125.0625 L 137.15625,125.0625 C 138.93841,125.06223 140.57415,124.07597 141.40625,122.5 C 148.19068,109.77919 146.02136,97.937881 140.625,88.40625 C 143.89931,85.099886 148.67239,81.905633 155.65625,80.8125 C 156.07604,82.95934 156.97791,84.96841 158.34375,86.78125 C 160.97191,90.269551 164.82532,91.154897 167.125,91.6875 C 169.42468,92.220103 170.62687,92.510001 172,93.78125 C 175.23003,96.771619 180.71446,106.78353 180.5,115.03125 C 180.25136,124.59334 178.57459,133.88853 167.125,144.40625 C 161.94766,149.16221 154.30536,152.36816 146.59375,155.0625 C 138.88214,157.75684 131.29408,159.69385 125.5625,163.9375 C 121.89184,166.65525 118.17962,170.07022 115.65625,174.46875 C 113.64682,177.97142 112.57915,182.34065 113.25,186.8125 C 102.35251,196.77473 94.840012,208.03436 92.0625,219.84375 C 77.461674,222.54441 62.786236,229.6866 52.46875,244.15625 C 51.363121,245.71257 51.219008,247.74063 52.09375,249.4375 C 52.196381,249.63659 52.311991,249.81859 52.4375,250 L 250,250 L 250,243.40625 C 246.95488,236.32735 240.8511,231.5848 234.03125,228.84375 C 227.98779,226.41475 221.22699,225.50066 214.46875,225.125 C 214.1966,223.31035 213.68414,221.41357 212.75,219.5625 C 211.65961,217.40181 209.92822,215.44099 207.75,213.71875 C 208.26254,212.75262 208.79966,211.79545 209.125,210.71875 C 210.19788,207.16807 210.62268,204.31299 210.3125,201.65625 C 210.00232,198.99951 208.70966,196.64275 207.375,195.21875 C 206.1876,193.95186 205.32262,193.39962 204.8125,193 C 204.92659,192.71032 204.97601,192.44578 205.375,191.9375 C 206.5256,190.47172 208.48929,188.54932 210.59375,186.6875 C 212.69821,184.82568 214.96407,183.00973 216.84375,181.53125 C 217.65248,180.89514 218.04351,180.53628 218.65625,180.0625 C 219.38687,180.15981 220.06725,180.17792 220.375,180.21875 C 220.59285,180.24324 220.81206,180.25368 221.03125,180.25 C 228.10472,180.25 233.8125,174.325 233.8125,167.28125 C 233.8125,165.67814 233.47403,164.16001 232.9375,162.71875 C 235.72153,157.06726 237.00639,151.17775 236.125,145.4375 C 235.24141,139.68289 232.17865,134.36604 227.5,129.875 C 228.22121,124.39916 228.61631,117.7887 228.1875,108.90625 C 227.51204,94.914571 225.43122,85.131128 222.0625,77.84375 C 218.69378,70.556372 213.87059,65.915212 208.90625,62.84375 C 207.90745,62.226873 206.72657,61.97304 205.5625,62.125 C 192.20696,63.889512 185.02583,63.380375 180.03125,61.84375 C 175.03667,60.307125 171.55315,57.481097 165.53125,53.53125 C 161.98356,51.204271 158.30354,49.002568 153.97923,46.802116 C 150.23897,42.015392 148.57416,36.555208 147.90625,30.59375 C 147.78121,28.232632 145.83317,26.380618 143.46875,26.375 L 143.4375,26.375 z M 112.40625,51.0625 C 120.30998,50.828993 129.15139,52.401103 138.5625,57.65625 C 126.10953,59.131991 116.03692,61.695226 107.8125,64.46875 C 97.490785,66.586026 88.112477,65.320372 79.5,60.625 C 80.338145,60.686062 81.194688,60.558298 82,60.1875 C 86.372682,58.134241 95.054963,53.049682 107.09375,51.5 C 108.81409,51.27855 110.58231,51.116386 112.40625,51.0625 z"
         style="fill:#000000;fill-opacity:1;fill-rule:evenodd;stroke:none;stroke-width:3;stroke-linecap:round;stroke-linejoin:round;stroke-miterlimit:4;stroke-dasharray:none;stroke-opacity:1" />
      <path
         sodipodi:nodetypes="ccc"
         id="path3318"
         d="M 56.613533,247.13571 C 66.861458,232.76362 81.608471,226.26494 96.355484,224.26534 C 108.85295,212.26777 128.09906,210.39314 134.22281,211.51791"
         style="fill:none;fill-rule:evenodd;stroke:#ffffff;stroke-width:3;stroke-linecap:round;stroke-linejoin:round;stroke-opacity:1;stroke-miterlimit:4;stroke-dasharray:none" />
      <path
         style="fill:none;fill-rule:evenodd;stroke:#ffffff;stroke-width:3;stroke-linecap:round;stroke-linejoin:round;stroke-opacity:1;stroke-miterlimit:4;stroke-dasharray:none"
         d="M 96.355484,224.26534 C 100.60462,196.52096 134.66022,168.27667 186.33725,158.65362 C 191.5237,153.52966 197.505,141.53129 198.33483,123.78569 C 199.14717,106.41421 185.52493,77.107646 164.21674,75.420487 C 142.97421,73.738527 133.76316,88.073747 130.8485,93.041918 C 128.09906,97.728468 126.78681,108.85122 128.22403,111.78812 C 123.69929,125.22664 114.03941,125.53534 111.35245,127.53493 L 109.47783,123.78569 C 112.16479,122.41097 122.33684,118.66222 121.85032,105.03949 C 121.35042,91.042327 128.72393,75.045564 137.59713,71.296322"
         id="path3320"
         sodipodi:nodetypes="cczzzccczz" />
      <path
         sodipodi:nodetypes="cscsscccsscccscscscscc"
         id="path3322"
         d="M 216.71875,146.65625 C 218.71835,143.28194 224.38793,135.9642 223.09375,109.15625 C 221.78152,81.974251 214.90449,72.561413 206.21875,67.1875 C 178.7868,70.811765 174.3414,65.435955 162.71875,57.8125 C 150.92125,50.074354 132.52848,41.812397 118.84375,41.3125 C 117.98845,41.281256 117.13709,41.259099 116.25,41.28125 C 102.94367,41.613519 86.463502,47.829691 79.84375,55.5625 C 87.029794,52.188184 119.22559,32.630859 152.96875,61.5625 C 128.97361,62.531054 113.11485,67.485248 101.53125,72.21875 C 89.947655,76.95225 84.795041,81.079553 75.75,81.40625 C 65.212027,81.786869 56.384543,79.46808 50.625,76.53125 C 40.366472,76.606738 32.686729,85.844368 28.875,88.90625 L 28.875,93.03125 C 40.622621,82.408401 47.728835,82.81424 58.125,85.53125 C 68.170629,88.156652 77.282676,88.030746 84.34375,85.53125 C 87.280656,88.655618 90.308972,95.043332 87.34375,103.90625 C 84.451242,112.55182 73.802782,113.24856 72.8125,141.15625 C 73.449239,140.82734 74.049474,140.625 74.59375,140.625 C 75.255907,140.625 76.02093,140.89394 76.8125,141.375 C 78.850515,123.3734 84.46305,119.8594 89.59375,115.15625 C 94.842687,110.34472 99.718675,103.65372 99.34375,91.15625 C 108.34192,83.907718 121.96994,79.65645 127.84375,80.65625"
         style="fill:none;fill-rule:evenodd;stroke:#ffffff;stroke-width:3;stroke-linecap:round;stroke-linejoin:round;stroke-opacity:1;stroke-miterlimit:4;stroke-dasharray:none" />
      <path
         sodipodi:nodetypes="cc"
         id="path3333"
         d="M 227.25,162.71875 C 233.92963,151.33611 232.86019,140.77576 222.28688,132.29252"
         style="fill:none;fill-rule:evenodd;stroke:#ffffff;stroke-width:3;stroke-linecap:round;stroke-linejoin:miter;stroke-opacity:1;stroke-miterlimit:4;stroke-dasharray:none" />
      <path
         id="path3324"
         d="M 181.84375,195.78125 C 197.22945,189.53347 209.27109,182.09254 217.625,174.34375"
         style="fill:none;fill-rule:evenodd;stroke:#ffffff;stroke-width:3;stroke-linecap:round;stroke-linejoin:miter;stroke-opacity:1;stroke-miterlimit:4;stroke-dasharray:none" />
      <path
         sodipodi:nodetypes="csssscc"
         id="path3326"
         d="M 220.84375,159.40625 C 220.90451,159.40479 220.97015,159.40625 221.03125,159.40625 C 225.27389,159.40624 228.71875,162.93513 228.71875,167.28125 C 228.71875,171.62737 225.27389,175.15625 221.03125,175.15625 C 216.78861,175.15624 213.34375,171.62737 213.34375,167.28125 C 213.34375,167.15607 213.3381,167.03001 213.34375,166.90625 C 208.34078,173.77843 201.08826,179.52583 193.83574,181.89892"
         style="opacity:1;fill:none;fill-opacity:1;stroke:#ffffff;stroke-width:3;stroke-linecap:round;stroke-linejoin:round;stroke-miterlimit:4;stroke-dasharray:none;stroke-opacity:1" />
      <path
         sodipodi:nodetypes="czzc"
         style="fill:none;fill-rule:evenodd;stroke:#ffffff;stroke-width:3;stroke-linecap:round;stroke-linejoin:miter;stroke-opacity:1;stroke-miterlimit:4;stroke-dasharray:none"
         d="M 166.09694,233.27366 C 173.78979,230.14977 200.55123,221.47311 204.24592,209.2456 C 208.04429,196.67497 200.51848,198.90587 199.32462,193.72887 C 198.13076,188.55187 215.53652,176.28095 217.625,174.34375"
         id="path3338" />
      <path
         sodipodi:nodetypes="ccc"
         id="path3340"
         d="M 200.58437,215.26716 C 208.58275,218.76645 209.8325,224.51529 209.58255,229.8892 C 225.45433,230.01418 241.70104,233.88839 245.95018,247.13571"
         style="fill:none;fill-rule:evenodd;stroke:#ffffff;stroke-width:3;stroke-linecap:round;stroke-linejoin:round;stroke-opacity:1;stroke-miterlimit:4;stroke-dasharray:none" />
      <path
         sodipodi:nodetypes="csccssc"
         id="path3342"
         d="M 88.4375,94.5 C 77.36379,109.53557 66.951431,112.86125 61.875,114.40625 C 56.126165,116.1559 26.563272,122.03934 30.375,161.96875 L 33.125,161.96875 C 33.999822,138.53601 39.654642,131.4287 46.125,126.40625 C 52.826769,121.20418 60.32966,123.62634 68.625,121.15625 C 72.82037,119.907 76.338853,117.56981 79.96875,114.46875"
         style="fill:none;fill-rule:evenodd;stroke:#ffffff;stroke-width:3;stroke-linecap:butt;stroke-linejoin:round;stroke-opacity:1;stroke-miterlimit:4;stroke-dasharray:none" />
      <path
         sodipodi:nodetypes="ccsssssc"
         id="path3347"
         d="M 164.21875,75.40625 C 163.02382,75.311637 161.86981,75.279016 160.75,75.28125 C 160.12155,78.270914 160.85444,81.659071 162.40625,83.71875 C 165.40864,87.70376 170.73698,85.650553 175.46875,90.03125 C 180.20053,94.411947 185.85952,104.93511 185.59375,115.15625 C 185.32797,125.37739 183.05195,136.71201 170.59375,148.15625 C 158.33746,159.41501 137.35285,161.54603 128.59375,168.03125 C 121.99817,172.9146 115.78895,180.29587 118.84375,188.46875"
         style="fill:none;fill-rule:evenodd;stroke:#ffffff;stroke-width:3;stroke-linecap:butt;stroke-linejoin:round;stroke-opacity:1;stroke-miterlimit:4;stroke-dasharray:none" />
      <path
         sodipodi:nodetypes="cc"
         id="path3352"
         d="M 16.861082,140.61506 C 23.435843,128.95016 33.510074,125.55674 42.311771,123.75398"
         style="fill:none;fill-rule:evenodd;stroke:#ffffff;stroke-width:2;stroke-linecap:round;stroke-linejoin:miter;stroke-opacity:1;stroke-miterlimit:4;stroke-dasharray:none" />
      <path
         sodipodi:nodetypes="cc"
         id="path3354"
         d="M 46.129374,101.16649 C 48.038176,93.637328 54.400848,88.653234 62.354189,86.21421"
         style="fill:none;fill-rule:evenodd;stroke:#ffffff;stroke-width:2;stroke-linecap:round;stroke-linejoin:miter;stroke-opacity:1;stroke-miterlimit:4;stroke-dasharray:none" />
      <path
         sodipodi:nodetypes="cc"
         id="path3356"
         d="M 68.716861,59.490986 C 80.275715,68.292683 95.652173,72.322376 110.07423,69.034995"
         style="fill:none;fill-rule:evenodd;stroke:#ffffff;stroke-width:2;stroke-linecap:round;stroke-linejoin:miter;stroke-opacity:1;stroke-miterlimit:4;stroke-dasharray:none" />
      <path
         sodipodi:nodetypes="cc"
         id="path3358"
         d="M 143.47826,30.858961 C 144.00848,40.084836 147.72004,48.038176 153.65854,51.855779"
         style="fill:none;fill-rule:evenodd;stroke:#ffffff;stroke-width:2;stroke-linecap:round;stroke-linejoin:miter;stroke-opacity:1;stroke-miterlimit:4;stroke-dasharray:none" />
      <path
         sodipodi:nodetypes="cc"
         id="path3360"
         d="M 134.57052,87.804878 C 140.82715,97.030754 143.90244,107.52916 137.11559,120.25451"
         style="fill:none;fill-rule:evenodd;stroke:#ffffff;stroke-width:2;stroke-linecap:round;stroke-linejoin:miter;stroke-opacity:1;stroke-miterlimit:4;stroke-dasharray:none" />
      <path
         sodipodi:nodetypes="cc"
         id="path3362"
         d="M 91.622481,112.6193 C 91.410391,125.87487 96.288439,138.49417 111.98303,142.84199"
         style="fill:none;fill-rule:evenodd;stroke:#ffffff;stroke-width:2;stroke-linecap:round;stroke-linejoin:miter;stroke-opacity:1;stroke-miterlimit:4;stroke-dasharray:none" />
      <path
         sodipodi:nodetypes="cc"
         id="path3364"
         d="M 97.985154,134.25239 C 100.10604,141.67551 100.31813,148.78049 98.621421,154.61294"
         style="fill:none;fill-rule:evenodd;stroke:#ffffff;stroke-width:2;stroke-linecap:round;stroke-linejoin:miter;stroke-opacity:1;stroke-miterlimit:4;stroke-dasharray:none" />
      <path
         sodipodi:nodetypes="czc"
         id="path3366"
         d="M 48.038176,169.56522 C 53.658536,165.9597 53.135709,160.65765 53.446448,147.29586 C 53.764582,133.61611 56.521739,128.73807 61.399788,121.84517"
         style="fill:none;fill-rule:evenodd;stroke:#ffffff;stroke-width:2;stroke-linecap:round;stroke-linejoin:miter;stroke-opacity:1;stroke-miterlimit:4;stroke-dasharray:none" />
      <path
         sodipodi:nodetypes="czc"
         id="path3368"
         d="M 55.991516,39.448568 C 62.036055,46.02333 72.958643,43.637328 83.669141,39.130435 C 94.109982,34.737012 107.10498,34.676564 114.5281,41.039236"
         style="fill:none;fill-rule:evenodd;stroke:#ffffff;stroke-width:2;stroke-linecap:round;stroke-linejoin:miter;stroke-opacity:1;stroke-miterlimit:4;stroke-dasharray:none" />
      <path
         sodipodi:nodetypes="czzzzz"
         id="path3370"
         d="M 121.84517,202.96925 C 127.78367,198.40933 131.6543,194.96288 139.66066,191.1983 C 147.66702,187.43372 161.1877,183.35101 167.97455,179.74549 C 174.7614,176.13998 177.67762,171.20891 181.97243,168.29269 C 186.26723,165.37646 193.74337,164.63415 197.56097,162.56628 C 201.37858,160.49841 200.74231,157.79427 203.28738,155.2492"
         style="fill:none;fill-rule:evenodd;stroke:#ffffff;stroke-width:2;stroke-linecap:round;stroke-linejoin:miter;stroke-opacity:1;stroke-miterlimit:4;stroke-dasharray:none" />
      <path
         sodipodi:nodetypes="czzzzz"
         id="path3372"
         d="M 84.623542,241.78155 C 89.501591,239.34253 94.008483,236.10817 100.53022,234.78261 C 107.05196,233.45706 117.02475,236.49544 124.70838,233.51008 C 133.03288,230.27572 139.2895,225.98091 145.38706,223.64793 C 151.48462,221.31495 156.2036,221.63309 160.33934,219.83033 C 164.47508,218.02757 168.18664,214.5281 172.11029,211.87699"
         style="fill:none;fill-rule:evenodd;stroke:#ffffff;stroke-width:2;stroke-linecap:round;stroke-linejoin:miter;stroke-opacity:1;stroke-miterlimit:4;stroke-dasharray:none" />
      <path
         sodipodi:nodetypes="czzzzz"
         id="path3374"
         d="M 99.575822,240.19088 C 101.80276,239.44857 101.96183,238.91834 105.30223,238.60021 C 108.95802,238.25204 123.807,238.28208 131.07105,237.00955 C 138.3351,235.73701 142.89502,231.81336 148.25027,230.32874 C 153.60552,228.84412 158.69566,229.58643 162.56628,228.41994 C 166.43691,227.25345 168.18664,225.34465 171.47402,223.3298"
         style="fill:none;fill-rule:evenodd;stroke:#ffffff;stroke-width:2;stroke-linecap:round;stroke-linejoin:miter;stroke-opacity:1;stroke-miterlimit:4;stroke-dasharray:none" />
      <path
         sodipodi:nodetypes="czzzz"
         id="path3376"
         d="M 154.93107,245.59915 C 158.3245,245.38706 161.24072,245.44008 164.79322,244.32661 C 168.34571,243.21315 173.22375,240.24391 177.20042,239.55462 C 181.17709,238.86533 186.21421,240.77413 190.2439,240.19088 C 194.2736,239.60764 196.60658,237.22164 200.42418,235.41888"
         style="fill:none;fill-rule:evenodd;stroke:#ffffff;stroke-width:2;stroke-linecap:round;stroke-linejoin:miter;stroke-opacity:1;stroke-miterlimit:4;stroke-dasharray:none" />
      <path
         sodipodi:nodetypes="czszz"
         id="path3378"
         d="M 84.623542,155.97667 C 84.623542,163.35228 80.452174,167.65641 74.602333,167.33828 C 68.435272,167.0029 64.581124,163.35228 64.581124,155.97667 C 64.581124,148.60106 70.965487,140.61506 74.602333,140.61506 C 78.225238,140.61506 84.623542,148.60106 84.623542,155.97667 z"
         style="fill:none;fill-opacity:1;stroke:#ffffff;stroke-width:3;stroke-linecap:round;stroke-linejoin:round;stroke-miterlimit:4;stroke-opacity:1" />
      <path
         transform="matrix(1.442891,-0.4099579,0.364407,1.2825698,-86.614374,-10.035619)"
         d="M 77.624604,149.20467 A 1.5906681,2.8632026 0 1 1 74.443267,149.20467 A 1.5906681,2.8632026 0 1 1 77.624604,149.20467 z"
         sodipodi:ry="2.8632026"
         sodipodi:rx="1.5906681"
         sodipodi:cy="149.20467"
         sodipodi:cx="76.033936"
         id="path3386"
         style="opacity:1;fill:#ffffff;fill-opacity:1;stroke:none;stroke-width:3;stroke-linecap:round;stroke-linejoin:round;stroke-miterlimit:4;stroke-dasharray:none;stroke-opacity:1"
         sodipodi:type="arc" />
      <path
         id="path3529"
         d="M 60,60 L 60,79.875 C 60.819309,80.072571 61.63294,80.272661 62.5,80.4375 L 62.5,62.5 L 140.3125,62.5 C 144.26495,62.065883 148.46966,61.744104 152.96875,61.5625 C 152.33607,61.020032 151.69394,60.508801 151.0625,60 L 60,60 z"
         style="fill:#ffffff;fill-opacity:1;stroke:none;stroke-width:2;stroke-linecap:round;stroke-linejoin:round;stroke-miterlimit:4;stroke-dasharray:none;stroke-opacity:1" />
      <path
         id="path3534"
         d="M 165.96875,60 C 167.27621,60.885845 168.54529,61.717796 169.78125,62.5 L 237.5,62.5 L 237.5,236.375 C 238.37995,236.9526 239.22077,237.578 240,238.25 L 240,60 L 165.96875,60 z"
         style="fill:#ffffff;fill-opacity:1;stroke:none;stroke-width:2;stroke-linecap:round;stroke-linejoin:round;stroke-miterlimit:4;stroke-dasharray:none;stroke-opacity:1" />
      <path
         id="path3541"
         d="M 60,86 L 60,114.9375 C 60.665218,114.75 61.448536,114.53604 61.875,114.40625 C 62.057926,114.35058 62.303436,114.27951 62.5,114.21875 L 62.5,86.5 C 61.670329,86.34495 60.844905,86.194355 60,86 z"
         style="fill:#ffffff;fill-opacity:1;stroke:none;stroke-width:2;stroke-linecap:round;stroke-linejoin:round;stroke-miterlimit:4;stroke-dasharray:none;stroke-opacity:1" />
      <path
         sodipodi:nodetypes="ccccc"
         id="path3489"
         d="M 62.5,122.28125 C 61.660003,122.36606 60.821993,122.43929 60,122.5 L 60,242 L 62.5,239.5 L 62.5,122.28125 z"
         style="fill:#ffffff;fill-opacity:1;stroke:none;stroke-width:2;stroke-linecap:round;stroke-linejoin:round;stroke-miterlimit:4;stroke-dasharray:none;stroke-opacity:1" />
    </g>
  </g>
</svg>
