<?xml version="1.0" encoding="UTF-8" standalone="no"?>
<!-- Created with Inkscape (http://www.inkscape.org/) -->

<svg
   xmlns:dc="http://purl.org/dc/elements/1.1/"
   xmlns:cc="http://creativecommons.org/ns#"
   xmlns:rdf="http://www.w3.org/1999/02/22-rdf-syntax-ns#"
   xmlns:svg="http://www.w3.org/2000/svg"
   xmlns="http://www.w3.org/2000/svg"
   xmlns:sodipodi="http://sodipodi.sourceforge.net/DTD/sodipodi-0.dtd"
   xmlns:inkscape="http://www.inkscape.org/namespaces/inkscape"
   width="350"
   height="300"
   id="svg2"
   sodipodi:version="0.32"
   inkscape:version="0.47 r22583"
   version="1.0"
   sodipodi:docname="Bull-icon.svg"
   inkscape:output_extension="org.inkscape.output.svg.inkscape">
  <defs
     id="defs4">
    <inkscape:perspective
       sodipodi:type="inkscape:persp3d"
       inkscape:vp_x="0 : 526.18109 : 1"
       inkscape:vp_y="0 : 1000 : 0"
       inkscape:vp_z="744.09448 : 526.18109 : 1"
       inkscape:persp3d-origin="372.04724 : 350.78739 : 1"
       id="perspective10" />
    <inkscape:perspective
       id="perspective3217"
       inkscape:persp3d-origin="372.04724 : 350.78739 : 1"
       inkscape:vp_z="744.09448 : 526.18109 : 1"
       inkscape:vp_y="0 : 1000 : 0"
       inkscape:vp_x="0 : 526.18109 : 1"
       sodipodi:type="inkscape:persp3d" />
    <clipPath
       clipPathUnits="userSpaceOnUse"
       id="clipPath3225">
      <rect
         style="opacity:1;fill:none;fill-opacity:1;stroke:#000000;stroke-width:0.99967402;stroke-linecap:square;stroke-linejoin:round;stroke-miterlimit:4;stroke-dasharray:none;stroke-opacity:1"
         id="rect3227"
         width="240.72144"
         height="213.94519"
         x="14.846073"
         y="-0.795497" />
    </clipPath>
  </defs>
  <sodipodi:namedview
     id="base"
     pagecolor="#ffffff"
     bordercolor="#666666"
     borderopacity="1.0"
     gridtolerance="10000"
     guidetolerance="10"
     objecttolerance="10"
     inkscape:pageopacity="0.0"
     inkscape:pageshadow="2"
     inkscape:zoom="3.01"
     inkscape:cx="175"
     inkscape:cy="150"
     inkscape:document-units="px"
     inkscape:current-layer="layer1"
     showgrid="false"
     showguides="false"
     inkscape:guide-bbox="true"
     inkscape:window-width="1916"
     inkscape:window-height="1150"
     inkscape:window-x="0"
     inkscape:window-y="14"
     inkscape:window-maximized="0">
    <sodipodi:guide
       orientation="1,0"
       position="0,254.15282"
       id="guide3244" />
  </sodipodi:namedview>
  <metadata
     id="metadata7">
    <rdf:RDF>
      <cc:Work
         rdf:about="">
        <dc:format>image/svg+xml</dc:format>
        <dc:type
           rdf:resource="http://purl.org/dc/dcmitype/StillImage" />
      </cc:Work>
    </rdf:RDF>
  </metadata>
  <g
     inkscape:label="Layer 1"
     inkscape:groupmode="layer"
     id="layer1">
    <g
       id="g3879">
      <rect
         y="57.499973"
         x="82.500641"
         height="185"
         width="185"
         id="rect3242"
         style="fill:#ffffff;fill-opacity:1;stroke:none" />
      <path
         id="rect3237"
         d="m 94.000638,68.999973 0,161.999997 162.000002,0 0,-161.999997 -162.000002,0 z m 6.000002,6 150,0 0,149.999997 -150,0 0,-149.999997 z"
         style="fill:#000000;fill-opacity:1;stroke:none" />
      <path
         id="rect3229"
         d="m 75.000638,49.999973 0,199.999997 200.000002,0 0,-199.999997 -200.000002,0 z m 13.5,13.5 173.000002,0 0,172.999997 -173.000002,0 0,-172.999997 z"
         style="fill:#000000;fill-opacity:1;stroke:none" />
      <path
         sodipodi:nodetypes="czzzzzzzzczzzzzcczczzzzzzzzzczzzczczzcczczzzzzzzcczzzzzzzzczccczzzzczzzzzzzzzzzsccczzzzzzzzzzzzzzzzccc"
         id="path3231"
         d="m 80.608842,253.45232 c -3.145133,0.57372 -6.908765,-0.28119 -9.258344,-1.24859 -2.37374,-0.97735 -6.848149,-4.50883 -7.648199,-6.93298 -0.800049,-2.42415 0.413397,-5.59433 -0.589683,-7.88456 -1.00308,-2.29022 -5.543597,-3.52599 -5.544389,-8.57496 -7.92e-4,-5.04947 3.959396,-15.4314 4.153773,-20.685 0.191796,-5.18381 -0.184775,-16.90111 0.625079,-17.99615 0.784514,-1.06077 8.975825,-15.65238 10.657246,-23.95105 1.681422,-8.29865 -0.697117,-20.18349 -0.378061,-28.94538 0.318954,-8.75909 5.763695,-14.72863 11.343705,-22.60644 C 80.184691,108.63573 72.68686,99.780578 72.69668,84.642832 72.7065,69.50497 91.359834,52.97823 103.23487,53.12144 c 11.73358,0.141503 13.22112,5.909469 17.34599,5.797597 4.19523,-0.113782 7.26458,-4.45652 7.31306,-7.980567 0.0494,-3.592234 -2.64421,-6.463132 -3.28243,-9.386442 -0.63821,-2.92331 -0.76208,-7.26197 0.49291,-9.211968 0.97334,1.124021 1.13507,1.37841 2.40724,1.752939 -0.28129,-1.701951 -0.31073,-4.29897 0.91059,-6.869827 1.32886,-2.797255 7.24247,-8.497891 12.07459,-9.273239 -1.71653,2.787719 -5.37225,6.39183 -4.40907,12.958475 0.96177,6.557044 14.26372,9.083151 14.31848,20.379382 0.0541,11.156506 -8.79671,24.023878 -20.53239,24.221905 -11.73666,0.198043 -16.49243,-13.67677 -26.7621,-13.123609 -10.273718,0.553379 -19.71419,13.78976 -19.757062,22.378914 -0.04287,8.589092 5.107652,14.988778 10.172997,18.67687 4.986006,3.63032 54.282725,-9.075374 66.426465,-16.240594 12.14375,-7.165221 11.93795,-15.138401 21.89703,-17.053181 9.93186,-1.909545 50.12135,-4.291374 57.66103,-2.732916 7.56659,1.564019 10.39297,4.052074 14.8291,6.426371 -6e-5,-3.703875 1.12542,-6.890605 3.12465,-10.250962 1.99924,-3.360358 8.27798,-8.734025 11.01798,-7.386909 2.6553,1.305474 3.86284,12.638617 3.64355,16.005219 -0.21896,3.361387 -0.83224,5.172691 -1.97993,7.229995 3.41342,0.410955 14.34761,7.390729 16.0962,13.184506 1.72925,5.729694 -0.33189,7.611041 -1.6896,9.945351 2.51515,2.33432 11.29853,11.6991 10.27014,14.42487 -1.00522,2.6644 -6.38286,2.33662 -8.73869,2.31411 -2.35583,-0.0225 -3.89888,-0.33564 -5.3147,-1.76532 0.24486,5.08882 -2.2684,7.9954 -7.51677,7.84237 -2.45901,3.87556 -10.12684,17.55958 -13.32052,20.27519 -3.22872,2.74541 -5.91026,2.77393 -7.92672,2.50578 0.80016,3.1552 1.89725,7.18333 1.0319,10.88005 -0.86534,3.69672 -6.98379,4.83072 -7.58568,9.82281 -0.61954,5.13836 7.84353,22.06047 9.71548,25.95805 1.88477,3.9243 2.5109,5.43339 4.42678,9.02068 1.88679,3.53288 9.41429,20.41182 13.2276,26.56179 3.81331,6.14997 9.42784,12.90791 11.22057,16.16251 1.76303,3.20068 2.70402,5.4465 1.10895,6.6625 -1.81595,1.3844 -6.14105,-4.12928 -7.15491,-4.53183 -0.14375,2.77645 2.32102,5.05447 0.58968,7.54419 -1.77474,1.6422 -9.2071,-2.90391 -11.4849,-4.6454 -2.27781,-1.7415 -3.95779,-5.0799 -4.45313,-6.90682 -0.49535,-1.82693 -0.16096,-3.19838 -0.88906,-4.9596 -0.72809,-1.76123 -3.4702,-1.8205 -4.93699,-4.42684 -1.46679,-2.60633 -1.04448,-6.16915 -2.15616,-9.68309 -1.11167,-3.51394 -4.44641,-10.00124 -6.43344,-12.56507 -1.98703,-2.56382 -3.54329,-4.37503 -5.46493,-7.13397 -1.92165,-2.75894 -0.5472,-3.39066 -2.34067,-6.94083 -1.79346,-3.55018 -8.06952,-10.60317 -10.32323,-14.97557 -3.23952,3.38253 -4.31083,13.22992 -7.24304,17.41072 -2.89928,4.13386 -8.72945,9.27682 -11.90655,8.79768 0.76615,-1.90121 0.98462,-4.63247 0.65925,-6.6319 -1.01062,0.63 -3.1087,2.36948 -4.32615,4.27842 -1.95602,-2.01331 -2.55409,-10.88442 -1.79023,-13.55165 0.75884,-2.64965 5.22252,-6.72837 6.32725,-9.30798 1.06365,-2.4837 -0.31811,-4.80369 0.38748,-6.78467 0.74966,-2.10469 2.35323,-2.26059 2.86896,-2.97725 0.53843,-0.7482 0.82758,-1.91901 0.56332,-3.37029 -1.74298,1.27342 -5.11421,1.50669 -7.50698,1.5019 -2.67443,-0.005 -5.09111,-2.14302 -7.85003,-2.08696 -2.76126,0.0561 -4.29163,3.35326 -6.62661,3.37029 -2.33498,0.017 -4.85982,-2.34889 -6.45979,-2.26143 -1.59765,0.0873 -2.40754,1.02952 -4.18917,0.8294 -1.78163,-0.20012 -3.14334,-1.99821 -5.3418,-2.83752 -2.17571,-0.83064 -4.42325,-1.17641 -5.80835,-0.12255 -1.37699,1.04769 0.40826,2.0122 0.0614,7.01144 -0.33724,4.86016 -11.85671,19.59474 -11.29964,28.22096 0.56633,8.76962 2.55576,6.58287 6.26512,12.73843 3.7712,6.25819 8.3691,9.12384 9.96287,10.95932 1.59377,1.83547 3.85056,4.68056 5.70274,8.9094 1.8486,4.22068 5.01905,8.09247 5.18383,9.89 -3.0183,1.33657 -5.46294,0.69665 -8.00856,-2.18297 -0.47291,1.25094 -0.44881,2.55283 -0.38711,3.52758 -3.38867,0.83502 -9.0722,-1.85718 -12.25081,-5.23047 -3.21392,-3.41074 -2.49966,-8.17267 -4.5149,-10.47773 -2.01523,-2.30507 -3.29255,-1.17597 -5.46493,-3.19583 -2.17239,-2.01986 -4.08149,-6.86823 -6.88229,-10.76615 -2.80079,-3.89792 -12.24372,-10.05136 -12.45265,-15.55129 -0.21423,-5.63946 4.89579,-6.90597 4.76078,-12.76533 -0.13988,-6.07007 -2.07845,-15.38529 -4.75212,-19.42818 -2.67367,-4.04289 -5.77183,-7.54867 -8.5188,-7.25577 -2.67734,0.28547 -2.99159,3.52898 -4.80521,5.43071 -1.78001,1.86649 -4.23293,3.29615 -7.05814,2.51474 -2.80623,-0.77616 -3.65006,-5.26959 -5.28042,-5.52674 -1.69908,-0.26799 -9.13605,11.86806 -13.816912,16.78195 -4.680867,4.91389 -14.736203,11.80709 -16.633165,16.19762 -1.896962,4.39052 -4.71582,12.66726 -5.068801,18.79904 -0.35298,6.13179 0.05518,9.56179 2.781231,13.63918 2.693527,4.02875 6.858545,9.65181 8.509756,13.29771 1.57656,3.48107 0.751342,4.70184 -1.65458,6.21715 -2.314257,-0.44841 -4.358043,-1.77374 -5.737937,-3.1607 -0.17196,1.57024 -0.197964,2.70245 0.10581,4.59273 z"
         style="fill:#000000;fill-rule:evenodd;stroke:#ffffff;stroke-width:3;stroke-linecap:butt;stroke-linejoin:round;stroke-miterlimit:4;stroke-opacity:1;stroke-dasharray:none" />
      <path
         sodipodi:nodetypes="czzzzz"
         id="path4331"
         d="m 227.95666,68.428473 c 0.21264,1.200394 1.4373,1.522941 2.26322,1.697416 0.82592,0.174475 1.47575,0.07057 2.20035,-0.440071 0.7246,-0.51064 1.83914,-1.77149 1.50882,-2.986194 -0.33032,-1.214704 -2.1069,-1.99332 -3.48914,-1.665982 -1.38224,0.327338 -2.69589,2.194437 -2.48325,3.394831 z"
         style="fill:#ffffff;fill-rule:evenodd;stroke:#000000;stroke-width:1.5;stroke-linecap:butt;stroke-linejoin:miter;stroke-miterlimit:4;stroke-opacity:1;stroke-dasharray:none" />
      <path
         id="path4333"
         d="m 227.15625,65.46875 c -0.78577,0.08374 -1.72818,0.42246 -2.46875,0.90625 0.34554,0.368714 0.50286,0.74381 0.46875,1.34375 -0.0263,0.461719 -0.39531,1.067575 -0.875,1.625 0.38021,0.279366 0.78942,0.463485 1.03125,0.53125 0.58468,0.163837 2.17498,0.07703 2.84375,-0.1875 0.11382,-0.04502 0.29934,-0.121076 0.46875,-0.1875 -0.32529,-0.246766 -0.56997,-0.575418 -0.65625,-1.0625 -0.13982,-0.7893 0.39068,-1.855215 1.15625,-2.59375 -0.63259,-0.283467 -1.35271,-0.440653 -1.96875,-0.375 z"
         style="fill:#ffffff;fill-rule:evenodd;stroke:#000000;stroke-width:1.5;stroke-linecap:butt;stroke-linejoin:miter;stroke-miterlimit:4;stroke-opacity:1;stroke-dasharray:none" />
      <path
         id="path4341"
         d="m 228.59375,62.40625 c -0.98166,0.146818 -1.6554,0.853035 -2,1.5625 -0.23384,0.481424 -0.40341,1.114498 -0.34375,1.6875 0.30842,-0.09189 0.62187,-0.157192 0.90625,-0.1875 0.6076,-0.06475 1.31125,0.09885 1.9375,0.375 0.009,0.0038 0.0226,-0.0039 0.0312,0 0.39587,-0.384475 0.83921,-0.700419 1.3125,-0.8125 0.26901,-0.0637 0.55844,-0.04638 0.84375,-0.03125 -0.0364,-0.451222 -0.12467,-0.873719 -0.21875,-1.15625 -0.24493,-0.735522 -0.80073,-1.41679 -2.03125,-1.4375 -0.1537,-0.0026 -0.29726,-0.02097 -0.4375,0 z"
         style="fill:#ffffff;fill-rule:evenodd;stroke:#000000;stroke-width:1.5;stroke-linecap:butt;stroke-linejoin:miter;stroke-miterlimit:4;stroke-opacity:1;stroke-dasharray:none" />
      <path
         id="path4458"
         d="m 160.02369,69 0,6 77.3072,0 0,-6 -77.3072,0 z"
         style="fill:#000000;fill-opacity:1;stroke:none" />
      <path
         sodipodi:nodetypes="czczc"
         id="path3246"
         d="m 122.64786,61.795843 c 5.20574,-0.32186 8.86166,-6.349268 8.99684,-10.274627 0.13507,-3.922079 -0.76241,-7.780794 -2.80217,-10.670668 4.02787,3.103036 5.79592,7.518815 5.11863,12.434168 -0.67147,4.873064 -4.42861,9.729682 -11.3133,8.511127 z"
         style="fill:#ffffff;fill-opacity:1;fill-rule:evenodd;stroke:none" />
      <path
         sodipodi:nodetypes="czczc"
         id="path3248"
         d="m 133.88643,43.787223 c 1.25546,2.222373 2.09318,5.324066 2.18196,8.526073 0.0889,3.207661 -1.10504,7.079168 -4.68523,9.878587 4.37051,-0.361431 6.92048,-4.440789 7.25576,-7.57707 0.33434,-3.127513 -1.06118,-8.065834 -4.75249,-10.82759 z"
         style="fill:#ffffff;fill-opacity:1;fill-rule:evenodd;stroke:none" />
      <path
         sodipodi:nodetypes="czzczzc"
         id="path3250"
         d="m 131.24118,32.219861 c -0.68177,2.424102 1.20035,5.636839 2.35534,7.318148 1.18961,1.731715 7.14513,7.356363 7.19446,14.00077 0.0483,6.50991 -5.16248,10.896989 -13.18141,11.432858 6.23852,1.746407 16.05504,-2.663883 15.98657,-10.428935 -0.0685,-7.765052 -5.35872,-11.37487 -7.61893,-13.82964 -2.2935,-2.490938 -4.96818,-5.754242 -4.73603,-8.493201 z"
         style="fill:#ffffff;fill-opacity:1;fill-rule:evenodd;stroke:none" />
      <path
         sodipodi:nodetypes="ccc"
         id="path3252"
         d="m 139.6477,40.895383 c 4.29909,2.027175 5.89577,4.236882 4.9094,8.406513 -0.56043,-2.802171 -2.73492,-5.806098 -4.9094,-8.406513 z"
         style="fill:#ffffff;fill-opacity:1;fill-rule:evenodd;stroke:none" />
      <path
         style="fill:#ffffff;fill-opacity:1;fill-rule:evenodd;stroke:none"
         d="m 120.77439,65.215239 c 5.11711,4.498597 9.85102,4.076921 13.76081,1.386668 -3.80401,0.840693 -10.43749,0.500493 -13.76081,-1.386668 z"
         id="path3254"
         sodipodi:nodetypes="ccc" />
      <path
         sodipodi:nodetypes="czzczzcc"
         id="path3263"
         d="m 267.13229,84.250575 c -0.61055,-3.607377 1.79305,-7.293342 5.74706,-10.080343 4.09265,-2.884725 14.79263,-4.427947 21.9638,-6.052691 7.15015,-1.619981 20.03205,-4.772313 23.63015,-15.184031 0.7511,8.093821 -7.00452,14.68867 -12.62172,18.410638 -5.63838,3.736002 -11.81416,4.177409 -17.55655,7.117516 -5.70438,2.920649 -9.09361,8.1143 -11.48292,10.628821 -4.76181,0.711417 -8.67414,-2.548003 -9.67982,-4.83991 z"
         style="fill:#ffffff;fill-rule:evenodd;stroke:#000000;stroke-width:3;stroke-linecap:butt;stroke-linejoin:round;stroke-miterlimit:4;stroke-opacity:1;stroke-dasharray:none" />
      <path
         sodipodi:nodetypes="cczczc"
         id="path3265"
         d="m 283.92963,94.215096 c 0.0875,3.011519 0.16437,7.391974 -1.32861,10.154324 3.63163,1.43374 4.90928,1.25952 9.49002,1.3286 4.48586,0.0676 25.91456,-1.62854 38.33968,-26.287355 -15.28574,16.527873 -28.25107,16.281817 -34.73347,16.417735 -6.48368,0.135944 -9.8622,-0.733915 -11.76762,-1.613304 z"
         style="fill:#ffffff;fill-rule:evenodd;stroke:#000000;stroke-width:3;stroke-linecap:butt;stroke-linejoin:round;stroke-miterlimit:4;stroke-opacity:1;stroke-dasharray:none" />
      <path
         sodipodi:nodetypes="cczc"
         id="path3267"
         d="m 83.333646,173.63244 c -2.640839,4.15536 -7.722817,11.25604 -9.188571,14.66261 2.748439,0.0829 7.148554,-5.98364 8.175739,-8.53843 1.027186,-2.55478 1.857938,-4.16649 1.012832,-6.12418 z"
         style="fill:#ffffff;fill-rule:evenodd;stroke:none" />
      <path
         sodipodi:nodetypes="czzzzzzzzzzz"
         id="path3269"
         d="m 67.375531,191.43544 c -1.452142,-0.32993 -1.727705,7.91637 -1.173009,9.57958 0.525271,1.57498 1.325464,2.07902 1.564012,3.61677 0.22373,1.44222 -5.550035,22.01243 -4.887538,23.65569 0.649715,1.61156 1.834046,-0.15955 2.932523,0.1955 1.098477,0.35505 2.316708,3.5591 3.030273,2.93252 0.770285,-0.67638 -1.874592,-1.83705 -2.737022,-5.37629 -0.884931,-3.63158 2.226216,-17.12839 3.616778,-21.01641 1.390562,-3.88802 2.378159,-3.56249 2.54152,-4.88754 0.163361,-1.32505 -0.405303,-2.39475 -1.173009,-3.03027 -0.767706,-0.63552 -1.995913,0.1413 -2.834772,-0.48876 -0.838859,-0.63006 0.548289,-4.85633 -0.879756,-5.18079 z"
         style="fill:#ffffff;fill-opacity:1;fill-rule:evenodd;stroke:none" />
      <path
         sodipodi:nodetypes="czzczzczc"
         id="path3271"
         d="m 96.748326,152.43973 c 2.078069,-6.28174 5.281334,-13.79907 9.960034,-18.28959 4.72918,-4.53897 16.10917,-11.97266 16.86907,-15.45005 0.75498,-3.45483 -0.90649,-6.25971 -2.0325,-8.84141 2.83738,1.17845 4.80283,5.92127 4.46852,9.85842 -0.3343,3.93714 -6.95517,6.81658 -9.34654,9.75529 -2.5379,3.11877 -3.79312,4.93733 -4.7764,8.84141 -0.17551,-1.27956 -0.051,-5.02952 -3.76014,-2.33739 -3.68915,2.67759 -7.46421,9.73701 -11.382044,16.46332 z"
         style="fill:#ffffff;fill-rule:evenodd;stroke:none" />
      <path
         sodipodi:nodetypes="czczc"
         id="path3273"
         d="m 116.36203,151.9316 c -0.72495,-1.60803 -1.03132,-7.2562 3.65851,-7.31703 4.89306,-0.0635 11.08982,7.42608 14.22756,12.49992 -3.92018,-2.94758 -8.93405,-9.02958 -13.62004,-9.35327 -4.686,-0.32369 -3.13458,3.44104 -4.26603,4.17038 z"
         style="fill:#ffffff;fill-rule:evenodd;stroke:none" />
      <path
         sodipodi:nodetypes="czczc"
         id="path3275"
         d="m 138.00824,162.60227 c 0.85315,4.48249 5.41642,8.99566 9.24792,9.04466 3.9331,0.0503 7.75112,-4.25803 8.13003,-7.72353 -2.97472,2.12389 -5.1719,5.72822 -9.04466,5.49075 -3.86524,-0.237 -6.03604,-4.38385 -8.33329,-6.81188 z"
         style="fill:#ffffff;fill-rule:evenodd;stroke:none" />
      <path
         sodipodi:nodetypes="czzzzc"
         id="path3277"
         d="m 143.59764,146.13895 c 2.9222,7.04727 9.37214,8.05847 14.02431,8.02543 4.65178,-0.033 11.14541,-3.44048 11.68393,-4.97891 0.54868,-1.56745 1.25121,-2.66292 -1.21652,-2.84327 -2.46773,-0.18035 -6.8203,4.98321 -10.97554,5.28453 -4.16484,0.30201 -8.71485,-0.54325 -13.51618,-5.48778 z"
         style="fill:#ffffff;fill-rule:evenodd;stroke:none" />
      <path
         sodipodi:nodetypes="ccc"
         id="path3299"
         d="m 168.90329,120.92894 c -0.16783,2.69345 2.60446,9.00324 5.14367,11.72279 -1.05054,-3.80311 -2.54369,-8.82602 -5.14367,-11.72279 z"
         style="fill:#ffffff;fill-rule:evenodd;stroke:none" />
      <path
         sodipodi:nodetypes="cscsscssccsc"
         id="path3301"
         d="m 172.31314,84.812473 c -1.24842,1.735847 -1.75698,5.265478 -0.59375,9.25 0.16198,0.554845 0.43503,1.156516 0.8125,1.75 -0.37567,0.27319 -0.69597,0.688494 -1.0625,1.3125 -0.88637,1.509033 -0.88898,5.983867 0.3125,9.812497 1.21858,3.88312 9.22975,17.79094 16.25,21.0625 -0.3364,-2.4104 -2.14826,-2.9968 -4.65099,-6.23356 -2.54469,-3.29103 -7.75183,-10.06732 -8.759,-13.79394 -0.97028,-3.59014 -1.77062,-8.285341 0.0448,-9.497799 2.42831,2.375909 8.48754,5.113019 11.83394,5.181549 -3.2577,-1.20732 -10.27495,-6.254968 -11.69124,-8.572506 -1.36036,-2.226015 -2.68413,-7.33267 -2.49626,-10.271241 z"
         style="fill:#ffffff;fill-rule:evenodd;stroke:none" />
      <path
         sodipodi:nodetypes="cscscczcc"
         id="path3308"
         d="m 185.15689,131.15622 c 2.06678,10.91024 -1.12402,21.87029 -3.8125,21.93123 -2.61829,0.0593 -4.59342,-7.55168 -5.625,-9.64998 0.12068,6.72743 1.19635,13.9709 7.14485,13.84375 0.33015,-0.007 1.40927,-0.22322 1.7046,-0.40625 -0.0599,-0.62168 -0.184,-1.73816 -0.24712,-2.57107 1.22737,-1.62583 2.19811,-4.64499 2.63351,-8.11017 0.44173,-3.51554 0.32261,-11.19508 -1.79829,-15.03751 l -5e-5,0 z"
         style="fill:#ffffff;fill-rule:evenodd;stroke:none" />
      <path
         sodipodi:nodetypes="czczc"
         id="path3313"
         d="m 162.40582,102.56332 c -2.03558,0.41024 -3.00666,2.02018 -3.07679,6.22195 -0.0713,4.27072 2.12761,11.77 5.33309,15.99927 -2.05924,-6.30016 -3.08213,-11.5174 -3.07678,-15.72578 0.005,-4.14001 0.18951,-4.85448 0.82048,-6.49544 z"
         style="fill:#ffffff;fill-rule:evenodd;stroke:none" />
      <path
         sodipodi:nodetypes="czzzc"
         id="path3315"
         d="m 156.1155,103.31543 c -2.53494,2.56159 -2.72467,10.08984 -1.66138,14.87767 1.06328,4.78783 5.47591,13.29212 7.33634,12.60826 1.86043,-0.68386 -4.05173,-6.17023 -5.37956,-12.99086 -1.34064,-6.88649 -0.48743,-12.84589 -0.2954,-14.49507 z"
         style="fill:#ffffff;fill-rule:evenodd;stroke:none" />
      <path
         sodipodi:nodetypes="czczc"
         id="path3317"
         d="m 150.16705,106.87082 c -2.81959,2.92502 -2.88638,11.1957 -2.25631,14.49507 0.63235,3.31132 1.99921,6.43102 5.02871,6.5638 -1.41935,-2.03873 -2.08541,-2.83418 -2.95048,-6.55147 -0.86507,-3.71729 -0.32903,-9.96183 0.17808,-14.5074 z"
         style="fill:#ffffff;fill-rule:evenodd;stroke:none" />
      <path
         sodipodi:nodetypes="czczc"
         id="path3319"
         d="m 146.06467,107.55455 c -2.09918,2.47441 -2.53728,6.84624 -2.46142,9.16198 0.0759,2.31574 0.33759,4.65932 2.32468,5.60659 -0.0615,-2.06838 -0.455,-3.77717 -0.5516,-6.0451 -0.0966,-2.26792 0.3261,-6.54851 0.68834,-8.72347 z"
         style="fill:#ffffff;fill-rule:evenodd;stroke:none" />
      <path
         sodipodi:nodetypes="czczc"
         id="path3321"
         d="m 141.41531,113.98161 c -1.0378,-1.64822 -0.58572,-5.1472 0.0684,-6.29031 0.6541,-1.14312 1.61831,-1.49016 3.00842,-1.70933 -0.79783,0.8748 -1.49184,1.91507 -1.98282,3.00841 -0.49098,1.09335 -0.94501,2.94731 -1.09397,4.99123 z"
         style="fill:#ffffff;fill-rule:evenodd;stroke:none" />
      <path
         sodipodi:nodetypes="czczc"
         id="path3323"
         d="m 241.45095,116.69299 c -5.67468,-6.66096 -4.8428,-15.5018 -3.20419,-20.727097 1.63861,-5.225294 7.23368,-11.165961 13.71794,-11.214663 -3.32855,1.653524 -9.99512,6.763886 -11.43585,11.704856 -1.44072,4.940974 -2.84166,11.783324 0.9221,20.236904 z"
         style="fill:#ffffff;fill-rule:evenodd;stroke:none" />
      <path
         sodipodi:nodetypes="czzzc"
         id="path3325"
         d="m 235.34297,110.08435 c -1.92409,-4.2091 -2.82945,-11.14098 -1.90249,-15.219898 0.94859,-4.174074 5.03641,-9.796888 6.30825,-8.511128 1.11003,1.122173 -3.99418,5.128672 -4.81676,9.196353 -0.81888,4.049371 -0.16817,9.331473 0.411,14.534673 z"
         style="fill:#ffffff;fill-rule:evenodd;stroke:none" />
      <path
         sodipodi:nodetypes="czczc"
         id="path3327"
         d="m 230.43655,96.266286 c -0.91037,-2.409543 -1.16702,-5.780902 -0.50066,-7.710082 0.66637,-1.929179 1.45988,-3.750258 4.60602,-4.005236 -1.25961,0.846461 -2.49159,2.930548 -3.10405,4.706154 -0.61246,1.775605 -0.89198,4.512291 -1.00131,7.009164 z"
         style="fill:#ffffff;fill-rule:evenodd;stroke:none" />
      <path
         sodipodi:nodetypes="czzzzc"
         id="path3329"
         d="m 290.8155,116.09221 c -2.31619,0.6439 -4.07295,0.31811 -6.10798,-0.40053 -2.03504,-0.71863 -5.09148,-3.164 -4.60603,-4.40576 0.49753,-1.27267 0.22991,-1.14981 1.3017,-2.00262 1.00937,-0.80313 2.70103,0.0511 4.30563,1.20158 1.60459,1.15052 4.41894,3.66172 5.10668,5.60733 z"
         style="fill:#ffffff;fill-rule:evenodd;stroke:none" />
      <path
         sodipodi:nodetypes="czczc"
         id="path3331"
         d="m 264.08054,61.320595 c 1.35982,2.556256 1.60052,5.343893 1.50196,7.60995 -0.0985,2.266057 -1.43703,5.680579 -2.70352,7.810212 3.43966,-1.374949 4.47684,-5.051998 4.60601,-7.60995 0.12917,-2.557953 -0.75903,-6.461361 -3.40445,-7.810212 z"
         style="fill:#ffffff;fill-rule:evenodd;stroke:none" />
      <path
         sodipodi:nodetypes="czczc"
         id="path3333"
         d="m 270.55393,90.77403 c -0.29022,2.027175 -0.23189,3.718261 -0.88626,5.410934 -0.65436,1.692674 -1.63899,3.68069 -1.3891,4.553586 0.87028,0.13893 2.68321,-1.848479 3.13843,-3.923039 0.45522,-2.07456 0.0458,-5.63899 -0.86307,-6.041481 z"
         style="fill:#ffffff;fill-rule:evenodd;stroke:none" />
      <path
         id="path3344"
         d="m 261.68814,88.656223 c -3.59347,1.025113 -4.05988,4.585169 -3.9375,6.59375 0.12276,2.014861 0.6084,4.629786 0.3125,6.906247 -0.25309,1.94718 -2.03815,3.70878 -1.25,5.03125 0.5528,0.92757 1.89344,0.71621 2.875,0.71875 -0.40004,-0.7455 -0.65625,-1.73619 -0.65625,-2.84375 0,-2.19897 0.96388,-3.9774 2.1875,-4.125 -0.80182,-1.74919 -1.28608,-4.461289 -1.25,-6.156247 0.0437,-2.052302 0.76149,-4.090144 1.71875,-6.125 z"
         style="fill:#ffffff;fill-rule:evenodd;stroke:none" />
      <path
         id="path3339"
         d="m 262.78189,101.46872 c -0.0649,0.009 -0.12325,0.0468 -0.1875,0.0625 0.66897,0.73365 1.125,2.03884 1.125,3.53125 0,2.29545 -1.04444,4.15625 -2.34375,4.15625 -0.27985,0 -0.5322,-0.12269 -0.78125,-0.28125 -0.67497,2.31078 -4.22026,8.93834 -3.21875,13.625 4.39732,-1.92977 1.86157,-4.84289 4.21875,-9.28125 2.4069,-4.53196 4.29352,-5.74833 4.34375,-8.375 0.0408,-2.13443 -1.63262,-3.65637 -3.15625,-3.4375 z"
         style="fill:#ffffff;fill-rule:evenodd;stroke:none" />
      <path
         sodipodi:nodetypes="cczc"
         id="path3346"
         d="m 245.05418,116.66609 c 0.30465,2.87282 -0.14211,6.99168 -1.25538,9.57222 1.93862,-2.64385 2.36561,-4.1056 2.43507,-5.58967 0.0695,-1.48407 -0.12069,-3.09468 -1.17969,-3.98255 z"
         style="fill:#ffffff;fill-rule:evenodd;stroke:none" />
      <path
         sodipodi:nodetypes="czzssssssssssssscscsssssssssszzczcsssscsscc"
         d="m 251.39069,112.49415 c 0.0513,2.31737 0.83781,6.1198 0.71143,8.59572 -0.12638,2.47592 -0.77277,4.20178 -1.2661,5.40013 -0.49332,1.19834 -1.57852,3.14832 -1.15266,3.82827 0.46057,0.73538 2.07704,-0.10415 3.2169,-0.0785 1.16669,0.0263 2.54523,0.48812 2.82458,1.25537 0.27935,0.76725 0.24002,2.0393 -0.23538,2.58921 -0.43787,0.5065 -1.18889,1.2067 -1.17691,2.03998 0.012,0.83328 -0.21057,2.13759 1.33383,2.1969 1.5444,0.0593 4.19887,-4.29023 4.78611,-5.25688 0.53112,-0.87426 0.38452,-2.00957 0.86307,-3.21689 0.48994,-1.23606 4.32214,-5.93192 5.96302,-8.86607 1.64088,-2.93414 3.71746,-7.28985 4.86457,-9.18896 1.07658,-1.78234 1.46593,-2.13335 2.11844,-1.87401 0.65251,0.25934 1.42145,-0.0739 0.93511,2.53388 -0.51597,2.76668 -3.77035,8.54442 -6.50068,12.7094 -2.73033,4.16499 -8.76483,11.38359 -10.67582,14.17952 0.44284,2.08978 -0.0809,2.86731 -0.70614,3.45227 -0.66587,0.62296 -2.09997,1.16752 -3.84458,0.70615 -1.11693,1.57861 -2.87998,1.87775 -5.0215,1.49075 -2.06558,-0.37327 -5.06256,-3.29775 -5.41379,-4.62918 -0.35123,-1.33143 -0.29993,-3.08479 0.39231,-3.37382 0.69224,-0.28903 1.75188,1.52708 2.19689,1.09845 0.48235,-0.4646 -0.54279,-1.80566 -1.33382,-2.66766 -0.79103,-0.862 -1.99278,-0.69407 -2.47802,-1.41317 -0.44953,-0.66617 -0.32968,-2.53267 0.35264,-3.65579 0.68232,-1.12312 2.77714,-3.26052 3.77218,-2.81938 0.99504,0.44114 -0.46896,1.74588 0.47164,2.00378 0.9406,0.2579 2.05573,-1.46143 2.90305,-2.98151 0.84732,-1.52008 1.9191,-4.91498 1.80459,-7.21839 -0.11451,-2.30341 -0.30408,-7.46754 -0.23538,-8.94453 0.0687,-1.47699 0.37088,-2.01817 0.95519,-2.04527 -0.39963,0.58695 -0.47609,1.83286 -0.42477,4.15023 z m -1.23657,28.18094 c -0.7382,0.13959 -1.23074,0.09 -1.72613,-0.23538 -0.49539,-0.32538 -0.77608,-1.75232 -0.62768,-2.35382 0.15398,-0.62415 0.68107,-1.86759 1.41229,-2.90306 0.73121,-1.03546 1.47312,-2.95143 2.51074,-2.74612 1.03763,0.2053 1.00684,1.00703 1.09845,1.80459 0.0916,0.79757 -0.14927,1.88862 -0.3923,2.66767 -0.79788,0.0125 -1.63624,0.23168 -2.11844,0.62769 -0.4822,0.39601 -0.82655,1.14697 -0.86307,1.64768 -0.0365,0.50071 0.26743,1.03731 0.70614,1.49075 z"
         style="fill:#ffffff;fill-rule:evenodd;stroke:none"
         id="path3348" />
      <path
         sodipodi:nodetypes="ccc"
         id="path3268"
         d="m 184.86903,159.63324 c 0.20902,2.82921 1.13746,6.60077 2.71578,9.46642 -3.31451,-2.72927 -5.15725,-6.29835 -2.71578,-9.46642 z"
         style="fill:#ffffff;fill-rule:evenodd;stroke:none" />
      <path
         sodipodi:nodetypes="ccscc"
         id="path3270"
         d="m 201.84113,166.11883 c 0.59062,-1.52263 0.88369,-2.4855 1.21078,-3.49032 1.76211,-1.96537 8.7154,-6.25233 13.82019,-7.33412 0.76038,-0.16114 1.33425,0.15287 2.06051,0.30399 -3.29616,1.53286 -14.53154,7.51121 -17.09148,10.52045 z"
         style="fill:#ffffff;fill-rule:evenodd;stroke:none" />
      <path
         sodipodi:nodetypes="cscsc"
         id="path3272"
         d="m 221.41969,160.91013 c 0.15059,2.34959 -1.0191,5.7109 -2.12201,7.43292 -0.35128,0.54848 -1.02932,0.0555 -1.49494,0.159 -0.25067,-1.6532 0.47853,-5.7586 2.00636,-7.52867 0.49677,-0.57553 1.19084,-0.18767 1.61059,-0.0632 z"
         style="fill:#ffffff;fill-rule:evenodd;stroke:none" />
      <path
         sodipodi:nodetypes="czzczzzc"
         id="path3274"
         d="m 194.02541,125.72519 c 1.92625,0.75909 3.7018,1.92291 5.13872,5.54018 1.43691,3.61726 -1.70261,12.58127 0.56204,15.09499 2.24676,2.49385 5.93589,1.64761 7.38692,1.00365 -0.87745,1.52394 -4.22703,2.87849 -5.98179,2.60951 -1.75476,-0.26899 -3.40409,-1.33718 -4.3358,-4.09492 -0.94941,-2.81014 0.93018,-10.64496 0.36132,-13.60957 -0.56886,-2.96461 -1.68538,-4.57298 -3.13141,-6.54384 z"
         style="fill:#ffffff;fill-rule:evenodd;stroke:none" />
      <path
         sodipodi:nodetypes="cccc"
         id="path3276"
         d="m 233.43473,165.875 c -0.13038,0.51758 -0.36288,1.24654 -0.5,1.9375 2.19398,1.87275 7.51465,-0.0562 10.125,-2.0625 -3.65283,0.23407 -7.26065,0.25495 -9.625,0.125 z"
         style="fill:#ffffff;fill-rule:evenodd;stroke:none" />
      <path
         sodipodi:nodetypes="ccc"
         id="path3278"
         d="m 233.47922,172.49039 c -5.05705,1.93264 2.10203,8.55923 6.58229,12.50032 -2.47733,-4.17392 -5.50628,-8.60658 -6.58229,-12.50032 z"
         style="fill:#ffffff;fill-rule:evenodd;stroke:none" />
      <path
         sodipodi:nodetypes="czzzz"
         id="path3482"
         d="m 205.42845,83.665977 c 0.27271,-1.133346 2.58632,-1.727647 3.74672,-1.365992 1.1604,0.361655 2.79983,2.27189 2.38073,3.356436 -0.4191,1.084546 -2.48925,1.112409 -3.55158,0.780567 -1.06233,-0.331842 -2.84858,-1.637665 -2.57587,-2.771011 z"
         style="fill:#ffffff;fill-rule:evenodd;stroke:#000000;stroke-width:1.5;stroke-linecap:butt;stroke-linejoin:miter;stroke-miterlimit:4;stroke-opacity:1;stroke-dasharray:none" />
      <path
         id="path3480"
         d="m 209.79564,79.1875 c -1.03095,0.07185 -2.50392,1.470356 -2.46875,2.6875 0.004,0.132006 0.0494,0.28807 0.0937,0.4375 0.63255,-0.137067 1.28285,-0.145595 1.75,0 0.58147,0.181223 1.28614,0.748402 1.78125,1.40625 0.0921,-0.344653 0.21446,-0.663228 0.375,-0.9375 0.19912,-0.340185 0.58132,-0.753289 1,-1.15625 -4e-4,-0.01031 5.1e-4,-0.02106 0,-0.03125 -0.006,-0.122252 -0.009,-0.242465 -0.0312,-0.34375 -0.24205,-1.080372 -1.46905,-2.134352 -2.5,-2.0625 z m 1.1875,4.59375 c 0.16586,0.22679 0.29935,0.452698 0.40625,0.6875 -0.1064,-0.233306 -0.23762,-0.459822 -0.40625,-0.6875 z"
         style="fill:#ffffff;fill-rule:evenodd;stroke:#000000;stroke-width:1.5;stroke-linecap:butt;stroke-linejoin:miter;stroke-miterlimit:4;stroke-opacity:1;stroke-dasharray:none" />
      <path
         id="path3487"
         d="m 214.48314,80.34375 c -1.13324,0.09413 -2.64279,1.560287 -3.15625,2.4375 -0.16054,0.274272 -0.2829,0.592847 -0.375,0.9375 0.50252,0.658334 0.8033,1.395227 0.59375,1.9375 -0.0864,0.223487 -0.23419,0.391404 -0.4375,0.53125 0.52001,0.651268 1.36171,0.703243 2.25,0.4375 0.90328,-0.27023 2.55948,-1.698569 2.8125,-2.8125 0.25302,-1.113931 -0.0844,-3.054291 -1.21875,-3.4375 -0.14179,-0.0479 -0.30686,-0.0447 -0.46875,-0.03125 z"
         style="fill:#ffffff;fill-rule:evenodd;stroke:#000000;stroke-width:1.5;stroke-linecap:butt;stroke-linejoin:miter;stroke-miterlimit:4;stroke-opacity:1;stroke-dasharray:none" />
      <path
         id="path3503"
         d="m 207.29564,78 c -0.98444,0.05004 -2.57723,0.395698 -2.96875,1.65625 -0.2768,0.891212 0.18302,2.867433 1.09375,4 0.16292,-0.677085 1.0613,-1.140345 2,-1.34375 -0.0444,-0.14943 -0.0899,-0.305494 -0.0937,-0.4375 -0.0352,-1.217144 1.4378,-2.615648 2.46875,-2.6875 0.12887,-0.009 0.27356,0.0072 0.40625,0.03125 -0.42607,-1.315078 -1.9324,-1.268253 -2.9063,-1.21875 z"
         style="fill:#ffffff;fill-rule:evenodd;stroke:#000000;stroke-width:1.5;stroke-linecap:butt;stroke-linejoin:miter;stroke-miterlimit:4;stroke-opacity:1;stroke-dasharray:none" />
      <path
         id="path3514"
         d="m 205.48314,84.3125 c -0.7795,0.08278 -1.4325,0.30484 -1.625,0.75 -0.4163,0.962696 0.76142,4.34457 1.90625,5.28125 1.14484,0.93668 3.80441,0.773062 4.96875,0.34375 1.16435,-0.429314 2.44105,-1.916259 2.03125,-2.9375 -0.18441,-0.45956 -0.8247,-1.05967 -1.59375,-1.625 -0.76171,0.59296 -2.28653,0.584175 -3.15625,0.3125 -0.86464,-0.270092 -2.20795,-1.18262 -2.53125,-2.125 z"
         style="fill:#ffffff;fill-rule:evenodd;stroke:#000000;stroke-width:1.5;stroke-linecap:butt;stroke-linejoin:miter;stroke-miterlimit:4;stroke-opacity:1;stroke-dasharray:none" />
      <path
         sodipodi:nodetypes="csscsccscccc"
         id="path3519"
         d="m 203.63939,78.875 c -1.26278,0.112783 -1.5765,1.487907 -1.875,2.5 -0.29851,1.012094 -0.2687,3.022728 0.28125,3.90625 0.43909,0.705415 1.06111,1.4135 1.90625,1.53125 -0.18613,-0.744076 -0.2432,-1.404407 -0.0937,-1.75 0.1925,-0.44516 0.8455,-0.667219 1.625,-0.75 -0.0747,-0.219886 -0.11387,-0.442748 -0.0625,-0.65625 -0.91073,-1.132567 -1.37055,-3.108788 -1.09375,-4 0.0629,-0.202487 0.16387,-0.373411 0.28125,-0.53125 -0.35588,-0.166277 -0.68984,-0.274911 -0.96875,-0.25 z m 3.6875,3.03125 c 0.0717,0.434816 0.18592,0.454341 0,0 z"
         style="fill:#ffffff;fill-rule:evenodd;stroke:#000000;stroke-width:1.5;stroke-linecap:butt;stroke-linejoin:miter;stroke-miterlimit:4;stroke-opacity:1;stroke-dasharray:none" />
      <path
         id="path3542"
         d="m 208.04564,74.34375 c -0.61079,0.02241 -1.25426,0.230318 -1.84375,0.59375 -0.99141,0.611228 -3.09725,2.452783 -3.03125,4.0625 0.14099,-0.05976 0.29381,-0.109376 0.46875,-0.125 0.27891,-0.02491 0.61287,0.08372 0.96875,0.25 0.61337,-0.824766 1.86119,-1.082996 2.6875,-1.125 0.33061,-0.01681 0.73477,-0.0057 1.125,0.03125 -0.005,-0.07588 -0.007,-0.147786 0,-0.21875 0.0801,-0.829708 0.66189,-1.470959 1.625,-1.875 0.26011,-0.10912 0.59872,-0.181836 0.96875,-0.21875 -0.41881,-0.412706 -0.8876,-0.73012 -1.25,-0.9375 -0.51895,-0.296962 -1.10796,-0.459911 -1.71875,-0.4375 z"
         style="fill:#ffffff;fill-rule:evenodd;stroke:#000000;stroke-width:1.5;stroke-linecap:butt;stroke-linejoin:miter;stroke-miterlimit:4;stroke-opacity:1;stroke-dasharray:none" />
      <path
         id="path3547"
         d="m 215.98314,77.53125 c -0.46081,0.02779 -0.92916,0.201054 -1.34375,0.4375 0.17113,0.747255 0.16949,1.622235 0,2.375 0.11089,-0.0021 0.21502,-0.0017 0.3125,0.03125 1.13434,0.383209 1.47177,2.323569 1.21875,3.4375 -0.25302,1.113931 -1.90922,2.54227 -2.8125,2.8125 -0.54338,0.162559 -1.05568,0.202643 -1.5,0.0625 0.44311,0.386714 0.78105,0.750489 0.90625,1.0625 0.23687,0.590295 -0.11358,1.330201 -0.65625,1.9375 0.92071,0.476566 2.11923,0.663383 3.03125,0.46875 1.58612,-0.338489 3.09314,-3.108993 3.625,-4.5 0.53186,-1.391004 0.52771,-2.578755 0.40625,-3.90625 -0.12107,-1.323388 -1.03569,-3.671837 -2.21875,-4.09375 -0.29577,-0.105479 -0.6414,-0.14474 -0.96875,-0.125 z"
         style="fill:#ffffff;fill-rule:evenodd;stroke:#000000;stroke-width:1.5;stroke-linecap:butt;stroke-linejoin:round;stroke-miterlimit:4;stroke-opacity:1;stroke-dasharray:none" />
      <path
         id="path3556"
         d="m 211.45189,75.6875 c -0.55621,-0.0026 -1.04508,0.09848 -1.40625,0.25 -0.96311,0.404041 -1.54491,1.045292 -1.625,1.875 -0.007,0.07096 -0.005,0.14287 0,0.21875 0.75719,0.06995 1.50141,0.323683 1.78125,1.1875 0.002,0.0047 0.0297,-0.0048 0.0312,0 0.91914,0.183164 1.85308,1.096516 2.0625,2.03125 0.0227,0.101285 0.0251,0.221498 0.0312,0.34375 0.65515,-0.630909 1.46587,-1.192655 2.15625,-1.25 0.0506,-0.0042 0.10585,9.55e-4 0.15625,0 0.28662,-1.272968 0.0666,-2.901871 -0.59375,-3.65625 -0.62071,-0.709108 -1.66674,-0.9957 -2.59375,-1 z"
         style="fill:#ffffff;fill-rule:evenodd;stroke:#000000;stroke-width:1.5;stroke-linecap:butt;stroke-linejoin:miter;stroke-miterlimit:4;stroke-opacity:1;stroke-dasharray:none" />
      <path
         id="path3696"
         d="m 214.67064,90.25 c -0.81861,0 -1.55284,0.336681 -2.0625,0.875 0.33059,0.933848 0.0813,2.378373 -0.28125,3.21875 0.0164,0.02456 0.0453,0.03853 0.0625,0.0625 1.09248,-0.01089 2.36442,0.342418 2.9375,1.0625 1.21954,-0.281301 2.12499,-1.309091 2.125,-2.5625 0,-1.469917 -1.24408,-2.656247 -2.78125,-2.65625 z"
         style="fill:#ffffff;fill-opacity:1;stroke:#000000;stroke-width:1.5;stroke-linecap:square;stroke-linejoin:round;stroke-miterlimit:4;stroke-opacity:1;stroke-dasharray:none" />
      <path
         id="path3689"
         d="m 212.73314,91.90625 c 0.0544,0.850659 -0.13304,1.804209 -0.40625,2.4375 0.0164,0.02449 0.0453,0.03858 0.0625,0.0625 1.09248,-0.01089 2.36442,0.342418 2.9375,1.0625 0.0308,-0.0079 0.0632,-0.02307 0.0937,-0.03125 0.0947,-0.267732 0.15625,-0.576832 0.15625,-0.875 0,-1.469917 -1.24409,-2.65625 -2.78125,-2.65625 -0.0207,0 -0.042,-8.59e-4 -0.0625,0 z"
         style="fill:#ffffff;fill-opacity:1;stroke:#000000;stroke-width:1.5;stroke-linecap:square;stroke-linejoin:round;stroke-miterlimit:4;stroke-opacity:1;stroke-dasharray:none" />
      <path
         id="path3658"
         d="m 211.57689,90.28125 c -0.0506,-7.17e-4 -0.10418,0.02609 -0.15625,0.03125 -0.22314,0.153771 -0.45946,0.29092 -0.6875,0.375 -0.16914,0.06237 -0.37072,0.138906 -0.59375,0.1875 -0.71822,0.518856 -1.38514,1.274399 -1.65625,1.875 -0.51915,1.150097 -0.60153,3.612936 0.53125,4.09375 0.15067,0.06396 0.33568,0.102738 0.5,0.09375 -0.0576,0.354481 -0.053,0.702392 0.0312,1 0.22246,0.786075 1.11483,1.697727 2.09375,2.03125 0.4168,-0.62684 0.90708,-1.134089 1.4375,-1.375 0.48977,-1.197469 1.50848,-2.383764 2.40625,-2.90625 -0.47361,-0.900337 -1.96579,-1.316056 -3.1875,-1.28125 0.50786,-1.118103 0.83442,-3.482294 -0.28125,-4.03125 -0.14047,-0.06912 -0.27678,-0.09147 -0.4375,-0.09375 z m 2.1875,8.15625 c 0.144,0.0065 0.27127,0.04455 0.40625,0.09375 -0.13177,-0.04157 -0.26785,-0.08749 -0.40625,-0.09375 z"
         style="fill:#ffffff;fill-rule:evenodd;stroke:#000000;stroke-width:1.5;stroke-linecap:butt;stroke-linejoin:miter;stroke-miterlimit:4;stroke-opacity:1;stroke-dasharray:none" />
      <path
         id="path3699"
         d="m 207.23314,93 c -0.13153,-0.0068 -0.27338,0.0041 -0.40625,0.03125 -1.06296,0.217231 -2.08305,0.944246 -2.125,2.21875 -0.0419,1.274501 1.81212,2.908431 3.0625,3.9375 0.82145,0.676055 1.94814,1.98099 3,2.5625 0.2337,-0.60871 0.51022,-1.23264 0.875,-1.78125 -0.97892,-0.333523 -1.87129,-1.245175 -2.09375,-2.03125 -0.0842,-0.297608 -0.0888,-0.645519 -0.0312,-1 -0.16432,0.009 -0.34933,-0.02979 -0.5,-0.09375 -0.96822,-0.410966 -1.03998,-2.25041 -0.71875,-3.5 C 207.9521,93.149638 207.5937,93.018751 207.23319,93 z"
         style="fill:#ffffff;fill-rule:evenodd;stroke:#000000;stroke-width:1.5;stroke-linecap:butt;stroke-linejoin:miter;stroke-miterlimit:4;stroke-opacity:1;stroke-dasharray:none" />
      <path
         id="path3707"
         d="m 220.13939,92.15625 c -1.28456,-0.0071 -2.84055,1.725025 -3.375,3.21875 0.93822,0.0745 1.67833,0.780121 2.21875,1.625 0.84327,-0.804048 2.1055,-1.459767 3.125,-1.5625 0.20522,-0.02068 0.41415,-0.02809 0.59375,0 0.22538,0.03525 0.44721,0.113445 0.65625,0.21875 -0.34039,-1.479331 -1.80911,-3.49221 -3.21875,-3.5 z"
         style="fill:#ffffff;fill-rule:evenodd;stroke:#000000;stroke-width:1.5;stroke-linecap:butt;stroke-linejoin:miter;stroke-miterlimit:4;stroke-opacity:1;stroke-dasharray:none" />
      <path
         id="path3715"
         d="m 218.26439,86.78125 c -0.71699,1.410059 -1.89502,3.112513 -3.125,3.375 -0.12876,0.02748 -0.26766,0.01872 -0.40625,0.03125 0.006,0.01945 -0.006,0.04307 0,0.0625 1.50797,0.03194 2.71875,1.2065 2.71875,2.65625 0,0.146277 -0.008,0.298196 -0.0312,0.4375 0.1318,0.08539 0.27081,0.171778 0.40625,0.25 0.68694,-0.82104 1.54162,-1.441761 2.3125,-1.4375 0.45285,0.0025 0.91808,0.230306 1.34375,0.5625 0.23676,-0.821296 0.18843,-1.821353 -0.0937,-2.6875 -0.34909,-1.071517 -1.78853,-2.528473 -3.125,-3.25 z"
         style="fill:#ffffff;fill-rule:evenodd;stroke:#000000;stroke-width:1.5;stroke-linecap:butt;stroke-linejoin:miter;stroke-miterlimit:4;stroke-opacity:1;stroke-dasharray:none" />
      <path
         id="path3741"
         d="m 223.57689,82.375 c -1.46774,0.501928 -2.59019,1.759748 -3.28125,2.9375 -0.31627,0.539025 -0.65856,1.353971 -0.9375,2.1875 0.9493,0.756114 1.77715,1.751292 2.03125,2.53125 0.0705,0.216537 0.11574,0.42786 0.15625,0.65625 0.83844,-0.443349 1.70233,-1.20759 2.03125,-2.09375 0.57882,-1.55938 0.66712,-4.249238 0,-6.21875 z"
         style="fill:#ffffff;fill-rule:evenodd;stroke:#000000;stroke-width:1.5;stroke-linecap:butt;stroke-linejoin:miter;stroke-miterlimit:4;stroke-opacity:1;stroke-dasharray:none" />
      <path
         id="path3746"
         d="m 223.26439,91.59375 c -0.62444,0.110236 -1.19452,0.665732 -1.625,1.25 0.82869,0.718703 1.50133,1.867577 1.71875,2.8125 1.12359,0.566014 1.9844,2.023352 2.34375,3.125 0.0207,0.06359 0.042,0.150458 0.0625,0.21875 0.76109,-0.302091 1.43117,-0.860365 1.84375,-1.375 0.73776,-0.920255 0.94692,-2.281935 0.28125,-3.5 -0.66567,-1.218066 -3.24224,-2.775356 -4.625,-2.53125 z"
         style="fill:#ffffff;fill-rule:evenodd;stroke:#000000;stroke-width:1.5;stroke-linecap:butt;stroke-linejoin:miter;stroke-miterlimit:4;stroke-opacity:1;stroke-dasharray:none" />
      <path
         id="path3360"
         d="m 226.23314,101.03125 c -1.46346,0.13327 -2.78479,1.54653 -3.125,3.15625 -0.11657,0.55154 -0.92289,1.35461 -1.25,2.21875 0.99966,0.37061 2.18488,1.17353 3.0625,2.09375 0.44911,-0.13596 0.87304,-0.19854 1.21875,-0.1875 0.8281,0.0264 1.55187,0.19607 2.125,0.75 0.23871,-0.30069 0.42366,-0.61194 0.59375,-0.875 0.73637,-1.13886 1.02595,-2.83044 0.5625,-4.0625 -0.46346,-1.23205 -1.72403,-3.22703 -3.1875,-3.09375 z"
         style="fill:#ffffff;fill-rule:evenodd;stroke:#000000;stroke-width:1.5;stroke-linecap:butt;stroke-linejoin:miter;stroke-miterlimit:4;stroke-opacity:1;stroke-dasharray:none" />
      <path
         id="path3365"
         d="m 213.76439,98.4375 c -1.74425,-0.07895 -3.23314,3.27301 -3.46875,4.90625 -0.12496,0.8662 -0.11149,2.0303 0.15625,3 1.10096,-0.81381 3.22355,-0.92552 4.34375,-0.6875 0.19437,0.0413 0.37178,0.11609 0.5625,0.1875 0.15298,-0.20508 0.30635,-0.41516 0.4375,-0.625 -0.39187,-0.59443 -0.625,-1.29776 -0.625,-2.0625 0,-0.95126 0.35545,-1.8053 0.9375,-2.46875 -0.50886,-1.185991 -1.34587,-2.204835 -2.34375,-2.25 z"
         style="fill:#ffffff;fill-rule:evenodd;stroke:#000000;stroke-width:1.5;stroke-linecap:butt;stroke-linejoin:miter;stroke-miterlimit:4;stroke-opacity:1;stroke-dasharray:none" />
      <path
         id="path3370"
         d="m 216.60814,95.375 c -0.17001,-0.0012 -0.35238,0.0227 -0.53125,0.0625 -0.99407,0.221193 -2.39721,1.682442 -3,3.15625 0.22758,-0.105489 0.44767,-0.167105 0.6875,-0.15625 0.99788,0.04516 1.83489,1.064009 2.34375,2.25 0.69099,-0.78763 1.71444,-1.3125 2.84375,-1.3125 0.31752,0 0.61235,0.05047 0.90625,0.125 -0.10184,-0.818068 -0.32794,-1.566284 -0.5625,-2.03125 -0.56137,-1.112794 -1.49742,-2.085028 -2.6875,-2.09375 z"
         style="fill:#ffffff;fill-rule:evenodd;stroke:#000000;stroke-width:1.5;stroke-linecap:butt;stroke-linejoin:miter;stroke-miterlimit:4;stroke-opacity:1;stroke-dasharray:none" />
      <path
         id="path3826"
         d="m 222.10814,95.4375 c -1.0195,0.102733 -2.28173,0.758452 -3.125,1.5625 0.10207,0.159581 0.22727,0.29981 0.3125,0.46875 0.23456,0.464966 0.46066,1.213182 0.5625,2.03125 1.63187,0.413807 2.84375,1.8932 2.84375,3.65625 0,0.27042 -0.008,0.52692 -0.0625,0.78125 0.18217,0.008 0.35382,-0.002 0.53125,0 0.40493,-1.45467 1.60265,-2.68419 2.9375,-2.875 -0.005,-0.81897 -0.20581,-1.666744 -0.40625,-2.28125 -0.4262,-1.306606 -1.5632,-3.11901 -3,-3.34375 -0.1796,-0.02809 -0.38853,-0.02068 -0.59375,0 z"
         style="fill:#ffffff;fill-rule:evenodd;stroke:#000000;stroke-width:1.5;stroke-linecap:butt;stroke-linejoin:miter;stroke-miterlimit:4;stroke-opacity:1;stroke-dasharray:none" />
      <path
         id="path3358"
         d="m 218.95189,99.375 c -2.08057,0 -3.78126,1.70069 -3.78125,3.78125 0,1.66728 1.09226,3.06592 2.59375,3.5625 0.58497,-0.3043 1.25569,-0.49777 1.9375,-0.5625 0.49711,-0.0472 0.96493,-0.007 1.40625,0.0625 0.0102,0.002 0.0211,-0.002 0.0312,0 0.95133,-0.68441 1.5625,-1.80194 1.5625,-3.0625 0,-2.08057 -1.66943,-3.781248 -3.75,-3.78125 z"
         style="fill:#ffffff;fill-opacity:1;stroke:#000000;stroke-width:1.46171641;stroke-linecap:square;stroke-linejoin:round;stroke-miterlimit:4;stroke-opacity:1;stroke-dasharray:none" />
      <path
         sodipodi:nodetypes="cssscccscsscsc"
         id="path3395"
         d="m 213.51439,105.53125 c -1.43121,0.006 -3.18095,0.42797 -3.65625,1.5 -0.63374,1.42937 1.14686,3.58849 2.40625,4.71875 1.25939,1.13026 5.47143,3.16401 6.90625,2.21875 0.21821,-0.14376 0.32624,-0.35606 0.40625,-0.59375 0.40423,-1.00281 1.01994,-1.43944 1.96875,-1.84375 0.0644,-0.006 0.12257,0.0285 0.1875,0.0312 0.0574,-0.33008 0.0969,-0.66072 0.21875,-0.90625 0.5058,-1.01898 1.81617,-1.80995 2.96875,-2.15625 -1.09466,-1.1478 -2.70465,-2.10641 -3.78125,-2.28125 -0.45021,-0.0731 -0.92893,-0.11078 -1.4375,-0.0625 -0.91363,0.0867 -1.83355,0.38153 -2.5,0.90625 -0.66596,-0.70337 -1.5182,-1.21756 -2.40625,-1.40625 -0.34468,-0.0732 -0.80418,-0.12715 -1.28125,-0.125 z"
         style="fill:#ffffff;fill-rule:evenodd;stroke:#000000;stroke-width:1.5;stroke-linecap:butt;stroke-linejoin:miter;stroke-miterlimit:4;stroke-opacity:1;stroke-dasharray:none" />
      <path
         id="path3389"
         d="m 217.32689,101.875 c -0.77023,0 -1.4655,0.2592 -2.0625,0.65625 -2.2e-4,0.001 -0.031,-0.001 -0.0312,0 -0.035,0.20615 -0.0625,0.40894 -0.0625,0.625 0,1.65165 1.07975,3.05041 2.5625,3.5625 0.59005,-0.31214 1.27741,-0.49686 1.96875,-0.5625 0.47418,-0.045 0.92038,-9.9e-4 1.34375,0.0625 0.03,-0.18529 0.0625,-0.36783 0.0625,-0.5625 0,-2.08057 -1.70068,-3.78125 -3.78125,-3.78125 z"
         style="fill:#ffffff;fill-opacity:1;stroke:#000000;stroke-width:1.46171641;stroke-linecap:square;stroke-linejoin:round;stroke-miterlimit:4;stroke-opacity:1;stroke-dasharray:none" />
      <path
         id="path3837"
         d="m 236.98314,124.40625 c -1.13899,0.043 -0.93377,2.37346 -0.90625,3.5 0.009,0.38641 0.039,0.91769 0.0937,1.4375 0.43597,-0.22164 0.87073,-0.38047 1.25,-0.4375 0.33163,-0.0499 0.74363,-0.0154 1.15625,0.0625 0.0576,-0.45559 0.10005,-0.88792 0.0937,-1.21875 -0.0217,-1.14267 -0.54851,-3.38676 -1.6875,-3.34375 z"
         style="fill:#ffffff;fill-rule:evenodd;stroke:#000000;stroke-width:1.5;stroke-linecap:butt;stroke-linejoin:miter;stroke-miterlimit:4;stroke-opacity:1;stroke-dasharray:none" />
      <path
         id="path3846"
         d="m 239.35814,124.625 c -0.41849,0.021 -0.9715,0.13935 -1.53125,0.3125 0.53542,0.72071 0.82868,2.02063 0.84375,2.8125 0.006,0.33278 -0.0261,0.76054 -0.0937,1.21875 0.66598,0.12574 1.34788,0.38797 1.78125,0.8125 1.06366,-0.50212 1.76362,-1.17412 1.75,-2.15625 -0.017,-1.22494 -1.06763,-2.58594 -2.21875,-2.9375 -0.14279,-0.0436 -0.32201,-0.073 -0.53125,-0.0625 z"
         style="fill:#ffffff;fill-rule:evenodd;stroke:#000000;stroke-width:1.5;stroke-linecap:butt;stroke-linejoin:miter;stroke-miterlimit:4;stroke-opacity:1;stroke-dasharray:none" />
      <path
         id="path3839"
         d="m 236.10814,125.625 c -0.78485,0.35397 -1.44414,0.70636 -1.71875,0.96875 -0.72804,0.69566 -1.44644,2.07748 -0.59375,3.0625 0.23763,0.27451 0.68863,0.45724 1.21875,0.59375 0.30599,-0.38734 0.71517,-0.68201 1.15625,-0.90625 -0.0502,-0.5233 -0.0842,-1.04771 -0.0937,-1.4375 -0.0146,-0.59887 -0.0787,-1.52524 0.0312,-2.28125 z"
         style="fill:#ffffff;fill-rule:evenodd;stroke:#000000;stroke-width:1.5;stroke-linecap:butt;stroke-linejoin:miter;stroke-miterlimit:4;stroke-opacity:1;stroke-dasharray:none" />
      <path
         id="path3861"
         d="m 237.32689,120.78125 c -1.21512,1.58047 -3.15958,3.01338 -4.375,2.71875 -0.16858,-0.0409 -0.30036,-0.10907 -0.4375,-0.1875 -0.41687,1.02216 -0.23474,2.34616 0.0937,3.09375 0.24363,0.55443 0.53415,0.98027 1.03125,1.3125 0.18768,-0.44063 0.45187,-0.84013 0.75,-1.125 0.27461,-0.26239 0.9339,-0.61478 1.71875,-0.96875 -0.006,0.0393 0.005,0.0848 0,0.125 0.0876,-0.72881 0.3055,-1.32225 0.875,-1.34375 0.34967,-0.0132 0.63763,0.21139 0.875,0.53125 0.54944,-0.1681 1.08901,-0.29185 1.5,-0.3125 0.20924,-0.0105 0.38846,0.0189 0.53125,0.0625 0.35972,0.10986 0.71963,0.32169 1.03125,0.59375 0.0998,-0.66095 0.0374,-1.3403 -0.1875,-1.90625 -0.43165,-1.08636 -2.05111,-2.28262 -3.40625,-2.59375 z"
         style="fill:#ffffff;fill-rule:evenodd;stroke:#000000;stroke-width:1.5;stroke-linecap:butt;stroke-linejoin:miter;stroke-miterlimit:4;stroke-opacity:1;stroke-dasharray:none" />
      <path
         id="path3887"
         d="m 231.98314,122.84375 c -0.65737,1.22075 -2.06523,2.8874 -3.59375,4.0625 -0.0373,0.55866 -2.5e-4,1.06885 0.15625,1.46875 0.51956,1.32755 0.97376,1.87496 2.15625,1.78125 1.07053,-0.0848 2.15774,-1.30685 2.71875,-2.625 -0.3639,-0.30457 -0.60837,-0.66046 -0.8125,-1.125 -0.32849,-0.74759 -0.51062,-2.07159 -0.0937,-3.09375 -0.20927,-0.11969 -0.38544,-0.27919 -0.53125,-0.46875 z"
         style="fill:#ffffff;fill-rule:evenodd;stroke:#000000;stroke-width:1.5;stroke-linecap:butt;stroke-linejoin:miter;stroke-miterlimit:4;stroke-opacity:1;stroke-dasharray:none" />
      <path
         sodipodi:nodetypes="czzzz"
         id="path3898"
         d="m 237.49906,133.634 c -1.20353,0.0986 -2.87636,-0.33062 -2.97554,-1.95064 -0.1012,-1.65296 1.75355,-2.60336 2.90942,-2.77717 1.15587,-0.17381 3.19926,0.45885 3.37228,1.68614 0.17302,1.22729 -2.10263,2.94307 -3.30616,3.04167 z"
         style="fill:#ffffff;fill-rule:evenodd;stroke:#000000;stroke-width:1.5;stroke-linecap:butt;stroke-linejoin:miter;stroke-miterlimit:4;stroke-opacity:1;stroke-dasharray:none" />
      <path
         id="path3935"
         d="m 233.20189,127.9375 c -0.59578,1.15009 -1.54272,2.14289 -2.5,2.21875 -0.0796,0.006 -0.14552,-4.6e-4 -0.21875,0 -0.077,0.47485 -0.11799,1.00573 -0.0625,1.625 0.1601,1.78662 1.93339,2.71052 3,2.96875 1.0666,0.25823 2.43011,-0.21661 2.96875,-0.90625 0.0584,-0.0748 0.0813,-0.16484 0.125,-0.25 -0.97243,-0.1613 -1.92636,-0.70346 -2,-1.90625 -0.0345,-0.563 0.18235,-1.04077 0.5,-1.4375 -0.53012,-0.13651 -0.98112,-0.31924 -1.21875,-0.59375 -0.44226,-0.5109 -0.43516,-1.11422 -0.25,-1.6875 -0.11159,-0.0257 -0.22907,-0.0155 -0.34375,-0.0312 z"
         style="fill:#ffffff;fill-rule:evenodd;stroke:#000000;stroke-width:1.5;stroke-linecap:butt;stroke-linejoin:miter;stroke-miterlimit:4;stroke-opacity:1;stroke-dasharray:none" />
      <path
         style="fill:#ffffff;fill-opacity:1;stroke:#000000;stroke-width:1.5;stroke-linecap:square;stroke-linejoin:round;stroke-miterlimit:4;stroke-opacity:1;stroke-dasharray:none"
         d="m 227.32689,112.59375 c -2.38047,0 -4.31251,2.02377 -4.3125,4.53125 0,2.50748 1.93203,4.53125 4.3125,4.53125 1.72185,0 3.18386,-1.05565 3.875,-2.59375 -4.9e-4,-0.0183 5.2e-4,-0.0446 0,-0.0625 -0.0195,-0.67635 0.16349,-1.52011 0.40625,-2.3125 -0.21338,-2.29793 -2.04396,-4.09375 -4.28125,-4.09375 z"
         id="path3320" />
      <path
         sodipodi:nodetypes="czzzz"
         id="path3285"
         d="m 221.54447,111.5421 c 1.87699,-0.17304 4.00874,3.45345 4.05781,5.43829 0.0491,1.98484 -1.67779,5.44931 -3.59764,5.35463 -1.91985,-0.0947 -2.9793,-3.78424 -3.01198,-5.60563 -0.0327,-1.82139 0.67482,-5.01425 2.55181,-5.18729 z"
         style="fill:#ffffff;fill-rule:evenodd;stroke:#000000;stroke-width:1.5;stroke-linecap:butt;stroke-linejoin:miter;stroke-miterlimit:4;stroke-opacity:1;stroke-dasharray:none" />
      <path
         id="path3287"
         d="m 226.13939,108.3125 c -1.2268,-0.0392 -3.48462,0.92773 -4.1875,2.34375 -0.12188,0.24553 -0.16134,0.57617 -0.21875,0.90625 1.8268,0.0786 3.82761,3.48954 3.875,5.40625 0.005,0.20067 -0.0328,0.43054 -0.0625,0.65625 0.6484,0.036 1.27958,-0.092 1.84375,-0.46875 1.48142,-0.98925 2.19027,-5.53376 1.59375,-7 -0.59651,-1.46624 -1.61694,-1.80459 -2.84375,-1.84375 z"
         style="fill:#ffffff;fill-rule:evenodd;stroke:#000000;stroke-width:1.5;stroke-linecap:butt;stroke-linejoin:miter;stroke-miterlimit:4;stroke-opacity:1;stroke-dasharray:none" />
      <path
         id="path3292"
         d="m 231.04564,108.03125 c -0.91048,0.0559 -1.94909,0.42927 -2.8125,1 0.28953,0.26977 0.54868,0.63014 0.75,1.125 0.5365,1.31872 0.0315,5.12101 -1.15625,6.59375 0.29919,0.42303 0.64447,0.75693 0.96875,0.96875 0.72006,0.47034 1.60031,0.58305 2.46875,0.5 0.15607,-1.35773 0.73755,-2.98989 1.40625,-3.75 0.80057,-0.91001 1.6428,-1.88702 3,-1.40625 0.1105,0.0391 0.22926,0.1147 0.34375,0.1875 0.007,-0.22153 0.004,-0.44588 -0.0312,-0.65625 -0.27847,-1.68293 -2.40476,-4.25177 -4.21875,-4.53125 -0.22675,-0.0349 -0.46839,-0.0466 -0.71875,-0.0312 z"
         style="fill:#ffffff;fill-rule:evenodd;stroke:#000000;stroke-width:1.5;stroke-linecap:butt;stroke-linejoin:miter;stroke-miterlimit:4;stroke-opacity:1;stroke-dasharray:none" />
      <path
         id="path3297"
         d="m 231.20189,119 c -0.67294,1.56823 -2.13246,2.65625 -3.875,2.65625 -1.10164,0 -2.09086,-0.43901 -2.84375,-1.15625 -0.66122,1.06506 -1.53088,1.89 -2.46875,1.84375 -0.0697,-0.003 -0.1513,-0.0186 -0.21875,-0.0312 0.0842,2.3718 0.91395,5.32251 2.8125,5.90625 2.37842,0.73128 6.15829,-3.11555 7.375,-5.375 -0.75911,-0.98693 -0.74985,-2.752 -0.78125,-3.8438 z"
         style="fill:#ffffff;fill-rule:evenodd;stroke:#000000;stroke-width:1.5;stroke-linecap:butt;stroke-linejoin:miter;stroke-miterlimit:4;stroke-opacity:1;stroke-dasharray:none" />
      <path
         sodipodi:nodetypes="czzzzz"
         id="path3306"
         d="m 231.20791,118.98838 c -0.0414,-1.43894 0.66359,-3.60796 1.46416,-4.51797 0.80057,-0.91001 1.65478,-1.90309 3.01198,-1.42232 1.3572,0.48077 3.12015,3.65816 2.71915,5.64746 -0.401,1.9893 -3.67317,5.23869 -5.4383,4.8108 -1.76513,-0.42789 -1.71561,-3.07903 -1.75699,-4.51797 z"
         style="fill:#ffffff;fill-rule:evenodd;stroke:#000000;stroke-width:1.5;stroke-linecap:butt;stroke-linejoin:miter;stroke-miterlimit:4;stroke-opacity:1;stroke-dasharray:none" />
      <path
         id="path3322"
         d="m 227.32689,112.59375 c -2.38047,0 -4.31251,2.02377 -4.3125,4.53125 0,2.50748 1.93203,4.53125 4.3125,4.53125 1.72185,0 3.18386,-1.05565 3.875,-2.59375 -4.9e-4,-0.0183 5.2e-4,-0.0446 0,-0.0625 -0.0195,-0.67635 0.16349,-1.52011 0.40625,-2.3125 -0.21338,-2.29793 -2.04396,-4.09375 -4.28125,-4.09375 z"
         style="fill:none;stroke:#000000;stroke-width:1.5;stroke-linecap:square;stroke-linejoin:round;stroke-miterlimit:4;stroke-opacity:1;stroke-dasharray:none" />
      <path
         sodipodi:nodetypes="czzzz"
         id="path4151"
         d="m 205.35589,65.693748 c 5.5e-4,-1.126925 0.97467,-1.959508 2.16891,-1.917451 1.19425,0.04206 2.63662,1.807743 2.51469,2.954761 -0.12193,1.147018 -1.02338,1.617456 -2.10605,1.540247 -1.08267,-0.07721 -2.57811,-1.450633 -2.57755,-2.577557 z"
         style="fill:#ffffff;fill-rule:evenodd;stroke:#000000;stroke-width:1.5;stroke-linecap:butt;stroke-linejoin:miter;stroke-miterlimit:4;stroke-opacity:1;stroke-dasharray:none" />
      <path
         id="path4153"
         d="m 209.375,61.53125 c -0.72159,-0.05407 -1.47395,0.183152 -1.90625,0.6875 -0.30879,0.360247 -0.48354,0.975271 -0.5,1.625 0.18032,-0.03741 0.36709,-0.06938 0.5625,-0.0625 1.19425,0.04205 2.62193,1.790482 2.5,2.9375 -0.0288,0.271042 -0.0795,0.521565 -0.1875,0.71875 0.44814,0.165967 0.86314,0.241592 1.1875,0.125 1.06246,-0.381899 1.38917,-1.552454 1.1875,-3.03125 -0.2022,-1.48268 -1.28224,-2.542511 -2.15625,-2.875 -0.2185,-0.08312 -0.44697,-0.106976 -0.6875,-0.125 z"
         style="fill:#ffffff;fill-rule:evenodd;stroke:#000000;stroke-width:1.5;stroke-linecap:butt;stroke-linejoin:miter;stroke-miterlimit:4;stroke-opacity:1;stroke-dasharray:none" />
      <path
         id="path4158"
         d="m 205.375,65.53125 c -0.3865,0.0232 -0.75952,0.130383 -1.09375,0.28125 -0.70464,0.318068 -1.84516,0.972866 -1.78125,2 0.0639,1.02713 2.01619,2.290235 3.15625,2.71875 1.14005,0.428518 3.26126,0.550218 3.9375,0.03125 0.67623,-0.518972 0.69703,-0.787365 0.4375,-1.6875 -0.0761,-0.263787 -0.3154,-0.608729 -0.625,-0.96875 -0.38354,0.289754 -0.89149,0.416167 -1.46875,0.375 -1.08267,-0.07721 -2.59431,-1.466826 -2.59375,-2.59375 3e-5,-0.05455 0.0267,-0.103141 0.0312,-0.15625 z"
         style="fill:#ffffff;fill-rule:evenodd;stroke:#000000;stroke-width:1.5;stroke-linecap:butt;stroke-linejoin:miter;stroke-miterlimit:4;stroke-opacity:1;stroke-dasharray:none" />
      <path
         id="path4295"
         d="m 219.0625,67.46875 c -0.0465,0.12857 -0.10315,0.26386 -0.15625,0.375 -0.37079,0.776063 -1.04602,1.65537 -1.9375,1.9375 0.34039,1.327077 0.3078,3.153449 0.3125,4.25 2.8e-4,0.06576 -6.6e-4,0.150454 0,0.21875 0.68455,-0.06141 1.34027,-0.301227 1.84375,-0.65625 1.02152,-0.720318 1.68205,-2.469823 1.4375,-3.71875 -0.1706,-0.871295 -0.66919,-1.809804 -1.5,-2.40625 z"
         style="fill:#ffffff;fill-rule:evenodd;stroke:#000000;stroke-width:1.5;stroke-linecap:butt;stroke-linejoin:miter;stroke-miterlimit:4;stroke-opacity:1;stroke-dasharray:none" />
      <path
         id="path4176"
         d="m 206.625,60.0625 c -1.55462,-0.110067 -5.00102,3.356977 -4.96875,4.9375 0.0183,0.897739 0.50825,1.518539 1.125,1.90625 0.37215,-0.518047 1.0324,-0.882679 1.5,-1.09375 0.3252,-0.14679 0.68717,-0.254287 1.0625,-0.28125 0.0104,-7.49e-4 0.0208,6.27e-4 0.0312,0 0.0745,-0.862665 0.72091,-1.509668 1.59375,-1.6875 0.0165,-0.649729 0.19121,-1.264753 0.5,-1.625 0.23564,-0.274911 0.56849,-0.481486 0.9375,-0.59375 -0.26222,-0.761805 -0.76829,-1.490781 -1.78125,-1.5625 z"
         style="fill:#ffffff;fill-rule:evenodd;stroke:#000000;stroke-width:1.5;stroke-linecap:butt;stroke-linejoin:miter;stroke-miterlimit:4;stroke-opacity:1;stroke-dasharray:none" />
      <path
         id="path4178"
         d="m 212.1875,66.1875 c -0.16108,0.660738 -0.53857,1.152976 -1.15625,1.375 -0.32436,0.116592 -0.73936,0.04097 -1.1875,-0.125 0.054,-0.09859 0.0952,-0.222591 0.125,-0.34375 -0.10575,0.348612 -0.31279,0.618357 -0.5625,0.8125 0.3096,0.360021 0.54894,0.704963 0.625,0.96875 0.25953,0.900135 0.23873,1.168528 -0.4375,1.6875 0.33896,0.13596 0.66217,0.271064 0.96875,0.3125 0.83617,0.11301 2.02967,-0.116902 2.71875,-0.65625 0.68908,-0.53935 1.77923,-1.656923 1.40625,-2.6875 -0.24603,-0.679794 -1.42536,-1.08138 -2.5,-1.34375 z"
         style="fill:#ffffff;fill-rule:evenodd;stroke:#000000;stroke-width:1.5;stroke-linecap:butt;stroke-linejoin:miter;stroke-miterlimit:4;stroke-opacity:1;stroke-dasharray:none" />
      <path
         id="path4189"
         d="m 210.8125,61.90625 c -0.0686,0.0045 -0.12477,0.02067 -0.1875,0.03125 0.7284,0.489993 1.43244,1.410877 1.59375,2.59375 0.0844,0.619071 0.0847,1.180465 -0.0312,1.65625 0.76289,0.186257 1.56545,0.436199 2.0625,0.8125 0.25981,-0.496002 0.46183,-1.05338 0.46875,-1.5 0.0152,-0.982729 -0.66294,-2.476978 -1.5,-3 -0.52317,-0.326889 -1.63949,-0.643547 -2.40625,-0.59375 z m 1.28125,4.5625 c -0.0473,0.131306 -0.0888,0.230521 -0.15625,0.34375 0.0677,-0.106747 0.10824,-0.219961 0.15625,-0.34375 z"
         style="fill:#ffffff;fill-rule:evenodd;stroke:#000000;stroke-width:1.5;stroke-linecap:butt;stroke-linejoin:miter;stroke-miterlimit:4;stroke-opacity:1;stroke-dasharray:none" />
      <path
         id="path4197"
         d="m 215.625,61.625 c -0.81307,0.03137 -1.49223,0.636054 -1.875,1.34375 0.58189,0.684879 0.98067,1.761627 0.96875,2.53125 -0.007,0.44662 -0.20894,1.003998 -0.46875,1.5 0.20312,0.153774 0.36613,0.334042 0.4375,0.53125 0.19134,0.5287 -0.0166,1.077824 -0.34375,1.5625 0.70867,0.516319 1.6274,0.856835 2.28125,0.78125 1.07487,-0.124256 1.86218,-1.154148 2.28125,-2.03125 0.41907,-0.877106 0.66879,-2.361296 0.1875,-3.4375 -0.48129,-1.076203 -2.30835,-2.826012 -3.46875,-2.78125 z"
         style="fill:#ffffff;fill-rule:evenodd;stroke:#000000;stroke-width:1.5;stroke-linecap:butt;stroke-linejoin:miter;stroke-miterlimit:4;stroke-opacity:1;stroke-dasharray:none" />
      <path
         id="path4205"
         d="m 202.625,68.25 c -0.60933,0.376147 -1.06702,0.979335 -1.03125,2.03125 0.0452,1.330342 2.62809,3.838809 4.25,4.90625 0.11433,-0.08126 0.24744,-0.190624 0.34375,-0.25 0.58949,-0.363432 1.23296,-0.571339 1.84375,-0.59375 0.61079,-0.02241 1.1998,0.140538 1.71875,0.4375 0.099,0.05667 0.23201,0.145941 0.34375,0.21875 0.7984,-0.350622 1.65116,-0.846987 1.9375,-1.53125 0.28723,-0.68637 0.23106,-1.787852 -0.0937,-2.6875 -0.47942,0.105062 -0.96574,0.149063 -1.375,0.09375 -0.30658,-0.04144 -0.62979,-0.17654 -0.96875,-0.3125 -0.67624,0.518968 -2.79745,0.397268 -3.9375,-0.03125 -0.98501,-0.370237 -2.57541,-1.355462 -3.03125,-2.28125 z"
         style="fill:#ffffff;fill-rule:evenodd;stroke:#000000;stroke-width:1.5;stroke-linecap:butt;stroke-linejoin:miter;stroke-miterlimit:4;stroke-opacity:1;stroke-dasharray:none" />
      <path
         sodipodi:nodetypes="cssssccscc"
         id="path4225"
         d="m 200.46875,69.6875 c -0.0992,0.01595 -0.2188,0.05376 -0.3125,0.09375 -0.74961,0.319881 -1.22983,1.343516 -1.53125,2.40625 -0.30142,1.062735 -0.32232,3.517768 0.0625,4.5 0.38481,0.982231 0.70329,1.557541 1.6875,1.90625 0.62401,0.221089 1.83022,0.07661 2.875,-0.1875 0.4243,-1.427535 1.50848,-2.2932 2.59375,-3.21875 -1.62191,-1.067441 -4.20477,-3.575908 -4.25,-4.90625 -0.005,-0.148511 0.0176,-0.275003 0.0312,-0.40625 -0.39936,-0.137909 -0.79139,-0.246162 -1.15625,-0.1875 z"
         style="fill:#ffffff;fill-rule:evenodd;stroke:#000000;stroke-width:1.5;stroke-linecap:butt;stroke-linejoin:miter;stroke-miterlimit:4;stroke-opacity:1;stroke-dasharray:none" />
      <path
         id="path4251"
         d="m 198.96875,77.34375 c -0.43408,0.686173 -0.59802,1.522603 -0.625,2.15625 -0.0405,0.951746 0.24174,2.151985 1.09375,2.75 0.46881,0.329053 1.31909,0.425947 2.15625,0.40625 0.0189,-0.484427 0.056,-0.941476 0.15625,-1.28125 0.25715,-0.871883 0.5295,-2.003411 1.40625,-2.375 -0.008,-0.19734 0.0105,-0.392448 0.0625,-0.59375 -1.03799,0.259443 -2.22553,0.406539 -2.84375,0.1875 -0.73816,-0.261532 -1.1082,-0.65747 -1.40625,-1.25 z"
         style="fill:#ffffff;fill-rule:evenodd;stroke:#000000;stroke-width:1.5;stroke-linecap:butt;stroke-linejoin:miter;stroke-miterlimit:4;stroke-opacity:1;stroke-dasharray:none" />
      <path
         id="path4253"
         d="m 217.28125,74.25 c -0.70436,0.06319 -1.43998,-0.06155 -2.125,-0.375 -1.02795,-0.470357 -2.37723,-1.811166 -2.75,-3.21875 -0.15522,0.05051 -0.30739,0.08964 -0.46875,0.125 0.32481,0.899648 0.38098,2.00113 0.0937,2.6875 -0.28634,0.684263 -1.1391,1.180628 -1.9375,1.53125 0.2912,0.189745 0.57571,0.426793 0.875,0.71875 0.006,0.0059 0.0252,-0.006 0.0312,0 0.14377,-0.01434 0.28187,-0.03197 0.4375,-0.03125 0.92701,0.0043 1.97304,0.290892 2.59375,1 0.26959,0.307986 0.47087,0.762301 0.59375,1.28125 0.41459,-0.236446 0.88294,-0.409712 1.34375,-0.4375 0.32735,-0.01974 0.67298,0.01952 0.96875,0.125 0.041,0.01461 0.0847,0.0434 0.125,0.0625 0.27787,-1.021858 0.22927,-2.385775 0.21875,-3.46875 z"
         style="fill:#ffffff;fill-rule:evenodd;stroke:#000000;stroke-width:1.5;stroke-linecap:butt;stroke-linejoin:miter;stroke-miterlimit:4;stroke-opacity:1;stroke-dasharray:none" />
      <path
         id="path4287"
         d="m 214.34375,69.09375 c -0.31051,0.460087 -0.72693,0.862344 -1.0625,1.125 -0.088,0.06884 -0.17785,0.13042 -0.28125,0.1875 -0.0412,0.0227 -0.0818,0.0415 -0.125,0.0625 -0.0681,0.03338 -0.14646,0.0646 -0.21875,0.09375 -0.0828,0.03361 -0.16373,0.0643 -0.25,0.09375 0.37277,1.407584 1.72205,2.748393 2.75,3.21875 0.68502,0.313445 1.42064,0.438186 2.125,0.375 -6.6e-4,-0.0683 2.8e-4,-0.152994 0,-0.21875 -0.005,-1.096551 0.0279,-2.922923 -0.3125,-4.25 -0.11607,0.03673 -0.21993,0.07944 -0.34375,0.09375 -0.32693,0.03779 -0.725,-0.01603 -1.125,-0.15625 -0.2,-0.07011 -0.39775,-0.1779 -0.59375,-0.28125 -0.196,-0.10335 -0.38533,-0.21467 -0.5625,-0.34375 z"
         style="fill:#ffffff;fill-rule:evenodd;stroke:#000000;stroke-width:1.5;stroke-linecap:butt;stroke-linejoin:miter;stroke-miterlimit:4;stroke-opacity:1;stroke-dasharray:none" />
      <path
         id="path4297"
         d="m 219,64.25 c 0.0271,0.05116 0.072,0.107614 0.0937,0.15625 0.4203,0.939836 0.28936,2.176412 -0.0312,3.0625 0.83081,0.596446 1.3294,1.534955 1.5,2.40625 0.0702,0.358333 0.066,0.751633 0,1.15625 0.64726,0.08612 1.30642,0.04052 1.90625,-0.21875 1.00505,-0.434416 2.63065,-2.093848 2.6875,-3.09375 0.0568,-0.9999 -0.33506,-1.412421 -1.4375,-2.125 C 222.90223,65.065978 220.62952,64.305792 219,64.25 z"
         style="fill:#ffffff;fill-rule:evenodd;stroke:#000000;stroke-width:1.5;stroke-linecap:butt;stroke-linejoin:miter;stroke-miterlimit:4;stroke-opacity:1;stroke-dasharray:none" />
      <path
         id="path4305"
         d="m 219.65625,61.75 c -0.21698,0.01579 -0.42586,0.0556 -0.59375,0.09375 -0.6274,0.14255 -1.15167,0.376254 -1.5625,0.65625 0.64941,0.531266 1.21048,1.202509 1.5,1.75 1.62952,0.05579 3.90223,0.815978 4.71875,1.34375 0.21676,0.140108 0.36743,0.282596 0.53125,0.40625 0.41415,-0.859255 0.48346,-1.85086 0.0312,-2.65625 -0.58813,-1.047458 -2.46485,-1.548482 -3.9375,-1.59375 -0.24544,-0.0075 -0.47052,-0.01579 -0.6875,0 z m -0.40625,5 c -0.054,0.25496 -0.13792,0.49708 -0.21875,0.71875 0.009,0.0031 0.0218,-0.003 0.0312,0 0.0802,-0.221522 0.13671,-0.46353 0.1875,-0.71875 z"
         style="fill:#ffffff;fill-rule:evenodd;stroke:#000000;stroke-width:1.5;stroke-linecap:butt;stroke-linejoin:miter;stroke-miterlimit:4;stroke-opacity:1;stroke-dasharray:none" />
      <path
         id="path4313"
         d="m 222.34375,70.84375 c -0.56777,0.216768 -1.17606,0.268018 -1.78125,0.1875 -0.16402,1.005626 -0.70907,2.04885 -1.4375,2.5625 -0.50348,0.355023 -1.1592,0.594841 -1.84375,0.65625 0.009,0.90647 0.0266,2.002711 -0.125,2.9375 0.51658,0.183585 1.16834,0.200465 2.09375,-0.09375 1.97386,-0.627553 2.80019,-2.65014 3.03125,-3.9375 0.13417,-0.747562 0.13528,-1.561731 0.0625,-2.3125 z"
         style="fill:#ffffff;fill-rule:evenodd;stroke:#000000;stroke-width:1.5;stroke-linecap:butt;stroke-linejoin:miter;stroke-miterlimit:4;stroke-opacity:1;stroke-dasharray:none" />
      <path
         id="path4449"
         d="m 250,145.6035 0,24.459 6,0 0,-24.459 -6,0 z"
         style="fill:#000000;fill-opacity:1;stroke:none" />
      <path
         id="path4476"
         d="m 268.9375,126.8025 -7.4375,10.71875 0,25.21875 13.5,0 0,-35.9375 -6.0625,0 z"
         style="fill:#000000;fill-opacity:1;stroke:none" />
      <path
         id="path4491"
         d="m 94,172.125 0,27.34375 6,0 0,-27.34375 -6,0 z"
         style="fill:#000000;fill-opacity:1;stroke:none" />
      <path
         sodipodi:nodetypes="ccsscsscscsssssssc"
         style="fill:#ffffff;fill-rule:evenodd;stroke:none"
         d="m 230.73314,167.8125 c 0.29705,-1.20811 -0.9298,3.62035 0.5,-1.9375 1.4298,-5.55785 3.45251,-12.92442 3.25,-15.46875 -0.27731,-3.48398 -5.17266,-9.07594 -7.84375,-9.84375 -2.7422,-0.78826 -8.15503,1.21739 -10.21875,1.28125 1.3207,-2.32062 3.83138,-6.72084 4.375,-8.90625 0.53056,-2.13292 0.46429,-4.15381 0,-5.84375 -0.4643,-1.68994 -1.86713,-4.12601 -4.21875,-5.25 0.9559,2.11741 2.19449,3.5123 2.375,7.25 0.18422,3.81445 -5.47704,12.57765 -7.875,16.375 1.90947,-0.36033 3.59074,-0.64729 5.71875,-1.0625 2.11225,-0.41214 7.14337,-1.99799 8.9375,-1.46875 1.70181,0.50201 6.10039,5.12694 6.21875,7.90625 0.13144,3.08645 -2.96216,13.43727 -4.21875,19 -1.25297,5.54668 0.12118,15.71874 0.125,21.71875 0.004,6.09389 8.83747,2.73884 5.5,-4 -3.36803,-6.80053 -4.12785,-11.98493 -3.3125,-16.625 0.1409,-0.80186 0.39045,-1.91689 0.6875,-3.125 z"
         id="path3037" />
      <path
         sodipodi:nodetypes="czzzzcc"
         id="path3039"
         d="m 240.29352,132.59934 c -0.007,0.66739 0.31496,1.40193 0.68984,1.88556 0.37487,0.48363 1.27081,0.53863 1.47165,1.10375 0.20084,0.56511 0.11351,1.33445 -0.55187,1.56363 -0.66538,0.22917 -2.18051,-0.33858 -2.80534,-1.05776 -0.62483,-0.71917 -1.14217,-1.88657 -0.8738,-2.43743 0.45234,-0.091 1.43298,-0.62139 2.06952,-1.05775 z"
         style="fill:#ffffff;stroke:#000000;stroke-width:1px;stroke-linecap:butt;stroke-linejoin:miter;stroke-opacity:1" />
      <path
         sodipodi:nodetypes="cc"
         id="path3041"
         d="m 221.05385,88.861418 0.65157,-1.643101"
         style="fill:none;stroke:#000000;stroke-width:1px;stroke-linecap:round;stroke-linejoin:round;stroke-opacity:1" />
      <path
         transform="translate(0.96356552,1.3918168)"
         d="m 218.83643,107.78652 a 2.6587272,2.6051958 0 1 1 -5.31745,0 2.6587272,2.6051958 0 1 1 5.31745,0 z"
         sodipodi:ry="2.6051958"
         sodipodi:rx="2.6587272"
         sodipodi:cy="107.78652"
         sodipodi:cx="216.1777"
         id="path3815"
         style="fill:#ffffff;fill-opacity:1;stroke:#000000;stroke-width:1.5;stroke-linecap:round;stroke-linejoin:round;stroke-miterlimit:4;stroke-opacity:1;stroke-dasharray:none"
         sodipodi:type="arc" />
    </g>
  </g>
</svg>
