<?xml version="1.0" encoding="UTF-8" standalone="no"?>
<!-- Created with Inkscape (http://www.inkscape.org/) -->
<svg
   xmlns:dc="http://purl.org/dc/elements/1.1/"
   xmlns:cc="http://creativecommons.org/ns#"
   xmlns:rdf="http://www.w3.org/1999/02/22-rdf-syntax-ns#"
   xmlns:svg="http://www.w3.org/2000/svg"
   xmlns="http://www.w3.org/2000/svg"
   xmlns:sodipodi="http://sodipodi.sourceforge.net/DTD/sodipodi-0.dtd"
   xmlns:inkscape="http://www.inkscape.org/namespaces/inkscape"
   width="300"
   height="300"
   id="svg2"
   sodipodi:version="0.32"
   inkscape:version="0.46"
   version="1.0"
   sodipodi:docname="Cotl-icon.svg"
   inkscape:output_extension="org.inkscape.output.svg.inkscape">
  <defs
     id="defs4">
    <inkscape:perspective
       sodipodi:type="inkscape:persp3d"
       inkscape:vp_x="0 : 526.18109 : 1"
       inkscape:vp_y="0 : 1000 : 0"
       inkscape:vp_z="744.09448 : 526.18109 : 1"
       inkscape:persp3d-origin="372.04724 : 350.78739 : 1"
       id="perspective10" />
    <inkscape:perspective
       id="perspective3217"
       inkscape:persp3d-origin="372.04724 : 350.78739 : 1"
       inkscape:vp_z="744.09448 : 526.18109 : 1"
       inkscape:vp_y="0 : 1000 : 0"
       inkscape:vp_x="0 : 526.18109 : 1"
       sodipodi:type="inkscape:persp3d" />
    <clipPath
       clipPathUnits="userSpaceOnUse"
       id="clipPath3225">
      <rect
         style="opacity:1;fill:none;fill-opacity:1;stroke:#000000;stroke-width:2.79950619;stroke-linecap:round;stroke-linejoin:round;stroke-miterlimit:4;stroke-dasharray:none;stroke-opacity:1"
         id="rect3227"
         width="238.3007"
         height="243.07271"
         x="5.4519796"
         y="10.754208" />
    </clipPath>
  </defs>
  <sodipodi:namedview
     id="base"
     pagecolor="#ffffff"
     bordercolor="#666666"
     borderopacity="1.0"
     gridtolerance="10000"
     guidetolerance="10"
     objecttolerance="10"
     inkscape:pageopacity="0.0"
     inkscape:pageshadow="2"
     inkscape:zoom="3.1433333"
     inkscape:cx="111.98303"
     inkscape:cy="150"
     inkscape:document-units="px"
     inkscape:current-layer="layer1"
     showgrid="false"
     showguides="true"
     inkscape:guide-bbox="true"
     inkscape:window-width="1904"
     inkscape:window-height="1150"
     inkscape:window-x="0"
     inkscape:window-y="14" />
  <metadata
     id="metadata7">
    <rdf:RDF>
      <cc:Work
         rdf:about="">
        <dc:format>image/svg+xml</dc:format>
        <dc:type
           rdf:resource="http://purl.org/dc/dcmitype/StillImage" />
      </cc:Work>
    </rdf:RDF>
  </metadata>
  <g
     inkscape:label="Layer 1"
     inkscape:groupmode="layer"
     id="layer1">
    <g
       id="g2744">
      <path
         id="path3639"
         d="M 136.5,75.96875 L 136.9375,93.71875 C 128.9862,95.559969 121.66326,99.063077 115.34375,103.8125 L 101.28125,92.625 L 110.5625,107.8125 C 104.7427,113.25432 100.05595,119.88155 96.875,127.3125 L 79.125,124.65625 L 94.71875,133.15625 C 93.096733,138.48386 92.21875,144.14403 92.21875,150 C 92.21875,152.34029 92.385399,154.63855 92.65625,156.90625 L 75.96875,163.5 L 93.71875,163.0625 C 95.559969,171.0138 99.063077,178.33673 103.8125,184.65625 L 92.625,198.71875 L 107.8125,189.4375 C 113.25432,195.2573 119.88156,199.94404 127.3125,203.125 L 124.65625,220.875 L 133.15625,205.28125 C 138.48386,206.90327 144.14403,207.78125 150,207.78125 C 152.3403,207.78125 154.63855,207.6146 156.90625,207.34375 L 163.5,224.03125 L 163.0625,206.28125 C 171.0138,204.44003 178.33673,200.93692 184.65625,196.1875 L 198.71875,207.375 L 189.4375,192.1875 C 195.2573,186.74568 199.94404,180.11844 203.125,172.6875 L 220.875,175.34375 L 205.28125,166.84375 C 206.90327,161.51614 207.78125,155.85597 207.78125,150 C 207.78125,147.6597 207.6146,145.36145 207.34375,143.09375 L 224.03125,136.5 L 206.28125,136.9375 C 204.44003,128.9862 200.93692,121.66327 196.1875,115.34375 L 207.375,101.28125 L 192.1875,110.5625 C 186.74568,104.7427 180.11845,100.05595 172.6875,96.875 L 175.34375,79.125 L 166.84375,94.71875 C 161.51614,93.096733 155.85597,92.21875 150,92.21875 C 147.65971,92.21875 145.36145,92.385399 143.09375,92.65625 L 136.5,75.96875 z"
         style="fill:#000000;fill-opacity:1;stroke:#000000;stroke-width:2;stroke-linecap:round;stroke-linejoin:round;stroke-miterlimit:4;stroke-opacity:1" />
      <path
         id="path3531"
         d="M 130.33285,107.50977 L 117.71541,116.86315 L 97.70215,76.554417 L 130.33285,107.50977 z"
         style="fill:#ffffff;fill-opacity:1;stroke:#000000;stroke-width:2.00000024;stroke-linecap:round;stroke-linejoin:round;stroke-miterlimit:4;stroke-opacity:1" />
      <path
         id="path3533"
         d="M 111.72264,123.03597 L 105.4723,137.44495 L 67.985936,112.5432 L 111.72264,123.03597 z"
         style="fill:#ffffff;fill-opacity:1;stroke:#000000;stroke-width:2;stroke-linecap:round;stroke-linejoin:round;stroke-miterlimit:4;stroke-opacity:1" />
      <path
         id="path3535"
         d="M 103.36881,145.78716 L 105.16035,161.39087 L 60.245328,158.5685 L 103.36881,145.78716 z"
         style="fill:#ffffff;fill-opacity:1;stroke:#000000;stroke-width:2.00000024;stroke-linecap:round;stroke-linejoin:round;stroke-miterlimit:4;stroke-opacity:1" />
      <path
         id="path3537"
         d="M 107.50976,169.66719 L 116.86314,182.28463 L 76.554407,202.29789 L 107.50976,169.66719 z"
         style="fill:#ffffff;fill-opacity:1;stroke:#000000;stroke-width:2.00000024;stroke-linecap:round;stroke-linejoin:round;stroke-miterlimit:4;stroke-opacity:1" />
      <path
         id="path3539"
         d="M 123.03596,188.27741 L 137.44494,194.52775 L 112.54319,232.01411 L 123.03596,188.27741 z"
         style="fill:#ffffff;fill-opacity:1;stroke:#000000;stroke-width:2;stroke-linecap:round;stroke-linejoin:round;stroke-miterlimit:4;stroke-opacity:1" />
      <path
         id="path3541"
         d="M 145.78714,196.63125 L 161.39085,194.83971 L 158.56848,239.75473 L 145.78714,196.63125 z"
         style="fill:#ffffff;fill-opacity:1;stroke:#000000;stroke-width:2.00000024;stroke-linecap:round;stroke-linejoin:round;stroke-miterlimit:4;stroke-opacity:1" />
      <path
         id="path3543"
         d="M 169.66717,192.49031 L 182.28461,183.13693 L 202.29787,223.44566 L 169.66717,192.49031 z"
         style="fill:#ffffff;fill-opacity:1;stroke:#000000;stroke-width:2.00000024;stroke-linecap:round;stroke-linejoin:round;stroke-miterlimit:4;stroke-opacity:1" />
      <path
         id="path3545"
         d="M 188.27741,176.9641 L 194.52775,162.55512 L 232.01411,187.45687 L 188.27741,176.9641 z"
         style="fill:#ffffff;fill-opacity:1;stroke:#000000;stroke-width:2;stroke-linecap:round;stroke-linejoin:round;stroke-miterlimit:4;stroke-opacity:1" />
      <path
         id="path3547"
         d="M 196.63124,154.21292 L 194.8397,138.60921 L 239.75472,141.43158 L 196.63124,154.21292 z"
         style="fill:#ffffff;fill-opacity:1;stroke:#000000;stroke-width:2.00000024;stroke-linecap:round;stroke-linejoin:round;stroke-miterlimit:4;stroke-opacity:1" />
      <path
         id="path3549"
         d="M 192.4903,130.33289 L 183.13692,117.71545 L 223.44565,97.702183 L 192.4903,130.33289 z"
         style="fill:#ffffff;fill-opacity:1;stroke:#000000;stroke-width:2.00000024;stroke-linecap:round;stroke-linejoin:round;stroke-miterlimit:4;stroke-opacity:1" />
      <path
         id="path3551"
         d="M 176.96409,111.72266 L 162.55511,105.47232 L 187.45686,67.985955 L 176.96409,111.72266 z"
         style="fill:#ffffff;fill-opacity:1;stroke:#000000;stroke-width:2;stroke-linecap:round;stroke-linejoin:round;stroke-miterlimit:4;stroke-opacity:1" />
      <path
         id="path3553"
         d="M 154.2129,103.36882 L 138.60919,105.16036 L 141.43156,60.24534 L 154.2129,103.36882 z"
         style="fill:#ffffff;fill-opacity:1;stroke:#000000;stroke-width:2.00000024;stroke-linecap:round;stroke-linejoin:round;stroke-miterlimit:4;stroke-opacity:1" />
      <path
         id="path3233"
         d="M 207.99999,150.00003 C 207.99999,182.01602 182.01599,208.00003 149.99999,208.00003 C 117.98399,208.00003 91.999993,182.01602 91.999993,150.00003 C 91.999993,117.98402 117.98399,92.000026 149.99999,92.000026 C 182.01599,92.000026 207.99999,117.98402 207.99999,150.00003 z"
         style="fill:#000000;fill-opacity:1;stroke:none;stroke-width:4.08491182;stroke-linecap:round;stroke-linejoin:round;stroke-miterlimit:4;stroke-opacity:1" />
      <path
         id="path3235"
         d="M 202.49999,150.00003 C 202.49999,178.98002 178.97999,202.50003 149.99999,202.50003 C 121.01999,202.50003 97.499993,178.98002 97.499993,150.00003 C 97.499993,121.02003 121.01999,97.500027 149.99999,97.500027 C 178.97999,97.500027 202.49999,121.02003 202.49999,150.00003 z"
         style="fill:#ffffff;fill-opacity:1;stroke:none;stroke-width:4.08491182;stroke-linecap:round;stroke-linejoin:round;stroke-miterlimit:4;stroke-opacity:1" />
      <path
         id="path3429"
         d="M 146.05143,103.34569 L 130.99587,107.81957 L 125.97596,63.096816 L 146.05143,103.34569 z"
         style="fill:#ffffff;fill-opacity:1;stroke:#000000;stroke-width:2;stroke-linecap:round;stroke-linejoin:round;stroke-miterlimit:4;stroke-opacity:1" />
      <path
         id="path3433"
         d="M 123.25328,111.57047 L 112.45172,122.97274 L 85.742966,86.751652 L 123.25328,111.57047 z"
         style="fill:#ffffff;fill-opacity:1;stroke:#000000;stroke-width:2;stroke-linecap:round;stroke-linejoin:round;stroke-miterlimit:4;stroke-opacity:1" />
      <path
         id="path3437"
         d="M 107.62188,130.09241 L 103.96859,145.36784 L 62.727592,127.35384 L 107.62188,130.09241 z"
         style="fill:#ffffff;fill-opacity:1;stroke:#000000;stroke-width:2;stroke-linecap:round;stroke-linejoin:round;stroke-miterlimit:4;stroke-opacity:1" />
      <path
         id="path3441"
         d="M 103.34565,153.94858 L 107.81953,169.00414 L 63.096778,174.02406 L 103.34565,153.94858 z"
         style="fill:#ffffff;fill-opacity:1;stroke:#000000;stroke-width:2;stroke-linecap:round;stroke-linejoin:round;stroke-miterlimit:4;stroke-opacity:1" />
      <path
         id="path3445"
         d="M 111.57044,176.74675 L 122.97271,187.5483 L 86.751622,214.25706 L 111.57044,176.74675 z"
         style="fill:#ffffff;fill-opacity:1;stroke:#000000;stroke-width:2;stroke-linecap:round;stroke-linejoin:round;stroke-miterlimit:4;stroke-opacity:1" />
      <path
         id="path3449"
         d="M 130.09237,192.37815 L 145.3678,196.03143 L 127.3538,237.27244 L 130.09237,192.37815 z"
         style="fill:#ffffff;fill-opacity:1;stroke:#000000;stroke-width:2;stroke-linecap:round;stroke-linejoin:round;stroke-miterlimit:4;stroke-opacity:1" />
      <path
         id="path3453"
         d="M 153.94854,196.65438 L 169.0041,192.1805 L 174.02402,236.90326 L 153.94854,196.65438 z"
         style="fill:#ffffff;fill-opacity:1;stroke:#000000;stroke-width:2;stroke-linecap:round;stroke-linejoin:round;stroke-miterlimit:4;stroke-opacity:1" />
      <path
         id="path3457"
         d="M 176.74672,188.4296 L 187.54827,177.02733 L 214.25703,213.24842 L 176.74672,188.4296 z"
         style="fill:#ffffff;fill-opacity:1;stroke:#000000;stroke-width:2;stroke-linecap:round;stroke-linejoin:round;stroke-miterlimit:4;stroke-opacity:1" />
      <path
         id="path3461"
         d="M 192.37812,169.90766 L 196.0314,154.63223 L 237.27241,172.64623 L 192.37812,169.90766 z"
         style="fill:#ffffff;fill-opacity:1;stroke:#000000;stroke-width:2;stroke-linecap:round;stroke-linejoin:round;stroke-miterlimit:4;stroke-opacity:1" />
      <path
         id="path3465"
         d="M 196.65435,146.05149 L 192.18047,130.99593 L 236.90323,125.97601 L 196.65435,146.05149 z"
         style="fill:#ffffff;fill-opacity:1;stroke:#000000;stroke-width:2;stroke-linecap:round;stroke-linejoin:round;stroke-miterlimit:4;stroke-opacity:1" />
      <path
         id="path3469"
         d="M 188.42957,123.25332 L 177.0273,112.45176 L 213.24839,85.743008 L 188.42957,123.25332 z"
         style="fill:#ffffff;fill-opacity:1;stroke:#000000;stroke-width:2;stroke-linecap:round;stroke-linejoin:round;stroke-miterlimit:4;stroke-opacity:1" />
      <path
         id="path3473"
         d="M 169.90763,107.62191 L 154.6322,103.96863 L 172.6462,62.727627 L 169.90763,107.62191 z"
         style="fill:#ffffff;fill-opacity:1;stroke:#000000;stroke-width:2;stroke-linecap:round;stroke-linejoin:round;stroke-miterlimit:4;stroke-opacity:1" />
      <path
         id="path3231"
         d="M 197.49999,150.00003 C 197.49999,176.22002 176.21999,197.50003 149.99999,197.50003 C 123.77999,197.50003 102.49999,176.22002 102.49999,150.00003 C 102.49999,123.78002 123.77999,102.50002 149.99999,102.50002 C 176.21999,102.50002 197.49999,123.78002 197.49999,150.00003 z"
         style="fill:#000000;fill-opacity:1;stroke:none;stroke-width:4.08491182;stroke-linecap:round;stroke-linejoin:round;stroke-miterlimit:4;stroke-opacity:1" />
      <path
         sodipodi:nodetypes="czzzzzczzzzzzz"
         id="path4022"
         d="M 163.99199,117.97975 C 161.08399,115.48934 159.42392,108.2165 160.05644,102.74798 C 160.6996,97.18755 162.98373,95.737359 163.3428,88.658952 C 163.69716,81.673465 156.91491,77.047478 157.06439,69.864284 C 157.21193,62.774209 159.39402,59.057371 158.93948,53.773274 C 158.48433,48.482031 156.39863,48.282409 155.12186,44.624701 C 153.81607,40.883838 155.00223,38.056352 156.03562,35.235296 C 155.01946,37.724408 153.98571,40.917676 154.70164,44.563258 C 155.42793,48.261603 157.65692,48.136497 157.85127,53.748489 C 158.0424,59.267433 153.71241,66.35697 153.86319,71.672992 C 154.01398,76.989014 158.83789,82.737908 158.71251,88.534073 C 158.58716,94.328972 153.43263,97.958437 152.66103,103.62509 C 151.90189,109.20031 154.7185,116.05716 152.50398,118.98176 C 150.28946,121.90636 166.9,120.47016 163.99199,117.97975 z"
         style="fill:#ffffff;fill-opacity:1;fill-rule:evenodd;stroke:#ffffff;stroke-width:2;stroke-linecap:butt;stroke-linejoin:round;stroke-miterlimit:4;stroke-dasharray:none;stroke-opacity:1" />
      <path
         style="fill:#ffffff;fill-opacity:1;fill-rule:evenodd;stroke:#ffffff;stroke-width:2;stroke-linecap:butt;stroke-linejoin:round;stroke-miterlimit:4;stroke-dasharray:none;stroke-opacity:1"
         d="M 146.10729,115.27366 C 142.34368,114.57091 137.2696,109.10248 135.08312,104.05034 C 132.8599,98.913287 134.11291,96.515319 130.88468,90.205704 C 127.69882,83.978915 119.51222,83.363818 116.05008,77.068249 C 112.63281,70.854294 112.66414,66.544373 109.62845,62.195481 C 106.58866,57.840705 104.68258,58.710677 101.74801,56.181394 C 98.746724,53.594607 98.360226,50.552852 97.84464,47.593051 C 98.209176,50.256765 98.910556,53.539091 101.35336,56.338293 C 103.83152,59.178009 105.69933,57.955169 108.67364,62.718121 C 111.59863,67.402102 111.39352,75.706816 114.18211,80.235236 C 116.97071,84.763651 124.02279,87.330385 126.81229,92.412701 C 129.60118,97.493905 126.95196,103.21438 129.11706,108.50764 C 131.24724,113.7155 137.11492,118.2454 136.65939,121.88544 C 136.20386,125.52547 149.87091,115.97642 146.10729,115.27366 z"
         id="path4024"
         sodipodi:nodetypes="czzzzzczzzzzzz" />
      <path
         sodipodi:nodetypes="czzzzzczzzzzzz"
         id="path4028"
         d="M 129.26564,121.87247 C 125.65489,123.14567 118.52639,120.94691 114.10677,117.66487 C 109.61288,114.32766 109.49903,111.62445 103.5485,107.77428 C 97.676063,103.97465 90.27871,107.53527 84.132624,103.81421 C 78.066204,100.1414 75.938376,96.393243 71.134946,94.144837 C 66.325022,91.893385 65.109295,93.599843 61.303241,92.876705 C 57.410662,92.137122 55.555067,89.696134 53.628656,87.390664 C 55.27621,89.515241 57.524787,92.007128 61.039914,93.209908 C 64.605921,94.430094 65.612072,92.437179 70.569376,95.074861 C 75.444482,97.668813 79.419209,104.96346 84.098408,107.49089 C 88.777614,110.01831 96.168262,108.71513 101.1252,111.72179 C 106.08105,114.7278 106.647,121.00649 111.16866,124.50804 C 115.61738,127.95309 122.96389,128.94225 124.38941,132.32239 C 125.81493,135.70251 132.87641,120.59927 129.26564,121.87247 z"
         style="fill:#ffffff;fill-opacity:1;fill-rule:evenodd;stroke:#ffffff;stroke-width:2;stroke-linecap:butt;stroke-linejoin:round;stroke-miterlimit:4;stroke-dasharray:none;stroke-opacity:1" />
      <path
         style="fill:#ffffff;fill-opacity:1;fill-rule:evenodd;stroke:#ffffff;stroke-width:2;stroke-linecap:butt;stroke-linejoin:round;stroke-miterlimit:4;stroke-dasharray:none;stroke-opacity:1"
         d="M 117.97976,136.00803 C 115.48936,138.91603 108.21652,140.5761 102.74799,139.94358 C 97.187562,139.30041 95.737359,137.01629 88.658964,136.65721 C 81.673472,136.30285 77.047487,143.08511 69.86429,142.93563 C 62.774211,142.78809 59.057378,140.606 53.773283,141.06054 C 48.482041,141.51569 48.28242,143.60138 44.62471,144.87816 C 40.883845,146.18395 38.056359,144.99779 35.235304,143.9644 C 37.724415,144.98056 40.917685,146.01431 44.563264,145.29838 C 48.261609,144.57209 48.136505,142.3431 53.748497,142.14875 C 59.267439,141.95762 66.356978,146.28761 71.672998,146.13683 C 76.98902,145.98604 82.737919,141.16213 88.534079,141.2875 C 94.328976,141.41286 97.958448,146.56739 103.6251,147.33899 C 109.20033,148.09813 116.05717,145.28152 118.98178,147.49604 C 121.90638,149.71055 120.47018,133.10002 117.97976,136.00803 z"
         id="path4032"
         sodipodi:nodetypes="czzzzzczzzzzzz" />
      <path
         sodipodi:nodetypes="czzzzzczzzzzzz"
         id="path4036"
         d="M 115.27368,153.89272 C 114.57093,157.65632 109.1025,162.73041 104.05035,164.91689 C 98.913292,167.1401 96.515321,165.8871 90.205711,169.11532 C 83.978917,172.30118 83.363827,180.48779 77.068256,183.94993 C 70.854298,187.3672 66.54438,187.33587 62.19549,190.37156 C 57.840715,193.41135 58.710683,195.31742 56.181404,198.252 C 53.594614,201.25328 50.55286,201.63978 47.593059,202.15537 C 50.256773,201.79083 53.539099,201.08945 56.3383,198.64665 C 59.178016,196.16849 57.955177,194.30068 62.71813,191.32637 C 67.402108,188.40138 75.706824,188.60649 80.235243,185.8179 C 84.763658,183.0293 87.330395,175.97722 92.412702,173.18771 C 97.49391,170.39883 103.21439,173.04805 108.50766,170.88295 C 113.71552,168.75277 118.24541,162.88509 121.88546,163.34062 C 125.52549,163.79614 115.97644,150.1291 115.27368,153.89272 z"
         style="fill:#ffffff;fill-opacity:1;fill-rule:evenodd;stroke:#ffffff;stroke-width:2;stroke-linecap:butt;stroke-linejoin:round;stroke-miterlimit:4;stroke-dasharray:none;stroke-opacity:1" />
      <path
         style="fill:#ffffff;fill-opacity:1;fill-rule:evenodd;stroke:#ffffff;stroke-width:2;stroke-linecap:butt;stroke-linejoin:round;stroke-miterlimit:4;stroke-dasharray:none;stroke-opacity:1"
         d="M 121.87249,170.73436 C 123.14569,174.34511 120.94694,181.47361 117.66489,185.89324 C 114.32767,190.38712 111.62447,190.50098 107.77429,196.4515 C 103.97466,202.32393 107.53528,209.72129 103.81423,215.86738 C 100.14142,221.9338 96.393252,224.06163 94.144847,228.86506 C 91.893396,233.67498 93.599846,234.8907 92.876717,238.69676 C 92.137131,242.58934 89.696144,244.44494 87.390676,246.37135 C 89.51525,244.72379 92.007138,242.47522 93.209917,238.96009 C 94.430104,235.39408 92.437188,234.38793 95.074872,229.43063 C 97.668821,224.55552 104.96348,220.58079 107.49091,215.90159 C 110.01833,211.22239 108.71515,203.83174 111.7218,198.8748 C 114.72782,193.91895 121.0065,193.35301 124.50806,188.83134 C 127.95311,184.38262 128.94227,177.03612 132.32241,175.61059 C 135.70253,174.18507 120.59929,167.12359 121.87249,170.73436 z"
         id="path4040"
         sodipodi:nodetypes="czzzzzczzzzzzz" />
      <path
         sodipodi:nodetypes="czzzzzczzzzzzz"
         id="path4044"
         d="M 136.00805,182.02024 C 138.91604,184.51064 140.57612,191.78348 139.9436,197.25201 C 139.30042,202.81244 137.01631,204.26264 136.65722,211.34103 C 136.30285,218.32652 143.08512,222.95251 142.93564,230.13571 C 142.78811,237.22579 140.60602,240.94262 141.06056,246.22672 C 141.5157,251.51796 143.60139,251.71758 144.87817,255.37529 C 146.18396,259.11615 144.99781,261.94364 143.96442,264.7647 C 144.98057,262.27558 146.01433,259.08232 145.2984,255.43674 C 144.5721,251.73839 142.34311,251.86349 142.14876,246.25151 C 141.95764,240.73256 146.28763,233.64302 146.13685,228.327 C 145.98606,223.01098 141.16214,217.26208 141.28751,211.46592 C 141.41287,205.67102 146.5674,202.04156 147.33901,196.3749 C 148.09815,190.79967 145.28153,183.94283 147.49606,181.01822 C 149.71057,178.09362 133.10004,179.52982 136.00805,182.02024 z"
         style="fill:#ffffff;fill-opacity:1;fill-rule:evenodd;stroke:#ffffff;stroke-width:2;stroke-linecap:butt;stroke-linejoin:round;stroke-miterlimit:4;stroke-dasharray:none;stroke-opacity:1" />
      <path
         style="fill:#ffffff;fill-opacity:1;fill-rule:evenodd;stroke:#ffffff;stroke-width:2;stroke-linecap:butt;stroke-linejoin:round;stroke-miterlimit:4;stroke-dasharray:none;stroke-opacity:1"
         d="M 153.89273,184.72632 C 157.65633,185.42908 162.73042,190.8975 164.91691,195.94965 C 167.14011,201.08671 165.88711,203.48467 169.11533,209.79428 C 172.30118,216.02108 180.48779,216.63617 183.94994,222.93175 C 187.36721,229.1457 187.33588,233.45561 190.37158,237.80451 C 193.41136,242.15929 195.31743,241.28932 198.25201,243.8186 C 201.25329,246.40538 201.6398,249.44714 202.15538,252.40694 C 201.79084,249.74322 201.08947,246.4609 198.64666,243.6617 C 196.16849,240.82198 194.30068,242.04482 191.32638,237.28188 C 188.40139,232.59789 188.6065,224.29317 185.81791,219.76475 C 183.02932,215.23634 175.97723,212.6696 173.18772,207.5873 C 170.39884,202.50609 173.04806,196.78562 170.88296,191.49234 C 168.75278,186.28448 162.8851,181.75459 163.34063,178.11454 C 163.79616,174.47451 150.12911,184.02356 153.89273,184.72632 z"
         id="path4048"
         sodipodi:nodetypes="czzzzzczzzzzzz" />
      <path
         sodipodi:nodetypes="czzzzzczzzzzzz"
         id="path4052"
         d="M 170.73437,178.12751 C 174.34512,176.85432 181.47362,179.05307 185.89325,182.33511 C 190.38713,185.67234 190.50098,188.37553 196.4515,192.2257 C 202.32393,196.02534 209.72129,192.46472 215.86739,196.18578 C 221.93381,199.85858 224.06163,203.60674 228.86507,205.85515 C 233.67499,208.10661 234.89071,206.40016 238.69677,207.12329 C 242.58934,207.86286 244.44495,210.30385 246.37136,212.60932 C 244.7238,210.48474 242.47523,207.99286 238.9601,206.79008 C 235.39408,205.5699 234.38793,207.56281 229.43064,204.92514 C 224.55553,202.33118 220.5808,195.03652 215.9016,192.50909 C 211.2224,189.98167 203.83174,191.28485 198.87481,188.27821 C 193.91896,185.27219 193.35302,178.99351 188.83135,175.49194 C 184.38263,172.04689 177.03612,171.05773 175.6106,167.67759 C 174.18508,164.29747 167.1236,179.40071 170.73437,178.12751 z"
         style="fill:#ffffff;fill-opacity:1;fill-rule:evenodd;stroke:#ffffff;stroke-width:2;stroke-linecap:butt;stroke-linejoin:round;stroke-miterlimit:4;stroke-dasharray:none;stroke-opacity:1" />
      <path
         style="fill:#ffffff;fill-opacity:1;fill-rule:evenodd;stroke:#ffffff;stroke-width:2;stroke-linecap:butt;stroke-linejoin:round;stroke-miterlimit:4;stroke-dasharray:none;stroke-opacity:1"
         d="M 182.02024,163.99196 C 184.51065,161.08397 191.78349,159.42389 197.25202,160.0564 C 202.81245,160.69959 204.26264,162.9837 211.34103,163.34278 C 218.32652,163.69715 222.95251,156.91488 230.13572,157.06437 C 237.22579,157.21189 240.94262,159.39399 246.22673,158.93945 C 251.51797,158.48431 251.71759,156.39862 255.3753,155.12184 C 259.11615,153.81604 261.94365,155.00219 264.7647,156.03558 C 262.27558,155.01942 259.08233,153.98568 255.43674,154.7016 C 251.73839,155.42791 251.86349,157.65689 246.25152,157.85125 C 240.73257,158.04237 233.64302,153.71237 228.327,153.86315 C 223.01099,154.01394 217.26208,158.83786 211.46593,158.7125 C 205.67103,158.58714 202.04157,153.43261 196.3749,152.661 C 190.79967,151.90185 183.94283,154.71847 181.01822,152.50394 C 178.09363,150.28943 179.52982,166.89996 182.02024,163.99196 z"
         id="path4056"
         sodipodi:nodetypes="czzzzzczzzzzzz" />
      <path
         sodipodi:nodetypes="czzzzzczzzzzzz"
         id="path4060"
         d="M 184.72632,146.10728 C 185.42909,142.34368 190.89751,137.26959 195.94965,135.08309 C 201.08672,132.8599 203.48468,134.1129 209.79428,130.88468 C 216.02108,127.69883 216.63617,119.51221 222.93176,116.05007 C 229.1457,112.63279 233.45562,112.66413 237.80452,109.62843 C 242.1593,106.58865 241.28933,104.68258 243.81861,101.748 C 246.40538,98.746724 249.44714,98.36021 252.40694,97.844627 C 249.74322,98.209166 246.46091,98.910546 243.6617,101.35334 C 240.82199,103.83152 242.04482,105.69932 237.28189,108.67363 C 232.5979,111.59862 224.29317,111.3935 219.76475,114.18209 C 215.23634,116.97069 212.6696,124.02278 207.58731,126.81229 C 202.5061,129.60117 196.78563,126.95195 191.49234,129.11705 C 186.28448,131.24722 181.75459,137.11491 178.11454,136.65937 C 174.47451,136.20385 184.02356,149.87089 184.72632,146.10728 z"
         style="fill:#ffffff;fill-opacity:1;fill-rule:evenodd;stroke:#ffffff;stroke-width:2;stroke-linecap:butt;stroke-linejoin:round;stroke-miterlimit:4;stroke-dasharray:none;stroke-opacity:1" />
      <path
         style="fill:#ffffff;fill-opacity:1;fill-rule:evenodd;stroke:#ffffff;stroke-width:2;stroke-linecap:butt;stroke-linejoin:round;stroke-miterlimit:4;stroke-dasharray:none;stroke-opacity:1"
         d="M 178.12752,129.26565 C 176.85433,125.65489 179.05308,118.52639 182.33511,114.10675 C 185.67235,109.61288 188.37554,109.49903 192.22571,103.54851 C 196.02535,97.676087 192.46472,90.278721 196.18579,84.132625 C 199.85858,78.066204 203.60675,75.938385 205.85516,71.134942 C 208.10662,66.325025 206.40017,65.109305 207.1233,61.303244 C 207.86287,57.410674 210.30385,55.555063 212.60932,53.628655 C 210.48474,55.276215 207.99287,57.524783 206.79008,61.039913 C 205.56991,64.605935 207.56281,65.612083 204.92515,70.569376 C 202.33119,75.444486 195.03652,79.419212 192.50909,84.098412 C 189.98167,88.777615 191.28486,96.168274 188.27822,101.1252 C 185.2722,106.08105 178.99352,106.64699 175.49195,111.16867 C 172.04689,115.61738 171.05774,122.96389 167.67759,124.38941 C 164.29747,125.81493 179.40071,132.87641 178.12752,129.26565 z"
         id="path4064"
         sodipodi:nodetypes="czzzzzczzzzzzz" />
      <path
         sodipodi:nodetypes="czzzzzczzzzzzz"
         id="path3237"
         d="M 144.17796,119.65691 C 141.26996,117.1665 140.7172,110.54455 141.91931,105.35675 C 143.12143,100.16895 148.94568,94.526525 150.05004,88.007083 C 151.15191,81.502351 147.25541,76.675092 147.49805,71.075632 C 147.74069,65.476173 153.74104,57.574199 153.56538,53.028244 C 153.38971,48.482288 151.95614,49.586918 151.23834,45.836049 C 150.51704,42.066911 152.32981,37.870288 154.20164,35.235553 C 153.18548,37.724665 152.15173,40.917933 152.86766,44.563515 C 153.59395,48.26186 155.82294,48.136754 156.01729,53.748746 C 156.20842,59.26769 151.87843,66.357227 152.02921,71.673249 C 152.18,76.989271 157.00391,82.738165 156.87853,88.53433 C 156.75318,94.329229 151.59865,97.958694 150.82705,103.62535 C 150.06791,109.20057 152.88498,116.05739 150.67046,118.98199 C 148.45594,121.90659 147.08597,122.14732 144.17796,119.65691 z"
         style="fill:#ffffff;fill-opacity:1;fill-rule:evenodd;stroke:#000000;stroke-width:2;stroke-linecap:butt;stroke-linejoin:round;stroke-miterlimit:4;stroke-dasharray:none;stroke-opacity:1" />
      <path
         style="fill:#000000;fill-opacity:1;fill-rule:evenodd;stroke:#000000;stroke-width:2;stroke-linecap:butt;stroke-linejoin:round;stroke-miterlimit:4;stroke-dasharray:none;stroke-opacity:1"
         d="M 162.15801,117.98001 C 159.25001,115.4896 157.58994,108.21676 158.22246,102.74824 C 158.86562,97.187807 161.14975,95.737616 161.50882,88.659209 C 161.86318,81.673722 155.08093,77.047735 155.23041,69.864541 C 155.37795,62.774466 157.56004,59.057628 157.1055,53.773531 C 156.65035,48.482288 154.56465,48.282666 153.28788,44.624958 C 151.98209,40.884095 153.16825,38.056609 154.20164,35.235553 C 153.18548,37.724665 152.15173,40.917933 152.86766,44.563515 C 153.59395,48.26186 155.82294,48.136754 156.01729,53.748746 C 156.20842,59.26769 151.87843,66.357227 152.02921,71.673249 C 152.18,76.989271 157.00391,82.738165 156.87853,88.53433 C 156.75318,94.329229 151.59865,97.958694 150.82705,103.62535 C 150.06791,109.20057 152.88452,116.05742 150.67,118.98202 C 148.45548,121.90662 165.06602,120.47042 162.15801,117.98001 z"
         id="path3239"
         sodipodi:nodetypes="czzzzzczzzzzzz" />
      <path
         style="fill:#ffffff;fill-opacity:1;fill-rule:evenodd;stroke:#000000;stroke-width:2;stroke-linecap:butt;stroke-linejoin:round;stroke-miterlimit:4;stroke-dasharray:none;stroke-opacity:1"
         d="M 129.78641,126.63314 C 126.0228,125.93038 122.23312,120.47198 120.68028,115.37816 C 119.12745,110.28433 121.35018,102.48572 119.04686,96.287541 C 116.74875,90.103343 110.96065,87.871064 108.37105,82.90047 C 105.78145,77.929876 107.02692,68.086391 104.60182,64.237308 C 102.17671,60.38823 101.48751,62.061653 98.990441,59.172205 C 96.481208,56.268686 95.952802,51.727919 96.256486,48.510256 C 96.621022,51.17397 97.322402,54.456297 99.765207,57.255498 C 102.24337,60.095214 104.11118,58.872374 107.08549,63.635326 C 110.01048,68.319307 109.80537,76.624021 112.59396,81.152441 C 115.38256,85.680856 122.43463,88.24759 125.22413,93.329906 C 128.01303,98.41111 125.36381,104.13158 127.52891,109.42485 C 129.65909,114.6327 135.52715,119.16235 135.07162,122.80239 C 134.61609,126.44243 133.55003,127.33589 129.78641,126.63314 z"
         id="path3323"
         sodipodi:nodetypes="czzzzzczzzzzzz" />
      <path
         sodipodi:nodetypes="czzzzzczzzzzzz"
         id="path3325"
         d="M 144.51914,116.19087 C 140.75553,115.48811 135.68145,110.01968 133.49497,104.96755 C 131.27174,99.830492 132.52476,97.432524 129.29652,91.122909 C 126.11066,84.89612 117.92407,84.281023 114.46193,77.985454 C 111.04466,71.771499 111.07599,67.461578 108.0403,63.112686 C 105.0005,58.75791 103.09442,59.627882 100.15985,57.098599 C 97.158571,54.511812 96.772072,51.470057 96.256486,48.510256 C 96.621022,51.17397 97.322402,54.456297 99.765207,57.255498 C 102.24337,60.095214 104.11118,58.872374 107.08549,63.635326 C 110.01048,68.319307 109.80537,76.624021 112.59396,81.152441 C 115.38256,85.680856 122.43463,88.24759 125.22413,93.329906 C 128.01303,98.41111 125.36381,104.13158 127.52891,109.42485 C 129.65909,114.6327 135.52677,119.16261 135.07124,122.80264 C 134.61571,126.44268 148.28275,116.89363 144.51914,116.19087 z"
         style="fill:#000000;fill-opacity:1;fill-rule:evenodd;stroke:#000000;stroke-width:2;stroke-linecap:butt;stroke-linejoin:round;stroke-miterlimit:4;stroke-dasharray:none;stroke-opacity:1" />
      <path
         sodipodi:nodetypes="czzzzzczzzzzzz"
         id="path3331"
         d="M 120.81107,139.87049 C 117.20031,141.14369 111.18916,138.31142 107.29745,134.67646 C 103.40574,131.04149 101.43138,123.17633 96.33755,118.9602 C 91.255222,114.75359 85.126443,115.71443 80.398489,112.70457 C 75.670535,109.6947 71.8274,100.54726 67.802657,98.426414 C 63.777909,96.305571 64.017762,98.099394 60.410515,96.845593 C 56.785696,95.585688 54.057699,91.917471 52.711866,88.979052 C 54.35942,91.103628 56.607996,93.595516 60.123128,94.798293 C 63.689134,96.01848 64.695283,94.025565 69.652586,96.663249 C 74.527696,99.257198 78.50242,106.55184 83.18162,109.07928 C 87.860825,111.6067 95.251469,110.30352 100.20841,113.31018 C 105.16426,116.31619 105.73021,122.59487 110.25188,126.09643 C 114.70059,129.54147 122.04731,130.53023 123.47282,133.91036 C 124.89834,137.29049 124.42184,138.59728 120.81107,139.87049 z"
         style="fill:#ffffff;fill-opacity:1;fill-rule:evenodd;stroke:#000000;stroke-width:2;stroke-linecap:butt;stroke-linejoin:round;stroke-miterlimit:4;stroke-dasharray:none;stroke-opacity:1" />
      <path
         style="fill:#000000;fill-opacity:1;fill-rule:evenodd;stroke:#000000;stroke-width:2;stroke-linecap:butt;stroke-linejoin:round;stroke-miterlimit:4;stroke-dasharray:none;stroke-opacity:1"
         d="M 128.34886,123.46086 C 124.7381,124.73406 117.6096,122.5353 113.18998,119.25326 C 108.69608,115.91605 108.58225,113.21284 102.6317,109.36267 C 96.759269,105.56304 89.361922,109.12365 83.215833,105.4026 C 77.149418,101.72979 75.021587,97.981629 70.218155,95.733224 C 65.408229,93.481774 64.192501,95.188232 60.386449,94.465093 C 56.493872,93.725509 54.638277,91.284522 52.711866,88.979052 C 54.35942,91.103628 56.607996,93.595516 60.123128,94.798293 C 63.689134,96.01848 64.695283,94.025565 69.652586,96.663249 C 74.527696,99.257198 78.50242,106.55184 83.18162,109.07928 C 87.860825,111.6067 95.251469,110.30352 100.20841,113.31018 C 105.16426,116.31619 105.73021,122.59487 110.25188,126.09643 C 114.70059,129.54147 122.0471,130.53064 123.47262,133.91077 C 124.89814,137.2909 131.95962,122.18765 128.34886,123.46086 z"
         id="path3333"
         sodipodi:nodetypes="czzzzzczzzzzzz" />
      <path
         style="fill:#ffffff;fill-opacity:1;fill-rule:evenodd;stroke:#000000;stroke-width:2;stroke-linecap:butt;stroke-linejoin:round;stroke-miterlimit:4;stroke-dasharray:none;stroke-opacity:1"
         d="M 119.65689,155.82204 C 117.16648,158.73004 110.54453,159.2828 105.35673,158.08069 C 100.16893,156.87857 94.526494,151.05432 88.007051,149.94996 C 81.502319,148.84809 76.675061,152.74459 71.0756,152.50195 C 65.476141,152.25931 57.574168,146.25896 53.028213,146.43462 C 48.482256,146.61029 49.586886,148.04386 45.836018,148.76166 C 42.066879,149.48296 37.870257,147.67019 35.235522,145.79836 C 37.724634,146.81452 40.917901,147.84827 44.563484,147.13234 C 48.261829,146.40605 48.136723,144.17706 53.748714,143.98271 C 59.267659,143.79158 66.357195,148.12157 71.673217,147.97079 C 76.989239,147.82 82.738133,142.99609 88.534298,143.12147 C 94.329197,143.24682 97.958662,148.40135 103.62533,149.17295 C 109.20055,149.93209 116.05737,147.11502 118.98197,149.32954 C 121.90657,151.54406 122.1473,152.91403 119.65689,155.82204 z"
         id="path3339"
         sodipodi:nodetypes="czzzzzczzzzzzz" />
      <path
         sodipodi:nodetypes="czzzzzczzzzzzz"
         id="path3341"
         d="M 117.97999,137.84199 C 115.48958,140.74999 108.21674,142.41006 102.74822,141.77754 C 97.187776,141.13438 95.737584,138.85025 88.659177,138.49118 C 81.67369,138.13682 77.047703,144.91907 69.864509,144.76959 C 62.774435,144.62205 59.057597,142.43996 53.773499,142.8945 C 48.482256,143.34965 48.282635,145.43535 44.624927,146.71212 C 40.884064,148.01791 38.056578,146.83175 35.235522,145.79836 C 37.724634,146.81452 40.917901,147.84827 44.563484,147.13234 C 48.261829,146.40605 48.136723,144.17706 53.748714,143.98271 C 59.267659,143.79158 66.357195,148.12157 71.673217,147.97079 C 76.989239,147.82 82.738133,142.99609 88.534298,143.12147 C 94.329197,143.24682 97.958662,148.40135 103.62533,149.17295 C 109.20055,149.93209 116.0574,147.11548 118.982,149.33 C 121.9066,151.54452 120.4704,134.93398 117.97999,137.84199 z"
         style="fill:#000000;fill-opacity:1;fill-rule:evenodd;stroke:#000000;stroke-width:2;stroke-linecap:butt;stroke-linejoin:round;stroke-miterlimit:4;stroke-dasharray:none;stroke-opacity:1" />
      <path
         sodipodi:nodetypes="czzzzzczzzzzzz"
         id="path3347"
         d="M 126.6331,170.21358 C 125.93035,173.97719 120.47195,177.76687 115.37813,179.31971 C 110.2843,180.87254 102.48569,178.64981 96.287502,180.95312 C 90.103304,183.25124 87.871026,189.03934 82.900431,191.62894 C 77.929837,194.21854 68.086352,192.97307 64.237269,195.39817 C 60.388192,197.82328 62.061615,198.51248 59.172167,201.00954 C 56.268648,203.51878 51.727881,204.04718 48.510218,203.7435 C 51.173932,203.37896 54.456259,202.67758 57.25546,200.23478 C 60.095176,197.75662 58.872335,195.88881 63.635288,192.9145 C 68.319268,189.98951 76.623982,190.19462 81.152402,187.40603 C 85.680817,184.61743 88.247552,177.56536 93.329867,174.77586 C 98.411071,171.98696 104.13155,174.63618 109.42482,172.47108 C 114.63267,170.3409 119.16232,164.47284 122.80236,164.92837 C 126.44239,165.3839 127.33586,166.44996 126.6331,170.21358 z"
         style="fill:#ffffff;fill-opacity:1;fill-rule:evenodd;stroke:#000000;stroke-width:2;stroke-linecap:butt;stroke-linejoin:round;stroke-miterlimit:4;stroke-dasharray:none;stroke-opacity:1" />
      <path
         style="fill:#000000;fill-opacity:1;fill-rule:evenodd;stroke:#000000;stroke-width:2;stroke-linecap:butt;stroke-linejoin:round;stroke-miterlimit:4;stroke-dasharray:none;stroke-opacity:1"
         d="M 116.19084,155.48085 C 115.48808,159.24446 110.01965,164.31854 104.96752,166.50502 C 99.830453,168.72825 97.432485,167.47523 91.12287,170.70347 C 84.896081,173.88933 84.280984,182.07592 77.985415,185.53806 C 71.77146,188.95533 67.46154,188.924 63.112648,191.95969 C 58.757872,194.99949 59.627844,196.90557 57.098561,199.84014 C 54.511774,202.84141 51.470019,203.22791 48.510218,203.7435 C 51.173932,203.37896 54.456259,202.67758 57.25546,200.23478 C 60.095176,197.75662 58.872335,195.88881 63.635288,192.9145 C 68.319268,189.98951 76.623982,190.19462 81.152402,187.40603 C 85.680817,184.61743 88.247552,177.56536 93.329867,174.77586 C 98.411071,171.98696 104.13155,174.63618 109.42482,172.47108 C 114.63267,170.3409 119.16257,164.47322 122.80261,164.92875 C 126.44265,165.38428 116.89359,151.71723 116.19084,155.48085 z"
         id="path3349"
         sodipodi:nodetypes="czzzzzczzzzzzz" />
      <path
         style="fill:#ffffff;fill-opacity:1;fill-rule:evenodd;stroke:#000000;stroke-width:2;stroke-linecap:butt;stroke-linejoin:round;stroke-miterlimit:4;stroke-dasharray:none;stroke-opacity:1"
         d="M 139.87045,179.18891 C 141.14365,182.79967 138.31138,188.81083 134.67642,192.70254 C 131.04145,196.59425 123.17629,198.56861 118.96016,203.66243 C 114.75355,208.74476 115.71439,214.87354 112.70453,219.60149 C 109.69466,224.32945 100.54722,228.17258 98.426367,232.19732 C 96.305523,236.22207 98.099346,235.98222 96.845546,239.58947 C 95.58564,243.21429 91.917423,245.94228 88.979004,247.28812 C 91.10358,245.64056 93.595468,243.39199 94.798245,239.87685 C 96.018432,236.31085 94.025517,235.3047 96.663201,230.3474 C 99.25715,225.47229 106.5518,221.49756 109.07924,216.81836 C 111.60666,212.13916 110.30348,204.74851 113.31014,199.79158 C 116.31615,194.83572 122.59483,194.26978 126.09639,189.74811 C 129.54143,185.2994 130.53019,177.95268 133.91032,176.52716 C 137.29045,175.10164 138.59724,175.57815 139.87045,179.18891 z"
         id="path3355"
         sodipodi:nodetypes="czzzzzczzzzzzz" />
      <path
         sodipodi:nodetypes="czzzzzczzzzzzz"
         id="path3357"
         d="M 123.46082,171.65113 C 124.73402,175.26189 122.53526,182.39038 119.25322,186.81 C 115.91601,191.3039 113.2128,191.41774 109.36263,197.36828 C 105.563,203.24071 109.12361,210.63806 105.40256,216.78415 C 101.72975,222.85056 97.981581,224.97839 95.733176,229.78183 C 93.481726,234.59175 95.188184,235.80748 94.465045,239.61353 C 93.725461,243.50611 91.284475,245.36171 88.979004,247.28812 C 91.10358,245.64056 93.595468,243.39199 94.798245,239.87685 C 96.018432,236.31085 94.025517,235.3047 96.663201,230.3474 C 99.25715,225.47229 106.5518,221.49756 109.07924,216.81836 C 111.60666,212.13916 110.30348,204.74851 113.31014,199.79158 C 116.31615,194.83572 122.59483,194.26978 126.09639,189.74811 C 129.54143,185.2994 130.5306,177.95288 133.91073,176.52737 C 137.29086,175.10185 122.18761,168.04036 123.46082,171.65113 z"
         style="fill:#000000;fill-opacity:1;fill-rule:evenodd;stroke:#000000;stroke-width:2;stroke-linecap:butt;stroke-linejoin:round;stroke-miterlimit:4;stroke-dasharray:none;stroke-opacity:1" />
      <path
         sodipodi:nodetypes="czzzzzczzzzzzz"
         id="path3363"
         d="M 155.822,180.34311 C 158.73,182.83352 159.28276,189.45547 158.08065,194.64327 C 156.87853,199.83107 151.05428,205.4735 149.94992,211.99294 C 148.84805,218.49767 152.74455,223.32493 152.50191,228.92439 C 152.25927,234.52385 146.25892,242.42582 146.43458,246.97178 C 146.61025,251.51774 148.04382,250.41311 148.76162,254.16397 C 149.48292,257.93311 147.67015,262.12974 145.79832,264.76447 C 146.81448,262.27536 147.84823,259.08209 147.1323,255.43651 C 146.40601,251.73816 144.17702,251.86327 143.98267,246.25128 C 143.79154,240.73233 148.12153,233.6428 147.97075,228.32677 C 147.81996,223.01075 142.99605,217.26186 143.12143,211.46569 C 143.24678,205.67079 148.40131,202.04133 149.17291,196.37467 C 149.93205,190.79945 147.11498,183.94263 149.3295,181.01803 C 151.54402,178.09343 152.91399,177.8527 155.822,180.34311 z"
         style="fill:#ffffff;fill-opacity:1;fill-rule:evenodd;stroke:#000000;stroke-width:2;stroke-linecap:butt;stroke-linejoin:round;stroke-miterlimit:4;stroke-dasharray:none;stroke-opacity:1" />
      <path
         style="fill:#000000;fill-opacity:1;fill-rule:evenodd;stroke:#000000;stroke-width:2;stroke-linecap:butt;stroke-linejoin:round;stroke-miterlimit:4;stroke-dasharray:none;stroke-opacity:1"
         d="M 137.84195,182.02001 C 140.74995,184.51042 142.41002,191.78326 141.7775,197.25178 C 141.13434,202.81222 138.85021,204.26241 138.49114,211.34082 C 138.13678,218.3263 144.91903,222.95229 144.76955,230.13548 C 144.62201,237.22556 142.43992,240.9424 142.89446,246.22649 C 143.34961,251.51774 145.43531,251.71736 146.71208,255.37507 C 148.01787,259.11593 146.83171,261.94342 145.79832,264.76447 C 146.81448,262.27536 147.84823,259.08209 147.1323,255.43651 C 146.40601,251.73816 144.17702,251.86327 143.98267,246.25128 C 143.79154,240.73233 148.12153,233.6428 147.97075,228.32677 C 147.81996,223.01075 142.99605,217.26186 143.12143,211.46569 C 143.24678,205.67079 148.40131,202.04133 149.17291,196.37467 C 149.93205,190.79945 147.11544,183.9426 149.32996,181.018 C 151.54448,178.0934 134.93394,179.5296 137.84195,182.02001 z"
         id="path3365"
         sodipodi:nodetypes="czzzzzczzzzzzz" />
      <path
         style="fill:#ffffff;fill-opacity:1;fill-rule:evenodd;stroke:#000000;stroke-width:2;stroke-linecap:butt;stroke-linejoin:round;stroke-miterlimit:4;stroke-dasharray:none;stroke-opacity:1"
         d="M 170.21355,173.36689 C 173.97716,174.06965 177.76684,179.52805 179.31968,184.62187 C 180.87251,189.7157 178.64978,197.51431 180.95309,203.71249 C 183.25121,209.89669 189.03931,212.12897 191.62891,217.09956 C 194.21851,222.07016 192.97304,231.91364 195.39814,235.76272 C 197.82325,239.6118 198.51245,237.93838 201.00951,240.82783 C 203.51875,243.73135 204.04715,248.27211 203.74347,251.48978 C 203.37893,248.82606 202.67755,245.54374 200.23475,242.74453 C 197.75659,239.90482 195.88878,241.12766 192.91447,236.36471 C 189.98948,231.68073 190.19459,223.37601 187.406,218.84759 C 184.6174,214.31918 177.56533,211.75244 174.77583,206.67013 C 171.98693,201.58892 174.63615,195.86845 172.47105,190.57518 C 170.34087,185.36733 164.47281,180.83768 164.92834,177.19764 C 165.38387,173.5576 166.44993,172.66414 170.21355,173.36689 z"
         id="path3371"
         sodipodi:nodetypes="czzzzzczzzzzzz" />
      <path
         sodipodi:nodetypes="czzzzzczzzzzzz"
         id="path3373"
         d="M 155.48082,183.80916 C 159.24443,184.51192 164.31851,189.98034 166.50499,195.03248 C 168.72822,200.16954 167.4752,202.56751 170.70344,208.87712 C 173.8893,215.10391 182.07589,215.71901 185.53803,222.01458 C 188.9553,228.22853 188.92397,232.53845 191.95966,236.88735 C 194.99946,241.24212 196.90554,240.37215 199.84011,242.90143 C 202.84138,245.48822 203.22788,248.52998 203.74347,251.48978 C 203.37893,248.82606 202.67755,245.54374 200.23475,242.74453 C 197.75659,239.90482 195.88878,241.12766 192.91447,236.36471 C 189.98948,231.68073 190.19459,223.37601 187.406,218.84759 C 184.6174,214.31918 177.56533,211.75244 174.77583,206.67013 C 171.98693,201.58892 174.63615,195.86845 172.47105,190.57518 C 170.34087,185.36733 164.47319,180.83742 164.92872,177.19739 C 165.38425,173.55735 151.7172,183.1064 155.48082,183.80916 z"
         style="fill:#000000;fill-opacity:1;fill-rule:evenodd;stroke:#000000;stroke-width:2;stroke-linecap:butt;stroke-linejoin:round;stroke-miterlimit:4;stroke-dasharray:none;stroke-opacity:1" />
      <path
         sodipodi:nodetypes="czzzzzczzzzzzz"
         id="path3379"
         d="M 179.18888,160.12954 C 182.79964,158.85634 188.8108,161.68861 192.70251,165.32357 C 196.59422,168.95853 198.56858,176.8237 203.6624,181.03982 C 208.74473,185.24643 214.87351,184.2856 219.60146,187.29546 C 224.32942,190.30532 228.17255,199.45276 232.19729,201.57361 C 236.22204,203.69446 235.98219,201.90063 239.58944,203.15444 C 243.21426,204.41434 245.94225,208.08256 247.28809,211.02098 C 245.64053,208.8964 243.39196,206.40451 239.87682,205.20174 C 236.31082,203.98155 235.30467,205.97446 230.34737,203.33678 C 225.47226,200.74283 221.49753,193.44818 216.81833,190.92075 C 212.13913,188.39333 204.74848,189.69651 199.79155,186.68984 C 194.83569,183.68384 194.26975,177.40515 189.74808,173.9036 C 185.29937,170.45855 177.95265,169.4698 176.52713,166.08967 C 175.10161,162.70953 175.57812,161.40274 179.18888,160.12954 z"
         style="fill:#ffffff;fill-opacity:1;fill-rule:evenodd;stroke:#000000;stroke-width:2;stroke-linecap:butt;stroke-linejoin:round;stroke-miterlimit:4;stroke-dasharray:none;stroke-opacity:1" />
      <path
         style="fill:#000000;fill-opacity:1;fill-rule:evenodd;stroke:#000000;stroke-width:2;stroke-linecap:butt;stroke-linejoin:round;stroke-miterlimit:4;stroke-dasharray:none;stroke-opacity:1"
         d="M 171.6511,176.53917 C 175.26186,175.26597 182.39035,177.46473 186.80997,180.74676 C 191.30387,184.08398 191.41771,186.78719 197.36825,190.63735 C 203.24068,194.43698 210.63803,190.87637 216.78412,194.59742 C 222.85053,198.27024 224.97836,202.0184 229.7818,204.2668 C 234.59172,206.51826 235.80745,204.8118 239.6135,205.53494 C 243.50608,206.27452 245.36168,208.71551 247.28809,211.02098 C 245.64053,208.8964 243.39196,206.40451 239.87682,205.20174 C 236.31082,203.98155 235.30467,205.97446 230.34737,203.33678 C 225.47226,200.74283 221.49753,193.44818 216.81833,190.92075 C 212.13913,188.39333 204.74848,189.69651 199.79155,186.68984 C 194.83569,183.68384 194.26975,177.40515 189.74808,173.9036 C 185.29937,170.45855 177.95285,169.46938 176.52734,166.08925 C 175.10182,162.70912 168.04033,177.81237 171.6511,176.53917 z"
         id="path3381"
         sodipodi:nodetypes="czzzzzczzzzzzz" />
      <path
         style="fill:#ffffff;fill-opacity:1;fill-rule:evenodd;stroke:#000000;stroke-width:2;stroke-linecap:butt;stroke-linejoin:round;stroke-miterlimit:4;stroke-dasharray:none;stroke-opacity:1"
         d="M 180.34307,144.17798 C 182.83348,141.26998 189.45543,140.71722 194.64323,141.91933 C 199.83103,143.12145 205.47346,148.9457 211.9929,150.05006 C 218.49763,151.15193 223.32489,147.25543 228.92435,147.49807 C 234.52381,147.74071 242.42578,153.74106 246.97174,153.5654 C 251.5177,153.38973 250.41307,151.95616 254.16393,151.23836 C 257.93307,150.51706 262.1297,152.32983 264.76443,154.20166 C 262.27532,153.1855 259.08205,152.15175 255.43647,152.86768 C 251.73812,153.59397 251.86323,155.82296 246.25124,156.01731 C 240.73229,156.20844 233.64276,151.87845 228.32673,152.02923 C 223.01071,152.18002 217.26182,157.00393 211.46565,156.87855 C 205.67075,156.7532 202.04129,151.59867 196.37463,150.82707 C 190.79941,150.06793 183.94259,152.885 181.01799,150.67048 C 178.09339,148.45596 177.85266,147.08599 180.34307,144.17798 z"
         id="path3387"
         sodipodi:nodetypes="czzzzzczzzzzzz" />
      <path
         sodipodi:nodetypes="czzzzzczzzzzzz"
         id="path3389"
         d="M 182.01997,162.15803 C 184.51038,159.25003 191.78322,157.58996 197.25174,158.22248 C 202.81218,158.86564 204.26237,161.14977 211.34078,161.50884 C 218.32626,161.8632 222.95225,155.08095 230.13544,155.23043 C 237.22552,155.37797 240.94236,157.56006 246.22645,157.10552 C 251.5177,156.65037 251.71732,154.56467 255.37503,153.2879 C 259.11589,151.98211 261.94338,153.16827 264.76443,154.20166 C 262.27532,153.1855 259.08205,152.15175 255.43647,152.86768 C 251.73812,153.59397 251.86323,155.82296 246.25124,156.01731 C 240.73229,156.20844 233.64276,151.87845 228.32673,152.02923 C 223.01071,152.18002 217.26182,157.00393 211.46565,156.87855 C 205.67075,156.7532 202.04129,151.59867 196.37463,150.82707 C 190.79941,150.06793 183.94256,152.88454 181.01796,150.67002 C 178.09336,148.4555 179.52956,165.06604 182.01997,162.15803 z"
         style="fill:#000000;fill-opacity:1;fill-rule:evenodd;stroke:#000000;stroke-width:2;stroke-linecap:butt;stroke-linejoin:round;stroke-miterlimit:4;stroke-dasharray:none;stroke-opacity:1" />
      <path
         sodipodi:nodetypes="czzzzzczzzzzzz"
         id="path3395"
         d="M 173.36685,129.78644 C 174.06961,126.02283 179.52801,122.23315 184.62183,120.68031 C 189.71566,119.12748 197.51427,121.35021 203.71245,119.04689 C 209.89665,116.74878 212.12893,110.96068 217.09952,108.37108 C 222.07012,105.78148 231.9136,107.02695 235.76268,104.60185 C 239.61176,102.17674 237.93834,101.48754 240.82779,98.990479 C 243.73131,96.481246 248.27207,95.95284 251.48974,96.256524 C 248.82602,96.62106 245.5437,97.32244 242.74449,99.765245 C 239.90478,102.2434 241.12762,104.11121 236.36467,107.08552 C 231.68069,110.01051 223.37597,109.8054 218.84755,112.59399 C 214.31914,115.38259 211.7524,122.43466 206.67009,125.22416 C 201.58888,128.01306 195.86841,125.36384 190.57514,127.52894 C 185.36729,129.65912 180.83764,135.52718 177.1976,135.07165 C 173.55756,134.61612 172.6641,133.55006 173.36685,129.78644 z"
         style="fill:#ffffff;fill-opacity:1;fill-rule:evenodd;stroke:#000000;stroke-width:2;stroke-linecap:butt;stroke-linejoin:round;stroke-miterlimit:4;stroke-dasharray:none;stroke-opacity:1" />
      <path
         style="fill:#000000;fill-opacity:1;fill-rule:evenodd;stroke:#000000;stroke-width:2;stroke-linecap:butt;stroke-linejoin:round;stroke-miterlimit:4;stroke-dasharray:none;stroke-opacity:1"
         d="M 183.80912,144.51917 C 184.51188,140.75556 189.9803,135.68148 195.03244,133.495 C 200.1695,131.27177 202.56747,132.52479 208.87708,129.29655 C 215.10387,126.11069 215.71897,117.9241 222.01454,114.46196 C 228.22849,111.04469 232.53841,111.07602 236.88731,108.04033 C 241.24208,105.00053 240.37211,103.09445 242.90139,100.15988 C 245.48818,97.158609 248.52994,96.77211 251.48974,96.256524 C 248.82602,96.62106 245.5437,97.32244 242.74449,99.765245 C 239.90478,102.2434 241.12762,104.11121 236.36467,107.08552 C 231.68069,110.01051 223.37597,109.8054 218.84755,112.59399 C 214.31914,115.38259 211.7524,122.43466 206.67009,125.22416 C 201.58888,128.01306 195.86841,125.36384 190.57514,127.52894 C 185.36729,129.65912 180.83738,135.5268 177.19735,135.07127 C 173.55731,134.61574 183.10636,148.28278 183.80912,144.51917 z"
         id="path3397"
         sodipodi:nodetypes="czzzzzczzzzzzz" />
      <path
         style="fill:#ffffff;fill-opacity:1;fill-rule:evenodd;stroke:#000000;stroke-width:2;stroke-linecap:butt;stroke-linejoin:round;stroke-miterlimit:4;stroke-dasharray:none;stroke-opacity:1"
         d="M 160.1295,120.81111 C 158.85631,117.20035 161.68858,111.18919 165.32354,107.29748 C 168.9585,103.40577 176.82367,101.43141 181.03979,96.337593 C 185.2464,91.255265 184.28557,85.126486 187.29543,80.398532 C 190.30529,75.670578 199.45273,71.827443 201.57358,67.8027 C 203.69443,63.777952 201.9006,64.017805 203.15441,60.410557 C 204.41431,56.785738 208.08253,54.057741 211.02095,52.711908 C 208.89637,54.359462 206.40448,56.608039 205.2017,60.12317 C 203.98152,63.689176 205.97443,64.695326 203.33675,69.652628 C 200.7428,74.527739 193.44815,78.502463 190.92072,83.181663 C 188.3933,87.860868 189.69648,95.251512 186.68981,100.20844 C 183.68381,105.1643 177.40512,105.73024 173.90357,110.25191 C 170.45852,114.70063 169.46976,122.04734 166.08963,123.47286 C 162.7095,124.89838 161.40271,124.42187 160.1295,120.81111 z"
         id="path3403"
         sodipodi:nodetypes="czzzzzczzzzzzz" />
      <path
         sodipodi:nodetypes="czzzzzczzzzzzz"
         id="path3405"
         d="M 176.53913,128.34889 C 175.26594,124.73814 177.46469,117.60964 180.74673,113.19002 C 184.08394,108.69612 186.78715,108.58228 190.63732,102.63174 C 194.43695,96.759312 190.87634,89.361965 194.59739,83.215876 C 198.2702,77.149461 202.01837,75.02163 204.26677,70.218198 C 206.51822,65.408272 204.81177,64.192544 205.5349,60.386491 C 206.27449,56.493914 208.71548,54.638319 211.02095,52.711908 C 208.89637,54.359462 206.40448,56.608039 205.2017,60.12317 C 203.98152,63.689176 205.97443,64.695326 203.33675,69.652628 C 200.7428,74.527739 193.44815,78.502463 190.92072,83.181663 C 188.3933,87.860868 189.69648,95.251512 186.68981,100.20844 C 183.68381,105.1643 177.40512,105.73024 173.90357,110.25191 C 170.45852,114.70063 169.46935,122.04714 166.08922,123.47266 C 162.70909,124.89817 177.81234,131.95966 176.53913,128.34889 z"
         style="fill:#000000;fill-opacity:1;fill-rule:evenodd;stroke:#000000;stroke-width:2;stroke-linecap:butt;stroke-linejoin:round;stroke-miterlimit:4;stroke-dasharray:none;stroke-opacity:1" />
      <path
         transform="matrix(1.220712,0,0,1.1805947,174.07767,75.446006)"
         d="M 13.043476,63.149525 A 32.767761,33.881229 0 1 1 -52.492046,63.149525 A 32.767761,33.881229 0 1 1 13.043476,63.149525 z"
         sodipodi:ry="33.881229"
         sodipodi:rx="32.767761"
         sodipodi:cy="63.149525"
         sodipodi:cx="-19.724285"
         id="path3870"
         style="fill:#ffffff;fill-opacity:1;stroke:none;stroke-width:3;stroke-linecap:butt;stroke-linejoin:round;stroke-miterlimit:4;stroke-dasharray:none;stroke-opacity:1"
         sodipodi:type="arc" />
      <path
         id="path3689"
         d="M 150,108.5 C 127.09062,108.5 108.5,127.09062 108.5,150 C 108.5,172.90938 127.09062,191.5 150,191.5 C 172.90938,191.5 191.5,172.90938 191.5,150 C 191.5,127.09062 172.90938,108.5 150,108.5 z M 149.25,112.53125 L 150,121.90625 L 150.75,112.53125 C 151.90588,112.55395 153.05944,112.59358 154.1875,112.71875 L 153.65625,122.125 L 155.625,112.9375 C 156.76877,113.10951 157.89243,113.32078 159,113.59375 L 157.28125,122.84375 L 160.4375,113.96875 C 161.54989,114.29051 162.62019,114.6743 163.6875,115.09375 L 160.75,124.03125 L 165.03125,115.625 C 166.08564,116.08721 167.12388,116.60247 168.125,117.15625 L 164.0625,125.65625 L 169.375,117.90625 C 170.3623,118.50381 171.32493,119.12919 172.25,119.8125 L 167.09375,127.6875 L 173.40625,120.71875 C 174.30348,121.4373 175.17292,122.20349 176,123 L 169.875,130.125 L 177,124.03125 C 177.79082,124.8534 178.56739,125.70238 179.28125,126.59375 L 172.28125,132.875 L 180.1875,127.75 C 180.87081,128.67507 181.49619,129.6377 182.09375,130.625 L 174.34375,135.9375 L 182.84375,131.875 C 183.39753,132.87612 183.91279,133.91436 184.375,134.96875 L 175.96875,139.25 L 184.90625,136.3125 C 185.32933,137.38905 185.70759,138.47136 186.03125,139.59375 L 177.15625,142.71875 L 186.40625,141 C 186.67922,142.10757 186.89049,143.23123 187.0625,144.375 L 177.875,146.3125 L 187.28125,145.8125 C 187.40642,146.94056 187.44605,148.09412 187.46875,149.25 L 178.09375,150 L 187.46875,150.75 C 187.44605,151.90588 187.40642,153.05944 187.28125,154.1875 L 177.875,153.65625 L 187.0625,155.625 C 186.89049,156.76877 186.67922,157.89243 186.40625,159 L 177.15625,157.28125 L 186.03125,160.4375 C 185.70949,161.54989 185.3257,162.62019 184.90625,163.6875 L 175.96875,160.75 L 184.375,165.03125 C 183.91279,166.08564 183.39753,167.12388 182.84375,168.125 L 174.34375,164.0625 L 182.09375,169.375 C 181.49619,170.3623 180.87081,171.32493 180.1875,172.25 L 172.3125,167.09375 L 179.28125,173.40625 C 178.5627,174.30348 177.79651,175.17292 177,176 L 169.875,169.875 L 175.96875,177 C 175.1466,177.79082 174.29762,178.56739 173.40625,179.28125 L 167.125,172.28125 L 172.25,180.1875 C 171.32493,180.87081 170.3623,181.49619 169.375,182.09375 L 164.0625,174.34375 L 168.125,182.84375 C 167.12388,183.39753 166.08564,183.91279 165.03125,184.375 L 160.75,175.96875 L 163.6875,184.90625 C 162.61095,185.32933 161.52864,185.70759 160.40625,186.03125 L 157.28125,177.15625 L 159,186.40625 C 157.89243,186.67922 156.76877,186.89049 155.625,187.0625 L 153.6875,177.875 L 154.1875,187.28125 C 153.05944,187.40642 151.90588,187.44605 150.75,187.46875 L 150,178.09375 L 149.25,187.46875 C 148.09412,187.44605 146.94056,187.40642 145.8125,187.28125 L 146.34375,177.875 L 144.375,187.0625 C 143.23123,186.89049 142.10757,186.67922 141,186.40625 L 142.71875,177.15625 L 139.5625,186.03125 C 138.45011,185.70949 137.37981,185.3257 136.3125,184.90625 L 139.25,175.96875 L 134.96875,184.375 C 133.91436,183.91279 132.87612,183.39753 131.875,182.84375 L 135.9375,174.34375 L 130.625,182.09375 C 129.6377,181.49619 128.67507,180.87081 127.75,180.1875 L 132.90625,172.3125 L 126.59375,179.28125 C 125.69652,178.5627 124.82708,177.79651 124,177 L 130.125,169.875 L 123,175.96875 C 122.20918,175.1466 121.43261,174.29762 120.71875,173.40625 L 127.71875,167.125 L 119.8125,172.25 C 119.12919,171.32493 118.50381,170.3623 117.90625,169.375 L 125.65625,164.0625 L 117.15625,168.125 C 116.60247,167.12388 116.08721,166.08564 115.625,165.03125 L 124.03125,160.75 L 115.09375,163.6875 C 114.67067,162.61095 114.29241,161.52864 113.96875,160.40625 L 122.84375,157.28125 L 113.59375,159 C 113.32078,157.89243 113.10951,156.76877 112.9375,155.625 L 122.125,153.6875 L 112.71875,154.1875 C 112.59358,153.05944 112.55395,151.90588 112.53125,150.75 L 121.90625,150 L 112.53125,149.25 C 112.55395,148.09412 112.59358,146.94056 112.71875,145.8125 L 122.125,146.34375 L 112.9375,144.375 C 113.10951,143.23123 113.32078,142.10757 113.59375,141 L 122.84375,142.71875 L 113.96875,139.5625 C 114.29051,138.45011 114.6743,137.37981 115.09375,136.3125 L 124.03125,139.25 L 115.625,134.96875 C 116.08721,133.91436 116.60247,132.87612 117.15625,131.875 L 125.65625,135.9375 L 117.90625,130.625 C 118.50381,129.6377 119.12919,128.67507 119.8125,127.75 L 127.6875,132.90625 L 120.71875,126.59375 C 121.4373,125.69652 122.20349,124.82708 123,124 L 130.125,130.125 L 124.03125,123 C 124.8534,122.20918 125.70238,121.43261 126.59375,120.71875 L 132.875,127.71875 L 127.75,119.8125 C 128.67507,119.12919 129.6377,118.50381 130.625,117.90625 L 135.9375,125.65625 L 131.875,117.15625 C 132.87612,116.60247 133.91436,116.08721 134.96875,115.625 L 139.25,124.03125 L 136.3125,115.09375 C 137.38905,114.67067 138.47136,114.29241 139.59375,113.96875 L 142.71875,122.84375 L 141,113.59375 C 142.10757,113.32078 143.23123,113.10951 144.375,112.9375 L 146.3125,122.125 L 145.8125,112.71875 C 146.94056,112.59358 148.09412,112.55395 149.25,112.53125 z"
         style="fill:#000000;fill-opacity:1;stroke:#000000;stroke-width:0.32165745;stroke-linecap:round;stroke-linejoin:round;stroke-miterlimit:4;stroke-opacity:1" />
    </g>
  </g>
</svg>
