<?xml version="1.0" encoding="UTF-8" standalone="no"?>
<!-- Created with Inkscape (http://www.inkscape.org/) -->

<svg
   xmlns:dc="http://purl.org/dc/elements/1.1/"
   xmlns:cc="http://creativecommons.org/ns#"
   xmlns:rdf="http://www.w3.org/1999/02/22-rdf-syntax-ns#"
   xmlns:svg="http://www.w3.org/2000/svg"
   xmlns="http://www.w3.org/2000/svg"
   xmlns:sodipodi="http://sodipodi.sourceforge.net/DTD/sodipodi-0.dtd"
   xmlns:inkscape="http://www.inkscape.org/namespaces/inkscape"
   width="500"
   height="250"
   id="svg2"
   sodipodi:version="0.32"
   inkscape:version="0.47 r22583"
   version="1.0"
   sodipodi:docname="Dagger-icon.svg"
   inkscape:output_extension="org.inkscape.output.svg.inkscape">
  <defs
     id="defs4">
    <inkscape:perspective
       sodipodi:type="inkscape:persp3d"
       inkscape:vp_x="0 : 526.18109 : 1"
       inkscape:vp_y="0 : 1000 : 0"
       inkscape:vp_z="744.09448 : 526.18109 : 1"
       inkscape:persp3d-origin="372.04724 : 350.78739 : 1"
       id="perspective10" />
    <inkscape:perspective
       id="perspective3217"
       inkscape:persp3d-origin="372.04724 : 350.78739 : 1"
       inkscape:vp_z="744.09448 : 526.18109 : 1"
       inkscape:vp_y="0 : 1000 : 0"
       inkscape:vp_x="0 : 526.18109 : 1"
       sodipodi:type="inkscape:persp3d" />
    <clipPath
       clipPathUnits="userSpaceOnUse"
       id="clipPath3225">
      <rect
         style="opacity:1;fill:none;fill-opacity:1;stroke:#ffff00;stroke-width:2;stroke-linecap:round;stroke-linejoin:round;stroke-miterlimit:4;stroke-dasharray:none;stroke-opacity:1"
         id="rect3227"
         width="403.76984"
         height="195.3373"
         x="-25.826719"
         y="7.3743386"
         ry="2.9092577" />
    </clipPath>
    <inkscape:perspective
       id="perspective2479"
       inkscape:persp3d-origin="372.04724 : 350.78739 : 1"
       inkscape:vp_z="744.09448 : 526.18109 : 1"
       inkscape:vp_y="0 : 1000 : 0"
       inkscape:vp_x="0 : 526.18109 : 1"
       sodipodi:type="inkscape:persp3d" />
    <inkscape:perspective
       id="perspective3911"
       inkscape:persp3d-origin="0.5 : 0.33333333 : 1"
       inkscape:vp_z="1 : 0.5 : 1"
       inkscape:vp_y="0 : 1000 : 0"
       inkscape:vp_x="0 : 0.5 : 1"
       sodipodi:type="inkscape:persp3d" />
  </defs>
  <sodipodi:namedview
     id="base"
     pagecolor="#ffffff"
     bordercolor="#666666"
     borderopacity="1.0"
     gridtolerance="10000"
     guidetolerance="10"
     objecttolerance="10"
     inkscape:pageopacity="0.0"
     inkscape:pageshadow="2"
     inkscape:zoom="2.944"
     inkscape:cx="250"
     inkscape:cy="125"
     inkscape:document-units="px"
     inkscape:current-layer="layer1"
     showgrid="false"
     inkscape:window-width="1904"
     inkscape:window-height="1134"
     inkscape:window-x="0"
     inkscape:window-y="0"
     inkscape:window-maximized="0" />
  <metadata
     id="metadata7">
    <rdf:RDF>
      <cc:Work
         rdf:about="">
        <dc:format>image/svg+xml</dc:format>
        <dc:type
           rdf:resource="http://purl.org/dc/dcmitype/StillImage" />
      </cc:Work>
    </rdf:RDF>
  </metadata>
  <g
     inkscape:label="Layer 1"
     inkscape:groupmode="layer"
     id="layer1">
    <g
       id="g2900">
      <path
         id="rect3452"
         d="m 60.000446,34.999992 380.000004,0 0,179.999998 -380.000004,0 0,-179.999998 z"
         style="fill:#ffffff;fill-opacity:1;stroke:none" />
      <path
         id="path4244"
         d="m 189.15625,51.3125 c -5.15358,-0.174359 -8.97287,1.585694 -11.8125,3.28125 -6.07855,-1.382207 -12.95858,-1.403444 -19.65625,-0.25 -7.65806,1.318834 -15.7516,4.801336 -24.34375,12.71875 C 124.86319,74.87708 119.73478,82.877423 115,95.375 c -1.82148,4.80783 -2.98014,10.45133 -3.84375,16.09375 -0.27427,-0.0207 -0.5349,-0.0837 -0.8125,-0.0937 -5.86141,-0.21259 -11.038861,0.68454 -15.3125,2.90625 -3.027161,1.57371 -5.509742,3.90115 -7.28125,6.6875 -9.008763,-0.55714 -17.76149,2.21719 -24.03125,8.6875 -7.888761,0.47378 -14.651628,3.54367 -19.0625,6.9375 -3.93463,3.0274 -9.148027,8.38756 -11.15625,16.625 -0.974768,-0.41929 -1.82834,-0.8597 -3.15625,-1.21875 -3.071651,-0.83052 -6.967908,-1.31328 -10.71875,-1.15625 -1.875421,0.0785 -3.673817,0.25511 -5.65625,1.09375 -0.991216,0.41932 -2.075203,1.04451 -3.0625,2.25 -0.9872973,1.20549 -1.6388691,3.1323 -1.5,4.78125 0.104781,1.24416 0.699024,2.95831 1.90625,4.125 1.207226,1.16669 2.57749,1.55077 3.53125,1.71875 1.907519,0.33596 2.987056,0.14031 4.1875,0.0937 2.400889,-0.0931 4.841956,-0.10859 8.09375,1.46875 3.475503,1.68585 4.503137,3.21846 5.9375,5.59375 0.230413,3.45404 0.481105,6.91884 0.5,9.78125 0.02143,3.24643 -0.438568,5.94989 -0.59375,6.3125 -0.890957,2.08188 -1.664086,2.55259 -2.9375,3.5 -0.636707,0.4737 -1.534931,0.8673 -2.6875,2.5625 -1.152569,1.6952 -1.185309,5.12357 -0.3125,6.8125 0.714684,1.38293 2.181409,2.65566 3.625,3.15625 1.443591,0.50059 2.7023,0.42955 3.71875,0.25 2.032899,-0.35909 3.459191,-1.1801 4.875,-2.09375 2.831619,-1.82729 5.304817,-4.06562 7.03125,-7.03125 1.508288,-2.59091 2.223129,-5.13233 2.65625,-7.5625 4.095945,2.20863 8.556291,3.59491 13.75,3.625 10.054224,0.0583 19.40364,-5.41084 23.75,-13.65625 0.706265,-1.33984 1.13274,-2.81038 1.53125,-4.3125 1.766479,0.40007 3.672964,0.6574 5.875,0.625 4.833728,-0.0711 9.57129,-1.61818 13.46875,-4.21875 4.27586,1.77613 10.6366,2.52468 17.46875,-0.875 2.77349,4.81624 5.53726,9.53235 10.25,13.875 6.60434,6.08571 14.76467,10.91475 23.0625,12.34375 6.65388,1.14592 13.50643,1.13516 19.5625,-0.21875 4.09831,2.38265 10.7902,4.88169 18.59375,1.90625 4.38355,-1.67141 7.19414,-4.3939 8.84375,-6.46875 1.64961,-2.07485 2.23094,-3.03436 3.34375,-3.71875 1.90835,-1.17366 4.35295,-2.44666 6.59375,-3.6875 1.1204,-0.62042 2.18302,-1.22277 3.1875,-1.90625 1.00448,-0.68348 2.00077,-1.23861 3.0625,-2.90625 2.16682,-3.4034 2.41291,-7.55205 1.03125,-11.65625 -1.37471,-4.08369 -4.21876,-7.08533 -7.46875,-8.625 -1.79589,-0.85077 -2.93286,-0.82576 -4.1875,-0.90625 -1.25464,-0.0805 -2.5237,-0.0711 -3.84375,-0.0625 -2.64009,0.0172 -5.46212,0.057 -7.25,-0.15625 -1.30844,-0.15606 -2.9054,-0.91245 -5.625,-1.84375 -2.7196,-0.9313 -6.46622,-1.73954 -11.09375,-1.15625 -7.961,1.00343 -12.439,6.04492 -14.71875,10.03125 -2.82534,0.4282 -5.74654,0.11272 -9.96875,-2.8125 -0.78194,-0.54174 -2.81118,-3.25359 -5.03125,-6.46875 10.66406,-5.03268 22.44449,-8.83993 39.4375,-8.4375 23.47228,0.55587 47.23629,18.58128 71,28.34375 23.16615,9.51699 49.07272,19.14338 89.03125,18.21875 40.35637,-0.93381 67.91275,-16.86548 85.71875,-37.40625 8.88327,-10.2476 15.78588,-22.50219 20.125,-34.09375 4.33912,-11.59156 6.4216,-22.336393 4.28125,-30.875 a 5.1069293,5.1069293 0 0 0 -9.09375,-1.75 c -6.86968,9.423262 -9.31619,15.05668 -18.4375,20.40625 -8.93145,5.23823 -23.82452,7.68169 -39,7.6875 -14.6085,0.006 -50.20709,-4.96379 -61.59375,-7.84375 a 5.1069293,5.1069293 0 0 0 -4.40625,0.9375 c -10.06595,7.93496 -13.54528,12.13801 -26.625,12.71875 -12.65126,0.56171 -27.71664,-5.38188 -49.6875,-11.65625 -21.41622,-6.11598 -37.15304,-12.706345 -63.25,-12.71875 -17.59887,-0.0084 -31.96217,2.68355 -45.125,7.6875 3.35053,-8.403011 7.95968,-14.090098 12.25,-17.0625 4.23454,-2.933758 7.12787,-3.265272 9.9375,-2.84375 2.2871,3.997317 6.77681,9.02628 14.75,10.03125 4.62665,0.583168 8.38057,-0.224033 11.09375,-1.15625 2.71318,-0.932217 4.2866,-1.687841 5.59375,-1.84375 1.78655,-0.213091 4.60226,-0.173428 7.25,-0.15625 1.32387,0.0086 2.61805,0.0179 3.875,-0.0625 1.25695,-0.0804 2.38694,-0.05326 4.1875,-0.90625 3.22934,-1.529848 6.07003,-4.531622 7.4375,-8.59375 1.38528,-4.11505 1.15056,-8.260599 -1.03125,-11.6875 -1.05587,-1.658423 -2.03004,-2.222381 -3.03125,-2.90625 -1.00121,-0.683869 -2.0705,-1.285433 -3.1875,-1.90625 -2.234,-1.241633 -4.6807,-2.510959 -6.59375,-3.6875 -1.12034,-0.689018 -1.69323,-1.651932 -3.34375,-3.71875 -1.65052,-2.066818 -4.46638,-4.768441 -8.84375,-6.4375 -2.25789,-0.860915 -4.49989,-1.300988 -6.6875,-1.375 z M 60.25,153.96875 c 2.974331,1e-5 6.317219,2.2758 8.40625,4.84375 0.961502,1.57045 1.5625,3.402 1.5625,5.4375 -10e-7,5.77203 -4.489123,10.28125 -9.96875,10.28125 -5.479625,-1e-5 -9.906251,-4.48413 -9.90625,-10.28125 -10e-7,-0.27168 0.01979,-0.45766 0.03125,-0.65625 0.353072,-1.60608 0.816732,-3.14057 1.40625,-4.65625 1.757233,-2.97969 4.854898,-4.96875 8.46875,-4.96875 z"
         style="fill:#000000;fill-rule:evenodd;stroke:none" />
      <path
         id="path2440"
         d="M 50.000447,24.999992 50.000446,225 l 400.000024,1e-5 0,-200.000012 -400.000023,-6e-6 z m 25.000004,24.999994 350.000009,1.2e-5 1e-5,150.000002 -350.000026,0 7e-6,-150.000014 z"
         style="fill:#000000;fill-opacity:1;stroke:none" />
      <path
         sodipodi:nodetypes="czzzczzczzzzcc"
         id="path3234"
         d="m 129.8594,118.67723 c 17.77211,-10.28003 35.50735,-15.65349 60.75291,-15.64153 25.24556,0.012 40.15074,6.31559 61.85528,12.51391 21.70456,6.19832 37.02529,12.49283 51.32823,11.85779 14.30295,-0.63505 19.67005,-6.03896 29.54423,-13.82275 12.37087,3.12889 47.16263,8.00843 62.83351,8.00264 15.67086,-0.006 31.24029,-2.28372 41.61159,-8.36641 10.17479,-5.96743 13.35743,-12.74995 19.97355,-21.825396 3.28718,13.113716 -6.48077,40.978326 -23.30251,60.383616 -16.97466,19.58174 -42.88634,34.74369 -81.97481,35.64816 -39.10169,0.9048 -63.90908,-8.35105 -86.96821,-17.82408 -22.71773,-9.33277 -46.95466,-28.12423 -72.82026,-28.73678 -25.88023,-0.61291 -41.27774,8.17482 -56.17565,16.36904 -13.64956,-7.81105 -15.69151,-26.82315 -6.65786,-38.55821 z"
         style="fill:#000000;fill-rule:evenodd;stroke:#ffffff;stroke-width:3;stroke-linecap:butt;stroke-linejoin:round;stroke-miterlimit:4;stroke-opacity:1;stroke-dasharray:none" />
      <path
         sodipodi:nodetypes="cccccsccc"
         id="path3241"
         d="m 230.60045,144.24754 21.06914,-6.82563 -11.3879,-18.46589 c -16.00352,-5.34564 -32.47377,-9.16114 -49.68545,-9.27515 -23.30606,-0.011 -38.78565,4.59697 -55.08788,13.78126 -2.80332,4.22659 -4.07965,9.84916 -3.28882,15.09374 0.62224,4.12648 2.39219,7.79075 5.07623,10.5 13.90175,-7.52274 30.55988,-15.40607 55.62411,-14.81249 13.40483,0.32427 25.97195,4.60838 37.68057,10.00416 z"
         style="fill:#000000;fill-rule:evenodd;stroke:#ffffff;stroke-width:3;stroke-linecap:butt;stroke-linejoin:round;stroke-miterlimit:4;stroke-opacity:1;stroke-dasharray:none" />
      <path
         style="fill:#000000;fill-rule:evenodd;stroke:#ffffff;stroke-width:3;stroke-linecap:butt;stroke-linejoin:miter;stroke-miterlimit:4;stroke-opacity:1;stroke-dasharray:none"
         d="m 116.11416,134.92651 c 2.29673,6.50714 18.00913,20.20943 19.00077,11.32969 1.03253,-9.24578 -0.15433,-22.97171 3.26106,-35.66496 3.50969,-13.043731 9.94063,-21.708133 16.4607,-26.225346 6.46642,-4.480041 11.85825,-4.249876 16.22852,-3.171704 1.16792,2.973574 4.37207,8.543153 11.98218,9.502359 7.59539,0.957363 10.76086,-2.449228 15.4985,-3.014305 4.73762,-0.565081 11.70453,0.276316 13.69776,-0.667944 1.99322,-0.944257 3.8561,-2.824372 4.79655,-5.618013 0.94044,-2.793637 0.60767,-5.559911 -0.49638,-7.294012 -1.10405,-1.734101 -6.88402,-4.251099 -11.21063,-6.912002 -4.36333,-2.683489 -4.29727,-7.058436 -11.31698,-9.734999 -7.04839,-2.687502 -12.96644,0.421604 -15.92136,2.506997 -5.47323,-1.61684 -12.71361,-1.755033 -19.54473,-0.578607 -6.8527,1.180138 -13.72103,4.048211 -21.72631,11.424841 -8.00332,7.374819 -12.45854,14.314071 -17.03352,26.389859 -4.449,11.743206 -6.27681,31.258456 -3.67613,37.728146 z"
         id="path3235"
         sodipodi:nodetypes="czzzczzzzzzzczzzc" />
      <path
         sodipodi:nodetypes="czzzczzzzzzzczzszc"
         id="path2387"
         d="m 90.744527,126.31612 c 2.296711,-6.50713 8.98929,-10.22965 19.423603,-9.85121 10.33468,0.37481 18.03516,10.41874 23.97958,17.5534 5.90965,7.09293 14.59174,26.51325 21.1118,31.03046 6.46642,4.48004 11.85825,4.24988 16.22853,3.17171 1.16792,-2.97357 4.37205,-8.54316 11.98216,-9.50236 7.5954,-0.95738 10.76088,2.44923 15.4985,3.0143 4.73764,0.56508 11.70454,-0.27631 13.69778,0.66795 1.9932,0.94427 3.8561,2.82437 4.79653,5.618 0.94047,2.79365 0.60767,5.55992 -0.49637,7.29402 -1.10405,1.7341 -6.88404,4.2511 -11.21062,6.912 -4.36334,2.6835 -4.29729,7.05844 -11.31699,9.735 -7.04839,2.6875 -12.96643,-0.42161 -15.92136,-2.507 -5.47325,1.61685 -12.71362,1.75505 -19.54473,0.57861 -6.8527,-1.18013 -14.45437,-5.52321 -20.45783,-11.05523 -6.00347,-5.53201 -8.39346,-11.66292 -13.3259,-19.43022 -4.93245,-7.76732 -8.55715,-12.89254 -14.59573,-19.33138 -6.07899,-6.48193 -15.261581,-12.97271 -19.848953,-13.89805 z"
         style="fill:#000000;fill-rule:evenodd;stroke:#ffffff;stroke-width:3;stroke-linecap:butt;stroke-linejoin:miter;stroke-miterlimit:4;stroke-opacity:1;stroke-dasharray:none" />
      <path
         id="path2389"
         d="m 241.84911,166.09851 c 0,0.48168 -0.83953,0.87216 -1.87514,0.87216 -1.03561,0 -1.87514,-0.39048 -1.87514,-0.87216 0,-0.48168 0.83953,-0.87216 1.87514,-0.87216 1.03561,0 1.87514,0.39048 1.87514,0.87216 z"
         inkscape:transform-center-y="0.91248332"
         inkscape:transform-center-x="0.90514757"
         style="fill:#ffffff;fill-opacity:1;stroke:none"
         transform="matrix(0.94498499,0.56355462,-0.64467263,0.82607922,90.8423,-106.63874)" />
      <path
         id="path3180"
         d="m 241.84911,166.09851 c 0,0.48168 -0.83953,0.87216 -1.87514,0.87216 -1.03561,0 -1.87514,-0.39048 -1.87514,-0.87216 0,-0.48168 0.83953,-0.87216 1.87514,-0.87216 1.03561,0 1.87514,0.39048 1.87514,0.87216 z"
         inkscape:transform-center-y="0.91248332"
         inkscape:transform-center-x="0.90514757"
         style="fill:#ffffff;fill-opacity:1;stroke:none"
         transform="matrix(0.45976843,-0.91567693,-1.0474793,-0.40191662,276.81983,460.13152)" />
      <path
         id="path3237"
         d="m 241.84911,166.09851 c 0,0.48168 -0.83953,0.87216 -1.87514,0.87216 -1.03561,0 -1.87514,-0.39048 -1.87514,-0.87216 0,-0.48168 0.83953,-0.87216 1.87514,-0.87216 1.03561,0 1.87514,0.39048 1.87514,0.87216 z"
         inkscape:transform-center-y="0.91248332"
         inkscape:transform-center-x="0.90514757"
         style="fill:#ffffff;fill-opacity:1;stroke:none"
         transform="matrix(0.94498504,-0.56355461,-0.64467262,-0.82607923,90.41949,356.05341)" />
      <path
         id="path3244"
         d="m 241.84911,166.09851 c 0,0.48168 -0.83953,0.87216 -1.87514,0.87216 -1.03561,0 -1.87514,-0.39048 -1.87514,-0.87216 0,-0.48168 0.83953,-0.87216 1.87514,-0.87216 1.03561,0 1.87514,0.39048 1.87514,0.87216 z"
         inkscape:transform-center-y="0.91248332"
         inkscape:transform-center-x="0.90514757"
         style="fill:#ffffff;fill-opacity:1;stroke:none"
         transform="matrix(0.45976831,0.91567694,-1.0474793,0.40191651,276.39701,-210.71685)" />
      <path
         id="path3269"
         d="m 121.23656,166.28024 c 0,8.67585 -6.37122,15.70901 -14.23051,15.70901 -7.859294,0 -14.230511,-7.03316 -14.230511,-15.70901 0,-8.67584 6.371217,-15.709 14.230511,-15.709 7.85929,0 14.23051,7.03316 14.23051,15.709 z"
         style="fill:none;stroke:#ffffff;stroke-width:4.20661497;stroke-linecap:round;stroke-linejoin:round;stroke-miterlimit:4;stroke-opacity:1"
         transform="matrix(1.057197,2.6047439e-8,0,0.97836754,-52.859083,1.5575217)" />
      <path
         id="path3273"
         d="m 67.371487,166.84979 -9.81502,5.24676 -7.31556,-3.25818 2.499488,-8.50492 9.815032,-5.24676 7.315551,3.25816 -2.499491,8.50494 z"
         style="fill:none;stroke:#ffffff;stroke-width:2;stroke-linecap:round;stroke-linejoin:round;stroke-miterlimit:4;stroke-opacity:1;stroke-dasharray:none" />
      <path
         id="path2884"
         d="m 57.572424,172.1044 -1.999878,6.73779"
         style="fill:none;stroke:#ffffff;stroke-width:2;stroke-linecap:round;stroke-linejoin:round;stroke-miterlimit:4;stroke-opacity:1;stroke-dasharray:none" />
      <path
         id="path3330"
         d="m 74.246486,169.90857 -6.86253,-3.0671"
         style="fill:none;stroke:#ffffff;stroke-width:2;stroke-linecap:round;stroke-linejoin:round;stroke-miterlimit:4;stroke-opacity:1;stroke-dasharray:none" />
      <path
         id="path2892"
         d="m 69.885285,158.34554 3.382875,-1.81333"
         style="fill:none;stroke:#ffffff;stroke-width:2;stroke-linecap:round;stroke-linejoin:round;stroke-miterlimit:4;stroke-opacity:1;stroke-dasharray:none" />
      <path
         id="path3332"
         d="m 64.220155,149.43611 -1.663479,5.64965"
         style="fill:none;stroke:#ffffff;stroke-width:2;stroke-linecap:round;stroke-linejoin:round;stroke-miterlimit:4;stroke-opacity:1;stroke-dasharray:none" />
      <path
         id="path2888"
         d="m 52.726735,160.32191 -6.040717,-2.66025"
         style="fill:none;stroke:#ffffff;stroke-width:2;stroke-linecap:round;stroke-linejoin:round;stroke-miterlimit:4;stroke-opacity:1;stroke-dasharray:none" />
      <path
         id="path3334"
         d="m 46.646458,170.77061 3.597354,-1.92599"
         style="fill:none;stroke:#ffffff;stroke-width:2;stroke-linecap:round;stroke-linejoin:round;stroke-miterlimit:4;stroke-opacity:1;stroke-dasharray:none" />
      <path
         sodipodi:nodetypes="csssczzc"
         id="path3413"
         d="m 64.914486,136.07367 c 3.48438,0.58851 13.31243,1.68802 17.145798,4.86383 3.833358,3.1758 10.96325,10.36075 15.049965,14.3125 4.086711,3.95173 7.043131,7.1212 10.688691,9.21875 3.41342,1.96401 10.66217,3.83585 18.69626,-2.71875 -5.2074,-8.74225 -10.6039,-16.05453 -15.56845,-21.46215 -5.00459,-5.45124 -12.222294,-13.16184 -21.967081,-14.25661 -9.653731,-1.08453 -18.52175,2.19572 -24.045183,10.04243 z"
         style="fill:#000000;fill-opacity:1;fill-rule:evenodd;stroke:#ffffff;stroke-width:3;stroke-linecap:butt;stroke-linejoin:miter;stroke-miterlimit:4;stroke-opacity:1;stroke-dasharray:none" />
      <path
         id="path3444"
         d="m 73.766717,147.71875 c -2.083711,0.1027 -4.524289,1.14997 -7.113869,2.62499 5.110168,2.45686 8.65104,7.75773 8.65104,13.90626 -2e-6,8.48379 -6.745422,15.375 -15.049962,15.375 -8.30453,-1e-5 -15.014208,-6.89121 -15.014206,-15.37501 -3e-6,-0.78447 0.06757,-1.55953 0.178739,-2.3125 -0.224393,0.003 -0.463495,-0.0112 -0.679215,-0.0312 -9.069708,-0.84074 -10.940974,-3.6741 -15.729177,-4.96875 -4.766102,-1.28867 -14.804239,-1.85571 -14.513737,1.59375 0.266993,3.17025 6.300821,-0.88989 14.835471,3.25 8.568488,4.1563 7.902144,9.73516 14.049014,15.56249 6.110116,5.7925 11.348661,8.79746 19.339733,8.84375 7.990138,0.0463 15.936494,-4.75253 19.19674,-10.93749 3.306682,-6.27305 2.601504,-19.21752 -4.25402,-26.125 -1.071181,-1.0793 -2.400069,-1.48002 -3.896551,-1.40625 z"
         style="fill:#000000;fill-opacity:1;fill-rule:evenodd;stroke:#ffffff;stroke-width:3;stroke-linecap:butt;stroke-linejoin:miter;stroke-miterlimit:4;stroke-opacity:1;stroke-dasharray:none" />
      <path
         sodipodi:nodetypes="csszssccszsscscz"
         id="path3420"
         d="m 66.045124,134.5625 c -7.465278,-0.10348 -14.307516,3.047 -18.267288,6.09374 -3.903993,3.00383 -8.684401,7.64321 -9.866483,15.65626 -1.194706,8.09862 2.425135,27.4828 -0.256955,33.74999 -2.68209,6.26719 -7.496027,5.84192 -6.106214,8.53127 1.407184,2.72294 8.281026,-2.41683 10.32897,-5.93474 2.767236,-4.7535 2.461047,-9.60194 2.611854,-14.06528 -0.412878,-7.46711 -0.292476,-14.59343 2.645359,-21.87499 2.578371,-4.68495 7.48725,-7.84375 13.119559,-7.84375 5.241708,1e-5 9.778581,3.40228 12.547591,6.90625 2.76901,3.50397 5.560998,6.81613 8.543799,8.8125 3.540407,2.36954 6.060545,4.34388 12.440348,4.25 4.43144,-0.0652 9.946046,-2.29864 12.940826,-5.0625 -3.16656,-2.07747 -5.94445,-4.98071 -9.616241,-8.53125 -4.086715,-3.95175 -11.216607,-11.1367 -15.049965,-14.3125 -4.535599,-3.71942 -8.549027,-6.27151 -16.01516,-6.375 z"
         style="fill:#000000;fill-rule:evenodd;stroke:#ffffff;stroke-width:3;stroke-linecap:butt;stroke-linejoin:miter;stroke-miterlimit:4;stroke-opacity:1;stroke-dasharray:none" />
      <path
         id="path3997"
         d="m 205.29466,62.798504 c -2.06467,-0.670785 -4.11769,-0.06826 -5.75872,1.090717 -1.2399,-0.181517 -2.47466,-0.297674 -3.70614,-0.139503 l 0.25183,2.025247 0.51346,4.020823 c 1.13437,-0.145695 2.31869,-0.05603 3.50895,0.337611 2.5797,0.853152 4.39477,2.84158 5.12136,5.215592 0.005,0.01436 0.0156,0.02522 0.0198,0.03947 2.6e-4,0.0022 -0.009,0.03271 -0.01,0.02967 -0.009,-0.03635 0.11228,0.331431 0.0995,0.29623 -0.0128,-0.03522 0.14566,0.339667 0.12919,0.306042 -0.0165,-0.03362 0.18865,0.317841 0.16867,0.286185 -0.02,-0.03165 0.20176,0.285837 0.17849,0.256516 -0.0233,-0.02932 0.23444,0.292975 0.20815,0.266327 -0.0263,-0.02663 0.28645,0.240464 0.25744,0.216801 -0.029,-0.02367 0.29865,0.207537 0.26726,0.187131 -0.0314,-0.02039 0.31047,0.174374 0.27707,0.157462 -0.0334,-0.01693 0.35158,0.150819 0.31656,0.137605 -0.035,-0.01317 0.33294,0.107476 0.29669,0.09812 -0.0363,-0.0094 0.37322,0.08368 0.33618,0.07827 -0.0371,-0.0054 0.35373,0.04018 0.31632,0.03878 -0.0375,-0.0014 0.37329,-0.02319 0.33594,-0.02055 -0.0373,0.0026 0.34312,-0.03701 0.30628,-0.03037 -0.0369,0.0066 0.36181,-0.100274 0.3259,-0.08971 -0.0359,0.01056 0.3308,-0.113889 0.29623,-0.09952 -0.0346,0.01438 0.34868,-0.176865 0.31585,-0.158859 -0.0328,0.01801 0.31688,-0.190105 0.28619,-0.16867 -0.0307,0.02144 0.28472,-0.203097 0.25651,-0.178483 -0.0282,0.02463 0.24221,-0.284951 0.2168,-0.257446 -0.0254,0.0275 0.22928,-0.257855 0.20699,-0.227777 -0.0223,0.03009 0.21587,-0.329231 0.1969,-0.296944 -0.0191,0.03225 0.17276,-0.311234 0.15746,-0.277071 -0.0155,0.0341 0.1097,-0.332298 0.0981,-0.296696 -0.0116,0.03561 0.11582,-0.362937 0.10794,-0.326365 -0.008,0.03658 0.0425,-0.353575 0.0388,-0.31632 -0.004,0.03719 0.009,-0.363567 0.009,-0.326116 3.7e-4,0.03744 -0.0249,-0.373124 -0.0206,-0.335945 0.004,0.03718 -0.0684,-0.35258 -0.06,-0.316087 0.008,0.0365 -0.10193,-0.361284 -0.0897,-0.325899 0.0122,0.03538 -0.14515,-0.339907 -0.12919,-0.306043 -0.32254,-0.983944 -0.83898,-1.879939 -1.36034,-2.753914 0.77769,-3.300285 -0.99006,-6.764907 -4.28749,-7.836309 z"
         style="fill:#000000;stroke:none" />
      <path
         id="path3979"
         d="m 205.18634,79.746638 a 2.0419423,2.0419423 0 0 0 -0.0394,0.01987 c 0.0429,0.0064 -0.41893,-0.05944 -0.37566,-0.05841 0.0433,10e-4 -0.41849,0.04477 -0.37543,0.04041 0.0431,-0.0044 -0.41761,0.0501 -0.37542,0.04041 0.0422,-0.0097 -0.40604,0.124415 -0.36538,0.109564 0.0406,-0.01487 -0.38402,0.168839 -0.34553,0.149046 0.0385,-0.01981 -0.3614,0.212952 -0.32566,0.188528 0.0358,-0.02441 -0.34805,0.286356 -0.31563,0.257679 0.022,-0.01951 -0.0717,0.09296 -0.15764,0.178265 -0.0404,0.04014 -0.0979,0.07979 -0.0888,0.06938 -1.75703,1.718957 -4.29559,2.571078 -6.95206,2.111389 -1.23264,-0.213307 -2.30483,-0.647786 -3.22463,-1.296849 -0.0122,-0.0088 -0.0161,1.65e-4 -0.0296,-0.0098 -0.0774,-0.05634 -0.1455,-0.119385 -0.12873,-0.108401 0.0296,0.01938 -0.3085,-0.173733 -0.27707,-0.157461 0.0315,0.01631 -0.31981,-0.140778 -0.28688,-0.127793 0.0329,0.01298 -0.33077,-0.107706 -0.29669,-0.09812 0.0341,0.0096 -0.34138,-0.07451 -0.30651,-0.06845 0.0349,0.0061 -0.32196,-0.03144 -0.28665,-0.02897 0.0353,0.0025 -0.36151,-0.008 -0.32614,-0.0091 0.0353,-0.0011 -0.33154,0.0054 -0.29646,6.99e-4 0.0351,-0.0047 -0.3505,0.06831 -0.31609,0.06004 0.0344,-0.0083 -0.32962,0.11125 -0.29623,0.09952 0.0334,-0.01174 -0.29858,0.124401 -0.26656,0.109332 0.032,-0.01506 -0.3165,0.18692 -0.28618,0.16867 0.0304,-0.01824 -0.27502,0.170058 -0.2467,0.148813 0.0283,-0.02128 -0.26267,0.241974 -0.23666,0.217965 0.026,-0.02406 -0.26009,0.244501 -0.23666,0.217965 0.0234,-0.02659 -0.19793,0.266363 -0.17727,0.237604 0.0206,-0.02879 -0.2047,0.297987 -0.18709,0.267275 0.0175,-0.03075 -0.13231,0.289569 -0.11793,0.257229 0.0139,-0.03248 -0.13876,0.320531 -0.12774,0.286899 0.011,-0.03365 -0.076,0.341105 -0.0685,0.306492 0.007,-0.03468 -0.0725,0.341663 -0.0685,0.306492 0.004,-0.03505 -0.009,0.361525 -0.009,0.326117 3.3e-4,-0.03539 0.004,0.331708 6.6e-4,0.296447 -0.003,-0.03522 0.0669,0.350818 0.06,0.316087 -0.007,-0.03471 0.0802,0.320271 0.0698,0.286418 -0.0103,-0.03384 0.11324,0.328857 0.0995,0.29623 -0.0137,-0.03267 0.15597,0.30743 0.139,0.276372 -0.017,-0.03111 0.19853,0.285694 0.17849,0.256516 -0.0201,-0.02917 0.20138,0.283502 0.17848,0.256515 -0.0229,-0.02695 0.2435,0.261175 0.21796,0.236658 -0.0255,-0.02454 0.25567,0.228778 0.22778,0.206989 -0.0184,-0.0145 0.0866,0.03075 0.16822,0.08849 0.0423,0.02988 0.0894,0.06549 0.0792,0.05904 l 0.01,-0.02962 c 0.99257,0.695674 2.10291,1.1898 3.255,1.603124 0.89735,1.807808 2.39704,3.323527 4.53475,3.705006 3.40779,0.608104 6.62429,-1.619932 7.47913,-4.899396 0.96028,-0.573416 1.91551,-1.155902 2.72285,-1.963078 l 0.0198,0.03947 c -0.0338,0.03214 0.29532,-0.343344 0.26609,-0.306973 -0.0292,0.03638 0.27034,-0.386413 0.24624,-0.346455 -0.0241,0.03996 0.19557,-0.379249 0.17709,-0.33641 -0.0184,0.04287 0.15011,-0.460257 0.13737,-0.415374 -0.0127,0.04488 0.10437,-0.441724 0.0979,-0.3955 -0.007,0.0461 -7e-4,-0.441946 -9.4e-4,-0.395284 -2.6e-4,0.04666 -0.0366,-0.451368 -0.0306,-0.405096 0.006,0.04626 -0.0724,-0.459956 -0.0603,-0.414908 0.0122,0.04505 -0.15732,-0.418207 -0.13923,-0.375193 0.0181,0.04302 -0.2024,-0.395538 -0.17872,-0.355337 0.0237,0.0402 -0.24705,-0.372143 -0.21819,-0.335479 0.0288,0.03666 -0.32086,-0.357901 -0.28735,-0.325434 0.0335,0.03246 -0.34453,-0.293778 -0.30698,-0.266095 0.0376,0.0277 -0.3972,-0.238971 -0.35626,-0.216568 0.0409,0.02239 -0.41946,-0.173943 -0.37589,-0.157229 0.0134,0.0051 -0.0636,-0.02262 -0.11868,-0.03925 -0.12393,-0.0374 -0.29846,-0.09576 -0.26703,-0.08831 a 2.0419423,2.0419423 0 0 0 -0.20769,-0.06869 z"
         style="fill:#000000;stroke:none" />
      <path
         id="path3739"
         d="m 204.64651,64.73566 c -2.1213,-0.689249 -4.39241,0.261249 -5.42892,2.146165 3.22116,0.558646 6.04287,2.311411 7.69556,4.833369 0.26104,-0.368184 0.50618,-0.748849 0.653,-1.200728 0.78038,-2.401681 -0.51796,-4.998449 -2.91964,-5.778806 z"
         style="fill:#ffffff;stroke:none" />
      <path
         sodipodi:nodetypes="ccc"
         id="path3944"
         d="m 208.15849,74.541629 c -0.99618,-3.321926 -3.56007,-6.114576 -7.10266,-7.286176 -1.61519,-0.534174 -3.26167,-0.685849 -4.84338,-0.4827"
         style="fill:none;stroke:#ffffff;stroke-width:2;stroke-linecap:round;stroke-miterlimit:4;stroke-opacity:1;stroke-dasharray:none" />
      <path
         style="fill:#ffffff;stroke:none"
         d="m 196.94941,89.787653 c -2.19577,-0.391844 -3.75089,-2.300479 -3.77675,-4.45143 3.10421,1.025567 6.41902,0.809273 9.06522,-0.636163 0.0567,0.447756 0.0935,0.899029 0.0101,1.366773 -0.44359,2.486014 -2.81251,4.164437 -5.29853,3.72082 z"
         id="path3946" />
      <path
         style="fill:none;stroke:#ffffff;stroke-width:2;stroke-linecap:round;stroke-miterlimit:4;stroke-opacity:1;stroke-dasharray:none"
         d="m 204.6683,82.794103 c -2.44418,2.460398 -6.02161,3.71515 -9.69826,3.078922 -1.67632,-0.290081 -3.19997,-0.932266 -4.49927,-1.856879"
         id="path3948"
         sodipodi:nodetypes="ccc" />
      <g
         id="g4183">
        <path
           id="path4148"
           d="m 205.71748,186.61616 c -2.06467,0.67078 -4.11769,0.0683 -5.75872,-1.09072 -1.2399,0.18152 -2.47466,0.29767 -3.70614,0.1395 l 0.25183,-2.02524 0.51346,-4.02083 c 1.13437,0.1457 2.31869,0.056 3.50895,-0.33761 2.5797,-0.85315 4.39477,-2.84158 5.12136,-5.21559 0.005,-0.0144 0.0156,-0.0252 0.0198,-0.0395 2.6e-4,-0.002 -0.009,-0.0327 -0.01,-0.0297 -0.009,0.0363 0.11228,-0.33143 0.0995,-0.29623 -0.0128,0.0352 0.14566,-0.33967 0.12919,-0.30604 -0.0165,0.0336 0.18865,-0.31784 0.16867,-0.28619 -0.02,0.0317 0.20176,-0.28583 0.17849,-0.25651 -0.0233,0.0293 0.23444,-0.29298 0.20815,-0.26633 -0.0263,0.0266 0.28645,-0.24047 0.25744,-0.2168 -0.029,0.0237 0.29865,-0.20754 0.26726,-0.18713 -0.0314,0.0204 0.31047,-0.17438 0.27707,-0.15746 -0.0334,0.0169 0.35158,-0.15082 0.31656,-0.13761 -0.035,0.0132 0.33294,-0.10748 0.29669,-0.0981 -0.0363,0.009 0.37322,-0.0837 0.33618,-0.0783 -0.0371,0.005 0.35373,-0.0402 0.31632,-0.0388 -0.0375,10e-4 0.37329,0.0232 0.33594,0.0205 -0.0373,-0.003 0.34312,0.037 0.30628,0.0304 -0.0369,-0.007 0.36181,0.10027 0.3259,0.0897 -0.0359,-0.0106 0.3308,0.11389 0.29623,0.0995 -0.0346,-0.0144 0.34868,0.17687 0.31585,0.15886 -0.0328,-0.018 0.31688,0.1901 0.28619,0.16867 -0.0307,-0.0214 0.28472,0.2031 0.25651,0.17848 -0.0282,-0.0246 0.24221,0.28495 0.2168,0.25745 -0.0254,-0.0275 0.22928,0.25785 0.20699,0.22778 -0.0223,-0.0301 0.21587,0.32923 0.1969,0.29694 -0.0191,-0.0323 0.17276,0.31123 0.15746,0.27707 -0.0155,-0.0341 0.1097,0.3323 0.0981,0.2967 -0.0116,-0.0356 0.11582,0.36293 0.10794,0.32636 -0.008,-0.0366 0.0425,0.35358 0.0388,0.31632 -0.004,-0.0372 0.009,0.36357 0.009,0.32612 3.7e-4,-0.0374 -0.0249,0.37312 -0.0206,0.33594 0.004,-0.0372 -0.0684,0.35258 -0.06,0.31609 0.008,-0.0365 -0.10193,0.36128 -0.0897,0.3259 0.0122,-0.0354 -0.14515,0.33991 -0.12919,0.30604 -0.32254,0.98395 -0.83898,1.87994 -1.36034,2.75392 0.77769,3.30028 -0.99006,6.7649 -4.28749,7.8363 z"
           style="fill:#000000;stroke:none" />
        <path
           id="path4150"
           d="m 205.60916,169.66802 a 2.0419423,2.0419423 0 0 1 -0.0394,-0.0199 c 0.0429,-0.006 -0.41893,0.0594 -0.37566,0.0584 0.0433,-0.001 -0.41849,-0.0448 -0.37543,-0.0404 0.0431,0.004 -0.41761,-0.0501 -0.37542,-0.0404 0.0422,0.01 -0.40604,-0.12441 -0.36538,-0.10956 0.0406,0.0149 -0.38402,-0.16884 -0.34553,-0.14905 0.0385,0.0198 -0.3614,-0.21295 -0.32566,-0.18853 0.0358,0.0244 -0.34805,-0.28635 -0.31563,-0.25768 0.022,0.0195 -0.0717,-0.093 -0.15764,-0.17826 -0.0404,-0.0401 -0.0979,-0.0798 -0.0888,-0.0694 -1.75703,-1.71896 -4.29559,-2.57108 -6.95206,-2.11139 -1.23264,0.21331 -2.30483,0.64779 -3.22463,1.29685 -0.0122,0.009 -0.0161,-1.7e-4 -0.0296,0.01 -0.0774,0.0563 -0.1455,0.11938 -0.12873,0.1084 0.0296,-0.0194 -0.3085,0.17373 -0.27707,0.15746 0.0315,-0.0163 -0.31981,0.14078 -0.28688,0.12779 0.0329,-0.013 -0.33077,0.10771 -0.29669,0.0981 0.0341,-0.01 -0.34138,0.0745 -0.30651,0.0685 0.0349,-0.006 -0.32196,0.0314 -0.28665,0.029 0.0353,-0.002 -0.36151,0.008 -0.32614,0.009 0.0353,0.001 -0.33154,-0.005 -0.29646,-6.9e-4 0.0351,0.005 -0.3505,-0.0683 -0.31609,-0.06 0.0344,0.008 -0.32962,-0.11125 -0.29623,-0.0995 0.0334,0.0117 -0.29858,-0.12441 -0.26656,-0.10934 0.032,0.0151 -0.3165,-0.18692 -0.28618,-0.16867 0.0304,0.0182 -0.27502,-0.17005 -0.2467,-0.14881 0.0283,0.0213 -0.26267,-0.24197 -0.23666,-0.21796 0.026,0.0241 -0.26009,-0.24451 -0.23666,-0.21797 0.0234,0.0266 -0.19793,-0.26636 -0.17727,-0.2376 0.0206,0.0288 -0.2047,-0.29799 -0.18709,-0.26728 0.0175,0.0307 -0.13231,-0.28957 -0.11793,-0.25723 0.0139,0.0325 -0.13876,-0.32053 -0.12774,-0.2869 0.011,0.0336 -0.076,-0.3411 -0.0685,-0.30649 0.007,0.0347 -0.0725,-0.34166 -0.0685,-0.30649 0.004,0.0351 -0.009,-0.36153 -0.009,-0.32612 3.3e-4,0.0354 0.004,-0.33171 6.6e-4,-0.29644 -0.003,0.0352 0.0669,-0.35082 0.06,-0.31609 -0.007,0.0347 0.0802,-0.32027 0.0698,-0.28642 -0.0103,0.0338 0.11324,-0.32886 0.0995,-0.29623 -0.0137,0.0327 0.15597,-0.30743 0.139,-0.27637 -0.017,0.0311 0.19853,-0.2857 0.17849,-0.25652 -0.0201,0.0292 0.20138,-0.2835 0.17848,-0.25651 -0.0229,0.0269 0.2435,-0.26118 0.21796,-0.23666 -0.0255,0.0245 0.25567,-0.22878 0.22778,-0.20699 -0.0184,0.0145 0.0866,-0.0308 0.16822,-0.0885 0.0423,-0.0299 0.0894,-0.0655 0.0792,-0.059 l 0.01,0.0296 c 0.99257,-0.69567 2.10291,-1.1898 3.255,-1.60312 0.89735,-1.80781 2.39704,-3.32353 4.53475,-3.70501 3.40779,-0.6081 6.62429,1.61993 7.47913,4.8994 0.96028,0.57341 1.91551,1.1559 2.72285,1.96307 l 0.0198,-0.0395 c -0.0338,-0.0321 0.29532,0.34335 0.26609,0.30698 -0.0292,-0.0364 0.27034,0.38641 0.24624,0.34645 -0.0241,-0.04 0.19557,0.37925 0.17709,0.33641 -0.0184,-0.0429 0.15011,0.46026 0.13737,0.41538 -0.0127,-0.0449 0.10437,0.44172 0.0979,0.3955 -0.007,-0.0461 -7e-4,0.44194 -9.4e-4,0.39528 -2.6e-4,-0.0467 -0.0366,0.45137 -0.0306,0.4051 0.006,-0.0463 -0.0724,0.45995 -0.0603,0.4149 0.0122,-0.0451 -0.15732,0.41821 -0.13923,0.3752 0.0181,-0.043 -0.2024,0.39554 -0.17872,0.35533 0.0237,-0.0402 -0.24705,0.37215 -0.21819,0.33548 0.0288,-0.0367 -0.32086,0.35791 -0.28735,0.32544 0.0335,-0.0325 -0.34453,0.29378 -0.30698,0.26609 0.0376,-0.0277 -0.3972,0.23897 -0.35626,0.21657 0.0409,-0.0224 -0.41946,0.17394 -0.37589,0.15723 0.0134,-0.005 -0.0636,0.0226 -0.11868,0.0393 -0.12393,0.0374 -0.29846,0.0958 -0.26703,0.0883 a 2.0419423,2.0419423 0 0 1 -0.20769,0.0687 z"
           style="fill:#000000;stroke:none" />
        <path
           id="path4152"
           d="m 205.06933,184.679 c -2.1213,0.68925 -4.39241,-0.26125 -5.42892,-2.14617 3.22116,-0.55864 6.04287,-2.31141 7.69556,-4.83336 0.26104,0.36818 0.50618,0.74884 0.653,1.20072 0.78038,2.40168 -0.51796,4.99845 -2.91964,5.77881 z"
           style="fill:#ffffff;stroke:none" />
        <path
           sodipodi:nodetypes="ccc"
           id="path4154"
           d="m 208.58131,174.87303 c -0.99618,3.32193 -3.56007,6.11458 -7.10266,7.28618 -1.61519,0.53417 -3.26167,0.68585 -4.84338,0.4827"
           style="fill:none;stroke:#ffffff;stroke-width:2;stroke-linecap:round;stroke-miterlimit:4;stroke-opacity:1;stroke-dasharray:none" />
        <path
           style="fill:#ffffff;stroke:none"
           d="m 197.37223,159.62701 c -2.19577,0.39184 -3.75089,2.30048 -3.77675,4.45143 3.10421,-1.02557 6.41902,-0.80928 9.06522,0.63616 0.0567,-0.44776 0.0935,-0.89903 0.0101,-1.36677 -0.44359,-2.48602 -2.81251,-4.16444 -5.29853,-3.72082 z"
           id="path4156" />
        <path
           style="fill:none;stroke:#ffffff;stroke-width:2;stroke-linecap:round;stroke-miterlimit:4;stroke-opacity:1;stroke-dasharray:none"
           d="m 205.09112,166.62056 c -2.44418,-2.4604 -6.02161,-3.71515 -9.69826,-3.07893 -1.67632,0.29009 -3.19997,0.93227 -4.49927,1.85688"
           id="path4158"
           sodipodi:nodetypes="ccc" />
      </g>
    </g>
  </g>
</svg>
