<?xml version="1.0" encoding="UTF-8" standalone="no"?>
<!-- Created with Inkscape (http://www.inkscape.org/) -->
<svg
   xmlns:dc="http://purl.org/dc/elements/1.1/"
   xmlns:cc="http://creativecommons.org/ns#"
   xmlns:rdf="http://www.w3.org/1999/02/22-rdf-syntax-ns#"
   xmlns:svg="http://www.w3.org/2000/svg"
   xmlns="http://www.w3.org/2000/svg"
   xmlns:sodipodi="http://sodipodi.sourceforge.net/DTD/sodipodi-0.dtd"
   xmlns:inkscape="http://www.inkscape.org/namespaces/inkscape"
   width="250"
   height="250"
   id="svg2"
   sodipodi:version="0.32"
   inkscape:version="0.46"
   version="1.0"
   sodipodi:docname="Tree-icon.svg"
   inkscape:output_extension="org.inkscape.output.svg.inkscape">
  <defs
     id="defs4">
    <inkscape:perspective
       sodipodi:type="inkscape:persp3d"
       inkscape:vp_x="0 : 526.18109 : 1"
       inkscape:vp_y="0 : 1000 : 0"
       inkscape:vp_z="744.09448 : 526.18109 : 1"
       inkscape:persp3d-origin="372.04724 : 350.78739 : 1"
       id="perspective10" />
    <inkscape:perspective
       id="perspective3217"
       inkscape:persp3d-origin="372.04724 : 350.78739 : 1"
       inkscape:vp_z="744.09448 : 526.18109 : 1"
       inkscape:vp_y="0 : 1000 : 0"
       inkscape:vp_x="0 : 526.18109 : 1"
       sodipodi:type="inkscape:persp3d" />
    <clipPath
       clipPathUnits="userSpaceOnUse"
       id="clipPath3225">
      <rect
         style="opacity:1;fill:none;fill-opacity:1;stroke:#000000;stroke-width:2;stroke-linecap:round;stroke-linejoin:round;stroke-miterlimit:4;stroke-dasharray:none;stroke-opacity:1"
         id="rect3227"
         width="222.69353"
         height="203.34041"
         x="25.185577"
         y="22.799574"
         ry="1.5592785"
         transform="matrix(0.9999863,-5.2359638e-3,5.2359638e-3,0.9999863,0,0)" />
    </clipPath>
  </defs>
  <sodipodi:namedview
     id="base"
     pagecolor="#ffffff"
     bordercolor="#666666"
     borderopacity="1.0"
     gridtolerance="10000"
     guidetolerance="10"
     objecttolerance="10"
     inkscape:pageopacity="0.0"
     inkscape:pageshadow="2"
     inkscape:zoom="3.772"
     inkscape:cx="83.64263"
     inkscape:cy="125"
     inkscape:document-units="px"
     inkscape:current-layer="layer1"
     showgrid="false"
     inkscape:window-width="1916"
     inkscape:window-height="1150"
     inkscape:window-x="0"
     inkscape:window-y="14" />
  <metadata
     id="metadata7">
    <rdf:RDF>
      <cc:Work
         rdf:about="">
        <dc:format>image/svg+xml</dc:format>
        <dc:type
           rdf:resource="http://purl.org/dc/dcmitype/StillImage" />
      </cc:Work>
    </rdf:RDF>
  </metadata>
  <g
     inkscape:label="Layer 1"
     inkscape:groupmode="layer"
     id="layer1">
    <g
       id="g3227">
      <rect
         y="30"
         x="30"
         height="190"
         width="190"
         id="rect3236"
         style="fill:#ffffff;fill-opacity:1;stroke:none;stroke-width:2;stroke-linecap:round;stroke-linejoin:round;stroke-miterlimit:4;stroke-dasharray:none;stroke-opacity:1" />
      <path
         id="path3489"
         d="M 25,25 L 25,225 L 225,225 L 225,25 L 25,25 z"
         style="fill:#000000;fill-opacity:1;stroke:none;stroke-width:2;stroke-linecap:round;stroke-linejoin:round;stroke-miterlimit:4;stroke-dasharray:none;stroke-opacity:1" />
      <path
         id="rect3234"
         d="M 125,66 C 157.568,66 184,92.431996 184,125 C 184,157.568 157.568,184 125,184 C 92.432,183.99999 66,157.568 66,125 C 65.999999,92.431996 92.432,66 125,66 z"
         style="fill:#ffffff;fill-opacity:1;stroke:none;stroke-width:2;stroke-linecap:round;stroke-linejoin:round;stroke-miterlimit:4;stroke-dasharray:none;stroke-opacity:1" />
      <path
         id="path3424"
         d="M 114.875,9.1875 C 113.94788,9.216994 113.04828,9.5096343 112.28125,10.03125 C 108.43294,12.675283 106.01019,16.174616 104.625,19.8125 C 102.0256,19.107725 98.706349,18.674567 94.5,19.28125 C 92.261436,19.603186 90.520606,21.40425 90.3125,23.65625 C 90.104392,25.90825 91.483341,28.023291 93.625,28.75 C 103.95779,32.253419 108.88225,38.857157 111.4375,47.1875 C 113.99275,55.517843 113.64612,65.575687 112.09375,74.15625 C 111.99955,74.704315 111.99955,75.264435 112.09375,75.8125 C 109.32572,77.711861 107.09147,79.724442 105.0625,81.6875 C 101.59755,81.431697 99.123797,79.912417 97.09375,77.375 C 94.759624,74.457506 93.311941,70.18883 93.15625,66.34375 C 92.847451,58.71747 96.166321,56.026216 100.0625,54.3125 C 102.26676,53.321917 103.42965,50.859249 102.78125,48.53125 C 102.13284,46.20325 99.867713,44.708478 97.46875,45 C 93.662802,45.48119 90.271215,46.338935 87.1875,48.28125 C 85.378206,49.420856 83.772078,50.91979 82.1875,52.65625 C 79.782866,50.796956 77.142083,49.289416 74.5625,48.0625 C 74.356989,47.627485 73.779617,46.106579 73.875,43.8125 C 73.982718,41.221746 74.758719,38.131231 75.75,36 C 76.672134,34.00534 76.144907,31.63984 74.46875,30.21875 C 72.792593,28.797659 70.379429,28.67022 68.5625,29.90625 C 64.397795,32.745297 62.139908,36.965857 61.25,40.96875 C 60.812067,42.938616 60.646494,44.899135 60.625,46.75 C 54.862431,47.005466 47.21594,48.529821 39.9375,54.21875 C 38.064123,55.6801 37.507311,58.27837 38.625,60.375 C 39.742689,62.471631 42.211243,63.459526 44.46875,62.71875 C 60.018002,57.611481 68.74048,60.80405 74.8125,66.65625 C 80.88452,72.50845 84.085584,82.017797 85.03125,89.65625 C 85.216953,91.138665 86.058668,92.452246 87.28125,93.21875 C 87.248195,93.221317 87.157828,93.218483 87.15625,93.21875 C 86.563596,93.316566 85.998813,93.540348 85.5,93.875 C 83.627274,95.112402 81.92291,96.526483 80.40625,98.28125 C 78.348432,95.134314 76.580893,92.2608 76.25,91.25 C 74.913504,87.167324 75.190706,82.607129 77.875,79 C 79.186369,77.227048 79.147235,74.793722 77.78125,73.0625 C 76.415266,71.33128 74.060611,70.730767 72.03125,71.59375 C 67.578394,73.511217 65.218293,77.547209 64.0625,81.15625 C 63.618506,82.54265 63.390933,83.86901 63.1875,85.1875 C 59.797526,84.627473 56.054953,84.167234 51.65625,84.1875 C 49.79588,84.196071 44.279329,83.221143 39.90625,81.15625 C 35.533171,79.091357 32.614717,76.324491 32.15625,73.25 C 31.772264,70.752424 29.553469,68.970909 27.03125,69.125 C 24.509032,69.279089 22.514595,71.318005 22.4375,73.84375 C 22.331601,77.946078 23.353029,81.523139 25,84.46875 C 23.845745,84.860016 22.731908,85.334499 21.65625,85.9375 C 20.199781,86.753978 18.832314,87.785395 17.5625,89 C 16.681507,89.851432 16.185076,91.024815 16.1875,92.25 L 16.1875,92.28125 C 16.189583,94.085666 17.277575,95.729991 18.9375,96.4375 C 20.597424,97.145012 22.509351,96.779337 23.8125,95.53125 C 24.610072,94.768355 25.349252,94.229856 26.09375,93.8125 C 27.867544,92.818134 29.983518,92.313565 32.78125,92.21875 C 32.788817,92.223305 32.804932,92.214204 32.8125,92.21875 C 35.600645,93.893712 38.448589,95.016868 40.84375,96 C 45.442554,97.887652 49.799859,97.940066 53.53125,98.4375 C 57.262641,98.934934 60.293656,99.649938 63.3125,101.96875 C 70.340525,107.36706 72.864728,113.95806 72.125,117.125 C 71.952708,117.86262 71.184103,118.68726 68.96875,119.375 C 66.753397,120.06274 63.610209,120.14898 61.59375,119.78125 C 61.42835,119.75109 61.22568,119.72872 60.53125,119.03125 C 59.83682,118.33378 58.865614,117.02779 57.59375,115.5 C 55.050022,112.44443 50.862794,108.42458 44.15625,107.09375 C 41.854034,106.67152 39.572243,107.94554 38.71875,110.125 C 37.865258,112.30445 38.67954,114.77782 40.65625,116.03125 C 41.412325,116.49876 42.095459,117.33379 42.84375,118 C 33.399245,116.02786 26.535128,112.21907 19.40625,101.71875 C 18.030432,99.746014 15.413505,99.074377 13.25,100.125 C 11.086494,101.17562 10.019139,103.63639 10.71875,105.9375 C 11.930256,109.82077 13.882225,113.46812 15.84375,116.5625 C 16.323008,117.31855 16.760879,117.89619 17.21875,118.5625 C 13.778936,120.76368 10.499672,123.71493 8.5625,127.84375 C 7.5951868,129.89951 8.1866652,132.34074 9.96875,133.75 C 11.750835,135.15926 14.25381,135.16512 16.03125,133.75 C 21.361916,129.53093 23.802154,128.77656 30.8125,129.46875 C 37.443094,130.12344 44.257391,133.53992 53.71875,133.71875 C 63.076634,133.89561 78.113297,131.57359 88.59375,135.0625 C 93.041586,136.54318 98.080029,140.11334 102.53125,143.625 C 102.18123,145.29589 101.96875,146.98827 101.96875,148.71875 L 101.96875,199.09375 C 98.991007,199.95527 95.687782,201.103 92.25,202.90625 C 88.246337,205.00632 84.207625,207.89174 81.75,212.125 C 77.532033,212.23871 73.268689,212.52725 69.28125,213.625 C 64.326348,214.9891 59.372431,217.83997 57.15625,223.125 C 56.907689,223.72876 56.782297,224.3676 56.78125,225 L 198.3125,225 C 198.3146,224.62356 198.27451,224.24782 198.1875,223.875 C 197.40149,220.56271 195.07972,218.14869 192.625,216.59375 C 190.17028,215.03881 187.43163,214.08531 184.59375,213.40625 C 180.19564,212.35385 175.7305,212.09762 171.6875,212.0625 C 170.85532,210.73437 169.76356,209.57913 168.59375,208.53125 C 166.32377,206.49786 163.49012,204.74493 160.21875,203.21875 C 154.90504,200.73976 148.42032,198.95425 141.53125,198.28125 L 141.53125,134.21875 C 147.18085,126.53505 156.38993,122.69765 163.46875,123.625 C 170.03217,124.48483 172.62485,126.20376 175.3125,128.375 C 178.00015,130.54624 180.91398,133.8574 186.28125,135.8125 C 196.08387,139.38322 206.69156,137.63388 216.125,131.3125 C 224.87593,125.44847 228.79835,121.82798 239,122.0625 C 241.4005,122.11011 243.4788,120.39387 243.90625,118.03125 C 244.3337,115.66863 242.98377,113.35898 240.71875,112.5625 C 238.27615,111.72504 235.32424,111.19035 232.21875,111.03125 C 232.78886,109.81068 233.32057,108.5469 233.75,107.15625 C 234.33355,105.2665 234.74159,103.22048 235.03125,101 C 235.14709,100.91834 235.2655,100.8443 235.375,100.75 C 237.40432,98.762109 240.28407,97.562403 243,97.46875 C 245.35285,97.379732 247.21532,95.448277 247.21875,93.09375 L 247.21875,93.0625 C 247.21684,91.875431 246.72898,90.730783 245.875,89.90625 C 245.02102,89.081714 243.87391,88.647773 242.6875,88.6875 C 240.15802,88.774722 237.68096,89.334648 235.375,90.34375 C 235.25395,88.03014 235.02395,85.543361 234.6875,82.875 C 234.37684,80.191241 231.96501,78.28309 229.28125,78.59375 C 226.59749,78.90441 224.65809,81.316241 224.96875,84 C 226.05888,94.901357 222.02134,104.16287 216.34375,110.875 C 210.66616,117.58713 203.0346,121.25093 199.53125,121.3125 C 194.89155,121.39404 191.7293,120.23162 189.3125,118.6875 C 191.95018,117.38219 194.29976,115.61832 196.375,113.3125 C 197.92016,111.59124 198.05471,109.02199 196.6875,107.15625 C 195.3203,105.29051 192.82553,104.6389 190.71875,105.59375 C 186.89208,107.34308 184.64191,107.26202 178.71875,107.53125 C 175.78027,107.66482 171.10511,105.7028 163.84375,105.96875 C 165.5626,100.46341 168.62211,97.696942 172.21875,95.78125 C 176.96033,93.255724 182.84229,92.75073 187.0625,92.375 C 190.81382,92.041015 196.44193,92.148486 202.21875,90.46875 C 207.99557,88.789014 214.08829,84.714156 217.15625,77.125 C 218.08005,74.874532 217.22203,72.295583 215.125,71.0625 C 213.02798,69.82942 210.33003,70.3174 208.8125,72.21875 C 206.04345,75.680073 203.99646,77.017055 201.71875,77.75 C 199.44104,78.482945 196.53102,78.562014 192.4375,78.375 C 188.31185,78.186518 183.7395,78.237858 179.125,78.78125 C 180.83733,75.432924 182.269,71.38929 183.125,66.625 C 190.74192,60.731857 194.09125,56.337986 215.40625,55.78125 C 217.77316,55.694427 219.73185,53.939062 220.0625,51.59375 C 220.39314,49.248438 219.00065,46.987824 216.75,46.25 C 207.11642,43.188866 194.28937,44.323302 183.65625,49.28125 C 183.2635,46.652304 183.07899,44.010425 183.28125,41.15625 C 183.50868,37.946935 187.56699,31.525434 191.0625,28.6875 C 192.4493,27.558957 193.10682,25.758077 192.78125,24 C 192.45568,22.241923 191.19896,20.807106 189.5,20.25 C 186.37559,19.229787 184.72571,20.459248 183.3125,21.25 C 181.89929,22.040752 180.61945,22.988642 179.3125,24.09375 C 178.31775,24.934872 177.44688,25.930308 176.46875,26.875 C 174.23966,23.814131 171.18645,20.765468 166.65625,19.03125 C 164.58191,18.245005 162.22828,18.945846 160.9375,20.75 C 159.64673,22.554154 159.74237,25.009358 161.15625,26.71875 C 164.65014,30.915957 166.29522,32.675053 167.34375,35.125 C 168.39228,37.574947 169.17106,41.58224 169.84375,50.21875 C 171.09859,66.329176 165.15516,77.895016 153.5625,83.3125 C 151.82166,84.128918 150.72102,85.889941 150.75,87.8125 C 150.87319,96.538344 149.1259,102.28335 146.71875,105.6875 C 144.3116,109.09165 141.31219,110.62698 136.9375,110.96875 C 135.30476,111.09631 133.70283,111.49364 132.125,112 C 130.83877,110.43815 129.85787,108.96193 129.75,107.09375 C 129.56486,103.88758 129.66642,104.66072 130.5,104 C 130.91679,103.66964 131.77782,103.16704 132.9375,102.1875 C 134.09718,101.20796 135.49342,99.538487 136.15625,97.4375 C 138.2103,90.926689 135.44006,85.198196 133.21875,81.6875 C 132.93801,81.243801 132.72114,80.938565 132.46875,80.5625 C 134.04683,80.04616 135.69844,79.62685 137.40625,79.3125 C 139.7752,78.898051 141.47641,76.810863 141.4375,74.40625 C 141.39859,72.001634 139.63112,69.993837 137.25,69.65625 C 134.248,69.211377 131.43461,69.286007 128.71875,69.5625 C 128.6223,68.755176 128.46199,68.268976 128.40625,67.3125 C 128.12673,62.516426 128.4701,53.792446 131.78125,45.28125 C 135.0924,36.770054 141.09957,28.461006 152.8125,23.28125 C 154.88158,22.350617 156.02579,20.133469 155.59375,17.90625 C 155.16171,15.679031 153.26697,14.027027 151,13.9375 C 146.21982,13.791976 142.05532,14.971742 138.09375,16.84375 C 135.99084,13.95649 132.66232,10.809775 127.21875,10.25 C 125.02861,10.017768 122.95909,11.292868 122.15625,13.34375 C 121.35341,15.394632 122.01549,17.714908 123.78125,19.03125 C 126.49995,21.084467 127.32906,21.867576 127.5625,24.375 C 125.99404,25.950871 123.28279,28.567614 120.0625,32.84375 C 116.29515,28.185582 116.09268,22.481018 119.375,16.375 C 120.19954,14.830299 120.14793,12.952862 119.21875,11.46875 C 118.28956,9.9846379 116.62471,9.1204975 114.875,9.1875 z M 119.78125,88.84375 C 119.83016,89.101692 119.99635,89.470284 120,89.6875 C 120.01706,90.702779 119.63942,91.698122 119.3125,92.1875 C 119.21353,92.06889 118.90038,91.703499 118.875,90.3125 C 118.87502,90.313634 119.28435,89.598242 119.78125,88.84375 z M 90.8125,94.375 C 99.984411,97.06025 106.07058,100.98881 110.0625,105.625 C 113.90522,110.08791 115.90578,115.39892 116.59375,121.53125 C 114.54236,123.37556 112.64947,125.38974 110.875,127.5625 C 110.74056,127.51109 109.85125,127.06164 109.9375,127.15625 C 108.81503,125.92499 108.28885,123.27347 106.4375,119.53125 C 104.59976,115.81654 101.64404,112.98751 98.09375,110.6875 C 96.160421,109.45594 93.620878,109.72287 92,111.34375 C 90.379122,112.96463 90.112195,115.50417 91.34375,117.4375 C 91.633076,117.88498 91.7766,118.40531 91.96875,118.90625 C 91.074024,118.55933 90.354889,118.08768 89.78125,117.5 C 88.756412,116.45009 87.932207,114.84367 87.53125,112.40625 C 87.140832,110.03288 86.254693,107.91262 85.1875,105.90625 C 86.575569,103.53364 87.929484,102.36698 90.1875,100.875 C 91.329371,100.11951 92.025173,98.868666 92.0625,97.5 C 92.094352,96.332112 91.629655,95.185425 90.8125,94.375 z"
         style="fill:#000000;fill-opacity:1;fill-rule:evenodd;stroke:none;stroke-width:3;stroke-linecap:round;stroke-linejoin:round;stroke-miterlimit:4;stroke-dasharray:none;stroke-opacity:1" />
      <path
         id="path3517"
         d="M 115.59375,35 C 116.1965,35.874478 116.88771,36.698704 117.65625,37.5 L 122.71875,37.5 C 123.3288,36.617318 123.94242,35.787047 124.5625,35 L 115.59375,35 z"
         style="fill:#ffffff;fill-opacity:1;stroke:none;stroke-width:2;stroke-linecap:round;stroke-linejoin:round;stroke-miterlimit:4;stroke-dasharray:none;stroke-opacity:1" />
      <path
         id="path3519"
         d="M 35,35 L 35,84.03125 C 35.803227,84.524209 36.646552,84.990723 37.5,85.40625 L 37.5,37.5 L 112.4375,37.5 C 111.90707,36.635635 111.3052,35.815261 110.6875,35 L 35,35 z"
         style="fill:#ffffff;fill-opacity:1;stroke:none;stroke-width:2;stroke-linecap:round;stroke-linejoin:round;stroke-miterlimit:4;stroke-dasharray:none;stroke-opacity:1" />
      <path
         id="path3510"
         d="M 131.5625,35 C 131.02768,35.824143 130.5321,36.661042 130.0625,37.5 L 173.1875,37.5 C 172.98616,36.585598 172.74188,35.757626 172.5,35 L 131.5625,35 z"
         style="fill:#ffffff;fill-opacity:1;stroke:none;stroke-width:2;stroke-linecap:round;stroke-linejoin:round;stroke-miterlimit:4;stroke-dasharray:none;stroke-opacity:1" />
      <path
         id="path3508"
         d="M 35,87.8125 L 35,120.6875 C 35.819574,120.99496 36.654307,121.2699 37.5,121.53125 L 37.5,89.1875 C 36.650948,88.766876 35.805531,88.308085 35,87.8125 z"
         style="fill:#ffffff;fill-opacity:1;stroke:none;stroke-width:2;stroke-linecap:round;stroke-linejoin:round;stroke-miterlimit:4;stroke-dasharray:none;stroke-opacity:1" />
      <path
         id="path3501"
         d="M 35,125.1875 L 35,215 L 85.625,215 C 86.100063,214.11587 86.708058,213.28663 87.40625,212.5 L 37.5,212.5 L 37.5,125.71875 C 36.674892,125.52191 35.838771,125.35133 35,125.1875 z"
         style="fill:#ffffff;fill-opacity:1;stroke:none;stroke-width:2;stroke-linecap:round;stroke-linejoin:round;stroke-miterlimit:4;stroke-dasharray:none;stroke-opacity:1" />
      <path
         id="path3499"
         d="M 180.0625,35 C 179.67506,35.824634 179.35798,36.673591 179.09375,37.5 L 212.5,37.5 L 212.5,50.21875 C 213.37134,50.39003 214.20643,50.602642 215,50.84375 L 215,35 L 180.0625,35 z"
         style="fill:#ffffff;fill-opacity:1;stroke:none;stroke-width:2;stroke-linecap:round;stroke-linejoin:round;stroke-miterlimit:4;stroke-dasharray:none;stroke-opacity:1" />
      <path
         id="path3497"
         d="M 215,50.90625 C 214.1285,50.930908 213.32043,50.991406 212.5,51.03125 L 212.5,75.4375 C 212.54315,75.384173 212.58178,75.335272 212.625,75.28125 C 212.58565,75.378596 212.54028,75.466788 212.5,75.5625 L 212.5,121.09375 C 213.34038,120.49344 214.17412,119.85248 215,119.15625 L 215,50.90625 z"
         style="fill:#ffffff;fill-opacity:1;stroke:none;stroke-width:2;stroke-linecap:round;stroke-linejoin:round;stroke-miterlimit:4;stroke-dasharray:none;stroke-opacity:1" />
      <path
         id="rect3229"
         d="M 215,126.15625 C 214.46793,126.51706 213.96067,126.87848 213.40625,127.25 C 213.10681,127.45065 212.79989,127.62269 212.5,127.8125 L 212.5,212.5 L 165.6875,212.5 C 166.55667,213.3275 167.23558,214.1816 167.6875,215 L 215,215 L 215,126.15625 z"
         style="fill:#ffffff;fill-opacity:1;stroke:none;stroke-width:2;stroke-linecap:round;stroke-linejoin:round;stroke-miterlimit:4;stroke-dasharray:none;stroke-opacity:1" />
      <path
         sodipodi:nodetypes="cccccssscccsccscscsccccscccscscccc"
         id="path3263"
         d="M 193.4375,225 C 191.77033,217.97443 176.86118,216.52735 168.34375,216.875 C 167.72517,210.86582 152.38619,202.98924 136.65625,202.8125 L 136.65625,132.5625 M 131.21875,152.1875 C 130.51178,129.65304 149.41337,116.85808 164.09375,118.78125 C 178.80596,120.70859 179.5327,128.1458 187.96875,131.21875 C 196.31631,134.25945 204.95494,132.91325 213.40625,127.25 C 221.97818,121.50592 227.59266,116.92239 239.125,117.1875 C 234.48555,115.59683 227.16326,114.96416 221.375,117.96875 C 228.04697,110.89911 232.4065,103.82521 229.84375,83.5 C 232.31811,108.24373 211.42609,125.98011 199.625,126.1875 C 187.82132,126.39494 182.22437,119.11448 179.75,116.375 C 185.49408,115.75641 189.171,114.00792 192.75,110.03125 C 188.11055,112.15214 184.76995,112.14114 178.9375,112.40625 C 173.10505,112.67136 168.00097,109.28319 157.75,111.625 C 159.95925,89.31146 178.40501,88.231834 186.625,87.5 C 194.94369,86.759376 207.58788,87.741483 212.625,75.28125 C 206.26234,83.234594 200.65869,83.635581 192.21875,83.25 C 183.51426,82.852331 172.99317,83.480172 165.4375,88.03125 C 168.75141,85.424321 176.69916,78.752486 178.6875,63.90625 C 187.03852,57.80869 191.59797,51.524844 215.28125,50.90625 C 205.8256,47.901654 190.09037,50.002596 180.28125,56.71875 C 178.69057,51.504894 178.00859,46.424024 178.40625,40.8125 C 178.80568,35.176106 183.50604,28.529438 187.96875,24.90625 C 185.80367,24.199287 179.60923,30.167672 175.5,34.71875 C 173.77678,31.051375 170.56196,25.758826 164.90625,23.59375 C 171.71078,31.768016 173.35045,32.276579 174.71875,49.84375 C 176.0885,67.429467 169.14568,81.431513 155.625,87.75 C 155.89011,106.52873 148.36044,114.98063 137.3125,115.84375 C 126.00109,116.72745 106.84375,133.48798 106.84375,148.71875 L 106.84375,202.8125 C 100.79037,204.09387 87.366897,208.61234 84.84375,216.875 C 74.805609,216.91845 64.596801,217.98753 61.65625,225"
         style="fill:none;fill-rule:evenodd;stroke:#ffffff;stroke-width:3;stroke-linecap:round;stroke-linejoin:round;stroke-miterlimit:4;stroke-dasharray:none;stroke-opacity:1" />
      <path
         sodipodi:nodetypes="csscsssccscsssscccccsssc"
         id="path3265"
         d="M 112.28125,133.5625 C 109.92524,132.58314 107.47689,131.71474 106.3125,130.4375 C 103.98373,127.88302 103.43531,124.46242 102.0625,121.6875 C 100.68171,118.89644 98.542409,116.79273 95.4375,114.78125 C 98.110161,118.91484 98.692213,124.75411 94.107834,124.3458 C 87.416636,123.74985 83.760349,119.51939 82.71875,113.1875 C 81.685006,106.90333 73.319028,98.05156 71.59375,92.78125 C 69.841059,87.427198 70.215384,81.137489 73.96875,76.09375 C 68.443221,78.473126 67.576081,86.243452 67.59375,90.9375 C 63.369637,90.064213 58.021933,89.033316 51.6875,89.0625 C 45.618173,89.090461 28.926654,84.793299 27.3125,73.96875 C 27.023904,85.148445 35.639879,88.575941 42.6875,91.46875 C 49.73098,94.359858 58.393327,92.034938 66.28125,98.09375 C 74.295481,104.24958 78.292355,112.18199 76.875,118.25 C 75.495059,124.15781 66.447341,125.63843 60.71875,124.59375 C 54.990158,123.54907 53.957429,114.00596 43.21875,111.875 C 47.061195,114.25092 51.516513,118.68093 52.21875,124.34375 C 36.749194,122.58345 25.543167,119.44572 15.375,104.46875 C 17.401955,110.9658 22.526393,118.0663 24.65625,120.09375 C 20.423434,121.85609 15.029223,125.58124 13,129.90625 C 18.924118,125.21748 23.508946,123.8253 31.28125,124.59272 C 39.023195,125.35714 45.626878,128.68903 53.8125,128.84375 C 61.997404,128.99844 77.847807,126.35046 90.125,130.4375 C 96.558263,132.57912 103.07353,137.51062 108.09375,141.6875"
         style="fill:none;fill-rule:evenodd;stroke:#ffffff;stroke-width:3;stroke-linecap:butt;stroke-linejoin:round;stroke-miterlimit:4;stroke-dasharray:none;stroke-opacity:1" />
      <path
         sodipodi:nodetypes="cscccccccccc"
         id="path3283"
         d="M 124.625,75.15625 C 124.12889,73.16476 123.71287,70.710014 123.53125,67.59375 C 122.9088,56.913509 124.93997,30.267815 150.84375,18.8125 C 145.41855,18.64734 141.27571,20.374726 136.28125,23.34375 C 135.46567,21.307109 133.46411,15.818641 126.71875,15.125 C 130.59224,18.050343 132.55307,20.807987 132.5625,26.25 C 130.51573,28.649985 125.103,33.154554 120.90625,40.3125 C 111.9375,33.949768 109.9604,23.553819 115.0625,14.0625 C 110.35548,17.296525 108.06666,22.83966 108.15625,26.5 C 105.25232,25.04682 102.68619,23.043462 95.1875,24.125 C 118.70684,32.099432 120.19537,56.851022 116.90625,75.03125 C 117.56968,75.887405 118.17486,76.704432 118.75,77.46875"
         style="fill:none;fill-rule:evenodd;stroke:#ffffff;stroke-width:3;stroke-linecap:round;stroke-linejoin:round;stroke-miterlimit:4;stroke-dasharray:none;stroke-opacity:1" />
      <path
         sodipodi:nodetypes="ccccccccsccszsccsscc"
         d="M 121.71875,123.4375 C 120.80528,107.59784 112.06961,94.79417 89.875,89.0625 C 87.790904,72.228582 76.446203,47.056313 42.9375,58.0625 C 51.581503,51.306228 60.766573,51.285836 65.75,51.6875 C 65.16609,45.461381 65.182666,38.11616 71.3125,33.9375 C 68.693655,39.567957 67.846499,48.205907 71.0625,51.6875 C 74.661779,53.18351 80.295093,56.973186 82.71875,59.65625 C 88.058635,52.530197 91.129692,50.724223 98.09375,49.84375 C 92.862682,52.144611 87.900215,57.120986 88.28125,66.53125 C 88.672998,76.206188 95.024555,87.190765 106.84375,86.6875 C 113.09561,80.351789 122.64242,72.441783 136.53125,74.5 C 123.90895,76.823333 113.89474,84.63781 114,90.40625 C 114.08592,95.114639 116.63989,97.223807 119.5625,97.28125 C 122.48511,97.338693 124.94342,93.664548 124.875,89.59375 C 124.83099,86.97475 123.62619,84.371156 121.125,80.71875 C 122.4586,79.796642 123.91925,78.922314 125.53125,78.125 C 126.64944,80.967565 128.02525,82.623764 129.09375,84.3125 C 131.06343,87.425504 132.9438,91.392272 131.5,95.96875 C 130.07816,100.47561 124.3819,98.835558 124.875,107.375 C 125.14772,112.09801 128.12727,115.10088 130.625,117.78125"
         style="fill:none;fill-rule:evenodd;stroke:#ffffff;stroke-width:3;stroke-linecap:round;stroke-linejoin:round;stroke-miterlimit:4;stroke-dasharray:none;stroke-opacity:1"
         id="path3285" />
      <path
         id="path3319"
         d="M 155.59375,225 C 154.91399,221.82478 151.33364,219.90257 148.90625,220.125 C 148.60225,218.62459 146.38024,215.29449 143.6875,215.4375"
         style="fill:none;fill-rule:evenodd;stroke:#ffffff;stroke-width:3;stroke-linecap:round;stroke-linejoin:round;stroke-miterlimit:4;stroke-dasharray:none;stroke-opacity:1" />
      <path
         id="path3299"
         d="M 113.125,210.40625 C 107.49919,210.76129 102.48991,214.41664 101.25,220.125 C 96.572546,220.15345 92.743473,220.80069 91.15625,225"
         style="fill:none;fill-rule:evenodd;stroke:#ffffff;stroke-width:3;stroke-linecap:round;stroke-linejoin:round;stroke-miterlimit:4;stroke-dasharray:none;stroke-opacity:1" />
      <path
         sodipodi:nodetypes="cc"
         id="path3321"
         d="M 20.678685,92.258749 C 24.743726,88.370449 29.6041,87.398374 36.055143,87.751856"
         style="fill:none;fill-rule:evenodd;stroke:#ffffff;stroke-width:2;stroke-linecap:round;stroke-linejoin:miter;stroke-miterlimit:4;stroke-dasharray:none;stroke-opacity:1" />
      <path
         sodipodi:nodetypes="cc"
         id="path3323"
         d="M 229.85154,100.74231 C 232.59102,96.058677 237.71651,93.230823 242.84199,93.054083"
         style="fill:none;fill-rule:evenodd;stroke:#ffffff;stroke-width:2;stroke-linecap:round;stroke-linejoin:miter;stroke-miterlimit:4;stroke-dasharray:none;stroke-opacity:1" />
      <path
         sodipodi:nodetypes="cc"
         d="M 87.821021,97.362215 C 84.417309,99.611212 82.21938,101.95283 79.994459,106.77352"
         style="fill:none;fill-rule:evenodd;stroke:#ffffff;stroke-width:2;stroke-linecap:round;stroke-linejoin:round;stroke-miterlimit:4;stroke-dasharray:none;stroke-opacity:1"
         id="path3358" />
      <path
         sodipodi:nodetypes="cc"
         id="path3453"
         d="M 29.162248,139.18346 C 32.962177,132.2022 38.087663,128.93249 43.743372,126.98834"
         style="fill:none;fill-rule:evenodd;stroke:#ffffff;stroke-width:2;stroke-linecap:round;stroke-linejoin:miter;stroke-miterlimit:4;stroke-dasharray:none;stroke-opacity:1" />
      <path
         sodipodi:nodetypes="czzc"
         id="path3455"
         d="M 31.283139,95.705196 C 34.641216,97.826087 37.734182,98.621421 41.35737,98.621421 C 44.980558,98.621421 48.678125,97.80381 52.27349,96.984199 C 55.860795,96.166425 62.619525,96.828365 65.733399,98.465587"
         style="fill:none;fill-rule:evenodd;stroke:#ffffff;stroke-width:2;stroke-linecap:round;stroke-linejoin:miter;stroke-miterlimit:4;stroke-dasharray:none;stroke-opacity:1" />
      <path
         sodipodi:nodetypes="cc"
         id="path3457"
         d="M 58.589608,75.026511 C 62.654648,77.147402 66.454577,81.124072 68.398727,85.365854"
         style="fill:none;fill-rule:evenodd;stroke:#ffffff;stroke-width:2;stroke-linecap:round;stroke-linejoin:miter;stroke-miterlimit:4;stroke-dasharray:none;stroke-opacity:1" />
      <path
         sodipodi:nodetypes="cc"
         id="path3459"
         d="M 50.371156,42.682927 C 55.408272,38.087664 62.301167,39.32485 65.482503,44.008484"
         style="fill:none;fill-rule:evenodd;stroke:#ffffff;stroke-width:2;stroke-linecap:round;stroke-linejoin:miter;stroke-miterlimit:4;stroke-dasharray:none;stroke-opacity:1" />
      <path
         sodipodi:nodetypes="cc"
         id="path3461"
         d="M 89.077413,52.757158 C 89.430895,47.101449 89.254154,41.180629 82.979852,34.994698"
         style="fill:none;fill-rule:evenodd;stroke:#ffffff;stroke-width:2;stroke-linecap:round;stroke-linejoin:miter;stroke-miterlimit:4;stroke-dasharray:none;stroke-opacity:1" />
      <path
         style="fill:none;fill-rule:evenodd;stroke:#ffffff;stroke-width:2;stroke-linecap:round;stroke-linejoin:miter;stroke-miterlimit:4;stroke-dasharray:none;stroke-opacity:1"
         d="M 89.086882,52.757158 C 88.7334,47.101449 88.910141,41.180629 95.184443,34.994698"
         id="path3463"
         sodipodi:nodetypes="cc" />
      <path
         sodipodi:nodetypes="cc"
         id="path3465"
         d="M 117.97455,66.542948 C 116.9141,62.831389 112.67232,56.733829 104.18876,58.059385"
         style="fill:none;fill-rule:evenodd;stroke:#ffffff;stroke-width:2;stroke-linecap:round;stroke-linejoin:miter;stroke-miterlimit:4;stroke-dasharray:none;stroke-opacity:1" />
      <path
         sodipodi:nodetypes="cc"
         id="path3467"
         d="M 123.54189,59.384942 C 126.01626,52.580418 131.14175,47.631671 138.12301,46.924708"
         style="fill:none;fill-rule:evenodd;stroke:#ffffff;stroke-width:2;stroke-linecap:round;stroke-linejoin:miter;stroke-miterlimit:4;stroke-dasharray:none;stroke-opacity:1" />
      <path
         sodipodi:nodetypes="cc"
         id="path3469"
         d="M 174.17815,62.301166 C 170.28986,61.063979 165.34111,56.115235 164.89926,42.682927"
         style="fill:none;fill-rule:evenodd;stroke:#ffffff;stroke-width:2;stroke-linecap:round;stroke-linejoin:miter;stroke-miterlimit:4;stroke-dasharray:none;stroke-opacity:1" />
      <path
         sodipodi:nodetypes="cc"
         id="path3471"
         d="M 189.02439,51.696713 C 196.88936,50.724638 204.75433,44.980558 204.66596,34.464475"
         style="fill:none;fill-rule:evenodd;stroke:#ffffff;stroke-width:2;stroke-linecap:round;stroke-linejoin:miter;stroke-miterlimit:4;stroke-dasharray:none;stroke-opacity:1" />
      <path
         sodipodi:nodetypes="cc"
         id="path3473"
         d="M 185.31283,83.244963 C 182.75008,80.59385 190.26158,70.519618 199.09862,68.92895"
         style="fill:none;fill-rule:evenodd;stroke:#ffffff;stroke-width:2;stroke-linecap:round;stroke-linejoin:miter;stroke-miterlimit:4;stroke-dasharray:none;stroke-opacity:1" />
      <path
         sodipodi:nodetypes="cc"
         id="path3475"
         d="M 188.22906,99.416755 C 187.5221,94.114529 181.77801,89.342524 171.79215,90.933192"
         style="fill:none;fill-rule:evenodd;stroke:#ffffff;stroke-width:2;stroke-linecap:round;stroke-linejoin:miter;stroke-miterlimit:4;stroke-dasharray:none;stroke-opacity:1" />
      <path
         sodipodi:nodetypes="cc"
         id="path3477"
         d="M 168.34571,76.352068 C 168.9643,64.333687 156.06221,54.171085 142.36479,60.97561"
         style="fill:none;fill-rule:evenodd;stroke:#ffffff;stroke-width:2;stroke-linecap:round;stroke-linejoin:miter;stroke-miterlimit:4;stroke-dasharray:none;stroke-opacity:1" />
      <path
         sodipodi:nodetypes="cc"
         id="path3479"
         d="M 155.35525,59.11983 C 148.10887,53.110639 151.99717,37.55744 155.88547,32.343584"
         style="fill:none;fill-rule:evenodd;stroke:#ffffff;stroke-width:2;stroke-linecap:round;stroke-linejoin:miter;stroke-miterlimit:4;stroke-dasharray:none;stroke-opacity:1" />
      <path
         sodipodi:nodetypes="cc"
         id="path3481"
         d="M 151.11347,46.659597 C 147.57865,44.273595 146.42984,41.622481 146.87169,33.934252"
         style="fill:none;fill-rule:evenodd;stroke:#ffffff;stroke-width:2;stroke-linecap:round;stroke-linejoin:miter;stroke-miterlimit:4;stroke-dasharray:none;stroke-opacity:1" />
      <rect
         y="83.244965"
         x="222.16331"
         height="11.399788"
         width="4.5068927"
         id="rect2419"
         style="opacity:1;fill:#000000;fill-opacity:1;stroke:none;stroke-width:2;stroke-linecap:round;stroke-linejoin:round;stroke-miterlimit:4;stroke-dasharray:none;stroke-opacity:1" />
    </g>
  </g>
</svg>
