<?xml version="1.0" encoding="UTF-8" standalone="no"?>
<!-- Created with Inkscape (http://www.inkscape.org/) -->
<svg
   xmlns:dc="http://purl.org/dc/elements/1.1/"
   xmlns:cc="http://creativecommons.org/ns#"
   xmlns:rdf="http://www.w3.org/1999/02/22-rdf-syntax-ns#"
   xmlns:svg="http://www.w3.org/2000/svg"
   xmlns="http://www.w3.org/2000/svg"
   xmlns:xlink="http://www.w3.org/1999/xlink"
   xmlns:sodipodi="http://sodipodi.sourceforge.net/DTD/sodipodi-0.dtd"
   xmlns:inkscape="http://www.inkscape.org/namespaces/inkscape"
   width="500"
   height="250"
   id="svg2"
   sodipodi:version="0.32"
   inkscape:version="0.46"
   version="1.0"
   sodipodi:docname="Dragon-icon.svg"
   inkscape:output_extension="org.inkscape.output.svg.inkscape">
  <defs
     id="defs4">
    <inkscape:perspective
       sodipodi:type="inkscape:persp3d"
       inkscape:vp_x="0 : 526.18109 : 1"
       inkscape:vp_y="0 : 1000 : 0"
       inkscape:vp_z="744.09448 : 526.18109 : 1"
       inkscape:persp3d-origin="372.04724 : 350.78739 : 1"
       id="perspective10" />
    <inkscape:perspective
       id="perspective3217"
       inkscape:persp3d-origin="372.04724 : 350.78739 : 1"
       inkscape:vp_z="744.09448 : 526.18109 : 1"
       inkscape:vp_y="0 : 1000 : 0"
       inkscape:vp_x="0 : 526.18109 : 1"
       sodipodi:type="inkscape:persp3d" />
  </defs>
  <sodipodi:namedview
     id="base"
     pagecolor="#ffffff"
     bordercolor="#666666"
     borderopacity="1.0"
     gridtolerance="10000"
     guidetolerance="10"
     objecttolerance="10"
     inkscape:pageopacity="0.0"
     inkscape:pageshadow="2"
     inkscape:zoom="3.648"
     inkscape:cx="207.23684"
     inkscape:cy="125"
     inkscape:document-units="px"
     inkscape:current-layer="layer1"
     showgrid="false"
     inkscape:window-width="1920"
     inkscape:window-height="1150"
     inkscape:window-x="-8"
     inkscape:window-y="-8"
     showguides="true"
     inkscape:guide-bbox="true">
    <sodipodi:guide
       orientation="0,1"
       position="333.05921,257.12719"
       id="guide3433" />
  </sodipodi:namedview>
  <metadata
     id="metadata7">
    <rdf:RDF>
      <cc:Work
         rdf:about="">
        <dc:format>image/svg+xml</dc:format>
        <dc:type
           rdf:resource="http://purl.org/dc/dcmitype/StillImage" />
      </cc:Work>
    </rdf:RDF>
  </metadata>
  <g
     inkscape:label="Layer 1"
     inkscape:groupmode="layer"
     id="layer1">
    <g
       id="g3437">
      <path
         transform="translate(-26.994565,-3.796875)"
         d="M 460.21875,45.75 C 457.70789,45.963751 455.07932,47.665784 455.125,50.03125 C 455.19135,53.468021 461.99639,56.15133 462.15625,59 C 462.3223,61.95886 460.39893,63.985151 457.53125,64.15625 C 454.66802,64.32708 453.37786,61.7717 450.96875,61.8125 C 448.67016,61.851429 447.46811,64.98675 447.53125,67.25 C 447.59439,69.513247 448.75006,71.896727 451.40625,71.96875 C 454.06315,72.040791 457.22774,67.683122 460.90625,69.375 C 464.58477,71.066878 464.01513,79.791833 463.8125,85.8125 C 463.60984,91.833168 459.66641,105.7362 456.625,106.15625 C 453.47509,106.59128 452.1124,102.07094 446,103.1875 C 442.98826,103.73766 440.0373,106.34721 437.3125,110.09375 C 425.88126,96.638215 407.91281,88.721949 395.96875,88.59375 L 367.65625,82 C 340.53261,105.6967 400.83201,104.95614 405.15625,129.59375 C 408.64759,149.48592 393.69382,158.88025 376.5,156.46875 L 376.5,162.53125 C 372.00571,162.991 365.39844,165.0904 361.625,171.625 C 366.02299,168.29425 371.89709,166.81337 376.5,167.75 L 376.5,174.84375 C 374.46139,176.22262 372.54835,178.01197 371.40625,180.09375 C 372.57029,179.21107 374.46885,178.63131 376.5,178.375 L 376.5,202.75 C 385.6272,202.49811 394.17334,200.51464 401.96875,197.3125 C 405.14817,198.95273 408.31823,200.45759 411.09375,201.46875 C 420.71854,204.97519 436.53736,207.48073 437.96875,210.875 C 439.43336,214.34803 433.18014,214.6697 433.21875,218.5625 C 433.25734,222.45327 437.35455,223.95061 440.375,222.21875 C 443.39544,220.48689 441.81053,214.66375 443.25,213.1875 C 444.73548,211.66404 447.53985,211.77592 449.5625,214.21875 C 451.58514,216.66158 448.79831,224.30071 451.8125,225.46875 C 454.7457,226.60542 458.10525,224.63444 458.59375,221.46875 C 459.08226,218.30306 454.79951,217.21705 454.40625,215.125 C 453.9927,212.92506 455.24497,211.60612 457.75,211.40625 C 460.25504,211.20637 462.40665,216.02083 465.75,214.9375 C 469.06504,213.86335 470.15324,209.32468 467.71875,207.0625 C 465.28425,204.80032 459.58415,208.93064 457.5625,207.4375 C 455.54084,205.94436 455.48985,204.41455 457,202.03125 C 458.51016,199.64794 463.29187,199.90708 466.59375,198.78125 C 469.86828,197.66475 466.91766,190.65274 463.4375,190.78125 C 459.95733,190.90976 459.41054,195.70837 456.375,197.46875 C 453.379,199.2062 451.91865,197.43576 451.0625,195.4375 C 450.20635,193.43924 453.27884,189.60003 452.09375,187.15625 C 450.87205,184.63696 444.43765,183.80213 443.53125,187.0625 C 442.6009,190.40907 446.7304,195.33509 444.9375,197.9375 C 443.07119,200.64645 433.78375,199.83623 428.375,198.21875 C 424.76535,197.13929 418.74706,193.21017 415.40625,190.125 C 417.94835,188.43 420.3986,186.61813 422.6875,184.6875 C 424.76101,184.33741 426.90761,183.80607 428.84375,182.875 C 435.10368,179.86465 442.75243,170.83128 442.5,164 C 442.45564,162.79971 442.25766,161.71408 441.9375,160.71875 C 445.7261,153.32014 447.9081,145.79604 448.125,138.9375 C 452.87562,139.12712 458.33256,143.67826 458.71875,147.21875 C 461.72692,144.17421 461.3546,137.61588 461.21875,133.0625 C 463.957,135.36276 465.67981,137.1359 467,141.34375 C 468.43074,137.59252 467.73828,128.38796 466.6875,123.4375 C 469.83736,124.89852 472.86943,127.60382 474.1875,130.5 C 476.3899,125.6582 475.88552,113.2549 475.53125,105.9375 C 475.17699,98.620095 473.27422,91.649104 473.28125,86.5 C 473.28812,81.461438 475.01316,78.389084 477.15625,78.4375 C 479.30469,78.486036 480.73324,83.035847 484,83.03125 C 487.23608,83.026694 488.57819,78.936609 487.09375,76.28125 C 485.6093,73.625889 482.14173,76.127155 479.9375,74.0625 C 477.67734,71.945462 477.74683,68.576687 480.6875,67.53125 C 483.62817,66.485815 487.01259,70.236257 489.125,68.0625 C 491.2374,65.888745 490.11959,60.573605 487.125,59.40625 C 484.1304,58.238892 481.92636,64.056681 479.1875,64.0625 C 476.44666,64.068322 474.94322,61.515383 475.34375,58.9375 C 475.74429,56.359617 480.52536,55.203617 480.46875,52.125 C 480.41215,49.046384 476.14247,45.070736 473.09375,46.25 C 470.04502,47.429262 473.3236,54.887966 471.34375,56.6875 C 469.3639,58.487032 467.30285,58.052606 465.3125,56.4375 C 463.32214,54.822395 466.02918,48.381085 463.3125,46.46875 C 462.47948,45.882366 461.36005,45.65284 460.21875,45.75 z"
         inkscape:href="#path3287"
         id="path3335"
         style="fill:#00ff00;fill-rule:evenodd;stroke:none;stroke-width:3;stroke-linecap:round;stroke-linejoin:round;stroke-miterlimit:4;stroke-dasharray:none;stroke-opacity:1"
         xlink:href="#path3287"
         inkscape:original="M 460.21875 45.75 C 457.70789 45.963751 455.07932 47.665784 455.125 50.03125 C 455.19135 53.468021 461.99639 56.15133 462.15625 59 C 462.3223 61.95886 460.39893 63.985151 457.53125 64.15625 C 454.66802 64.32708 453.37786 61.7717 450.96875 61.8125 C 448.67016 61.851429 447.46811 64.98675 447.53125 67.25 C 447.59439 69.513247 448.75006 71.896727 451.40625 71.96875 C 454.06315 72.040791 457.22774 67.683122 460.90625 69.375 C 464.58477 71.066878 464.01513 79.791833 463.8125 85.8125 C 463.60984 91.833168 459.66641 105.7362 456.625 106.15625 C 453.47509 106.59128 452.1124 102.07094 446 103.1875 C 442.98826 103.73766 440.0373 106.34721 437.3125 110.09375 C 425.88126 96.638215 407.91281 88.721949 395.96875 88.59375 L 367.65625 82 C 340.53261 105.6967 400.83201 104.95614 405.15625 129.59375 C 408.64759 149.48592 393.69382 158.88025 376.5 156.46875 L 376.5 162.53125 C 372.00571 162.991 365.39844 165.0904 361.625 171.625 C 366.02299 168.29425 371.89709 166.81337 376.5 167.75 L 376.5 174.84375 C 374.46139 176.22262 372.54835 178.01197 371.40625 180.09375 C 372.57029 179.21107 374.46885 178.63131 376.5 178.375 L 376.5 202.75 C 385.6272 202.49811 394.17334 200.51464 401.96875 197.3125 C 405.14817 198.95273 408.31823 200.45759 411.09375 201.46875 C 420.71854 204.97519 436.53736 207.48073 437.96875 210.875 C 439.43336 214.34803 433.18014 214.6697 433.21875 218.5625 C 433.25734 222.45327 437.35455 223.95061 440.375 222.21875 C 443.39544 220.48689 441.81053 214.66375 443.25 213.1875 C 444.73548 211.66404 447.53985 211.77592 449.5625 214.21875 C 451.58514 216.66158 448.79831 224.30071 451.8125 225.46875 C 454.7457 226.60542 458.10525 224.63444 458.59375 221.46875 C 459.08226 218.30306 454.79951 217.21705 454.40625 215.125 C 453.9927 212.92506 455.24497 211.60612 457.75 211.40625 C 460.25504 211.20637 462.40665 216.02083 465.75 214.9375 C 469.06504 213.86335 470.15324 209.32468 467.71875 207.0625 C 465.28425 204.80032 459.58415 208.93064 457.5625 207.4375 C 455.54084 205.94436 455.48985 204.41455 457 202.03125 C 458.51016 199.64794 463.29187 199.90708 466.59375 198.78125 C 469.86828 197.66475 466.91766 190.65274 463.4375 190.78125 C 459.95733 190.90976 459.41054 195.70837 456.375 197.46875 C 453.379 199.2062 451.91865 197.43576 451.0625 195.4375 C 450.20635 193.43924 453.27884 189.60003 452.09375 187.15625 C 450.87205 184.63696 444.43765 183.80213 443.53125 187.0625 C 442.6009 190.40907 446.7304 195.33509 444.9375 197.9375 C 443.07119 200.64645 433.78375 199.83623 428.375 198.21875 C 424.76535 197.13929 418.74706 193.21017 415.40625 190.125 C 417.94835 188.43 420.3986 186.61813 422.6875 184.6875 C 424.76101 184.33741 426.90761 183.80607 428.84375 182.875 C 435.10368 179.86465 442.75243 170.83128 442.5 164 C 442.45564 162.79971 442.25766 161.71408 441.9375 160.71875 C 445.7261 153.32014 447.9081 145.79604 448.125 138.9375 C 452.87562 139.12712 458.33256 143.67826 458.71875 147.21875 C 461.72692 144.17421 461.3546 137.61588 461.21875 133.0625 C 463.957 135.36276 465.67981 137.1359 467 141.34375 C 468.43074 137.59252 467.73828 128.38796 466.6875 123.4375 C 469.83736 124.89852 472.86943 127.60382 474.1875 130.5 C 476.3899 125.6582 475.88552 113.2549 475.53125 105.9375 C 475.17699 98.620095 473.27422 91.649104 473.28125 86.5 C 473.28812 81.461438 475.01316 78.389084 477.15625 78.4375 C 479.30469 78.486036 480.73324 83.035847 484 83.03125 C 487.23608 83.026694 488.57819 78.936609 487.09375 76.28125 C 485.6093 73.625889 482.14173 76.127155 479.9375 74.0625 C 477.67734 71.945462 477.74683 68.576687 480.6875 67.53125 C 483.62817 66.485815 487.01259 70.236257 489.125 68.0625 C 491.2374 65.888745 490.11959 60.573605 487.125 59.40625 C 484.1304 58.238892 481.92636 64.056681 479.1875 64.0625 C 476.44666 64.068322 474.94322 61.515383 475.34375 58.9375 C 475.74429 56.359617 480.52536 55.203617 480.46875 52.125 C 480.41215 49.046384 476.14247 45.070736 473.09375 46.25 C 470.04502 47.429262 473.3236 54.887966 471.34375 56.6875 C 469.3639 58.487032 467.30285 58.052606 465.3125 56.4375 C 463.32214 54.822395 466.02918 48.381085 463.3125 46.46875 C 462.47948 45.882366 461.36005 45.65284 460.21875 45.75 z "
         inkscape:radius="0"
         sodipodi:type="inkscape:offset" />
      <path
         style="fill:none;fill-opacity:1;fill-rule:evenodd;stroke:#000000;stroke-width:5;stroke-linecap:butt;stroke-linejoin:miter;stroke-miterlimit:4;stroke-dasharray:none;stroke-opacity:1"
         d="M 441.50543,204.29688 C 442.47248,206.0797 442.07385,208.481 440.63043,209.98438 C 443.88756,210.24368 450.70824,208.905 451.34918,205.89062 C 447.97643,206.4975 445.38876,206.58345 441.50543,204.29688 z"
         id="path3314" />
      <path
         sodipodi:nodetypes="csssscsssssssssszzcsscccssssssssscccsccccsccsscsscsssscssscsscssssscssssscssccsssccsssscsccssssscssscssscssscsc"
         id="path3337"
         d="M 434.84918,37.453125 C 432.71484,37.634823 430.70605,38.337054 428.94293,39.703125 C 427.17981,41.069196 425.54357,43.448404 425.59918,46.328125 C 425.64438,48.66919 426.75548,50.378796 427.75543,51.578125 C 428.75538,52.777454 429.79561,53.63496 430.69293,54.390625 C 431.41201,54.996186 431.88538,55.4478 432.28668,55.828125 C 432.25723,55.830901 432.29056,55.826029 432.25543,55.828125 C 432.20387,55.831201 432.35874,55.942483 431.47418,55.390625 C 430.58962,54.838767 428.72997,53.436645 425.91168,53.484375 C 422.71817,53.53846 420.42251,55.808869 419.38043,57.734375 C 418.33836,59.659881 417.94991,61.587664 418.00543,63.578125 C 418.05724,65.435155 418.51108,67.420623 419.81793,69.265625 C 421.12479,71.110627 423.62369,72.630918 426.28668,72.703125 C 430.13623,72.807504 431.70995,70.911143 432.94293,70.234375 C 433.91481,69.700923 433.77632,69.812091 433.78668,69.828125 C 433.98242,70.355646 434.20082,71.317002 434.31793,72.578125 C 434.56291,75.216247 435.03981,78.584075 434.50844,81.970253 C 433.97948,85.341188 432.22241,90.295135 430.974,92.891 C 429.70403,95.531708 428.81748,95.981611 428.28668,97.046875 C 428.08733,96.918115 428.06273,96.918555 427.81793,96.765625 C 425.93054,95.586511 422.37006,94.158833 418.19293,94.921875 C 414.97208,95.510233 412.38961,97.282015 410.13043,99.546875 C 398.16069,87.581258 382.21473,80.68508 369.69293,80.328125 L 341.69293,73.796875 C 340.27637,73.46857 338.78834,73.84058 337.69293,74.796875 C 333.99392,78.028537 331.4823,81.021449 330.13043,84.328125 C 328.77856,87.634801 328.94571,91.400657 330.44293,94.265625 C 333.43738,99.995565 339.38934,102.72946 345.66168,105.73438 C 351.93402,108.73929 358.88362,111.66434 364.22418,115.10938 C 369.56474,118.55441 372.92225,122.18711 373.69293,126.57812 C 375.22737,135.3207 372.9015,140.60922 368.69293,144.10938 C 364.48436,147.60953 357.74776,149.27149 350.13043,148.20312 C 348.83526,148.02159 347.52487,148.40894 346.53656,149.26549 C 345.54825,150.12202 344.97857,151.36406 344.97418,152.67188 L 344.97418,154.98438 C 340.0478,156.27407 334.37011,159.26434 330.72418,165.57812 C 329.70704,167.43488 330.11232,169.74858 331.70002,171.14906 C 333.28771,172.54952 335.63392,172.66282 337.34918,171.42188 C 339.55989,169.74764 342.42047,168.80568 344.97418,168.45312 L 344.97418,168.92188 C 343.26036,170.34031 341.62428,171.95605 340.44293,174.10938 C 339.61535,175.60164 339.69703,177.43245 340.6542,178.84509 C 341.61136,180.25774 343.28145,181.01229 344.97418,180.79688 L 344.97418,198.95312 C 344.97275,200.17717 345.46697,201.34963 346.34419,202.20329 C 347.22141,203.05696 348.40689,203.5191 349.63043,203.48438 C 358.60676,203.23665 367.02889,201.34954 374.78668,198.39062 C 377.41932,199.70329 380.04663,201.01471 382.53668,201.92188 C 387.77274,203.82944 394.18104,205.31497 399.38043,206.76562 C 401.57604,207.37822 403.32723,207.99722 404.78668,208.54688 C 404.41742,208.86245 404.15443,208.97 403.75543,209.42188 C 402.70243,210.6144 401.67125,212.61114 401.69293,214.79688 C 401.72794,218.32546 403.97135,221.53883 406.78668,222.82812 C 409.60201,224.11742 412.86546,223.94475 415.63043,222.35938 C 417.29734,221.4036 418.31859,219.88274 418.91168,218.51562 C 418.93453,219.23496 418.85774,219.85677 419.03668,220.70312 C 419.38946,222.37174 420.66988,224.91291 423.19293,225.89062 C 428.85634,228.08531 435.1455,224.33712 436.06793,218.35938 C 436.22084,217.36846 436.13433,216.38278 435.91168,215.45312 C 437.21193,215.76701 438.707,215.92448 440.16168,215.45312 C 446.75791,213.3158 448.9573,204.72874 443.81793,199.95312 C 443.21367,199.39164 442.49798,199.15033 441.81793,198.85938 C 443.78026,197.81939 445.1635,195.70628 445.44293,193.95312 C 445.75853,191.97306 445.37311,190.31527 444.75543,188.79688 C 444.13775,187.27848 443.25594,185.90941 441.94293,184.70312 C 440.62992,183.49684 438.69751,182.3641 436.28668,182.45312 C 434.38271,182.52344 432.55281,183.37169 431.38043,184.35938 C 430.63369,184.98848 430.29233,185.5728 429.84918,186.17188 C 430.09154,184.80768 430.06102,183.24516 429.16168,181.39062 C 427.2749,177.49985 424.00142,176.82807 420.97418,176.64062 C 419.46056,176.54691 417.88217,176.66813 416.22418,177.42188 C 414.56619,178.17562 412.77188,179.85196 412.16168,182.04688 C 411.07998,185.93787 412.62857,188.60589 413.28668,190.48438 C 413.40921,190.83411 413.41905,190.92096 413.50543,191.20312 C 412.82429,191.29701 412.0935,191.41162 411.06793,191.39062 C 408.33306,191.33467 404.91461,190.74251 402.69293,190.07812 C 401.43755,189.70271 398.69218,188.08524 396.00543,186.29688 C 396.52926,185.89119 397.08656,185.5274 397.59918,185.10938 C 399.59805,184.7167 401.71022,184.18545 403.81793,183.17188 C 407.89283,181.21229 411.67011,177.82879 414.72418,173.82812 C 417.77826,169.82746 420.22792,165.22235 420.03668,160.04688 C 420.00469,159.18129 419.75001,158.41976 419.59918,157.60938 C 422.21471,152.23203 424.09454,146.78136 425.00543,141.42188 C 425.07383,141.47315 425.15789,141.49388 425.22418,141.54688 C 426.61762,142.66092 427.25766,144.22884 427.22418,143.92188 C 427.41589,145.65659 428.58754,147.12669 430.23576,147.70057 C 431.88399,148.27444 433.71531,147.84992 434.94293,146.60938 C 436.47724,145.05651 437.28106,143.28367 437.81793,141.48438 C 438.95973,142.11534 440.3182,142.22319 441.54524,141.78025 C 442.77228,141.33731 443.74866,140.38666 444.22418,139.17188 C 445.2379,136.51403 445.36682,133.73451 445.31793,130.82812 C 446.41183,131.32632 447.65893,131.36911 448.78441,130.94707 C 449.90988,130.52501 450.82135,129.67275 451.31793,128.57812 C 453.07635,124.71239 453.79918,120.25678 454.349,115.45301 C 454.90227,110.61911 455.24602,105.60032 455.06793,101.92188 C 454.68252,93.961098 452.81243,86.731315 452.81793,82.703125 C 452.81902,81.902627 452.97394,81.73284 453.06793,81.140625 C 454.38343,82.39587 456.16781,83.769618 459.00543,83.765625 C 462.52995,83.760663 465.42659,81.214527 466.50543,78.578125 C 467.58427,75.941723 467.54559,72.964755 466.03668,70.265625 C 465.75473,69.761283 465.29793,69.378272 464.88043,68.953125 C 465.79163,68.610336 466.69911,68.122978 467.38043,67.421875 C 470.00006,64.726156 470.10286,61.39535 469.47418,58.578125 C 468.84551,55.7609 467.27279,52.749584 463.78668,51.390625 C 462.24662,50.790276 460.63124,51.029675 459.25543,51.453125 C 459.68965,50.50257 460.0273,49.423522 460.00543,48.234375 C 459.93933,44.638974 458.05659,42.221889 455.81793,40.328125 C 453.57927,38.434361 450.25831,36.770648 446.47418,38.234375 C 444.79027,38.885719 443.81956,40.269617 443.16168,41.640625 C 442.67908,40.663638 441.96944,39.72896 440.91168,38.984375 C 438.97226,37.619169 436.84024,37.283624 434.84918,37.453125 z"
         style="fill:#000000;fill-opacity:1;fill-rule:evenodd;stroke:none;stroke-width:3;stroke-linecap:round;stroke-linejoin:round;stroke-miterlimit:4;stroke-opacity:1" />
      <path
         style="fill:none;fill-rule:evenodd;stroke:#000000;stroke-width:5;stroke-linecap:butt;stroke-linejoin:miter;stroke-miterlimit:4;stroke-dasharray:none;stroke-opacity:1"
         d="M 422.97418,60.859375 C 420.7345,62.032125 418.12908,63.000345 414.03668,63.515625 C 416.75652,65.877959 420.83682,67.315383 423.81793,66.984375 C 422.98717,66.063865 422.57286,64.749704 422.53668,63.453125 C 422.51407,62.642761 422.68307,61.711786 422.97418,60.859375 z"
         id="path3295" />
      <rect
         y="25.247242"
         x="152.78485"
         height="191.17647"
         width="190.80882"
         id="rect3501"
         style="fill:#ffffff;fill-opacity:1;stroke:none;stroke-width:2.5;stroke-linecap:square;stroke-linejoin:miter;stroke-miterlimit:4;stroke-dasharray:none;stroke-opacity:1" />
      <path
         style="fill:none;fill-rule:evenodd;stroke:#000000;stroke-width:5;stroke-linecap:butt;stroke-linejoin:miter;stroke-miterlimit:4;stroke-dasharray:none;stroke-opacity:1"
         d="M 432.19293,33.078125 C 429.9438,36.509729 429.69004,41.048129 430.91168,44.078125 C 432.24383,42.416151 435.01948,41.556565 437.09918,42.109375 C 434.6726,39.661718 432.5155,37.57867 432.19293,33.078125 z"
         id="path3297" />
      <path
         sodipodi:nodetypes="csssssscsscsscsccscsssscccscscsssccssszccssccccsc"
         id="path2432"
         d="M 393.53668,27.453125 C 393.86981,30.925295 396.0781,34.70985 389.91168,39.578125 C 383.68971,44.490259 345.30864,49.055934 332.94293,50.609375 C 320.57721,52.162815 313.73032,46.875897 307.94293,52.078125 C 302.15553,57.280351 301.51183,70.892634 303.50543,78.546875 C 305.49903,86.201114 314.05379,95.379972 319.69293,98.765625 C 325.33207,102.15127 331.37445,101.927 337.34918,102.07812 C 342.6638,102.21255 353.36055,104.84135 357.72418,100.92188 C 360.81878,100.8436 364.29353,100.31647 368.19293,98.734375 C 374.05523,96.355875 383.00839,90.449715 390.06793,82.640625 C 391.50723,81.048512 393.12813,78.973656 394.84918,76.609375 C 395.28794,76.796938 395.71166,76.959866 396.06793,77.140625 C 399.36703,78.814476 399.31901,82.44152 402.78668,81.765625 C 406.25435,81.089734 409.99641,71.221823 407.56793,68.515625 C 405.25289,71.934411 405.02721,74.291355 401.69293,74.515625 C 400.37008,74.604603 398.78025,74.069039 397.22418,73.234375 C 402.78153,65.314876 409.14261,55.604843 414.78668,49.640625 C 414.9634,49.85519 415.17065,50.05528 415.28668,50.234375 C 416.6409,52.324608 416.05693,53.534133 416.78668,56.015625 C 419.24993,54.477444 419.72557,50.270807 420.28668,45.359375 C 420.83664,40.545499 423.56406,41.556577 423.56793,37.296875 C 423.57169,33.150597 419.91607,30.723526 415.34918,30.359375 C 410.68166,29.987199 410.42704,33.900511 404.38043,33.046875 C 397.88931,32.130485 396.71975,28.1777 393.53668,27.453125 z M 406.41168,43.765625 C 406.56559,43.778942 407.10321,43.862377 407.50543,44.015625 C 405.38558,46.551029 403.37724,50.573024 400.63043,54.953125 C 398.20175,58.825938 395.14643,64.126986 392.09918,69.078125 C 391.86473,68.789544 391.62198,68.513392 391.44293,68.234375 C 389.59185,65.349719 391.74071,60.757414 389.09918,57.859375 C 387.02477,61.426594 387.46725,63.416756 384.53668,63.171875 C 381.25769,62.897878 367.34225,58.513817 366.59918,55.421875 C 365.86184,52.353829 371.45546,53.746304 374.50543,53.515625 C 377.48805,53.29004 380.98612,52.525289 383.22418,53.140625 C 385.12303,55.225828 384.45521,56.397511 384.44293,58.859375 C 387.97535,56.552113 387.05316,54.091054 388.91168,52.578125 C 390.7702,51.065194 397.57789,50.635657 401.03668,48.671875 C 404.49547,46.708096 404.1047,44.665412 405.97418,43.796875 C 406.09685,43.739883 406.25728,43.752266 406.41168,43.765625 z M 380.72418,73.421875 C 383.06176,73.401049 385.92281,73.867251 388.63043,74.546875 C 387.40158,76.367223 386.18685,78.022851 385.06793,79.359375 C 380.24189,85.123942 371.34195,92.148322 365.91168,94.453125 C 363.68579,95.39788 361.45659,95.991133 359.34918,96.359375 C 358.81728,93.25232 378.92844,84.286383 376.25509,81.061162 C 371.12379,79.893122 357.65546,77.604295 350.2286,75.959034 C 352.00338,74.130885 354.35348,73.526857 356.81793,73.484375 C 359.06931,73.622792 361.02728,76.264352 364.78668,76.265625 C 368.63187,76.266926 375.83565,73.46543 380.72418,73.421875 z"
         style="fill:#000000;fill-rule:evenodd;stroke:none;stroke-width:1px;stroke-linecap:butt;stroke-linejoin:miter;stroke-opacity:1" />
      <path
         style="fill:none;fill-rule:evenodd;stroke:#000000;stroke-width:5;stroke-linecap:butt;stroke-linejoin:miter;stroke-miterlimit:4;stroke-dasharray:none;stroke-opacity:1"
         d="M 453.94293,33.953125 C 453.78003,37.222272 451.52352,40.177273 449.28668,42.265625 C 451.24196,42.270999 453.41644,43.818829 454.59918,45.671875 C 456.06543,42.455424 455.99307,37.463459 453.94293,33.953125 z"
         id="path3299" />
      <path
         id="rect3223"
         d="M 148.00544,21.203125 L 148.00544,221.20312 L 348.00543,221.20312 L 348.00543,21.203125 L 148.00544,21.203125 z M 167.00544,40.203125 L 329.00543,40.203125 L 329.00543,202.20312 L 167.00544,202.20312 L 167.00544,40.203125 z"
         style="fill:#000000;fill-opacity:1;stroke:none;stroke-width:3;stroke-linecap:square;stroke-linejoin:miter;stroke-miterlimit:4;stroke-dasharray:none;stroke-opacity:1" />
      <path
         style="fill:none;fill-rule:evenodd;stroke:#000000;stroke-width:5;stroke-linecap:butt;stroke-linejoin:miter;stroke-miterlimit:4;stroke-dasharray:none;stroke-opacity:1"
         d="M 472.50543,54.609375 C 470.42567,56.343047 467.27392,56.919275 463.75543,56.828125 C 465.27694,58.672702 465.68825,61.841514 464.53668,63.703125 C 467.65226,62.630077 472.61249,58.320917 472.50543,54.609375 z"
         id="path3301" />
      <rect
         y="43.703125"
         x="170.50543"
         height="155"
         width="155"
         id="rect3228"
         style="fill:#000000;fill-opacity:1;stroke:none;stroke-width:3;stroke-linecap:square;stroke-linejoin:miter;stroke-miterlimit:4;stroke-dasharray:none;stroke-opacity:1" />
      <path
         sodipodi:nodetypes="csccscscscsc"
         id="path3400"
         d="M 340.66168,78.203125 C 313.53804,101.89983 373.83745,101.15927 378.16168,125.79688 C 381.65302,145.68904 366.69925,155.08337 349.50543,152.67188 L 349.50543,158.73438 C 349.88335,158.69572 350.28578,158.65733 350.63043,158.64062 C 355.07718,158.42497 359.04113,158.61872 362.44293,160.67188 C 364.26434,158.44869 368.91207,156.64167 372.66168,156.29688 C 376.4113,155.95207 381.14175,157.34043 385.47418,159.64062 C 388.50511,154.87554 394.47749,150.0373 402.41168,149.89062 C 408.90562,149.77059 413.42525,152.18782 414.94293,156.95312 C 418.97577,149.09127 421.1837,141.08964 421.16168,133.89062 C 421.07084,104.18103 387.64194,84.997242 368.97418,84.796875"
         style="fill:#000000;fill-rule:evenodd;stroke:#ffffff;stroke-width:3;stroke-linecap:round;stroke-linejoin:round;stroke-miterlimit:4;stroke-dasharray:none;stroke-opacity:1" />
      <path
         style="fill:none;fill-rule:evenodd;stroke:#000000;stroke-width:5;stroke-linecap:butt;stroke-linejoin:miter;stroke-miterlimit:4;stroke-dasharray:none;stroke-opacity:1"
         d="M 462.38043,73.078125 C 463.20603,75.261178 462.39764,78.035473 460.38043,78.921875 C 462.48656,80.404188 467.44086,80.826689 469.91168,79.390625 C 468.14766,78.126472 465.00252,76.125239 462.38043,73.078125 z"
         id="path3303" />
      <path
         sodipodi:nodetypes="ccccc"
         id="path3485"
         d="M 351.10957,148.78095 C 349.43695,148.56107 346.66576,148.00297 344.6892,147.66436 C 344.73646,153.95547 344.59185,194.48211 344.54963,203.49368 C 346.11251,203.29342 347.18649,203.2947 353.13338,202.65625 C 352.6599,195.80677 351.24688,156.11906 351.10957,148.78095 z"
         style="fill:#000000;fill-rule:evenodd;stroke:#000000;stroke-width:1px;stroke-linecap:butt;stroke-linejoin:miter;stroke-opacity:1" />
      <path
         id="path3406"
         d="M 340.66168,78.203125 C 313.53804,101.89983 373.83745,101.15927 378.16168,125.79688 C 381.65302,145.68904 366.69925,155.08337 349.50543,152.67188 L 349.50543,158.73438 C 349.88335,158.69572 350.28578,158.65733 350.63043,158.64062 C 355.07718,158.42497 359.04113,158.61872 362.44293,160.67188 C 364.26434,158.44869 368.91207,156.64167 372.66168,156.29688 C 376.4113,155.95207 381.14175,157.34043 385.47418,159.64062 C 387.0528,157.15882 389.44282,154.67937 392.47418,152.82812 C 399.46191,144.39062 403.91078,134.62729 403.88043,124.70312 C 403.7896,94.993529 351.2412,94.94761 340.66168,78.203125 z"
         style="fill:#000000;fill-rule:evenodd;stroke:#ffffff;stroke-width:3;stroke-linecap:butt;stroke-linejoin:round;stroke-miterlimit:4;stroke-dasharray:none;stroke-opacity:1" />
      <path
         style="fill:none;fill-opacity:1;fill-rule:evenodd;stroke:#000000;stroke-width:5;stroke-linecap:butt;stroke-linejoin:miter;stroke-miterlimit:4;stroke-dasharray:none;stroke-opacity:1"
         d="M 422.13043,174.42188 C 419.92427,175.13853 417.83566,178.40344 417.47418,181.92188 C 418.971,180.79073 421.75582,180.9554 423.56793,181.92188 C 422.42911,179.23821 422.02681,176.76665 422.13043,174.42188 z"
         id="path3309" />
      <path
         sodipodi:nodetypes="cccccszscccssssccssssccscsc"
         id="path3467"
         d="M 111.25544,24.421875 C 109.33894,24.473111 103.75679,25.440089 102.49507,27.332887 C 105.55758,28.449544 107.20022,30.703314 108.00544,32.609375 C 105.37793,33.939666 98.883585,35.864666 89.099185,37.765625 C 89.036485,37.774801 88.973975,37.785219 88.911685,37.796875 C 79.965835,39.914785 71.043572,44.788988 63.161685,48.953125 C 55.279798,53.117262 48.893014,56.015325 45.755435,56.203125 C 42.507367,56.397539 39.065611,55.626019 37.661685,55.109375 C 36.257759,54.592731 35.779575,54.117624 34.442935,53.234375 C 32.799607,52.138382 29.875966,49.613013 27.925772,46.533339 C 26.30821,47.667014 26.660924,56.440707 27.130435,58.359375 C 28.833537,65.36933 33.336337,71.461161 38.849185,76.046875 C 44.362033,80.632589 50.955587,83.813427 57.724185,84.171875 C 69.116901,84.775207 75.299195,83.069714 79.036685,84.046875 C 81.238765,84.622606 83.777065,88.096411 80.880435,91.921875 C 79.781015,93.37083 78.377155,94.762971 75.637175,96.614195 C 77.443185,98.465415 82.874085,99.607695 84.692935,99.609375 C 91.438245,99.602735 101.78157,101.4643 115.31794,93.953125 C 123.01586,89.681638 127.60864,81.939556 132.34919,75.921875 C 137.08973,69.904194 141.08194,66.083263 146.41169,66.171875 C 147.69512,66.194294 150.37056,67.070805 151.287,66.172 C 152.20343,65.273195 151.28419,62.674247 151.28669,61.390625 L 151.28669,37.171875 C 151.28508,35.888376 152.11444,33.252206 151.287,32.391 C 150.45956,31.529794 147.97535,32.443551 146.69294,32.390625 C 142.62425,32.237075 139.33318,30.543611 134.00544,28.453125 C 128.67769,26.362639 121.59361,24.240624 111.25544,24.421875 z"
         style="fill:#000000;fill-rule:evenodd;stroke:none;stroke-width:3;stroke-linecap:butt;stroke-linejoin:miter;stroke-miterlimit:4;stroke-opacity:1" />
      <path
         sodipodi:nodetypes="ccscsscsccc"
         id="path3313"
         d="M 111.34894,29.203072 C 118.22911,35.048198 110.89381,38.394733 90.005185,42.453072 C 74.025285,46.23628 55.159373,61.083275 45.692685,60.984322 C 36.326574,60.886421 33.882889,58.619654 31.786435,57.234322 C 34.552436,68.61917 47.268296,78.823628 57.973935,79.390572 C 68.679576,79.957518 74.672275,77.962178 80.255185,79.421822 C 85.915555,80.901715 89.419365,88.585742 84.692685,94.828072 C 92.221345,94.820656 100.5822,96.658935 113.00519,89.765572 C 125.14588,83.028851 131.24459,61.136851 146.50519,61.390572 L 146.50519,37.171822 C 136.02304,36.776231 130.70489,28.863719 111.34894,29.203072 z"
         style="fill:#000000;fill-rule:evenodd;stroke:#ffffff;stroke-width:3;stroke-linecap:butt;stroke-linejoin:round;stroke-miterlimit:4;stroke-dasharray:none;stroke-opacity:1" />
      <path
         id="path3384"
         d="M 143.38019,39.953072 C 107.86409,40.057278 71.535055,64.34185 60.286435,67.171822 C 49.890433,69.787293 39.314553,68.275945 31.786435,57.234322 C 34.552436,68.61917 45.520305,76.797922 61.380185,74.890572 C 77.348015,72.970243 108.8407,56.307455 139.69269,56.140572 C 142.06306,56.12775 144.33042,56.171296 146.50519,56.265572 L 146.50519,39.984322 C 145.46972,39.9546 144.43634,39.949973 143.38019,39.953072 z"
         style="fill:#000000;fill-rule:evenodd;stroke:#ffffff;stroke-width:3;stroke-linecap:butt;stroke-linejoin:round;stroke-miterlimit:4;stroke-dasharray:none;stroke-opacity:1" />
      <path
         transform="translate(-26.994565,-3.796875)"
         d="M 174.5625,106.03125 C 170.4908,106.40917 165.99114,106.62211 161.03125,106.625 C 140.6337,106.63686 124.21223,112.14595 112.84375,121.46875 C 101.47527,130.79155 95.358498,144.00992 95.59375,158.1875 C 96.041616,185.17902 124.00067,210.94938 173.71875,208.78125 C 176.27078,208.65813 178.27769,206.55499 178.28125,204 L 178.28125,194.90625 L 178.28125,179.96875 L 178.28125,179.9375 C 178.28204,178.44164 177.58448,177.03117 176.39519,176.12387 C 175.2059,175.21658 173.66124,174.91649 172.21875,175.3125 C 169.99655,175.92958 168.17493,176.41093 166.3125,176.71875 C 164.45009,177.02657 162.48274,177.197 159.90625,177.21875 C 159.88542,177.21861 159.86458,177.21861 159.84375,177.21875 C 145.96807,177.48138 139.24593,174.29084 135.6875,170.53125 C 132.12907,166.77166 131.09323,161.60642 130.875,156.0625 C 130.72343,152.21187 132.78051,147.50405 139.65625,142.84375 C 146.53199,138.18345 158.15968,133.99121 175.5,132.1875 C 177.94086,131.92517 179.78904,129.86116 179.78125,127.40625 L 179.78125,110.8125 C 179.78312,109.46608 179.21865,108.18096 178.22588,107.27142 C 177.23312,106.36188 175.90361,105.9118 174.5625,106.03125 z"
         id="path3481"
         style="fill:#000000;fill-rule:evenodd;stroke:none;stroke-width:3;stroke-linecap:butt;stroke-linejoin:miter;stroke-miterlimit:4;stroke-dasharray:none;stroke-opacity:1"
         xlink:href="#path3469"
         inkscape:original="M 175 110.8125 C 170.7544 111.20656 166.11314 111.40329 161.03125 111.40625 C 121.96107 111.42897 99.950859 132.53266 100.375 158.09375 C 100.76859 181.81423 125.46389 206.09478 173.5 204 L 173.5 194.90625 L 173.5 179.96875 L 173.5 179.9375 C 171.22809 180.56839 169.22384 181.08544 167.09375 181.4375 C 164.96366 181.78956 162.70775 181.97661 159.9375 182 C 130.62102 182.55488 126.56668 168.26436 126.09375 156.25 C 125.63744 144.65773 139.25359 131.12453 175 127.40625 L 175 110.8125 z "
         inkscape:radius="4.7930136"
         sodipodi:type="inkscape:offset"
         inkscape:href="#path3469" />
      <path
         sodipodi:nodetypes="ccccc"
         id="path3483"
         d="M 142.48956,172.77975 C 144.64607,172.28288 145.79389,172.08861 150.96376,169.22414 C 150.97799,175.18947 151.12234,196.63915 151.0823,204.60247 C 147.30885,204.68419 144.8842,204.6975 141.65992,204.60247 C 141.69495,196.80364 142.46643,176.59519 142.48956,172.77975 z"
         style="fill:#000000;fill-rule:evenodd;stroke:#000000;stroke-width:1px;stroke-linecap:butt;stroke-linejoin:miter;stroke-opacity:1" />
      <path
         sodipodi:nodetypes="ccccs"
         id="path3429"
         d="M 73.380435,154.29688 C 73.774025,178.01736 98.469325,202.2979 146.50544,200.20312 L 146.50544,176.14062 C 141.96161,177.4024 138.48344,178.15634 132.94294,178.20312 C 103.62645,178.758 99.572115,164.46749 99.099185,152.45312"
         style="fill:#000000;fill-rule:evenodd;stroke:#ffffff;stroke-width:3;stroke-linecap:butt;stroke-linejoin:miter;stroke-miterlimit:4;stroke-dasharray:none;stroke-opacity:1" />
      <path
         sodipodi:nodetypes="ccssscccsssc"
         id="path3422"
         d="M 168.50544,42.578125 L 168.50544,59.046875 C 181.59513,62.869337 186.3461,70.335485 186.59919,80.765625 C 186.94706,95.10287 173.47452,107.58643 134.03669,107.60938 C 94.966505,107.6321 72.956294,128.73578 73.380435,154.29688 C 73.770505,177.80486 104.40614,198.01414 146.50544,191.10938 L 146.50544,176.17188 C 141.96246,177.43335 138.48216,178.15635 132.94294,178.20312 C 103.62645,178.758 99.572115,164.46749 99.099185,152.45312 C 98.640705,140.80585 112.37806,127.18884 148.50544,123.54688 C 184.26888,119.9416 203.1091,98.567985 203.50544,78.546875 C 203.81703,62.806885 191.15489,48.32706 168.50544,42.578125 z"
         style="fill:#000000;fill-rule:evenodd;stroke:#ffffff;stroke-width:3;stroke-linecap:butt;stroke-linejoin:miter;stroke-miterlimit:4;stroke-dasharray:none;stroke-opacity:1" />
      <path
         sodipodi:nodetypes="cccsccsc"
         id="path3454"
         d="M 248.75544,86.578125 C 201.84943,86.523824 198.42753,141.21551 168.50544,166.10938 L 168.50544,197.76562 C 214.75362,186.15811 229.51838,132.30477 260.50543,132.95312 C 292.00836,133.61228 284.25634,185.96059 327.50543,196.95312 L 327.50543,141.29688 C 314.08529,123.70333 301.72563,89.040023 251.69294,86.640625 C 250.69618,86.592824 249.71637,86.579237 248.75544,86.578125 z"
         style="fill:#000000;fill-rule:evenodd;stroke:#ffffff;stroke-width:3;stroke-linecap:butt;stroke-linejoin:round;stroke-miterlimit:4;stroke-dasharray:none;stroke-opacity:1" />
      <path
         sodipodi:nodetypes="cccsccsc"
         id="path3441"
         d="M 248.75544,86.578125 C 201.84943,86.523824 198.42753,141.21551 168.50544,166.10938 L 168.50544,185.73438 C 206.19391,168.27035 212.68985,113.56408 257.56793,113.85938 C 302.12378,114.15256 304.64435,165.61954 327.50543,176.42188 L 327.50543,141.29688 C 314.08529,123.70333 301.72563,89.040023 251.69294,86.640625 C 250.69618,86.592824 249.71637,86.579237 248.75544,86.578125 z"
         style="fill:#000000;fill-rule:evenodd;stroke:#ffffff;stroke-width:3;stroke-linecap:butt;stroke-linejoin:round;stroke-miterlimit:4;stroke-dasharray:none;stroke-opacity:1" />
      <path
         id="path3266"
         d="M 223.13044,30.109375 L 219.06794,37.234375 C 221.48553,38.643 222.96653,44.627955 225.88044,44.765625 C 228.42126,44.885668 229.01172,42.72061 229.06794,40.390625 C 229.12417,38.060385 227.50872,37.978998 227.47419,35.609375 C 227.43787,33.117557 229.64043,32.374345 231.75544,32.546875 C 233.87044,32.719405 235.42801,34.517811 235.41169,36.359375 C 235.39534,38.200939 232.98389,40.725079 233.09919,42.953125 C 233.22078,45.303056 235.19929,46.017138 237.00544,46.015625 C 238.74456,46.014169 239.72338,44.695587 241.03669,43.203125 C 242.35,41.710664 242.06229,37.339076 244.34919,37.328125 C 244.38982,37.32793 244.43285,37.325909 244.47419,37.328125 L 244.25544,31.203125 L 223.13044,30.109375 z"
         style="fill:#000000;fill-rule:evenodd;stroke:#000000;stroke-width:1px;stroke-linecap:butt;stroke-linejoin:miter;stroke-opacity:1" />
      <path
         id="path3230"
         d="M 230.94294,32.546875 C 229.10563,32.606287 227.44241,33.429034 227.47419,35.609375 C 227.50872,37.978998 229.12417,38.060385 229.06794,40.390625 C 229.01172,42.72061 228.42126,44.885668 225.88044,44.765625 C 222.85192,44.62254 221.38093,38.149134 218.78669,37.078125 C 216.14728,35.988465 213.40779,38.297711 213.28669,41.359375 C 213.16558,44.421038 220.6276,46.057861 220.88044,48.703125 C 221.13327,51.34839 219.5265,52.755753 217.56794,52.609375 C 215.61468,52.46339 213.75567,48.386962 211.56794,48.453125 C 209.37311,48.519501 207.78197,50.20221 207.44294,52.484375 C 207.10389,54.766539 208.22681,57.993831 210.59919,58.109375 C 212.96248,58.224475 215.23838,55.775026 217.06794,56.390625 C 218.8975,57.006224 219.94567,56.995292 219.78669,60.796875 C 219.62771,64.598457 209.02802,73.374022 209.13044,76.921875 C 209.23282,80.468253 218.98613,81.915491 218.78669,87.203125 C 218.59185,92.368705 213.05973,94.229796 212.69294,97.703125 C 212.58646,98.711465 213.22821,99.730515 214.38044,100.64062 C 223.54382,91.650072 235.0993,85.844851 251.69294,86.640625 C 252.53468,86.680992 253.34025,86.738465 254.16169,86.796875 C 258.85701,83.159832 262.36686,79.743012 262.53668,77.421875 C 259.29697,79.134392 255.66443,80.584269 252.28669,79.984375 C 254.33996,78.368027 256.14805,77.059645 256.81793,73.265625 C 255.03083,73.979506 251.20354,75.841856 248.25544,76.078125 C 247.14066,74.725503 246.5501,73.702102 243.72419,72.890625 C 240.86364,72.069198 226.40899,74.521982 225.88044,72.640625 C 225.32425,70.6609 230.76248,61.533136 232.97419,58.578125 C 235.12771,55.700854 238.16108,55.895392 240.44294,57.015625 C 242.72481,58.135859 245.00847,63.221581 247.88044,63.859375 C 250.7524,64.497166 252.33172,60.205164 252.16169,57.859375 C 251.99166,55.513586 252.48393,54.742309 250.94294,54.203125 C 249.40196,53.663942 246.89748,54.616467 244.94294,54.546875 C 242.98889,54.477302 240.90252,52.600775 240.91169,50.765625 C 240.92026,49.052695 241.06868,47.720481 242.50544,46.984375 C 243.94219,46.248268 246.81913,46.754502 248.13044,46.015625 C 249.44174,45.276749 250.59027,45.222218 250.31794,43.203125 C 250.04558,41.184033 246.63609,37.317173 244.34919,37.328125 C 242.06229,37.339076 242.35,41.710664 241.03669,43.203125 C 239.72338,44.695587 238.74456,46.014169 237.00544,46.015625 C 235.19929,46.017138 233.22078,45.303056 233.09919,42.953125 C 232.98389,40.725079 235.39534,38.200939 235.41169,36.359375 C 235.42801,34.517811 233.87044,32.719405 231.75544,32.546875 C 231.49105,32.525309 231.20541,32.538388 230.94294,32.546875 z"
         style="fill:#000000;fill-rule:evenodd;stroke:#ffffff;stroke-width:2.5;stroke-linecap:butt;stroke-linejoin:round;stroke-miterlimit:4;stroke-dasharray:none;stroke-opacity:1" />
      <path
         id="path3232"
         d="M 201.56794,45.765625 C 201.5209,48.323086 204.3691,53.449021 206.69294,54.078125 C 206.95287,53.942874 207.19611,53.770413 207.41169,53.609375 C 207.39193,53.216533 207.38921,52.846012 207.44294,52.484375 C 207.64606,51.117044 208.28404,49.953237 209.25544,49.234375 C 209.25284,49.130418 209.26184,49.026652 209.25544,48.921875 C 208.39399,48.65631 203.81497,47.730385 201.56794,45.765625 z"
         style="fill:#ffffff;fill-rule:evenodd;stroke:none;stroke-width:1px;stroke-linecap:butt;stroke-linejoin:round;stroke-opacity:1" />
      <path
         id="path3234"
         d="M 210.47419,30.109375 C 209.26532,33.148785 211.18093,38.828082 213.03669,40.265625 C 213.20077,40.225155 213.356,40.162686 213.50544,40.109375 C 213.95712,38.567433 215.0892,37.356117 216.44294,36.953125 C 216.53109,36.751553 216.64181,36.567307 216.72419,36.359375 C 214.86584,35.060483 212.53861,32.692189 210.47419,30.109375 z"
         style="fill:#ffffff;fill-rule:evenodd;stroke:none;stroke-width:1px;stroke-linecap:butt;stroke-linejoin:round;stroke-opacity:1" />
      <path
         id="path3236"
         d="M 235.91169,23.390625 C 233.40741,24.397077 229.2956,29.946344 229.44294,32.546875 C 229.5232,32.6219 229.61182,32.667535 229.69294,32.734375 C 230.33072,32.558569 231.05044,32.489365 231.75544,32.546875 C 232.65606,32.620343 233.44577,33.010897 234.06794,33.546875 C 234.46836,33.468941 234.86747,33.403239 235.28669,33.296875 C 234.72508,30.696664 235.33471,26.552586 235.91169,23.390625 z"
         style="fill:#ffffff;fill-rule:evenodd;stroke:none;stroke-width:1px;stroke-linecap:butt;stroke-linejoin:round;stroke-opacity:1" />
      <path
         id="path3238"
         d="M 252.66169,56.640625 C 252.48945,56.968111 252.31507,57.363829 252.16169,57.796875 C 252.16331,57.820962 252.15991,57.83495 252.16169,57.859375 C 252.23778,58.909089 251.93201,60.336321 251.34919,61.546875 C 251.30522,62.042381 251.30085,62.525481 251.31794,62.984375 C 254.33108,62.805018 258.27038,61.446121 259.63043,59.328125 C 257.91279,59.453626 254.87904,58.88557 252.66169,56.640625 z"
         style="fill:#ffffff;fill-rule:evenodd;stroke:none;stroke-width:1px;stroke-linecap:butt;stroke-linejoin:round;stroke-opacity:1" />
      <path
         id="path3240"
         d="M 253.66169,35.859375 C 251.5479,35.751336 247.8672,36.884692 246.34919,38.046875 C 247.79101,38.969828 249.2202,40.600234 249.91169,41.984375 C 251.81942,40.574962 253.91133,38.296815 254.47419,35.984375 C 254.24276,35.909006 253.97484,35.875381 253.66169,35.859375 z"
         style="fill:#ffffff;fill-rule:evenodd;stroke:none;stroke-width:1px;stroke-linecap:butt;stroke-linejoin:round;stroke-opacity:1" />
      <path
         sodipodi:nodetypes="ccccccccc"
         id="path3408"
         d="M 424.09202,140.8004 C 427.92582,141.28771 428.79815,148.12715 429.00462,152.48148 C 433.3595,149.57609 437.49702,143.15754 437.46522,141.1279 C 438.57968,143.79253 438.66042,145.05751 439.3211,147.73263 C 443.14768,143.69385 445.37611,134.1345 445.43456,130.64767 C 446.31177,132.34637 446.98791,133.81103 447.45419,135.56027 C 448.57548,134.14362 452.25019,126.92717 452.31221,122.13247 C 450.24544,117.88363 441.98795,113.63313 436.20977,116.07359 C 430.43159,118.51407 424.07912,135.01837 424.09202,140.8004 z"
         style="fill:#000000;fill-rule:evenodd;stroke:#000000;stroke-width:1px;stroke-linecap:butt;stroke-linejoin:miter;stroke-opacity:1" />
      <path
         sodipodi:nodetypes="csssssssssscsccccccssssssssssssssssc"
         id="path3334"
         d="M 435.22418,41.953125 C 432.71332,42.166876 430.08475,43.868909 430.13043,46.234375 C 430.19678,49.671146 437.00182,52.354455 437.16168,55.203125 C 437.32773,58.161985 435.40436,60.188276 432.53668,60.359375 C 429.67345,60.530205 428.38329,57.974825 425.97418,58.015625 C 423.67559,58.054554 422.47355,61.189875 422.53668,63.453125 C 422.59982,65.716372 423.75549,68.099852 426.41168,68.171875 C 429.06858,68.243916 432.23317,63.886247 435.91168,65.578125 C 439.5902,67.270003 439.46407,76.105836 438.81793,82.015625 C 438.1632,88.004017 432.67184,101.93932 429.63043,102.35938 C 426.48053,102.7944 425.11783,98.274065 419.00543,99.390625 C 415.9937,99.940785 413.04273,102.55034 410.31793,106.29688 C 416.756,113.86928 421.12896,123.1899 421.16168,133.89062 C 421.16295,134.30743 421.1446,134.71859 421.13043,135.14062 C 425.88106,135.33024 431.33799,139.88138 431.72418,143.42188 C 434.73235,140.37733 434.36003,133.81901 434.22418,129.26562 C 436.96243,131.56589 438.68524,133.33902 440.00543,137.54688 C 441.43617,133.79565 440.74371,124.59108 439.69293,119.64062 C 442.84279,121.10165 445.87486,123.80694 447.19293,126.70312 C 449.39533,121.86132 450.89095,109.45803 450.53668,102.14062 C 450.18242,94.82322 448.27965,87.852229 448.28668,82.703125 C 448.29355,77.664563 450.0186,74.592209 452.16168,74.640625 C 454.31012,74.689161 455.73868,79.238972 459.00543,79.234375 C 462.24151,79.229819 463.58362,75.139734 462.09918,72.484375 C 460.61473,69.829014 457.14716,72.33028 454.94293,70.265625 C 452.68277,68.148587 452.75226,64.779812 455.69293,63.734375 C 458.6336,62.68894 462.01802,66.439382 464.13043,64.265625 C 466.24283,62.09187 465.12502,56.77673 462.13043,55.609375 C 459.13583,54.442017 456.93179,60.259806 454.19293,60.265625 C 451.45209,60.271447 449.94865,57.718508 450.34918,55.140625 C 450.74972,52.562742 455.53079,51.406742 455.47418,48.328125 C 455.41758,45.249509 451.1479,41.273861 448.09918,42.453125 C 445.05045,43.632387 448.32903,51.091091 446.34918,52.890625 C 444.36933,54.690157 442.30828,54.255731 440.31793,52.640625 C 438.32757,51.02552 441.03461,44.58421 438.31793,42.671875 C 437.48492,42.085491 436.36548,41.855965 435.22418,41.953125 z"
         style="fill:#000000;fill-rule:evenodd;stroke:#ffffff;stroke-width:2.5;stroke-linecap:butt;stroke-linejoin:round;stroke-miterlimit:4;stroke-dasharray:none;stroke-opacity:1" />
      <path
         id="path3336"
         d="M 422.97418,60.859375 C 420.7345,62.032125 418.12908,63.000345 414.03668,63.515625 C 416.75652,65.877959 420.83682,67.315383 423.81793,66.984375 C 422.98717,66.063865 422.57286,64.749704 422.53668,63.453125 C 422.51407,62.642761 422.68307,61.711786 422.97418,60.859375 z"
         style="fill:#ffffff;fill-rule:evenodd;stroke:none;stroke-width:1px;stroke-linecap:butt;stroke-linejoin:round;stroke-opacity:1" />
      <path
         id="path3338"
         d="M 432.19293,33.078125 C 429.9438,36.509729 429.69004,41.048129 430.91168,44.078125 C 432.24383,42.416151 435.01948,41.556565 437.09918,42.109375 C 434.6726,39.661718 432.5155,37.57867 432.19293,33.078125 z"
         style="fill:#ffffff;fill-rule:evenodd;stroke:none;stroke-width:1px;stroke-linecap:butt;stroke-linejoin:round;stroke-opacity:1" />
      <path
         id="path3340"
         d="M 453.94293,33.953125 C 453.78003,37.222272 451.52352,40.177273 449.28668,42.265625 C 451.24196,42.270999 453.41644,43.818829 454.59918,45.671875 C 456.06543,42.455424 455.99307,37.463459 453.94293,33.953125 z"
         style="fill:#ffffff;fill-rule:evenodd;stroke:none;stroke-width:1px;stroke-linecap:butt;stroke-linejoin:round;stroke-opacity:1" />
      <path
         id="path3342"
         d="M 472.50543,54.609375 C 470.42567,56.343047 467.27392,56.919275 463.75543,56.828125 C 465.27694,58.672702 465.68825,61.841514 464.53668,63.703125 C 467.65226,62.630077 472.61249,58.320917 472.50543,54.609375 z"
         style="fill:#ffffff;fill-rule:evenodd;stroke:none;stroke-width:1px;stroke-linecap:butt;stroke-linejoin:round;stroke-opacity:1" />
      <path
         id="path3344"
         d="M 462.38043,73.078125 C 463.20603,75.261178 462.39764,78.035473 460.38043,78.921875 C 462.48656,80.404188 467.44086,80.826689 469.91168,79.390625 C 468.14766,78.126472 465.00252,76.125239 462.38043,73.078125 z"
         style="fill:#ffffff;fill-rule:evenodd;stroke:none;stroke-width:1px;stroke-linecap:butt;stroke-linejoin:round;stroke-opacity:1" />
      <path
         style="fill:none;fill-opacity:1;fill-rule:evenodd;stroke:#000000;stroke-width:5;stroke-linecap:butt;stroke-linejoin:miter;stroke-miterlimit:4;stroke-dasharray:none;stroke-opacity:1"
         d="M 445.22418,182.85938 C 442.2465,182.87973 439.60208,185.30378 437.25543,187.10938 C 438.68778,187.5135 439.93908,189.00513 440.56793,190.60938 C 442.70887,188.51021 445.15657,185.19303 445.22418,182.85938 z"
         id="path3311" />
      <path
         id="path3280"
         d="M 250.47419,123.29688 C 241.85441,123.36553 235.86996,130.09356 232.56794,130.42188 C 230.07302,130.66995 228.80481,127.72496 227.88044,123.89062 C 217.6082,131.73692 209.58776,144.05642 201.06794,155.25913 C 200.26548,159.96251 201.11164,163.35393 205.28669,164.57812 C 212.97727,166.83315 217.30696,160.00582 220.75544,160.29688 C 224.07502,160.57707 224.46815,163.81824 223.47419,167.26562 C 222.53529,170.522 215.59783,175.55492 216.63044,178.73438 C 217.66305,181.91381 224.45166,180.772 231.63044,181.42188 C 238.8092,182.07174 245.60875,183.36011 247.00544,185.57812 C 248.4021,187.79617 243.73632,189.80942 243.69294,192.92188 C 243.6512,195.9162 248.80639,197.85486 251.00544,196.23438 C 253.20449,194.61388 250.41434,189.33638 252.31794,187.95312 C 254.22153,186.56986 256.7367,186.33945 258.22418,188.20312 C 259.71166,190.0668 257.1278,195.25752 259.50543,196.92188 C 261.88307,198.58623 267.3947,197.82595 268.25543,195.04688 C 269.11615,192.26781 263.5883,190.11712 264.13043,187.60938 C 264.67257,185.10163 266.80965,183.70371 269.56793,183.95312 C 272.32621,184.20254 274.06188,190.50967 277.22418,189.26562 C 280.38648,188.02158 282.19951,181.96077 279.84918,179.92188 C 277.49884,177.88297 272.74167,181.002 270.72418,180.17188 C 268.70668,179.34176 267.92476,177.33093 268.38043,174.95312 C 268.83611,172.57532 274.69904,172.19703 274.63043,168.92188 C 274.56181,165.64672 271.03611,162.44151 268.03668,163.73438 C 265.03724,165.02724 267.63349,170.22132 265.53668,172.01562 C 263.43986,173.80993 260.16039,174.23331 258.44293,172.01562 C 256.72548,169.79796 261.54022,165.39022 259.50543,163.01562 C 257.47065,160.64103 252.21219,160.84306 251.13044,163.60938 C 250.1233,166.18485 253.77671,167.34931 253.72419,170.23438 C 253.6738,173.00132 251.09741,174.06458 248.28669,173.76562 C 245.47597,173.46666 239.91486,171.1539 239.91169,166.70312 C 239.90844,162.13421 250.61123,154.07994 250.78669,148.60938 C 250.95836,143.25683 247.50848,143.17648 247.56794,139.51562 C 247.62548,135.97288 256.09715,131.85613 261.41168,132.42188 C 259.04659,129.44316 252.69521,128.92227 248.53669,130.29688 C 250.99445,126.94556 254.58853,125.89034 258.31793,125.10938 C 255.48961,123.80137 252.88773,123.27765 250.47419,123.29688 z"
         style="fill:#000000;fill-rule:evenodd;stroke:#ffffff;stroke-width:2.5;stroke-linecap:butt;stroke-linejoin:round;stroke-miterlimit:4;stroke-dasharray:none;stroke-opacity:1"
         sodipodi:nodetypes="csccssssssssssssssssssssssssssssscccc" />
      <path
         id="path3282"
         d="M 256.69293,152.64062 C 253.89041,153.75107 251.48713,159.20066 251.94294,162.32812 C 251.98925,162.34518 252.05121,162.34264 252.09919,162.35938 C 253.81217,161.03399 256.98549,161.07861 258.84918,162.45312 C 258.87028,162.44439 258.8907,162.43085 258.91168,162.42188 C 257.61477,160.16093 256.77805,155.66537 256.69293,152.64062 z"
         style="fill:#ffffff;fill-rule:evenodd;stroke:none;stroke-width:1px;stroke-linecap:butt;stroke-linejoin:round;stroke-opacity:1" />
      <path
         id="path3284"
         d="M 276.06793,158.17188 C 274.246,160.3117 272.6667,162.46744 269.69293,163.45312 C 271.85941,163.58953 273.90853,165.56313 274.47418,167.82812 C 274.60837,167.87556 274.74599,167.94167 274.88043,167.98438 C 276.70428,165.28758 276.66213,160.77107 276.06793,158.17188 z"
         style="fill:#ffffff;fill-rule:evenodd;stroke:none;stroke-width:1px;stroke-linecap:butt;stroke-linejoin:round;stroke-opacity:1" />
      <path
         id="path3286"
         d="M 280.75543,181.48438 C 281.26349,183.42306 280.49645,186.17425 279.03668,187.89062 C 282.07621,188.95675 287.15804,188.36506 288.81793,185.70312 C 286.68617,184.73949 282.96176,183.96902 280.75543,181.48438 z"
         style="fill:#ffffff;fill-rule:evenodd;stroke:none;stroke-width:1px;stroke-linecap:butt;stroke-linejoin:round;stroke-opacity:1" />
      <path
         id="path3288"
         d="M 267.41168,196.32812 C 265.86188,197.73385 262.77855,198.16784 260.66168,197.48438 C 260.54914,197.57214 260.44816,197.66681 260.34918,197.76562 C 261.83737,200.64637 265.23171,202.88957 269.19293,203.54688 C 267.24674,200.42345 267.74856,198.54608 267.66168,196.35938 C 267.5811,196.34913 267.49472,196.3373 267.41168,196.32812 z"
         style="fill:#ffffff;fill-rule:evenodd;stroke:none;stroke-width:1px;stroke-linecap:butt;stroke-linejoin:round;stroke-opacity:1" />
      <path
         id="path3290"
         d="M 244.75544,195.29688 C 244.53597,198.455 245.43568,201.6054 246.88044,204.14062 C 248.32521,201.24104 249.92645,198.22761 251.13044,196.45312 C 251.06377,196.39578 250.98386,196.34957 250.91169,196.29688 C 249.36485,197.32924 246.50165,196.72538 244.88044,195.29688 C 244.84223,195.30071 244.79277,195.2928 244.75544,195.29688 z"
         style="fill:#ffffff;fill-rule:evenodd;stroke:none;stroke-width:1px;stroke-linecap:butt;stroke-linejoin:round;stroke-opacity:1" />
      <path
         style="fill:none;fill-opacity:1;fill-rule:evenodd;stroke:#000000;stroke-width:5;stroke-linecap:butt;stroke-linejoin:miter;stroke-miterlimit:4;stroke-dasharray:none;stroke-opacity:1"
         d="M 431.38043,218.48438 C 430.74965,220.36713 429.07209,221.67292 427.19293,221.92188 C 429.78367,224.15789 432.78785,225.7481 436.00543,225.67188 C 434.31699,223.95781 432.66249,221.17656 431.38043,218.48438 z"
         id="path3316" />
      <path
         style="fill:none;fill-opacity:1;fill-rule:evenodd;stroke:#000000;stroke-width:5;stroke-linecap:butt;stroke-linejoin:miter;stroke-miterlimit:4;stroke-dasharray:none;stroke-opacity:1"
         d="M 406.38043,216.01562 C 405.41722,219.02011 405.90457,224.21292 407.63043,226.29688 C 408.5139,223.44676 410.05779,220.75782 411.38043,219.07812 C 409.18418,219.36147 406.98273,218.27027 406.38043,216.01562 z"
         id="path3318" />
      <path
         sodipodi:nodetypes="ccczczzzzzzzzzzzzzzzzzzzzzzzzzzczczc"
         id="path2411"
         d="M 334.6366,167.83422 C 341.60861,162.55406 352.27188,161.89814 355.7395,168.20607 C 352.51368,168.84318 346.77863,171.95434 344.39785,176.29396 C 347.50197,173.94016 355.82717,173.65052 357.97064,176.29396 C 360.11411,178.93741 359.39786,181.27873 357.04099,182.89443 C 360.1991,185.14261 374.49908,194.18034 384.09361,197.67576 C 393.71839,201.1822 409.52891,203.67088 410.96031,207.06516 C 412.4249,210.53818 406.1805,210.8884 406.21911,214.78119 C 406.2577,218.67195 410.35692,220.13865 413.37737,218.40679 C 416.39782,216.67494 414.81979,210.86551 416.25926,209.38925 C 417.74476,207.86579 420.55818,207.96903 422.58083,210.41187 C 424.60348,212.85469 421.79778,220.4925 424.81197,221.66055 C 427.74518,222.7972 431.10987,220.82877 431.59837,217.66307 C 432.08687,214.49739 427.80824,213.43356 427.41499,211.34151 C 427.00143,209.14158 428.25667,207.8228 430.7617,207.62294 C 433.26673,207.42307 435.41328,212.2389 438.75663,211.15557 C 442.07166,210.08142 443.14337,205.51579 440.70888,203.25361 C 438.27439,200.99143 432.59741,205.11862 430.57576,203.62547 C 428.55411,202.13234 428.50784,200.61685 430.01798,198.23354 C 431.52813,195.85025 436.29143,196.10562 439.59331,194.97978 C 442.86785,193.86328 439.91267,186.85636 436.43251,186.98487 C 432.95235,187.11337 432.40277,191.91791 429.36723,193.67829 C 426.37122,195.41574 424.92442,193.63134 424.06827,191.63307 C 423.21212,189.63482 426.27595,185.80302 425.09086,183.35924 C 423.86915,180.83995 417.44455,180.00591 416.53815,183.26629 C 415.60779,186.61285 419.72551,191.54069 417.93261,194.1431 C 416.06631,196.85207 406.79372,196.03949 401.38497,194.42201 C 395.97622,192.80453 385.1014,184.79328 386.04586,182.80147 C 386.91773,180.96275 395.51446,182.12949 401.84979,179.0829 C 408.10972,176.07255 415.76798,167.04242 415.51555,160.21114 C 415.25968,153.28702 410.24765,149.74717 402.40758,149.8921 C 394.47339,150.03876 388.519,154.88827 385.48807,159.65336 C 381.15564,157.35315 376.40862,155.96183 372.659,156.30663 C 368.90938,156.65144 364.25435,158.45278 362.43293,160.67595 C 359.03112,158.62278 355.0732,158.4151 350.62645,158.63074 C 346.18324,158.84622 338.72735,160.75012 334.6366,167.83422 z"
         style="fill:#000000;fill-rule:evenodd;stroke:#ffffff;stroke-width:2.5;stroke-linecap:butt;stroke-linejoin:round;stroke-miterlimit:4;stroke-dasharray:none;stroke-opacity:1" />
      <path
         id="path2413"
         d="M 422.13043,174.42188 C 419.92427,175.13853 417.83566,178.40344 417.47418,181.92188 C 418.971,180.79073 421.75582,180.9554 423.56793,181.92188 C 422.42911,179.23821 422.02681,176.76665 422.13043,174.42188 z"
         style="fill:#ffffff;fill-opacity:1;fill-rule:evenodd;stroke:none;stroke-width:1px;stroke-linecap:butt;stroke-linejoin:round;stroke-opacity:1" />
      <path
         id="path2415"
         d="M 445.22418,182.85938 C 442.2465,182.87973 439.60208,185.30378 437.25543,187.10938 C 438.68778,187.5135 439.93908,189.00513 440.56793,190.60938 C 442.70887,188.51021 445.15657,185.19303 445.22418,182.85938 z"
         style="fill:#ffffff;fill-opacity:1;fill-rule:evenodd;stroke:none;stroke-width:1px;stroke-linecap:butt;stroke-linejoin:round;stroke-opacity:1" />
      <path
         id="path2417"
         d="M 441.50543,204.29688 C 442.47248,206.0797 442.07385,208.481 440.63043,209.98438 C 443.88756,210.24368 450.70824,208.905 451.34918,205.89062 C 447.97643,206.4975 445.38876,206.58345 441.50543,204.29688 z"
         style="fill:#ffffff;fill-opacity:1;fill-rule:evenodd;stroke:none;stroke-width:1px;stroke-linecap:butt;stroke-linejoin:round;stroke-opacity:1" />
      <path
         id="path2419"
         d="M 431.38043,218.48438 C 430.74965,220.36713 429.07209,221.67292 427.19293,221.92188 C 429.78367,224.15789 432.78785,225.7481 436.00543,225.67188 C 434.31699,223.95781 432.66249,221.17656 431.38043,218.48438 z"
         style="fill:#ffffff;fill-opacity:1;fill-rule:evenodd;stroke:none;stroke-width:1px;stroke-linecap:butt;stroke-linejoin:round;stroke-opacity:1" />
      <path
         id="path2421"
         d="M 406.38043,216.01562 C 405.41722,219.02011 405.90457,224.21292 407.63043,226.29688 C 408.5139,223.44676 410.05779,220.75782 411.38043,219.07812 C 409.18418,219.36147 406.98273,218.27027 406.38043,216.01562 z"
         style="fill:#ffffff;fill-opacity:1;fill-rule:evenodd;stroke:none;stroke-width:1px;stroke-linecap:butt;stroke-linejoin:round;stroke-opacity:1" />
      <path
         transform="translate(-1.0291034e-2,-4.4297947e-2)"
         d="M 362.15625,23.34375 C 359.89491,23.545592 357.59544,23.89704 355.375,24.25 C 350.93411,24.955919 346.67791,25.699537 344.65625,25.71875 C 342.94646,25.734999 338.93908,24.763972 335.09375,24.5 C 333.17108,24.368014 331.10318,24.282517 328.84375,25.5 C 326.58432,26.717483 325.04516,29.847367 325.1875,32.53125 C 325.50043,38.431954 329.97297,42.217461 334.46875,45.46875 C 338.96453,48.720039 343.98983,51.214911 347.96875,52.4375 C 356.50637,55.060829 363.88255,51.414697 367.78125,51.46875 C 372.38313,51.532553 378.40084,53.706974 385.375,52.8125 C 388.86138,52.365353 393.21279,51.072879 397.125,49.46875 C 399.08111,48.666686 400.88684,47.794441 402.4375,46.78125 C 403.21283,46.274655 403.92775,45.754362 404.625,45 C 405.32225,44.245638 406.18375,43.161898 406.28125,41.34375 C 406.43493,38.477532 404.66988,36.009802 402.9375,34.75 C 401.20512,33.490198 399.38602,32.889285 397.6875,32.5 C 394.1059,31.679128 392.71137,32.362956 388.125,31.40625 C 386.7949,31.128794 383.83299,29.536674 380.5,27.71875 C 377.16701,25.900826 373.29821,23.866184 368.78125,23.34375 C 366.63707,23.095753 364.41759,23.141908 362.15625,23.34375 z"
         inkscape:href="#path3503"
         id="path3533"
         style="fill:#000000;fill-rule:evenodd;stroke:none;stroke-width:2.5;stroke-linecap:butt;stroke-linejoin:miter;stroke-miterlimit:4;stroke-dasharray:none;stroke-opacity:1"
         xlink:href="#path3503"
         inkscape:original="M 368.3125 27.46875 C 361.51069 26.682049 350.24369 29.822197 344.6875 29.875 C 339.13153 29.927802 328.99525 25.741166 329.34375 32.3125 C 329.69615 38.957395 342.5059 46.415716 349.1875 48.46875 C 355.80173 50.501084 362.27528 47.235297 367.84375 47.3125 C 373.41223 47.389704 379.19243 49.412313 384.84375 48.6875 C 390.49506 47.962689 401.98542 43.72793 402.125 41.125 C 402.26062 38.595626 399.40147 37.170193 396.75 36.5625 C 394.11553 35.958701 392.34781 36.525623 387.28125 35.46875 C 382.2147 34.411878 375.25987 28.272287 368.3125 27.46875 z "
         inkscape:radius="4.1576319"
         sodipodi:type="inkscape:offset" />
      <path
         sodipodi:nodetypes="czzzzzzzzz"
         id="path3503"
         d="M 329.33522,32.312324 C 329.68761,38.95722 342.50535,46.42493 349.18695,48.477964 C 355.80118,50.510296 362.2899,47.228863 367.85837,47.306066 C 373.42685,47.383269 379.19379,49.424087 384.84511,48.699274 C 390.49643,47.974461 401.97772,43.731563 402.1173,41.128633 C 402.25293,38.599258 399.398,37.181835 396.74653,36.574142 C 394.11205,35.970343 392.33646,36.523259 387.2699,35.466386 C 382.20335,34.409513 375.25077,28.260273 368.3034,27.456736 C 361.5016,26.670035 350.24076,29.823905 344.68457,29.876708 C 339.1286,29.929509 328.98672,25.74099 329.33522,32.312324 z"
         style="fill:#000000;fill-rule:evenodd;stroke:#ffffff;stroke-width:2.5;stroke-linecap:butt;stroke-linejoin:miter;stroke-miterlimit:4;stroke-dasharray:none;stroke-opacity:1" />
      <path
         sodipodi:nodetypes="csssssccscsccc"
         id="path3511"
         d="M 272.88043,22.453125 C 280.74943,32.392235 285.92301,34.111373 291.13043,35.328125 C 296.37902,36.554496 313.41147,35.811925 318.47528,37.345121 C 319.24478,37.578107 316.43376,37.229582 317.19293,37.421875 C 317.20273,37.424356 317.21439,37.4194 317.22418,37.421875 C 318.23265,37.312546 319.25651,37.249241 320.25543,37.265625 C 324.20968,37.330483 327.53765,37.907903 330.50543,38.890625 C 331.30374,38.861908 332.09759,38.808051 332.88043,38.703125 C 330.8367,36.619418 329.46155,34.415454 329.34918,32.296875 C 329.27678,30.931624 329.65117,30.055282 330.34918,29.484375 C 323.44102,28.332929 314.63895,27.974923 311.88043,27.640625 C 307.27603,27.082628 300.87462,25.08755 297.31793,22.453125 C 300.56874,26.804045 302.78555,27.880475 307.97418,31.015625 C 288.19721,33.120085 279.42526,26.726809 272.88043,22.453125 z"
         style="fill:#000000;fill-rule:evenodd;stroke:#ffffff;stroke-width:2.5;stroke-linecap:butt;stroke-linejoin:round;stroke-miterlimit:4;stroke-dasharray:none;stroke-opacity:1" />
      <path
         id="path3525"
         d="M 366.78668,32.671875 C 362.65312,33.106948 359.58021,34.83424 354.63043,34.203125 C 356.30793,37.982627 362.20382,40.671267 366.53668,41.015625 C 365.55439,39.947099 364.94293,38.54911 364.94293,36.984375 C 364.94293,35.288192 365.6539,33.763492 366.78668,32.671875 z"
         style="fill:#ffffff;fill-rule:evenodd;stroke:none;stroke-width:1px;stroke-linecap:butt;stroke-linejoin:miter;stroke-opacity:1" />
      <path
         id="path3505"
         d="M 376.25543,34.171875 C 376.69714,35.007505 376.94293,35.974004 376.94293,36.984375 C 376.94293,38.211257 376.57572,39.346164 375.94293,40.296875 C 378.0372,39.817798 379.92355,39.120641 381.16168,38.109375 C 379.95634,36.389074 378.25449,35.085467 376.25543,34.171875 z"
         style="fill:#ffffff;fill-rule:evenodd;stroke:none;stroke-width:1px;stroke-linecap:butt;stroke-linejoin:miter;stroke-opacity:1" />
      <path
         sodipodi:nodetypes="czzz"
         id="path3204"
         d="M 410.14751,36.932983 C 409.7765,38.68311 414.83662,39.392516 415.93221,38.29409 C 416.96976,37.253849 416.69052,36.145319 415.81878,35.458451 C 414.88927,34.726058 410.5415,35.07446 410.14751,36.932983 z"
         style="fill:#ffffff;fill-opacity:1;fill-rule:evenodd;stroke:none;stroke-width:1px;stroke-linecap:butt;stroke-linejoin:miter;stroke-opacity:1" />
      <path
         style="fill:#000000;fill-rule:evenodd;stroke:none;stroke-width:2.5;stroke-linecap:round;stroke-linejoin:miter;stroke-miterlimit:4;stroke-dasharray:none;stroke-opacity:1"
         d="M 386.20025,86.501295 C 384.69919,88.102938 375.46973,96.924195 367.67109,99.256215 C 359.9682,101.5596 349.08122,100.84673 340.62969,95.453448 C 332.17816,90.060168 341.70127,82.949556 340.27398,86.208048 C 338.84669,89.46654 341.2247,92.048455 345.2836,93.722493 C 349.38025,95.412105 359.65959,95.197036 365.38985,93.200717 C 371.21308,91.172006 376.56527,87.158268 380.11776,84.471851"
         id="path3221"
         sodipodi:nodetypes="czcczzc" />
      <path
         sodipodi:nodetypes="czcczzz"
         id="path3211"
         d="M 339.12593,96.853505 C 347.57746,102.24679 359.87748,101.811 367.67109,99.256215 C 375.41788,96.716775 382.57317,91.525299 385.73356,88.782869 M 376.59169,85.508931 C 373.0392,88.195348 371.95771,89.823803 366.54932,92.371054 C 361.16074,94.908969 350.76673,95.288915 344.18711,92.077756 C 337.38698,88.758981 339.12081,82.065224 340.5481,78.806732"
         style="fill:none;fill-rule:evenodd;stroke:#ffffff;stroke-width:2.5;stroke-linecap:round;stroke-linejoin:miter;stroke-miterlimit:4;stroke-dasharray:none;stroke-opacity:1" />
      <path
         sodipodi:nodetypes="cc"
         id="path3460"
         d="M 146.50544,61.390625 L 146.50544,37.171875"
         style="fill:#000000;fill-rule:evenodd;stroke:#ffffff;stroke-width:3;stroke-linecap:square;stroke-linejoin:miter;stroke-miterlimit:4;stroke-dasharray:none;stroke-opacity:1" />
      <path
         sodipodi:nodetypes="ccc"
         style="fill:none;fill-rule:evenodd;stroke:#ffffff;stroke-width:3;stroke-linecap:butt;stroke-linejoin:miter;stroke-miterlimit:4;stroke-dasharray:none;stroke-opacity:1"
         d="M 378.16168,125.79688 C 381.65302,145.68904 366.69925,155.08337 349.50543,152.67188 L 349.50543,158.73438"
         id="path3487" />
      <path
         sodipodi:nodetypes="ccczzc"
         id="path3507"
         d="M 349.13043,180.22813 C 349.13931,186.99957 349.14311,192.36929 349.13043,199.14062 C 355.61654,199.0771 363.77513,197.28143 367.81793,195.85938 C 363.72326,193.46486 353.50302,187.98042 351.72341,184.90875 C 349.9438,181.83706 353.44372,180.46364 353.09062,179.66745 C 352.75728,178.91583 350.21495,179.79934 349.13043,180.22813 z"
         style="fill:none;fill-rule:evenodd;stroke:#ffffff;stroke-width:2.5;stroke-linecap:butt;stroke-linejoin:miter;stroke-miterlimit:4;stroke-dasharray:none;stroke-opacity:1" />
      <path
         id="path3430"
         style="fill:#000000;fill-rule:evenodd;stroke:#ffffff;stroke-width:2.50000000000000000;stroke-linecap:round;stroke-linejoin:round;stroke-miterlimit:4;stroke-dasharray:none;stroke-opacity:1"
         d="M 338.75783,44.173661 C 333.65724,40.701 328.23848,37.400587 320.24821,37.26953 C 304.26548,37.007381 286.62257,53.822488 281.35125,56.166284 C 276.38867,58.372809 271.71314,57.659759 267.56436,55.578252 C 270.58635,61.108798 279.08177,60.277886 279.3288,64.1442 C 279.55838,67.737466 274.67732,71.128603 271.09382,71.570772 C 276.193,75.208415 286.87623,73.978536 288.3012,77.485426 C 289.82124,81.22629 284.21113,82.309353 281.82896,82.085529 C 288.9719,88.404385 303.53535,86.614087 306.55458,89.90297 C 309.70776,93.337775 304.77655,95.488398 302.2335,95.872166 C 304.87547,99.675845 318.43464,103.73425 324.43831,104.18079 C 330.43283,104.62665 337.7666,104.32577 351.79224,103.62944 C 343.31266,102.2712 328.52349,97.692105 320.68974,91.350464 C 312.92246,85.062625 310.11834,80.338171 309.58644,65.817146"
         sodipodi:nodetypes="cssczczczcscsc" />
      <path
         sodipodi:nodetypes="cccccczzzccssc"
         d="M 340.78217,77.934778 C 335.24446,78.526367 322.04174,77.760436 318.86657,74.691678 C 321.82405,73.650242 325.70695,72.153643 328.3443,69.927471 C 325.65994,70.488867 310.40644,72.184632 309.59692,65.886986 C 313.09546,65.671306 323.41348,64.367322 326.41835,57.712857 C 313.86354,59.116996 309.01371,58.098746 305.13147,54.773239 C 305.13147,54.773239 313.58501,53.66615 317.43421,52.357456 C 321.28342,51.048763 325.153,45.390138 328.80155,43.626459 C 332.45011,41.862779 336.45997,41.497169 340.15742,44.427839 C 343.85487,47.35851 347.54433,51.839477 355.35837,56.497243 C 352.39398,56.991861 349.42958,56.938233 345.64282,55.513991 C 345.64282,55.513991 351.69873,61.185067 356.03986,62.782721 C 360.381,64.380375 369.58015,64.55844 373.10757,65.681012 C 376.635,66.803584 380.1923,68.533298 380.1923,68.533298"
         style="fill:#000000;fill-rule:evenodd;stroke:#ffffff;stroke-width:2.50000000000000000;stroke-linecap:round;stroke-linejoin:round;stroke-miterlimit:4;stroke-dasharray:none;stroke-opacity:1"
         id="path3516" />
    </g>
  </g>
</svg>
