<?xml version="1.0" encoding="UTF-8" standalone="no"?>
<!-- Created with Inkscape (http://www.inkscape.org/) -->
<svg
   xmlns:dc="http://purl.org/dc/elements/1.1/"
   xmlns:cc="http://creativecommons.org/ns#"
   xmlns:rdf="http://www.w3.org/1999/02/22-rdf-syntax-ns#"
   xmlns:svg="http://www.w3.org/2000/svg"
   xmlns="http://www.w3.org/2000/svg"
   xmlns:sodipodi="http://sodipodi.sourceforge.net/DTD/sodipodi-0.dtd"
   xmlns:inkscape="http://www.inkscape.org/namespaces/inkscape"
   width="350"
   height="350"
   id="svg2"
   sodipodi:version="0.32"
   inkscape:version="0.46"
   version="1.0"
   sodipodi:docname="Dragonoriginal-icon.svg"
   inkscape:output_extension="org.inkscape.output.svg.inkscape">
  <defs
     id="defs4">
    <inkscape:perspective
       sodipodi:type="inkscape:persp3d"
       inkscape:vp_x="0 : 526.18109 : 1"
       inkscape:vp_y="0 : 1000 : 0"
       inkscape:vp_z="744.09448 : 526.18109 : 1"
       inkscape:persp3d-origin="372.04724 : 350.78739 : 1"
       id="perspective10" />
    <inkscape:perspective
       id="perspective3217"
       inkscape:persp3d-origin="372.04724 : 350.78739 : 1"
       inkscape:vp_z="744.09448 : 526.18109 : 1"
       inkscape:vp_y="0 : 1000 : 0"
       inkscape:vp_x="0 : 526.18109 : 1"
       sodipodi:type="inkscape:persp3d" />
    <inkscape:perspective
       id="perspective2455"
       inkscape:persp3d-origin="372.04724 : 350.78739 : 1"
       inkscape:vp_z="744.09448 : 526.18109 : 1"
       inkscape:vp_y="0 : 1000 : 0"
       inkscape:vp_x="0 : 526.18109 : 1"
       sodipodi:type="inkscape:persp3d" />
  </defs>
  <sodipodi:namedview
     id="base"
     pagecolor="#ffffff"
     bordercolor="#666666"
     borderopacity="1.0"
     gridtolerance="10000"
     guidetolerance="10"
     objecttolerance="10"
     inkscape:pageopacity="0.0"
     inkscape:pageshadow="2"
     inkscape:zoom="2.6942857"
     inkscape:cx="175"
     inkscape:cy="175"
     inkscape:document-units="px"
     inkscape:current-layer="layer1"
     showgrid="false"
     inkscape:window-width="1904"
     inkscape:window-height="1150"
     inkscape:window-x="0"
     inkscape:window-y="14"
     showguides="true"
     inkscape:guide-bbox="true" />
  <metadata
     id="metadata7">
    <rdf:RDF>
      <cc:Work
         rdf:about="">
        <dc:format>image/svg+xml</dc:format>
        <dc:type
           rdf:resource="http://purl.org/dc/dcmitype/StillImage" />
      </cc:Work>
    </rdf:RDF>
  </metadata>
  <g
     inkscape:label="Layer 1"
     inkscape:groupmode="layer"
     id="layer1">
    <g
       id="g3746">
      <rect
         y="92.5"
         x="92.5"
         height="165"
         width="165"
         id="rect3228"
         style="opacity:1;fill:#ffffff;fill-opacity:1;stroke:none;stroke-width:1;stroke-linecap:round;stroke-linejoin:round;stroke-miterlimit:4;stroke-dasharray:none;stroke-opacity:1" />
      <path
         sodipodi:nodetypes="cssssccsssccscsccccscscssssssscsssssssscccsccsccscscssssccsccscssscsccccssscscscscsccccscssssscsccccscscscscsccscscssssssscsssssssscccsccscccscsssscscscccssccscccsccccsssssssccsccscsssssccccsccccc"
         id="path3680"
         d="M 152.8125,48.21875 C 139.45506,48.283185 128.44852,52.528038 120.5625,57.28125 C 116.61949,59.657856 113.31198,62.049275 111.03125,64.4375 C 108.86029,66.710786 106.9847,69.01616 105.63897,71.47593 C 104.57794,73.415324 102.77409,75.488942 103.9462,77.231439 C 105.11831,78.973937 109.61872,79.811957 111.71875,79.8125 L 129.09375,79.8125 C 130.15147,79.8125 131.31164,80.197776 133,81.625 C 134.68836,83.052224 136.63558,85.475801 138.5,88.40625 C 142.22885,94.267149 145.6141,102.01888 148.78125,108.25 C 149.07236,108.82273 149.51798,109.59042 149.875,110.25 C 149.04386,111.99166 149.05537,114.01789 149.90625,115.75 C 151.58467,119.11936 151.23745,118.45087 151.34375,121.4375 C 151.356,121.78158 151.25298,122.27855 151.21875,122.6875 C 148.79142,120.75614 145.32033,120.87537 143.03125,122.96875 C 142.82934,123.15376 142.6941,123.37317 142.5,123.5625 C 141.82572,119.2198 140.97834,114.71998 139.75,109.9375 C 139.03589,107.13908 136.51309,105.18262 133.625,105.1875 L 111.5,105.1875 C 109.81475,105.18682 108.19925,105.86027 107.01348,107.05777 C 105.82771,108.25528 105.17022,109.87734 105.1875,111.5625 C 105.2867,122.9208 101.57103,130.26809 96.5,136 C 92.800759,140.18135 88.349392,143.17121 84,145.71875 C 81.046318,142.42236 77.529199,140.37118 74.3125,139.65625 C 71.90137,139.12036 69.741798,139.12973 67.8125,139.5 C 66.847851,139.68514 65.95566,139.90512 64.84375,140.5 C 64.287795,140.79744 63.647056,141.16945 62.875,142 C 62.102944,142.83055 61.002625,144.45504 61.09375,146.78125 C 61.090297,146.69312 60.7865,148.56976 60.375,149.25 C 59.056884,151.42897 58.27402,153.65523 57.28125,157.34375 C 56.623042,159.78924 56.170105,162.72656 55.9375,165.8125 C 52.900948,164.69809 49.656852,164.94555 48.03125,165.3125 C 46.359977,165.68976 46.43833,165.69419 46.1875,165.65625 C 45.893521,165.61178 45.514472,165.45887 44.28125,164.71875 C 43.048028,163.97863 40.915177,162.56224 37.78125,162.21875 C 34.593489,161.86936 30.45374,163.98825 29.09375,165.71875 C 27.73376,167.44925 27.6884,167.61853 28.0625,167.3125 C 27.843594,167.49158 27.256193,167.7842 26,168.53125 C 24.743807,169.2783 21.907648,171.35061 21.4375,174.9375 C 21.416276,175.09942 21.449744,175.16155 21.4375,175.3125 C 19.14795,180.61784 20.543924,187.35332 25.25,191.5625 C 25.259861,191.66465 25.237879,191.73919 25.25,191.84375 C 24.58701,195.30228 24.855187,198.9959 26.75,202.28125 C 28.50851,205.33027 31.725439,207.55181 35.40625,208.5625 C 35.605423,208.94511 35.810446,209.30251 36.0625,209.625 C 37.627932,213.7501 41.337737,216.03479 45,217 C 47.006352,217.52879 49.310311,217.57353 51.59375,217.125 C 53.631061,223.10311 56.337042,228.07321 59.09375,232.125 C 59.393402,233.60897 59.932049,234.95562 60.65625,235.875 C 61.020921,236.33796 61.412168,236.66871 61.8125,237.03125 C 62.457965,238.53711 63.280632,240.0246 64.625,241.1875 C 65.583204,242.01636 66.667059,242.56234 67.75,243.03125 C 67.770583,246.03121 69.426844,249.51019 70.9375,250.78125 C 72.621881,252.19848 72.790374,252.25319 72.5,251.875 C 72.66866,252.09467 72.922786,252.66111 73.625,253.9375 C 74.327214,255.21389 76.349276,258.14037 79.90625,258.71875 C 80.053088,258.74262 80.141856,258.70299 80.28125,258.71875 C 85.536851,261.20599 92.34357,260.06366 96.71875,255.4375 C 100.20578,256.26084 103.97309,256.12968 107.375,254.3125 C 110.5031,252.64158 112.84903,249.46274 113.96875,245.78125 C 114.3107,245.60908 114.63513,245.43989 114.9375,245.21875 C 119.17687,243.80618 121.62916,240.16085 122.71875,236.5 C 123.67688,233.28083 123.55862,229.2259 121.6875,225.75 C 121.77082,225.6014 121.88904,225.46157 121.96875,225.3125 C 122.6039,224.12475 123.22192,223.25302 123.5,220.96875 C 123.77146,218.73883 122.92838,216.29715 121.71875,214.8125 C 121.50505,214.55022 121.28356,214.40754 121.0625,214.1875 C 120.44192,211.82248 119.48245,209.47782 117.5,207.5625 C 116.82856,206.9138 116.04371,206.37758 115.21875,205.90625 C 118.67839,201.9043 122.13852,197.33821 122.5625,191.46875 C 124.32185,189.92225 126.04753,188.19558 127.78125,186.25 C 127.32719,194.40633 127.95051,208.24032 132.71875,222.03125 C 132.29236,222.18483 131.88375,222.38389 131.5,222.625 C 127.27514,225.26554 125.22219,229.11657 123.84375,233.5625 C 122.46531,238.00843 121.93603,243.72793 125.71875,248.53125 C 127.92309,251.33033 130.42113,252.86896 131.53125,253.5 C 131.42683,253.78632 131.40061,253.89533 131.125,254.53125 C 130.22455,256.6089 128.54931,260.44015 128.78125,265.3125 C 129.08594,271.81761 133.53742,275.86395 136.53125,278.34375 C 138.6845,280.1273 139.96517,281.651 140.40625,281.90625 C 140.38458,281.96088 140.4498,282.20144 139.46875,283.96875 C 138.33649,286.00847 136.22403,288.95194 135.5,293.375 C 134.4878,298.73415 135.75379,303.77529 138.21875,307.6875 C 139.57305,309.83695 141.22383,311.59803 143.03125,313.125 L 142.90625,313.4375 C 141.56446,316.64767 143.07422,320.33821 146.28125,321.6875 C 146.95952,322.97806 148.06374,323.99395 149.40625,324.5625 C 150.19445,326.06185 151.55236,327.18136 153.1745,327.66917 C 154.79664,328.15699 156.5468,327.97216 158.03125,327.15625 C 159.57755,328.4345 161.53295,329.42554 163.375,329.65625 C 165.52242,329.92521 167.16702,329.53571 168.46875,329.21875 C 171.07221,328.58482 172.69987,328 175,328 C 177.30013,328 178.92779,328.58482 181.53125,329.21875 C 182.83298,329.53571 184.47758,329.92521 186.625,329.65625 C 188.45935,329.4265 190.39368,328.4262 191.9375,327.15625 C 193.42485,327.98227 195.18273,328.1727 196.81246,327.68437 C 198.4422,327.19603 199.8057,326.07031 200.59375,324.5625 C 201.93626,323.99395 203.04048,322.97806 203.71875,321.6875 C 206.92578,320.33821 208.43554,316.64767 207.09375,313.4375 L 206.96875,313.125 C 208.77617,311.59803 210.42695,309.83695 211.78125,307.6875 C 214.24621,303.77529 215.48095,298.60915 214.46875,293.25 C 213.74472,288.82694 211.66351,286.00847 210.53125,283.96875 C 209.5502,282.20144 209.61542,281.96088 209.59375,281.90625 C 210.03483,281.651 211.3155,280.1273 213.46875,278.34375 C 216.46258,275.86395 220.91406,271.78636 221.21875,265.28125 C 221.45069,260.4089 219.77545,256.6089 218.875,254.53125 C 218.59939,253.89533 218.57317,253.78632 218.46875,253.5 C 219.57887,252.86896 222.07691,251.33033 224.28125,248.53125 C 225.20674,247.35605 225.77165,246.08514 226.21875,244.8125 L 238.5,244.8125 C 240.18525,244.81318 241.80075,244.13973 242.98652,242.94223 C 244.17229,241.74472 244.82978,240.12266 244.8125,238.4375 C 244.71003,226.704 248.63745,219.23055 253.96875,213.4375 C 257.8326,209.239 262.44573,206.30148 266.875,203.78125 C 269.83316,207.30509 273.43618,209.49322 276.75,210.28125 C 279.21372,210.86713 281.43991,210.89388 283.40625,210.53125 C 284.38942,210.34993 285.28469,210.09038 286.40625,209.5 C 286.96703,209.20481 287.59462,208.85878 288.375,208.03125 C 289.15538,207.20372 290.31121,205.57951 290.21875,203.21875 C 290.2222,203.3069 290.52599,201.43026 290.9375,200.75 C 292.34462,198.42388 293.21546,195.92101 294.25,191.8125 C 294.82084,189.54551 295.2612,186.95262 295.46875,184.1875 C 298.47857,185.26313 301.672,185.05076 303.28125,184.6875 C 304.95252,184.31024 304.87417,184.30581 305.125,184.34375 C 305.41898,184.38822 305.79803,184.54113 307.03125,185.28125 C 308.26447,186.02137 310.39732,187.43776 313.53125,187.78125 C 316.71901,188.13064 320.85876,186.01174 322.21875,184.28125 C 323.57874,182.55076 323.6241,182.38147 323.25,182.6875 C 323.46891,182.50842 324.05631,182.2158 325.3125,181.46875 C 326.56869,180.7217 329.40483,178.64937 329.875,175.0625 C 329.89622,174.90058 329.86276,174.83845 329.875,174.6875 C 332.16455,169.38216 330.76858,162.64668 326.0625,158.4375 C 326.05264,158.33535 326.07462,158.26081 326.0625,158.15625 C 326.72549,154.69772 326.45731,151.0041 324.5625,147.71875 C 322.80399,144.66973 319.58706,142.44819 315.90625,141.4375 C 315.70708,141.0549 315.50205,140.69749 315.25,140.375 C 313.68457,136.2499 309.97476,133.96521 306.3125,133 C 303.94317,132.37555 301.16841,132.37485 298.5,133.15625 C 296.47948,127.13586 293.76254,122.11757 291,118.03125 C 290.68139,115.7482 289.59626,114.02905 288.15625,112.84375 C 287.4985,111.36148 286.63952,109.91359 285.3125,108.78125 C 284.36728,107.97471 283.31095,107.46045 282.25,107 C 282.24141,103.99311 280.57842,100.49423 279.0625,99.21875 C 277.37812,97.801522 277.20962,97.7468 277.5,98.125 C 277.33134,97.905336 277.07721,97.338895 276.375,96.0625 C 275.67279,94.786105 273.65073,91.859623 270.09375,91.28125 C 269.81457,91.235855 269.62816,91.268029 269.375,91.25 C 267.5578,90.398016 265.60499,89.793357 263.53125,89.8125 C 259.82642,89.8467 256.09679,91.615368 253.3125,94.59375 C 249.81532,93.760325 246.03882,93.863959 242.625,95.6875 C 239.4969,97.358419 237.15097,100.53726 236.03125,104.21875 C 235.68272,104.39461 235.33918,104.55423 235.03125,104.78125 C 234.84931,104.85079 234.61074,104.85986 234.4375,104.9375 C 223.9385,104.07444 217.00529,99.821867 211.6875,94.28125 C 206.08064,88.439445 202.50886,81.234379 199.75,75.8125 C 193.62717,63.779555 179.3446,48.090748 152.8125,48.21875 z M 231.9375,141.5 C 232.62478,142.29983 233.26054,143.15371 234.1875,143.78125 C 234.37437,143.90776 234.58719,143.97875 234.78125,144.09375 C 231.3154,148.10289 227.85114,152.67799 227.4375,158.5625 C 223.94865,161.65834 220.51056,165.52807 217.375,170.28125 C 217.00943,170.15317 216.63284,170.05902 216.25,170 C 215.34014,169.87462 214.4078,169.8121 213.46875,169.78125 C 213.63203,160.79284 212.50873,151.70629 209.65625,143.84375 C 216.41149,143.84677 223.82815,143.10411 231.9375,141.5 z M 304,199.78125 C 303.64149,199.76068 303.15898,199.76584 302.5625,199.8125 C 298.90947,200.09837 296.1049,202.42905 294.53125,204.5625 C 292.9576,206.69595 292.09756,208.85254 291.375,210.90625 C 290.65244,212.95996 290.11069,214.93701 289.65625,216.46875 C 289.20181,218.00049 288.63951,219.23003 288.875,218.84375 C 288.4207,219.58897 288.0398,219.89797 286.75,220.96875 C 285.4602,222.03953 283.36248,223.85647 281.71875,226.65625 C 279.85513,229.83057 279.52285,232.97049 279.90625,235.9375 C 277.96179,236.22925 275.67644,236.24433 272.875,235.8125 C 271.10916,235.53504 269.30849,236.01952 267.92027,237.14559 C 266.53205,238.27166 265.68654,239.93365 265.59375,241.71875 L 264.9375,253.59375 C 264.7408,257.0708 267.39815,260.04982 270.875,260.25 C 281.15878,260.84155 289.54524,257.50512 295.78125,252.5625 C 299.85176,253.42368 304.52721,253.29181 308.71875,249.875 C 312.60644,246.70588 314.17796,242.58136 315.53125,238.03125 C 316.88454,233.48114 317.62607,228.46359 317.5625,223.65625 C 317.50473,219.28706 317.14821,214.52836 315.625,210.03125 C 314.8634,207.7827 313.8179,205.51992 311.9375,203.53125 C 310.0571,201.54258 307.10625,199.95955 304,199.78125 z M 138.53125,234.46875 C 139.38739,235.95291 140.19856,237.44961 141.1875,238.875 C 140.05684,238.22304 139.08456,237.67718 138.59375,237.4375 C 138.47723,237.16626 138.33233,236.81444 138.3125,236.34375 C 138.29004,235.81054 138.34143,235.1694 138.53125,234.46875 z M 209.625,237.34375 C 209.70224,237.67012 209.76364,237.98399 209.84375,238.3125 C 209.47039,238.52612 209.16584,238.67979 208.71875,238.9375 C 209.03094,238.40977 209.3304,237.88224 209.625,237.34375 z"
         style="fill:#000000;fill-rule:evenodd;stroke:none;stroke-width:3;stroke-linecap:round;stroke-linejoin:round;stroke-miterlimit:4;stroke-opacity:1" />
      <path
         sodipodi:nodetypes="czzzzzz"
         id="path3161"
         d="M 290.22344,243.48298 C 287.06173,240.93907 284.85417,233.80073 287.17074,229.85491 C 289.43954,225.99045 292.18588,225.5121 294.25734,222.11417 C 296.37747,218.63641 297.51543,205.73637 303.63346,206.08755 C 309.64799,206.43279 311.15923,215.73619 311.26518,223.74953 C 311.37257,231.87188 308.61167,241.83998 304.7237,245.00933 C 300.88967,248.1347 293.38515,246.02689 290.22344,243.48298 z"
         style="fill:#000000;fill-rule:evenodd;stroke:#ffffff;stroke-width:3;stroke-linecap:butt;stroke-linejoin:miter;stroke-miterlimit:4;stroke-dasharray:none;stroke-opacity:1" />
      <path
         sodipodi:nodetypes="czz"
         id="path2389"
         d="M 271.90731,242.06566 C 299.96297,246.3903 301.23492,214.79135 304.72371,214.80952 C 308.21363,214.8277 304.1059,255.8391 271.25316,253.94934"
         style="fill:#000000;fill-rule:evenodd;stroke:#ffffff;stroke-width:3;stroke-linecap:round;stroke-linejoin:round;stroke-miterlimit:4;stroke-dasharray:none;stroke-opacity:1" />
      <path
         id="rect3223"
         d="M 75,75 L 75,275 L 275,275 L 275,75 L 75,75 z M 110,110 L 240,110 L 240,240 L 110,240 L 110,110 z"
         style="fill:#000000;fill-opacity:1;stroke:none;stroke-width:1;stroke-linecap:round;stroke-linejoin:round;stroke-miterlimit:4;stroke-dasharray:none;stroke-opacity:1" />
      <path
         style="fill:#000000;fill-rule:evenodd;stroke:#ffffff;stroke-width:3;stroke-linecap:round;stroke-linejoin:round;stroke-miterlimit:4;stroke-dasharray:none;stroke-opacity:1"
         d="M 44.5807,202.9402 C 46.65771,206.65929 48.86083,209.53147 54.26244,208.76532 C 50.05318,214.02186 40.28992,209.89302 41.623,204.9329 C 42.49372,203.89249 43.37722,203.26593 44.5807,202.9402 z"
         id="path3447"
         sodipodi:nodetypes="cccc" />
      <path
         sodipodi:nodetypes="cccc"
         id="path3449"
         d="M 36.10438,191.617 C 34.66019,195.62449 34.58835,199.26051 38.71037,202.83451 C 31.53907,202.18793 29.68984,195.80126 32.2975,190.13172 C 33.65395,190.10629 34.74792,191.64241 36.10438,191.617 z"
         style="fill:#000000;fill-rule:evenodd;stroke:#ffffff;stroke-width:3;stroke-linecap:round;stroke-linejoin:round;stroke-miterlimit:4;stroke-dasharray:none;stroke-opacity:1" />
      <path
         style="fill:#000000;fill-rule:evenodd;stroke:#ffffff;stroke-width:3;stroke-linecap:round;stroke-linejoin:round;stroke-miterlimit:4;stroke-dasharray:none;stroke-opacity:1"
         d="M 34.38336,176.43228 C 30.81823,178.76366 29.04508,182.21142 30.18617,187.54644 C 24.64881,183.71409 25.67791,176.4842 31.08753,174.0442 C 32.18614,174.84021 33.28475,175.63624 34.38336,176.43228 z"
         id="path3451"
         sodipodi:nodetypes="cccc" />
      <path
         sodipodi:nodetypes="czzzzzzzzzzzzzzzzzzzzzzzczzz"
         id="path3453"
         d="M 61.10027,211.05484 C 59.10974,210.87465 52.8257,206.86776 52.30828,204.69818 C 51.77295,202.45357 53.93995,200.52253 53.68458,198.9597 C 53.42921,197.39686 52.34381,195.60075 49.75417,195.76699 C 47.16452,195.93324 45.76313,196.68207 45.50445,199.00509 C 45.23443,201.4299 47.83627,202.97208 47.11905,204.34055 C 46.40182,205.70902 41.41581,207.18085 40.94628,205.6703 C 40.47674,204.15976 40.40675,202.34236 40.18835,200.03601 C 39.96994,197.72964 39.06122,195.65993 39.8675,194.20805 C 40.71731,192.67772 44.33002,193.94946 45.03243,190.42387 C 45.71515,186.99712 43.02942,187.60319 41.82946,187.31227 C 40.62949,187.02136 38.72551,187.4081 37.83265,188.67842 C 36.9398,189.94874 37.63788,193.55192 36.55023,194.10332 C 35.46257,194.65471 31.86375,193.81648 31.49767,191.46307 C 31.13159,189.10967 32.72164,182.46704 34.79955,181.00478 C 36.77492,179.61468 39.6556,181.75243 41.23355,181.42755 C 42.8115,181.10266 43.54382,180.54597 43.32966,178.8773 C 43.1024,177.10648 39.32611,174.97032 36.90012,175.24393 C 34.37162,175.5291 33.26099,179.80951 31.65727,179.85901 C 30.05356,179.90852 27.48856,177.33387 27.69812,175.73512 C 27.91025,174.11672 30.1529,173.76068 32.07425,172.1889 C 33.9956,170.61713 33.80991,168.14463 37.10638,168.50593 C 40.09746,168.83377 41.89028,171.40786 45.25454,171.91676 C 48.61881,172.42566 50.1536,170.26779 53.88166,171.73932 C 57.63213,173.21969 60.07781,176.55549 63.65919,177.23453 C 59.40465,167.73769 64.51523,154.6368 65.78273,152.5415 C 67.02073,150.49498 67.47222,147.98828 67.41483,146.52363 C 67.3575,145.06006 82.95763,142.09343 84.53615,165.07409"
         style="fill:#000000;fill-rule:evenodd;stroke:#ffffff;stroke-width:3;stroke-linecap:round;stroke-linejoin:round;stroke-miterlimit:4;stroke-dasharray:none;stroke-opacity:1" />
      <path
         sodipodi:nodetypes="cccc"
         id="path3389"
         d="M 306.73048,147.0598 C 304.65347,143.34071 302.45035,140.46853 297.04874,141.23468 C 301.258,135.97814 311.02126,140.10698 309.68818,145.0671 C 308.81746,146.10751 307.93396,146.73407 306.73048,147.0598 z"
         style="fill:#000000;fill-rule:evenodd;stroke:#ffffff;stroke-width:3;stroke-linecap:round;stroke-linejoin:round;stroke-miterlimit:4;stroke-dasharray:none;stroke-opacity:1" />
      <path
         style="fill:#000000;fill-rule:evenodd;stroke:#ffffff;stroke-width:3;stroke-linecap:round;stroke-linejoin:round;stroke-miterlimit:4;stroke-dasharray:none;stroke-opacity:1"
         d="M 315.2068,158.383 C 316.65099,154.37551 316.72283,150.73949 312.60081,147.16549 C 319.77211,147.81207 321.62134,154.19874 319.01368,159.86828 C 317.65723,159.89371 316.56326,158.35759 315.2068,158.383 z"
         id="path3391"
         sodipodi:nodetypes="cccc" />
      <path
         sodipodi:nodetypes="cccc"
         id="path3393"
         d="M 316.92782,173.56772 C 320.49295,171.23634 322.2661,167.78858 321.12501,162.45356 C 326.66237,166.28591 325.63327,173.5158 320.22365,175.9558 C 319.12504,175.15979 318.02643,174.36376 316.92782,173.56772 z"
         style="fill:#000000;fill-rule:evenodd;stroke:#ffffff;stroke-width:3;stroke-linecap:round;stroke-linejoin:round;stroke-miterlimit:4;stroke-dasharray:none;stroke-opacity:1" />
      <path
         style="fill:#000000;fill-rule:evenodd;stroke:#ffffff;stroke-width:3;stroke-linecap:round;stroke-linejoin:round;stroke-miterlimit:4;stroke-dasharray:none;stroke-opacity:1"
         d="M 290.21091,138.94516 C 292.20144,139.12535 298.48548,143.13224 299.0029,145.30182 C 299.53823,147.54643 297.37123,149.47747 297.6266,151.0403 C 297.88197,152.60314 298.96737,154.39925 301.55701,154.23301 C 304.14666,154.06676 305.54805,153.31793 305.80673,150.99491 C 306.07675,148.5701 303.47491,147.02792 304.19213,145.65945 C 304.90936,144.29098 309.89537,142.81915 310.3649,144.3297 C 310.83444,145.84024 310.90443,147.65764 311.12283,149.96399 C 311.34124,152.27036 312.24996,154.34007 311.44368,155.79195 C 310.59387,157.32228 306.98116,156.05054 306.27875,159.57613 C 305.59603,163.00288 308.28176,162.39681 309.48172,162.68773 C 310.68169,162.97864 312.58567,162.5919 313.47853,161.32158 C 314.37138,160.05126 313.6733,156.44808 314.76095,155.89668 C 315.84861,155.34529 319.44743,156.18352 319.81351,158.53693 C 320.17959,160.89033 318.58954,167.53296 316.51163,168.99522 C 314.53626,170.38532 311.65558,168.24757 310.07763,168.57245 C 308.49968,168.89734 307.76736,169.45403 307.98152,171.1227 C 308.20878,172.89352 311.98507,175.02968 314.41106,174.75607 C 316.93956,174.4709 318.05019,170.19049 319.65391,170.14099 C 321.25762,170.09148 323.82262,172.66613 323.61306,174.26488 C 323.40093,175.88328 321.15828,176.23932 319.23693,177.8111 C 317.31558,179.38287 317.50127,181.85537 314.2048,181.49407 C 311.21372,181.16623 309.4209,178.59214 306.05664,178.08324 C 302.69237,177.57434 301.15758,179.73221 297.42952,178.26068 C 293.67905,176.78031 291.23337,173.44451 287.65199,172.76547 C 291.90653,182.26231 286.79595,195.3632 285.52845,197.4585 C 284.29045,199.50502 283.83896,202.01172 283.89635,203.47637 C 283.95368,204.93994 268.35355,207.90657 266.77503,184.92591"
         id="path3397"
         sodipodi:nodetypes="czzzzzzzzzzzzzzzzzzzzzzzczzz" />
      <path
         style="fill:#000000;fill-rule:evenodd;stroke:#ffffff;stroke-width:3;stroke-linecap:round;stroke-linejoin:round;stroke-miterlimit:4;stroke-dasharray:none;stroke-opacity:1"
         d="M 111.45265,221.45923 C 112.45329,217.31866 111.38364,213.59214 106.89802,210.48671 C 113.55744,209.48607 116.07628,214.79981 115.4897,220.94166 C 114.14402,221.11418 112.79833,221.28671 111.45265,221.45923 z"
         id="path3361"
         sodipodi:nodetypes="cccc" />
      <path
         sodipodi:nodetypes="cccc"
         id="path3363"
         d="M 108.62895,236.47839 C 112.41036,234.51712 115.34915,232.40367 114.75003,226.98099 C 119.87419,231.35044 115.44607,240.98166 110.52945,239.49617 C 109.5164,238.59376 108.9174,237.69135 108.62895,236.47839 z"
         style="fill:#000000;fill-rule:evenodd;stroke:#ffffff;stroke-width:3;stroke-linecap:round;stroke-linejoin:round;stroke-miterlimit:4;stroke-dasharray:none;stroke-opacity:1" />
      <path
         style="fill:#000000;fill-rule:evenodd;stroke:#ffffff;stroke-width:3;stroke-linecap:round;stroke-linejoin:round;stroke-miterlimit:4;stroke-dasharray:none;stroke-opacity:1"
         d="M 97.04961,244.6013 C 101.01063,246.16845 104.64271,246.35245 108.34219,242.34267 C 107.47465,249.4906 101.03396,251.14189 95.44758,248.36054 C 95.46401,247.00395 97.03316,245.9579 97.04961,244.6013 z"
         id="path3365"
         sodipodi:nodetypes="cccc" />
      <path
         sodipodi:nodetypes="cccc"
         id="path3367"
         d="M 81.81902,245.85297 C 84.03929,249.48834 87.43069,251.36703 92.79838,250.39109 C 88.79701,255.80757 81.60231,254.55588 79.33038,249.07356 C 80.15991,248.00003 80.98947,246.9265 81.81902,245.85297 z"
         style="fill:#000000;fill-rule:evenodd;stroke:#ffffff;stroke-width:3;stroke-linecap:round;stroke-linejoin:round;stroke-miterlimit:4;stroke-dasharray:none;stroke-opacity:1" />
      <path
         sodipodi:nodetypes="czzcczc"
         id="path3266"
         d="M 238.5,133.61606 C 179.73366,148.70973 160.37026,117.15259 154.40085,105.40826 C 148.37933,93.561393 140.64566,73.5 129.10401,73.5 L 111.71792,73.5 L 140.29693,73.5 C 148.31155,73.48059 166.70382,74.13037 182.6087,107.26405 C 198.53154,140.43515 228.13834,133.60838 238.5,133.61606 z"
         style="fill:#000000;fill-rule:evenodd;stroke:#ffffff;stroke-width:3;stroke-linecap:butt;stroke-linejoin:miter;stroke-miterlimit:4;stroke-dasharray:none;stroke-opacity:1" />
      <path
         style="fill:#000000;fill-rule:evenodd;stroke:#ffffff;stroke-width:3;stroke-linecap:butt;stroke-linejoin:miter;stroke-miterlimit:4;stroke-dasharray:none;stroke-opacity:1"
         d="M 238.5,111.5 C 210.16844,111.74743 199.71278,89.68706 194.11453,78.68504 C 188.66681,67.97887 177.01834,54.42801 152.85798,54.54457 C 128.78657,54.66069 113.20254,69.8503 111.71792,73.5 L 140.297,73.5 C 148.31162,73.48059 166.70382,74.13037 182.6087,107.26405 C 198.53154,140.43515 228.13834,133.60844 238.5,133.61612 L 238.5,111.5 z"
         id="path3264"
         sodipodi:nodetypes="czzcczcc" />
      <path
         style="fill:#000000;fill-rule:evenodd;stroke:#ffffff;stroke-width:3;stroke-linecap:butt;stroke-linejoin:miter;stroke-miterlimit:4;stroke-dasharray:none;stroke-opacity:1"
         d="M 133.61606,111.5 C 148.70973,170.26634 117.15259,189.62974 105.40826,195.59915 C 93.561393,201.62067 73.5,209.35434 73.5,220.89599 L 73.5,238.28208 L 73.5,209.70307 C 73.48059,201.68845 74.13037,183.29618 107.26405,167.3913 C 140.43515,151.46846 133.60838,121.86166 133.61606,111.5 z"
         id="path3461"
         sodipodi:nodetypes="czzcczc" />
      <path
         sodipodi:nodetypes="czzcczcc"
         id="path3463"
         d="M 111.5,111.5 C 111.74743,139.83156 89.68706,150.28722 78.68504,155.88547 C 67.97887,161.33319 54.42801,172.98166 54.54457,197.14202 C 54.66069,221.21343 69.8503,236.79746 73.5,238.28208 L 73.5,209.703 C 73.48059,201.68838 74.13037,183.29618 107.26405,167.3913 C 140.43515,151.46846 133.60844,121.86166 133.61612,111.5 L 111.5,111.5 z"
         style="fill:#000000;fill-rule:evenodd;stroke:#ffffff;stroke-width:3;stroke-linecap:butt;stroke-linejoin:miter;stroke-miterlimit:4;stroke-dasharray:none;stroke-opacity:1" />
      <path
         sodipodi:nodetypes="czzcczc"
         id="path3465"
         d="M 216.38394,238.5 C 201.29027,179.73366 232.84741,160.37026 244.59174,154.40085 C 256.43861,148.37933 276.5,140.64566 276.5,129.10401 L 276.5,111.71792 L 276.5,140.29693 C 276.51941,148.31155 275.86963,166.70382 242.73595,182.6087 C 209.56485,198.53154 216.39162,228.13834 216.38394,238.5 z"
         style="fill:#000000;fill-rule:evenodd;stroke:#ffffff;stroke-width:3;stroke-linecap:butt;stroke-linejoin:miter;stroke-miterlimit:4;stroke-dasharray:none;stroke-opacity:1" />
      <path
         style="fill:#000000;fill-rule:evenodd;stroke:#ffffff;stroke-width:3;stroke-linecap:butt;stroke-linejoin:miter;stroke-miterlimit:4;stroke-dasharray:none;stroke-opacity:1"
         d="M 238.5,238.5 C 238.25257,210.16844 260.31294,199.71278 271.31496,194.11453 C 282.02113,188.66681 295.57199,177.01834 295.45543,152.85798 C 295.33931,128.78657 280.1497,113.20254 276.5,111.71792 L 276.5,140.297 C 276.51941,148.31162 275.86963,166.70382 242.73595,182.6087 C 209.56485,198.53154 216.39156,228.13834 216.38388,238.5 L 238.5,238.5 z"
         id="path3467"
         sodipodi:nodetypes="czzcczcc" />
      <path
         sodipodi:nodetypes="cccc"
         id="path3233"
         d="M 238.54735,128.54077 C 237.54671,132.68134 238.61636,136.40786 243.10198,139.51329 C 236.44256,140.51393 233.92372,135.20019 234.5103,129.05834 C 235.85598,128.88582 237.20167,128.71329 238.54735,128.54077 z"
         style="fill:#000000;fill-rule:evenodd;stroke:#ffffff;stroke-width:3;stroke-linecap:round;stroke-linejoin:round;stroke-miterlimit:4;stroke-dasharray:none;stroke-opacity:1" />
      <path
         style="fill:#000000;fill-rule:evenodd;stroke:#ffffff;stroke-width:3;stroke-linecap:round;stroke-linejoin:round;stroke-miterlimit:4;stroke-dasharray:none;stroke-opacity:1"
         d="M 241.37105,113.52161 C 237.58964,115.48288 234.65085,117.59633 235.24997,123.01901 C 230.12581,118.64956 234.55393,109.01834 239.47055,110.50383 C 240.4836,111.40624 241.0826,112.30865 241.37105,113.52161 z"
         id="path3235"
         sodipodi:nodetypes="cccc" />
      <path
         sodipodi:nodetypes="cccc"
         id="path3237"
         d="M 252.95039,105.3987 C 248.98937,103.83155 245.35729,103.64755 241.65781,107.65733 C 242.52535,100.5094 248.96604,98.85811 254.55242,101.63946 C 254.53599,102.99605 252.96684,104.0421 252.95039,105.3987 z"
         style="fill:#000000;fill-rule:evenodd;stroke:#ffffff;stroke-width:3;stroke-linecap:round;stroke-linejoin:round;stroke-miterlimit:4;stroke-dasharray:none;stroke-opacity:1" />
      <path
         style="fill:#000000;fill-rule:evenodd;stroke:#ffffff;stroke-width:3;stroke-linecap:round;stroke-linejoin:round;stroke-miterlimit:4;stroke-dasharray:none;stroke-opacity:1"
         d="M 268.18098,104.14703 C 265.96071,100.51166 262.56931,98.632965 257.20162,99.608907 C 261.20299,94.192425 268.39769,95.444115 270.66962,100.92644 C 269.84009,101.99997 269.01053,103.0735 268.18098,104.14703 z"
         id="path3239"
         sodipodi:nodetypes="cccc" />
      <path
         sodipodi:nodetypes="cccc"
         id="path3241"
         d="M 276.78805,121.63413 C 278.51369,116.26005 277.31336,114.14489 275.67261,111.80459 C 281.71095,112.35667 283.09113,114.56499 283.22914,119.67169 C 281.88348,119.84423 278.13374,121.46161 276.78805,121.63413 z"
         style="fill:#000000;fill-rule:evenodd;stroke:#ffffff;stroke-width:3;stroke-linecap:round;stroke-linejoin:round;stroke-miterlimit:4;stroke-dasharray:none;stroke-opacity:1" />
      <path
         sodipodi:nodetypes="czzzzzzzzzzzzzzzzzzzzzzzzzzzzzzzzzcczz"
         id="path3231"
         d="M 271.05085,171.18867 C 269.80868,170.39506 268.9288,167.7382 263.08024,171.18867 C 257.18588,174.66616 236.87386,172.1203 233.99272,162.28644 C 231.1395,152.54786 249.41636,139.77207 251.38313,133.92351 C 253.3499,128.07495 245.53835,126.85204 242.68792,127.40212 C 239.73777,127.97144 239.37547,132.09476 237.30518,132.47431 C 235.23489,132.85386 232.50903,131.76696 232.75056,129.78294 C 232.99209,127.79892 237.19095,121.6415 239.37547,121.19126 C 241.63553,120.72545 243.49879,122.951 245.06876,122.74397 C 246.63873,122.53694 248.46747,121.50748 248.38121,118.91394 C 248.29495,116.3204 247.58971,114.89657 245.27578,114.56634 C 242.86045,114.22163 241.23873,116.77464 239.89304,116.01554 C 238.54735,115.25643 237.23007,110.22739 238.75438,109.80468 C 240.27869,109.38197 242.09739,109.36809 244.40938,109.22096 C 246.72138,109.07382 248.81815,108.22939 250.24447,109.08008 C 251.74784,109.97671 250.36524,113.54845 253.86747,114.35931 C 257.27153,115.14744 256.74862,112.44429 257.07642,111.25388 C 257.40422,110.06346 257.07641,108.14845 255.83424,107.21682 C 254.59207,106.28519 250.96907,106.87177 250.4515,105.76762 C 249.93393,104.66347 250.8828,101.09222 253.24638,100.79893 C 255.60996,100.50564 262.20037,102.29989 263.59782,104.42193 C 264.9263,106.43925 262.70069,109.2526 262.97673,110.83982 C 263.25277,112.42704 263.7866,113.17619 265.46108,113.01362 C 267.23808,112.8411 269.48974,109.13253 269.29111,106.69925 C 269.08409,104.16315 264.83999,102.92098 264.83999,101.3165 C 264.83999,99.712032 267.49255,97.227689 269.08408,97.486474 C 270.69517,97.74844 270.98184,100.00101 272.49358,101.96994 C 274.00532,103.93887 276.48238,103.82956 276.01954,107.11331 C 275.59957,110.09286 271.68919,114.49733 271.15436,118.08583 C 270.62157,121.66067 272.89454,123.57743 275.70899,122.53694 C 278.55563,121.48454 279.10771,117.05068 280.88471,116.63663 C 282.66171,116.22257 285.08978,117.86785 284.92177,119.53503 C 284.75376,121.20221 282.24697,122.36712 281.00146,124.45544 C 279.75595,126.54376 279.99393,128.75779 278.60739,129.4724 C 277.13845,130.22947 269.94669,129.38614 269.08408,127.40212 C 266.89632,130.23963 254.90261,153.26344 254.38504,156.69666 C 256.9729,150.29603 264.64973,149.79571 268.25596,149.76121 C 271.8617,149.72671 275.81251,151.866 277.98631,154.62638"
         style="fill:#000000;fill-rule:evenodd;stroke:#ffffff;stroke-width:3;stroke-linecap:round;stroke-linejoin:round;stroke-miterlimit:4;stroke-dasharray:none;stroke-opacity:1" />
      <path
         style="fill:#000000;fill-rule:evenodd;stroke:#ffffff;stroke-width:3;stroke-linecap:round;stroke-linejoin:round;stroke-miterlimit:4;stroke-dasharray:none;stroke-opacity:1"
         d="M 73.21195,228.36587 C 71.48631,233.73995 72.68664,235.85511 74.32739,238.19541 C 68.28905,237.64333 66.90887,235.43501 66.77086,230.32831 C 68.11652,230.15577 71.86626,228.53839 73.21195,228.36587 z"
         id="path3744"
         sodipodi:nodetypes="cccc" />
      <path
         style="fill:#000000;fill-rule:evenodd;stroke:#ffffff;stroke-width:3;stroke-linecap:round;stroke-linejoin:round;stroke-miterlimit:4;stroke-dasharray:none;stroke-opacity:1"
         d="M 78.94915,178.81133 C 80.19132,179.60494 81.0712,182.2618 86.91976,178.81133 C 92.81412,175.33384 113.12614,177.8797 116.00728,187.71356 C 118.8605,197.45214 100.58364,210.22793 98.61687,216.07649 C 96.6501,221.92505 104.46165,223.14796 107.31208,222.59788 C 110.26223,222.02856 110.62453,217.90524 112.69482,217.52569 C 114.76511,217.14614 117.49097,218.23304 117.24944,220.21706 C 117.00791,222.20108 112.80905,228.3585 110.62453,228.80874 C 108.36447,229.27455 106.50121,227.049 104.93124,227.25603 C 103.36127,227.46306 101.53253,228.49252 101.61879,231.08606 C 101.70505,233.6796 102.41029,235.10343 104.72422,235.43366 C 107.13955,235.77837 108.76127,233.22536 110.10696,233.98446 C 111.45265,234.74357 112.76993,239.77261 111.24562,240.19532 C 109.72131,240.61803 107.90261,240.63191 105.59062,240.77904 C 103.27862,240.92618 101.18185,241.77061 99.75553,240.91992 C 98.25216,240.02329 99.63476,236.45155 96.13253,235.64069 C 92.72847,234.85256 93.25138,237.55571 92.92358,238.74612 C 92.59578,239.93654 92.92359,241.85155 94.16576,242.78318 C 95.40793,243.71481 99.03093,243.12823 99.5485,244.23238 C 100.06607,245.33653 99.1172,248.90778 96.75362,249.20107 C 94.39004,249.49436 87.79963,247.70011 86.40218,245.57807 C 85.0737,243.56075 87.29931,240.7474 87.02327,239.16018 C 86.74723,237.57296 86.2134,236.82381 84.53892,236.98638 C 82.76192,237.1589 80.51026,240.86747 80.70889,243.30075 C 80.91591,245.83685 85.16001,247.07902 85.16001,248.6835 C 85.16001,250.28797 82.50745,252.77231 80.91592,252.51353 C 79.30483,252.25156 79.01816,249.99899 77.50642,248.03006 C 75.99468,246.06113 73.51762,246.17044 73.98046,242.88669 C 74.40043,239.90714 78.31081,235.50267 78.84564,231.91417 C 79.37843,228.33933 77.10546,226.42257 74.29101,227.46306 C 71.44437,228.51546 70.89229,232.94932 69.11529,233.36337 C 67.33829,233.77743 64.91022,232.13215 65.07823,230.46497 C 65.24624,228.79779 67.75303,227.63288 68.99854,225.54456 C 70.24405,223.45624 70.00607,221.24221 71.39261,220.5276 C 72.86155,219.77053 80.05331,220.61386 80.91592,222.59788 C 83.10368,219.76037 95.09739,196.73656 95.61496,193.30334 C 93.0271,199.70397 85.35027,200.20429 81.74404,200.23879 C 78.1383,200.27329 74.18749,198.134 72.01369,195.37362"
         id="path3371"
         sodipodi:nodetypes="czzzzzzzzzzzzzzzzzzzzzzzzzzzzzzzzzcczz" />
      <path
         sodipodi:nodetypes="czcccccczczcczzzcccczzz"
         d="M 196.1157,244.84957 C 207.20309,234.71472 212.03718,214.78486 211.70884,201.29297 C 211.38057,187.80403 208.09042,179.49144 215.36075,176.26479 C 212.77791,175.90887 208.91547,176.38553 206.71345,178.05871 C 209.01716,159.85507 203.90951,137.17405 193.60325,131.82764 C 195.97893,138.79777 195.93775,153.13123 194.06178,158.81103 C 183.36219,142.4726 188.18791,125.64112 191.55106,120.70202 C 183.73142,123.52537 182.18729,135.16021 180.73835,141.90711 C 182.1483,135.17781 180.89642,126.46505 176.87212,120.69296 C 172.81653,114.876 167.2503,112.45531 168.50477,103.92365 C 161.99318,109.30437 165.97829,116.67119 168.68307,123.24737 C 171.32657,129.67455 170.56076,137.4005 164.74952,140.47522 C 164.98386,134.25202 164.19677,120.60641 155.57256,112.93333 C 157.50122,116.80504 157.55268,118.20621 157.65939,121.20424 C 157.7661,124.20227 156.99288,127.57191 155.88547,130.27572 C 154.76472,133.01209 153.04723,135.62482 151.6099,139.55107 C 150.21496,143.36155 149.93241,146.11537 150.34726,148.52966 C 147.05102,145.96727 145.49985,135.76003 147.29615,127.61938 C 138.09552,136.05016 139.04128,150.88107 140.73538,162.20969 C 138.31743,159.5115 135.70661,157.68116 132.1315,159.22587 C 139.60237,163.08044 134.80063,174.75602 134.10102,186.12189 C 133.3955,197.58382 135.838,225.2597 151.39027,241.45714 C 167.12167,257.84115 185.20101,254.82656 196.1157,244.84957 z"
         style="fill:#000000;fill-rule:evenodd;stroke:#ffffff;stroke-width:3;stroke-linecap:round;stroke-linejoin:round;stroke-opacity:1;stroke-miterlimit:4;stroke-dasharray:none"
         id="path3500" />
      <path
         sodipodi:nodetypes="csccscccccscccccsccsc"
         id="path3491"
         d="M 175,311.6875 C 181.82371,311.6875 185.15219,315.29439 188.28125,312.125 C 191.57575,308.78807 189.80255,316.02427 190.65625,303.5625 L 193.53125,261.59375 C 198.68893,259.86408 201.51669,254.14501 199.84375,248.8125 C 198.85829,245.67134 196.73849,243.41961 193.71875,242.34375 L 196.15625,231.46875 C 207.2,220.2585 205.41816,196.22155 200.3125,185.84375 C 202.14388,212.75944 195.00544,221.36169 190.34375,205.65625 C 188.40138,210.04046 188.78335,218.26074 194,221.8125 C 188.66308,229.96949 181.78913,232.90625 175,232.90625 C 168.21087,232.90625 161.33692,229.96949 156,221.8125 C 161.21665,218.26074 161.59862,210.04046 159.65625,205.65625 C 154.99456,221.36169 147.85612,212.75944 149.6875,185.84375 C 144.58184,196.22155 142.8,220.2585 153.84375,231.46875 L 156.28125,242.34375 C 153.26151,243.41961 151.14171,245.67134 150.15625,248.8125 C 148.48331,254.14501 151.31107,259.86408 156.46875,261.59375 L 159.34375,303.5625 C 160.19745,316.02427 158.42425,308.78807 161.71875,312.125 C 164.84781,315.29439 168.17629,311.6875 175,311.6875 z"
         style="fill:#000000;fill-opacity:1;stroke:#ffffff;stroke-width:3;stroke-linecap:round;stroke-linejoin:round;stroke-miterlimit:4;stroke-opacity:1" />
      <path
         sodipodi:nodetypes="csscsccccccccsssccccccccscsscsssssccccszsccccsssssc"
         id="path3520"
         d="M 134.84375,227.96875 C 130.84802,230.46608 126.92965,239.85326 130.6875,244.625 C 134.30066,249.21301 135.99242,247.32144 137.71875,251.3125 C 139.38421,255.16284 134.76913,258.18077 135.09375,265 C 135.43897,272.37041 145.48757,275.23433 146.6875,280.0625 C 147.88743,284.89067 142.59994,289.02311 141.71875,294.40625 C 140.26017,302.12882 145.02038,307.61686 150.8125,310.90625 L 148.71875,315.875 L 153.96875,312.65625 L 151.84375,318.75 L 157.125,314.4375 L 155,321.625 C 155.94354,320.64551 157.52969,318.71883 159.65625,316.84375 C 159.77701,319.12769 160.20657,320.59334 161.71875,322.125 C 164.84781,325.29439 168.17629,321.6875 175,321.6875 C 181.82371,321.6875 185.15219,325.29439 188.28125,322.125 C 189.79343,320.59334 190.22299,319.12769 190.34375,316.84375 C 192.47031,318.71883 194.05646,320.64551 195,321.625 L 192.875,314.4375 L 198.15625,318.75 L 196.03125,312.65625 L 201.28125,315.875 L 199.1875,310.90625 C 204.97962,307.61686 209.73983,302.12882 208.28125,294.40625 C 207.40006,289.02311 202.11257,284.89067 203.3125,280.0625 C 204.51243,275.23433 214.56103,272.37041 214.90625,265 C 215.23087,258.18077 210.61579,255.16284 212.28125,251.3125 C 214.00758,247.32144 215.69934,249.21301 219.3125,244.625 C 223.07035,239.85326 219.15198,230.46608 215.15625,227.96875 C 219.65144,234.07334 217.98371,240.22054 215.96875,242.125 C 214.04343,243.94473 208.79312,244.50909 206.90625,249.78125 C 204.96647,255.20125 210.71985,260.10932 208.5,264.9375 C 206.30829,269.70447 197.54804,272.70787 196.46875,279.3125 C 195.36296,286.07933 198.4666,289.19448 199.875,292.46875 C 201.34406,295.88406 201.9159,300.27205 196.625,302.71875 C 195.06494,301.2566 195.30566,297.72114 196.5,294.71875 C 194.49564,295.86284 192.24654,297.77172 191.0625,299.28125 C 190.35235,297.47358 188.46569,294.07525 185.8125,292.40625 C 185.76568,295.71301 190.00888,310.04329 185.78125,311.4375 C 181.86489,312.72906 181.94326,308.375 175,308.375 C 168.05674,308.375 168.13511,312.72906 164.21875,311.4375 C 159.99112,310.04329 164.23432,295.71301 164.1875,292.40625 C 161.53431,294.07525 159.64765,297.47358 158.9375,299.28125 C 157.75346,297.77172 155.50436,295.86284 153.5,294.71875 C 154.69434,297.72114 154.93506,301.2566 153.375,302.71875 C 148.0841,300.27205 148.65594,295.88406 150.125,292.46875 C 151.5334,289.19448 154.63704,286.07933 153.53125,279.3125 C 152.45196,272.70787 143.69171,269.70447 141.5,264.9375 C 139.28015,260.10932 145.03353,255.20125 143.09375,249.78125 C 141.20688,244.50909 135.95657,243.94473 134.03125,242.125 C 132.01629,240.22054 130.34856,234.07334 134.84375,227.96875 z"
         style="fill:#000000;fill-rule:evenodd;stroke:#ffffff;stroke-width:3;stroke-linecap:round;stroke-linejoin:round;stroke-miterlimit:4;stroke-dasharray:none;stroke-opacity:1" />
      <path
         id="path3489"
         d="M 150.15625 248.84375 C 147.65699 250.68548 146 253.68109 146 257.09375 C 146 262.69976 150.42154 267.24999 155.84375 267.25 C 160.22573 267.25 163.92344 264.28659 165.1875 260.1875 C 163.5812 261.3712 161.62144 262.09375 159.5 262.09375 C 154.0778 262.09375 149.6875 257.54351 149.6875 251.9375 C 149.6875 250.86105 149.85567 249.81758 150.15625 248.84375 z "
         style="opacity:1;fill:#000000;fill-opacity:1;stroke:#ffffff;stroke-width:3;stroke-linecap:round;stroke-linejoin:round;stroke-miterlimit:4;stroke-dasharray:none;stroke-opacity:1" />
      <path
         style="opacity:1;fill:#000000;fill-opacity:1;stroke:#ffffff;stroke-width:3;stroke-linecap:round;stroke-linejoin:round;stroke-miterlimit:4;stroke-dasharray:none;stroke-opacity:1"
         d="M 199.84375,248.84375 C 202.34301,250.68548 204,253.68109 204,257.09375 C 204,262.69976 199.57846,267.24999 194.15625,267.25 C 189.77427,267.25 186.07656,264.28659 184.8125,260.1875 C 186.4188,261.3712 188.37856,262.09375 190.5,262.09375 C 195.9222,262.09375 200.3125,257.54351 200.3125,251.9375 C 200.3125,250.86105 200.14433,249.81758 199.84375,248.84375 z"
         id="path3511" />
    </g>
  </g>
</svg>
