<?xml version="1.0" encoding="UTF-8" standalone="no"?>
<!-- Created with Inkscape (http://www.inkscape.org/) -->
<svg
   xmlns:dc="http://purl.org/dc/elements/1.1/"
   xmlns:cc="http://creativecommons.org/ns#"
   xmlns:rdf="http://www.w3.org/1999/02/22-rdf-syntax-ns#"
   xmlns:svg="http://www.w3.org/2000/svg"
   xmlns="http://www.w3.org/2000/svg"
   xmlns:sodipodi="http://sodipodi.sourceforge.net/DTD/sodipodi-0.dtd"
   xmlns:inkscape="http://www.inkscape.org/namespaces/inkscape"
   width="250"
   height="250"
   id="svg2"
   sodipodi:version="0.32"
   inkscape:version="0.46"
   version="1.0"
   sodipodi:docname="Faces-icon.svg"
   inkscape:output_extension="org.inkscape.output.svg.inkscape">
  <defs
     id="defs4">
    <inkscape:perspective
       sodipodi:type="inkscape:persp3d"
       inkscape:vp_x="0 : 526.18109 : 1"
       inkscape:vp_y="0 : 1000 : 0"
       inkscape:vp_z="744.09448 : 526.18109 : 1"
       inkscape:persp3d-origin="372.04724 : 350.78739 : 1"
       id="perspective10" />
    <inkscape:perspective
       id="perspective3217"
       inkscape:persp3d-origin="372.04724 : 350.78739 : 1"
       inkscape:vp_z="744.09448 : 526.18109 : 1"
       inkscape:vp_y="0 : 1000 : 0"
       inkscape:vp_x="0 : 526.18109 : 1"
       sodipodi:type="inkscape:persp3d" />
  </defs>
  <sodipodi:namedview
     id="base"
     pagecolor="#ffffff"
     bordercolor="#666666"
     borderopacity="1.0"
     gridtolerance="10000"
     guidetolerance="10"
     objecttolerance="10"
     inkscape:pageopacity="0.0"
     inkscape:pageshadow="2"
     inkscape:zoom="3.772"
     inkscape:cx="83.64263"
     inkscape:cy="125"
     inkscape:document-units="px"
     inkscape:current-layer="layer1"
     showgrid="false"
     inkscape:window-width="1904"
     inkscape:window-height="1150"
     inkscape:window-x="0"
     inkscape:window-y="14" />
  <metadata
     id="metadata7">
    <rdf:RDF>
      <cc:Work
         rdf:about="">
        <dc:format>image/svg+xml</dc:format>
        <dc:type
           rdf:resource="http://purl.org/dc/dcmitype/StillImage" />
      </cc:Work>
    </rdf:RDF>
  </metadata>
  <g
     inkscape:label="Layer 1"
     inkscape:groupmode="layer"
     id="layer1">
    <g
       id="g3183">
      <rect
         y="27.306469"
         x="28.632025"
         height="191.41039"
         width="192.47084"
         id="rect3289"
         style="fill:#ffffff;fill-opacity:1;stroke:none;stroke-width:3;stroke-linecap:round;stroke-linejoin:round;stroke-miterlimit:4;stroke-dasharray:none;stroke-opacity:1" />
      <path
         style="fill:#000000;fill-rule:evenodd;stroke:#ffffff;stroke-width:3;stroke-linecap:butt;stroke-linejoin:miter;stroke-miterlimit:4;stroke-dasharray:none;stroke-opacity:1"
         d="M 114.11877,202 C 112.01028,195.90638 104.68124,191.78722 99.80276,190.49417 C 94.67615,189.13535 85.87314,184.62376 82.57052,182.54082 C 79.57792,180.65342 75.09843,176.60981 75.14741,173.26193 C 75.20027,169.649 78.26718,168.51595 83.10075,168.22482 C 87.67019,167.9496 96.49677,168.80817 100.06787,167.42948 C 103.63897,166.05079 104.09388,165.77077 104.83987,163.71792 C 105.58586,161.66507 104.80319,159.00709 104.04454,157.35525 C 103.28589,155.70341 100.99889,154.87113 101.12831,153.11347 C 101.25773,151.35581 106.55294,150.87858 106.96076,149.1368 C 107.36858,147.39502 105.25766,146.81855 105.63521,145.16013 C 106.01276,143.50171 109.56685,142.8986 109.87699,141.18346 C 110.18713,139.46832 107.38477,138.66368 106.96076,136.94168 C 106.53675,135.21968 106.78313,131.52791 107.7561,130.31389 C 108.8529,128.94535 112.88806,129.05918 115.44432,125.54188 C 118.12824,121.84896 106.24447,111.6496 104.30965,106.18876 C 106.91631,103.97025 111.4579,98.603671 113.05832,95.054083 C 114.65874,91.504495 113.99744,87.788723 112.55312,85.415893 C 111.10231,83.03239 107.08576,81.875644 106.69565,81.798515 C 106.98344,81.401851 108.8698,77.194852 109.34676,74.905621 C 109.82372,72.61639 110.43839,68.961522 109.61188,67.217391 C 108.78537,65.47326 107.96849,63.676307 106.16543,63.770944 C 104.36237,63.865581 103.40886,66.941054 102.71899,69.338282 C 102.02911,71.73551 99.95301,73.95181 97.15165,73.845175 C 94.61504,73.748618 84.33918,65.632839 79.6543,64.036055 C 75.0564,62.468917 65.77982,61.895423 61.36161,62.445387 C 57.20457,62.962839 51.71455,63.701554 48,66.156946 C 47.96393,105.37856 48,202 48,202 C 48,202 105.62281,201.99606 114.11877,202 z"
         id="path3181"
         sodipodi:nodetypes="czzzzzzzzzzzzzzczzczzzzzzzccc" />
      <rect
         style="fill:#000000;fill-opacity:1;stroke:none;stroke-width:1.01100004;stroke-linecap:round;stroke-linejoin:round;stroke-miterlimit:4;stroke-dasharray:none;stroke-opacity:1"
         id="rect3233"
         width="78.523331"
         height="158.37222"
         x="125"
         y="45.946445" />
      <path
         id="rect3223"
         d="M 25,25 L 25,225 L 225,225 L 225,25 L 25,25 z M 37.5,37.5 L 212.5,37.5 L 212.5,212.5 L 37.5,212.5 L 37.5,37.5 z"
         style="fill:#000000;fill-opacity:1;stroke:none;stroke-width:1.01100004;stroke-linecap:round;stroke-linejoin:round;stroke-miterlimit:4;stroke-dasharray:none;stroke-opacity:1" />
      <path
         sodipodi:nodetypes="czzzzzzzzzzzzzzczzczzzzzzzccc"
         id="path3239"
         d="M 135.88123,202 C 137.98972,195.90638 145.31876,191.78722 150.19724,190.49417 C 155.32385,189.13535 164.12686,184.62376 167.42948,182.54082 C 170.42208,180.65342 174.90157,176.60981 174.85259,173.26193 C 174.79973,169.649 171.73282,168.51595 166.89925,168.22482 C 162.32981,167.9496 153.50323,168.80817 149.93213,167.42948 C 146.36103,166.05079 145.90612,165.77077 145.16013,163.71792 C 144.41414,161.66507 145.19681,159.00709 145.95546,157.35525 C 146.71411,155.70341 149.00111,154.87113 148.87169,153.11347 C 148.74227,151.35581 143.44706,150.87858 143.03924,149.1368 C 142.63142,147.39502 144.74234,146.81855 144.36479,145.16013 C 143.98724,143.50171 140.43315,142.8986 140.12301,141.18346 C 139.81287,139.46832 142.61523,138.66368 143.03924,136.94168 C 143.46325,135.21968 143.21687,131.52791 142.2439,130.31389 C 141.1471,128.94535 137.11194,129.05918 134.55568,125.54188 C 131.87176,121.84896 143.75553,111.6496 145.69035,106.18876 C 143.08369,103.97025 138.5421,98.603671 136.94168,95.054083 C 135.34126,91.504495 136.00256,87.788723 137.44688,85.415893 C 138.89769,83.03239 142.91424,81.875644 143.30435,81.798515 C 143.01656,81.401851 141.1302,77.194852 140.65324,74.905621 C 140.17628,72.61639 139.56161,68.961522 140.38812,67.217391 C 141.21463,65.47326 142.03151,63.676307 143.83457,63.770944 C 145.63763,63.865581 146.59114,66.941054 147.28101,69.338282 C 147.97089,71.73551 150.04699,73.95181 152.84835,73.845175 C 155.38496,73.748618 165.66082,65.632839 170.3457,64.036055 C 174.9436,62.468917 184.22018,61.895423 188.63839,62.445387 C 192.79543,62.962839 198.28545,63.701554 202,66.156946 C 202.03607,105.37856 202,202 202,202 C 202,202 144.37719,201.99606 135.88123,202 z"
         style="fill:#ffffff;fill-rule:evenodd;stroke:#000000;stroke-width:3;stroke-linecap:butt;stroke-linejoin:miter;stroke-miterlimit:4;stroke-dasharray:none;stroke-opacity:1" />
      <path
         style="fill:#ffffff;fill-rule:evenodd;stroke:#000000;stroke-width:3;stroke-linecap:round;stroke-linejoin:round;stroke-miterlimit:4;stroke-dasharray:none;stroke-opacity:1"
         d="M 202.01522,103.92904 C 202.01776,136.61936 202.01176,169.30968 202,202 C 202,202 136.37719,201.99606 127.88123,202 C 129.98972,195.90638 145.31876,191.78722 150.19724,190.49417 C 155.32385,189.13535 164.12686,184.62376 167.42948,182.54082 C 170.42208,180.65342 174.07193,177.45804 175.33839,173.31591 C 176.60938,169.15897 173.85053,155.77784 173.68082,146.1427 C 173.51111,136.50756 178.25174,114.89393 172.4666,109.3701 C 166.68146,103.84627 161.8065,105.76756 157.62036,108.30965 C 153.45798,110.83731 151.20959,115.50625 149.66702,119.97455 C 148.11879,124.45924 148.60045,134.19057 151.25769,138.79745 C 153.8916,143.36388 158.41569,146.7508 158.41569,146.7508"
         id="path3271"
         sodipodi:nodetypes="ccczzzzzzzzz" />
      <path
         style="fill:#ffffff;fill-opacity:1;fill-rule:evenodd;stroke:#000000;stroke-width:3;stroke-linecap:butt;stroke-linejoin:round;stroke-miterlimit:4;stroke-dasharray:none;stroke-opacity:1"
         d="M 201.82654,182.49784 C 194.59958,180.99196 187.33523,173.9701 180.49937,164.27818 C 173.6635,154.58625 167.25613,142.22426 161.74313,130.03811 C 167.36481,112.54973 166.45774,100.00919 148.35315,96.85307 C 145.09478,87.864502 143.19669,81.897681 143.12474,81.798515 C 142.83695,81.401851 141.51816,76.634081 141.53239,73.807503 C 141.54661,70.981146 142.32704,63.925288 145.65496,61.627 C 148.81759,68.048886 148.88215,68.091463 157.20655,69.704321 C 155.43874,71.108014 151.66978,74.039906 151.88437,74.368088 C 152.12234,74.732025 164.76424,65.697712 170.16609,64.036055 C 175.60065,62.364334 184.04057,61.895423 188.45878,62.445387 C 192.61582,62.962839 198.10584,63.701554 201.82039,66.156946 C 201.84575,104.93724 201.83722,143.71754 201.82654,182.49784 z"
         id="path3175"
         sodipodi:nodetypes="csccczcczzzcc" />
      <path
         style="fill:#ffffff;fill-rule:evenodd;stroke:#000000;stroke-width:3;stroke-linecap:round;stroke-linejoin:round;stroke-miterlimit:4;stroke-dasharray:none;stroke-opacity:1"
         d="M 166.65848,120.0233 C 166.65848,120.0233 160.43618,116.36425 157.09014,114.40722 C 153.7441,112.45019 145.69035,106.18876 145.69035,106.18876 C 143.08369,103.97025 138.5421,98.603671 136.94168,95.054083 C 135.34126,91.504495 136.00256,87.788723 137.44688,85.415893 C 138.89769,83.03239 142.91424,81.875644 143.30435,81.798515 C 143.30435,81.798515 149.99319,88.426414 153.9088,91.077413 C 157.82441,93.728412 166.73139,98.870746 171.93637,102.4772 C 177.14136,106.08366 184.15592,111.21407 186.5175,116.79321 C 188.87908,122.37235 188.75476,128.31927 187.31283,131.90456 C 185.8709,135.48985 182.83503,138.60332 179.35949,140.12301 C 175.79377,141.68213 169.57594,141.39946 166.10392,139.8579 C 162.6319,138.31634 159.29989,133.91569 158.15058,130.31389 C 157.00519,126.72437 157.97083,123.52462 158.41569,122.62566 C 158.87706,121.69332 159.85669,119.66513 162.65748,119.17922 C 165.47116,118.69107 168.06435,120.63043 169.04379,122.48708 C 170.07574,124.44324 170.2235,126.78577 168.90348,127.91411"
         id="path3267"
         sodipodi:nodetypes="czczzczzzzzzzzzzc" />
      <path
         sodipodi:nodetypes="ccczzzzzzzzz"
         id="path2405"
         d="M 47.98478,103.92904 C 47.98224,136.61936 47.98824,169.30968 48,202 C 48,202 113.62281,201.99606 122.11877,202 C 120.01028,195.90638 104.68124,191.78722 99.80276,190.49417 C 94.67615,189.13535 85.87314,184.62376 82.57052,182.54082 C 79.57792,180.65342 75.92807,177.45804 74.66161,173.31591 C 73.39062,169.15897 76.14947,155.77784 76.31918,146.1427 C 76.48889,136.50756 71.74826,114.89393 77.5334,109.3701 C 83.31854,103.84627 88.1935,105.76756 92.37964,108.30965 C 96.54202,110.83731 98.79041,115.50625 100.33298,119.97455 C 101.88121,124.45924 101.39955,134.19057 98.74231,138.79745 C 96.1084,143.36388 91.58431,146.7508 91.58431,146.7508"
         style="fill:#000000;fill-rule:evenodd;stroke:#ffffff;stroke-width:3;stroke-linecap:round;stroke-linejoin:round;stroke-miterlimit:4;stroke-dasharray:none;stroke-opacity:1" />
      <path
         sodipodi:nodetypes="csccczcczzzcc"
         id="path2407"
         d="M 48.17346,182.49784 C 55.40042,180.99196 62.66477,173.9701 69.50063,164.27818 C 76.3365,154.58625 82.74387,142.22426 88.25687,130.03811 C 82.63519,112.54973 83.54226,100.00919 101.64685,96.85307 C 104.90522,87.864502 106.80331,81.897681 106.87526,81.798515 C 107.16305,81.401851 108.48184,76.634081 108.46761,73.807503 C 108.45339,70.981146 107.67296,63.925288 104.34504,61.627 C 101.18241,68.048886 101.11785,68.091463 92.79345,69.704321 C 94.56126,71.108014 98.33022,74.039906 98.11563,74.368088 C 97.87766,74.732025 85.23576,65.697712 79.83391,64.036055 C 74.39935,62.364334 65.95943,61.895423 61.54122,62.445387 C 57.38418,62.962839 51.89416,63.701554 48.17961,66.156946 C 48.15425,104.93724 48.16278,143.71754 48.17346,182.49784 z"
         style="fill:#000000;fill-opacity:1;fill-rule:evenodd;stroke:#ffffff;stroke-width:3;stroke-linecap:butt;stroke-linejoin:round;stroke-miterlimit:4;stroke-dasharray:none;stroke-opacity:1" />
      <path
         sodipodi:nodetypes="czczzczzzzzzzzzzc"
         id="path2409"
         d="M 83.34152,120.0233 C 83.34152,120.0233 89.56382,116.36425 92.90986,114.40722 C 96.2559,112.45019 104.30965,106.18876 104.30965,106.18876 C 106.91631,103.97025 111.4579,98.603671 113.05832,95.054083 C 114.65874,91.504495 113.99744,87.788723 112.55312,85.415893 C 111.10231,83.03239 107.08576,81.875644 106.69565,81.798515 C 106.69565,81.798515 100.00681,88.426414 96.0912,91.077413 C 92.17559,93.728412 83.26861,98.870746 78.06363,102.4772 C 72.85864,106.08366 65.84408,111.21407 63.4825,116.79321 C 61.12092,122.37235 61.24524,128.31927 62.68717,131.90456 C 64.1291,135.48985 67.16497,138.60332 70.64051,140.12301 C 74.20623,141.68213 80.42406,141.39946 83.89608,139.8579 C 87.3681,138.31634 90.70011,133.91569 91.84942,130.31389 C 92.99481,126.72437 92.02917,123.52462 91.58431,122.62566 C 91.12294,121.69332 90.14331,119.66513 87.34252,119.17922 C 84.52884,118.69107 81.93565,120.63043 80.95621,122.48708 C 79.92426,124.44324 79.7765,126.78577 81.09652,127.91411"
         style="fill:#000000;fill-rule:evenodd;stroke:#ffffff;stroke-width:3;stroke-linecap:round;stroke-linejoin:round;stroke-miterlimit:4;stroke-dasharray:none;stroke-opacity:1" />
      <path
         sodipodi:nodetypes="cccccccccc"
         id="rect3228"
         d="M 40.5,40.5 L 40.5,209.5 L 209.5,209.5 L 209.5,40.5 L 40.5,40.5 z M 50,50 L 200,50 L 200,200 L 50,200 L 50,50 z"
         style="fill:#000000;fill-opacity:1;stroke:none;stroke-width:1.01100004;stroke-linecap:round;stroke-linejoin:round;stroke-miterlimit:4;stroke-dasharray:none;stroke-opacity:1" />
    </g>
  </g>
</svg>
