<?xml version="1.0" encoding="UTF-8" standalone="no"?>
<!-- Created with Inkscape (http://www.inkscape.org/) -->
<svg
   xmlns:dc="http://purl.org/dc/elements/1.1/"
   xmlns:cc="http://creativecommons.org/ns#"
   xmlns:rdf="http://www.w3.org/1999/02/22-rdf-syntax-ns#"
   xmlns:svg="http://www.w3.org/2000/svg"
   xmlns="http://www.w3.org/2000/svg"
   xmlns:sodipodi="http://sodipodi.sourceforge.net/DTD/sodipodi-0.dtd"
   xmlns:inkscape="http://www.inkscape.org/namespaces/inkscape"
   width="250"
   height="250"
   id="svg2397"
   sodipodi:version="0.32"
   inkscape:version="0.46"
   version="1.0"
   sodipodi:docname="Fang-icon.svg"
   inkscape:output_extension="org.inkscape.output.svg.inkscape"
   inkscape:export-filename="C:\Users\Leann\Downloads\Fang-icon2.png"
   inkscape:export-xdpi="200"
   inkscape:export-ydpi="200">
  <defs
     id="defs2399">
    <inkscape:perspective
       sodipodi:type="inkscape:persp3d"
       inkscape:vp_x="0 : 526.18109 : 1"
       inkscape:vp_y="0 : 1000 : 0"
       inkscape:vp_z="744.09448 : 526.18109 : 1"
       inkscape:persp3d-origin="372.04724 : 350.78739 : 1"
       id="perspective2405" />
    <inkscape:perspective
       id="perspective2471"
       inkscape:persp3d-origin="372.04724 : 350.78739 : 1"
       inkscape:vp_z="744.09448 : 526.18109 : 1"
       inkscape:vp_y="0 : 1000 : 0"
       inkscape:vp_x="0 : 526.18109 : 1"
       sodipodi:type="inkscape:persp3d" />
    <inkscape:perspective
       id="perspective3279"
       inkscape:persp3d-origin="372.04724 : 350.78739 : 1"
       inkscape:vp_z="744.09448 : 526.18109 : 1"
       inkscape:vp_y="0 : 1000 : 0"
       inkscape:vp_x="0 : 526.18109 : 1"
       sodipodi:type="inkscape:persp3d" />
    <inkscape:perspective
       id="perspective2472"
       inkscape:persp3d-origin="372.04724 : 350.78739 : 1"
       inkscape:vp_z="744.09448 : 526.18109 : 1"
       inkscape:vp_y="0 : 1000 : 0"
       inkscape:vp_x="0 : 526.18109 : 1"
       sodipodi:type="inkscape:persp3d" />
  </defs>
  <sodipodi:namedview
     id="base"
     pagecolor="#ffffff"
     bordercolor="#666666"
     borderopacity="1.0"
     gridtolerance="10000"
     guidetolerance="10"
     objecttolerance="10"
     inkscape:pageopacity="0.0"
     inkscape:pageshadow="2"
     inkscape:zoom="3.772"
     inkscape:cx="125"
     inkscape:cy="125"
     inkscape:document-units="px"
     inkscape:current-layer="layer1"
     showgrid="false"
     inkscape:window-width="1920"
     inkscape:window-height="1150"
     inkscape:window-x="-8"
     inkscape:window-y="-8" />
  <metadata
     id="metadata2402">
    <rdf:RDF>
      <cc:Work
         rdf:about="">
        <dc:format>image/svg+xml</dc:format>
        <dc:type
           rdf:resource="http://purl.org/dc/dcmitype/StillImage" />
      </cc:Work>
    </rdf:RDF>
  </metadata>
  <g
     inkscape:label="Layer 1"
     inkscape:groupmode="layer"
     id="layer1">
    <g
       id="g2446">
      <rect
         y="27.510733"
         x="31.813362"
         height="194.06151"
         width="189.55461"
         id="rect2406"
         style="fill:#ffffff;fill-opacity:1;stroke:none;stroke-width:3;stroke-linecap:round;stroke-linejoin:miter;stroke-miterlimit:4;stroke-dasharray:none;stroke-opacity:1" />
      <path
         id="rect3316"
         d="M 27.5,27.654696 L 27.5,222.6547 L 222.5,222.6547 L 222.5,27.654696 L 27.5,27.654696 z M 70,70.154696 L 180,70.154696 L 180,180.1547 L 70,180.1547 L 70,70.154696 z"
         style="fill:#000000;fill-opacity:1;stroke:#000000;stroke-width:4.99998379;stroke-linecap:round;stroke-linejoin:miter;stroke-miterlimit:4;stroke-dasharray:none;stroke-opacity:1" />
      <rect
         y="17.654696"
         x="169.5"
         height="63"
         width="63"
         id="rect3453"
         style="fill:#ffffff;fill-opacity:1;stroke:none;stroke-width:3;stroke-linecap:round;stroke-linejoin:miter;stroke-miterlimit:4;stroke-dasharray:none;stroke-opacity:1" />
      <path
         id="rect2387"
         d="M 168.5,16.654696 L 168.5,79.154696 L 192.0625,55.592196 C 190.75735,53.783711 190,51.553714 190,49.154696 C 190,46.118695 191.22775,43.364446 193.21875,41.373446 L 173.5,21.654696 L 226,21.654696 L 207.4375,40.217196 C 205.62902,38.912048 203.39902,38.154696 201,38.154696 C 197.964,38.154696 195.20975,39.382446 193.21875,41.373446 L 195.71875,43.873446 C 197.07462,42.515446 198.93269,41.654696 201,41.654696 C 201.35816,41.654696 201.71811,41.669173 202.0625,41.717196 C 202.21515,41.738769 202.35044,41.780316 202.5,41.810946 C 202.51006,41.812977 202.5212,41.808875 202.53125,41.810946 C 202.76597,41.859322 202.99267,41.928639 203.21875,41.998446 C 203.45355,42.071527 203.68195,42.153524 203.90625,42.248446 C 204.11105,42.334339 204.3048,42.426351 204.5,42.529696 C 204.63748,42.602484 204.7739,42.667359 204.90625,42.748446 C 205.91963,43.369332 206.78536,44.235067 207.40625,45.248446 C 207.4739,45.358859 207.53175,45.478115 207.59375,45.592196 C 207.60496,45.612894 207.61398,45.633883 207.625,45.654696 C 207.72834,45.849893 207.82036,46.043649 207.90625,46.248446 C 208.00117,46.472743 208.08317,46.701146 208.15625,46.935946 C 208.22606,47.162026 208.29537,47.38873 208.34375,47.623446 C 208.34582,47.633366 208.34172,47.644762 208.34375,47.654696 C 208.37351,47.802175 208.41651,47.941667 208.4375,48.092196 C 208.48633,48.437716 208.5,48.795769 208.5,49.154696 C 208.5,51.219571 207.63615,53.07943 206.28125,54.435946 L 208.78125,56.935946 C 210.77225,54.944946 212,52.190696 212,49.154696 C 212,46.755678 211.24265,44.525681 209.9375,42.717196 L 228.5,24.154696 L 228.5,76.654696 L 208.78125,56.935946 C 206.79025,58.926946 204.036,60.154696 201,60.154696 C 198.60098,60.154696 196.37098,59.397344 194.5625,58.092196 L 171,81.654696 L 233.5,81.654696 L 233.5,19.154696 L 233.5,16.654696 L 231,16.654696 L 168.5,16.654696 z M 206.28125,54.435946 L 195.71875,43.873446 C 195.03816,44.555099 194.47442,45.348924 194.09375,46.248446 C 193.99883,46.472743 193.91683,46.701146 193.84375,46.935946 C 193.69759,47.405546 193.58249,47.869393 193.53125,48.373446 C 193.50563,48.625472 193.5,48.895946 193.5,49.154696 C 193.5,49.459024 193.52721,49.766072 193.5625,50.060946 C 193.5853,50.252899 193.61929,50.436308 193.65625,50.623446 C 193.66031,50.64371 193.65203,50.665742 193.65625,50.685946 C 193.70463,50.920662 193.77394,51.147366 193.84375,51.373446 C 193.91683,51.608246 193.99883,51.836649 194.09375,52.060946 C 194.17964,52.265743 194.27166,52.459499 194.375,52.654696 C 194.44688,52.789955 194.51399,52.930761 194.59375,53.060946 C 195.21464,54.074325 196.08037,54.94006 197.09375,55.560946 C 197.18603,55.617482 197.28021,55.664673 197.375,55.717196 C 197.41552,55.739703 197.45903,55.757922 197.5,55.779696 C 197.6952,55.883041 197.88895,55.975053 198.09375,56.060946 C 198.31805,56.155868 198.54645,56.237865 198.78125,56.310946 C 199.00733,56.380753 199.23403,56.45007 199.46875,56.498446 C 199.62606,56.530868 199.7767,56.569773 199.9375,56.592196 C 200.28302,56.641025 200.64107,56.654696 201,56.654696 C 201.5175,56.654696 202.01191,56.598407 202.5,56.498446 C 203.23213,56.348505 203.9249,56.094955 204.5625,55.748446 C 205.20431,55.399649 205.76854,54.94927 206.28125,54.435946 z"
         style="fill:#000000;fill-opacity:1;stroke:none;stroke-width:4.99994421;stroke-linecap:round;stroke-linejoin:miter;stroke-miterlimit:4;stroke-dasharray:none;stroke-opacity:1" />
      <rect
         style="fill:#ffffff;fill-opacity:1;stroke:none;stroke-width:3;stroke-linecap:round;stroke-linejoin:miter;stroke-miterlimit:4;stroke-dasharray:none;stroke-opacity:1"
         id="rect3465"
         width="63"
         height="63"
         x="169.5"
         y="169.65471" />
      <path
         style="fill:#000000;fill-opacity:1;stroke:none;stroke-width:4.99994421;stroke-linecap:round;stroke-linejoin:miter;stroke-miterlimit:4;stroke-dasharray:none;stroke-opacity:1"
         d="M 168.5,168.6547 L 168.5,231.1547 L 192.0625,207.5922 C 190.75735,205.78372 190,203.55372 190,201.1547 C 190,198.1187 191.22775,195.36445 193.21875,193.37345 L 173.5,173.6547 L 226,173.6547 L 207.4375,192.2172 C 205.62902,190.91205 203.39902,190.1547 201,190.1547 C 197.964,190.1547 195.20975,191.38245 193.21875,193.37345 L 195.71875,195.87345 C 197.07462,194.51545 198.93269,193.6547 201,193.6547 C 201.35816,193.6547 201.71811,193.66918 202.0625,193.7172 C 202.21515,193.73877 202.35044,193.78032 202.5,193.81095 C 202.51006,193.81298 202.5212,193.80888 202.53125,193.81095 C 202.76597,193.85933 202.99267,193.92864 203.21875,193.99845 C 203.45355,194.07153 203.68195,194.15353 203.90625,194.24845 C 204.11105,194.33434 204.3048,194.42636 204.5,194.5297 C 204.63748,194.60249 204.7739,194.66736 204.90625,194.74845 C 205.91963,195.36934 206.78536,196.23507 207.40625,197.24845 C 207.4739,197.35886 207.53175,197.47812 207.59375,197.5922 C 207.60496,197.6129 207.61398,197.63389 207.625,197.6547 C 207.72834,197.8499 207.82036,198.04365 207.90625,198.24845 C 208.00117,198.47275 208.08317,198.70115 208.15625,198.93595 C 208.22606,199.16203 208.29537,199.38873 208.34375,199.62345 C 208.34582,199.63337 208.34172,199.64477 208.34375,199.6547 C 208.37351,199.80218 208.41651,199.94167 208.4375,200.0922 C 208.48633,200.43772 208.5,200.79577 208.5,201.1547 C 208.5,203.21958 207.63615,205.07943 206.28125,206.43595 L 208.78125,208.93595 C 210.77225,206.94495 212,204.1907 212,201.1547 C 212,198.75568 211.24265,196.52568 209.9375,194.7172 L 228.5,176.1547 L 228.5,228.6547 L 208.78125,208.93595 C 206.79025,210.92695 204.036,212.1547 201,212.1547 C 198.60098,212.1547 196.37098,211.39735 194.5625,210.0922 L 171,233.6547 L 233.5,233.6547 L 233.5,171.1547 L 233.5,168.6547 L 231,168.6547 L 168.5,168.6547 z M 206.28125,206.43595 L 195.71875,195.87345 C 195.03816,196.5551 194.47442,197.34893 194.09375,198.24845 C 193.99883,198.47275 193.91683,198.70115 193.84375,198.93595 C 193.69759,199.40555 193.58249,199.8694 193.53125,200.37345 C 193.50563,200.62548 193.5,200.89595 193.5,201.1547 C 193.5,201.45903 193.52721,201.76608 193.5625,202.06095 C 193.5853,202.2529 193.61929,202.43631 193.65625,202.62345 C 193.66031,202.64371 193.65203,202.66575 193.65625,202.68595 C 193.70463,202.92067 193.77394,203.14737 193.84375,203.37345 C 193.91683,203.60825 193.99883,203.83665 194.09375,204.06095 C 194.17964,204.26575 194.27166,204.4595 194.375,204.6547 C 194.44688,204.78996 194.51399,204.93077 194.59375,205.06095 C 195.21464,206.07433 196.08037,206.94006 197.09375,207.56095 C 197.18603,207.61749 197.28021,207.66468 197.375,207.7172 C 197.41552,207.73971 197.45903,207.75793 197.5,207.7797 C 197.6952,207.88304 197.88895,207.97506 198.09375,208.06095 C 198.31805,208.15587 198.54645,208.23787 198.78125,208.31095 C 199.00733,208.38076 199.23403,208.45007 199.46875,208.49845 C 199.62606,208.53087 199.7767,208.56978 199.9375,208.5922 C 200.28302,208.64103 200.64107,208.6547 201,208.6547 C 201.5175,208.6547 202.01191,208.59841 202.5,208.49845 C 203.23213,208.34851 203.9249,208.09496 204.5625,207.74845 C 205.20431,207.39965 205.76854,206.94927 206.28125,206.43595 z"
         id="path3467" />
      <rect
         style="fill:#ffffff;fill-opacity:1;stroke:none;stroke-width:3;stroke-linecap:round;stroke-linejoin:miter;stroke-miterlimit:4;stroke-dasharray:none;stroke-opacity:1"
         id="rect3471"
         width="63"
         height="63"
         x="17.5"
         y="17.654696" />
      <path
         id="path3473"
         d="M 16.5 16.65625 L 16.5 79.15625 L 40.0625 55.59375 C 38.75735 53.785264 38 51.555268 38 49.15625 C 38 46.120248 39.22775 43.366 41.21875 41.375 L 21.5 21.65625 L 74 21.65625 L 55.4375 40.21875 C 53.62902 38.913601 51.39902 38.15625 49 38.15625 C 45.964 38.156249 43.20975 39.384 41.21875 41.375 L 43.71875 43.875 C 45.07462 42.516999 46.93269 41.65625 49 41.65625 C 49.35816 41.656249 49.71811 41.670727 50.0625 41.71875 C 50.21515 41.740322 50.35044 41.78187 50.5 41.8125 C 50.51006 41.81453 50.5212 41.810429 50.53125 41.8125 C 50.76597 41.860875 50.99267 41.930193 51.21875 42 C 51.45355 42.07308 51.68195 42.155078 51.90625 42.25 C 52.11105 42.335892 52.3048 42.427905 52.5 42.53125 C 52.63748 42.604037 52.7739 42.668913 52.90625 42.75 C 53.91963 43.370885 54.78536 44.236621 55.40625 45.25 C 55.4739 45.360412 55.53175 45.479669 55.59375 45.59375 C 55.60496 45.614447 55.61398 45.635437 55.625 45.65625 C 55.72834 45.851446 55.82036 46.045203 55.90625 46.25 C 56.00117 46.474296 56.08317 46.7027 56.15625 46.9375 C 56.22606 47.163579 56.29537 47.390284 56.34375 47.625 C 56.34582 47.634919 56.34172 47.646316 56.34375 47.65625 C 56.37351 47.803728 56.41651 47.943221 56.4375 48.09375 C 56.48633 48.439269 56.5 48.797323 56.5 49.15625 C 56.5 51.221124 55.63615 53.080984 54.28125 54.4375 L 56.78125 56.9375 C 58.77225 54.946499 60 52.19225 60 49.15625 C 60 46.757231 59.24265 44.527235 57.9375 42.71875 L 76.5 24.15625 L 76.5 76.65625 L 56.78125 56.9375 C 54.79025 58.928499 52.036 60.15625 49 60.15625 C 46.60098 60.156249 44.37098 59.398898 42.5625 58.09375 L 42.5625 81.65625 L 81.5 81.65625 L 81.5 19.15625 L 81.5 16.65625 L 79 16.65625 L 16.5 16.65625 z M 54.28125 54.4375 L 43.71875 43.875 C 43.03816 44.556652 42.47442 45.350478 42.09375 46.25 C 41.99883 46.474296 41.91683 46.7027 41.84375 46.9375 C 41.69759 47.407099 41.58249 47.870947 41.53125 48.375 C 41.50563 48.627025 41.5 48.8975 41.5 49.15625 C 41.5 49.460577 41.52721 49.767626 41.5625 50.0625 C 41.5853 50.254452 41.61929 50.437862 41.65625 50.625 C 41.66031 50.645263 41.65203 50.667296 41.65625 50.6875 C 41.70463 50.922215 41.77394 51.14892 41.84375 51.375 C 41.91683 51.609799 41.99883 51.838203 42.09375 52.0625 C 42.17964 52.267296 42.27166 52.461053 42.375 52.65625 C 42.44688 52.791508 42.51399 52.932315 42.59375 53.0625 C 43.21464 54.075878 44.08037 54.941614 45.09375 55.5625 C 45.18603 55.619035 45.28021 55.666227 45.375 55.71875 C 45.41552 55.741256 45.45903 55.759476 45.5 55.78125 C 45.6952 55.884594 45.88895 55.976607 46.09375 56.0625 C 46.31805 56.157421 46.54645 56.239419 46.78125 56.3125 C 47.00733 56.382306 47.23403 56.451624 47.46875 56.5 C 47.62606 56.532421 47.7767 56.571327 47.9375 56.59375 C 48.28302 56.642578 48.64107 56.65625 49 56.65625 C 49.5175 56.656249 50.01191 56.599961 50.5 56.5 C 51.23213 56.350058 51.9249 56.096509 52.5625 55.75 C 53.20431 55.401202 53.76854 54.950824 54.28125 54.4375 z "
         style="fill:#000000;fill-opacity:1;stroke:none;stroke-width:4.99994420999999980;stroke-linecap:round;stroke-linejoin:miter;stroke-miterlimit:4;stroke-dasharray:none;stroke-opacity:1" />
      <rect
         y="169.65471"
         x="17.5"
         height="63"
         width="63"
         id="rect3477"
         style="fill:#ffffff;fill-opacity:1;stroke:none;stroke-width:3;stroke-linecap:round;stroke-linejoin:miter;stroke-miterlimit:4;stroke-dasharray:none;stroke-opacity:1" />
      <path
         id="path3479"
         d="M 16.5,168.6547 L 16.5,231.1547 L 40.0625,207.5922 C 38.75735,205.78372 38,203.55372 38,201.1547 C 38,198.1187 39.22775,195.36445 41.21875,193.37345 L 21.5,173.6547 L 74,173.6547 L 55.4375,192.2172 C 53.62902,190.91205 51.39902,190.1547 49,190.1547 C 45.964,190.1547 43.20975,191.38245 41.21875,193.37345 L 43.71875,195.87345 C 45.07462,194.51545 46.93269,193.6547 49,193.6547 C 49.35816,193.6547 49.71811,193.66918 50.0625,193.7172 C 50.21515,193.73877 50.35044,193.78032 50.5,193.81095 C 50.51006,193.81298 50.5212,193.80888 50.53125,193.81095 C 50.76597,193.85933 50.99267,193.92864 51.21875,193.99845 C 51.45355,194.07153 51.68195,194.15353 51.90625,194.24845 C 52.11105,194.33434 52.3048,194.42636 52.5,194.5297 C 52.63748,194.60249 52.7739,194.66736 52.90625,194.74845 C 53.91963,195.36934 54.78536,196.23507 55.40625,197.24845 C 55.4739,197.35886 55.53175,197.47812 55.59375,197.5922 C 55.60496,197.6129 55.61398,197.63389 55.625,197.6547 C 55.72834,197.8499 55.82036,198.04365 55.90625,198.24845 C 56.00117,198.47275 56.08317,198.70115 56.15625,198.93595 C 56.22606,199.16203 56.29537,199.38873 56.34375,199.62345 C 56.34582,199.63337 56.34172,199.64477 56.34375,199.6547 C 56.37351,199.80218 56.41651,199.94167 56.4375,200.0922 C 56.48633,200.43772 56.5,200.79577 56.5,201.1547 C 56.5,203.21958 55.63615,205.07943 54.28125,206.43595 L 56.78125,208.93595 C 58.77225,206.94495 60,204.1907 60,201.1547 C 60,198.75568 59.24265,196.52568 57.9375,194.7172 L 76.5,176.1547 L 76.5,228.6547 L 56.78125,208.93595 C 54.79025,210.92695 52.036,212.1547 49,212.1547 C 46.60098,212.1547 44.37098,211.39735 42.5625,210.0922 L 19,233.6547 L 81.5,233.6547 L 81.5,171.1547 L 81.5,168.6547 L 79,168.6547 L 16.5,168.6547 z M 54.28125,206.43595 L 43.71875,195.87345 C 43.03816,196.5551 42.47442,197.34893 42.09375,198.24845 C 41.99883,198.47275 41.91683,198.70115 41.84375,198.93595 C 41.69759,199.40555 41.58249,199.8694 41.53125,200.37345 C 41.50563,200.62548 41.5,200.89595 41.5,201.1547 C 41.5,201.45903 41.52721,201.76608 41.5625,202.06095 C 41.5853,202.2529 41.61929,202.43631 41.65625,202.62345 C 41.66031,202.64371 41.65203,202.66575 41.65625,202.68595 C 41.70463,202.92067 41.77394,203.14737 41.84375,203.37345 C 41.91683,203.60825 41.99883,203.83665 42.09375,204.06095 C 42.17964,204.26575 42.27166,204.4595 42.375,204.6547 C 42.44688,204.78996 42.51399,204.93077 42.59375,205.06095 C 43.21464,206.07433 44.08037,206.94006 45.09375,207.56095 C 45.18603,207.61749 45.28021,207.66468 45.375,207.7172 C 45.41552,207.73971 45.45903,207.75793 45.5,207.7797 C 45.6952,207.88304 45.88895,207.97506 46.09375,208.06095 C 46.31805,208.15587 46.54645,208.23787 46.78125,208.31095 C 47.00733,208.38076 47.23403,208.45007 47.46875,208.49845 C 47.62606,208.53087 47.7767,208.56978 47.9375,208.5922 C 48.28302,208.64103 48.64107,208.6547 49,208.6547 C 49.5175,208.6547 50.01191,208.59841 50.5,208.49845 C 51.23213,208.34851 51.9249,208.09496 52.5625,207.74845 C 53.20431,207.39965 53.76854,206.94927 54.28125,206.43595 z"
         style="fill:#000000;fill-opacity:1;stroke:none;stroke-width:4.99994421;stroke-linecap:round;stroke-linejoin:miter;stroke-miterlimit:4;stroke-dasharray:none;stroke-opacity:1" />
      <path
         sodipodi:nodetypes="czsscscsc"
         id="path3304"
         d="M 80.375509,14.342196 C 45.720494,14.342196 22.128555,41.753061 21.860918,74.404696 C 21.601982,105.99483 44.393531,134.4672 80.375509,134.4672 C 107.21947,134.4672 129.91319,159.39181 129.91319,185.9047 C 129.91319,210.76044 110.40087,234.20642 85.002674,237.12345 C 82.26999,237.59525 81.348855,239.48277 81.69116,242.00964 C 81.999527,244.28598 83.056049,245.78576 86.342956,245.6547 C 145.67226,242.42247 192.91625,193.91827 192.91624,130.1547 C 192.91623,64.337729 142.19729,14.342194 80.375509,14.342196 z"
         style="fill:#ffffff;fill-opacity:1;stroke:none;stroke-width:5.43102312;stroke-linecap:round;stroke-linejoin:miter;stroke-miterlimit:4;stroke-opacity:1" />
      <path
         transform="matrix(1.0211674,0,0,1,-0.9668567,6.1859463)"
         d="M 79.65625,12.46875 C 50.453737,12.46875 26.74999,37.442196 26.75,68.21875 C 26.749998,98.995301 50.453739,123.96875 79.65625,123.96875 C 108.85869,123.96875 132.5625,148.9422 132.5625,179.71875 C 132.5625,208.57179 111.7284,232.3306 85.0625,235.1875 C 140.94174,232.1991 185.46876,183.59857 185.46875,123.96875 C 185.46874,62.415399 138.06135,12.468748 79.65625,12.46875 z"
         id="path3302"
         style="fill:#ffffff;fill-opacity:1;stroke:#000000;stroke-width:5.43100023;stroke-linecap:round;stroke-linejoin:round;stroke-miterlimit:4;stroke-dasharray:none;stroke-opacity:1"
         inkscape:original="M 79.65625 12.46875 C 50.453737 12.46875 26.74999 37.442196 26.75 68.21875 C 26.749998 98.995301 50.453739 123.96875 79.65625 123.96875 C 108.85869 123.96875 132.5625 148.9422 132.5625 179.71875 C 132.5625 208.57179 111.7284 232.3306 85.0625 235.1875 C 140.94174 232.1991 185.46876 183.59857 185.46875 123.96875 C 185.46874 62.415399 138.06135 12.468748 79.65625 12.46875 z "
         inkscape:radius="0"
         sodipodi:type="inkscape:offset" />
      <path
         sodipodi:nodetypes="czczczczczczczczczczczczczczczczczczczczczczczczczczczczczczczczczczzzccccccccccccccc"
         id="path3310"
         d="M 27.729788,87.310018 C 27.729788,87.310018 31.563668,61.316756 40.668378,49.929319 C 49.961392,38.306367 56.213432,33.018119 64.380574,28.301798 C 59.055773,33.281581 50.118255,43.439319 46.37601,54.701323 C 42.633764,65.963327 38.852406,84.373536 43.431726,98.974917 C 45.399702,80.865269 47.249379,70.598539 52.63631,60.268661 C 58.023242,49.938783 67.955368,40.044083 77.813555,32.962192 C 71.786069,39.944978 61.979812,53.84551 58.592217,64.775554 C 55.204622,75.705598 53.126973,83.491413 55.884987,102.95159 C 58.635272,82.854789 62.398976,72.990447 67.802413,63.184886 C 73.205851,53.379325 82.439848,44.890624 91.592372,38.264419 C 87.144148,44.317733 75.404832,59.632732 72.105923,70.07778 C 68.807014,80.522828 66.63487,87.368744 67.796802,106.13293 C 70.114177,91.08121 74.86951,78.787993 80.475892,69.017335 C 86.082273,59.246677 92.638857,52.909337 104.34441,44.36198 C 98.526131,51.105897 89.113244,62.963247 85.382578,73.259117 C 81.651911,83.554987 79.917919,91.345101 80.250063,107.19337 C 83.757465,93.100931 88.72766,81.916554 93.763769,73.78934 C 98.681728,65.852796 105.69794,59.297552 118.68151,50.989763 C 110.29933,59.402825 102.59914,70.441246 98.664843,79.621789 C 94.730551,88.802332 93.060518,97.309345 92.940376,110.63982 C 96.737249,98.611254 100.55387,86.594189 107.33921,78.561344 C 114.12454,70.528499 118.34315,65.493012 132.56695,59.473326 C 125.35597,64.42835 116.22496,75.275526 111.65394,83.598459 C 107.08292,91.921392 104.59545,102.77364 103.8198,113.02582 C 109.24609,100.11464 113.90155,91.514248 120.0632,84.924016 C 126.22484,78.333784 136.17119,71.41672 144.95849,68.222001 C 139.25471,72.488352 128.80522,82.598286 124.1072,90.491354 C 119.40917,98.384422 118.02335,101.14413 114.36117,117.53271 C 120.43628,108.09921 126.30257,98.087809 132.75351,92.347134 C 139.20445,86.606455 148.00892,83.776831 156.59396,81.212457 C 146.56103,86.750987 141.9821,89.354321 137.05702,95.793581 C 132.13194,102.23285 127.21724,110.35453 124.1072,122.83494 C 130.46327,115.28384 135.02519,107.87197 141.18799,103.74776 C 147.3508,99.623564 157.3301,97.679194 164.97543,97.385094 C 158.46328,99.021835 149.1374,102.53951 144.15585,107.72416 C 139.1743,112.9088 136.40955,119.3674 132.22889,129.46273 C 137.73196,124.10823 145.05126,116.70309 150.39931,114.88244 C 155.6612,113.09112 162.1732,111.51954 170.98157,112.49561 C 164.56483,113.15708 157.02492,115.10794 151.70833,119.1231 C 146.39173,123.13826 142.00591,130.16188 138.1848,137.41607 C 144.26502,133.26935 149.24752,129.03955 154.99628,127.077 C 160.74505,125.11445 168.26469,125.29088 174.76047,126.28139 C 168.98877,127.4431 161.18577,128.0552 156.05785,131.58249 C 150.92994,135.10978 145.7219,139.32179 142.51636,147.22519 C 146.92726,144.15388 155.33699,140.66729 160.65481,139.80207 C 165.97263,138.93685 168.1374,138.91121 175.83774,140.86251 C 169.55734,140.62572 164.5236,141.97043 159.80897,144.57408 C 155.09435,147.17773 148.79053,151.86046 146.30649,157.03431 C 150.3508,153.79066 158.15947,151.21115 162.80937,151.20185 C 167.45224,151.19256 169.14352,150.88805 175.30191,153.05764 C 170.60732,153.52496 164.42424,154.76593 160.97007,156.24179 C 157.54057,157.7071 152.51219,160.37132 149.01373,165.78298 C 153.09017,163.25817 157.51061,162.31373 161.28282,162.33653 C 165.05504,162.35933 167.70978,162.86619 171.65417,164.85932 C 165.85271,164.69831 164.348,164.91436 160.61586,165.78579 C 156.82017,166.67205 152.61008,168.88741 149.55517,173.73632 C 152.59339,172.29874 157.85481,171.67189 160.30025,171.94471 C 162.73741,172.21659 164.91006,172.88288 167.46214,175.19584 C 164.19718,174.14185 161.70209,174.65314 158.83512,175.25719 C 155.98095,175.85855 151.94808,178.99005 149.32934,181.42455 C 152.47732,181.08874 155.86412,181.20717 157.77467,181.61986 C 159.67034,182.02934 161.40023,182.66938 163.09132,184.60588 C 160.99904,184.13129 157.95415,184.35011 155.64784,184.86818 C 153.34152,185.38625 150.55774,186.97429 148.224,189.643 C 150.30947,190.75921 152.06979,191.57554 153.2867,192.96393 C 154.47077,194.31485 155.09152,195.14635 155.84318,197.6577 C 154.40993,199.99551 148.15209,206.52221 144.48121,210.18491 C 140.81032,213.84761 135.36225,219.03703 131.41672,221.98659 C 127.47119,224.93615 122.36807,227.79324 118.42201,229.93992 C 114.47595,232.0866 105.15659,236.3026 105.15659,236.3026 L 116.79768,228.08415 L 126.5437,215.09369 L 132.49961,201.04279 L 134.66539,186.19655 L 132.49961,168.69921 L 126.5437,157.56453 L 117.88057,145.89963 L 105.42731,136.09051 L 89.183923,130.78828 L 73.481986,129.19761 L 57.238603,125.22094 L 42.619557,114.8816 L 31.249188,98.974917 L 27.729788,87.310018 z"
         style="fill:#000000;fill-rule:evenodd;stroke:#000000;stroke-width:1.01100004;stroke-linecap:butt;stroke-linejoin:round;stroke-miterlimit:4;stroke-dasharray:none;stroke-opacity:1" />
    </g>
  </g>
</svg>
