<?xml version="1.0" encoding="UTF-8" standalone="no"?>
<!-- Created with Inkscape (http://www.inkscape.org/) -->
<svg
   xmlns:dc="http://purl.org/dc/elements/1.1/"
   xmlns:cc="http://creativecommons.org/ns#"
   xmlns:rdf="http://www.w3.org/1999/02/22-rdf-syntax-ns#"
   xmlns:svg="http://www.w3.org/2000/svg"
   xmlns="http://www.w3.org/2000/svg"
   xmlns:sodipodi="http://sodipodi.sourceforge.net/DTD/sodipodi-0.dtd"
   xmlns:inkscape="http://www.inkscape.org/namespaces/inkscape"
   width="250"
   height="250"
   id="svg2"
   sodipodi:version="0.32"
   inkscape:version="0.46"
   version="1.0"
   sodipodi:docname="Fish-icon.svg"
   inkscape:output_extension="org.inkscape.output.svg.inkscape">
  <defs
     id="defs4">
    <inkscape:perspective
       sodipodi:type="inkscape:persp3d"
       inkscape:vp_x="0 : 526.18109 : 1"
       inkscape:vp_y="0 : 1000 : 0"
       inkscape:vp_z="744.09448 : 526.18109 : 1"
       inkscape:persp3d-origin="372.04724 : 350.78739 : 1"
       id="perspective10" />
    <inkscape:perspective
       id="perspective3217"
       inkscape:persp3d-origin="372.04724 : 350.78739 : 1"
       inkscape:vp_z="744.09448 : 526.18109 : 1"
       inkscape:vp_y="0 : 1000 : 0"
       inkscape:vp_x="0 : 526.18109 : 1"
       sodipodi:type="inkscape:persp3d" />
    <inkscape:perspective
       sodipodi:type="inkscape:persp3d"
       inkscape:vp_x="0 : 526.18109 : 1"
       inkscape:vp_y="0 : 1000 : 0"
       inkscape:vp_z="744.09448 : 526.18109 : 1"
       inkscape:persp3d-origin="372.04724 : 350.78739 : 1"
       id="perspective3448" />
    <inkscape:perspective
       id="perspective3450"
       inkscape:persp3d-origin="372.04724 : 350.78739 : 1"
       inkscape:vp_z="744.09448 : 526.18109 : 1"
       inkscape:vp_y="0 : 1000 : 0"
       inkscape:vp_x="0 : 526.18109 : 1"
       sodipodi:type="inkscape:persp3d" />
    <inkscape:perspective
       sodipodi:type="inkscape:persp3d"
       inkscape:vp_x="0 : 526.18109 : 1"
       inkscape:vp_y="0 : 1000 : 0"
       inkscape:vp_z="744.09448 : 526.18109 : 1"
       inkscape:persp3d-origin="372.04724 : 350.78739 : 1"
       id="perspective3387" />
    <inkscape:perspective
       id="perspective3385"
       inkscape:persp3d-origin="372.04724 : 350.78739 : 1"
       inkscape:vp_z="744.09448 : 526.18109 : 1"
       inkscape:vp_y="0 : 1000 : 0"
       inkscape:vp_x="0 : 526.18109 : 1"
       sodipodi:type="inkscape:persp3d" />
    <inkscape:perspective
       sodipodi:type="inkscape:persp3d"
       inkscape:vp_x="0 : 526.18109 : 1"
       inkscape:vp_y="0 : 1000 : 0"
       inkscape:vp_z="744.09448 : 526.18109 : 1"
       inkscape:persp3d-origin="372.04724 : 350.78739 : 1"
       id="perspective2538" />
    <inkscape:perspective
       id="perspective2536"
       inkscape:persp3d-origin="372.04724 : 350.78739 : 1"
       inkscape:vp_z="744.09448 : 526.18109 : 1"
       inkscape:vp_y="0 : 1000 : 0"
       inkscape:vp_x="0 : 526.18109 : 1"
       sodipodi:type="inkscape:persp3d" />
    <inkscape:perspective
       id="perspective3395"
       inkscape:persp3d-origin="372.04724 : 350.78739 : 1"
       inkscape:vp_z="744.09448 : 526.18109 : 1"
       inkscape:vp_y="0 : 1000 : 0"
       inkscape:vp_x="0 : 526.18109 : 1"
       sodipodi:type="inkscape:persp3d" />
  </defs>
  <sodipodi:namedview
     id="base"
     pagecolor="#ffffff"
     bordercolor="#666666"
     borderopacity="1.0"
     gridtolerance="10000"
     guidetolerance="10"
     objecttolerance="10"
     inkscape:pageopacity="0.0"
     inkscape:pageshadow="2"
     inkscape:zoom="3.772"
     inkscape:cx="125"
     inkscape:cy="125"
     inkscape:document-units="px"
     inkscape:current-layer="layer1"
     showgrid="false"
     inkscape:window-width="1904"
     inkscape:window-height="1150"
     inkscape:window-x="0"
     inkscape:window-y="14" />
  <metadata
     id="metadata7">
    <rdf:RDF>
      <cc:Work
         rdf:about="">
        <dc:format>image/svg+xml</dc:format>
        <dc:type
           rdf:resource="http://purl.org/dc/dcmitype/StillImage" />
      </cc:Work>
    </rdf:RDF>
  </metadata>
  <g
     inkscape:label="Layer 1"
     inkscape:groupmode="layer"
     id="layer1">
    <g
       id="g2550">
      <rect
         y="30.885475"
         x="30.090141"
         height="188.22905"
         width="189.81972"
         id="rect3230"
         style="fill:#ffffff;fill-opacity:1;stroke:none;stroke-width:2.5;stroke-linecap:square;stroke-linejoin:round;stroke-miterlimit:4;stroke-dasharray:none;stroke-opacity:1" />
      <path
         id="rect3223"
         d="M 25,25 L 25,225 L 225,225 L 225,25 L 25,25 z M 42.5,42.5 L 207.5,42.5 L 207.5,207.5 L 42.5,207.5 L 42.5,42.5 z"
         style="fill:#000000;fill-opacity:1;stroke:none;stroke-width:2.5;stroke-linecap:square;stroke-linejoin:round;stroke-miterlimit:4;stroke-dasharray:none;stroke-opacity:1" />
      <path
         id="path3481"
         d="M 36.055143,99.151644 L 46.394486,115.32344 L 54.082715,106.04454 L 42.152704,94.114528 L 36.055143,99.151644 z"
         style="fill:#000000;fill-rule:evenodd;stroke:#000000;stroke-width:1px;stroke-linecap:butt;stroke-linejoin:miter;stroke-opacity:1" />
      <rect
         y="47.5"
         x="47.5"
         height="155"
         width="155"
         id="rect3228"
         style="fill:#000000;fill-opacity:1;stroke:none;stroke-width:2.5;stroke-linecap:square;stroke-linejoin:round;stroke-miterlimit:4;stroke-dasharray:none;stroke-opacity:1" />
      <path
         style="fill:#ffffff;fill-rule:evenodd;stroke:#000000;stroke-width:3;stroke-linecap:butt;stroke-linejoin:miter;stroke-miterlimit:4;stroke-dasharray:none;stroke-opacity:1"
         d="M 194.38918,71.484387 C 192.46115,67.597767 179.21974,43.544741 175.23843,36.935516 C 175.32746,28.373179 179.33318,23.174726 183.99416,22.382415 C 193.983,24.092922 189.28373,52.292391 194.38918,71.484387 z"
         id="path2562"
         sodipodi:nodetypes="cccc" />
      <path
         style="fill:#ffffff;fill-rule:evenodd;stroke:#000000;stroke-width:3;stroke-linecap:butt;stroke-linejoin:miter;stroke-miterlimit:4;stroke-dasharray:none;stroke-opacity:1"
         d="M 196.90177,69.182291 C 191.37018,64.996335 182.53614,41.222537 183.23777,32.501408 C 183.9394,23.780284 186.78302,18.699354 192.49785,15.850044 C 198.19742,13.008345 205.05603,12.741459 207.30206,17.949891 C 190.02569,27.311204 192.97002,60.12378 196.90177,69.182291 z"
         id="path2564"
         sodipodi:nodetypes="czzcc" />
      <path
         style="fill:#ffffff;fill-rule:evenodd;stroke:#000000;stroke-width:3;stroke-linecap:butt;stroke-linejoin:miter;stroke-miterlimit:4;stroke-dasharray:none;stroke-opacity:1"
         d="M 196.90418,66.453425 C 192.10121,60.16901 189.29375,46.574828 190.49337,38.482912 C 191.88736,29.079845 197.18307,20.230762 203.92974,16.788545 C 210.91243,13.225918 218.76432,13.416488 220.92153,20.100727 C 197.27323,31.086351 198.86995,50.667473 196.90418,66.453425 z"
         id="path2566"
         sodipodi:nodetypes="czzcc" />
      <path
         style="fill:#ffffff;fill-rule:evenodd;stroke:#000000;stroke-width:3;stroke-linecap:butt;stroke-linejoin:miter;stroke-miterlimit:4;stroke-dasharray:none;stroke-opacity:1"
         d="M 199.0668,67.072477 C 195.63054,61.146735 194.0757,54.142832 195.12061,46.829304 C 196.21801,39.148293 199.25766,33.421837 203.81621,28.065902 C 208.37476,22.709976 217.90624,18.4875 222.49446,18.015496 C 227.08268,17.543493 230.57728,25.306132 228.43456,26.544371 C 226.08839,27.90019 219.12625,26.247966 212.80102,30.057213 C 206.47987,33.864009 202.31166,39.660518 200.06546,45.907014 C 197.81926,52.153517 197.47047,57.904003 199.0668,67.072477 z"
         id="path2568"
         sodipodi:nodetypes="czzzzzzc" />
      <path
         sodipodi:nodetypes="cccc"
         id="path2570"
         d="M 194.38935,71.484295 C 192.115,67.789641 178.73376,43.814126 175.23859,36.935424 C 167.93014,32.473579 161.3989,33.11586 158.25703,36.648741 C 154.41435,46.026183 180.81908,56.984423 194.38935,71.484295 z"
         style="fill:#ffffff;fill-rule:evenodd;stroke:#000000;stroke-width:3;stroke-linecap:butt;stroke-linejoin:miter;stroke-miterlimit:4;stroke-dasharray:none;stroke-opacity:1" />
      <path
         sodipodi:nodetypes="czzcc"
         id="path2572"
         d="M 191.10559,72.395169 C 190.48699,65.485891 175.007,45.396006 167.23925,41.369532 C 159.47151,37.343054 153.65575,37.062099 148.211,40.39865 C 142.78079,43.72629 138.91995,49.40129 142.14674,54.066075 C 159.24066,44.375627 185.50704,64.260579 191.10559,72.395169 z"
         style="fill:#ffffff;fill-rule:evenodd;stroke:#000000;stroke-width:3;stroke-linecap:butt;stroke-linejoin:miter;stroke-miterlimit:4;stroke-dasharray:none;stroke-opacity:1" />
      <path
         sodipodi:nodetypes="czzcc"
         id="path2574"
         d="M 188.7901,70.951136 C 186.0058,63.547751 175.96501,53.963071 168.46697,50.692345 C 159.75402,46.891652 149.44327,46.693367 142.94891,50.590771 C 136.22737,54.624521 132.22812,61.384292 136.75353,66.755812 C 158.60156,52.52241 174.36115,64.252922 188.7901,70.951136 z"
         style="fill:#ffffff;fill-rule:evenodd;stroke:#000000;stroke-width:3;stroke-linecap:butt;stroke-linejoin:miter;stroke-miterlimit:4;stroke-dasharray:none;stroke-opacity:1" />
      <path
         sodipodi:nodetypes="czzzzzzc"
         id="path2576"
         d="M 188.16908,73.113182 C 184.9647,67.058907 179.84899,62.028829 173.09305,59.039376 C 165.99765,55.899714 159.53057,55.442926 152.57282,56.470577 C 145.61507,57.498238 136.98329,63.343824 134.15163,66.984733 C 131.31996,70.625641 136.0512,77.702798 138.23675,76.541841 C 140.62983,75.27065 142.91803,68.490875 149.50032,65.145368 C 156.07837,61.802016 163.2029,61.338856 169.69053,62.744111 C 176.17817,64.149372 181.23969,66.900873 188.16908,73.113182 z"
         style="fill:#ffffff;fill-rule:evenodd;stroke:#000000;stroke-width:3;stroke-linecap:butt;stroke-linejoin:miter;stroke-miterlimit:4;stroke-dasharray:none;stroke-opacity:1" />
      <path
         id="path3733"
         d="M 84.6875,170.53125 C 83.931296,171.25651 83.170285,171.96222 82.4375,172.59375 C 78.518106,175.97157 72.075547,178.7833 68.8125,181.75 C 68.915594,181.75576 69.022446,181.77926 69.125,181.78125 C 71.662557,181.83046 73.969885,180.99659 76.125,180.25 C 78.280115,179.50341 80.309093,178.83755 81.9375,178.75 C 83.565907,178.66245 84.746314,178.93374 86.1875,180.4375 C 87.613929,181.92586 87.54632,182.6419 87.09375,183.90625 C 86.64118,185.1706 85.363964,186.78174 84,188.34375 C 82.636036,189.90576 81.117139,191.22996 80.5625,193.46875 C 80.285181,194.58814 80.567787,196.14501 81.46875,197.125 C 82.369713,198.10499 83.53932,198.63423 85.03125,199.0625 C 88.342336,200.01298 91.424538,198.70189 93.5625,196.71875 C 95.700462,194.73561 97.290748,192.13351 98.78125,189.71875 C 99.804574,188.06086 100.78402,186.52291 101.6875,185.34375 C 94.56466,181.16238 89.242312,176.13919 85.625,171.78125 C 85.29996,171.38966 85.00291,170.95637 84.6875,170.53125 z"
         style="fill:#ffffff;fill-rule:evenodd;stroke:none;stroke-width:2;stroke-linecap:butt;stroke-linejoin:miter;stroke-miterlimit:4;stroke-opacity:1" />
      <path
         id="path3731"
         d="M 107.15625,188.21875 C 106.96276,189.01281 106.70068,189.88568 106.40625,190.78125 C 105.81046,192.59344 105.06411,194.50551 105.375,196.71875 C 105.53044,197.82537 106.05165,198.99162 106.96875,199.875 C 107.88585,200.75838 109.08073,201.34028 110.53125,201.71875 C 112.02276,202.10791 113.47538,202.14313 114.75,201.71875 C 116.02462,201.29437 117.01996,200.45914 117.75,199.53125 C 119.21009,197.67546 119.89509,195.44424 120.78125,193.34375 C 120.87171,193.12933 120.96911,192.92974 121.0625,192.71875 C 115.90477,191.68741 111.29161,190.11428 107.15625,188.21875 z"
         style="fill:#ffffff;fill-rule:evenodd;stroke:none;stroke-width:2;stroke-linecap:butt;stroke-linejoin:miter;stroke-miterlimit:4;stroke-opacity:1" />
      <path
         id="path3715"
         d="M 156.1875,190.8125 C 152.09277,191.95006 147.98564,192.85051 144,193.40625 C 145.11479,195.24498 146.04281,197.05981 147.25,198.53125 C 147.90604,199.33089 148.70196,200.13769 149.90625,200.5 C 151.11054,200.86231 152.52238,200.55348 153.59375,199.875 C 155.31817,198.78295 156.53252,197.28141 156.875,195.59375 C 157.21748,193.90609 156.79224,192.40697 156.25,190.96875 C 156.23073,190.91764 156.20715,190.86367 156.1875,190.8125 z"
         style="fill:#ffffff;fill-rule:evenodd;stroke:none;stroke-width:2;stroke-linecap:butt;stroke-linejoin:miter;stroke-miterlimit:4;stroke-opacity:1" />
      <path
         sodipodi:nodetypes="czzzszzzzzzzzzz"
         id="path3232"
         d="M 137.59279,103.65854 C 149.53566,111.32128 157.05265,134.22282 172.32238,134.41145 C 187.59308,134.60009 198.76226,116.10006 199.09862,100.4772 C 199.4348,84.862295 189.27416,74.10331 189.81972,69.989396 C 190.36528,65.875482 191.36032,65.892181 193.28282,65.734836 C 195.20531,65.57749 206.48209,73.247185 214.20997,86.691411 C 221.82359,99.936861 223.74798,107.20016 223.75397,122.74655 C 223.75996,138.29511 220.18697,149.40156 206.25662,163.5737 C 192.84629,177.21679 159.66957,194.23393 134.41145,194.06151 C 109.15374,193.8891 93.473534,181.24046 85.630965,171.79215 C 77.788396,162.34384 72.691661,142.69635 72.110286,132.82078 C 71.528911,122.94521 73.330975,114.48267 77.412513,108.69565 C 81.494051,102.90863 87.09468,100.408 94.114528,98.35631 C 101.13438,96.30462 106.43371,95.699851 113.46765,96.235419 C 120.51672,96.772139 125.76893,96.07215 137.59279,103.65854 z"
         style="fill:#ffffff;fill-rule:evenodd;stroke:#000000;stroke-width:3;stroke-linecap:butt;stroke-linejoin:miter;stroke-miterlimit:4;stroke-dasharray:none;stroke-opacity:1" />
      <path
         sodipodi:nodetypes="cccc"
         id="path3689"
         d="M 143.95546,114.5281 C 148.0375,109.80897 157.75861,108.48277 162.51326,112.14211 C 158.25412,115.53634 156.50207,122.221 155.35525,127.51856 C 149.70153,128.04412 141.46409,119.77746 143.95546,114.5281 z"
         style="fill:#ffffff;fill-rule:evenodd;stroke:#000000;stroke-width:2;stroke-linecap:butt;stroke-linejoin:round;stroke-miterlimit:4;stroke-dasharray:none;stroke-opacity:1" />
      <path
         id="path3157"
         d="M 196.4375,74.75 C 194.89303,74.861478 193.73285,76.164533 192.9375,77.96875 C 194.35193,80.76219 195.96269,84.118975 197.1875,87.96875 C 198.22607,86.84439 199.24892,86.126336 200.15625,86.15625 C 200.18508,86.1572 200.22094,86.154129 200.25,86.15625 C 200.39201,83.22015 200.89678,80.890271 201.75,80.34375 C 201.82484,80.295811 201.91455,80.255117 202,80.21875 C 200.80229,77.128249 198.76155,74.582254 196.4375,74.75 z M 200.9375,86.3125 C 201.13863,86.381597 201.32484,86.481231 201.53125,86.59375 C 201.32478,86.480541 201.13905,86.381719 200.9375,86.3125 z"
         style="fill:#ffffff;fill-rule:evenodd;stroke:#000000;stroke-width:3;stroke-linecap:butt;stroke-linejoin:miter;stroke-miterlimit:4;stroke-dasharray:none;stroke-opacity:1" />
      <path
         sodipodi:nodetypes="czzzz"
         id="path3163"
         d="M 120.36055,99.151644 C 126.27227,100.21663 132.3738,104.14072 130.965,110.55143 C 129.55621,116.96215 116.63888,121.28427 110.55143,119.3001 C 104.46398,117.31593 104.18074,110.60709 105.77943,104.98409 C 107.37812,99.361094 114.44884,98.086661 120.36055,99.151644 z"
         style="fill:#ffffff;fill-rule:evenodd;stroke:#000000;stroke-width:2;stroke-linecap:butt;stroke-linejoin:miter;stroke-miterlimit:4;stroke-dasharray:none;stroke-opacity:1" />
      <path
         sodipodi:nodetypes="cccc"
         id="path3691"
         d="M 155.35525,131.49523 C 157.89693,126.45557 166.39203,117.98503 171.52705,120.09544 C 169.50406,125.91741 170.72595,133.60541 174.44327,137.06257 C 170.20725,140.51972 156.26001,137.06511 155.35525,131.49523 z"
         style="fill:#ffffff;fill-rule:evenodd;stroke:#000000;stroke-width:3;stroke-linecap:butt;stroke-linejoin:round;stroke-miterlimit:4;stroke-dasharray:none;stroke-opacity:1" />
      <path
         id="path3165"
         d="M 121.78125,96.9375 C 121.08131,97.534231 120.49298,98.262224 120,99.09375 C 120.12411,99.113888 120.25184,99.134063 120.375,99.15625 C 126.28672,100.22124 132.37755,104.15179 130.96875,110.5625 C 130.77496,111.44432 130.36282,112.27069 129.78125,113.0625 C 134.78712,114.49341 140.39437,114.88641 142.625,111.875 C 143.33681,110.91405 143.52178,109.83044 143.34375,108.6875 C 143.33865,108.68195 143.34885,108.6618 143.34375,108.65625 C 141.51837,106.67239 139.61337,104.95207 137.59375,103.65625 C 130.6011,99.169646 125.90795,97.597498 121.78125,96.9375 z"
         style="fill:#ffffff;fill-rule:evenodd;stroke:#000000;stroke-width:3;stroke-linecap:butt;stroke-linejoin:miter;stroke-miterlimit:4;stroke-dasharray:none;stroke-opacity:1" />
      <path
         sodipodi:nodetypes="cccc"
         id="path3693"
         d="M 174.70838,139.44857 C 173.58172,130.76333 177.76313,123.80738 181.60128,118.23966 C 184.9092,125.13217 190.44973,127.29568 194.59173,128.31389 C 193.43149,134.10412 179.5466,143.62692 174.70838,139.44857 z"
         style="fill:#ffffff;fill-rule:evenodd;stroke:#000000;stroke-width:3;stroke-linecap:butt;stroke-linejoin:round;stroke-miterlimit:4;stroke-dasharray:none;stroke-opacity:1" />
      <path
         id="path3173"
         d="M 129.78125,113.03125 C 127.15757,116.62499 121.05704,119.18888 115.875,119.6875 C 115.8263,121.54873 116.24704,123.44211 117.1875,125.125 C 120.28295,130.6641 134.77832,132.25348 138.125,126.1875 C 140.4604,121.95448 135.29138,116.05783 129.78125,113.03125 z"
         style="fill:#ffffff;fill-rule:evenodd;stroke:#000000;stroke-width:3;stroke-linecap:butt;stroke-linejoin:miter;stroke-miterlimit:4;stroke-dasharray:none;stroke-opacity:1" />
      <path
         sodipodi:nodetypes="cccc"
         id="path3695"
         d="M 191.41039,124.86744 C 189.08887,122.15219 188.90792,114.84787 190.61506,111.61188 C 193.64776,113.94323 199.52696,110.20419 203.3404,109.75609 C 204.23762,113.81488 195.32257,126.52225 191.41039,124.86744 z"
         style="fill:#ffffff;fill-rule:evenodd;stroke:#000000;stroke-width:3;stroke-linecap:butt;stroke-linejoin:round;stroke-miterlimit:4;stroke-dasharray:none;stroke-opacity:1" />
      <path
         id="path3178"
         d="M 143.34375,108.6875 C 143.52178,109.83044 143.33681,110.91405 142.625,111.875 C 140.586,114.6277 135.73718,114.504 131.09375,113.375 C 131.03022,113.47774 130.96693,113.58395 130.90625,113.6875 C 135.66341,116.6644 139.77282,121.61064 138.4375,125.46875 C 143.42419,126.7667 149.09227,126.83059 150.59375,124.875 C 151.49829,123.69689 151.75365,121.45937 151.53125,118.96875 C 148.82498,115.38664 146.15512,111.74575 143.34375,108.6875 z"
         style="fill:#ffffff;fill-rule:evenodd;stroke:#000000;stroke-width:3;stroke-linecap:butt;stroke-linejoin:miter;stroke-miterlimit:4;stroke-dasharray:none;stroke-opacity:1" />
      <path
         id="path3189"
         d="M 150.78125,124.59375 C 150.72306,124.68871 150.65854,124.79061 150.59375,124.875 C 149.35169,126.4927 145.26265,126.70154 141.0625,126 C 139.23762,128.79473 138.44491,132.7802 139.1875,135.46875 C 140.41555,139.9149 145.17679,141.74246 148.71875,140.78125 C 152.26072,139.82004 155.29964,136.19726 155.09375,132.28125 C 154.96447,129.82232 153.23868,126.59819 150.78125,124.59375 z"
         style="fill:#ffffff;fill-rule:evenodd;stroke:#000000;stroke-width:3;stroke-linecap:butt;stroke-linejoin:miter;stroke-miterlimit:4;stroke-dasharray:none;stroke-opacity:1" />
      <path
         id="path3194"
         d="M 151.96875,119.5625 C 151.83264,119.57044 151.6971,119.58652 151.5625,119.59375 C 151.67853,121.63561 151.45486,123.44412 150.78125,124.5625 C 150.77698,124.57082 150.78614,124.58578 150.78125,124.59375 C 153.23868,126.59819 154.96447,129.82232 155.09375,132.28125 C 155.26576,135.55289 153.16506,138.61249 150.40625,140.09375 C 156.95085,143.64283 165.57637,147.00139 168.09375,142.375 C 169.42829,139.92242 167.37987,135.92764 163.96875,131.875 C 163.96414,131.87217 163.97336,131.84658 163.96875,131.84375 C 159.48094,129.08345 155.66412,124.42797 151.96875,119.5625 z"
         style="fill:#ffffff;fill-rule:evenodd;stroke:#000000;stroke-width:3;stroke-linecap:butt;stroke-linejoin:miter;stroke-miterlimit:4;stroke-dasharray:none;stroke-opacity:1" />
      <path
         id="path3205"
         d="M 151.28125,173.90625 C 147.81772,173.91049 144.39425,174.9301 142.375,176.5625 C 138.33651,179.82728 139.35489,183.93668 142.09375,188.75 C 142.87759,190.12754 143.93919,191.72497 145.1875,193.21875 C 150.7331,192.36123 156.47206,190.86639 162.125,188.96875 C 162.1255,188.96654 162.15576,188.97096 162.15625,188.96875 C 163.12153,184.65616 162.69712,179.97475 160.40625,177.375 C 158.25205,174.93034 154.74478,173.90201 151.28125,173.90625 z"
         style="fill:#ffffff;fill-rule:evenodd;stroke:#000000;stroke-width:3;stroke-linecap:butt;stroke-linejoin:miter;stroke-miterlimit:4;stroke-dasharray:none;stroke-opacity:1" />
      <path
         id="path3210"
         d="M 157.59375,149.625 C 151.27674,149.38948 140.55575,156.79707 139.1875,162.25 C 137.72803,168.06646 139.15355,173.31236 145.03125,174.96875 C 145.07023,174.97973 145.11652,174.98963 145.15625,175 C 146.95661,174.30238 149.11654,173.9089 151.28125,173.90625 C 152.28867,173.90502 153.3008,174.00457 154.28125,174.1875 C 160.0781,172.47231 166.04876,168.94756 167.03125,165.15625 C 168.6143,159.04742 164.85734,151.16301 158.8125,149.78125 C 158.4347,149.69489 158.01488,149.6407 157.59375,149.625 z"
         style="fill:#ffffff;fill-rule:evenodd;stroke:#000000;stroke-width:2;stroke-linecap:butt;stroke-linejoin:miter;stroke-miterlimit:4;stroke-dasharray:none;stroke-opacity:1" />
      <path
         id="path3217"
         d="M 166.03125,167.21875 C 163.87776,170.18306 159.0328,172.78627 154.3125,174.1875 C 156.69118,174.63645 158.88511,175.64875 160.40625,177.375 C 161.405,178.50842 162.01501,180.05957 162.34375,181.78125 C 166.88814,181.09068 171.46818,177.24794 171.78125,173.375 C 172.01608,170.47007 169.41043,168.26484 166.03125,167.21875 z"
         style="fill:#ffffff;fill-rule:evenodd;stroke:#000000;stroke-width:3;stroke-linecap:butt;stroke-linejoin:miter;stroke-miterlimit:4;stroke-dasharray:none;stroke-opacity:1" />
      <path
         id="path3396"
         d="M 168.46875,179.25 C 168.32382,179.25127 168.17578,179.27695 168.03125,179.28125 C 166.37934,180.55045 164.35433,181.47572 162.34375,181.78125 C 162.76905,184.00864 162.7007,186.53633 162.15625,188.96875 C 167.55844,187.15385 172.87074,184.9429 177.9375,182.5 C 176.0092,180.17768 172.20342,179.21726 168.46875,179.25 z"
         style="fill:#ffffff;fill-rule:evenodd;stroke:#000000;stroke-width:3;stroke-linecap:butt;stroke-linejoin:miter;stroke-miterlimit:4;stroke-dasharray:none;stroke-opacity:1" />
      <path
         id="path3236"
         d="M 168.1875,142.1875 C 168.15801,142.25155 168.12754,142.3129 168.09375,142.375 C 166.34473,145.58932 161.64957,144.94302 156.75,143.0625 C 155.44554,144.94099 154.78302,147.51815 154.59375,150 C 155.65258,149.74219 156.67809,149.59086 157.59375,149.625 C 158.01488,149.6407 158.4347,149.69489 158.8125,149.78125 C 164.16102,151.00384 167.72299,157.33011 167.375,163 C 172.55478,161.28851 175.35611,156.02629 175.25,151.125 C 175.17466,147.64498 171.90443,144.22237 168.1875,142.1875 z"
         style="fill:#ffffff;fill-rule:evenodd;stroke:#000000;stroke-width:3;stroke-linecap:butt;stroke-linejoin:miter;stroke-miterlimit:4;stroke-dasharray:none;stroke-opacity:1" />
      <path
         id="path3250"
         d="M 163.96875,131.875 C 167.2935,135.82503 169.32254,139.72183 168.1875,142.1875 C 169.09117,142.68222 169.96988,143.23534 170.78125,143.875 C 174.46814,143.39199 178.05072,141.78148 178.40625,138.90625 C 178.62885,137.10603 177.83864,135.41027 176.5625,134 C 175.19004,134.30164 173.76496,134.42419 172.3125,134.40625 C 169.25231,134.36845 166.50421,133.43179 163.96875,131.875 z"
         style="fill:#ffffff;fill-rule:evenodd;stroke:#000000;stroke-width:3;stroke-linecap:butt;stroke-linejoin:miter;stroke-miterlimit:4;stroke-dasharray:none;stroke-opacity:1" />
      <path
         id="path3402"
         d="M 176.03125,170.90625 C 174.7077,172.07886 173.21322,173.13776 171.71875,173.9375 C 171.35429,175.89487 169.95148,177.82072 168.0625,179.28125 C 168.19719,179.27465 168.33412,179.25118 168.46875,179.25 C 172.20342,179.21726 176.0092,180.17768 177.9375,182.5 C 180.93061,181.0569 183.80384,179.51256 186.5625,177.9375 C 186.43799,176.54583 186.04781,175.24039 185.3125,174.1875 C 183.83454,172.07122 179.96621,171.02356 176.03125,170.90625 z"
         style="fill:#ffffff;fill-rule:evenodd;stroke:#000000;stroke-width:2;stroke-linecap:butt;stroke-linejoin:miter;stroke-miterlimit:4;stroke-dasharray:none;stroke-opacity:1" />
      <path
         id="path3286"
         d="M 178.4375,138.1875 C 178.44363,138.42953 178.43672,138.65984 178.40625,138.90625 C 178.05072,141.78148 174.46814,143.39199 170.78125,143.875 C 173.30716,145.86636 175.19298,148.49105 175.25,151.125 C 175.28374,152.68356 175.00591,154.27745 174.46875,155.78125 C 176.64214,157.10468 178.56838,159.05556 179.5625,161.15625 C 184.31564,158.76493 188.97838,153.11472 188.75,148.46875 C 188.51804,143.74984 183.30943,139.57169 178.4375,138.1875 z"
         style="fill:#ffffff;fill-rule:evenodd;stroke:#000000;stroke-width:3;stroke-linecap:butt;stroke-linejoin:miter;stroke-miterlimit:4;stroke-dasharray:none;stroke-opacity:1" />
      <path
         id="path3297"
         d="M 182.3125,160.21875 C 181.88923,160.2303 181.47158,160.24214 181.0625,160.28125 C 180.56704,160.60239 180.06568,160.9031 179.5625,161.15625 C 180.02236,162.12028 180.30219,163.1004 180.28125,164.09375 C 180.23543,166.2683 178.42667,168.784 176.03125,170.90625 C 179.93194,171.02254 183.77506,172.04559 185.28125,174.125 C 189.93322,171.83081 194.14675,167.78007 193.78125,164.90625 C 193.40066,161.91387 187.52924,160.07634 182.3125,160.21875 z"
         style="fill:#ffffff;fill-rule:evenodd;stroke:#000000;stroke-width:3;stroke-linecap:butt;stroke-linejoin:miter;stroke-miterlimit:4;stroke-dasharray:none;stroke-opacity:1" />
      <path
         id="path3406"
         d="M 183.4375,131.03125 C 181.30264,132.41303 179.00058,133.46415 176.5625,134 C 177.66396,135.21724 178.39884,136.6613 178.4375,138.1875 C 179.0893,138.37269 179.75512,138.62644 180.40625,138.90625 C 182.26346,137.92989 183.58891,136.22705 183.71875,134.40625 C 183.79835,133.29016 183.71469,132.11382 183.4375,131.03125 z"
         style="fill:#ffffff;fill-rule:evenodd;stroke:#000000;stroke-width:3;stroke-linecap:butt;stroke-linejoin:miter;stroke-miterlimit:4;stroke-dasharray:none;stroke-opacity:1" />
      <path
         id="path3319"
         d="M 197.09375,168.625 C 195.37972,168.58998 193.56003,168.84268 191.8125,169.28125 C 190.20791,171.09799 187.81365,172.87611 185.28125,174.125 C 185.29448,174.14327 185.29963,174.16907 185.3125,174.1875 C 186.04781,175.24039 186.43799,176.54583 186.5625,177.9375 C 191.60056,175.06102 196.18603,172.04263 200.03125,169.03125 C 199.12661,168.77178 198.13762,168.64633 197.09375,168.625 z"
         style="fill:#ffffff;fill-rule:evenodd;stroke:#000000;stroke-width:3;stroke-linecap:butt;stroke-linejoin:miter;stroke-miterlimit:4;stroke-dasharray:none;stroke-opacity:1" />
      <path
         id="path3330"
         d="M 188.6875,147.875 C 188.71483,148.07298 188.74016,148.26866 188.75,148.46875 C 188.95384,152.61543 185.26926,157.56569 181.09375,160.28125 C 181.49304,160.24443 181.89979,160.23001 182.3125,160.21875 C 187.13798,160.08702 192.51183,161.64658 193.59375,164.25 C 197.98992,161.25408 201.83273,156.41105 200.15625,152.4375 C 198.68778,148.95695 193.52466,147.75571 188.6875,147.875 z"
         style="fill:#ffffff;fill-rule:evenodd;stroke:#000000;stroke-width:3;stroke-linecap:butt;stroke-linejoin:miter;stroke-miterlimit:4;stroke-dasharray:none;stroke-opacity:1" />
      <path
         id="path3420"
         d="M 174.46875,155.78125 C 173.31828,159.01589 170.91213,161.83127 167.375,163 C 167.36654,163.13782 167.3256,163.26927 167.3125,163.40625 C 167.29034,163.63792 167.28568,163.86512 167.25,164.09375 C 167.19378,164.45395 167.12197,164.80615 167.03125,165.15625 C 166.9531,165.45783 166.82618,165.76507 166.6875,166.0625 C 166.55954,166.33694 166.42524,166.60537 166.25,166.875 C 166.22889,166.90718 166.20925,166.93666 166.1875,166.96875 C 166.17439,166.98829 166.1696,167.01174 166.15625,167.03125 C 166.11298,167.09448 166.07695,167.15584 166.03125,167.21875 C 169.41043,168.26484 172.01608,170.47007 171.78125,173.375 C 171.76597,173.56397 171.75384,173.74904 171.71875,173.9375 C 175.91799,171.69036 180.21011,167.46981 180.28125,164.09375 C 180.34762,160.94443 177.63943,157.71195 174.46875,155.78125 z"
         style="fill:#ffffff;fill-rule:evenodd;stroke:#000000;stroke-width:3;stroke-linecap:butt;stroke-linejoin:miter;stroke-miterlimit:4;stroke-dasharray:none;stroke-opacity:1" />
      <path
         id="path3365"
         d="M 184.75,133.21875 C 184.41959,133.23182 184.07571,133.24397 183.75,133.28125 C 183.76085,133.66083 183.74527,134.03435 183.71875,134.40625 C 183.58891,136.22705 182.26346,137.92989 180.40625,138.90625 C 184.4095,140.63168 188.15716,144.03272 188.6875,147.875 C 188.73961,147.87371 188.79157,147.87598 188.84375,147.875 C 192.70753,145.726 195.71781,141.59536 194.59375,138.125 C 193.53063,134.84276 189.01266,133.05014 184.75,133.21875 z"
         style="fill:#ffffff;fill-rule:evenodd;stroke:#000000;stroke-width:3;stroke-linecap:butt;stroke-linejoin:miter;stroke-miterlimit:4;stroke-dasharray:none;stroke-opacity:1" />
      <path
         id="path3390"
         d="M 203.0625,160.9375 C 200.59307,161.10499 196.86537,162.41615 193.65625,164.34375 C 193.6597,164.35316 193.65291,164.36556 193.65625,164.375 C 193.71598,164.54386 193.75872,164.72913 193.78125,164.90625 C 193.94778,166.21564 193.15551,167.76067 191.8125,169.28125 C 193.56003,168.84268 195.37972,168.58998 197.09375,168.625 C 198.13762,168.64633 199.12661,168.77178 200.03125,169.03125 C 202.24506,167.2975 204.22651,165.5817 205.90625,163.90625 C 206.12677,162.85498 206.03177,161.98303 205.46875,161.4375 C 205.02457,161.00712 204.16957,160.86241 203.0625,160.9375 z"
         style="fill:#ffffff;fill-rule:evenodd;stroke:#000000;stroke-width:3;stroke-linecap:butt;stroke-linejoin:miter;stroke-miterlimit:4;stroke-dasharray:none;stroke-opacity:1" />
      <path
         id="path3422"
         d="M 209.84375,148.875 C 207.0746,148.76822 203.19901,150.45514 200.28125,152.8125 C 201.24909,155.72769 199.42905,159.0437 196.65625,161.75 C 196.78158,162.03714 196.92712,162.31926 197.09375,162.59375 C 199.29174,161.65075 201.4449,161.04721 203.0625,160.9375 C 204.16957,160.86241 205.02457,161.00712 205.46875,161.4375 C 206.03177,161.98303 206.12677,162.85498 205.90625,163.90625 C 206.01864,163.79415 206.14024,163.67416 206.25,163.5625 C 209.64429,160.1093 212.425,156.85404 214.6875,153.65625 C 214.11183,151.60484 213.06298,149.94269 211.5625,149.25 C 211.06671,149.02112 210.48545,148.89975 209.84375,148.875 z M 205.90625,163.90625 C 205.38212,164.42904 204.83296,164.96764 204.25,165.5 C 204.83217,164.96676 205.37993,164.43122 205.90625,163.90625 z"
         style="fill:#ffffff;fill-rule:evenodd;stroke:#000000;stroke-width:3;stroke-linecap:butt;stroke-linejoin:miter;stroke-miterlimit:4;stroke-dasharray:none;stroke-opacity:1" />
      <path
         id="path3433"
         d="M 196.8125,136.25 C 195.84147,136.29801 194.90372,136.54151 194.03125,137 C 194.25795,137.35611 194.46368,137.72343 194.59375,138.125 C 195.64354,141.36605 193.08351,145.16545 189.59375,147.40625 C 189.60255,147.57494 189.60957,147.74001 189.625,147.90625 C 193.85002,147.9545 198.12545,149.01646 199.8125,151.78125 C 202.63697,149.80612 204.67361,146.54659 204.65625,143.96875 C 204.62831,139.81698 202.71622,137.45232 199.375,136.53125 C 198.5397,136.30098 197.65567,136.20831 196.8125,136.25 z"
         style="fill:#ffffff;fill-rule:evenodd;stroke:#000000;stroke-width:3;stroke-linecap:butt;stroke-linejoin:miter;stroke-miterlimit:4;stroke-dasharray:none;stroke-opacity:1" />
      <path
         id="path3441"
         d="M 192.96875,120.875 C 190.42761,125.04073 187.19685,128.59803 183.4375,131.03125 C 183.62232,131.75309 183.72829,132.52169 183.75,133.28125 C 184.07571,133.24397 184.41959,133.23182 184.75,133.21875 C 188.43368,133.07304 192.29814,134.39579 193.96875,136.875 C 196.94244,133.51821 199.06162,127.63484 197.25,124.0625 C 196.39032,122.36731 194.81202,121.35108 192.96875,120.875 z M 183.09375,136.375 C 182.99581,136.54783 182.89928,136.7105 182.78125,136.875 C 182.89689,136.7136 182.9979,136.54434 183.09375,136.375 z"
         style="fill:#ffffff;fill-rule:evenodd;stroke:#000000;stroke-width:3;stroke-linecap:butt;stroke-linejoin:miter;stroke-miterlimit:4;stroke-dasharray:none;stroke-opacity:1" />
      <path
         id="path3470"
         d="M 215.1875,136.40625 C 212.13871,136.28613 207.63125,138.32539 204.09375,140.625 C 204.44989,141.5778 204.6476,142.68374 204.65625,143.96875 C 204.67361,146.54659 202.63697,149.80612 199.8125,151.78125 C 199.94148,151.99263 200.0587,152.20629 200.15625,152.4375 C 200.20743,152.5588 200.24055,152.68969 200.28125,152.8125 C 203.19901,150.45514 207.0746,148.76822 209.84375,148.875 C 210.48545,148.89975 211.06671,149.02112 211.5625,149.25 C 213.06298,149.94269 214.11183,151.60484 214.6875,153.65625 C 216.99981,150.38806 218.75652,147.19954 220.09375,143.96875 C 219.85021,141.10267 218.97476,138.59496 217.65625,137.3125 C 217.05019,136.72301 216.20376,136.44629 215.1875,136.40625 z"
         style="fill:#ffffff;fill-rule:evenodd;stroke:#000000;stroke-width:3;stroke-linecap:butt;stroke-linejoin:miter;stroke-miterlimit:4;stroke-dasharray:none;stroke-opacity:1" />
      <path
         id="path3492"
         d="M 199.9375,128.25 C 199.23226,128.28969 198.51364,128.41109 197.8125,128.5625 C 197.42426,131.52335 195.88028,134.71721 193.96875,136.875 C 193.99544,136.91461 194.00551,136.95987 194.03125,137 C 194.90372,136.54151 195.84147,136.29801 196.8125,136.25 C 197.65567,136.20831 198.5397,136.30098 199.375,136.53125 C 201.68208,137.16724 203.29922,138.49937 204.09375,140.625 C 205.31265,139.83263 206.65013,139.09036 208,138.4375 C 208.38247,134.82153 207.26605,130.93995 204.9375,129.375 C 203.58918,128.46884 201.79632,128.14538 199.9375,128.25 z"
         style="fill:none;fill-rule:evenodd;stroke:#000000;stroke-width:2;stroke-linecap:butt;stroke-linejoin:miter;stroke-miterlimit:4;stroke-dasharray:none;stroke-opacity:1" />
      <path
         id="path3504"
         d="M 221.84375,127 C 219.93417,127.32679 217.72965,131.94049 216.4375,136.625 C 216.90149,136.77273 217.32463,136.98995 217.65625,137.3125 C 218.97476,138.59496 219.85021,141.10267 220.09375,143.96875 C 222.16193,138.97198 223.18904,133.86358 223.5625,128.25 C 223.16317,127.51268 222.69195,127.046 222.15625,127 C 222.05248,126.99109 221.94962,126.98188 221.84375,127 z"
         style="fill:#ffffff;fill-rule:evenodd;stroke:#000000;stroke-width:3;stroke-linecap:butt;stroke-linejoin:miter;stroke-miterlimit:4;stroke-dasharray:none;stroke-opacity:1" />
      <path
         id="path3526"
         d="M 213.4375,121.25 C 210.64934,121.27553 206.7324,124.68027 203.65625,128.75 C 204.11108,128.91828 204.5478,129.1131 204.9375,129.375 C 207.25945,130.93551 208.37291,134.79905 208,138.40625 C 210.56365,137.16774 213.19253,136.32765 215.1875,136.40625 C 215.83071,136.43159 216.38574,136.57824 216.875,136.8125 C 216.73129,136.74649 216.59216,136.67424 216.4375,136.625 C 216.71859,135.60594 217.05123,134.59396 217.40625,133.625 C 218.13405,128.27282 217.87758,122.6636 214.46875,121.40625 C 214.14702,121.28758 213.80303,121.24665 213.4375,121.25 z"
         style="fill:#ffffff;fill-rule:evenodd;stroke:#000000;stroke-width:3;stroke-linecap:butt;stroke-linejoin:miter;stroke-miterlimit:4;stroke-dasharray:none;stroke-opacity:1" />
      <path
         style="fill:#ffffff;fill-rule:evenodd;stroke:#000000;stroke-width:3;stroke-linecap:butt;stroke-linejoin:miter;stroke-miterlimit:4;stroke-dasharray:none;stroke-opacity:1"
         d="M 199.9375,128.25 C 199.23226,128.28969 198.51364,128.41109 197.8125,128.5625 C 197.42426,131.52335 195.88028,134.71721 193.96875,136.875 C 193.99544,136.91461 194.00551,136.95987 194.03125,137 C 194.90372,136.54151 195.84147,136.29801 196.8125,136.25 C 197.65567,136.20831 198.5397,136.30098 199.375,136.53125 C 201.68208,137.16724 203.29922,138.49937 204.09375,140.625 C 205.31265,139.83263 206.65013,139.09036 208,138.4375 C 208.38247,134.82153 207.26605,130.93995 204.9375,129.375 C 203.58918,128.46884 201.79632,128.14538 199.9375,128.25 z"
         id="path3511" />
      <path
         id="path3546"
         d="M 201.59375,115.03125 C 201.34252,115.02173 201.08054,115.03848 200.8125,115.0625 C 198.9686,115.22778 196.80984,116.14453 194.8125,117.46875 C 194.24413,118.63292 193.63632,119.77717 192.96875,120.875 C 194.81202,121.35108 196.39032,122.36731 197.25,124.0625 C 197.89967,125.34358 198.03814,126.91282 197.8125,128.5625 C 198.51364,128.41109 199.23226,128.28969 199.9375,128.25 C 201.25908,128.17562 202.53742,128.33604 203.65625,128.75 C 204.4628,127.68294 205.3321,126.67671 206.21875,125.75 C 206.66044,121.54401 205.94778,117.0029 203.59375,115.59375 C 203.01999,115.25029 202.34745,115.05982 201.59375,115.03125 z"
         style="fill:#ffffff;fill-rule:evenodd;stroke:#000000;stroke-width:3;stroke-linecap:butt;stroke-linejoin:miter;stroke-miterlimit:4;stroke-dasharray:none;stroke-opacity:1" />
      <path
         id="path3548"
         d="M 212.15625,107.40625 C 209.136,107.49798 205.31863,111.47421 203.4375,115.5 C 203.49247,115.52925 203.54047,115.56186 203.59375,115.59375 C 205.94778,117.0029 206.66044,121.54401 206.21875,125.75 C 208.71375,123.14229 211.38038,121.26884 213.4375,121.25 C 213.66596,121.24791 213.8823,121.27183 214.09375,121.3125 C 216.08438,115.92974 216.28332,108.82335 213.40625,107.625 C 213.00496,107.45786 212.60123,107.39274 212.15625,107.40625 z"
         style="fill:none;fill-rule:evenodd;stroke:#000000;stroke-width:2;stroke-linecap:butt;stroke-linejoin:miter;stroke-miterlimit:4;stroke-dasharray:none;stroke-opacity:1" />
      <path
         id="path3574"
         d="M 219.5,112.40625 C 218.27434,112.43311 216.83328,113.45249 215.5,114.90625 C 215.49914,114.91681 215.50088,114.92693 215.5,114.9375 C 215.32515,117.03835 214.84024,119.29397 214.09375,121.3125 C 214.22062,121.3369 214.3481,121.36175 214.46875,121.40625 C 217.67805,122.59 218.06972,127.63514 217.5,132.6875 C 217.57189,132.73441 217.64648,132.7676 217.71875,132.8125 C 218.94929,129.70291 220.46783,127.23546 221.84375,127 C 221.94962,126.98188 222.05248,126.99109 222.15625,127 C 222.69195,127.046 223.16317,127.51268 223.5625,128.25 C 223.68127,126.47547 223.75073,124.64472 223.75,122.75 C 223.74902,120.19912 223.68344,117.88664 223.5625,115.71875 C 222.22277,113.7039 220.70882,112.37976 219.5,112.40625 z"
         style="fill:#ffffff;fill-rule:evenodd;stroke:#000000;stroke-width:3;stroke-linecap:butt;stroke-linejoin:miter;stroke-miterlimit:4;stroke-dasharray:none;stroke-opacity:1" />
      <path
         style="fill:#ffffff;fill-rule:evenodd;stroke:#000000;stroke-width:3;stroke-linecap:butt;stroke-linejoin:miter;stroke-miterlimit:4;stroke-dasharray:none;stroke-opacity:1"
         d="M 212.15625,107.40625 C 209.136,107.49798 205.31863,111.47421 203.4375,115.5 C 203.49247,115.52925 203.54047,115.56186 203.59375,115.59375 C 205.94778,117.0029 206.66044,121.54401 206.21875,125.75 C 208.71375,123.14229 211.38038,121.26884 213.4375,121.25 C 213.66596,121.24791 213.8823,121.27183 214.09375,121.3125 C 216.08438,115.92974 216.28332,108.82335 213.40625,107.625 C 213.00496,107.45786 212.60123,107.39274 212.15625,107.40625 z"
         id="path3558" />
      <path
         id="path3576"
         d="M 199.65625,103.53125 C 199.41287,103.51955 199.1573,103.53761 198.90625,103.5625 C 198.35409,108.67603 196.69592,113.92334 194.21875,118.625 C 194.42,118.23825 194.62098,117.86103 194.8125,117.46875 C 196.80984,116.14453 198.9686,115.22778 200.8125,115.0625 C 201.08054,115.03848 201.34252,115.02173 201.59375,115.03125 C 202.27746,115.05717 202.90051,115.21428 203.4375,115.5 C 203.95007,114.40306 204.59897,113.3245 205.34375,112.3125 C 205.24029,108.71935 203.57563,105.05354 201.21875,103.9375 C 200.73352,103.70773 200.20375,103.55757 199.65625,103.53125 z"
         style="fill:#ffffff;fill-rule:evenodd;stroke:#000000;stroke-width:3;stroke-linecap:butt;stroke-linejoin:miter;stroke-miterlimit:4;stroke-dasharray:none;stroke-opacity:1" />
      <path
         id="path3588"
         d="M 216.65625,96.6875 C 216.53879,96.698172 216.45118,96.746698 216.34375,96.78125 C 213.94659,97.552246 210.98998,103.14034 210.78125,107.71875 C 211.25588,107.54641 211.70782,107.41987 212.15625,107.40625 C 212.60123,107.39274 213.00496,107.45786 213.40625,107.625 C 215.17184,108.3604 215.75444,111.32842 215.5,114.75 C 215.5379,114.76758 215.58686,114.76394 215.625,114.78125 C 216.92283,113.39975 218.31264,112.43227 219.5,112.40625 C 220.70882,112.37976 222.22277,113.7039 223.5625,115.71875 C 223.56641,115.78891 223.5587,115.86703 223.5625,115.9375 C 223.57226,115.93526 223.58401,115.93977 223.59375,115.9375 C 223.22828,109.096 222.18617,103.81476 219.96875,98.21875 C 218.74113,97.209523 217.54354,96.606889 216.65625,96.6875 z"
         style="fill:#ffffff;fill-rule:evenodd;stroke:#000000;stroke-width:3;stroke-linecap:butt;stroke-linejoin:miter;stroke-miterlimit:4;stroke-dasharray:none;stroke-opacity:1" />
      <path
         id="path3660"
         d="M 202.3125,80.125 C 202.1127,80.150608 201.91499,80.238066 201.75,80.34375 C 200.89678,80.890271 200.39201,83.22015 200.25,86.15625 C 202.6712,86.334208 205.7599,90.462012 207.375,94.75 C 207.56295,91.717124 208.58319,88.911519 210.28125,87.96875 C 208.41688,84.014038 204.46317,79.849348 202.3125,80.125 z"
         style="fill:#ffffff;fill-rule:evenodd;stroke:#000000;stroke-width:3;stroke-linecap:butt;stroke-linejoin:miter;stroke-miterlimit:4;stroke-dasharray:none;stroke-opacity:1" />
      <path
         id="path3599"
         d="M 206.34375,96.78125 C 203.57617,96.990997 202.27771,100.751 202.09375,104.5 C 203.97452,106.00937 205.25375,109.18682 205.34375,112.3125 C 206.92897,110.16594 208.92887,108.38861 210.78125,107.71875 C 210.78171,107.70858 210.78076,107.69768 210.78125,107.6875 C 210.8385,106.49987 211.10097,105.25135 211.46875,104.03125 C 210.89706,100.3093 209.31827,96.936382 206.78125,96.78125 C 206.62571,96.771739 206.49098,96.770092 206.34375,96.78125 z M 211.71875,107.46875 C 211.5126,107.50461 211.3057,107.5575 211.09375,107.625 C 211.30372,107.56326 211.51397,107.49932 211.71875,107.46875 z"
         style="fill:#ffffff;fill-rule:evenodd;stroke:#000000;stroke-width:3;stroke-linecap:butt;stroke-linejoin:miter;stroke-miterlimit:4;stroke-dasharray:none;stroke-opacity:1" />
      <path
         id="path3643"
         d="M 200.15625,86.15625 C 199.24892,86.126336 198.22607,86.84439 197.1875,87.96875 C 198.37432,91.688892 199.1931,95.854306 199.09375,100.46875 C 199.06572,101.77069 198.95468,103.10241 198.78125,104.4375 C 198.8195,104.14759 198.87502,103.85167 198.90625,103.5625 C 199.1573,103.53761 199.41287,103.51955 199.65625,103.53125 C 200.20375,103.55757 200.73352,103.70773 201.21875,103.9375 C 201.52018,104.08024 201.81854,104.27599 202.09375,104.5 C 202.27771,100.751 203.57617,96.990997 206.34375,96.78125 C 206.49098,96.770092 206.62571,96.771739 206.78125,96.78125 C 206.98634,96.793791 207.18397,96.822703 207.375,96.875 C 207.32593,96.167682 207.33228,95.452639 207.375,94.75 C 205.73982,90.408694 202.59032,86.236501 200.15625,86.15625 z"
         style="fill:#ffffff;fill-rule:evenodd;stroke:#000000;stroke-width:3;stroke-linecap:butt;stroke-linejoin:miter;stroke-miterlimit:4;stroke-dasharray:none;stroke-opacity:1" />
      <path
         style="fill:#ffffff;fill-rule:evenodd;stroke:#000000;stroke-width:3;stroke-linecap:butt;stroke-linejoin:miter;stroke-miterlimit:4;stroke-dasharray:none;stroke-opacity:1"
         d="M 211.125,87.65625 C 210.99975,87.671994 210.86648,87.71193 210.75,87.75 C 208.33849,88.538156 207.08593,92.854008 207.375,96.90625 C 209.55633,97.509563 210.93996,100.59216 211.46875,104 C 212.51992,100.5344 214.57838,97.349045 216.34375,96.78125 C 216.45118,96.746698 216.53879,96.698172 216.65625,96.6875 C 217.53015,96.608106 218.69812,97.205658 219.90625,98.1875 C 218.92393,95.707578 217.7397,93.1562 216.25,90.375 C 214.42054,88.672593 212.51865,87.481073 211.125,87.65625 z"
         id="path3630" />
      <path
         id="path3685"
         d="M 201.90625,72.625 C 201.49927,72.612914 201.18206,72.70801 200.96875,72.90625 C 200.10828,73.705915 200.82937,76.72403 202.3125,80.125 C 202.31414,80.128763 202.34211,80.121236 202.34375,80.125 C 204.50077,79.889955 208.4252,84.031693 210.28125,87.96875 C 210.43352,87.884327 210.58792,87.802972 210.75,87.75 C 210.86648,87.71193 210.99975,87.671994 211.125,87.65625 C 212.41544,87.494046 214.14279,88.529323 215.84375,90.03125 C 215.88542,89.969723 215.92857,89.906739 215.96875,89.84375 C 215.41433,88.821188 214.849,87.783956 214.21875,86.6875 C 210.99564,81.080248 207.14664,76.511862 203.625,73.0625 C 202.95649,72.815088 202.37858,72.639027 201.90625,72.625 z"
         style="fill:#ffffff;fill-rule:evenodd;stroke:#000000;stroke-width:3;stroke-linecap:butt;stroke-linejoin:miter;stroke-miterlimit:4;stroke-dasharray:none;stroke-opacity:1" />
      <path
         sodipodi:nodetypes="czzzzzzzzzzzzz"
         id="path3705"
         d="M 63.626723,176.56416 C 56.959454,167.66038 69.922797,137.85203 78.472959,128.31389 C 87.023121,118.77575 96.265377,115.8921 109.22587,116.38388 C 122.18636,116.87566 148.31791,131.20337 156.41569,139.44857 C 165.01677,148.20622 168.88349,160.07087 162.51325,161.71792 C 157.1422,163.10663 160.73172,154.37525 156.41569,155.88547 C 152.18877,157.36451 149.29977,172.60693 150.67208,181.45428 C 152.04439,190.30163 158.11045,194.44656 152.43903,198.03817 C 146.7676,201.62979 146.88698,182.74972 131.23012,183.19194 C 115.30836,183.64164 120.6743,202.13174 111.08166,199.62884 C 101.42746,197.10988 115.14919,186.35999 106.83987,181.60127 C 98.418617,176.77845 95.874894,199.91834 85.630965,196.97773 C 75.313818,194.01611 95.253672,186.77766 87.751855,178.95016 C 80.375775,171.25385 70.293992,185.46794 63.626723,176.56416 z"
         style="fill:#000000;fill-rule:evenodd;stroke:#000000;stroke-width:2;stroke-linecap:butt;stroke-linejoin:miter;stroke-miterlimit:4;stroke-dasharray:none;stroke-opacity:1" />
      <path
         sodipodi:nodetypes="cczz"
         id="path3707"
         d="M 82.979852,163.30859 C 84.688089,168.61318 89.949612,175.34849 92.258749,176.29905 C 95.36322,167.44049 95.674966,149.25335 87.486744,148.46235 C 79.298523,147.67136 81.271614,158.004 82.979852,163.30859 z"
         style="fill:#ffffff;fill-rule:evenodd;stroke:none;stroke-width:1px;stroke-linecap:butt;stroke-linejoin:round;stroke-opacity:1" />
      <path
         sodipodi:nodetypes="cccc"
         id="path3709"
         d="M 89.077413,126.98834 C 97.270131,136.73313 102.78081,161.48063 99.946978,178.41994 C 105.33158,175.4759 107.22133,175.87043 111.34677,177.88971 C 114.94199,164.0023 107.39583,134.21066 89.077413,126.98834 z"
         style="fill:#ffffff;fill-rule:evenodd;stroke:none;stroke-width:1px;stroke-linecap:butt;stroke-linejoin:round;stroke-opacity:1" />
      <path
         sodipodi:nodetypes="ccccc"
         id="path3711"
         d="M 97.826087,125.39767 C 111.83972,138.16664 119.93319,155.9726 120.62567,181.60128 C 129.5366,176.21193 131.78314,176.42903 141.03923,181.07105 C 135.44908,167.15527 122.10647,139.51033 103.12831,124.07211 C 100.05685,124.01036 99.984246,124.82382 97.826087,125.39767 z"
         style="fill:#ffffff;fill-rule:evenodd;stroke:none;stroke-width:1px;stroke-linecap:butt;stroke-linejoin:round;stroke-opacity:1" />
      <path
         sodipodi:nodetypes="cccc"
         id="path3713"
         d="M 105.2492,121.68611 C 122.14914,133.0719 138.24641,157.0947 145.28102,170.46659 C 145.68784,161.83424 150.75347,152.83134 154.82503,149.78791 C 152.00369,138.79114 122.0184,121.16988 105.2492,121.68611 z"
         style="fill:#ffffff;fill-rule:evenodd;stroke:none;stroke-width:1px;stroke-linecap:butt;stroke-linejoin:round;stroke-opacity:1" />
      <path
         transform="matrix(0.9733481,-0.2293328,0.2293328,0.9733481,-4.4853918,20.953977)"
         d="M 94.90986,121.421 A 14.183457,7.9533405 0 1 1 66.542945,121.421 A 14.183457,7.9533405 0 1 1 94.90986,121.421 z"
         sodipodi:ry="7.9533405"
         sodipodi:rx="14.183457"
         sodipodi:cy="121.421"
         sodipodi:cx="80.726402"
         id="path3739"
         style="fill:#ffffff;fill-opacity:1;stroke:#000000;stroke-width:3;stroke-linecap:round;stroke-linejoin:round;stroke-miterlimit:4;stroke-dasharray:none;stroke-opacity:1"
         sodipodi:type="arc" />
      <path
         sodipodi:type="arc"
         style="fill:#000000;fill-opacity:1;stroke:#000000;stroke-width:1.99999988;stroke-linecap:round;stroke-linejoin:round;stroke-miterlimit:4;stroke-dasharray:none;stroke-opacity:1"
         id="path3737"
         sodipodi:cx="80.726402"
         sodipodi:cy="121.421"
         sodipodi:rx="14.183457"
         sodipodi:ry="7.9533405"
         d="M 94.90986,121.421 A 14.183457,7.9533405 0 1 1 66.542945,121.421 A 14.183457,7.9533405 0 1 1 94.90986,121.421 z"
         transform="matrix(1.0968245,-0.2413795,0.2584253,1.0244772,-30.710989,15.453198)" />
      <path
         sodipodi:nodetypes="czzczzzzz"
         id="path3697"
         d="M 64.156946,122.74655 C 57.359149,124.98287 55.243099,132.143 53.287381,141.03924 C 51.387218,149.68277 51.591515,161.05323 53.022269,169.14104 C 54.453023,177.22885 57.215938,188.33754 62.301166,193.79639 C 63.674835,189.18101 65.293231,185.24005 68.398727,182.1315 C 71.504223,179.02295 78.362281,176.11006 82.449629,172.58749 C 86.536977,169.06492 91.423395,164.07265 92.258748,157.74125 C 93.094101,151.40985 89.592929,142.58644 85.630965,136.79745 C 81.669001,131.00846 70.880302,120.53472 64.156946,122.74655 z"
         style="fill:#ffffff;fill-rule:evenodd;stroke:#000000;stroke-width:3;stroke-linecap:butt;stroke-linejoin:round;stroke-miterlimit:4;stroke-dasharray:none;stroke-opacity:1" />
      <path
         sodipodi:nodetypes="czzzzzzzzz"
         id="path3699"
         d="M 71.580064,128.84411 C 63.549456,128.95752 59.667638,141.16095 57.794273,149.5228 C 55.920908,157.88465 57.832095,180.25832 61.505832,181.07105 C 65.432709,181.93978 65.80678,164.36892 68.92895,165.16437 C 72.411309,166.05159 68.410996,172.51365 71.845176,173.11771 C 75.279356,173.72177 76.823504,169.73769 77.461088,165.56979 C 78.098672,161.4019 76.829184,156.64881 78.472959,156.41569 C 80.116734,156.18257 80.733606,161.47724 83.244963,161.98304 C 85.692051,162.47589 87.392359,157.25704 86.426299,151.64369 C 85.460239,146.03034 79.610672,128.7307 71.580064,128.84411 z"
         style="fill:#000000;fill-opacity:1;fill-rule:evenodd;stroke:none;stroke-width:1px;stroke-linecap:butt;stroke-linejoin:miter;stroke-opacity:1" />
      <path
         sodipodi:nodetypes="czzzzz"
         id="path3741"
         d="M 78.73807,71.049841 C 70.177379,71.215053 72.32313,77.142402 74.496288,80.858961 C 76.733921,84.685785 104.29757,106.86952 115.32343,106.83987 C 126.34682,106.81022 131.9389,97.132032 130.16967,94.644751 C 128.27746,91.984583 124.11647,95.29144 117.44433,94.114528 C 110.72192,92.928749 87.298761,70.884629 78.73807,71.049841 z"
         style="fill:#ffffff;fill-rule:evenodd;stroke:#000000;stroke-width:3;stroke-linecap:butt;stroke-linejoin:miter;stroke-miterlimit:4;stroke-dasharray:none;stroke-opacity:1" />
      <path
         style="fill:#ffffff;fill-rule:evenodd;stroke:#000000;stroke-width:3;stroke-linecap:butt;stroke-linejoin:miter;stroke-miterlimit:4;stroke-dasharray:none;stroke-opacity:1"
         d="M 64.156946,71.049841 C 55.596255,71.215053 58.269177,78.043975 59.915164,80.858961 C 61.561151,83.673946 66.212616,86.101446 73.82687,94.526548 C 81.57207,103.09654 91.927299,109.04471 98.621422,110.81654 C 105.31555,112.58837 115.23528,112.28065 115.05833,108.16543 C 114.87,103.78557 105.02845,101.65411 101.27253,99.151645 C 97.634308,96.727595 72.717637,70.884629 64.156946,71.049841 z"
         id="path3743"
         sodipodi:nodetypes="czzzzzz" />
      <path
         sodipodi:nodetypes="czzzzzzzzzzz"
         id="path3745"
         d="M 41.35737,70.254507 C 35.440249,68.611355 32.13878,75.257609 32.873807,80.593849 C 33.603023,85.887905 36.80895,93.296878 41.092259,99.151643 C 45.500906,105.17773 63.937399,117.81858 58.589608,122.48143 C 52.665235,127.64701 51.549213,116.49804 49.31071,112.1421 C 47.124934,107.88876 43.045374,103.34425 39.699097,97.34062 C 36.413724,91.446265 28.136665,81.137735 24.125133,85.630965 C 20.034008,90.213345 36.26571,101.70134 39.501591,110.0212 C 42.648102,118.11128 42.825901,122.67571 46.129374,127.25345 C 49.696785,132.19694 56.483268,134.80784 60.710498,131.49523 C 64.480571,128.54086 67.151988,126.10878 66.277837,116.64899 C 65.306482,106.13728 47.20102,71.877257 41.35737,70.254507 z"
         style="fill:#ffffff;fill-rule:evenodd;stroke:#000000;stroke-width:3;stroke-linecap:butt;stroke-linejoin:miter;stroke-miterlimit:4;stroke-dasharray:none;stroke-opacity:1" />
      <path
         sodipodi:nodetypes="csscscsc"
         id="path2454"
         d="M 50.375,74.46875 C 50.003496,74.452794 49.646471,74.459189 49.3125,74.5 C 43.994466,75.149858 39.105413,80.507734 43.21875,90.125 C 47.167688,99.357889 60.093143,105.75272 67.65625,118.4375 C 67.062945,114.2619 72.30504,109.58315 79.6875,107.84375 C 82.997267,107.06393 86.207848,107.0328 88.84375,107.5625 C 84.571111,99.887464 76.297147,91.49072 71.59375,86.96875 C 65.50363,81.113549 55.947566,74.708094 50.375,74.46875 z"
         style="fill:#ffffff;fill-rule:evenodd;stroke:#000000;stroke-width:3;stroke-linecap:butt;stroke-linejoin:miter;stroke-miterlimit:4;stroke-dasharray:none;stroke-opacity:1" />
      <path
         transform="matrix(0.9733481,-0.2293328,0.2293328,0.9733481,-24.898965,15.916861)"
         d="M 94.90986,121.421 A 14.183457,7.9533405 0 1 1 66.542945,121.421 A 14.183457,7.9533405 0 1 1 94.90986,121.421 z"
         sodipodi:ry="7.9533405"
         sodipodi:rx="14.183457"
         sodipodi:cy="121.421"
         sodipodi:cx="80.726402"
         id="path3735"
         style="fill:#ffffff;fill-opacity:1;stroke:#000000;stroke-width:3;stroke-linecap:round;stroke-linejoin:round;stroke-miterlimit:4;stroke-dasharray:none;stroke-opacity:1"
         sodipodi:type="arc" />
      <path
         transform="matrix(0.753377,0.8234312,-0.8957627,0.6925429,112.39474,-27.007954)"
         d="M 67.868506,107.23754 A 11.532344,7.2905622 0 1 1 44.803819,107.23754 A 11.532344,7.2905622 0 1 1 67.868506,107.23754 z"
         sodipodi:ry="7.2905622"
         sodipodi:rx="11.532344"
         sodipodi:cy="107.23754"
         sodipodi:cx="56.336163"
         id="path2456"
         style="fill:#000000;fill-opacity:1;stroke:none;stroke-width:2;stroke-linecap:round;stroke-linejoin:round;stroke-miterlimit:4;stroke-dasharray:none;stroke-opacity:1"
         sodipodi:type="arc" />
      <path
         sodipodi:type="arc"
         style="fill:#ffffff;fill-opacity:1;stroke:none;stroke-width:2;stroke-linecap:round;stroke-linejoin:round;stroke-miterlimit:4;stroke-dasharray:none;stroke-opacity:1"
         id="path3228"
         sodipodi:cx="56.336163"
         sodipodi:cy="107.23754"
         sodipodi:rx="11.532344"
         sodipodi:ry="7.2905622"
         d="M 67.868506,107.23754 A 11.532344,7.2905622 0 1 1 44.803819,107.23754 A 11.532344,7.2905622 0 1 1 67.868506,107.23754 z"
         transform="matrix(0.4855476,0.5426313,-0.5773142,0.4563776,93.313023,15.110867)" />
      <path
         transform="matrix(0.3230585,0.253748,-0.3283124,0.4087417,75.808247,35.996612)"
         d="M 67.868506,107.23754 A 11.532344,7.2905622 0 1 1 44.803819,107.23754 A 11.532344,7.2905622 0 1 1 67.868506,107.23754 z"
         sodipodi:ry="7.2905622"
         sodipodi:rx="11.532344"
         sodipodi:cy="107.23754"
         sodipodi:cx="56.336163"
         id="path3230"
         style="fill:#000000;fill-opacity:1;stroke:none;stroke-width:2;stroke-linecap:round;stroke-linejoin:round;stroke-miterlimit:4;stroke-dasharray:none;stroke-opacity:1"
         sodipodi:type="arc" />
      <path
         sodipodi:type="arc"
         style="fill:#ffffff;fill-opacity:1;stroke:none;stroke-width:2;stroke-linecap:round;stroke-linejoin:round;stroke-miterlimit:4;stroke-dasharray:none;stroke-opacity:1"
         id="path3233"
         sodipodi:cx="56.336163"
         sodipodi:cy="107.23754"
         sodipodi:rx="11.532344"
         sodipodi:ry="7.2905622"
         d="M 67.868506,107.23754 A 11.532344,7.2905622 0 1 1 44.803819,107.23754 A 11.532344,7.2905622 0 1 1 67.868506,107.23754 z"
         transform="matrix(6.1255046e-2,4.0419559e-2,-7.2832002e-2,9.2886225e-2,62.68075,80.458886)" />
      <path
         id="path3687"
         d="M 142.09375,98.71875 C 138.49654,98.786263 135.03442,99.393491 132.03125,100.4375 C 133.72264,101.30186 135.55427,102.34768 137.59375,103.65625 C 141.44498,106.12726 144.84836,110.19483 148.1875,114.5625 C 148.36246,108.89558 151.65172,103.81698 155.34375,101 C 151.22992,99.353877 146.57351,98.634673 142.09375,98.71875 z"
         style="fill:#ffffff;fill-rule:evenodd;stroke:#000000;stroke-width:3;stroke-linecap:butt;stroke-linejoin:round;stroke-miterlimit:4;stroke-dasharray:none;stroke-opacity:1" />
    </g>
  </g>
</svg>
