<?xml version="1.0" encoding="UTF-8" standalone="no"?>
<!-- Created with Inkscape (http://www.inkscape.org/) -->
<svg
   xmlns:dc="http://purl.org/dc/elements/1.1/"
   xmlns:cc="http://creativecommons.org/ns#"
   xmlns:rdf="http://www.w3.org/1999/02/22-rdf-syntax-ns#"
   xmlns:svg="http://www.w3.org/2000/svg"
   xmlns="http://www.w3.org/2000/svg"
   xmlns:sodipodi="http://sodipodi.sourceforge.net/DTD/sodipodi-0.dtd"
   xmlns:inkscape="http://www.inkscape.org/namespaces/inkscape"
   width="250"
   height="250"
   id="svg2397"
   sodipodi:version="0.32"
   inkscape:version="0.46"
   version="1.0"
   sodipodi:docname="Flame-icon.svg"
   inkscape:output_extension="org.inkscape.output.svg.inkscape">
  <defs
     id="defs2399">
    <inkscape:perspective
       sodipodi:type="inkscape:persp3d"
       inkscape:vp_x="0 : 526.18109 : 1"
       inkscape:vp_y="0 : 1000 : 0"
       inkscape:vp_z="744.09448 : 526.18109 : 1"
       inkscape:persp3d-origin="372.04724 : 350.78739 : 1"
       id="perspective2405" />
    <inkscape:perspective
       id="perspective2471"
       inkscape:persp3d-origin="372.04724 : 350.78739 : 1"
       inkscape:vp_z="744.09448 : 526.18109 : 1"
       inkscape:vp_y="0 : 1000 : 0"
       inkscape:vp_x="0 : 526.18109 : 1"
       sodipodi:type="inkscape:persp3d" />
    <inkscape:perspective
       id="perspective3222"
       inkscape:persp3d-origin="372.04724 : 350.78739 : 1"
       inkscape:vp_z="744.09448 : 526.18109 : 1"
       inkscape:vp_y="0 : 1000 : 0"
       inkscape:vp_x="0 : 526.18109 : 1"
       sodipodi:type="inkscape:persp3d" />
  </defs>
  <sodipodi:namedview
     id="base"
     pagecolor="#ffffff"
     bordercolor="#666666"
     borderopacity="1.0"
     gridtolerance="10000"
     guidetolerance="10"
     objecttolerance="10"
     inkscape:pageopacity="0.0"
     inkscape:pageshadow="2"
     inkscape:zoom="3.772"
     inkscape:cx="125"
     inkscape:cy="125"
     inkscape:document-units="px"
     inkscape:current-layer="layer1"
     showgrid="false"
     inkscape:window-width="1904"
     inkscape:window-height="1150"
     inkscape:window-x="0"
     inkscape:window-y="14" />
  <metadata
     id="metadata2402">
    <rdf:RDF>
      <cc:Work
         rdf:about="">
        <dc:format>image/svg+xml</dc:format>
        <dc:type
           rdf:resource="http://purl.org/dc/dcmitype/StillImage" />
      </cc:Work>
    </rdf:RDF>
  </metadata>
  <g
     inkscape:label="Layer 1"
     inkscape:groupmode="layer"
     id="layer1">
    <g
       id="g3395">
      <rect
         y="32.033756"
         x="33.249855"
         height="185.31128"
         width="185"
         id="rect3318"
         style="fill:#ffffff;fill-opacity:1;stroke:none;stroke-width:3;stroke-linecap:round;stroke-linejoin:round;stroke-miterlimit:4;stroke-dasharray:none;stroke-opacity:1" />
      <path
         id="path3206"
         d="M 25.74985,24.689398 L 25.749853,224.68941 L 225.74986,224.68941 L 225.74986,24.6894 L 25.74985,24.689398 z M 35.749851,34.689398 L 215.74986,34.689401 L 215.74986,214.68941 L 35.749857,214.68941 L 35.749851,34.689398 z"
         style="fill:#000000;fill-opacity:1;stroke:none;stroke-width:4.76193762;stroke-linecap:round;stroke-linejoin:miter;stroke-miterlimit:4;stroke-dasharray:none;stroke-opacity:1" />
      <path
         id="path3200"
         d="M 38.249851,37.189398 L 213.24986,37.189401 L 213.24986,212.18941 L 38.249854,212.18941 L 38.249851,37.189398 z"
         style="fill:#000000;fill-opacity:1;stroke:none;stroke-width:4.76193762;stroke-linecap:round;stroke-linejoin:miter;stroke-miterlimit:4;stroke-dasharray:none;stroke-opacity:1" />
      <path
         id="path3284"
         d="M 153.80342,14.971183 C 95.781713,16.460042 49.141327,64.540035 49.14134,123.59837 C 49.141316,183.59415 97.273629,232.28673 156.57449,232.28673 C 186.22478,232.28673 210.29107,207.94031 210.29109,177.94256 C 210.29109,147.94478 186.22483,123.59839 156.5745,123.59839 C 126.92408,123.59838 102.85791,99.251987 102.85792,69.254211 C 102.8579,40.193878 125.4353,16.427573 153.80342,14.971183 z"
         style="fill:#ffffff;fill-opacity:1;stroke:#000000;stroke-width:3;stroke-linecap:round;stroke-linejoin:round;stroke-miterlimit:4;stroke-dasharray:none;stroke-opacity:1" />
      <path
         id="path3384"
         d="M 43.46875,117.59375 C 42.848057,117.66312 42.26134,117.91302 41.78125,118.3125 C 38.949394,120.61244 36.549928,124.13853 36.28125,128.4375 C 36.135891,130.76327 36.868172,132.62588 37.40625,134 C 37.944328,135.37412 38.289687,136.29933 38.3125,137.15625 C 38.33204,137.89026 37.89579,139.72355 37.34375,141.78125 C 36.79171,143.83895 36.137675,146.17358 36.28125,148.75 C 36.424033,151.31223 37.288704,153.61805 38,155.78125 C 38.711296,157.94445 39.240071,159.94263 39.21875,160.8125 C 39.189993,161.98573 38.683888,164.5238 38.09375,166.96875 C 37.503612,169.4137 36.848797,171.81368 36.53125,173.65625 C 36.507753,173.82184 36.497304,173.98902 36.5,174.15625 L 36.28125,210.46875 C 36.125392,211.40129 36.390879,212.35496 37.006189,213.07282 C 37.621499,213.79068 38.523339,214.1989 39.46875,214.1875 L 76.59375,213.65625 C 76.59375,213.65625 79.032013,213.69746 82.09375,213.5 C 85.155487,213.30254 88.658049,213.01754 91.59375,211.75 C 94.180162,210.63327 96.366885,208.97672 98.25,207.53125 C 100.13311,206.08578 101.81636,204.84031 102.5625,204.53125 C 103.29295,204.22869 105.06827,204.00987 107.09375,203.875 C 109.11923,203.74013 111.39635,203.67249 113.6875,202.96875 C 116.09051,202.23065 117.79221,200.8682 119,199.875 C 120.20779,198.8818 120.9526,198.3783 121.09375,198.34375 C 122.52823,197.9926 125.31546,198.30213 128.34375,198.3125 C 129.69585,198.30259 130.89509,197.44202 131.33739,196.16426 C 131.77969,194.88651 131.36912,193.4687 130.3125,192.625 C 127.44925,190.38317 123.50605,188.80444 119.25,189.5 C 116.93443,189.87842 115.2525,191.03256 114.03125,191.875 C 112.81,192.71744 112.00306,193.25961 111.1875,193.46875 C 110.49081,193.6474 108.59621,193.65488 106.46875,193.5625 C 104.34129,193.47012 101.92956,193.31442 99.4375,194.03125 C 97.521407,194.5824 95.875489,195.51941 94.3125,196.46875 C 94.888908,195.81672 95.486251,195.14882 96,194.53125 C 97.523615,192.69974 98.901044,191.12557 99.5625,190.65625 C 100.2123,190.1952 101.87446,189.58316 103.8125,189 C 105.75054,188.41684 107.95842,187.8497 110.03125,186.65625 C 112.21334,185.39989 113.54159,183.6798 114.5,182.4375 C 115.45841,181.1952 116.12591,180.53092 116.25,180.46875 C 117.54834,179.81825 120.30449,179.54371 123.28125,178.875 C 124.61302,178.58184 125.61158,177.4752 125.76682,176.12042 C 125.92205,174.76563 125.19969,173.4618 123.96875,172.875 C 121.91571,171.90878 119.50869,171.31105 117,171.375 C 115.50714,171.41307 113.97996,171.66642 112.46875,172.28125 C 110.29818,173.16433 108.90996,174.65905 107.90625,175.75 C 106.90254,176.84095 106.21987,177.55082 105.46875,177.9375 C 104.82196,178.27047 102.99411,178.67577 100.90625,179.0625 C 98.818385,179.44923 96.451282,179.87509 94.1875,181.125 C 92.410025,182.1064 90.988538,183.42156 89.65625,184.71875 C 90.092574,183.92512 90.52842,183.1182 90.90625,182.375 C 91.984047,180.25495 92.988199,178.42016 93.53125,177.8125 C 94.060191,177.22063 95.549495,176.25013 97.3125,175.25 C 99.075505,174.24987 101.0867,173.18889 102.84375,171.5625 C 104.69635,169.84766 105.62623,167.86731 106.28125,166.4375 C 106.93627,165.00769 107.43164,164.23827 107.53125,164.15625 C 108.65923,163.22743 111.2838,162.31153 114.03125,161 C 115.26219,160.4132 115.98455,159.10937 115.82932,157.75458 C 115.67408,156.3998 114.67552,155.29316 113.34375,155 C 112.02667,154.71173 110.61715,154.58018 109.15625,154.65625 C 106.74936,154.78157 104.20408,155.45693 102,157 C 100.08214,158.34269 99.109098,160.09111 98.375,161.375 C 97.640902,162.65889 97.116334,163.51725 96.46875,164.0625 C 95.909724,164.53319 94.201263,165.34103 92.25,166.1875 C 90.298737,167.03397 88.083142,167.96698 86.15625,169.6875 C 84.645579,171.03637 83.572863,172.63141 82.5625,174.1875 C 82.810303,173.31916 83.047919,172.43105 83.25,171.625 C 83.827436,169.32176 84.386819,167.3074 84.78125,166.59375 C 85.167283,165.8953 86.412311,164.61977 87.90625,163.25 C 89.400189,161.88023 91.119874,160.41086 92.46875,158.4375 C 93.887683,156.36165 94.36313,154.21716 94.6875,152.6875 C 95.01187,151.15784 95.317997,150.30179 95.40625,150.1875 C 96.306973,149.02101 98.656977,147.53639 101.03125,145.65625 C 102.09229,144.80895 102.50133,143.38324 102.05089,142.1023 C 101.60045,140.82135 100.38908,139.96545 99.03125,139.96875 C 95.387756,140.00126 91.325734,141.24634 88.4375,144.4375 C 86.869168,146.17034 86.275545,148.11857 85.84375,149.53125 C 85.411955,150.94393 85.106075,151.85251 84.59375,152.53125 C 84.155885,153.11134 82.689169,154.29939 80.96875,155.5625 C 79.248331,156.82561 77.279097,158.23463 75.78125,160.34375 C 74.598327,162.00943 73.8886,163.80748 73.25,165.5625 C 73.298319,164.64592 73.358989,163.71801 73.375,162.875 C 73.420044,160.50333 73.525871,158.40292 73.75,157.625 C 73.969843,156.86195 74.87663,155.3548 76.03125,153.6875 C 77.18587,152.0202 78.560266,150.16479 79.4375,147.9375 C 80.358902,145.59807 80.336095,143.43943 80.3125,141.875 C 80.288905,140.31057 80.408118,139.41237 80.46875,139.28125 C 81.085033,137.94853 83.069797,135.95828 84.96875,133.59375 C 85.820424,132.52659 85.899237,131.03597 85.164844,129.88495 C 84.430452,128.73393 83.045415,128.1773 81.71875,128.5 C 78.174079,129.3424 74.512776,131.46349 72.40625,135.21875 C 71.262133,137.25836 71.106676,139.27451 71,140.75 C 70.893324,142.22549 70.816723,143.19408 70.46875,143.96875 C 70.17157,144.63034 68.990101,146.10706 67.59375,147.71875 C 66.197399,149.33044 64.585194,151.14057 63.59375,153.53125 C 62.827967,155.37778 62.543546,157.24466 62.3125,159.0625 C 62.160065,158.1923 62.00919,157.32762 61.84375,156.53125 C 61.361618,154.21042 60.985712,152.15434 61.03125,151.34375 C 61.076003,150.5471 61.623297,148.84976 62.375,146.96875 C 63.126703,145.08774 64.047108,142.98845 64.40625,140.625 C 64.78425,138.13744 64.278553,136.02233 63.90625,134.5 C 63.533947,132.97767 63.439401,132.07605 63.46875,131.9375 C 63.77262,130.50299 65.268241,128.13469 66.59375,125.40625 C 67.205648,124.17777 66.963979,122.69569 65.993521,121.72523 C 65.023062,120.75477 63.540978,120.5131 62.3125,121.125 C 59.03626,122.73891 55.935055,125.65744 54.71875,129.78125 C 54.057181,132.02427 54.369255,134.00718 54.59375,135.46875 C 54.818245,136.93032 54.948112,137.91736 54.78125,138.75 C 54.638617,139.46173 53.814545,141.15029 52.8125,143.03125 C 51.810455,144.91221 50.622021,147.04296 50.1875,149.59375 C 49.851609,151.56553 50.010781,153.45502 50.1875,155.28125 C 49.844291,154.46665 49.495767,153.64646 49.15625,152.90625 C 48.165144,150.74546 47.353919,148.8269 47.21875,148.03125 C 47.087085,147.25623 47.239981,145.47462 47.5625,143.46875 C 47.885019,141.46288 48.332773,139.20678 48.15625,136.8125 C 47.97087,134.29809 46.987631,132.36731 46.28125,130.96875 C 45.574869,129.57019 45.283353,128.69683 45.28125,128.5625 C 45.258528,127.11125 46.217829,124.46909 46.90625,121.5 C 47.142719,120.49409 46.877726,119.43594 46.19508,118.6602 C 45.512434,117.88447 44.49656,117.48709 43.46875,117.59375 L 43.46875,117.59375 z"
         style="fill:#ffffff;fill-rule:evenodd;stroke:none;stroke-width:2.38049054;stroke-linecap:round;stroke-linejoin:round;stroke-miterlimit:4;stroke-opacity:1" />
      <path
         id="path3389"
         d="M 212.03125,35.1875 L 174.90625,35.71875 C 174.90625,35.71875 172.46799,35.677545 169.40625,35.875 C 166.34451,36.072455 162.84195,36.357461 159.90625,37.625 C 157.31984,38.741731 155.13312,40.398277 153.25,41.84375 C 151.36688,43.289223 149.68364,44.534693 148.9375,44.84375 C 148.20705,45.146305 146.43174,45.365133 144.40625,45.5 C 142.38076,45.634867 140.10365,45.702508 137.8125,46.40625 C 135.40949,47.14435 133.7078,48.5068 132.5,49.5 C 131.2922,50.4932 130.5474,50.996699 130.40625,51.03125 C 128.97177,51.382402 126.18455,51.07287 123.15625,51.0625 C 121.80415,51.072412 120.60491,51.932983 120.16261,53.210737 C 119.72031,54.48849 120.13088,55.906298 121.1875,56.75 C 124.05074,58.991829 127.99395,60.570558 132.25,59.875 C 134.56557,59.496581 136.2475,58.342444 137.46875,57.5 C 138.69,56.657556 139.49693,56.115395 140.3125,55.90625 C 141.00919,55.727595 142.90379,55.720117 145.03125,55.8125 C 147.15871,55.904883 149.57044,56.060575 152.0625,55.34375 C 153.97859,54.792597 155.62451,53.855593 157.1875,52.90625 C 156.61109,53.558279 156.01375,54.226182 155.5,54.84375 C 153.97638,56.675262 152.59895,58.249429 151.9375,58.71875 C 151.2877,59.1798 149.62554,59.791839 147.6875,60.375 C 145.74946,60.958161 143.54158,61.52529 141.46875,62.71875 C 139.28666,63.975112 137.95841,65.695203 137,66.9375 C 136.04159,68.179797 135.37409,68.844079 135.25,68.90625 C 133.95167,69.556751 131.19551,69.831281 128.21875,70.5 C 126.88698,70.793157 125.88842,71.899795 125.73318,73.254583 C 125.57795,74.609371 126.30031,75.9132 127.53125,76.5 C 129.58429,77.466214 131.99131,78.06395 134.5,78 C 135.99286,77.961935 137.52005,77.70856 139.03125,77.09375 C 141.20183,76.210667 142.59004,74.715953 143.59375,73.625 C 144.59746,72.534047 145.28013,71.824183 146.03125,71.4375 C 146.67804,71.104526 148.50589,70.699228 150.59375,70.3125 C 152.68161,69.925772 155.04872,69.499905 157.3125,68.25 C 159.08998,67.268601 160.51146,65.953438 161.84375,64.65625 C 161.40743,65.449879 160.97158,66.256801 160.59375,67 C 159.51595,69.120047 158.5118,70.954834 157.96875,71.5625 C 157.43981,72.154366 155.95051,73.124874 154.1875,74.125 C 152.42449,75.125126 150.41329,76.186097 148.65625,77.8125 C 146.80365,79.527341 145.87377,81.507694 145.21875,82.9375 C 144.56373,84.367306 144.06836,85.136725 143.96875,85.21875 C 142.84077,86.147562 140.2162,87.063463 137.46875,88.375 C 136.23781,88.9618 135.51545,90.265629 135.67068,91.620417 C 135.82592,92.975205 136.82448,94.081843 138.15625,94.375 C 139.47333,94.663272 140.88286,94.794813 142.34375,94.71875 C 144.75064,94.593426 147.29593,93.918049 149.5,92.375 C 151.41786,91.032306 152.3909,89.283885 153.125,88 C 153.8591,86.716115 154.38367,85.857752 155.03125,85.3125 C 155.59028,84.841805 157.29874,84.033973 159.25,83.1875 C 161.20126,82.341027 163.41686,81.408011 165.34375,79.6875 C 166.85442,78.338629 167.92714,76.743593 168.9375,75.1875 C 168.6897,76.055843 168.45208,76.943952 168.25,77.75 C 167.67256,80.053239 167.11318,82.067593 166.71875,82.78125 C 166.33272,83.479694 165.08769,84.75523 163.59375,86.125 C 162.09981,87.49477 160.38012,88.964136 159.03125,90.9375 C 157.61232,93.013348 157.13687,95.157843 156.8125,96.6875 C 156.48813,98.217157 156.182,99.07321 156.09375,99.1875 C 155.19304,100.35398 152.84302,101.8386 150.46875,103.71875 C 149.40771,104.56605 148.99867,105.99176 149.44911,107.2727 C 149.89955,108.55365 151.11092,109.40955 152.46875,109.40625 C 156.11224,109.37374 160.17426,108.12866 163.0625,104.9375 C 164.63084,103.20465 165.22446,101.25643 165.65625,99.84375 C 166.08804,98.43107 166.39392,97.522488 166.90625,96.84375 C 167.34412,96.263652 168.81083,95.075605 170.53125,93.8125 C 172.25167,92.549395 174.2209,91.140362 175.71875,89.03125 C 176.90167,87.365573 177.6114,85.567525 178.25,83.8125 C 178.20168,84.729081 178.14101,85.656993 178.125,86.5 C 178.07996,88.871674 177.97413,90.972069 177.75,91.75 C 177.53016,92.513043 176.62337,94.020197 175.46875,95.6875 C 174.31413,97.354803 172.93973,99.210205 172.0625,101.4375 C 171.1411,103.77693 171.16391,105.93557 171.1875,107.5 C 171.21109,109.06443 171.09188,109.96263 171.03125,110.09375 C 170.41497,111.42647 168.4302,113.41671 166.53125,115.78125 C 165.67958,116.84841 165.60076,118.33903 166.33516,119.49005 C 167.06955,120.64107 168.45458,121.1977 169.78125,120.875 C 173.32592,120.0326 176.98722,117.91151 179.09375,114.15625 C 180.23787,112.11663 180.39333,110.10049 180.5,108.625 C 180.60667,107.14951 180.68328,106.18092 181.03125,105.40625 C 181.32843,104.74465 182.5099,103.26794 183.90625,101.65625 C 185.3026,100.04456 186.9148,98.234418 187.90625,95.84375 C 188.67203,93.997219 188.95645,92.130345 189.1875,90.3125 C 189.33993,91.182701 189.49081,92.047376 189.65625,92.84375 C 190.13838,95.164575 190.51429,97.220652 190.46875,98.03125 C 190.424,98.827893 189.8767,100.52524 189.125,102.40625 C 188.3733,104.28726 187.45289,106.38654 187.09375,108.75 C 186.71576,111.23755 187.22145,113.35267 187.59375,114.875 C 187.96605,116.39733 188.0606,117.29894 188.03125,117.4375 C 187.72739,118.87199 186.23176,121.24029 184.90625,123.96875 C 184.29435,125.19723 184.53602,126.67931 185.50648,127.64977 C 186.47694,128.62023 187.95902,128.8619 189.1875,128.25 C 192.46375,126.63609 195.56494,123.71755 196.78125,119.59375 C 197.44282,117.35073 197.13075,115.36782 196.90625,113.90625 C 196.68175,112.44468 196.55189,111.45763 196.71875,110.625 C 196.86139,109.91326 197.68546,108.22471 198.6875,106.34375 C 199.68954,104.46279 200.87797,102.33203 201.3125,99.78125 C 201.6484,97.809461 201.48922,95.919983 201.3125,94.09375 C 201.65571,94.908353 202.00423,95.728542 202.34375,96.46875 C 203.33485,98.629537 204.14608,100.54809 204.28125,101.34375 C 204.41291,102.11876 204.26002,103.90038 203.9375,105.90625 C 203.61498,107.91212 203.16722,110.16821 203.34375,112.5625 C 203.52913,115.07691 204.51237,117.00769 205.21875,118.40625 C 205.92513,119.80481 206.21665,120.67816 206.21875,120.8125 C 206.24147,122.26374 205.28216,124.90589 204.59375,127.875 C 204.29162,129.20251 204.86455,130.57557 206.02065,131.29461 C 207.17675,132.01365 208.66163,131.92045 209.71875,131.0625 C 212.55061,128.76256 214.95006,125.23646 215.21875,120.9375 C 215.36411,118.61172 214.63183,116.74912 214.09375,115.375 C 213.55567,114.00088 213.21031,113.07567 213.1875,112.21875 C 213.16796,111.48474 213.60421,109.65145 214.15625,107.59375 C 214.70829,105.53605 215.36232,103.20141 215.21875,100.625 C 215.07597,98.062763 214.2113,95.756948 213.5,93.59375 C 212.7887,91.430552 212.25993,89.432365 212.28125,88.5625 C 212.31001,87.389274 212.81611,84.851201 213.40625,82.40625 C 213.99639,79.961299 214.6512,77.561314 214.96875,75.71875 C 214.99225,75.553159 215.0027,75.385978 215,75.21875 L 215.21875,38.90625 C 215.37461,37.973705 215.10912,37.020042 214.49381,36.30218 C 213.8785,35.584319 212.97666,35.1761 212.03125,35.1875 z"
         style="fill:#ffffff;fill-rule:evenodd;stroke:none;stroke-width:2.38049054;stroke-linecap:round;stroke-linejoin:round;stroke-miterlimit:4;stroke-opacity:1" />
      <path
         id="path3393"
         d="M 39.471346,210.93666 L 39.471346,210.87416 L 39.690096,174.18666 C 40.215862,171.13591 42.322574,164.42518 42.408846,160.90541 C 42.495118,157.38564 39.675206,152.21991 39.471346,148.56166 C 39.267487,144.90341 41.585884,140.19033 41.502596,137.06166 C 41.419307,133.93299 39.278158,131.7152 39.471346,128.62416 C 39.668752,125.46561 41.550646,122.59414 43.783846,120.78041 C 43.178905,123.38947 42.057848,126.16533 42.096346,128.62416 C 42.134838,131.08312 44.703048,133.42259 44.971346,137.06166 C 45.234678,140.63335 43.526678,145.39236 44.065096,148.56166 C 44.601728,151.72046 47.82965,156.42934 48.658846,160.90541 C 49.488039,165.38149 47.565096,174.93666 47.565096,174.93666 C 48.756529,172.07939 52.604022,166.22398 53.471346,162.81166 C 54.338669,159.39933 52.731063,153.73606 53.346346,150.12416 C 53.961626,146.51226 57.293858,142.44292 57.908846,139.37416 C 58.523832,136.3054 56.907691,133.65722 57.783846,130.68666 C 58.679139,127.65123 61.140548,125.27049 63.721346,123.99916 C 62.551008,126.4082 60.855951,128.87467 60.346346,131.28041 C 59.836709,133.68628 61.800783,136.54788 61.252596,140.15541 C 60.714559,143.69615 58.026651,147.94577 57.846346,151.15541 C 57.666633,154.35442 59.752698,159.63831 59.565096,164.18666 C 59.377489,168.73503 55.377595,177.62415 55.377596,177.62416 C 57.174953,175.10364 62.241462,170.28919 63.846346,167.15541 C 65.45123,164.02163 65.130276,158.13358 66.533846,154.74916 C 67.937414,151.36472 72.095169,148.13539 73.377596,145.28041 C 74.66002,142.42543 73.674903,139.48154 75.190096,136.78041 C 76.738382,134.02031 79.672357,132.2581 82.471346,131.59291 C 80.794294,133.68113 78.597244,135.70462 77.565096,137.93666 C 76.532885,140.1688 77.808531,143.38531 76.471346,146.78041 C 75.158918,150.11265 71.580083,153.66012 70.690096,156.74916 C 69.80305,159.82798 70.666339,165.45032 69.471346,169.84291 C 68.276346,174.2355 62.190097,181.65542 62.393221,181.99916 C 64.909503,180.28553 70.740628,176.38476 73.002596,173.68666 C 75.264567,170.98857 76.256116,165.17392 78.377596,162.18666 C 80.499075,159.1994 85.273288,156.96594 87.158846,154.46791 C 89.044404,151.96987 88.736838,148.88917 90.815096,146.59291 C 92.938738,144.24653 96.188266,143.18108 99.065096,143.15541 C 96.965424,144.8181 94.380542,146.30275 92.877596,148.24916 C 91.374572,150.19565 91.905481,153.61172 89.846346,156.62416 C 87.825337,159.58082 83.557639,162.24812 82.002596,165.06166 C 80.452695,167.86591 80.020062,173.54512 77.877596,177.56166 C 75.735124,181.57821 68.143223,187.42104 68.252596,187.81166 C 71.074939,186.71121 77.665716,184.18878 80.471346,182.06166 C 83.276981,179.93455 85.550836,174.50195 88.283846,172.06166 C 91.016857,169.62136 96.139705,168.515 98.533846,166.49916 C 100.928,164.48332 101.30924,161.40039 103.84635,159.62416 C 105.46667,158.48978 107.40321,157.94246 109.3151,157.84291 C 110.46223,157.78318 111.60495,157.89349 112.65885,158.12416 C 110.24184,159.27795 107.40097,160.12348 105.5026,161.68666 C 103.60413,163.24989 103.36794,166.73919 100.6901,169.21791 C 98.061847,171.65073 93.300969,173.28968 91.158846,175.68666 C 89.023805,178.07572 87.328846,183.52881 84.346346,186.96791 C 81.363832,190.40702 72.674471,194.43667 72.690096,194.84291 C 75.682462,194.39916 82.66898,193.38613 85.877596,191.93666 C 89.086211,190.48718 92.513847,185.67637 95.721346,183.90541 C 98.928848,182.13444 104.15742,182.21296 106.9401,180.78041 C 109.72279,179.34785 110.7901,176.41629 113.65885,175.24916 C 114.75812,174.80193 115.93391,174.5913 117.09635,174.56166 C 119.03375,174.51227 120.96943,174.98349 122.59635,175.74916 C 119.9832,176.33619 117.01372,176.52259 114.8151,177.62416 C 112.61638,178.72575 111.60237,182.05345 108.4401,183.87416 C 105.3364,185.66115 100.34314,186.20143 97.721346,188.06166 C 95.108224,189.91574 92.238087,194.87245 88.565096,197.56166 C 84.892092,200.25089 75.533845,202.21791 75.471346,202.62416 C 78.500096,202.8641 85.489393,203.41707 88.940096,202.71791 C 92.390802,202.01875 96.793943,198.10575 100.3151,197.09291 C 103.83626,196.08007 108.93967,197.33909 111.97135,196.56166 C 115.00305,195.78421 116.69607,193.15492 119.7526,192.65541 C 122.87587,192.14498 126.08115,193.35058 128.34635,195.12416 C 125.66809,195.11499 122.73497,194.66444 120.34635,195.24916 C 117.95763,195.83388 116.24073,198.83401 112.7526,199.90541 C 109.32907,200.95697 104.31634,200.36273 101.34635,201.59291 C 98.386164,202.81904 94.525644,207.00717 90.346346,208.81166 C 86.167026,210.61615 76.565095,210.46791 76.565096,210.46791 L 39.440096,210.99916"
         style="fill:#ffffff;fill-rule:evenodd;stroke:#000000;stroke-width:2.38049054;stroke-linecap:round;stroke-linejoin:round;stroke-miterlimit:4;stroke-opacity:1" />
      <path
         id="path3264"
         d="M 212.02836,38.442143 L 212.02836,38.504643 L 211.80961,75.192143 C 211.28385,78.242893 209.17713,84.953623 209.09086,88.473393 C 209.00459,91.993163 211.8245,97.158893 212.02836,100.81714 C 212.23222,104.47539 209.91382,109.18847 209.99711,112.31714 C 210.0804,115.44581 212.22155,117.6636 212.02836,120.75464 C 211.83096,123.91319 209.94906,126.78466 207.71586,128.59839 C 208.3208,125.98933 209.44186,123.21347 209.40336,120.75464 C 209.36487,118.29568 206.79666,115.95621 206.52836,112.31714 C 206.26503,108.74545 207.97303,103.98644 207.43461,100.81714 C 206.89798,97.658343 203.67006,92.949463 202.84086,88.473393 C 202.01167,83.997313 203.93461,74.442143 203.93461,74.442143 C 202.74318,77.299413 198.89569,83.154823 198.02836,86.567143 C 197.16104,89.979473 198.76865,95.642743 198.15336,99.254643 C 197.53808,102.86654 194.20585,106.93588 193.59086,110.00464 C 192.97588,113.0734 194.59202,115.72158 193.71586,118.69214 C 192.82057,121.72757 190.35916,124.10831 187.77836,125.37964 C 188.9487,122.9706 190.64376,120.50413 191.15336,118.09839 C 191.663,115.69252 189.69893,112.83092 190.24711,109.22339 C 190.78515,105.68265 193.47306,101.43303 193.65336,98.223393 C 193.83308,95.024383 191.74701,89.740493 191.93461,85.192143 C 192.12222,80.643773 196.12211,71.754653 196.12211,71.754643 C 194.32476,74.275163 189.25825,79.089613 187.65336,82.223393 C 186.04848,85.357173 186.36943,91.245223 184.96586,94.629643 C 183.56229,98.014083 179.40454,101.24341 178.12211,104.09839 C 176.83969,106.95337 177.82481,109.89726 176.30961,112.59839 C 174.76133,115.35849 171.82735,117.1207 169.02836,117.78589 C 170.70541,115.69767 172.90246,113.67418 173.93461,111.44214 C 174.96682,109.21 173.69118,105.99349 175.02836,102.59839 C 176.34079,99.266153 179.91963,95.718683 180.80961,92.629643 C 181.69666,89.550823 180.83337,83.928483 182.02836,79.535893 C 183.22336,75.143303 189.30961,67.723383 189.10649,67.379643 C 186.59021,69.093273 180.75908,72.994043 178.49711,75.692143 C 176.23514,78.390233 175.24359,84.204883 173.12211,87.192143 C 171.00063,90.179403 166.22642,92.412863 164.34086,94.910893 C 162.4553,97.408933 162.76287,100.48963 160.68461,102.78589 C 158.56097,105.13227 155.31144,106.19772 152.43461,106.22339 C 154.53428,104.5607 157.11917,103.07605 158.62211,101.12964 C 160.12514,99.183153 159.59423,95.767083 161.65336,92.754643 C 163.67437,89.797983 167.94207,87.130683 169.49711,84.317143 C 171.04701,81.512893 171.47965,75.833683 173.62211,71.817143 C 175.76458,67.800593 183.35649,61.957763 183.24711,61.567143 C 180.42477,62.667593 173.83399,65.190023 171.02836,67.317143 C 168.22273,69.444253 165.94887,74.876853 163.21586,77.317143 C 160.48285,79.757443 155.36,80.863803 152.96586,82.879643 C 150.57171,84.895483 150.19047,87.978413 147.65336,89.754643 C 146.03304,90.889023 144.0965,91.436343 142.18461,91.535893 C 141.03748,91.595623 139.89476,91.485313 138.84086,91.254643 C 141.25787,90.100853 144.09874,89.255323 145.99711,87.692143 C 147.89558,86.128913 148.13177,82.639613 150.80961,80.160893 C 153.43786,77.728073 158.19874,76.089123 160.34086,73.692143 C 162.4759,71.303083 164.17086,65.849993 167.15336,62.410893 C 170.13588,58.971783 178.82524,54.942133 178.80961,54.535893 C 175.81725,54.979643 168.83073,55.992673 165.62211,57.442143 C 162.4135,58.891623 158.98586,63.702433 155.77836,65.473393 C 152.57086,67.244363 147.34229,67.165843 144.55961,68.598393 C 141.77692,70.030953 140.70961,72.962513 137.84086,74.129643 C 136.74159,74.576873 135.5658,74.787503 134.40336,74.817143 C 132.46596,74.866533 130.53028,74.395313 128.90336,73.629643 C 131.51651,73.042613 134.48599,72.856213 136.68461,71.754643 C 138.88333,70.653053 139.89734,67.325353 143.05961,65.504643 C 146.16331,63.717653 151.15657,63.177373 153.77836,61.317143 C 156.39148,59.463063 159.26162,54.506353 162.93461,51.817143 C 166.60762,49.127913 175.96586,47.160893 176.02836,46.754643 C 172.99961,46.514703 166.01032,45.961733 162.55961,46.660893 C 159.10891,47.360053 154.70577,51.273053 151.18461,52.285893 C 147.66345,53.298733 142.56004,52.039713 139.52836,52.817143 C 136.49666,53.594593 134.80364,56.223883 131.74711,56.723393 C 128.62384,57.233823 125.41856,56.028223 123.15336,54.254643 C 125.83162,54.263813 128.76474,54.714363 131.15336,54.129643 C 133.54208,53.544923 135.25898,50.544793 138.74711,49.473393 C 142.17064,48.421833 147.18337,49.016073 150.15336,47.785893 C 153.11354,46.559763 156.97406,42.371633 161.15336,40.567143 C 165.33268,38.762653 174.93461,38.910893 174.93461,38.910893 L 212.05961,38.379643"
         style="fill:#ffffff;fill-rule:evenodd;stroke:#000000;stroke-width:2.38049054;stroke-linecap:round;stroke-linejoin:round;stroke-miterlimit:4;stroke-opacity:1" />
    </g>
  </g>
</svg>
