<?xml version="1.0" encoding="UTF-8" standalone="no"?>
<!-- Created with Inkscape (http://www.inkscape.org/) -->
<svg
   xmlns:dc="http://purl.org/dc/elements/1.1/"
   xmlns:cc="http://creativecommons.org/ns#"
   xmlns:rdf="http://www.w3.org/1999/02/22-rdf-syntax-ns#"
   xmlns:svg="http://www.w3.org/2000/svg"
   xmlns="http://www.w3.org/2000/svg"
   xmlns:sodipodi="http://sodipodi.sourceforge.net/DTD/sodipodi-0.dtd"
   xmlns:inkscape="http://www.inkscape.org/namespaces/inkscape"
   width="300"
   height="400"
   id="svg2"
   sodipodi:version="0.32"
   inkscape:version="0.46"
   version="1.0"
   sodipodi:docname="Hilttall-icon.svg"
   inkscape:output_extension="org.inkscape.output.svg.inkscape">
  <defs
     id="defs4">
    <inkscape:perspective
       sodipodi:type="inkscape:persp3d"
       inkscape:vp_x="0 : 526.18109 : 1"
       inkscape:vp_y="0 : 1000 : 0"
       inkscape:vp_z="744.09448 : 526.18109 : 1"
       inkscape:persp3d-origin="372.04724 : 350.78739 : 1"
       id="perspective10" />
    <inkscape:perspective
       id="perspective3217"
       inkscape:persp3d-origin="372.04724 : 350.78739 : 1"
       inkscape:vp_z="744.09448 : 526.18109 : 1"
       inkscape:vp_y="0 : 1000 : 0"
       inkscape:vp_x="0 : 526.18109 : 1"
       sodipodi:type="inkscape:persp3d" />
    <inkscape:perspective
       id="perspective2464"
       inkscape:persp3d-origin="372.04724 : 350.78739 : 1"
       inkscape:vp_z="744.09448 : 526.18109 : 1"
       inkscape:vp_y="0 : 1000 : 0"
       inkscape:vp_x="0 : 526.18109 : 1"
       sodipodi:type="inkscape:persp3d" />
    <clipPath
       clipPathUnits="userSpaceOnUse"
       id="clipPath3242">
      <rect
         style="opacity:1;fill:none;fill-opacity:1;stroke:#000000;stroke-width:3;stroke-linecap:round;stroke-linejoin:round;stroke-miterlimit:4;stroke-dasharray:none;stroke-opacity:1"
         id="rect3244"
         width="195.228"
         height="247.93213"
         x="-86.357605"
         y="-38.980484"
         transform="matrix(0.9998477,1.7452406e-2,-1.7452406e-2,0.9998477,0,0)" />
    </clipPath>
    <inkscape:perspective
       sodipodi:type="inkscape:persp3d"
       inkscape:vp_x="0 : 526.18109 : 1"
       inkscape:vp_y="0 : 1000 : 0"
       inkscape:vp_z="744.09448 : 526.18109 : 1"
       inkscape:persp3d-origin="372.04724 : 350.78739 : 1"
       id="perspective2503" />
    <inkscape:perspective
       id="perspective2501"
       inkscape:persp3d-origin="372.04724 : 350.78739 : 1"
       inkscape:vp_z="744.09448 : 526.18109 : 1"
       inkscape:vp_y="0 : 1000 : 0"
       inkscape:vp_x="0 : 526.18109 : 1"
       sodipodi:type="inkscape:persp3d" />
  </defs>
  <sodipodi:namedview
     id="base"
     pagecolor="#ffffff"
     bordercolor="#666666"
     borderopacity="1.0"
     gridtolerance="10000"
     guidetolerance="10"
     objecttolerance="10"
     inkscape:pageopacity="0.0"
     inkscape:pageshadow="2"
     inkscape:zoom="2.3575"
     inkscape:cx="150"
     inkscape:cy="200"
     inkscape:document-units="px"
     inkscape:current-layer="layer1"
     showgrid="false"
     inkscape:window-width="1904"
     inkscape:window-height="1150"
     inkscape:window-x="0"
     inkscape:window-y="14" />
  <metadata
     id="metadata7">
    <rdf:RDF>
      <cc:Work
         rdf:about="">
        <dc:format>image/svg+xml</dc:format>
        <dc:type
           rdf:resource="http://purl.org/dc/dcmitype/StillImage" />
      </cc:Work>
    </rdf:RDF>
  </metadata>
  <g
     inkscape:label="Layer 1"
     inkscape:groupmode="layer"
     id="layer1"
     transform="translate(22.88995,67.559485)">
    <g
       id="g2434">
      <path
         id="rect3406"
         d="M 29.563175,188.00221 C 24.702446,188.00221 20.726848,191.57028 20.094425,196.25221 L 16.781925,196.25221 C 9.985285,196.25221 4.500675,201.73682 4.500675,208.53346 C 4.500675,209.03437 4.536645,209.51736 4.594425,210.00221 L 249.62568,210.00221 C 249.68345,209.51736 249.71943,209.03437 249.71943,208.53346 C 249.71943,201.73682 244.23482,196.25222 237.43818,196.25221 L 234.12568,196.25221 C 233.49326,191.57027 229.51764,188.00221 224.65693,188.00221 L 29.563175,188.00221 z"
         style="fill:#000000;fill-opacity:1;stroke:#000000;stroke-width:3.38874149;stroke-linecap:butt;stroke-linejoin:miter;stroke-miterlimit:4;stroke-dasharray:none;stroke-opacity:1" />
      <rect
         ry="0"
         y="92.707115"
         x="29.734798"
         height="191.75902"
         width="193.08836"
         id="rect3417"
         style="fill:#ffffff;fill-opacity:1;stroke:none;stroke-width:3;stroke-linecap:butt;stroke-linejoin:miter;stroke-miterlimit:4;stroke-dasharray:none;stroke-opacity:1" />
      <path
         sodipodi:nodetypes="cccccc"
         id="path3253"
         d="M 127.09443,-36.091545 C 115.54691,-36.091545 106.18818,-26.701563 106.18818,-15.154045 L 106.18805,26.220515 L 148.03205,26.220515 C 147.99937,12.785457 148.05351,-1.177212 148.03193,-15.154045 C 148.03193,-26.701562 138.64193,-36.091545 127.09443,-36.091545 z"
         style="fill:#000000;fill-opacity:1;stroke:#000000;stroke-width:3.16117072;stroke-linecap:square;stroke-linejoin:miter;stroke-miterlimit:4;stroke-dasharray:none;stroke-opacity:1" />
      <path
         id="rect3228"
         d="M 39.610048,42.721768 L 39.610048,277.72177 L 107.61556,277.72177 L 107.61556,42.721768 L 39.610048,42.721768 z M 146.6367,42.721768 L 146.6367,277.72177 L 214.61005,277.72177 L 214.61005,42.721768 L 146.6367,42.721768 z"
         style="fill:#000000;fill-opacity:1;stroke:none;stroke-width:5;stroke-linecap:square;stroke-linejoin:miter;stroke-miterlimit:4;stroke-dasharray:none;stroke-opacity:1" />
      <path
         id="path3283"
         d="M 27.11005,30.221765 L 27.11005,290.22177 L 227.11005,290.22177 L 227.11005,30.221765 L 27.11005,30.221765 z M 37.11005,40.221765 L 217.11005,40.221765 L 217.11005,280.22177 L 37.11005,280.22177 L 37.11005,40.221765 z"
         style="fill:#000000;fill-opacity:1;stroke:none;stroke-width:5;stroke-linecap:square;stroke-linejoin:miter;stroke-miterlimit:4;stroke-dasharray:none;stroke-opacity:1" />
      <rect
         style="fill:#ffffff;fill-opacity:1;stroke:#000000;stroke-width:4.19443226;stroke-linecap:square;stroke-linejoin:miter;stroke-miterlimit:4;stroke-dasharray:none;stroke-opacity:1"
         id="rect3245"
         width="51.019066"
         height="22.171644"
         x="-165.27632"
         y="157.81912"
         transform="matrix(-0.9094391,0.4158372,0,1,0,0)" />
      <rect
         transform="matrix(0.9094391,0.4158372,0,1,0,0)"
         y="41.578674"
         x="114.25726"
         height="22.171644"
         width="51.019066"
         id="rect3239"
         style="fill:#ffffff;fill-opacity:1;stroke:#000000;stroke-width:4.19443226;stroke-linecap:square;stroke-linejoin:miter;stroke-miterlimit:4;stroke-dasharray:none;stroke-opacity:1" />
      <rect
         transform="matrix(-0.9094391,0.4158372,0,1,0,0)"
         y="135.81912"
         x="-165.27632"
         height="22.171644"
         width="51.019066"
         id="rect3243"
         style="fill:#ffffff;fill-opacity:1;stroke:#000000;stroke-width:4.19443226;stroke-linecap:square;stroke-linejoin:miter;stroke-miterlimit:4;stroke-dasharray:none;stroke-opacity:1" />
      <rect
         style="fill:#ffffff;fill-opacity:1;stroke:#000000;stroke-width:4.19443226;stroke-linecap:square;stroke-linejoin:miter;stroke-miterlimit:4;stroke-dasharray:none;stroke-opacity:1"
         id="rect3237"
         width="51.019066"
         height="22.171644"
         x="114.25726"
         y="19.578678"
         transform="matrix(0.9094391,0.4158372,0,1,0,0)" />
      <rect
         style="fill:#ffffff;fill-opacity:1;stroke:#000000;stroke-width:4.19443226;stroke-linecap:square;stroke-linejoin:miter;stroke-miterlimit:4;stroke-dasharray:none;stroke-opacity:1"
         id="rect3241"
         width="51.019066"
         height="22.171644"
         x="-165.27632"
         y="113.81913"
         transform="matrix(-0.9094391,0.4158372,0,1,0,0)" />
      <rect
         transform="matrix(0.9094391,0.4158372,0,1,0,0)"
         y="-2.4213219"
         x="114.25726"
         height="22.171644"
         width="51.019066"
         id="rect3235"
         style="fill:#ffffff;fill-opacity:1;stroke:#000000;stroke-width:4.19443226;stroke-linecap:square;stroke-linejoin:miter;stroke-miterlimit:4;stroke-dasharray:none;stroke-opacity:1" />
      <path
         sodipodi:nodetypes="ccscc"
         id="rect3284"
         d="M 140.59443,275.22096 L 140.59443,226.22096 C 136.51317,228.1998 131.93189,229.31471 127.09443,229.31471 C 122.24205,229.31471 117.68516,228.18001 113.59443,226.18971 L 113.59443,275.22096"
         style="fill:none;fill-opacity:1;stroke:#000000;stroke-width:2.9996686;stroke-linecap:butt;stroke-linejoin:miter;stroke-miterlimit:4;stroke-dasharray:none;stroke-opacity:1" />
      <path
         id="path3357"
         d="M 127.09443,145.00221 C 103.0824,145.00221 83.594425,164.49016 83.594425,188.50221 C 83.594425,189.40266 83.634155,190.30275 83.688175,191.18971 L 30.719425,191.18971 C 26.736474,191.18971 23.531925,194.39426 23.531925,198.37721 C 23.531925,198.46046 23.560395,198.54465 23.563175,198.62721 L 16.344425,198.62721 C 11.635526,198.62721 7.844425,202.41832 7.844425,207.12721 L 87.781925,207.12721 L 99.875675,207.12721 C 97.475775,202.72589 96.094425,197.67757 96.094425,192.31471 C 96.094425,191.93716 96.112265,191.56399 96.125675,191.18971 C 96.719885,174.59954 110.36006,161.31471 127.09443,161.31471 C 143.82879,161.31471 157.46896,174.59952 158.06318,191.18971 C 158.07658,191.56399 158.09443,191.93716 158.09443,192.31471 C 158.09443,197.67757 156.71308,202.72589 154.31318,207.12721 L 166.40693,207.12721 L 244.78193,207.12721 C 244.78193,202.41831 240.99081,198.62722 236.28193,198.62721 L 230.65693,198.62721 C 230.65971,198.54465 230.68818,198.46046 230.68818,198.37721 C 230.68818,194.39426 227.48362,191.18971 223.50068,191.18971 L 170.50068,191.18971 C 170.5547,190.30275 170.59443,189.40266 170.59443,188.50221 C 170.59443,164.49017 151.10646,145.0022 127.09443,145.00221 z"
         style="fill:#ffffff;fill-opacity:1;stroke:#000000;stroke-width:2.99987674;stroke-linecap:butt;stroke-linejoin:miter;stroke-miterlimit:4;stroke-dasharray:none;stroke-opacity:1" />
      <path
         sodipodi:nodetypes="ccccccssscccccc"
         id="path3403"
         d="M 127.09443,132.50221 C 99.026265,132.50221 75.762824,155.18012 71.719425,182.12721 L 58.156925,182.12721 C 53.698025,182.12721 50.082955,186.61463 50.000675,191.05317 L 71.094425,191.05317 L 83.188175,191.05317 C 83.211745,188.33376 83.492125,184.71443 83.969425,182.12721 C 87.908015,160.77801 104.60873,144.59596 127.09443,144.59596 C 149.58012,144.59596 166.30653,160.77801 170.25068,182.12721 C 170.72865,184.71443 171.00833,188.33375 171.03193,191.05317 L 183.09443,191.05317 L 205.87568,191.05317 C 205.79307,186.61495 202.17811,182.12721 197.71943,182.12721 L 182.46943,182.12721 C 178.42603,155.18012 155.16259,132.50221 127.09443,132.50221 z"
         style="fill:#ffffff;fill-opacity:1;stroke:#000000;stroke-width:3;stroke-linecap:butt;stroke-linejoin:miter;stroke-miterlimit:4;stroke-dasharray:none;stroke-opacity:1" />
      <rect
         transform="matrix(-0.9094391,0.4158372,0,1,0,0)"
         y="113.81913"
         x="-165.27632"
         height="22.171644"
         width="51.019066"
         id="rect3265"
         style="fill:#ffffff;fill-opacity:1;stroke:#000000;stroke-width:4.19443226;stroke-linecap:square;stroke-linejoin:miter;stroke-miterlimit:4;stroke-dasharray:none;stroke-opacity:1" />
      <rect
         style="fill:#ffffff;fill-opacity:1;stroke:#000000;stroke-width:4.19443226;stroke-linecap:square;stroke-linejoin:miter;stroke-miterlimit:4;stroke-dasharray:none;stroke-opacity:1"
         id="rect3267"
         width="51.019066"
         height="22.171644"
         x="114.25726"
         y="-2.4213219"
         transform="matrix(0.9094391,0.4158372,0,1,0,0)" />
      <rect
         style="fill:#ffffff;fill-opacity:1;stroke:#000000;stroke-width:4.19443226;stroke-linecap:square;stroke-linejoin:miter;stroke-miterlimit:4;stroke-dasharray:none;stroke-opacity:1"
         id="rect3273"
         width="51.019066"
         height="22.171644"
         x="-165.27632"
         y="91.81913"
         transform="matrix(-0.9094391,0.4158372,0,1,0,0)" />
      <rect
         transform="matrix(0.9094391,0.4158372,0,1,0,0)"
         y="-24.421326"
         x="114.25726"
         height="22.171644"
         width="51.019066"
         id="rect3275"
         style="fill:#ffffff;fill-opacity:1;stroke:#000000;stroke-width:4.19443226;stroke-linecap:square;stroke-linejoin:miter;stroke-miterlimit:4;stroke-dasharray:none;stroke-opacity:1" />
      <rect
         transform="matrix(-0.9094391,0.4158372,0,1,0,0)"
         y="69.81913"
         x="-165.27632"
         height="22.171644"
         width="51.019066"
         id="rect3277"
         style="fill:#ffffff;fill-opacity:1;stroke:#000000;stroke-width:4.19443226;stroke-linecap:square;stroke-linejoin:miter;stroke-miterlimit:4;stroke-dasharray:none;stroke-opacity:1" />
      <rect
         style="fill:#ffffff;fill-opacity:1;stroke:#000000;stroke-width:4.19443226;stroke-linecap:square;stroke-linejoin:miter;stroke-miterlimit:4;stroke-dasharray:none;stroke-opacity:1"
         id="rect3279"
         width="51.019066"
         height="22.171644"
         x="114.25726"
         y="-46.421333"
         transform="matrix(0.9094391,0.4158372,0,1,0,0)" />
      <path
         sodipodi:nodetypes="cccc"
         id="path2535"
         d="M 117.10938,191.12316 L 127.10938,301.12315 L 137.10938,191.12316 L 117.10938,191.12316 z"
         style="fill:#ffffff;fill-rule:evenodd;stroke:#000000;stroke-width:3;stroke-linecap:butt;stroke-linejoin:round;stroke-miterlimit:4;stroke-dasharray:none;stroke-opacity:1" />
      <path
         sodipodi:nodetypes="cczczzzcccc"
         id="path2537"
         d="M 123.05751,108.34703 C 123.3454,102.67525 129.24713,95.362453 132.18642,90.206634 C 134.19742,86.28906 134.75321,81.029482 134.27964,77.325204 C 133.82632,73.779297 130.41521,68.791256 130.41521,68.791256 C 130.41521,68.791256 134.24693,72.367136 136.17639,75.715025 C 138.10587,79.062914 139.2199,84.22957 138.10861,90.850705 C 136.97104,97.628498 132.74609,102.77219 130.09318,114.84237 C 127.50772,126.60555 133.95761,140.28319 133.95761,140.28319 L 128.16097,150.74935 L 120.91515,111.78303 L 123.05751,108.34703 z"
         style="fill:#ffffff;fill-opacity:1;fill-rule:evenodd;stroke:#000000;stroke-width:3;stroke-linecap:butt;stroke-linejoin:round;stroke-miterlimit:4;stroke-dasharray:none;stroke-opacity:1" />
      <path
         id="path3198"
         d="M 117.11005,191.1355 L 119.1413,213.60425 C 119.71812,214.07909 120.32167,214.52612 120.92255,214.91675 C 124.72204,217.38687 130.24138,217.53739 133.6413,214.41675 C 134.13404,213.96448 134.63545,213.47366 135.1413,212.948 L 137.11005,191.1355 L 117.11005,191.1355 z"
         style="fill:#ffffff;fill-rule:evenodd;stroke:#000000;stroke-width:3;stroke-linecap:butt;stroke-linejoin:miter;stroke-miterlimit:4;stroke-dasharray:none;stroke-opacity:1" />
      <path
         sodipodi:nodetypes="cssssssssssssssssc"
         id="path3191"
         d="M 123.22002,76.459837 C 123.22002,76.459837 123.66145,78.815812 123.96943,80.853445 C 124.2774,82.891077 124.11344,85.94272 123.15693,88.603445 C 122.20041,91.264168 121.60348,94.493387 120.04396,98.572195 C 118.50401,102.59973 117.52355,112.75305 118.41896,119.04094 C 119.31436,125.32883 120.43912,131.07006 120.43818,139.00969 C 120.43723,146.94931 114.72365,156.82035 112.37568,166.6972 C 110.03603,176.53901 109.61957,188.80072 111.56318,195.4472 C 113.50678,202.09369 116.99496,206.37273 120.90693,208.91595 C 124.70642,211.38606 130.22576,211.53658 133.62568,208.41595 C 137.10468,205.22271 141.15281,200.57658 142.34443,189.16595 C 143.51942,177.91457 142.5418,171.25303 141.68818,165.22845 C 140.85692,159.36165 139.4287,154.65524 137.03193,147.1972 C 134.63515,139.73915 127.46134,122.75457 125.90693,115.82219 C 124.35251,108.88981 124.61324,105.39727 125.09443,101.47844 C 125.57561,97.559622 126.50493,93.189198 126.71943,90.853445 C 126.94855,88.358066 126.76981,84.715606 126.37568,82.947195 C 125.94729,81.025083 123.22002,76.459837 123.22002,76.459837 z"
         style="fill:#ffffff;fill-opacity:1;fill-rule:evenodd;stroke:#000000;stroke-width:3;stroke-linecap:butt;stroke-linejoin:round;stroke-miterlimit:4;stroke-dasharray:none;stroke-opacity:1" />
    </g>
  </g>
</svg>
