<?xml version="1.0" encoding="UTF-8" standalone="no"?>
<!-- Created with Inkscape (http://www.inkscape.org/) -->
<svg
   xmlns:dc="http://purl.org/dc/elements/1.1/"
   xmlns:cc="http://creativecommons.org/ns#"
   xmlns:rdf="http://www.w3.org/1999/02/22-rdf-syntax-ns#"
   xmlns:svg="http://www.w3.org/2000/svg"
   xmlns="http://www.w3.org/2000/svg"
   xmlns:sodipodi="http://sodipodi.sourceforge.net/DTD/sodipodi-0.dtd"
   xmlns:inkscape="http://www.inkscape.org/namespaces/inkscape"
   width="250"
   height="250"
   id="svg2"
   sodipodi:version="0.32"
   inkscape:version="0.46"
   version="1.0"
   sodipodi:docname="Stallion-icon.svg"
   inkscape:output_extension="org.inkscape.output.svg.inkscape">
  <defs
     id="defs4">
    <inkscape:perspective
       sodipodi:type="inkscape:persp3d"
       inkscape:vp_x="0 : 526.18109 : 1"
       inkscape:vp_y="0 : 1000 : 0"
       inkscape:vp_z="744.09448 : 526.18109 : 1"
       inkscape:persp3d-origin="372.04724 : 350.78739 : 1"
       id="perspective10" />
    <inkscape:perspective
       id="perspective3217"
       inkscape:persp3d-origin="372.04724 : 350.78739 : 1"
       inkscape:vp_z="744.09448 : 526.18109 : 1"
       inkscape:vp_y="0 : 1000 : 0"
       inkscape:vp_x="0 : 526.18109 : 1"
       sodipodi:type="inkscape:persp3d" />
    <clipPath
       clipPathUnits="userSpaceOnUse"
       id="clipPath3225">
      <rect
         style="opacity:0.95;fill:none;fill-opacity:1;stroke:#000000;stroke-width:2.64100003;stroke-linecap:round;stroke-linejoin:miter;stroke-miterlimit:4;stroke-dasharray:none;stroke-opacity:1"
         id="rect3227"
         width="181.69499"
         height="166.84875"
         x="41.973293"
         y="38.26173"
         ry="0"
         transform="matrix(0.9999452,-1.0471785e-2,1.0471785e-2,0.9999452,0,0)" />
    </clipPath>
  </defs>
  <sodipodi:namedview
     id="base"
     pagecolor="#ffffff"
     bordercolor="#666666"
     borderopacity="1.0"
     gridtolerance="10000"
     guidetolerance="10"
     objecttolerance="10"
     inkscape:pageopacity="0.0"
     inkscape:pageshadow="2"
     inkscape:zoom="3.772"
     inkscape:cx="125"
     inkscape:cy="125"
     inkscape:document-units="px"
     inkscape:current-layer="layer1"
     showgrid="false"
     inkscape:window-width="1904"
     inkscape:window-height="1150"
     inkscape:window-x="0"
     inkscape:window-y="14" />
  <metadata
     id="metadata7">
    <rdf:RDF>
      <cc:Work
         rdf:about="">
        <dc:format>image/svg+xml</dc:format>
        <dc:type
           rdf:resource="http://purl.org/dc/dcmitype/StillImage" />
      </cc:Work>
    </rdf:RDF>
  </metadata>
  <g
     inkscape:label="Layer 1"
     inkscape:groupmode="layer"
     id="layer1">
    <g
       id="g3280">
      <rect
         y="35"
         x="35"
         height="180"
         width="180"
         id="rect3168"
         style="opacity:0.95;fill:#ffffff;fill-opacity:1;stroke:none;stroke-width:3;stroke-linecap:round;stroke-linejoin:round;stroke-miterlimit:4;stroke-dasharray:none;stroke-opacity:1" />
      <path
         id="rect3229"
         d="M 25,25 L 25,225 L 225,225 L 225,25 L 25,25 z M 42.5,42.5 L 207.5,42.5 L 207.5,207.5 L 42.5,207.5 L 42.5,42.5 z"
         style="opacity:0.95;fill:#000000;fill-opacity:1;stroke:none;stroke-width:2.64100003;stroke-linecap:round;stroke-linejoin:miter;stroke-miterlimit:4;stroke-dasharray:none;stroke-opacity:1" />
      <rect
         y="45"
         x="45"
         height="160"
         width="160"
         id="rect3234"
         style="opacity:0.95;fill:#000000;fill-opacity:1;stroke:none;stroke-width:2.64100003;stroke-linecap:round;stroke-linejoin:miter;stroke-miterlimit:4;stroke-dasharray:none;stroke-opacity:1" />
      <path
         d="M 172.69882,165.56709 A 5.1161151,5.338634 0 1 1 162.46659,165.56709 A 5.1161151,5.338634 0 1 1 172.69882,165.56709 z"
         sodipodi:ry="5.338634"
         sodipodi:rx="5.1161151"
         sodipodi:cy="165.56709"
         sodipodi:cx="167.5827"
         id="path3166"
         style="opacity:0.95;fill:#ffffff;fill-opacity:1;stroke:#000000;stroke-width:3;stroke-linecap:round;stroke-linejoin:round;stroke-miterlimit:4;stroke-dasharray:none;stroke-opacity:1"
         sodipodi:type="arc" />
      <path
         sodipodi:nodetypes="czzzzzzzzcczzzzzzz"
         id="path3164"
         d="M 177.09438,140.50901 C 182.08917,138.84702 187.6718,142.72398 190.36754,146.97852 C 193.05606,151.22166 191.06366,161.33651 190.82675,162.81419 C 190.57878,164.36081 190.55252,167.62286 192.43566,168.66423 C 194.3682,169.73293 202.56867,168.30741 204.98416,169.19446 C 207.59637,170.15374 206.27757,176.22788 207.84697,180.43498 C 209.39324,184.58011 212.90783,187.04005 213.02576,188.88304 C 213.13918,190.65565 211.83165,191.07705 211.46994,191.87027 C 211.06912,192.74926 211.48315,195.07993 212.47762,195.52841 C 213.47209,195.97689 215.33172,196.01718 216.79008,194.9806 C 220.01531,195.71088 222.37702,202.86897 217.65642,205.46129 C 213.72882,205.10429 211.21296,203.15672 209.11976,200.6007 C 207.02656,198.04468 205.18907,192.08723 204.22433,186.95527 C 203.25709,181.81004 202.98181,178.18623 200.19325,177.39433 C 197.38536,176.59694 185.22862,177.67424 181.63645,176.93479 C 178.02968,176.19233 174.54475,174.42959 172.46405,171.7739 C 170.41748,169.16177 169.32893,163.32443 169.58333,158.73103 C 169.83774,154.13762 172.09959,142.171 177.09438,140.50901 z"
         style="fill:#ffffff;fill-rule:evenodd;stroke:#000000;stroke-width:3;stroke-linecap:round;stroke-linejoin:round;stroke-miterlimit:4;stroke-dasharray:none;stroke-opacity:1" />
      <path
         sodipodi:nodetypes="czzzzcccczzzzzzz"
         id="path3170"
         d="M 87.751856,135.20679 C 85.917925,138.83372 83.276442,140.58244 79.721946,142.75021 C 76.16745,144.91797 74.481816,145.11328 72.110286,148.01237 C 69.605154,151.07478 70.445146,160.21654 69.607198,161.79495 C 68.799836,163.31574 67.778867,163.50783 66.964823,166.27067 C 66.156514,169.01405 65.280609,178.63654 69.353152,179.95746 C 73.79626,181.0782 77.474158,177.7798 76.231698,171.98752 C 74.475573,171.19735 73.352962,172.34405 72.83836,172.34427 C 72.698738,171.59456 72.543722,169.67395 72.524066,168.55771 C 73.032563,167.90818 73.521177,167.95516 74.681153,165.84983 C 75.841129,163.7445 75.738106,161.00169 76.202076,158.58534 C 76.679942,156.09661 77.619689,151.26648 80.958328,149.24718 C 84.35171,147.19478 93.546664,147.35966 96.575526,145.80074 C 99.455292,144.31856 103.41803,139.81869 103.12831,137.06257 C 102.83859,134.30645 99.115683,132.42216 96.50053,132.02545 C 93.885377,131.62874 89.616049,131.52001 87.751856,135.20679 z"
         style="fill:#ffffff;fill-rule:evenodd;stroke:#000000;stroke-width:3;stroke-linecap:round;stroke-linejoin:round;stroke-miterlimit:4;stroke-dasharray:none;stroke-opacity:1" />
      <path
         id="path3158"
         d="M 107.3125,50.40625 C 99.492772,52.990976 94.973995,55.815069 87.71875,55.6875 C 81.061073,55.570437 75.325116,53.670665 71.0625,59.65625 C 71.379589,57.194818 75.832177,54.446883 77.375,52.21875 C 66.399956,54.061469 62.080145,57.527668 57.71875,61.84375 C 53.461377,66.056889 51.044535,69.838545 50.78125,75.28125 C 50.51818,80.719498 51.273961,83.366974 52.96875,87.75 C 52.424572,86.73915 50.038483,83.313705 45.28125,84.90625 C 40.189071,86.61092 31.18596,92.974979 33.40625,105.28125 C 36.746024,100.38818 39.424984,97.510947 40.71875,98.8125 C 41.960933,100.06216 35.419666,107.45885 41.28125,117.03125 C 43.886151,108.48837 45.403461,104.76747 46.25,105.78125 C 47.045436,106.73382 44.84938,111.86108 45.84375,115.6875 C 46.813366,119.41868 48.872123,120.63734 51.5625,120.8125 C 54.244367,120.9871 57.440959,119.32574 56.90625,114.78125 C 56.172741,114.10308 54.761924,115.66764 53.875,114.34375 C 53.000074,113.03778 53.688856,106.14762 54.34375,103.96875 C 56.435956,105.60255 60.693258,109.83661 62.875,112.75 C 65.007606,115.59778 65.772264,121.49919 67.90625,123.40625 C 70.040236,125.31331 72.338772,124.55893 73.5,124.34375 C 74.638817,124.13272 75.963503,122.60954 76.96875,121.46875 C 75.106514,119.92746 75.100057,115.65537 75.6875,114.84375 C 76.847695,115.03594 75.62635,118.38909 78.40625,120.71875 C 79.305499,121.28745 81.943929,120.0935 82.3125,117.3125 C 81.757028,116.395 80.776312,115.20558 80.71875,113.8125 C 80.656992,112.31782 80.851222,103.26548 81.25,100.71875 C 81.664323,98.072722 80.618429,95.21434 79.75,94.1875 C 81.893666,94.117644 84.32955,94.897708 85.6875,97.5625 C 87.031028,100.19899 85.979682,105.64471 87.75,108.65625 L 87.84375,108.75 C 87.044294,109.30901 86.359702,109.87439 85.875,110.4375 C 82.870401,113.92813 84.101306,117.66139 83.96875,120.3125 C 83.836195,122.96361 84.020302,125.26908 84.34375,126.5625 C 78.77599,126.24921 59.050943,125.21527 56.125,126.53125 C 53.299947,127.80185 48.032733,134.08329 45.4375,136.46875 C 42.842268,138.85421 39.242265,140.07334 38.03125,143.0625 C 36.820235,146.05166 32.069397,147.62508 34.4375,151.21875 C 37.519689,151.92038 42.766017,150.53893 44.3125,149.125 C 45.109192,146.88987 44.375377,143.58111 45.03125,143.21875 C 45.673505,142.86391 47.118951,142.63772 48.75,142.0625 C 50.412766,141.4761 51.056515,139.15352 52.875,137.09375 C 54.693485,135.03396 56.363833,133.60187 57.625,133.03125 C 58.886166,132.46065 64.158351,131.39829 65.71875,131.8125 C 67.270655,132.22445 80.447894,138.63564 84.46875,140.09375 C 88.48961,141.55187 90.028305,140.92037 90.96875,140.34375 C 91.883107,139.78311 92.515913,138.6024 93.625,137.90625 C 94.749866,137.2002 96.417841,137.18722 97.59375,138.03125 C 98.745973,138.85826 100.32703,141.08445 103.28125,143.59375 C 106.25055,146.11586 113.77541,150.39441 118.96875,151.28125 C 124.09271,152.15625 129.6719,152.27135 135.0625,151.96875 L 135.5,151.96875 C 134.8144,152.6938 134.23283,153.92625 134.15625,156.6875 C 133.98182,162.97695 143.21131,171.57507 146.34375,177.09375 C 149.41369,182.50233 139.49781,186.95829 137.0625,188.21875 C 134.66687,189.45867 127.75045,189.51826 125.40625,191.9375 C 122.93012,194.4929 120.00128,200.39826 121.6875,208.65625 C 124.43418,207.37024 131.04699,204.40531 131.21875,202.28125 C 131.4118,199.89392 128.93881,195.7186 130.6875,195.375 C 132.69208,194.98114 132.89054,197.51479 135.21875,197.25 C 137.56196,196.98351 138.57864,193.74296 143.6875,190.625 C 148.6822,187.5767 158.97631,183.92169 159.875,180.53125 C 160.83918,176.89375 152.50088,169.26251 153.21875,166.21875 C 153.93662,163.17499 152.86491,163.68718 155.875,163.03125 C 158.88509,162.37531 163.62751,167.03797 170.46875,165.96875 C 176.27708,165.06097 181.80415,160.35654 184,156.9375 C 186.19585,153.51846 185.37226,150.35411 185.0625,146.59375 C 184.75173,142.82093 181.52249,140.96015 180.65625,138.59375 C 179.75708,136.13739 180.68994,130.88818 180.40625,127.65625 C 180.12363,124.43664 182.81809,120.93319 187.03125,123.59375 C 191.12047,126.17603 189.07081,132.58161 192.78125,139.84375 C 196.45051,147.02531 202.22078,154.44148 211.90625,154.625 C 208.20711,151.58895 201.39576,145.64397 201.09375,139.75 C 204.70262,145.02669 209.89232,146.15186 214.0625,153.5625 C 218.25143,161.00645 225.4164,165.72571 232.84375,168.25 C 230.29375,165.21747 228.36327,162.19343 226.25,159.625 C 231.37177,161.38748 240.25347,167.64642 243.65625,174.1875 C 243.83691,167.22619 243.1268,163.05843 237.53125,154.28125 C 231.97774,145.56999 219.2378,139.87959 216.9375,130.46875 C 218.06313,131.37616 220.99496,133.83812 222.0625,135.03125 C 222.91131,133.14228 218.08695,121.18604 213.53125,114.4375 C 209.0602,107.81436 200.51209,98.776102 194.6875,94.03125 C 188.99049,89.390335 182.61805,92.026153 177.65625,98 C 172.74429,103.91384 172.36208,109.67982 172.84375,115.0625 C 173.32469,120.4371 174.69891,122.67487 174.96875,124.34375 C 175.20647,125.81396 175.25655,130.01584 173.5,131.03125 C 171.82029,132.00224 166.33881,125.6003 161.5,123.9375 C 156.6612,122.2747 146.62683,122.09472 143.5625,120.875 C 141.85128,120.19387 137.51985,117.27242 133.71875,114.5 C 139.0756,118.09664 145.05033,116.17266 147.84375,114.25 C 151.22177,111.92497 153.19967,109.30186 153.71875,104.28125 C 152.50772,103.94212 151.89506,103.70265 150.90625,103.125 C 155.82018,101.22432 156.70813,97.842012 155.875,93.84375 C 153.5153,94.221649 150.76349,94.820421 148.28125,93 C 155.36551,90.874269 160.75943,85.47294 160.375,78.8125 C 156.32681,82.066605 152.647,85.764842 147.34375,84.96875 C 150.28397,83.053177 154.94907,79.620028 153.84375,75.125 C 150.29591,77.491379 145.90556,82.12124 138.15625,80 C 146.03842,77.037801 153.63195,71.990131 149.25,63.96875 C 148.02296,65.51387 146.44267,67.35488 145.5,67.375 C 147.0786,64.238397 146.89072,60.094015 144.59375,58.4375 C 142.8555,62.043048 140.67917,66.017047 134.875,66.625 C 129.1715,67.222413 126.31036,69.249328 125,67.96875 C 127.86227,67.095255 133.6051,62.375191 131.0625,55.46875 C 129.94471,55.78807 128.78894,57.417663 128.125,57.96875 C 128.37698,57.298582 128.36597,55.099304 127.5625,53.5 C 122.58642,58.312285 120.57227,57.421659 116.375,56.75 C 112.22223,56.085463 109.14622,55.968599 100.25,61 C 103.6681,58.602099 107.19406,54.84374 107.3125,50.40625 z M 92.25,59.375 C 87.337582,63.047963 86.816836,64.135052 86.28125,65.125 C 87.272231,65.199009 91.433297,64.963702 93.0625,64.5625 C 88.89074,66.094949 83.348575,64.061218 82.71875,70 C 84.485831,70.296624 85.849607,70.573003 87.09375,70.78125 C 85.585024,70.607274 83.924892,70.533781 82.03125,70.53125 C 79.67702,70.528104 77.495559,70.73945 75.5,71.15625 C 74.852436,71.361346 74.201253,71.540826 73.53125,71.65625 C 74.171723,71.471467 74.820312,71.298212 75.5,71.15625 C 82.523117,68.931889 88.204582,61.870376 92.25,59.375 z M 76.84375,62.875 C 73.256629,64.589171 69.330122,65.652054 68.78125,71.59375 C 70.36715,71.908517 71.925551,71.9284 73.40625,71.6875 C 67.924087,73.298699 63.866727,76.427354 60.84375,80.125 L 59.46875,78.75 C 64.117933,77.491108 64.466529,72.629658 66.28125,70.375 C 67.956285,68.293888 68.785652,66.043601 76.84375,62.875 z M 100.28125,69 C 102.81907,68.991831 106.11624,70.819314 108.9375,72 C 107.8134,71.537908 106.48704,71.044659 104.8125,70.90625 C 101.55432,70.636942 99.940108,72.318534 99.40625,74.46875 C 101.62046,77.089695 108.97785,82.705495 114.9375,84.03125 C 109.95635,83.209661 106.68639,80.585409 111,85.125 C 114.55916,91.89662 119.59395,92.424467 124.15625,92.46875 C 128.71642,92.513012 132.70685,91.532371 137.4375,87.59375 C 132.02238,94.127337 126.68571,97.794565 116.5,96.71875 C 122.29239,101.13859 126.47769,101.37016 131.0625,99.75 C 130.45698,100.77589 128.55531,102.23312 126.65625,102.78125 C 130.7617,106.99315 139.40156,102.98723 142.71875,98.34375 C 140.23498,104.48802 133.72323,107.28994 127.84375,108.21875 C 129.59712,112.40424 137.93915,111.37531 142.09375,108.8125 C 140.14206,111.74534 135.50716,112.47896 131.46875,112.625 C 131.81711,112.98622 132.14209,113.32101 132.5,113.625 C 130.0762,111.82213 128.04944,110.20812 127.3125,109.4375 C 125.29592,107.32873 122.08983,101.52722 120.96875,100.46875 C 119.79564,99.361157 117.72535,98.955513 117.0625,98.1875 C 116.30583,97.310788 113.87218,90.994266 111.375,87.4375 C 108.87782,83.880735 104.19269,78.225338 100.1875,75.75 C 97.183616,73.893496 94.154201,71.889667 88.5625,71 C 89.827775,71.154974 90.970886,71.18384 92.1875,71 C 94.936212,70.584647 96.803083,69.011193 100.28125,69 z M 117.3125,71.90625 C 116.81819,72.323955 116.08324,72.597293 115.25,72.78125 C 116.06471,72.51876 116.63269,72.127789 117.3125,71.90625 z M 109.1875,72.09375 C 109.6659,72.28955 110.12187,72.483399 110.5625,72.625 C 111.00313,72.766601 111.42251,72.874973 111.8125,72.9375 C 112.14872,72.991406 112.45958,73.011019 112.75,73.03125 C 112.46125,73.025939 112.17351,73.026937 111.90625,73 C 111.47095,72.956127 111.02796,72.795928 110.5625,72.625 C 110.13535,72.468141 109.66981,72.295557 109.1875,72.09375 z M 114.84375,72.875 C 114.42088,72.979145 113.9212,73.029406 113.34375,73.03125 C 113.83822,73.013695 114.36009,72.958686 114.84375,72.875 z M 123.9375,82.46875 C 123.39947,82.848254 122.77841,83.182254 122.0625,83.46875 C 122.77901,83.180148 123.39943,82.846249 123.9375,82.46875 z M 120.4375,83.96875 C 119.84683,84.102227 119.21018,84.197095 118.5,84.25 C 119.19727,84.205887 119.85552,84.094065 120.4375,83.96875 z M 115.1875,84.0625 C 115.88525,84.167417 116.63117,84.276161 117.375,84.28125 C 117.76267,84.283902 118.11388,84.271699 118.46875,84.25 C 118.12263,84.275117 117.75232,84.30958 117.375,84.3125 C 116.67583,84.317912 115.94927,84.217361 115.1875,84.0625 z"
         style="fill:#ffffff;fill-rule:evenodd;stroke:none;stroke-width:3;stroke-linecap:round;stroke-linejoin:round;stroke-miterlimit:4;stroke-dasharray:none;stroke-opacity:1" />
      <path
         sodipodi:nodetypes="czczzcccczzzczczzzczczczzcczcczcccczccccccccccczcccccccczczczczzczzzcccccczcczzzzzzzzzzzzzzcczccczcczzzzzzzzzzzzzzczzzzzzz"
         id="path3256"
         d="M 87.742016,108.64309 C 85.971702,105.63155 87.024254,100.18791 85.680726,97.551416 C 84.322775,94.886622 81.896918,94.122547 79.753252,94.192403 C 80.621679,95.219246 81.659002,98.069862 81.244679,100.71589 C 80.845904,103.26262 80.902347,112.13378 80.964105,113.62846 C 81.021666,115.02154 81.771019,116.38737 82.326491,117.30487 C 81.957921,120.08587 79.291803,121.27477 78.392554,120.70607 C 76.517632,117.59626 77.485555,114.64861 76.32536,114.45642 C 74.208821,114.64391 76.447383,119.41105 76.984062,121.48256 C 75.978815,122.62335 74.636228,124.12619 73.497411,124.33722 C 72.336186,124.5524 70.042693,125.30444 67.908707,123.39738 C 65.774721,121.49032 65.004198,115.59797 62.871592,112.75019 C 60.689851,109.8368 56.421196,105.59512 54.32899,103.96132 C 53.674097,106.14019 53.001716,113.03995 53.876642,114.34592 C 54.763564,115.66981 56.182496,114.10127 56.916005,114.77944 C 57.450713,119.32393 54.236606,120.98497 51.554739,120.81037 C 48.864364,120.63521 46.815043,119.40519 45.845427,115.67401 C 44.851058,111.84759 47.050478,106.72947 46.255042,105.7769 C 45.408504,104.76312 42.044924,110.34255 42.356247,117.55987 C 34.638885,107.98747 41.97262,100.05579 40.730437,98.806127 C 39.436672,97.504576 36.743804,100.39128 33.40403,105.28435 C 31.18374,92.978077 40.182823,86.601869 45.275002,84.897199 C 50.032235,83.304657 52.437889,86.741006 52.982067,87.751856 C 51.287278,83.368828 50.520231,80.713564 50.783301,75.275316 C 51.046587,69.832609 53.453966,66.048182 57.711339,61.835043 C 62.072733,57.518963 66.405982,54.072184 77.381026,52.229465 C 75.838204,54.457598 71.385766,57.209988 71.068677,59.67142 C 75.331296,53.685836 81.072812,55.55885 87.730489,55.675913 C 94.985737,55.803484 99.502582,52.979778 107.32231,50.395052 C 107.20387,54.832544 103.67039,58.599075 100.25229,60.996976 C 109.14851,55.965574 112.22858,56.071821 116.38135,56.736358 C 120.57862,57.408018 122.58268,58.327105 127.55876,53.51482 C 128.36223,55.114124 128.38117,57.289976 128.12919,57.960144 C 128.79314,57.409057 129.94899,55.794221 131.06678,55.474901 C 133.60937,62.38134 127.85285,67.099312 124.99058,67.972807 C 126.30094,69.253387 129.15777,67.225827 134.86127,66.628414 C 140.66544,66.020457 142.8492,62.036876 144.58745,58.431328 C 146.88442,60.087843 147.08199,64.223046 145.50339,67.359649 C 146.44606,67.33953 148.01181,65.503583 149.23885,63.958463 C 153.6208,71.979843 146.02402,77.042389 138.14185,80.004588 C 145.89116,82.125825 150.29715,77.478356 153.84499,75.111977 C 154.95031,79.607005 150.28056,83.045725 147.34034,84.961298 C 152.6436,85.757388 156.32028,82.08017 160.36847,78.826065 C 160.7529,85.486505 155.36191,90.869313 148.27765,92.995044 C 150.75989,94.815462 153.50441,94.21101 155.86411,93.833111 C 156.69724,97.831377 155.82132,101.2088 150.90739,103.10948 C 151.8962,103.68713 152.51082,103.93509 153.72185,104.27422 C 153.20277,109.29483 151.20838,111.9166 147.83036,114.24163 C 144.63787,116.43896 137.29602,118.66205 131.46261,112.61329 C 135.50103,112.46725 140.12916,111.73026 142.08085,108.79742 C 137.92626,111.36023 129.5823,112.41502 127.82893,108.22953 C 133.70841,107.30072 140.22907,104.50058 142.71284,98.35631 C 139.39565,102.99979 130.74827,106.9947 126.64282,102.7828 C 128.54188,102.23467 130.44242,100.76679 131.04794,99.740905 C 126.46313,101.36107 122.28563,101.12897 116.49324,96.709134 C 126.67895,97.784952 132.03569,94.122102 137.45081,87.588515 C 132.72016,91.527137 128.71269,92.527919 124.15252,92.483657 C 119.59022,92.439375 114.56041,91.893729 111.00125,85.122109 C 106.0173,79.877058 111.16219,84.225289 117.36646,84.267736 C 123.56919,84.310172 125.44243,81.090787 127.17558,79.246926 C 125.4485,81.066832 123.59178,84.25735 117.38276,84.305408 C 111.17379,84.353466 101.94981,77.472818 99.419283,74.477452 C 99.953139,72.327239 101.5651,70.641089 104.82328,70.910397 C 108.17236,71.187218 110.08752,72.805789 111.90089,72.988555 C 113.72161,73.172063 116.18566,72.865912 117.32372,71.904214 C 115.9641,72.347291 114.95219,73.426969 111.81795,72.924456 C 108.69803,72.424241 103.75182,68.995629 100.27366,69.006825 C 96.795492,69.018021 94.924526,70.57292 92.175814,70.988273 C 89.440327,71.401627 87.173481,70.737844 82.71474,69.989396 C 83.344562,64.050613 88.906219,66.09648 93.077979,64.564031 C 91.448777,64.965236 87.259001,65.208465 86.26802,65.134456 C 86.803607,64.144505 87.346331,63.057905 92.258749,59.384942 C 86.99404,62.632426 78.945454,73.618189 68.795692,71.603679 C 69.344564,65.66198 73.254967,64.583232 76.842088,62.869061 C 68.783989,66.037662 67.971145,68.286692 66.29611,70.367804 C 64.481391,72.622463 64.909864,77.765656 60.260681,79.024548 L 60.833636,80.127726 C 65.264288,74.708239 71.921714,70.50865 82.021178,70.522148 C 92.120603,70.535646 96.185541,73.266102 100.19072,75.74144 C 104.19591,78.216778 108.86842,83.889777 111.3656,87.446542 C 113.86278,91.003307 116.29941,97.297422 117.05608,98.174134 C 117.71893,98.942146 119.8006,99.372137 120.97371,100.47973 C 122.09479,101.5382 125.2959,107.32065 127.31248,109.42942 C 129.27765,111.48442 140.52028,119.66664 143.54838,120.87194 C 146.61272,122.09166 156.67558,122.26733 161.51438,123.93013 C 166.35318,125.59293 171.80741,132.00009 173.48712,131.0291 C 175.24367,130.01369 175.19237,125.80743 174.95465,124.33722 C 174.68481,122.66834 173.33354,120.43292 172.8526,115.05832 C 172.37093,109.67564 172.75538,103.9221 177.66734,98.008263 C 182.62914,92.034416 190.03085,90.49422 194.69968,94.042558 C 199.19871,97.461852 209.04536,107.82456 213.51641,114.4477 C 218.0721,121.19624 222.92666,133.14689 222.07785,135.03586 C 221.01031,133.84273 218.06908,131.36525 216.94345,130.45784 C 219.24375,139.86868 231.98626,145.58355 237.53977,154.29481 C 243.13531,163.072 243.83289,167.21909 243.65223,174.1804 C 240.24946,167.63932 231.36352,161.38087 226.24175,159.61839 C 228.35501,162.18682 230.29563,165.22771 232.84563,168.26024 C 225.41828,165.73595 218.23781,161.01314 214.04888,153.56919 C 209.87869,146.15854 204.69681,145.02411 201.08794,139.74742 C 201.38995,145.64139 208.2027,151.5829 211.90184,154.61895 C 202.21637,154.43544 196.45019,147.015 192.78093,139.83344 C 189.07049,132.5713 191.11782,126.17927 187.0286,123.59699 C 182.81543,120.93643 180.11623,124.43839 180.39885,127.658 C 180.68254,130.88993 179.74342,136.13531 180.64259,138.59167 C 181.50883,140.95807 183.91597,143.027 185.04772,146.60657 C 186.1528,150.10182 186.18312,153.52688 183.98727,156.94592 C 181.79142,160.36496 176.27493,165.05191 170.4666,165.95969 C 163.62536,167.02891 158.89556,162.38754 155.88547,163.04348 C 152.87538,163.69942 153.95223,163.18105 153.23436,166.22481 C 152.51649,169.26857 160.82633,176.90332 159.86215,180.54082 C 158.96346,183.93126 148.68505,187.56676 143.69035,190.61506 C 138.58149,193.73303 137.54999,196.97636 135.20678,197.24285 C 132.87858,197.50763 132.70447,194.9932 130.69989,195.38706 C 128.9512,195.73065 131.42317,199.89263 131.23012,202.27996 C 131.05836,204.40401 124.43278,207.35662 121.6861,208.64263 C 119.99988,200.38463 122.92154,194.49601 125.39767,191.94061 C 127.74187,189.52137 134.66693,189.46898 137.06256,188.22906 C 139.49787,186.9686 149.41141,182.50295 146.34147,177.09437 C 143.20904,171.5757 133.97192,162.97025 134.14635,156.6808 C 134.31342,150.65626 136.95936,151.94127 137.59279,149.7879 C 138.20102,147.72018 134.50844,143.73068 131.76034,144.48569 C 128.9556,145.25626 125.66278,142.6299 125.66278,142.6299"
         style="fill:none;fill-rule:evenodd;stroke:#000000;stroke-width:3;stroke-linecap:round;stroke-linejoin:round;stroke-miterlimit:4;stroke-dasharray:none;stroke-opacity:1" />
      <path
         sodipodi:nodetypes="czzzczzzcczzszzzzzzzzz"
         id="path3156"
         d="M 103.92365,95.970308 C 104.09055,96.506808 104.49272,98.436195 101.81794,100.93601 C 99.125285,103.45253 88.88015,106.94301 85.875554,110.43364 C 82.870958,113.92427 84.101444,117.65771 83.968888,120.30882 C 83.836332,122.95993 84.006982,125.26113 84.33043,126.55455 C 78.762669,126.24126 59.05814,125.21804 56.132197,126.53402 C 53.307145,127.80462 48.036339,134.07 45.441106,136.45546 C 42.845873,138.84092 39.233548,140.05936 38.022533,143.04852 C 36.811518,146.03768 32.070507,147.6314 34.43861,151.22507 C 37.520799,151.9267 42.758318,150.5288 44.304801,149.11487 C 45.101494,146.87974 44.382693,143.56803 45.038566,143.20567 C 45.680822,142.85083 47.134257,142.63385 48.765306,142.05863 C 50.428071,141.47222 51.068981,139.13801 52.887466,137.07824 C 54.705951,135.01846 56.375108,133.61631 57.636275,133.04569 C 58.897442,132.47508 64.166692,131.38718 65.727091,131.80139 C 67.278994,132.21334 80.437209,138.64297 84.458065,140.10108 C 88.478921,141.55919 90.018612,140.91246 90.959057,140.33584 C 91.873418,139.77521 92.526104,138.61028 93.635191,137.91413 C 94.760059,137.20807 96.415429,137.18256 97.591338,138.02659 C 98.743562,138.85361 100.33743,141.09446 103.29165,143.60376 C 106.26095,146.12587 113.76491,150.40964 118.95825,151.29648 C 124.08221,152.17148 129.66803,152.26228 135.05863,151.95968"
         style="fill:none;fill-rule:evenodd;stroke:#000000;stroke-width:3;stroke-linecap:round;stroke-linejoin:round;stroke-miterlimit:4;stroke-dasharray:none;stroke-opacity:1" />
      <path
         sodipodi:nodetypes="cc"
         id="path3186"
         d="M 40.286523,146.41821 C 41.489316,146.98423 43.541141,146.91348 44.701484,146.58803"
         style="fill:none;fill-rule:evenodd;stroke:#000000;stroke-width:3;stroke-linecap:round;stroke-linejoin:miter;stroke-miterlimit:4;stroke-dasharray:none;stroke-opacity:1" />
      <path
         style="fill:none;fill-rule:evenodd;stroke:#000000;stroke-width:3;stroke-linecap:round;stroke-linejoin:miter;stroke-miterlimit:4;stroke-dasharray:none;stroke-opacity:1"
         d="M 70.256568,174.93593 C 71.475333,174.40517 72.775458,172.81625 73.29615,171.72943"
         id="path3188"
         sodipodi:nodetypes="cc" />
      <path
         sodipodi:nodetypes="cc"
         id="path3190"
         d="M 125.32277,201.36441 C 126.62779,201.11138 128.77254,199.57809 129.51712,198.6305"
         style="fill:none;fill-rule:evenodd;stroke:#000000;stroke-width:3;stroke-linecap:round;stroke-linejoin:miter;stroke-miterlimit:4;stroke-dasharray:none;stroke-opacity:1" />
      <path
         style="fill:none;fill-rule:evenodd;stroke:#000000;stroke-width:3;stroke-linecap:round;stroke-linejoin:miter;stroke-miterlimit:4;stroke-dasharray:none;stroke-opacity:1"
         d="M 214.85623,200.74967 C 215.17058,199.45805 214.69139,197.46171 214.14072,196.38975"
         id="path3192"
         sodipodi:nodetypes="cc" />
      <path
         sodipodi:nodetypes="cczczcczzzsc"
         id="path3213"
         d="M 209.97606,122.75218 C 204.54489,120.49747 203.97119,102.59331 190.12786,103.81794 C 200.18944,111.94409 198.16948,116.57549 201.25817,121.09093 C 204.31797,125.56414 209.89818,128.23162 214.02329,139.3527 C 209.86566,128.21213 206.04099,127.25139 202.00725,122.9068 C 197.94243,118.52873 197.60823,106.26018 184.54168,107.53513 C 191.46175,111.82835 194.70934,116.16937 196.6384,124.85395 C 191.74814,112.9319 187.39658,114.79025 185.2954,113.07997 C 183.12642,111.3145 184.84632,106.04994 186.61162,103.86984 C 188.25098,101.84527 191.18899,99.869016 194.81214,101.90256 C 198.43529,103.9361 202.14004,108.39341 203.96519,112.74096 C 205.4376,116.24826 206.85743,120.37039 209.97606,122.75218 z"
         style="fill:#000000;fill-opacity:1;fill-rule:evenodd;stroke:#000000;stroke-width:3;stroke-linecap:round;stroke-linejoin:round;stroke-miterlimit:4;stroke-dasharray:none;stroke-opacity:1" />
      <path
         sodipodi:nodetypes="ccc"
         id="path3219"
         d="M 161.84078,157.18151 C 170.14272,160.50337 182.0102,156.15524 176.98867,150.63695 C 176.76632,154.38245 171.57118,159.97917 161.84078,157.18151 z"
         style="fill:none;fill-rule:evenodd;stroke:#000000;stroke-width:3;stroke-linecap:butt;stroke-linejoin:round;stroke-miterlimit:4;stroke-dasharray:none;stroke-opacity:1" />
      <path
         sodipodi:nodetypes="cccccc"
         id="path4670"
         d="M 132.78902,137.40162 C 145.17428,135.60038 144.95087,128.43731 151.97431,128.60487 C 148.09135,129.07531 146.66552,131.6208 145.74404,133.05216 C 147.78266,135.46777 149.60058,139.92894 144.22479,148.12527 C 148.76279,139.7893 146.64884,135.62147 144.27511,134.19724 C 141.3289,136.4453 137.11758,137.7088 132.78902,137.40162 z"
         style="fill:none;fill-rule:evenodd;stroke:#000000;stroke-width:3;stroke-linecap:butt;stroke-linejoin:round;stroke-miterlimit:4;stroke-dasharray:none;stroke-opacity:1" />
      <path
         sodipodi:nodetypes="czzczzzczzzczzc"
         id="path2401"
         d="M 120.92788,138.03811 C 118.84335,138.30182 117.27368,138.61576 115.54075,138.11346 C 113.84255,137.62122 112.54461,135.63372 108.98579,134.98666 C 105.46343,134.34623 104.93818,134.69643 101.15839,134.90991 C 102.85683,134.54069 104.58004,133.98722 105.42716,132.0859 C 106.30393,130.11804 105.56389,126.59203 108.08165,124.17473 C 110.61831,121.73928 117.75086,119.41546 119.49634,118.1095 C 121.29048,116.76712 121.53064,115.84916 121.26693,113.66417 C 121.54563,115.82161 121.22917,116.8325 119.49634,118.14717 C 117.74793,119.47366 112.71843,120.92901 110.67598,123.12722 C 108.59662,125.36515 109.71878,128.06909 109.54581,129.64451 C 109.37384,131.21067 106.91887,133.76015 105.59528,134.1202 C 107.03938,134.17043 108.19467,134.13903 110.11595,134.76063 C 112.0147,135.37493 113.77017,137.61743 115.54076,138.11346 C 117.32148,138.61231 118.84335,138.31437 120.92788,138.03811 z"
         style="fill:#000000;fill-rule:evenodd;stroke:#000000;stroke-width:3;stroke-linecap:butt;stroke-linejoin:round;stroke-miterlimit:4;stroke-dasharray:none;stroke-opacity:1" />
      <path
         sodipodi:nodetypes="cccc"
         id="path3173"
         d="M 89.391723,126.92929 C 93.524798,125.82621 94.264842,120.40853 96.094007,115.49352 C 93.203647,123.27097 93.58065,126.7757 94.460325,131.91412 C 94.055396,129.51247 93.943691,127.86482 89.391723,126.92929 z"
         style="fill:none;fill-rule:evenodd;stroke:#000000;stroke-width:3;stroke-linecap:round;stroke-linejoin:round;stroke-miterlimit:4;stroke-dasharray:none;stroke-opacity:1" />
      <g
         id="g3201">
        <path
           style="fill:none;fill-rule:evenodd;stroke:#000000;stroke-width:3;stroke-linecap:round;stroke-linejoin:round;stroke-miterlimit:4;stroke-dasharray:none;stroke-opacity:1"
           d="M 52.610686,86.698157 C 50.451561,82.835722 50.949581,79.04165 53.618278,78.853336 C 56.365116,78.659508 57.552683,84.802926 58.152441,91.520204 C 59.279984,90.056797 61.605023,89.003962 62.25478,90.728525 C 62.895155,92.428191 59.567868,97.013983 62.398721,99.796856 C 65.265788,102.61533 67.220767,104.03114 69.523834,105.41058 C 71.913286,106.84176 73.914055,108.09749 73.194347,111.45613 C 74.034007,110.42455 75.30421,110.18463 76.361065,111.16825 C 76.158462,111.91276 76.27485,113.96555 76.145152,114.91073"
           id="path3185"
           sodipodi:nodetypes="czczzzccz" />
        <path
           style="fill:none;fill-rule:evenodd;stroke:#000000;stroke-width:3;stroke-linecap:round;stroke-linejoin:miter;stroke-miterlimit:4;stroke-dasharray:none;stroke-opacity:1"
           d="M 53.906161,92.88765 C 54.841782,93.943222 55.48952,95.718503 55.345578,97.13393 C 55.201636,98.549356 54.601879,101.54814 54.266015,103.46737 C 53.927792,105.40008 53.282414,109.39297 54.122074,111.16824"
           id="path3187"
           sodipodi:nodetypes="czzz" />
        <path
           style="fill:none;fill-rule:evenodd;stroke:#000000;stroke-width:3;stroke-linecap:round;stroke-linejoin:round;stroke-miterlimit:4;stroke-dasharray:none;stroke-opacity:1"
           d="M 65.164422,117.76933 C 66.731195,120.97556 70.030826,120.33196 71.357966,119.78449 C 71.591247,118.61521 71.465079,116.86416 70.929515,115.98157 C 72.057058,117.94877 72.294711,120.80035 72.114784,121.74796 C 71.908417,122.83483 71.227144,125.13059 67.076826,124.12299"
           id="path3189"
           sodipodi:nodetypes="ccczc" />
        <path
           style="fill:none;fill-rule:evenodd;stroke:#000000;stroke-width:3;stroke-linecap:round;stroke-linejoin:miter;stroke-miterlimit:4;stroke-dasharray:none;stroke-opacity:1"
           d="M 64.773759,96.989988 C 65.75736,102.09992 70.295419,105.28443 73.266318,105.55451 C 76.301088,105.8304 80.223228,104.83437 80.895227,101.95597 C 81.614935,98.873223 80.178455,93.815116 77.512597,91.448233 C 74.945638,89.169157 72.15077,88.233536 66.645001,88.281516"
           id="path3191"
           sodipodi:nodetypes="czzzz" />
        <path
           sodipodi:nodetypes="czc"
           id="path3193"
           d="M 62.398721,99.796856 C 65.265788,102.61533 66.827608,103.85897 68.171571,105.77044 C 69.481461,107.63344 69.698142,109.321 69.626172,111.45613"
           style="fill:none;fill-rule:evenodd;stroke:#000000;stroke-width:3;stroke-linecap:round;stroke-linejoin:round;stroke-miterlimit:4;stroke-dasharray:none;stroke-opacity:1" />
        <path
           style="fill:none;fill-rule:evenodd;stroke:#000000;stroke-width:3;stroke-linecap:round;stroke-linejoin:miter;stroke-miterlimit:4;stroke-dasharray:none;stroke-opacity:1"
           d="M 62.830546,85.18677 C 66.932884,85.354702 67.076825,88.761321 65.925292,91.304291"
           id="path3197"
           sodipodi:nodetypes="cc" />
        <path
           sodipodi:nodetypes="czc"
           id="path3199"
           d="M 62.398721,99.796856 C 61.307392,101.96759 61.319158,104.17508 63.1904,105.91437 C 65.026158,107.62069 65.78135,108.74523 66.213175,111.09627"
           style="fill:none;fill-rule:evenodd;stroke:#000000;stroke-width:3;stroke-linecap:round;stroke-linejoin:round;stroke-miterlimit:4;stroke-dasharray:none;stroke-opacity:1" />
      </g>
      <path
         transform="matrix(1.9288053,0,0,1.4413919,-56.551288,-44.641476)"
         d="M 62.266304,101.42266 A 1.5459675,2.7630057 0 1 1 59.174369,101.42266 A 1.5459675,2.7630057 0 1 1 62.266304,101.42266 z"
         sodipodi:ry="2.7630057"
         sodipodi:rx="1.5459675"
         sodipodi:cy="101.42266"
         sodipodi:cx="60.720337"
         id="path3214"
         style="opacity:0.95;fill:#000000;fill-opacity:1;stroke:none;stroke-width:3;stroke-linecap:round;stroke-linejoin:round;stroke-miterlimit:4;stroke-dasharray:none;stroke-opacity:1"
         sodipodi:type="arc" />
      <path
         sodipodi:type="arc"
         style="opacity:0.95;fill:#ffffff;fill-opacity:1;stroke:none;stroke-width:3;stroke-linecap:round;stroke-linejoin:round;stroke-miterlimit:4;stroke-dasharray:none;stroke-opacity:1"
         id="path3216"
         sodipodi:cx="60.720337"
         sodipodi:cy="101.42266"
         sodipodi:rx="1.5459675"
         sodipodi:ry="2.7630057"
         d="M 62.266304,101.42266 A 1.5459675,2.7630057 0 1 1 59.174369,101.42266 A 1.5459675,2.7630057 0 1 1 62.266304,101.42266 z"
         transform="matrix(0.6702128,0,0,0.4702381,19.503145,52.950973)" />
      <path
         sodipodi:nodetypes="ccsccc"
         id="path3218"
         d="M 89.849413,81.917157 C 81.831784,78.045163 74.429847,80.576325 70.065302,88.197175 C 70.716619,87.297202 71.701159,88.64881 72.338028,87.837433 C 77.432302,81.347281 89.675282,85.224813 91.655431,94.969743 C 90.793468,90.473444 86.114238,82.436415 74.005706,84.585139 C 76.714734,79.851182 83.487303,78.852399 89.849413,81.917157 z"
         style="fill:none;fill-rule:evenodd;stroke:#000000;stroke-width:3;stroke-linecap:round;stroke-linejoin:round;stroke-miterlimit:4;stroke-dasharray:none;stroke-opacity:1" />
    </g>
  </g>
</svg>
