<?xml version="1.0" encoding="UTF-8" standalone="no"?>
<!-- Created with Inkscape (http://www.inkscape.org/) -->
<svg
   xmlns:dc="http://purl.org/dc/elements/1.1/"
   xmlns:cc="http://creativecommons.org/ns#"
   xmlns:rdf="http://www.w3.org/1999/02/22-rdf-syntax-ns#"
   xmlns:svg="http://www.w3.org/2000/svg"
   xmlns="http://www.w3.org/2000/svg"
   xmlns:sodipodi="http://sodipodi.sourceforge.net/DTD/sodipodi-0.dtd"
   xmlns:inkscape="http://www.inkscape.org/namespaces/inkscape"
   width="500"
   height="250"
   id="svg2"
   sodipodi:version="0.32"
   inkscape:version="0.46"
   version="1.0"
   sodipodi:docname="Leaf-icon.svg"
   inkscape:output_extension="org.inkscape.output.svg.inkscape">
  <defs
     id="defs4">
    <inkscape:perspective
       sodipodi:type="inkscape:persp3d"
       inkscape:vp_x="0 : 526.18109 : 1"
       inkscape:vp_y="0 : 1000 : 0"
       inkscape:vp_z="744.09448 : 526.18109 : 1"
       inkscape:persp3d-origin="372.04724 : 350.78739 : 1"
       id="perspective10" />
    <inkscape:perspective
       id="perspective3810"
       inkscape:persp3d-origin="372.04724 : 350.78739 : 1"
       inkscape:vp_z="744.09448 : 526.18109 : 1"
       inkscape:vp_y="0 : 1000 : 0"
       inkscape:vp_x="0 : 526.18109 : 1"
       sodipodi:type="inkscape:persp3d" />
    <inkscape:perspective
       id="perspective2479"
       inkscape:persp3d-origin="372.04724 : 350.78739 : 1"
       inkscape:vp_z="744.09448 : 526.18109 : 1"
       inkscape:vp_y="0 : 1000 : 0"
       inkscape:vp_x="0 : 526.18109 : 1"
       sodipodi:type="inkscape:persp3d" />
  </defs>
  <sodipodi:namedview
     id="base"
     pagecolor="#ffffff"
     bordercolor="#666666"
     borderopacity="1.0"
     gridtolerance="10000"
     guidetolerance="10"
     objecttolerance="10"
     inkscape:pageopacity="0.0"
     inkscape:pageshadow="2"
     inkscape:zoom="2.976"
     inkscape:cx="250"
     inkscape:cy="125"
     inkscape:document-units="px"
     inkscape:current-layer="layer1"
     showgrid="false"
     inkscape:window-width="1916"
     inkscape:window-height="1150"
     inkscape:window-x="0"
     inkscape:window-y="14" />
  <metadata
     id="metadata7">
    <rdf:RDF>
      <cc:Work
         rdf:about="">
        <dc:format>image/svg+xml</dc:format>
        <dc:type
           rdf:resource="http://purl.org/dc/dcmitype/StillImage" />
      </cc:Work>
    </rdf:RDF>
  </metadata>
  <g
     inkscape:label="Layer 1"
     inkscape:groupmode="layer"
     id="layer1">
    <g
       id="g3924"
       transform="translate(90.0625,-32.03125)">
      <rect
         transform="scale(-1,-1)"
         y="-252.04416"
         x="-256.26611"
         height="190"
         width="190"
         id="rect4282"
         style="fill:#ffffff;fill-opacity:1;stroke:none;stroke-width:2;stroke-linecap:round;stroke-linejoin:round;stroke-miterlimit:4;stroke-dasharray:none;stroke-opacity:1" />
      <path
         id="path3879"
         d="M -41.9375,117.75 C -45.239908,117.75808 -48.098142,118.48921 -50.65625,119.3125 C -53.349949,120.17944 -55.599816,121.29204 -57.375,122.53125 C -59.150184,123.77046 -60.494529,125.05806 -61.28125,126.875 C -61.794669,128.07794 -61.519613,129.47253 -60.587897,130.39044 C -59.656181,131.30835 -58.257642,131.56257 -57.0625,131.03125 C -55.73411,130.4261 -53.489055,129.69802 -49.4375,128.625 C -45.80474,127.66289 -39.242709,126.73762 -33.375,130.9375 C -30.042754,133.3226 -25.207111,137.60254 -20.4375,141.53125 C -15.667889,145.45996 -11.280302,149.078 -6.96875,150.4375 C -0.42814908,152.49984 4.9821831,152.77043 10.28125,150.96875 C 15.914064,149.0536 19.368063,144.86241 20.46875,143.5625 C 21.254067,142.63504 21.888806,141.59254 22.5,140.625 C 22.639445,140.40425 22.644314,140.39901 22.78125,140.1875 C 24.159029,140.41753 25.383268,140.75336 26.53125,142.28125 C 28.238067,144.55291 27.689358,146.56902 27,148.34375 C 26.969484,148.42231 26.954741,148.46349 26.125,148.96875 C 25.295259,149.47401 23.349984,150.59865 22.84375,152.96875 C 22.586019,154.1754 22.334708,155.77627 22.875,157.625 C 23.415292,159.47373 25.151312,161.38742 27.4375,162.125 C 29.822528,162.89448 32.470668,162.87077 35.59375,162.71875 C 38.716832,162.56673 42.086303,162.15096 44.96875,161.5625 C 50.774881,160.37717 56.30967,157.97218 61.1875,154.875 C 61.574243,154.62944 61.901509,154.32057 62.28125,154.0625 C 62.920178,157.37022 63.708622,160.71581 64.71875,163.625 C 66.741817,169.45146 70.318231,176.41007 73.46875,180.71875 C 76.552003,184.93543 80.88966,188.84096 83.1875,190.875 C 84.759496,192.26652 87.187222,193.81434 89.9375,195.28125 C 92.687778,196.74816 95.219722,198.15821 98.25,198.21875 C 100.52778,198.26426 102.6387,197.39604 103.90625,196.03125 C 105.1738,194.66646 105.58061,193.09468 105.71875,191.875 C 106.0271,189.15249 104.90035,186.03805 101.90625,184.375 C 98.896846,182.70345 97.629722,183.57994 93.125,180.875 C 88.815184,178.2871 82.749054,172.02721 80.25,166.59375 C 77.545082,160.71271 75.969579,153.70478 75.25,149.78125 C 74.913217,147.94492 74.676337,145.83589 74.5,143.71875 C 75.310518,142.96989 76.127209,142.25731 77.03125,141.25 C 77.243267,141.02221 77.498893,140.78131 77.84375,140.375 C 77.854395,140.35428 77.864812,140.33345 77.875,140.3125 C 77.977245,140.18748 78.063346,140.0871 78.15625,139.96875 C 79.614889,138.17816 81.04103,136.13589 80.8125,133.25 C 80.771092,132.7271 80.693952,132.25567 80.59375,131.8125 C 80.852556,133.0563 80.89702,133.08933 80.625,131.8125 C 80.614812,131.79155 80.604395,131.77072 80.59375,131.75 C 80.462946,131.18365 80.400695,131.09352 80.5,131.46875 C 80.261291,130.49662 79.877922,129.60978 79.3125,128.8125 C 77.851831,126.58759 75.083383,125.19028 71.9375,125.25 C 69.260576,125.30082 67.011955,126.45639 65.4375,127.84375 C 63.863045,129.23111 62.857578,130.83722 62.25,132.28125 C 61.827719,133.28487 61.687351,134.42596 61.5,135.59375 C 60.150539,137.16277 58.669503,138.82553 56.90625,140.59375 C 54.341742,143.16548 50.185936,145.90856 45.875,147.53125 C 43.821136,148.30435 41.746897,148.90375 39.625,149.375 C 39.790031,148.65257 40.055511,147.96338 40.125,147.21875 C 40.418734,144.07117 39.652224,140.56438 38.21875,137.3125 C 37.27641,135.17478 35.653686,133.55908 33.71875,132.03125 C 31.783814,130.50342 29.562886,129.19386 27.125,128.53125 C 23.258369,127.48032 19.521992,126.82482 16.0625,127.5625 C 14.479203,127.90011 13.136279,128.43549 12.03125,129.34375 C 10.926221,130.25201 10.161511,131.67326 10.0625,133 C 9.9795846,134.11106 10.337246,135.17586 10.875,136.125 C 10.619124,136.44911 10.626249,136.51822 10.3125,136.84375 C 9.2939778,137.90052 7.9770863,138.90688 6.9375,139.375 C 6.1506616,139.72931 3.9882504,140.16556 1.4375,139.90625 C -1.1132504,139.64694 -4.0790422,138.7965 -6.90625,137.09375 C -9.7255553,135.39576 -13.662015,132.05032 -17.78125,128.71875 C -21.900485,125.38718 -26.23578,122.03376 -30.78125,120.1875 C -34.990866,118.47766 -38.633952,117.74192 -41.9375,117.75 z"
         style="fill:#000000;fill-rule:evenodd;stroke:none;stroke-width:2;stroke-linecap:round;stroke-linejoin:round;stroke-miterlimit:4;stroke-opacity:1" />
      <path
         id="path3874"
         d="M 361.8125,117.75 C 358.50895,117.74192 354.86586,118.47766 350.65625,120.1875 C 346.10941,122.03432 341.76771,125.38706 337.65625,128.71875 C 333.54479,132.05044 329.62988,135.39693 326.8125,137.09375 C 323.98721,138.79535 321.02835,139.64672 318.46875,139.90625 C 315.90915,140.16578 313.72076,139.7277 312.9375,139.375 C 311.89791,138.90688 310.58102,137.90051 309.5625,136.84375 C 309.24875,136.51822 309.25588,136.44911 309,136.125 C 309.53776,135.17586 309.89542,134.11107 309.8125,133 C 309.71588,131.70542 308.97703,130.26279 307.875,129.34375 C 306.77297,128.42471 305.42966,127.90067 303.84375,127.5625 C 300.37902,126.8237 296.6211,127.4791 292.75,128.53125 C 290.31211,129.19386 288.09119,130.50342 286.15625,132.03125 C 284.22131,133.55908 282.59859,135.17477 281.65625,137.3125 C 280.22277,140.56438 279.45624,144.07114 279.75,147.21875 C 279.81949,147.96338 280.08497,148.65257 280.25,149.375 C 278.12541,148.90321 276.04748,148.30194 274,147.53125 C 269.69336,145.91018 265.57242,143.17342 263,140.59375 C 261.22564,138.81438 259.71897,137.15123 258.375,135.59375 C 258.18765,134.42596 258.04729,133.28489 257.625,132.28125 C 257.01742,130.83721 256.01196,129.23111 254.4375,127.84375 C 252.86304,126.45639 250.61442,125.30082 247.9375,125.25 C 244.79162,125.19028 241.96067,126.68132 240.5,128.90625 C 240.46851,128.95129 240.47085,128.91704 240.4375,128.96875 C 240.0928,129.47072 239.90276,129.88436 239.71875,130.34375 C 239.59885,130.64309 239.46127,131.05266 239.34375,131.53125 C 239.20679,132.04876 239.11531,132.58308 239.0625,133.25 C 239.01446,133.85686 239.05835,134.25013 239.09375,134.53125 C 239.36409,137.03936 240.68245,138.7523 242.0625,140.375 C 242.42921,140.8062 242.50801,140.85968 242.25,140.5625 C 242.44037,140.79053 242.60464,140.98344 242.84375,141.25 C 243.29643,141.75464 243.72309,142.15931 244.0625,142.5 C 244.52022,142.95945 244.93438,143.3333 245.375,143.75 C 245.20476,145.86751 244.98688,147.97849 244.65625,149.78125 C 243.93666,153.7048 242.36117,160.71271 239.65625,166.59375 C 237.16085,172.01928 231.06482,178.2841 226.75,180.875 C 222.24529,183.57994 220.97816,182.70344 217.96875,184.375 C 214.97465,186.03805 213.8479,189.15249 214.15625,191.875 C 214.2944,193.09466 214.7012,194.66646 215.96875,196.03125 C 217.2363,197.39604 219.34722,198.26426 221.625,198.21875 C 224.65528,198.15821 227.18722,196.74816 229.9375,195.28125 C 232.68778,193.81434 235.11551,192.26652 236.6875,190.875 C 238.98535,188.84095 243.323,184.93543 246.40625,180.71875 C 249.55676,176.41008 253.13319,169.45147 255.15625,163.625 C 256.16608,160.71668 256.9564,157.36744 257.59375,154.0625 C 257.97404,154.32281 258.29653,154.62676 258.6875,154.875 C 263.57085,157.97568 269.13373,160.37765 274.9375,161.5625 C 277.81876,162.15072 281.16556,162.56669 284.28125,162.71875 C 287.39694,162.87081 290.05566,162.89345 292.4375,162.125 C 294.72054,161.38844 296.44648,159.47018 297,157.625 C 297.55352,155.77982 297.32369,154.1916 297.0625,152.96875 C 296.80765,151.7756 296.06974,150.76316 295.40625,150.15625 C 294.74276,149.54934 294.16853,149.22126 293.75,148.96875 C 292.91294,148.46373 292.90088,148.41037 292.875,148.34375 C 292.18565,146.56902 291.63694,144.55292 293.34375,142.28125 C 294.49174,140.75336 295.71597,140.41753 297.09375,140.1875 C 297.23069,140.39901 297.23555,140.40425 297.375,140.625 C 297.98619,141.59254 298.62091,142.63503 299.40625,143.5625 C 300.50694,144.86242 303.96093,149.0536 309.59375,150.96875 C 314.89694,152.77184 320.33147,152.50077 326.875,150.4375 C 331.18801,149.07754 335.55076,145.46 340.3125,141.53125 C 345.07424,137.6025 349.91953,133.32133 353.25,130.9375 C 359.11771,126.73762 365.67973,127.66289 369.3125,128.625 C 373.36405,129.69802 375.6091,130.42609 376.9375,131.03125 C 378.13264,131.56257 379.53118,131.30835 380.4629,130.39044 C 381.39461,129.47253 381.66967,128.07794 381.15625,126.875 C 380.36953,125.05806 379.02518,123.77046 377.25,122.53125 C 375.47482,121.29204 373.22495,120.17944 370.53125,119.3125 C 367.97314,118.48921 365.11491,117.75808 361.8125,117.75 z"
         style="fill:#000000;fill-rule:evenodd;stroke:none;stroke-width:2;stroke-linecap:round;stroke-linejoin:round;stroke-miterlimit:4;stroke-opacity:1" />
      <rect
         transform="scale(-1,-1)"
         y="-246.03125"
         x="-250.28125"
         height="178"
         width="178"
         id="rect3821"
         style="fill:#000000;fill-opacity:1;stroke:none;stroke-width:2;stroke-linecap:round;stroke-linejoin:round;stroke-miterlimit:4;stroke-dasharray:none;stroke-opacity:1" />
      <path
         id="rect3816"
         d="M 61.28125,57.03125 L 61.28125,257.03125 L 261.28125,257.03125 L 261.28125,57.03125 L 61.28125,57.03125 z M 70.28125,66.03125 L 252.28125,66.03125 L 252.28125,248.03125 L 70.28125,248.03125 L 70.28125,66.03125 z"
         style="fill:#000000;fill-opacity:1;stroke:none;stroke-width:2;stroke-linecap:round;stroke-linejoin:round;stroke-miterlimit:4;stroke-dasharray:none;stroke-opacity:1" />
      <path
         id="path3673"
         style="fill:#ffffff;fill-rule:evenodd;stroke:#000000;stroke-width:2;stroke-linecap:round;stroke-linejoin:round;stroke-miterlimit:4;stroke-dasharray:none;stroke-opacity:1"
         d="M 285.46292,153.52277 C 284.27476,152.11184 283.11296,149.22256 282.90096,146.95079 C 282.68895,144.67902 283.34666,141.37584 284.5718,138.59658 C 285.67239,136.09986 289.94452,132.57105 293.59435,131.57904 C 297.21451,130.5951 300.64902,130.14954 303.17385,130.68792 C 305.69868,131.2263 306.55062,132.22744 306.62693,133.24988 C 306.71975,134.49373 305.97715,135.49624 304.84469,135.81184 C 305.49447,137.24134 308.42182,140.82356 311.63946,142.27244 C 314.81406,143.70194 321.92442,143.75763 328.45927,139.82186 C 334.94541,135.91543 344.03524,126.28803 351.85107,123.11343 C 359.6669,119.93883 364.71656,120.77426 369.56201,122.33371 C 374.40745,123.89316 377.47066,126.32517 378.25039,128.12596 C 376.57955,127.3648 374.21356,126.64842 370.11896,125.564 C 366.05324,124.48723 358.36036,123.37073 351.40551,128.34874 C 344.22089,133.49123 332.11221,145.43669 325.89731,147.39635 C 319.7152,149.34566 315.27818,149.53132 310.63695,147.9533 C 305.99572,146.37528 302.93858,142.79347 301.83718,141.49271 C 300.78365,140.2485 299.26221,137.49924 298.60688,136.70296 C 297.04743,137.01856 293.39014,136.94429 290.80961,140.37881 C 288.28226,143.74255 289.04595,147.26639 289.9185,149.51275 C 290.79105,151.75911 293.52009,151.72198 293.92852,153.63417 C 294.33695,155.54636 294.39916,158.1498 291.47795,159.09225 C 288.58753,160.02478 280.91451,159.51925 275.54925,158.42392 C 270.18399,157.32859 264.98822,155.09922 260.40027,152.1861 C 255.81233,149.27299 251.53418,145.11621 248.57852,142.3933 C 245.62286,139.67039 242.00943,136.32883 242.23271,133.50917 C 242.456,130.68951 243.88968,129.03107 246.43818,129.21226 C 248.98669,129.39344 251.9246,132.76393 253.69106,134.95724 C 255.45752,137.15055 257.83401,139.92077 260.73444,142.82938 C 263.69109,145.79436 268.11624,148.72367 272.8759,150.51526 C 277.67327,152.32105 282.56679,153.48564 287.8021,153.74555"
         sodipodi:nodetypes="czzzzzczzzzczzzzzczzzzzzzzzzzzz" />
      <path
         sodipodi:nodetypes="czzzcsszzzzzzzz"
         d="M 248.57852,136.04749 C 249.11695,141.1626 248.51572,146.2931 247.77087,150.35441 C 247.02602,154.41572 245.42691,161.60925 242.52284,167.92327 C 239.63926,174.19277 233.40008,180.57335 228.38732,183.58334 C 223.4262,186.56233 221.11085,186.2671 219.5032,187.16006 C 217.80666,188.10239 217.15333,190.03314 217.3245,191.54443 C 217.49567,193.05572 218.39991,195.08604 221.57224,195.02266 C 224.74897,194.95919 232.3353,190.50368 234.58772,188.50985 C 236.83603,186.51967 241.06388,182.66043 243.84801,178.85283 C 246.68739,174.96966 250.26677,168.02334 252.15524,162.5845 C 254.04372,157.14566 255.45855,149.13276 255.73197,144.70086 C 256.00539,140.26896 255.50311,135.43321 254.69356,133.50918 C 253.8426,131.4867 251.54388,128.50197 247.88625,128.43253 C 244.22899,128.3631 242.456,130.68951 242.23271,133.50917 C 242.00943,136.32883 246.34787,140.50879 248.57852,142.3933"
         style="fill:#ffffff;fill-rule:evenodd;stroke:#000000;stroke-width:2;stroke-linecap:round;stroke-linejoin:round;stroke-miterlimit:4;stroke-dasharray:none;stroke-opacity:1"
         id="path3675" />
      <path
         id="path3679"
         style="fill:#ffffff;fill-rule:evenodd;stroke:#000000;stroke-width:2;stroke-linecap:round;stroke-linejoin:round;stroke-miterlimit:4;stroke-dasharray:none;stroke-opacity:1"
         d="M 224.12406,189.60764 C 224.12406,189.60764 232.68068,181.6634 232.60166,167.81768 C 232.52133,153.74121 226.4891,141.55151 212.34974,133.74938 C 198.25891,125.97401 172.62197,125.8816 166.56313,131.79807 C 164.15289,134.15168 162.90117,136.50316 162.33711,138.7295 L 158.90667,128.20785 C 163.95586,121.87796 178.61985,117.53128 191.84244,118.08357 C 205.06502,118.63586 210.95071,120.90926 218.60453,125.5437 C 226.25834,130.17813 230.30943,135.24523 233.23118,140.52768 C 236.15294,145.81014 239.19428,155.91079 239.36647,163.54868 C 239.53867,171.18657 236.785,181.29161 232.97243,186.43305 C 229.15985,191.57449 224.74897,194.95919 221.57224,195.02266 C 218.39991,195.08604 217.49567,193.05572 217.3245,191.54443 C 217.15333,190.03314 217.80666,188.10239 219.5032,187.16006 C 221.11085,186.2671 225.46441,185.08326 228.5027,183.46796"
         sodipodi:nodetypes="czzccczszzzzzzc" />
      <path
         id="path3553"
         style="fill:#ffffff;fill-rule:evenodd;stroke:#000000;stroke-width:2;stroke-linecap:round;stroke-linejoin:round;stroke-miterlimit:4;stroke-dasharray:none;stroke-opacity:1"
         d="M 197.78685,114.18936 C 198.28089,114.28094 198.71042,113.84903 199.4249,112.89003 C 200.70482,111.17211 202.29543,106.42602 203.01498,102.52316 C 203.74364,98.570927 202.15022,96.072869 202.31254,93.921669 C 202.47487,91.770469 203.45311,89.763739 203.46982,88.596129 C 203.48652,87.428518 203.64594,87.338257 203.44864,86.130065 C 204.69163,85.753846 206.47286,86.724984 207.47217,88.293123 C 208.33659,87.073471 209.15897,85.382283 211.64603,83.741172 C 214.19386,82.059964 216.36405,82.008476 217.5383,81.376623 C 218.71257,80.744771 219.44941,79.878786 220.05048,79.434768 C 220.49739,80.329109 221.0036,81.54331 220.70024,82.879571 C 221.8047,81.995804 222.73516,81.376852 223.79184,81.100714 C 224.84853,80.824576 226.02199,81.284699 226.93872,80.979273 C 227.85546,80.673857 228.95787,79.568085 229.76064,79.09466 C 230.31136,79.774392 230.50737,80.844586 230.52934,81.826892 C 230.55131,82.809197 231.64007,85.026553 231.61744,86.2257 C 231.59481,87.424846 231.32062,88.623079 230.36386,89.846473 C 231.59896,89.336194 233.57847,88.991108 234.47218,89.279922 C 234.18501,89.870728 233.50279,90.371026 233.20195,91.463054 C 232.90111,92.55508 232.92499,94.340749 232.40186,96.983194 C 231.81181,99.963614 230.66908,102.28362 229.06041,103.86518 C 227.49689,105.40237 226.27352,105.04469 225.74708,105.59054 C 225.21957,106.1375 225.456,106.72797 225.90431,107.08388 C 226.35262,107.43978 227.56178,106.70966 228.20264,106.78801 C 228.8435,106.86636 229.3376,106.81475 229.96026,107.58967 C 228.8391,109.17779 227.38923,110.30801 225.36948,111.58932 C 224.16862,112.35114 222.75322,113.01685 221.24902,113.49756 C 220.04467,113.0725 218.74317,112.78396 217.32938,112.92442 C 216.23545,113.03309 215.1594,113.46895 214.13508,114.01981 C 212.05862,113.8054 210.00056,113.52126 209.07885,113.71717 C 207.5103,114.05055 206.18621,114.94589 206.22179,115.71937 C 206.25735,116.49285 206.29806,117.28261 208.34444,117.18247 C 210.39081,117.08232 213.76078,113.28062 217.32813,112.92623 C 220.94633,112.56679 223.83022,115.03522 226.22748,115.33625 C 225.44444,116.47102 225.36252,116.9017 224.60711,117.65579 C 225.78524,117.76537 227.80951,119.06834 229.16449,120.53684 C 230.51912,122.00496 231.3976,124.14595 232.34713,125.33724 C 233.33607,126.57798 233.95333,126.8912 234.87748,127.02298 C 234.31772,128.1599 232.48903,128.89974 231.39051,128.67049 C 232.42733,128.81323 237.13294,133.09205 238.07978,136.22299 C 234.45445,136.48704 232.35667,138.60715 230.16703,139.3434 C 228.03228,140.06119 225.3487,140.58192 222.56087,138.89254 C 223.68034,139.90346 225.14076,141.43349 225.15467,143.05104 C 223.20466,142.6002 221.31355,143.43238 219.02646,143.28077 C 216.78281,143.13204 214.53044,141.84494 212.91373,140.28721 C 212.9536,141.59053 213.0515,142.76042 212.3638,144.3402 C 209.94724,142.69657 206.9654,137.97918 205.9229,135.29202 C 204.85898,132.54963 205.22954,129.64519 203.11243,127.35659 C 200.99536,125.06804 199.26083,123.44819 195.58973,124.22216 C 191.271,125.13266 190.01449,128.43708 187.05552,130.95723 C 183.81382,133.71818 179.96496,133.99274 178.44252,133.1456 C 176.81086,132.59413 176.1135,128.79672 177.53721,127.17473 C 178.69167,126.06542 180.18626,126.75702 181.27644,126.6883 C 182.37739,126.6189 184.19651,126.35653 185.65334,125.1667 C 187.14873,123.94537 189.53577,121.72457 189.31649,118.33228 C 189.09802,114.95244 186.88425,112.46663 185.03542,110.81062 C 183.18659,109.1546 180.45375,108.28601 178.72856,107.63588 C 177.05595,107.00555 175.39816,105.21284 174.90697,104.08738 C 174.41578,102.96193 174.38506,101.87917 174.84484,100.71993 C 175.59802,100.9206 176.25605,100.86849 177.16352,101.01103 C 176.22573,100.34698 175.10984,98.521208 174.87655,97.267286 C 174.64325,96.013372 175.15182,94.281205 175.27111,92.800354 C 175.38697,91.361959 174.68526,90.193869 174.99599,89.198346 C 176.01367,89.358357 176.52561,89.557739 177.39554,89.672782 C 178.69351,86.488847 180.63351,85.347944 181.09442,83.660329 C 181.55531,81.972712 180.61412,80.915511 181.36118,79.052658 C 184.26741,80.792813 188.75772,81.772131 190.23317,83.921007 C 191.6731,86.018137 190.54162,86.521697 190.66197,87.126674 C 190.81714,87.906744 191.38212,87.860371 191.94478,87.502473 C 192.50746,87.144566 192.51497,85.633255 192.83281,84.898534 C 193.22998,83.980403 194.02779,82.593404 195.52778,82.964784 C 195.73099,85.112948 196.9889,87.563056 198.67815,90.20429 C 200.36203,92.837107 201.58868,97.281586 201.51588,100.21002 C 201.44308,103.13845 200.16371,106.75036 199.23525,108.44403 C 198.30678,110.13771 196.31762,111.34657 196.30901,112.38532 C 196.3004,113.42405 197.24466,114.08886 197.78685,114.18936 z"
         sodipodi:nodetypes="cssssccssccsscssccsssssscscscszssccsscccsccsccsssscczzzzzzcczzcczczzzzczzzzz" />
      <path
         style="fill:none;fill-rule:evenodd;stroke:#000000;stroke-width:2;stroke-linecap:round;stroke-linejoin:round;stroke-miterlimit:4;stroke-dasharray:none;stroke-opacity:1"
         d="M 185.41635,89.77321 C 184.86502,95.578621 185.77377,101.01538 189.29886,105.51209 C 192.82042,110.00429 193.78864,116.67109 192.01303,122.07263 C 195.82566,118.2115 198.95803,116.00119 202.05769,114.02792 C 205.15734,112.05464 208.94146,110.91809 212.0949,108.74205 C 215.24834,106.56601 219.59838,102.9419 222.39655,99.267396 C 225.18546,95.605041 227.52759,88.279206 227.6718,84.784775"
         id="path3555"
         sodipodi:nodetypes="czczzzz" />
      <path
         style="fill:none;fill-rule:evenodd;stroke:#000000;stroke-width:2;stroke-linecap:round;stroke-linejoin:round;stroke-miterlimit:4;stroke-dasharray:none;stroke-opacity:1"
         d="M 182.45217,103.54048 C 185.75437,103.28036 188.55752,104.15204 190.9209,108.089"
         id="path3557"
         sodipodi:nodetypes="cc" />
      <path
         style="fill:none;fill-rule:evenodd;stroke:#000000;stroke-width:2;stroke-linecap:round;stroke-linejoin:round;stroke-miterlimit:4;stroke-dasharray:none;stroke-opacity:1"
         d="M 215.43817,90.188038 C 218.03673,94.241722 219.13666,102.12305 215.89243,105.80916"
         id="path3559"
         sodipodi:nodetypes="cc" />
      <path
         style="fill:none;fill-rule:evenodd;stroke:#000000;stroke-width:2;stroke-linecap:round;stroke-linejoin:round;stroke-miterlimit:4;stroke-dasharray:none;stroke-opacity:1"
         d="M 228.31144,98.025888 C 226.64891,98.247469 222.41855,99.444218 219.06521,103.01016"
         id="path3561"
         sodipodi:nodetypes="cc" />
      <path
         style="fill:none;fill-rule:evenodd;stroke:#000000;stroke-width:2;stroke-linecap:round;stroke-linejoin:round;stroke-miterlimit:4;stroke-dasharray:none;stroke-opacity:1"
         d="M 227.53245,133.25232 C 225.87233,133.64889 220.65176,132.281 218.2563,130.54805 C 215.84505,128.80369 213.71947,126.69424 210.44331,124.22701 C 207.1634,121.75696 203.10847,120.05391 200.30032,119.48935 C 197.49043,118.92445 195.63347,119.4044 194.02325,120.14576"
         id="path3563"
         sodipodi:nodetypes="czzzz" />
      <path
         style="fill:none;fill-rule:evenodd;stroke:#000000;stroke-width:2;stroke-linecap:round;stroke-linejoin:round;stroke-miterlimit:4;stroke-dasharray:none;stroke-opacity:1"
         d="M 218.88179,121.67405 C 216.62913,124.04157 210.41798,123.41714 206.86738,121.96295"
         id="path3565"
         sodipodi:nodetypes="cc" />
      <path
         style="fill:none;fill-rule:evenodd;stroke:#000000;stroke-width:2;stroke-linecap:round;stroke-linejoin:round;stroke-miterlimit:4;stroke-dasharray:none;stroke-opacity:1"
         d="M 211.96076,125.40717 C 216.28314,128.72391 217.47105,135.95611 217.47105,135.95611"
         id="path3567"
         sodipodi:nodetypes="cc" />
      <path
         sodipodi:nodetypes="czzzzzczzzzczzzzzczzzzzzzzzzzzz"
         d="M 34.419363,153.52277 C 35.607518,152.11184 36.76932,149.22256 36.981323,146.95079 C 37.193326,144.67902 36.535616,141.37584 35.31048,138.59658 C 34.209891,136.09986 29.937755,132.57105 26.287928,131.57904 C 22.667768,130.5951 19.233258,130.14954 16.708429,130.68792 C 14.1836,131.2263 13.331655,132.22744 13.255353,133.24988 C 13.162528,134.49373 13.905125,135.49624 15.037586,135.81184 C 14.387814,137.24134 11.460461,140.82356 8.2428249,142.27244 C 5.0682235,143.70194 -2.0421413,143.75763 -8.5769934,139.82186 C -15.063131,135.91543 -24.152961,126.28803 -31.968793,123.11343 C -39.784625,119.93883 -44.834284,120.77426 -49.679728,122.33371 C -54.525173,123.89316 -57.588385,126.32517 -58.368112,128.12596 C -56.697269,127.3648 -54.331284,126.64842 -50.236676,125.564 C -46.170958,124.48723 -38.478082,123.37073 -31.523235,128.34874 C -24.338611,133.49123 -12.229926,145.43669 -6.0150344,147.39635 C 0.16708417,149.34566 4.6041004,149.53132 9.2453306,147.9533 C 13.886561,146.37528 16.943696,142.79347 18.045104,141.49271 C 19.098627,140.2485 20.620067,137.49924 21.275399,136.70296 C 22.834852,137.01856 26.492142,136.94429 29.072666,140.37881 C 31.600015,143.74255 30.836333,147.26639 29.963782,149.51275 C 29.091231,151.75911 26.362188,151.72198 25.95376,153.63417 C 25.545332,155.54636 25.483123,158.1498 28.404329,159.09225 C 31.294746,160.02478 38.967769,159.51925 44.333032,158.42392 C 49.698294,157.32859 54.894059,155.09922 59.482006,152.1861 C 64.069952,149.27299 68.348102,145.11621 71.303763,142.3933 C 74.259424,139.67039 77.872853,136.32883 77.649567,133.50917 C 77.426281,130.68951 75.992604,129.03107 73.444096,129.21226 C 70.895588,129.39344 67.957684,132.76393 66.191222,134.95724 C 64.42476,137.15055 62.048273,139.92077 59.147838,142.82938 C 56.191187,145.79436 51.766035,148.72367 47.00638,150.51526 C 42.209008,152.32105 37.315492,153.48564 32.080184,153.74555"
         style="fill:#ffffff;fill-rule:evenodd;stroke:#000000;stroke-width:2;stroke-linecap:round;stroke-linejoin:round;stroke-miterlimit:4;stroke-dasharray:none;stroke-opacity:1"
         id="path3651" />
      <path
         id="path3571"
         style="fill:#ffffff;fill-rule:evenodd;stroke:#000000;stroke-width:2;stroke-linecap:round;stroke-linejoin:round;stroke-miterlimit:4;stroke-dasharray:none;stroke-opacity:1"
         d="M 71.303763,136.04749 C 70.765331,141.1626 71.366565,146.2931 72.111411,150.35441 C 72.856257,154.41572 74.455374,161.60925 77.359435,167.92327 C 80.24302,174.19277 86.482202,180.57335 91.494958,183.58334 C 96.456076,186.56233 98.771425,186.2671 100.37908,187.16006 C 102.07562,188.10239 102.72895,190.03314 102.55778,191.54443 C 102.38661,193.05572 101.48237,195.08604 98.310038,195.02266 C 95.133312,194.95919 87.546978,190.50368 85.294557,188.50985 C 83.046253,186.51967 78.818401,182.66043 76.034272,178.85283 C 73.194885,174.96966 69.615514,168.02334 67.727037,162.5845 C 65.83856,157.14566 64.423729,149.13276 64.150311,144.70086 C 63.876893,140.26896 64.379174,135.43321 65.188716,133.50918 C 66.039678,131.4867 68.338401,128.50197 71.996032,128.43253 C 75.653293,128.3631 77.426281,130.68951 77.649567,133.50917 C 77.872853,136.32883 73.534409,140.50879 71.303763,142.3933"
         sodipodi:nodetypes="czzzcsszzzzzzzz" />
      <path
         sodipodi:nodetypes="czzzzczzcczczzzzczzzzzssssccssccsscssccsssssscscscszssccsscccsccsccsssssszzzszzzzzzc"
         d="M 95.758218,189.60764 C 95.758218,189.60764 87.201599,181.6634 87.280615,167.81768 C 87.360949,153.74121 93.393179,141.55151 107.53254,133.74938 C 121.62337,125.97401 147.26031,125.8816 153.31915,131.79807 C 159.32003,137.65794 158.13944,143.50463 157.04438,147.43964 C 155.97916,151.26746 151.06655,153.85833 146.46491,154.16319 C 141.86319,154.46805 138.86817,151.33925 134.72465,150.01077 C 130.66456,148.70905 122.4653,147.74821 118.32658,148.99757 C 119.50326,151.25841 120.93961,152.23446 122.47542,153.4014 C 119.17976,153.81094 115.60381,155.20327 113.34499,157.64486 C 111.04244,160.13373 110.2396,163.08272 107.90664,164.90553 C 109.77964,166.39472 112.89799,166.13911 115.10217,165.79252 C 110.56535,167.42626 108.66697,170.99669 107.50591,174.11939 C 106.315,177.32238 106.80087,181.70747 103.731,186.12198 C 108.21238,187.94665 117.51137,186.51722 118.6403,185.4578 C 117.35447,186.50767 116.50357,189.29893 117.29006,191.00056 C 118.30153,190.0605 119.23608,189.64217 121.58307,189.65953 C 123.83653,189.67619 127.11592,190.6583 130.06466,190.46672 C 133.01415,190.2751 136.39611,189.15983 137.61841,187.90706 C 137.7826,189.47742 138.20162,189.97239 138.77786,191.92876 C 141.35475,189.45224 146.87679,188.43299 149.83032,183.93791 C 152.74235,179.506 151.50661,172.09324 153.29568,169.6469 C 155.08474,167.20056 156.03079,167.88866 156.95331,168.5675 C 157.87584,169.24635 157.67329,171.60207 156.59707,173.71599 C 155.96465,174.95817 153.72282,177.06036 151.54405,179.24858 C 151.22432,180.93905 150.72421,182.58199 149.83125,183.94103 C 148.67716,185.69747 147.13429,186.92559 145.52481,187.91494 C 144.67787,190.09195 144.1263,192.33901 143.88488,194.42878 C 143.47883,197.94362 143.42933,200.66254 144.21225,203.42958 C 145.68274,203.43466 146.08316,202.81847 146.7696,202.15445 C 147.45605,201.49044 147.74164,199.4206 148.56806,199.23626 C 149.39448,199.05193 150.29349,199.3295 150.43157,200.44507 C 150.56938,201.55835 149.0197,202.63229 149.3324,205.8606 C 149.65413,209.18214 151.25858,212.65501 154.13674,216.10689 C 156.68852,219.16735 158.76411,220.8015 159.73989,222.16362 C 160.71567,223.52573 160.65614,224.77576 161.0683,225.65575 C 162.23204,224.8968 163.67722,222.29945 164.23975,220.40434 C 164.75624,222.64296 165.87896,224.07324 167.23681,225.21511 C 168.59466,226.35698 172.15756,227.16834 173.30757,228.05714 C 174.45757,228.94594 175.87058,229.71641 177.16469,229.71564 C 177.36729,228.352 177.12159,226.05536 177.62344,224.71699 C 178.12529,223.37863 179.74633,222.45742 180.41208,220.98536 C 181.07782,219.51331 181.2319,217.86742 181.2434,215.775 C 182.49769,217.36728 184.36496,217.91505 185.80923,218.23336 C 185.85797,217.129 185.54783,215.47587 185.91395,213.53762 C 186.28006,211.59937 188.24029,209.05594 188.6779,204.56174 C 189.10507,200.17473 187.9256,197.65535 187.32749,195.52643 C 190.0606,195.83651 192.83481,194.69195 193.55884,192.91253 C 191.98594,192.01514 192.03049,191.74783 190.70339,190.64211 C 189.37629,189.5364 187.97901,186.5442 185.65638,184.35577 C 183.33374,182.16733 178.97846,181.6751 175.1118,177.1595 C 171.29343,172.70033 167.31597,166.45488 166.53152,163.3845 C 166.09362,161.67052 165.99665,160.7747 166.56169,160.29182 C 167.18179,159.76187 168.82493,159.29468 170.01136,160.27116 C 171.19779,161.24765 170.73691,164.65989 171.82051,167.30357 C 172.90411,169.94725 175.86698,174.77941 179.16667,177.58814 C 182.46636,180.39687 188.71856,183.12206 193.31296,183.6357 C 197.92204,184.15097 201.90999,184.98439 204.56927,186.74966 C 206.39211,185.37039 205.53959,183.16234 204.85341,181.85126 C 204.30431,180.8021 202.57341,179.38714 202.68544,178.40707 C 202.79748,177.427 203.26988,176.73418 204.31129,177.28163 C 205.11893,177.70619 204.64512,179.47587 208.39652,179.77154 C 212.24049,180.07452 217.54502,175.82234 222.25039,174.09972 C 220.80344,171.50722 218.71194,171.60575 217.20022,169.50537 C 215.6885,167.40499 216.1818,164.1125 213.72836,159.6572 C 214.67016,158.7639 215.37581,158.36076 216.50679,157.3394 C 215.65117,156.05572 213.65501,155.77568 212.10881,154.30398 C 210.51696,152.78883 208.99837,150.59217 207.33939,149.69362 C 205.68041,148.79508 202.54256,148.3793 200.90631,148.83974 C 201.91466,147.92889 202.46705,147.12371 203.39865,146.44436 C 202.49348,144.83694 201.21982,143.86472 199.46859,143.38227 C 197.71735,142.89982 194.11325,143.13793 191.83201,144.47475 C 189.47907,145.85359 185.93726,148.18786 182.31259,148.77287 C 178.68793,149.35787 172.76363,149.51066 169.06676,146.99285 C 165.36989,144.47504 165.98025,134.48189 160.97561,128.20785 C 155.92642,121.87796 141.26243,117.53128 128.03984,118.08357 C 114.81726,118.63586 108.93157,120.90926 101.27775,125.5437 C 93.623937,130.17813 89.572849,135.24523 86.651095,140.52768 C 83.729341,145.81014 80.688001,155.91079 80.515806,163.54868 C 80.343611,171.18657 83.09728,181.29161 86.909853,186.43305 C 90.722426,191.57449 95.133312,194.95919 98.310038,195.02266 C 101.48237,195.08604 102.38661,193.05572 102.55778,191.54443 C 102.72895,190.03314 102.07562,188.10239 100.37908,187.16006 C 98.771425,186.2671 94.417872,185.08326 91.379579,183.46796"
         style="fill:#ffffff;fill-rule:evenodd;stroke:#000000;stroke-width:2;stroke-linecap:round;stroke-linejoin:round;stroke-miterlimit:4;stroke-dasharray:none;stroke-opacity:1"
         id="path3827" />
      <path
         sodipodi:nodetypes="czczzzz"
         id="path3855"
         d="M 206.14924,168.78695 C 199.98657,162.75083 192.88917,158.73671 184.43814,158.6059 C 175.99558,158.47523 167.4284,153.38491 162.86938,146.31679 C 163.76154,154.29389 163.38841,159.9526 162.77317,165.35313 C 162.15792,170.75365 159.9436,176.16264 159.51146,181.8137 C 159.07932,187.46475 159.19885,195.83927 160.82041,202.47616 C 162.4366,209.09111 168.68122,218.6013 172.56531,222.01881"
         style="fill:none;fill-rule:evenodd;stroke:#000000;stroke-width:2;stroke-linecap:round;stroke-linejoin:round;stroke-miterlimit:4;stroke-dasharray:none;stroke-opacity:1" />
      <path
         sodipodi:nodetypes="cc"
         id="path3857"
         d="M 208.36171,156.2952 C 204.10167,160.06476 197.6731,160.76789 192.24333,159.87225"
         style="fill:none;fill-rule:evenodd;stroke:#000000;stroke-width:2;stroke-linecap:round;stroke-linejoin:round;stroke-miterlimit:4;stroke-dasharray:none;stroke-opacity:1" />
      <path
         sodipodi:nodetypes="cc"
         id="path3859"
         d="M 193.0764,152.56748 C 190.30269,156.60676 186.69191,159.01899 179.96555,158.0732"
         style="fill:none;fill-rule:evenodd;stroke:#000000;stroke-width:2;stroke-linecap:round;stroke-linejoin:round;stroke-miterlimit:4;stroke-dasharray:none;stroke-opacity:1" />
      <path
         sodipodi:nodetypes="cc"
         id="path3861"
         d="M 182.22003,158.44979 C 186.21098,158.66537 191.97644,164.36235 192.96413,169.72023"
         style="fill:none;fill-rule:evenodd;stroke:#000000;stroke-width:2;stroke-linecap:round;stroke-linejoin:round;stroke-miterlimit:4;stroke-dasharray:none;stroke-opacity:1" />
      <path
         sodipodi:nodetypes="cc"
         id="path3869"
         d="M 177.73587,202.92332 C 170.65645,202.13934 160.57011,196.0703 159.35028,188.90968"
         style="fill:none;fill-rule:evenodd;stroke:#000000;stroke-width:2;stroke-linecap:round;stroke-linejoin:round;stroke-miterlimit:4;stroke-dasharray:none;stroke-opacity:1" />
      <path
         sodipodi:nodetypes="cc"
         id="path3871"
         d="M 156.74401,210.43302 C 158.03626,208.31508 160.5966,202.33693 159.61649,195.16264"
         style="fill:none;fill-rule:evenodd;stroke:#000000;stroke-width:2;stroke-linecap:round;stroke-linejoin:round;stroke-miterlimit:4;stroke-dasharray:none;stroke-opacity:1" />
      <path
         sodipodi:nodetypes="cc"
         id="path3873"
         d="M 149.75088,196.1308 C 155.30904,193.16846 159.33684,187.09163 159.51446,181.50482"
         style="fill:none;fill-rule:evenodd;stroke:#000000;stroke-width:2;stroke-linecap:round;stroke-linejoin:round;stroke-miterlimit:4;stroke-dasharray:none;stroke-opacity:1" />
      <path
         sodipodi:nodetypes="cc"
         id="path3875"
         d="M 178.34788,189.13461 C 170.17681,188.71348 159.6968,178.63844 161.12606,173.38614"
         style="fill:none;fill-rule:evenodd;stroke:#000000;stroke-width:2;stroke-linecap:round;stroke-linejoin:round;stroke-miterlimit:4;stroke-dasharray:none;stroke-opacity:1" />
      <path
         sodipodi:nodetypes="czzzz"
         id="path3891"
         d="M 116.96167,176.75781 C 118.05045,174.4798 124.48133,169.74949 128.70312,168.60749 C 132.95274,167.45796 137.35633,166.97666 143.242,165.50522 C 149.13442,164.03209 154.86603,160.95403 158.1283,158.25025 C 161.39259,155.54479 162.56865,152.96284 163.21452,150.42138"
         style="fill:none;fill-rule:evenodd;stroke:#000000;stroke-width:2;stroke-linecap:round;stroke-linejoin:round;stroke-miterlimit:4;stroke-dasharray:none;stroke-opacity:1" />
      <path
         sodipodi:nodetypes="cc"
         id="path3914"
         d="M 138.32538,177.58433 C 137.69912,172.79091 144.19687,166.22971 149.17301,163.50001"
         style="fill:none;fill-rule:evenodd;stroke:#000000;stroke-width:2;stroke-linecap:round;stroke-linejoin:round;stroke-miterlimit:4;stroke-dasharray:none;stroke-opacity:1" />
      <path
         sodipodi:nodetypes="cc"
         id="path3916"
         d="M 140.47289,166.15196 C 132.63682,168.03598 123.21504,162.67215 123.21504,162.67215"
         style="fill:none;fill-rule:evenodd;stroke:#000000;stroke-width:2;stroke-linecap:round;stroke-linejoin:round;stroke-miterlimit:4;stroke-dasharray:none;stroke-opacity:1" />
      <path
         sodipodi:nodetypes="cc"
         id="path3918"
         d="M 132.21913,158.71678 C 142.374,162.56362 156.73955,160.64787 159.86339,156.61158"
         style="fill:none;fill-rule:evenodd;stroke:#000000;stroke-width:2;stroke-linecap:round;stroke-linejoin:round;stroke-miterlimit:4;stroke-dasharray:none;stroke-opacity:1" />
      <path
         sodipodi:nodetypes="cssssccssccsscssccsssssscscscszssccsscccsccsccsssscczzzzzzcczzcczczzzzczzzzz"
         d="M 124.77565,114.18936 C 124.28161,114.28094 123.85208,113.84903 123.1376,112.89003 C 121.85768,111.17211 120.26707,106.42602 119.54752,102.52316 C 118.81886,98.570927 120.41228,96.072869 120.24996,93.921669 C 120.08763,91.770469 119.10939,89.763739 119.09268,88.596129 C 119.07598,87.428518 118.91656,87.338257 119.11386,86.130065 C 117.87087,85.753846 116.08964,86.724984 115.09033,88.293123 C 114.22591,87.073471 113.40353,85.382283 110.91647,83.741172 C 108.36864,82.059964 106.19845,82.008476 105.0242,81.376623 C 103.84993,80.744771 103.11309,79.878786 102.51202,79.434768 C 102.06511,80.329109 101.5589,81.54331 101.86226,82.879571 C 100.7578,81.995804 99.827343,81.376852 98.770659,81.100714 C 97.713974,80.824576 96.540511,81.284699 95.623782,80.979273 C 94.707045,80.673857 93.604628,79.568085 92.801862,79.09466 C 92.251137,79.774392 92.055134,80.844586 92.033164,81.826892 C 92.011195,82.809197 90.92243,85.026553 90.945062,86.2257 C 90.967695,87.424846 91.241878,88.623079 92.198644,89.846473 C 90.963538,89.336194 88.984033,88.991108 88.090316,89.279922 C 88.377489,89.870728 89.059709,90.371026 89.360547,91.463054 C 89.661395,92.55508 89.637507,94.340749 90.160644,96.983194 C 90.750692,99.963614 91.893415,102.28362 93.502086,103.86518 C 95.06561,105.40237 96.288979,105.04469 96.815421,105.59054 C 97.342933,106.1375 97.106496,106.72797 96.658192,107.08388 C 96.209879,107.43978 95.000716,106.70966 94.35986,106.78801 C 93.718995,106.86636 93.224897,106.81475 92.602243,107.58967 C 93.723404,109.17779 95.173267,110.30801 97.193023,111.58932 C 98.393877,112.35114 99.809282,113.01685 101.31348,113.49756 C 102.51783,113.0725 103.81933,112.78396 105.23312,112.92442 C 106.32705,113.03309 107.4031,113.46895 108.42742,114.01981 C 110.50388,113.8054 112.56194,113.52126 113.48365,113.71717 C 115.0522,114.05055 116.37629,114.94589 116.34071,115.71937 C 116.30515,116.49285 116.26444,117.28261 114.21806,117.18247 C 112.17169,117.08232 108.80172,113.28062 105.23437,112.92623 C 101.61617,112.56679 98.732284,115.03522 96.33502,115.33625 C 97.118057,116.47102 97.199983,116.9017 97.955393,117.65579 C 96.777262,117.76537 94.752988,119.06834 93.398012,120.53684 C 92.043376,122.00496 91.164902,124.14595 90.215367,125.33724 C 89.226425,126.57798 88.609167,126.8912 87.685024,127.02298 C 88.244785,128.1599 90.073466,128.89974 91.171987,128.67049 C 90.135169,128.81323 85.429562,133.09205 84.482722,136.22299 C 88.108045,136.48704 90.205827,138.60715 92.395465,139.3434 C 94.530219,140.06119 97.213798,140.58192 100.00163,138.89254 C 98.882165,139.90346 97.421743,141.43349 97.407832,143.05104 C 99.357836,142.6002 101.24895,143.43238 103.53604,143.28077 C 105.77969,143.13204 108.03206,141.84494 109.64877,140.28721 C 109.6089,141.59053 109.511,142.76042 110.1987,144.3402 C 112.61526,142.69657 115.5971,137.97918 116.6396,135.29202 C 117.70352,132.54963 117.33296,129.64519 119.45007,127.35659 C 121.56714,125.06804 123.30167,123.44819 126.97277,124.22216 C 131.2915,125.13266 132.54801,128.43708 135.50698,130.95723 C 138.74868,133.71818 142.59754,133.99274 144.11998,133.1456 C 145.75164,132.59413 146.449,128.79672 145.02529,127.17473 C 143.87083,126.06542 142.37624,126.75702 141.28606,126.6883 C 140.18511,126.6189 138.36599,126.35653 136.90916,125.1667 C 135.41377,123.94537 133.02673,121.72457 133.24601,118.33228 C 133.46448,114.95244 135.67825,112.46663 137.52708,110.81062 C 139.37591,109.1546 142.10875,108.28601 143.83394,107.63588 C 145.50655,107.00555 147.16434,105.21284 147.65553,104.08738 C 148.14672,102.96193 148.17744,101.87917 147.71766,100.71993 C 146.96448,100.9206 146.30645,100.86849 145.39898,101.01103 C 146.33677,100.34698 147.45266,98.521208 147.68595,97.267286 C 147.91925,96.013372 147.41068,94.281205 147.29139,92.800354 C 147.17553,91.361959 147.87724,90.193869 147.56651,89.198346 C 146.54883,89.358357 146.03689,89.557739 145.16696,89.672782 C 143.86899,86.488847 141.92899,85.347944 141.46808,83.660329 C 141.00719,81.972712 141.94838,80.915511 141.20132,79.052658 C 138.29509,80.792813 133.80478,81.772131 132.32933,83.921007 C 130.8894,86.018137 132.02088,86.521697 131.90053,87.126674 C 131.74536,87.906744 131.18038,87.860371 130.61772,87.502473 C 130.05504,87.144566 130.04753,85.633255 129.72969,84.898534 C 129.33252,83.980403 128.53471,82.593404 127.03472,82.964784 C 126.83151,85.112948 125.5736,87.563056 123.88435,90.20429 C 122.20047,92.837107 120.97382,97.281586 121.04662,100.21002 C 121.11942,103.13845 122.39879,106.75036 123.32725,108.44403 C 124.25572,110.13771 126.24488,111.34657 126.25349,112.38532 C 126.2621,113.42405 125.31784,114.08886 124.77565,114.18936 z"
         style="fill:#ffffff;fill-rule:evenodd;stroke:#000000;stroke-width:2;stroke-linecap:round;stroke-linejoin:round;stroke-miterlimit:4;stroke-dasharray:none;stroke-opacity:1"
         id="path2451" />
      <path
         sodipodi:nodetypes="czczzzz"
         id="path4031"
         d="M 137.14615,89.77321 C 137.69748,95.578621 136.78873,101.01538 133.26364,105.51209 C 129.74208,110.00429 128.77386,116.67109 130.54947,122.07263 C 126.73684,118.2115 123.60447,116.00119 120.50481,114.02792 C 117.40516,112.05464 113.62104,110.91809 110.4676,108.74205 C 107.31416,106.56601 102.96412,102.9419 100.16595,99.267396 C 97.377043,95.605041 95.034908,88.279206 94.890703,84.784775"
         style="fill:none;fill-rule:evenodd;stroke:#000000;stroke-width:2;stroke-linecap:round;stroke-linejoin:round;stroke-miterlimit:4;stroke-dasharray:none;stroke-opacity:1" />
      <path
         sodipodi:nodetypes="cc"
         id="path4033"
         d="M 140.11033,103.54048 C 136.80813,103.28036 134.00498,104.15204 131.6416,108.089"
         style="fill:none;fill-rule:evenodd;stroke:#000000;stroke-width:2;stroke-linecap:round;stroke-linejoin:round;stroke-miterlimit:4;stroke-dasharray:none;stroke-opacity:1" />
      <path
         sodipodi:nodetypes="cc"
         id="path4035"
         d="M 107.12433,90.188038 C 104.52577,94.241722 103.42584,102.12305 106.67007,105.80916"
         style="fill:none;fill-rule:evenodd;stroke:#000000;stroke-width:2;stroke-linecap:round;stroke-linejoin:round;stroke-miterlimit:4;stroke-dasharray:none;stroke-opacity:1" />
      <path
         sodipodi:nodetypes="cc"
         id="path4037"
         d="M 94.251062,98.025888 C 95.913585,98.247469 100.14395,99.444218 103.49729,103.01016"
         style="fill:none;fill-rule:evenodd;stroke:#000000;stroke-width:2;stroke-linecap:round;stroke-linejoin:round;stroke-miterlimit:4;stroke-dasharray:none;stroke-opacity:1" />
      <path
         sodipodi:nodetypes="czzzz"
         id="path4039"
         d="M 95.030051,133.25232 C 96.690168,133.64889 101.91074,132.281 104.3062,130.54805 C 106.71745,128.80369 108.84303,126.69424 112.11919,124.22701 C 115.3991,121.75696 119.45403,120.05391 122.26218,119.48935 C 125.07207,118.92445 126.92903,119.4044 128.53925,120.14576"
         style="fill:none;fill-rule:evenodd;stroke:#000000;stroke-width:2;stroke-linecap:round;stroke-linejoin:round;stroke-miterlimit:4;stroke-dasharray:none;stroke-opacity:1" />
      <path
         sodipodi:nodetypes="cc"
         id="path4041"
         d="M 103.68071,121.67405 C 105.93337,124.04157 112.14452,123.41714 115.69512,121.96295"
         style="fill:none;fill-rule:evenodd;stroke:#000000;stroke-width:2;stroke-linecap:round;stroke-linejoin:round;stroke-miterlimit:4;stroke-dasharray:none;stroke-opacity:1" />
      <path
         sodipodi:nodetypes="cc"
         id="path4043"
         d="M 110.60174,125.40717 C 106.27936,128.72391 105.09145,135.95611 105.09145,135.95611"
         style="fill:none;fill-rule:evenodd;stroke:#000000;stroke-width:2;stroke-linecap:round;stroke-linejoin:round;stroke-miterlimit:4;stroke-dasharray:none;stroke-opacity:1" />
    </g>
  </g>
</svg>
