<?xml version="1.0" encoding="UTF-8" standalone="no"?>
<!-- Created with Inkscape (http://www.inkscape.org/) -->
<svg
   xmlns:dc="http://purl.org/dc/elements/1.1/"
   xmlns:cc="http://creativecommons.org/ns#"
   xmlns:rdf="http://www.w3.org/1999/02/22-rdf-syntax-ns#"
   xmlns:svg="http://www.w3.org/2000/svg"
   xmlns="http://www.w3.org/2000/svg"
   xmlns:sodipodi="http://sodipodi.sourceforge.net/DTD/sodipodi-0.dtd"
   xmlns:inkscape="http://www.inkscape.org/namespaces/inkscape"
   width="250"
   height="250"
   id="svg2"
   sodipodi:version="0.32"
   inkscape:version="0.46"
   version="1.0"
   sodipodi:docname="Malden-icon.svg"
   inkscape:output_extension="org.inkscape.output.svg.inkscape">
  <defs
     id="defs4">
    <inkscape:perspective
       sodipodi:type="inkscape:persp3d"
       inkscape:vp_x="0 : 526.18109 : 1"
       inkscape:vp_y="0 : 1000 : 0"
       inkscape:vp_z="744.09448 : 526.18109 : 1"
       inkscape:persp3d-origin="372.04724 : 350.78739 : 1"
       id="perspective10" />
    <inkscape:perspective
       id="perspective3217"
       inkscape:persp3d-origin="372.04724 : 350.78739 : 1"
       inkscape:vp_z="744.09448 : 526.18109 : 1"
       inkscape:vp_y="0 : 1000 : 0"
       inkscape:vp_x="0 : 526.18109 : 1"
       sodipodi:type="inkscape:persp3d" />
  </defs>
  <sodipodi:namedview
     id="base"
     pagecolor="#ffffff"
     bordercolor="#666666"
     borderopacity="1.0"
     gridtolerance="10000"
     guidetolerance="10"
     objecttolerance="10"
     inkscape:pageopacity="0.0"
     inkscape:pageshadow="2"
     inkscape:zoom="3.772"
     inkscape:cx="93.319194"
     inkscape:cy="125"
     inkscape:document-units="px"
     inkscape:current-layer="layer1"
     showgrid="false"
     inkscape:window-width="1904"
     inkscape:window-height="1150"
     inkscape:window-x="0"
     inkscape:window-y="14" />
  <metadata
     id="metadata7">
    <rdf:RDF>
      <cc:Work
         rdf:about="">
        <dc:format>image/svg+xml</dc:format>
        <dc:type
           rdf:resource="http://purl.org/dc/dcmitype/StillImage" />
      </cc:Work>
    </rdf:RDF>
  </metadata>
  <g
     inkscape:label="Layer 1"
     inkscape:groupmode="layer"
     id="layer1">
    <g
       id="g2569">
      <rect
         y="31.194683"
         x="31.121555"
         height="187.96394"
         width="188.75928"
         id="rect3657"
         style="fill:#ffffff;fill-opacity:1;stroke:none;stroke-width:2;stroke-linecap:square;stroke-linejoin:miter;stroke-miterlimit:4;stroke-dasharray:none;stroke-opacity:1" />
      <path
         id="path3642"
         d="M 79.719867,58.897274 L 80.802804,62.988367 L 83.871123,59.168008 L 79.719867,58.897274 z"
         style="fill:#000000;fill-rule:evenodd;stroke:#000000;stroke-width:1px;stroke-linecap:butt;stroke-linejoin:miter;stroke-opacity:1" />
      <path
         id="path3232"
         d="M 24.99975,24.999524 L 24.999749,224.99963 L 224.99987,224.99962 L 224.99987,24.999521 L 24.99975,24.999524 z M 39.999759,39.99953 L 209.99986,39.999533 L 209.99986,209.99962 L 39.999753,209.99962 L 39.999759,39.99953 z"
         style="fill:#000000;fill-opacity:1;stroke:none;stroke-width:0.5;stroke-linecap:butt;stroke-linejoin:miter;stroke-miterlimit:4;stroke-dasharray:none;stroke-opacity:1" />
      <path
         id="rect3228"
         d="M 44.999759,44.999538 L 44.999762,204.99962 L 204.99987,204.99962 L 204.99986,44.999543 L 44.999759,44.999538 z M 59.999769,59.999544 L 189.99985,59.999547 L 189.99985,189.9996 L 59.999774,189.99962 L 59.999769,59.999544 z"
         style="fill:#000000;fill-opacity:1;stroke:none;stroke-width:0.5;stroke-linecap:butt;stroke-linejoin:miter;stroke-miterlimit:4;stroke-dasharray:none;stroke-opacity:1" />
      <path
         sodipodi:nodetypes="cszzzzzzszzzzzz"
         id="path3273"
         d="M 66.291063,73.904083 C 63.075907,72.696663 62.472601,68.584215 63.303726,66.841381 C 64.272241,64.810444 67.019048,64.18742 70.916886,65.233718 C 74.582927,66.21779 124.47916,83.571693 133.02339,86.081215 C 141.67674,88.622786 142.63556,98.834267 139.04204,103.05939 C 135.27676,107.48644 104.61009,142.64769 101.20236,146.58895 C 97.799506,150.52459 87.515532,151.21908 83.564789,142.9763 C 79.658139,134.82551 56.134801,87.674353 54.535353,84.078013 C 52.935904,80.481673 53.556943,77.691087 55.068054,76.315667 C 56.579168,74.940251 61.005309,75.90295 62.496772,78.569111 C 63.988222,81.235288 85.960862,126.72301 89.54157,133.6997 C 93.234908,140.89586 96.959885,137.14693 98.435256,135.48128 C 99.734856,134.01405 126.19321,103.27598 127.65083,101.57116 C 129.09682,99.879917 132.71064,95.707191 125.09757,93.437126 C 117.71658,91.236262 69.272456,75.023717 66.291063,73.904083 z"
         style="fill:#ffffff;fill-opacity:1;fill-rule:evenodd;stroke:#000000;stroke-width:3.00000167;stroke-linecap:butt;stroke-linejoin:miter;stroke-miterlimit:4;stroke-dasharray:none;stroke-opacity:1" />
      <path
         id="path3258"
         d="M 49.513021,33.37991 C 32.953005,33.379916 19.513003,46.819918 19.513001,63.379929 C 19.512996,79.939946 32.953003,93.379953 49.513015,93.37995 C 66.073031,93.379943 79.513033,79.939941 79.513035,63.379931 C 79.513037,46.81992 66.073024,33.379918 49.513021,33.37991 z M 49.513014,43.973674 C 60.235249,43.973669 68.919276,52.657702 68.919277,63.379933 C 68.919276,74.102162 60.235255,82.817437 49.513012,82.817448 C 38.790782,82.817443 30.075504,74.102164 30.07551,63.379926 C 30.075509,52.657695 38.790785,43.973669 49.513014,43.973674 z"
         style="fill:#ffffff;fill-opacity:1;stroke:#000000;stroke-width:3.00000191;stroke-linecap:butt;stroke-linejoin:miter;stroke-miterlimit:4;stroke-dasharray:none;stroke-opacity:1" />
      <path
         sodipodi:nodetypes="csssssccsssssccsssssccssssscc"
         d="M 85.138402,57.908754 C 88.589849,54.079245 97.372237,52.892277 102.90138,61.473033 C 108.44755,70.080258 135.08711,111.25947 146.38801,129.36147 C 148.51876,132.77454 152.77975,132.31637 154.77897,130.04559 C 156.77818,127.77478 156.56871,124.29652 154.30106,122.28877 C 152.03344,120.28103 148.53707,120.48885 146.53093,122.76752 C 145.31944,124.14359 144.91459,125.96661 145.2902,127.62905 C 143.62315,124.972 141.69618,121.93284 139.57931,118.60418 C 139.8601,118.20561 140.17344,117.83476 140.50295,117.46049 C 145.4395,111.85334 154.00419,111.30771 159.60809,116.26081 C 165.21199,121.21386 165.96061,129.3234 160.80694,135.35261 C 155.57684,141.47123 145.42388,142.56278 139.9401,134.50992 C 125.34735,113.08073 101.27666,76.508309 97.42765,70.102186 C 93.597429,63.727364 90.522733,66.291791 88.433489,68.637201 C 78.864136,79.358704 69.364398,90.142724 59.944742,100.99603 C 57.882922,103.36557 55.728706,106.74039 62.537423,109.73209 C 69.379561,112.73848 108.70689,131.98173 131.81219,143.74196 C 140.49491,148.1613 140.69849,158.37075 135.2918,164.33389 C 129.9641,170.20989 121.82507,170.49473 116.20193,165.5635 C 110.57878,160.63229 110.03491,152.06748 114.97147,146.46033 C 115.30097,146.08607 115.62914,145.72827 115.98892,145.39922 C 119.55896,147.07733 122.81778,148.60372 125.6646,149.92073 C 123.96797,149.75874 122.21093,150.39131 120.99943,151.76736 C 118.99329,154.04605 119.23011,157.54055 121.50896,159.53553 C 123.78782,161.53053 127.26461,161.29766 129.26382,159.02684 C 131.26303,156.75606 131.17766,152.47136 127.52215,150.79018 C 108.13426,141.87374 63.911817,120.66598 54.671282,116.25496 C 45.459171,111.85751 45.523901,102.99551 48.885281,99.086717 C 60.919776,85.317095 72.98714,71.575545 85.138402,57.908754 z"
         style="fill:#000000;fill-opacity:1;stroke:#ffffff;stroke-width:1;stroke-linecap:butt;stroke-linejoin:miter;stroke-miterlimit:4;stroke-dasharray:none;stroke-opacity:1"
         id="path3228" />
      <path
         sodipodi:nodetypes="csccsccc"
         d="M 106.28104,140.71831 C 104.96362,142.23253 101.64667,146.06202 101.18729,146.59331 C 97.784436,150.52896 87.513019,151.21108 83.562282,142.96831 C 74.538229,124.01646 63.527705,103.05816 54.531022,84.093302 C 52.931574,80.496962 53.551163,77.687467 55.062274,76.312048 C 56.573391,74.936633 61.008312,75.895888 62.499775,78.56205 C 71.069505,96.162087 80.977715,116.07995 89.53103,133.68706 C 92.566342,139.6011 95.562996,138.13865 97.374783,136.49956"
         style="fill:#ffffff;fill-opacity:1;fill-rule:evenodd;stroke:#000000;stroke-width:3.00000167;stroke-linecap:butt;stroke-linejoin:miter;stroke-miterlimit:4;stroke-dasharray:none;stroke-opacity:1"
         id="path3385" />
      <path
         sodipodi:nodetypes="cccsccsc"
         d="M 128.15605,100.90581 C 129.72745,98.978807 131.95676,95.483533 125.09355,93.437061 C 106.16574,87.560412 85.185833,79.856519 66.281025,73.905798 C 63.06587,72.69838 62.481149,68.586133 63.312273,66.843299 C 64.280785,64.812361 67.008187,64.172002 70.906025,65.2183 C 90.946214,71.514407 112.98901,79.8029 133.03105,86.093303 C 141.68441,88.634868 142.62458,98.836937 139.03105,103.06205 C 138.48741,103.70125 135.06457,107.60914 133.5623,109.3433"
         style="fill:#ffffff;fill-opacity:1;fill-rule:evenodd;stroke:#000000;stroke-width:3.00000167;stroke-linecap:butt;stroke-linejoin:miter;stroke-miterlimit:4;stroke-dasharray:none;stroke-opacity:1"
         id="path3377" />
      <path
         sodipodi:nodetypes="ccsssccsssscc"
         d="M 95.105329,125.42155 C 107.36795,131.44299 119.61158,137.60357 131.8123,143.74956 C 140.49501,148.16891 140.68774,158.38018 135.28105,164.34332 C 129.95334,170.21932 121.81044,170.4933 116.1873,165.56207 C 110.56415,160.63085 110.03199,152.07548 114.96854,146.46832 C 115.29804,146.09406 115.64,145.73485 115.99979,145.40581 C 119.56984,147.08392 122.80923,148.5888 125.65605,149.90581 C 123.95941,149.74382 122.2113,150.40476 120.99979,151.78081 C 118.99366,154.05951 119.22094,157.53583 121.4998,159.53082 C 123.77865,161.52582 127.25059,161.30163 129.2498,159.03082 C 131.24901,156.76003 131.18656,152.46199 127.53105,150.78081 C 127.0336,150.55204 126.18518,150.15029 125.65605,149.90581 C 114.95384,144.84168 103.85496,139.67103 93.154779,134.60256"
         style="fill:#000000;fill-opacity:1;stroke:#ffffff;stroke-width:1;stroke-linecap:round;stroke-linejoin:miter;stroke-miterlimit:4;stroke-dasharray:none;stroke-opacity:1"
         id="path3437" />
      <path
         sodipodi:nodetypes="ccsssccssscc"
         d="M 116.89179,100.10052 C 124.483,111.60488 132.22354,123.07698 139.9373,134.49956 C 145.42109,142.55242 155.58222,141.46194 160.81231,135.34331 C 165.96598,129.3141 165.19746,121.20262 159.59356,116.24956 C 153.98965,111.29646 145.43635,111.86117 140.4998,117.46831 C 140.17029,117.84259 139.87434,118.19473 139.59355,118.5933 C 141.71042,121.92196 143.614,124.9675 145.28105,127.62456 C 144.90543,125.96211 145.31956,124.15688 146.53105,122.78081 C 148.53719,120.50214 152.04468,120.27306 154.3123,122.2808 C 156.57995,124.28855 156.78027,127.75999 154.78105,130.03081 C 152.78184,132.30159 148.50556,132.78763 146.3748,129.37455 C 139.57276,118.67971 132.82732,108.01273 125.97479,97.350179"
         style="fill:#000000;fill-opacity:1;stroke:#ffffff;stroke-width:1;stroke-linecap:round;stroke-linejoin:miter;stroke-miterlimit:4;stroke-dasharray:none;stroke-opacity:1"
         id="path3421" />
      <path
         sodipodi:nodetypes="cssssssccsssssscc"
         d="M 227.31864,173.15586 C 231.53951,168.19269 229.98707,157.20921 220.18362,153.16507 C 210.6128,149.21688 160.93146,123.9559 156.6125,122.78896 C 152.59447,121.70332 149.62399,122.14423 148.1818,123.86582 C 147.97577,124.11176 147.80301,124.35691 147.66108,124.65536 C 146.68673,126.70424 147.41373,129.20349 151.20232,130.63218 C 154.71547,131.95697 205.3457,156.98036 213.54611,160.56249 C 221.82241,164.17778 217.9489,169.37364 216.25046,171.36031 C 203.8026,185.64931 191.41265,199.98892 178.9522,214.26695 C 177.22125,216.22535 172.61504,220.7843 167.8831,213.09169 C 163.19454,205.46962 131.3683,158.81472 129.56747,155.52013 C 127.62541,151.96724 125.0493,151.59515 123.15597,152.84517 C 122.74228,153.11831 122.39473,153.45025 122.11855,153.84806 C 120.92176,155.57187 121.03598,158.41481 122.55353,161.96923 C 124.3102,166.08375 156.21915,211.78952 161.46093,220.71771 C 166.83009,229.86292 177.94324,229.84806 182.27068,224.97752 C 197.25531,207.67684 212.37971,190.49615 227.31864,173.15586 z"
         style="fill:#ffffff;fill-opacity:1;fill-rule:evenodd;stroke:#000000;stroke-width:3.00001478;stroke-linecap:butt;stroke-linejoin:miter;stroke-miterlimit:4;stroke-dasharray:none;stroke-opacity:1"
         id="path2390" />
      <path
         id="path3485"
         d="M 145.92569,147.05976 C 130.26476,165.07561 127.56047,188.52559 138.65692,198.17158 C 149.75338,207.81758 172.46976,202.02461 188.13069,184.00876 C 203.79161,165.99293 206.4958,142.54286 195.39935,132.89687 C 184.3029,123.25088 161.5866,129.04392 145.92569,147.05976 z M 151.77819,152.27764 C 164.04275,138.16886 180.82859,132.65722 189.24656,139.97485 C 197.66453,147.29247 194.54266,164.68202 182.2781,178.79079 C 170.01353,192.89957 153.2277,198.41124 144.80972,191.0936 C 136.39174,183.77597 139.51362,166.38642 151.77819,152.27764 z"
         style="fill:#000000;fill-opacity:1;stroke:#ffffff;stroke-width:1;stroke-linecap:round;stroke-linejoin:miter;stroke-miterlimit:4;stroke-dasharray:none;stroke-opacity:1"
         sodipodi:nodetypes="csssccsssc" />
      <path
         id="path3568"
         style="fill:#ffffff;fill-opacity:1;fill-rule:evenodd;stroke:#000000;stroke-width:3.00000167;stroke-linecap:square;stroke-linejoin:miter;stroke-miterlimit:4;stroke-dasharray:none;stroke-opacity:1"
         d="M 191.92419,139.55759 C 180.23056,133.80658 168.52549,128.09118 156.61705,122.79325 C 152.15903,121.50916 149.00922,122.68328 147.65726,124.66662 C 146.30529,126.64999 147.83103,129.32301 151.18684,130.63131 C 161.38507,135.82964 173.15324,140.94479 183.38456,146.07756"
         sodipodi:nodetypes="ccscc" />
      <path
         sodipodi:nodetypes="ccscc"
         d="M 141.27069,190.15776 C 134.79868,180.9335 128.51449,171.54779 122.53962,161.99486 C 120.64759,157.75893 121.37191,154.47637 123.14779,152.86154 C 124.9237,151.2467 127.78306,152.38558 129.54566,155.52665 C 136.11273,164.90216 142.81591,175.84391 149.32265,185.26131"
         style="fill:#ffffff;fill-opacity:1;fill-rule:evenodd;stroke:#000000;stroke-width:3.00000167;stroke-linecap:square;stroke-linejoin:miter;stroke-miterlimit:4;stroke-dasharray:none;stroke-opacity:1"
         id="path3593" />
      <path
         sodipodi:nodetypes="ccccc"
         id="path3640"
         d="M 60.192153,101.20123 L 58.300389,103.81102 L 58.400192,106.865 L 61.074921,108.56166 L 60.192153,101.20123 z"
         style="fill:#ffffff;fill-rule:evenodd;stroke:none;stroke-width:1px;stroke-linecap:butt;stroke-linejoin:miter;stroke-opacity:1" />
    </g>
  </g>
</svg>
