<?xml version="1.0" encoding="UTF-8" standalone="no"?>
<!-- Created with Inkscape (http://www.inkscape.org/) -->

<svg
   xmlns:dc="http://purl.org/dc/elements/1.1/"
   xmlns:cc="http://creativecommons.org/ns#"
   xmlns:rdf="http://www.w3.org/1999/02/22-rdf-syntax-ns#"
   xmlns:svg="http://www.w3.org/2000/svg"
   xmlns="http://www.w3.org/2000/svg"
   xmlns:sodipodi="http://sodipodi.sourceforge.net/DTD/sodipodi-0.dtd"
   xmlns:inkscape="http://www.inkscape.org/namespaces/inkscape"
   width="300"
   height="300"
   id="svg2"
   sodipodi:version="0.32"
   inkscape:version="0.47 r22583"
   version="1.0"
   sodipodi:docname="Mice-icon.svg"
   inkscape:output_extension="org.inkscape.output.svg.inkscape">
  <defs
     id="defs4">
    <inkscape:perspective
       sodipodi:type="inkscape:persp3d"
       inkscape:vp_x="0 : 526.18109 : 1"
       inkscape:vp_y="0 : 1000 : 0"
       inkscape:vp_z="744.09448 : 526.18109 : 1"
       inkscape:persp3d-origin="372.04724 : 350.78739 : 1"
       id="perspective10" />
    <inkscape:perspective
       id="perspective3217"
       inkscape:persp3d-origin="372.04724 : 350.78739 : 1"
       inkscape:vp_z="744.09448 : 526.18109 : 1"
       inkscape:vp_y="0 : 1000 : 0"
       inkscape:vp_x="0 : 526.18109 : 1"
       sodipodi:type="inkscape:persp3d" />
  </defs>
  <sodipodi:namedview
     id="base"
     pagecolor="#ffffff"
     bordercolor="#666666"
     borderopacity="1.0"
     gridtolerance="10000"
     guidetolerance="10"
     objecttolerance="10"
     inkscape:pageopacity="0.0"
     inkscape:pageshadow="2"
     inkscape:zoom="3.01"
     inkscape:cx="150"
     inkscape:cy="150"
     inkscape:document-units="px"
     inkscape:current-layer="layer1"
     showgrid="false"
     inkscape:window-width="1904"
     inkscape:window-height="1150"
     inkscape:window-x="0"
     inkscape:window-y="14"
     showguides="true"
     inkscape:guide-bbox="true"
     inkscape:window-maximized="0" />
  <metadata
     id="metadata7">
    <rdf:RDF>
      <cc:Work
         rdf:about="">
        <dc:format>image/svg+xml</dc:format>
        <dc:type
           rdf:resource="http://purl.org/dc/dcmitype/StillImage" />
      </cc:Work>
    </rdf:RDF>
  </metadata>
  <g
     inkscape:label="Layer 1"
     inkscape:groupmode="layer"
     id="layer1">
    <g
       id="g3730">
      <rect
         y="60"
         x="60"
         height="180"
         width="180"
         id="rect3230"
         style="opacity:1;fill:#ffffff;fill-opacity:1;stroke:none" />
      <path
         style="fill:#000000;fill-rule:evenodd;stroke:#000000;stroke-width:2;stroke-linecap:butt;stroke-linejoin:round;stroke-miterlimit:4;stroke-opacity:1;stroke-dasharray:none"
         d="m 134.4257,85.927304 c 0.48797,1.09799 2.2519,2.234435 5.40068,1.444148 3.14878,-0.790287 4.66967,-1.382095 6.29577,-3.819042 1.62611,-2.436947 1.3911,-4.30182 -1.29867,-4.161196 -2.68977,0.140624 -7.64168,0.606028 -9.45141,1.66193 -1.80974,1.055902 -1.43434,3.77617 -0.94637,4.87416 z"
         id="path3192"
         sodipodi:nodetypes="czzzzz" />
      <path
         id="rect3223"
         d="m 50,50 0,200 200,0 0,-200 -200,0 z m 17.5,17.5 165,0 0,165 -165,0 0,-165 z"
         style="opacity:1;fill:#000000;fill-opacity:1;stroke:none" />
      <rect
         y="82.5"
         x="82.5"
         height="135"
         width="135"
         id="rect3228"
         style="opacity:1;fill:#000000;fill-opacity:1;stroke:none" />
      <path
         id="path3181"
         d="m 217.5,114.875 0,6.03125 c 1.8578,-1.90766 3.84881,-3.43761 7.40625,-3.59375 2.98216,-0.13089 5.48408,0.56783 7.59375,1.71875 l 0,-5.09375 c -2.31435,-0.89026 -4.89839,-1.37653 -7.78125,-1.25 -2.94678,0.12934 -5.28189,1.0001 -7.21875,2.1875 z"
         style="fill:#000000;fill-rule:evenodd;stroke:#000000;stroke-width:2;stroke-linecap:butt;stroke-linejoin:round;stroke-miterlimit:4;stroke-opacity:1;stroke-dasharray:none;opacity:1" />
      <path
         id="path3179"
         d="m 160.65625,82.5 -4.4375,0 c -0.87759,2.092976 -1.45201,4.511528 -1.21875,7.25 0.55266,6.488407 5.18676,11.01657 10.03125,13.3125 4.84449,2.29593 10.08065,2.98725 14.65625,2.0625 3.50923,-0.70923 6.9161,-1.60422 9.5,-1.78125 2.5839,-0.17703 3.79172,0.14633 4.78125,1.1875 0.567,0.59659 2.29346,5.38689 3.4375,10.1875 0.57202,2.4003 1.14002,4.81866 1.96875,7.0625 0.82873,2.24384 1.72076,4.70576 4.8125,6.25 1.42959,0.71405 3.43762,0.89444 4.9375,0.4375 1.49988,-0.45694 2.44593,-1.25223 3.21875,-1.96875 1.54563,-1.43305 2.53766,-2.87516 3.6875,-4.21875 0.46507,-0.54344 0.9978,-0.89141 1.46875,-1.375 l 0,-6.03125 c -6.03876,3.70211 -8.0372,10.63597 -11.25,9.03125 -4.20931,-2.10244 -4.38239,-17.76967 -8.9375,-22.5625 -4.38788,-4.616873 -11.95745,-2.078591 -18.53125,-0.75 -6.5738,1.3286 -18.41021,-2.124422 -19.1875,-11.25 -0.2381,-2.795388 0.24464,-5.028154 1.0625,-6.84375 z"
         style="fill:#ffffff;fill-rule:evenodd;stroke:#000000;stroke-width:2;stroke-linecap:butt;stroke-linejoin:round;stroke-miterlimit:4;stroke-opacity:1;stroke-dasharray:none;opacity:1" />
      <path
         id="path3174"
         d="m 232.5,147.3125 c 6.95253,-1.04891 11.95692,-8.34512 11.90625,-16.25 -0.044,-6.86307 -4.41006,-14.24145 -11.90625,-17.125 l 0,5.09375 c 4.7135,2.57143 7.25262,7.5966 7.28125,12.0625 0.0216,3.37394 -1.22786,6.66123 -3.09375,8.8125 -1.23003,1.41816 -2.65126,2.14034 -4.1875,2.53125 l 0,4.875 z"
         style="fill:#ffffff;fill-rule:evenodd;stroke:#000000;stroke-width:2;stroke-linecap:butt;stroke-linejoin:round;stroke-miterlimit:4;stroke-opacity:1;stroke-dasharray:none;opacity:1" />
      <path
         sodipodi:nodetypes="czzzz"
         id="path3185"
         d="m 197.84065,145.56924 c -2.56621,-0.12878 -7.36722,6.95396 -7.50498,8.62908 -0.13776,1.67512 4.6727,2.12145 6.21558,1.48777 1.54287,-0.63368 2.26972,-3.5828 2.5788,-5.22374 0.30306,-1.609 1.27825,-4.76426 -1.2894,-4.89311 z"
         style="fill:#ffffff;fill-rule:evenodd;stroke:#000000;stroke-width:2;stroke-linecap:butt;stroke-linejoin:round;stroke-miterlimit:4;stroke-opacity:1;stroke-dasharray:none;opacity:1" />
      <path
         sodipodi:nodetypes="czczczzzz"
         id="path3193"
         d="m 198.31654,167.71807 c -1.85096,1.17492 -8.26876,5.66484 -6.32371,7.96527 1.93028,2.28296 4.35154,-2.63878 6.57235,-4.49002 -1.79533,2.72469 -6.60851,5.7996 -4.84553,7.92541 1.78997,2.15836 5.44076,-3.62449 7.71514,-5.90837 -1.863,2.07741 -5.58411,6.0334 -3.54727,7.3732 2.02315,1.3308 6.21137,-5.03827 7.22,-6.87477 1.00863,-1.8365 -0.66532,-3.96416 -1.64864,-4.65465 -0.98332,-0.69049 -3.29138,-2.511 -5.14234,-1.33607 z"
         style="fill:#ffffff;fill-rule:evenodd;stroke:#000000;stroke-width:2;stroke-linecap:butt;stroke-linejoin:round;stroke-miterlimit:4;stroke-opacity:1;stroke-dasharray:none;opacity:1" />
      <path
         sodipodi:nodetypes="cczzzcc"
         id="path2384"
         d="m 168.73093,156.01962 c 5.38129,10.96664 17.76722,15.88265 24.68774,12.62655 6.66925,5.8526 11.57957,7.49582 21.35834,7.4126 9.84159,-0.0838 23.14345,-9.58192 23.55701,-23.36854 0.41193,-13.73227 -6.45974,-20.57578 -14.51112,-20.91861 -8.11408,-0.3455 -21.08613,6.47032 -26.82357,21.16988 -4.41824,-0.81664 -10.27085,-3.31891 -28.2684,3.07812 z"
         style="fill:#ffffff;fill-rule:evenodd;stroke:#000000;stroke-width:2;stroke-linecap:butt;stroke-linejoin:round;stroke-miterlimit:4;stroke-opacity:1;stroke-dasharray:none;opacity:1" />
      <path
         sodipodi:nodetypes="czzz"
         id="path3183"
         d="m 188.39987,162.31528 c 1.87014,-4.03355 11.13103,-5.0654 10.56352,0.76919 -0.57291,5.89015 -10.02838,4.90182 -9.28154,1.74349 0.74526,-3.15163 4.92281,1.05977 8.25596,-4.15361"
         style="fill:none;stroke:#000000;stroke-width:2;stroke-linecap:round;stroke-linejoin:miter;stroke-miterlimit:4;stroke-opacity:1;stroke-dasharray:none;opacity:1" />
      <path
         style="fill:none;stroke:#000000;stroke-width:2;stroke-linecap:round;stroke-linejoin:miter;stroke-miterlimit:4;stroke-opacity:1;stroke-dasharray:none"
         d="m 176.16179,160.07954 7.41124,-0.22442"
         id="path3720"
         sodipodi:nodetypes="cc" />
      <path
         transform="translate(0.247962,-0.3471468)"
         d="m 184.13661,161.46361 a 3.8434117,2.7027862 0 1 1 -7.68682,0 3.8434117,2.7027862 0 1 1 7.68682,0 z"
         sodipodi:ry="2.7027862"
         sodipodi:rx="3.8434117"
         sodipodi:cy="161.46361"
         sodipodi:cx="180.2932"
         id="path3187"
         style="opacity:1;fill:#000000;fill-opacity:1;stroke:none"
         sodipodi:type="arc" />
      <path
         sodipodi:type="arc"
         style="fill:#ffffff;fill-opacity:1;stroke:none"
         id="path3191"
         sodipodi:cx="180.2932"
         sodipodi:cy="161.46361"
         sodipodi:rx="3.8434117"
         sodipodi:ry="2.7027862"
         d="m 184.13661,161.46361 a 3.8434117,2.7027862 0 1 1 -7.68682,0 3.8434117,2.7027862 0 1 1 7.68682,0 z"
         transform="matrix(0.3761468,0,0,0.3761468,111.59466,99.684378)" />
      <path
         transform="matrix(0.6832513,0.7301833,-0.7301833,0.6832513,123.75176,-166.88996)"
         d="m 184.13661,161.46361 a 3.8434117,2.7027862 0 1 1 -7.68682,0 3.8434117,2.7027862 0 1 1 7.68682,0 z"
         sodipodi:ry="2.7027862"
         sodipodi:rx="3.8434117"
         sodipodi:cy="161.46361"
         sodipodi:cx="180.2932"
         id="path3190"
         style="opacity:1;fill:#000000;fill-opacity:1;stroke:none"
         sodipodi:type="arc" />
      <path
         id="path3177"
         d="m 116.75504,75.397667 2.63244,-12.473671"
         style="fill:none;stroke:#000000;stroke-width:1.5;stroke-linecap:butt;stroke-linejoin:miter;stroke-opacity:1;opacity:1;stroke-miterlimit:4;stroke-dasharray:none" />
      <path
         id="path3175"
         d="m 118.11259,75.27849 6.21355,-13.069118"
         style="fill:none;stroke:#000000;stroke-width:1.5;stroke-linecap:butt;stroke-linejoin:miter;stroke-opacity:1;opacity:1;stroke-miterlimit:4;stroke-dasharray:none" />
      <path
         id="path3166"
         d="m 119.25457,75.254288 10.22581,-13.8545"
         style="fill:none;stroke:#000000;stroke-width:1.5;stroke-linecap:butt;stroke-linejoin:miter;stroke-opacity:1;opacity:1;stroke-miterlimit:4;stroke-dasharray:none" />
      <path
         sodipodi:nodetypes="ccssscsssc"
         d="M 121.1556,132.32064 126.25,132 c 0.7017,11.64817 3.46573,18.61219 7.375,25.0625 3.63703,6.00111 8.70207,10.16824 12.54598,11.29777 4.34815,1.27769 8.41614,1.44661 14.43197,1.4466 5.43119,0 15.1774,-0.84844 17.43512,6.40409 -5.51249,-2.58557 -11.84935,-2.43647 -17.3671,-2.43647 -5.51724,1e-5 -10.55969,0.58983 -16.08347,-1.03333 -5.4551,-1.60298 -11.08024,-6.08688 -15.30515,-13.05799 -4.22491,-6.97111 -7.38117,-14.98602 -8.12675,-27.36253 z"
         style="fill:#ffffff;fill-rule:evenodd;stroke:#000000;stroke-width:2;stroke-linecap:butt;stroke-linejoin:round;stroke-miterlimit:4;stroke-opacity:1;stroke-dasharray:none;opacity:1"
         id="path3196" />
      <path
         sodipodi:nodetypes="czzzzzzz"
         id="path2394"
         d="m 114.55846,78.130647 c -0.13599,-4.935502 3.46793,-4.880424 6.15655,-4.909648 2.68862,-0.02922 14.06281,3.310394 19.8188,8.445765 5.6739,5.062117 12.2201,12.753766 12.28874,27.596786 0.0701,15.16115 -13.68987,29.51035 -23.53514,29.65323 -9.84568,0.14287 -18.01503,-7.33835 -18.00204,-20.02826 0.013,-12.68975 12.21102,-18.91128 12.07929,-24.470309 -0.12989,-5.481142 -8.67235,-11.429934 -8.8062,-16.287564 z"
         style="fill:#ffffff;fill-rule:evenodd;stroke:#000000;stroke-width:2;stroke-linecap:butt;stroke-linejoin:miter;stroke-miterlimit:4;stroke-opacity:1;stroke-dasharray:none;opacity:1" />
      <path
         sodipodi:type="arc"
         style="opacity:1;fill:#000000;fill-opacity:1;stroke:none"
         id="path3180"
         sodipodi:cx="180.2932"
         sodipodi:cy="161.46361"
         sodipodi:rx="3.8434117"
         sodipodi:ry="2.7027862"
         d="m 184.13661,161.46361 a 3.8434117,2.7027862 0 1 1 -7.68682,0 3.8434117,2.7027862 0 1 1 7.68682,0 z"
         transform="matrix(0.6832513,0.7301833,-0.7301833,0.6832513,118.02535,-158.61849)" />
      <path
         sodipodi:nodetypes="cc"
         id="path3726"
         d="m 125.30252,83.773537 -4.44366,-3.551833"
         style="fill:none;stroke:#000000;stroke-width:2;stroke-linecap:round;stroke-linejoin:miter;stroke-miterlimit:4;stroke-opacity:1;stroke-dasharray:none" />
      <path
         transform="matrix(0.2570028,0.2746561,-0.2746561,0.2570028,121.80794,-6.9099275)"
         d="m 184.13661,161.46361 a 3.8434117,2.7027862 0 1 1 -7.68682,0 3.8434117,2.7027862 0 1 1 7.68682,0 z"
         sodipodi:ry="2.7027862"
         sodipodi:rx="3.8434117"
         sodipodi:cy="161.46361"
         sodipodi:cx="180.2932"
         id="path3182"
         style="opacity:1;fill:#ffffff;fill-opacity:1;stroke:none"
         sodipodi:type="arc" />
      <path
         style="fill:none;stroke:#000000;stroke-width:2;stroke-linecap:round;stroke-linejoin:miter;stroke-miterlimit:4;stroke-opacity:1;stroke-dasharray:none;opacity:1"
         d="m 136.17394,90.288914 c -1.80779,3.162142 1.46001,10.081106 -4.40069,9.951816 -5.91651,-0.13051 -5.10573,-11.179015 -2.69971,-10.884049 2.39901,0.294106 3.30935,7.440276 5.07962,9.147958"
         id="path3194"
         sodipodi:nodetypes="czzz" />
      <path
         style="fill:#ffffff;fill-rule:evenodd;stroke:#000000;stroke-width:2;stroke-linecap:butt;stroke-linejoin:round;stroke-miterlimit:4;stroke-opacity:1;stroke-dasharray:none;opacity:1"
         d="m 167.41772,138.97249 c -1.30488,1.76175 -5.67966,8.25859 -3.03767,9.70604 2.62191,1.43647 3.11207,-4.02666 4.51896,-6.55248 -0.69587,3.18794 -4.08195,7.78753 -1.67264,9.13748 2.4462,1.37063 3.77416,-5.33802 5.0755,-8.28683 -0.99169,2.60826 -3.04197,7.63745 -0.65966,8.1555 2.3663,0.51457 3.98503,-6.93433 4.26607,-9.01064 0.28102,-2.07632 -2.04588,-3.46001 -3.21168,-3.75086 -1.1658,-0.29085 -3.97401,-1.15998 -5.27888,0.60179 z"
         id="path3229"
         sodipodi:nodetypes="czczczzzz" />
      <path
         id="path3265"
         d="m 217.5,83.15625 0,-0.65625 -5.875,0 c -3.25925,4.341846 -6.22864,8.875291 -8.6875,13.625 l 4.53125,2.34375 c 2.76823,-5.347311 6.1822,-10.477076 10.03125,-15.3125 z"
         style="fill:#ffffff;fill-rule:evenodd;stroke:#000000;stroke-width:2;stroke-linecap:butt;stroke-linejoin:round;stroke-miterlimit:4;stroke-opacity:1;stroke-dasharray:none;opacity:1" />
      <path
         sodipodi:nodetypes="czzzzzzzzzzzc"
         id="path3218"
         d="m 149.93776,149.33084 c -0.25904,-2.23993 0.19622,-4.56347 0.68382,-6.49864 0.48761,-1.93517 1.52562,-3.13151 1.96751,-4.65526 0.44189,-1.52376 -0.001,-3.34 0.18285,-5.02841 0.18286,-1.67613 5.50343,-12.30567 7.22262,-13.16526 1.64566,-0.82283 3.51988,0.42665 4.57127,-0.91426 1.05139,-1.34091 1.08186,-5.10458 2.10278,-9.69109 1.01679,-4.56795 3.53512,-11.230101 8.41115,-15.633761 4.87602,-4.40366 12.84527,-7.954014 20.66215,-7.954015 7.72545,0 16.41088,7.085471 16.36516,18.376516 -0.0461,11.38247 -3.59607,14.68903 -12.52529,22.12496 -8.92922,7.43594 -39.09669,21.87579 -41.3243,22.67352 -2.25516,0.80759 -6.50645,0.86854 -8.31972,0.3657 z"
         style="fill:#ffffff;fill-rule:evenodd;stroke:#000000;stroke-width:2;stroke-linecap:butt;stroke-linejoin:miter;stroke-miterlimit:4;stroke-opacity:1;stroke-dasharray:none;opacity:1" />
      <path
         sodipodi:type="arc"
         style="opacity:1;fill:#000000;fill-opacity:1;stroke:none"
         id="path3220"
         sodipodi:cx="180.2932"
         sodipodi:cy="161.46361"
         sodipodi:rx="3.8434117"
         sodipodi:ry="2.7027862"
         d="m 184.13661,161.46361 a 3.8434117,2.7027862 0 1 1 -7.68682,0 3.8434117,2.7027862 0 1 1 7.68682,0 z"
         transform="matrix(0.6985087,-0.7156016,0.7156016,0.6985087,-79.918203,158.58095)" />
      <path
         style="fill:none;stroke:#000000;stroke-width:2;stroke-linecap:round;stroke-linejoin:miter;stroke-miterlimit:4;stroke-opacity:1;stroke-dasharray:none"
         d="m 158.95263,144.71326 4.27147,-5.31561"
         id="path3728"
         sodipodi:nodetypes="cc" />
      <path
         transform="matrix(0.2627418,-0.2691713,0.2691713,0.2627418,71.296635,147.67832)"
         d="m 184.13661,161.46361 a 3.8434117,2.7027862 0 1 1 -7.68682,0 3.8434117,2.7027862 0 1 1 7.68682,0 z"
         sodipodi:ry="2.7027862"
         sodipodi:rx="3.8434117"
         sodipodi:cy="161.46361"
         sodipodi:cx="180.2932"
         id="path3222"
         style="opacity:1;fill:#ffffff;fill-opacity:1;stroke:none"
         sodipodi:type="arc" />
      <path
         id="path3224"
         d="m 157.625,114.6875 c -1.58874,0.0205 -2.19008,2.73104 -2.5625,5.6875 -0.16346,1.29764 -0.0279,3.99316 0.40625,6.53125 1.64739,-3.19816 3.60766,-6.47571 4.53125,-6.9375 0.13515,-0.0676 0.2686,-0.11405 0.40625,-0.15625 -0.8075,-2.73716 -1.9283,-5.13603 -2.78125,-5.125 z"
         style="fill:#ffffff;fill-rule:evenodd;stroke:#000000;stroke-width:2;stroke-linecap:butt;stroke-linejoin:miter;stroke-miterlimit:4;stroke-opacity:1;stroke-dasharray:none;opacity:1" />
      <path
         sodipodi:nodetypes="ccc"
         id="path3233"
         d="m 171.75471,138.62732 c -1.85572,1.73033 -3.18483,3.38543 -3.61114,6.01855 18.99325,-7.1192 23.76923,-19.30479 18.28138,-20.98973"
         style="fill:#ffffff;fill-rule:evenodd;stroke:#000000;stroke-width:2;stroke-linecap:round;stroke-linejoin:miter;stroke-miterlimit:4;stroke-opacity:1;stroke-dasharray:none;opacity:1" />
      <path
         style="fill:none;stroke:#000000;stroke-width:2;stroke-linecap:round;stroke-linejoin:miter;stroke-miterlimit:4;stroke-opacity:1;stroke-dasharray:none;opacity:1"
         d="m 170.0098,128.9065 c 4.35053,-3.47727 8.71334,-5.23628 9.7558,-4.46539 1.04246,0.77089 1.12384,6.26419 -1.17267,8.92466 -2.29651,2.66048 -8.56792,2.72624 -7.41362,0.23699 1.12357,-2.42298 6.72631,-4.0816 9.0579,-8.19872"
         id="path3231"
         sodipodi:nodetypes="czszz" />
      <path
         id="path3262"
         d="m 225.09375,67.5 c -4.90774,4.548045 -9.42658,9.615175 -13.46875,15 l 5.875,0 0,0.65625 c 3.42628,-4.304318 7.19327,-8.380269 11.21875,-12.09375 1.2342,-1.13854 2.51358,-2.079317 3.78125,-3.09375 l 0,-0.46875 -7.40625,0 z"
         style="fill:#000000;fill-rule:evenodd;stroke:#000000;stroke-width:2;stroke-linecap:butt;stroke-linejoin:round;stroke-miterlimit:4;stroke-opacity:1;stroke-dasharray:none;opacity:1" />
      <path
         id="path3260"
         d="M 250,55.09375 250,50 l -1.59375,0 c -5.27856,4.636515 -14.48902,9.345837 -23.125,17.3125 -0.0647,0.05965 -0.12295,0.127681 -0.1875,0.1875 l 7.40625,0 0,0.46875 c 6.22677,-4.982892 12.52371,-8.807839 17.5,-12.875 z"
         style="fill:#ffffff;fill-rule:evenodd;stroke:#000000;stroke-width:2;stroke-linecap:butt;stroke-linejoin:round;stroke-miterlimit:4;stroke-opacity:1;stroke-dasharray:none;opacity:1" />
      <path
         sodipodi:nodetypes="cscczcz"
         id="path3176"
         d="m 167.28125,74.15625 c -3.48333,0.02376 -5.06687,0.997366 -7.125,2.71875 -1.47269,1.23173 -2.92104,3.200838 -3.9375,5.625 l 4.4375,0 c 0.95613,-5.761172 5.23108,-7.243292 7.80833,-7.073176 2.5904,0.170985 5.57224,2.454344 5.00417,6.041926 0.76087,-4.740536 -2.70417,-7.336256 -6.1875,-7.3125 z"
         style="fill:#000000;fill-rule:evenodd;stroke:#000000;stroke-width:2;stroke-linecap:butt;stroke-linejoin:round;stroke-miterlimit:4;stroke-opacity:1;stroke-dasharray:none;opacity:1" />
      <path
         sodipodi:nodetypes="cssczzszscccsszc"
         id="path3235"
         d="m 245.875,20.5625 c -4.6149,-0.0325 -7.21547,0.722702 -10.125,3.3125 -2.95744,2.632446 -3.57625,6.022554 -3.21875,8.6875 0.31126,2.320296 2.02756,3.952573 3.34375,4.625 -2.88865,-1.452435 -4.932,-6.320603 -0.70366,-10.578588 4.20496,-4.234439 7.82139,-4.247089 11.37589,-3.843898 3.55449,0.403192 6.71871,3.069255 8.06272,5.36006 1.42181,2.423411 2.08589,5.408256 1.7183,8.968676 -0.358,3.467635 -1.1208,6.282125 -6.547,11.78125 -0.36974,0.374714 -0.94918,0.750972 -1.375,1.125 L 250,50 l 0,5.09375 c 1.0667,-0.871825 2.21116,-1.730133 3.125,-2.65625 6.04488,-6.126124 7.17468,-10.674427 7.1588,-15.061839 -0.0162,-4.484908 -1.06877,-8.407494 -3.72675,-11.597013 -2.62616,-3.151334 -6.06679,-5.183645 -10.68205,-5.216148 z"
         style="fill:#000000;fill-rule:evenodd;stroke:#000000;stroke-width:2;stroke-linecap:butt;stroke-linejoin:round;stroke-miterlimit:4;stroke-opacity:1;stroke-dasharray:none;opacity:1" />
      <path
         id="path3294"
         d="m 67.5,79.59375 0,9.03125 c 1.42835,1.980666 2.762627,4.067499 4.25,5.96875 L 76.03125,91.25 C 73.180843,87.606436 70.239475,83.570227 67.5,79.59375 z"
         style="fill:#000000;fill-rule:evenodd;stroke:#000000;stroke-width:2;stroke-linecap:round;stroke-linejoin:round;stroke-miterlimit:4;stroke-opacity:1;stroke-dasharray:none;opacity:1" />
      <path
         id="path3292"
         d="M 51.71875,50 50,50 l 0,4.21875 c 1.438601,4.411387 3.025174,9.150255 5.1875,13.90625 3.400179,7.478629 7.730019,14.145563 12.3125,20.5 l 0,-9.03125 C 64.378821,75.063211 61.518088,70.607641 59.5625,66.84375 56.958476,61.831825 54.391585,55.865594 51.71875,50 z"
         style="fill:#ffffff;fill-rule:evenodd;stroke:#000000;stroke-width:2;stroke-linecap:round;stroke-linejoin:round;stroke-miterlimit:4;stroke-opacity:1;stroke-dasharray:none;opacity:1" />
      <path
         id="path3279"
         d="m 32.625,30.34375 c -7.320906,0.0289 -10.256069,3.897871 -10.21875,9.3125 0.03799,5.511447 3.882965,8.014895 6.28125,8.03125 2.301466,0.0157 2.547692,-0.831926 3.46875,-1.625 -0.213856,0.563281 -1.583075,1.536251 -4.0625,1.1875 -2.503703,-0.352168 -5.550132,-3.985096 -5.15625,-7.9375 0.394603,-3.959632 3.16663,-7.369205 7.625,-7.8125 4.727107,-0.470017 11.356476,2.397718 15,10.34375 1.578408,3.442293 2.919857,7.721236 4.4375,12.375 L 50,50 51.71875,50 C 50.755476,47.886074 49.92,46.106996 48.875,43.9375 44.960744,35.811215 39.66451,30.315963 32.625,30.34375 z"
         style="fill:#000000;fill-rule:evenodd;stroke:#000000;stroke-width:2;stroke-linecap:round;stroke-linejoin:round;stroke-miterlimit:4;stroke-opacity:1;stroke-dasharray:none;opacity:1" />
      <path
         sodipodi:nodetypes="czzzzzzzzzczzz"
         id="path3267"
         d="m 78.855304,86.064421 c -6.140703,0.257357 -8.313361,2.013099 -10.876594,4.561152 -2.563233,2.548053 -4.264918,6.660677 -4.298008,13.595747 -0.03267,6.84735 1.846583,12.28039 5.438297,18.59546 3.613349,6.35311 15.333136,15.07089 17.104321,17.98147 1.732073,2.84631 1.844587,5.52304 4.73658,8.42059 2.935518,2.94116 5.695434,2.19087 7.543444,3.50857 1.848016,1.3177 4.707626,5.36948 6.315436,5.78916 1.52555,0.3982 4.77411,-0.62015 5.78916,-1.92972 0.98305,-1.26828 -0.88077,-10.77017 -2.71915,-15.61318 -1.85687,-4.89171 -6.26096,-7.23421 -7.8943,-11.92916 1.09136,-5.31995 1.8397,-7.87609 1.75429,-14.12203 -0.0866,-6.33364 -0.9806,-12.98447 -5.262869,-19.823469 -4.321656,-6.901896 -11.74809,-9.281126 -17.630607,-9.03459 z"
         style="fill:#ffffff;fill-rule:evenodd;stroke:#000000;stroke-width:2;stroke-linecap:butt;stroke-linejoin:miter;stroke-miterlimit:4;stroke-opacity:1;stroke-dasharray:none;opacity:1" />
      <path
         transform="matrix(-0.6648942,-0.7469376,0.7469376,-0.6648942,100.1782,391.54089)"
         d="m 184.13661,161.46361 a 3.8434117,2.7027862 0 1 1 -7.68682,0 3.8434117,2.7027862 0 1 1 7.68682,0 z"
         sodipodi:ry="2.7027862"
         sodipodi:rx="3.8434117"
         sodipodi:cy="161.46361"
         sodipodi:cx="180.2932"
         id="path3269"
         style="opacity:1;fill:#000000;fill-opacity:1;stroke:none"
         sodipodi:type="arc" />
      <path
         style="fill:none;stroke:#000000;stroke-width:2;stroke-linecap:round;stroke-linejoin:miter;stroke-miterlimit:4;stroke-opacity:1;stroke-dasharray:none"
         d="m 103.57209,152.32944 -2.07505,-4.32224"
         id="path3724"
         sodipodi:nodetypes="cc" />
      <path
         sodipodi:type="arc"
         style="opacity:1;fill:#ffffff;fill-opacity:1;stroke:none"
         id="path3271"
         sodipodi:cx="180.2932"
         sodipodi:cy="161.46361"
         sodipodi:rx="3.8434117"
         sodipodi:ry="2.7027862"
         d="m 184.13661,161.46361 a 3.8434117,2.7027862 0 1 1 -7.68682,0 3.8434117,2.7027862 0 1 1 7.68682,0 z"
         transform="matrix(-0.2500979,-0.2809582,0.2809582,-0.2500979,100.26316,240.1615)" />
      <path
         sodipodi:nodetypes="ccc"
         id="path3273"
         d="m 98.2402,132.55309 c -0.906383,-3.4501 1.169526,-7.60192 4.91201,-8.50831 1.05257,1.95896 0.70171,9.00536 -1.75429,9.91174"
         style="fill:#ffffff;fill-rule:evenodd;stroke:#000000;stroke-width:2;stroke-linecap:round;stroke-linejoin:round;stroke-miterlimit:4;stroke-opacity:1;stroke-dasharray:none;opacity:1" />
      <path
         sodipodi:nodetypes="ccc"
         id="path3275"
         d="m 88.25121,135.62309 c -3.816816,1.31481 -6.874902,-0.74231 -11.107688,-2.19353 -1.072683,5.65904 7.003888,10.78955 11.88666,9.47383"
         style="fill:#ffffff;fill-rule:evenodd;stroke:#000000;stroke-width:2;stroke-linecap:round;stroke-linejoin:round;stroke-miterlimit:4;stroke-opacity:1;stroke-dasharray:none;opacity:1" />
      <path
         sodipodi:nodetypes="ccc"
         id="path3277"
         d="m 88.82074,137.99869 0.496199,1.44735 c -4.811133,2.1324 -9.413556,-1.93642 -11.734843,-5.36436"
         style="fill:none;stroke:#000000;stroke-width:2;stroke-linecap:round;stroke-linejoin:round;stroke-miterlimit:4;stroke-opacity:1;stroke-dasharray:none;opacity:1" />
      <path
         sodipodi:nodetypes="cscsscsssscccccsssszc"
         id="path3296"
         d="m 143.96875,153.6875 c -2.4496,0.74053 -11.88185,3.02624 -15.65625,4.5 -1.39554,0.54491 -4.0221,2.12786 -6.875,3.90625 -2.1175,0.63116 -9.39392,-0.63583 -10.5625,0.59375 -1.20902,1.27212 -0.70722,3.26604 0.75,3.78125 0.56823,0.2009 1.38137,0.29695 2.25,0.34375 -2.49313,1.5287 -4.81067,2.86232 -6.40625,3.5625 -5.065,2.22265 -8.801314,2.67182 -11.71875,3.9375 -2.95061,1.28007 -7.023118,3.74157 -9.9375,6.84375 -2.961511,3.15235 -6.097607,7.55819 -6.125,14.75 -0.02644,6.94127 2.487091,11.96908 5.46875,15.25 -0.652898,1.40084 -1.497945,2.90914 -2.65625,4.6875 l 0,1.65625 5.3125,0 c 0.636998,-1.05796 1.192894,-2.06281 1.6875,-3.03125 3.507408,1.94593 8.013241,3.38318 11.59375,3.28125 5.33182,-0.15178 12.05324,-3.15741 16.65625,-8.125 4.60733,-4.97225 8.58195,-15.22956 9.25,-19.0625 0.68391,-3.92394 -0.76522,-3.84138 1.6875,-9.1875 2.50464,-5.45932 12.27723,-11.71898 13.3125,-15.125 1.03527,-3.40602 3.99814,-8.51558 1.96875,-12.5625 z"
         style="fill:#ffffff;fill-rule:evenodd;stroke:#000000;stroke-width:2;stroke-linecap:butt;stroke-linejoin:round;stroke-miterlimit:4;stroke-opacity:1;stroke-dasharray:none;opacity:1" />
      <path
         transform="matrix(0.6985087,-0.7156016,0.7156016,0.6985087,-103.77822,179.57777)"
         d="m 184.13661,161.46361 a 3.8434117,2.7027862 0 1 1 -7.68682,0 3.8434117,2.7027862 0 1 1 7.68682,0 z"
         sodipodi:ry="2.7027862"
         sodipodi:rx="3.8434117"
         sodipodi:cy="161.46361"
         sodipodi:cx="180.2932"
         id="path3298"
         style="opacity:1;fill:#000000;fill-opacity:1;stroke:none"
         sodipodi:type="arc" />
      <path
         sodipodi:nodetypes="cc"
         id="path3722"
         d="m 135.71999,164.11225 4.1703,-3.43374"
         style="fill:none;stroke:#000000;stroke-width:2;stroke-linecap:round;stroke-linejoin:miter;stroke-miterlimit:4;stroke-opacity:1;stroke-dasharray:none" />
      <path
         sodipodi:type="arc"
         style="opacity:1;fill:#ffffff;fill-opacity:1;stroke:none"
         id="path3300"
         sodipodi:cx="180.2932"
         sodipodi:cy="161.46361"
         sodipodi:rx="3.8434117"
         sodipodi:ry="2.7027862"
         d="m 184.13661,161.46361 a 3.8434117,2.7027862 0 1 1 -7.68682,0 3.8434117,2.7027862 0 1 1 7.68682,0 z"
         transform="matrix(0.2627418,-0.2691713,0.2691713,0.2627418,47.436614,168.67514)" />
      <path
         sodipodi:nodetypes="czszzc"
         id="path3302"
         d="m 130.38065,172.95371 c -2.33159,4.11712 -4.97902,3.70703 -6.10259,6.13001 -1.1543,2.48925 4.18126,3.21157 6.47777,0.55109 2.29651,-2.66047 0.4912,-7.51345 -1.83189,-7.69328 -2.31982,-0.17958 -9.14864,3.40162 -8.91846,5.64751 0.23518,2.29464 2.7284,1.6992 5.44712,0.0122"
         style="fill:#ffffff;fill-rule:evenodd;stroke:#000000;stroke-width:2;stroke-linecap:round;stroke-linejoin:miter;stroke-miterlimit:4;stroke-opacity:1;stroke-dasharray:none;opacity:1" />
      <path
         style="fill:#ffffff;fill-rule:evenodd;stroke:#000000;stroke-width:2;stroke-linecap:butt;stroke-linejoin:round;stroke-miterlimit:4;stroke-opacity:1;stroke-dasharray:none;opacity:1"
         d="M 250,55.09375 250,50 l -1.59375,0 c -5.27856,4.636515 -14.48902,9.345837 -23.125,17.3125 -0.0647,0.05965 -0.12295,0.127681 -0.1875,0.1875 l 7.40625,0 0,0.46875 c 6.22677,-4.982892 12.52371,-8.807839 17.5,-12.875 z"
         id="path3309" />
      <path
         id="path3329"
         d="m 82.5,215.84375 c -0.170562,0.26187 -0.189306,0.41267 -0.375,0.6875 -3.355728,4.96648 -8.059457,9.38776 -13.125,13.5625 -0.43809,0.36105 -1.034213,0.73447 -1.5,1.09375 l 0,1.3125 7.03125,0 c 4.496051,-3.85838 8.816007,-8.00894 12.125,-12.90625 0.541503,-0.80142 0.714133,-1.35946 1.15625,-2.09375 l -5.3125,0 0,-1.65625 z"
         style="fill:#000000;fill-rule:evenodd;stroke:#000000;stroke-width:2;stroke-linecap:butt;stroke-linejoin:round;stroke-miterlimit:4;stroke-opacity:1;stroke-dasharray:none;opacity:1" />
      <path
         id="path3324"
         d="m 64.0625,263.875 c -0.302013,-0.87622 -0.821852,-1.57152 -1.59375,-1.90625 0.60249,0.49946 1.164225,1.08501 1.59375,1.90625 z"
         style="fill:none;stroke:#000000;stroke-width:2;stroke-linecap:butt;stroke-linejoin:round;stroke-miterlimit:4;stroke-opacity:1;stroke-dasharray:none;opacity:1" />
      <path
         id="path3322"
         d="m 50,245.46875 c -4.235244,4.86319 -6.421755,10.06188 -6.46875,14.9375 -0.05469,5.67349 2.053169,9.77048 4.40625,12.125 2.353081,2.35453 5.898893,3.79554 10.5,2.71875 4.683937,-1.09618 6.743774,-5.1657 6.5,-8.0625 -0.11467,-1.36262 -0.450702,-2.32409 -0.84375,-3.125 0.264392,0.86603 0.36519,1.8624 0.3125,2.84375 -0.115566,2.15242 -2.594685,6.47215 -8,6.5 -5.406388,0.0278 -8.61725,-5.476 -8.5625,-11.15625 0.04267,-4.42697 1.675177,-8.5391 4.75,-12.25 L 50,250 l 0,-4.53125 z"
         style="fill:#000000;fill-rule:evenodd;stroke:#000000;stroke-width:2;stroke-linecap:butt;stroke-linejoin:round;stroke-miterlimit:4;stroke-opacity:1;stroke-dasharray:none;opacity:1" />
      <path
         id="path3307"
         d="M 50,245.46875 50,250 l 2.59375,0 c 0.928351,-1.1204 1.965759,-2.20515 3.15625,-3.25 5.221933,-4.58308 11.458624,-8.04538 16.75,-12.40625 0.701483,-0.57812 1.337967,-1.2488 2.03125,-1.84375 l -7.03125,0 0,-1.3125 c -4.593388,3.54306 -10.289057,7.05169 -15.375,11.90625 -0.809893,0.77305 -1.431922,1.57916 -2.125,2.375 z"
         style="fill:#ffffff;fill-rule:evenodd;stroke:#000000;stroke-width:2;stroke-linecap:butt;stroke-linejoin:round;stroke-miterlimit:4;stroke-opacity:1;stroke-dasharray:none;opacity:1" />
      <path
         style="fill:none;stroke:#000000;stroke-width:1.5;stroke-linecap:round;stroke-linejoin:miter;stroke-opacity:1;opacity:1;stroke-miterlimit:4;stroke-dasharray:none"
         d="m 145.49271,216.01976 4.30951,11.99793"
         id="path3223" />
      <path
         sodipodi:nodetypes="cc"
         style="fill:none;stroke:#000000;stroke-width:1.5;stroke-linecap:round;stroke-linejoin:miter;stroke-opacity:1;opacity:1;stroke-miterlimit:4;stroke-dasharray:none"
         d="m 144.98248,214.66878 8.41709,12.92615"
         id="path3225" />
      <path
         style="fill:none;stroke:#000000;stroke-width:1.5;stroke-linecap:round;stroke-linejoin:miter;stroke-opacity:1;opacity:1;stroke-miterlimit:4;stroke-dasharray:none"
         d="m 144.72444,214.08002 12.02026,12.32995"
         id="path3227" />
      <path
         id="path2433"
         d="m 184.6875,182.21875 c -7.34468,0.0324 -15.67006,2.61827 -20.65625,5.96875 -4.84388,3.25486 -6.94561,5.4086 -9,6.84375 -0.0848,-2.4826 -0.6635,-5.02004 -2.1875,-4.4375 -1.74555,0.66723 -3.02568,5.17035 -2.75,8.34375 -0.41933,0.42133 -0.82176,0.87265 -1.25,1.375 -3.9414,4.62343 -7.38043,19.35382 -5.78125,20.8125 1.56671,1.42906 10.31388,-3.61058 13.3125,-4.1875 2.99862,-0.57691 5.12682,-0.45298 7.5,-2.9375 0.61363,-0.64242 1.56289,2.10201 2.34375,1.34375 2.82908,2.17815 6.66692,1.91423 9.78125,-0.90625 1.65821,1.25115 3.47645,2.51378 5.65625,2.5625 4.29519,0.096 4.76879,-2.32874 7.28125,-2.25 2.51246,0.0787 3.06607,2.42309 7,2.375 3.93524,-0.0481 7.3391,-1.55174 9.8125,-3.40625 1.26166,-0.94597 2.70873,-2.15429 3.84375,-3.65625 1.90156,1.21722 3.98912,2.7526 6.5625,5.09375 0.34424,0.31318 0.94819,1.14405 1.34375,1.5625 l 0,-7.125 c -2.18753,-1.8089 -4.15368,-3.22709 -5.9375,-4.3125 0.014,-0.13737 0.0238,-0.26591 0.0312,-0.40625 0.22347,-4.19012 -2.11874,-11.12903 -6.6875,-15.90625 -4.60085,-4.81077 -12.87464,-6.78245 -20.21875,-6.75 z"
         style="fill:#ffffff;fill-rule:evenodd;stroke:#000000;stroke-width:2;stroke-linecap:butt;stroke-linejoin:round;stroke-miterlimit:4;stroke-opacity:1;stroke-dasharray:none;opacity:1" />
      <path
         sodipodi:nodetypes="cccccscc"
         style="fill:#000000;fill-rule:evenodd;stroke:#000000;stroke-width:1px;stroke-linecap:butt;stroke-linejoin:round;stroke-opacity:1;opacity:1"
         d="m 188.30508,210.62927 c -1.04147,-1.99014 -0.81458,2.66409 -1.25,4.71875 -0.43542,2.05466 -1.73605,3.84202 -2.90625,5.9375 2.00022,-1.5376 3.76384,-3.0497 5.4375,-5.28125 -0.0816,1.51038 -0.94373,4.11012 -2.25,5.90625 1.38791,-0.16328 4.28698,-3.37298 4.78125,-5.28125 0.16142,-0.62322 0.26351,-1.29462 0.375,-2 -1.66757,-0.64879 -3.14603,-2.00986 -4.1875,-4 z"
         id="path3240" />
      <path
         style="fill:#ffffff;fill-rule:evenodd;stroke:#000000;stroke-width:2;stroke-linecap:round;stroke-linejoin:round;stroke-miterlimit:4;stroke-opacity:1;stroke-dasharray:none;opacity:1"
         d="m 183.97596,206.62574 c 1.13734,6.28791 5.81557,10.1145 11.96154,10.49926 3.92085,0.24546 7.34685,-1.53625 9.82025,-3.39076"
         id="path3208"
         sodipodi:nodetypes="css" />
      <path
         sodipodi:nodetypes="ccccccscc"
         id="path3230"
         d="m 163.8125,212.34375 c 0.72389,2.07303 -7.3125,10.0625 -7.3125,10.0625 2.21794,-1.08856 4.92818,-2.38383 6.57462,-5.06441 -0.43542,2.05466 -2.24817,3.56268 -3.41837,5.65816 2.00022,-1.5376 4.0199,-2.92565 5.69356,-5.1572 -0.0816,1.51038 -1.19979,3.98607 -2.50606,5.7822 1.38791,-0.16328 4.28698,-3.37298 4.78125,-5.28125 0.16142,-0.62322 0.26351,-1.29462 0.375,-2 -1.66757,-0.64879 -3.14603,-2.00986 -4.1875,-4 z"
         style="fill:#000000;fill-rule:evenodd;stroke:#000000;stroke-width:1px;stroke-linecap:butt;stroke-linejoin:round;stroke-opacity:1;opacity:1" />
      <path
         sodipodi:nodetypes="cc"
         id="path3210"
         d="m 163.60401,211.97988 c 2.79224,5.88519 9.25737,6.4866 13.59608,1.2243"
         style="fill:none;stroke:#000000;stroke-width:2;stroke-linecap:round;stroke-linejoin:miter;stroke-miterlimit:4;stroke-opacity:1;stroke-dasharray:none;opacity:1" />
      <path
         sodipodi:nodetypes="cc"
         id="path3718"
         d="m 150.79893,215.14001 4.27147,-5.31561"
         style="fill:none;stroke:#000000;stroke-width:2;stroke-linecap:round;stroke-linejoin:miter;stroke-opacity:1;stroke-miterlimit:4;stroke-dasharray:none" />
      <path
         sodipodi:type="arc"
         style="opacity:1;fill:#000000;fill-opacity:1;stroke:none"
         id="path3217"
         sodipodi:cx="180.2932"
         sodipodi:cy="161.46361"
         sodipodi:rx="3.8434117"
         sodipodi:ry="2.7027862"
         d="m 184.13661,161.46361 a 3.8434117,2.7027862 0 1 1 -7.68682,0 3.8434117,2.7027862 0 1 1 7.68682,0 z"
         transform="matrix(0.6514829,-0.7586633,0.7586633,0.6514829,-86.060946,244.3231)" />
      <path
         transform="matrix(0.2450532,-0.2853688,0.2853688,0.2450532,64.091265,225.37489)"
         d="m 184.13661,161.46361 a 3.8434117,2.7027862 0 1 1 -7.68682,0 3.8434117,2.7027862 0 1 1 7.68682,0 z"
         sodipodi:ry="2.7027862"
         sodipodi:rx="3.8434117"
         sodipodi:cy="161.46361"
         sodipodi:cx="180.2932"
         id="path3219"
         style="opacity:1;fill:#ffffff;fill-opacity:1;stroke:none"
         sodipodi:type="arc" />
      <path
         id="path3272"
         d="m 217.5,216.71875 c 3.22046,3.40679 7.80555,9.61044 12.53125,15.78125 l 2.46875,0 0,-5 c -4.58402,-6.31195 -9.2214,-12.92893 -12.90625,-16.28125 -0.79131,-0.7199 -1.36404,-1.02159 -2.09375,-1.625 l 0,7.125 z"
         style="fill:#000000;fill-rule:evenodd;stroke:#000000;stroke-width:2;stroke-linecap:butt;stroke-linejoin:round;stroke-miterlimit:4;stroke-opacity:1;stroke-dasharray:none;opacity:1" />
      <path
         id="path3250"
         d="m 244.59375,250 5.40625,0 0,-1.46875 c -3.83279,-3.88909 -8.13985,-8.96951 -12.21875,-13.90625 -1.69507,-2.05156 -3.49864,-4.67044 -5.28125,-7.125 l 0,5 -2.46875,0 c 1.3529,1.76662 2.70253,3.64841 4,5.21875 3.47943,4.2112 7.0464,8.51244 10.5625,12.28125 z"
         style="fill:#ffffff;fill-rule:evenodd;stroke:#000000;stroke-width:2;stroke-linecap:butt;stroke-linejoin:round;stroke-miterlimit:4;stroke-opacity:1;stroke-dasharray:none;opacity:1" />
      <path
         sodipodi:nodetypes="czszz"
         id="path3221"
         d="m 159.84268,204.40706 c 4.35053,-3.47727 7.03048,-6.30564 8.79802,-6.0429 1.77488,0.26384 2.11839,5.50715 0.44162,8.33664 -1.79176,3.02353 -7.64692,2.24381 -6.49262,-0.24544 1.12357,-2.42298 4.19102,-3.57454 6.52261,-7.69166"
         style="fill:none;stroke:#000000;stroke-width:2;stroke-linecap:round;stroke-linejoin:miter;stroke-miterlimit:4;stroke-opacity:1;stroke-dasharray:none;opacity:1" />
      <path
         sodipodi:nodetypes="czzzssscssssssccc"
         id="path3266"
         d="m 244.59375,250 c 2.62302,2.81155 5.47004,5.26112 9.74259,7.71695 4.27256,2.45583 8.11073,2.80671 12.09427,2.81218 3.98354,0.005 7.59491,-1.91973 10.33432,-4.88248 2.73941,-2.96276 3.35045,-5.97641 3.41356,-8.55879 0.0577,-2.36097 -0.56437,-4.78779 -2.28283,-6.52536 -1.34394,-1.35888 -3.27704,-2.31858 -5.77798,-2.42207 -2.50094,-0.10348 -3.88254,0.51302 -5.99268,2.51582 1.33839,-1.22309 3.46666,-1.70008 5.28125,-1.625 1.80996,0.0749 3.65818,0.51433 5.03125,1.8125 1.33626,1.26338 2.07481,2.80999 1.9375,5.46875 -0.13346,2.58405 -0.97785,4.68464 -3,7.09375 -1.98552,2.36545 -5.7025,3.96871 -9.0625,3.90625 -3.35778,-0.0624 -6.66257,-0.90453 -11.15625,-4.125 -1.52938,-1.09605 -3.30034,-2.77308 -5.15625,-4.65625 l 0,1.46875 -5.40625,0 z"
         style="fill:#000000;fill-rule:evenodd;stroke:#000000;stroke-width:2;stroke-linecap:butt;stroke-linejoin:round;stroke-miterlimit:4;stroke-opacity:1;stroke-dasharray:none;opacity:1" />
    </g>
  </g>
</svg>
