<?xml version="1.0" encoding="UTF-8" standalone="no"?>
<!-- Created with Inkscape (http://www.inkscape.org/) -->
<svg
   xmlns:dc="http://purl.org/dc/elements/1.1/"
   xmlns:cc="http://creativecommons.org/ns#"
   xmlns:rdf="http://www.w3.org/1999/02/22-rdf-syntax-ns#"
   xmlns:svg="http://www.w3.org/2000/svg"
   xmlns="http://www.w3.org/2000/svg"
   xmlns:sodipodi="http://sodipodi.sourceforge.net/DTD/sodipodi-0.dtd"
   xmlns:inkscape="http://www.inkscape.org/namespaces/inkscape"
   width="600"
   height="250"
   id="svg2"
   sodipodi:version="0.32"
   inkscape:version="0.46"
   version="1.0"
   sodipodi:docname="Ravens-icon.svg"
   inkscape:output_extension="org.inkscape.output.svg.inkscape">
  <defs
     id="defs4">
    <inkscape:perspective
       sodipodi:type="inkscape:persp3d"
       inkscape:vp_x="0 : 526.18109 : 1"
       inkscape:vp_y="0 : 1000 : 0"
       inkscape:vp_z="744.09448 : 526.18109 : 1"
       inkscape:persp3d-origin="372.04724 : 350.78739 : 1"
       id="perspective10" />
    <inkscape:perspective
       id="perspective3217"
       inkscape:persp3d-origin="372.04724 : 350.78739 : 1"
       inkscape:vp_z="744.09448 : 526.18109 : 1"
       inkscape:vp_y="0 : 1000 : 0"
       inkscape:vp_x="0 : 526.18109 : 1"
       sodipodi:type="inkscape:persp3d" />
    <clipPath
       clipPathUnits="userSpaceOnUse"
       id="clipPath3225">
      <rect
         style="opacity:1;fill:none;fill-opacity:1;stroke:#000000;stroke-width:2;stroke-linecap:round;stroke-linejoin:round;stroke-miterlimit:4;stroke-dasharray:none;stroke-opacity:1"
         id="rect3227"
         width="476.57147"
         height="201.14288"
         x="-160"
         y="21.809525"
         transform="matrix(0.9999452,1.0471784e-2,-1.0471784e-2,0.9999452,0,0)" />
    </clipPath>
  </defs>
  <sodipodi:namedview
     id="base"
     pagecolor="#ffffff"
     bordercolor="#666666"
     borderopacity="1.0"
     gridtolerance="10000"
     guidetolerance="10"
     objecttolerance="10"
     inkscape:pageopacity="0.0"
     inkscape:pageshadow="2"
     inkscape:zoom="2.4933333"
     inkscape:cx="300"
     inkscape:cy="125"
     inkscape:document-units="px"
     inkscape:current-layer="layer1"
     showgrid="false"
     inkscape:window-width="1904"
     inkscape:window-height="1150"
     inkscape:window-x="0"
     inkscape:window-y="14" />
  <metadata
     id="metadata7">
    <rdf:RDF>
      <cc:Work
         rdf:about="">
        <dc:format>image/svg+xml</dc:format>
        <dc:type
           rdf:resource="http://purl.org/dc/dcmitype/StillImage" />
      </cc:Work>
    </rdf:RDF>
  </metadata>
  <g
     inkscape:label="Layer 1"
     inkscape:groupmode="layer"
     id="layer1">
    <g
       id="g2437">
      <path
         id="path3400"
         d="M 204.03125,6.03125 C 197.98004,6.2211751 193.87928,7.088066 190.625,8.71875 C 188.11767,9.9751427 186.64178,11.141837 185.0625,12.25 C 167.02692,11.587049 140.98725,20.122273 128.78125,48.21875 C 128.31657,49.312069 128.14426,50.507454 128.28125,51.6875 C 88.360429,65.307369 47.384367,97.927522 29.40625,166.75 C 28.875667,168.81584 29.337794,171.01094 30.65625,172.6875 C 37.250136,181.07012 47.493155,188.4156 59.5,188.4375 C 61.64786,188.43905 63.672054,187.43293 64.967637,185.71981 C 66.26322,184.0067 66.680123,181.78502 66.09375,179.71875 C 60.202131,158.93825 64.661526,147.74292 70.4375,140.84375 C 73.325487,137.39416 76.73682,135.0192 79.65625,133.5625 C 81.845822,132.46998 83.590797,132.08388 84.25,131.90625 L 116.4375,142.65625 C 118.20419,143.24266 120.13347,143.08471 121.78125,142.21875 C 122.81087,142.35549 125.29873,142.95604 128.96875,143.65625 C 136.33947,145.06253 148.55164,146.70943 169.40625,146.09375 C 190.9955,145.45637 214.25534,140.34304 232.8125,129 C 251.36966,117.65696 265.22127,99.213044 265.28125,74.375 C 265.34067,49.768445 253.21725,32.119757 239.84375,21.34375 C 233.157,15.955747 226.17359,12.172317 219.96875,9.6875 C 213.76391,7.2026826 208.69101,5.8849969 204.03125,6.03125 z"
         style="fill:#000000;fill-opacity:1;fill-rule:evenodd;stroke:none;stroke-width:3;stroke-linecap:butt;stroke-linejoin:round;stroke-miterlimit:4;stroke-dasharray:none;stroke-opacity:1" />
      <rect
         y="30"
         x="57.5"
         height="190"
         width="190"
         id="rect3402"
         style="fill:#ffffff;fill-opacity:1;stroke:none;stroke-width:3;stroke-linecap:round;stroke-linejoin:round;stroke-miterlimit:4;stroke-dasharray:none;stroke-opacity:1" />
      <path
         id="path3395"
         d="M 423.375,37.625 C 398.88937,37.749258 379.74859,44.233224 366.1875,51.90625 C 352.62641,59.579276 344.85725,67.445017 341.53125,74.09375 C 338.82307,79.507455 337.63803,83.521563 337.53125,87.15625 C 337.44918,89.949879 337.77453,91.784189 338,93.6875 C 328.83665,109.24007 323.97643,136.20884 342.90625,160.3125 C 344.95566,162.89134 348.55056,163.64601 351.464,162.109 C 354.37744,160.57199 355.78406,157.17872 354.8125,154.03125 C 353.57438,150.1278 353.26275,146.86061 353.1875,143.09375 C 359.82661,135.88569 364.14862,127.09969 365.90625,116.6875 C 372.50994,115.93888 378.98675,113.73007 384.65625,111.15625 C 396.6282,126.00413 412.00551,133.25022 427.90625,137.46875 C 438.63675,140.31559 450.57622,138.399 460.625,136.71875 C 465.64939,135.87863 470.18686,135.03165 473.40625,134.625 C 475.01595,134.42167 476.31017,134.35696 476.9375,134.375 C 477.14925,134.38109 476.55995,134.10028 476.5625,134.125 C 477.66664,134.74634 478.92149,135.04923 480.1875,135 L 504.46875,133.875 C 504.98699,133.84994 505.5007,133.76606 506,133.625 C 506.29421,133.54325 509.6727,133.64572 513.625,131.21875 C 515.65443,129.97254 517.30973,127.94935 518.5,125.4375 C 518.61539,125.4917 518.69738,125.50501 518.8125,125.5625 C 521.72852,127.01866 525.11559,129.39468 528,132.84375 C 533.76882,139.74188 538.23577,150.93683 532.34375,171.71875 C 531.75738,173.78502 532.17428,176.0067 533.46986,177.71981 C 534.76545,179.43293 536.78964,180.43905 538.9375,180.4375 C 550.94431,180.4156 561.21088,173.07995 567.8125,164.6875 C 569.13096,163.01094 569.59308,160.81584 569.0625,158.75 C 549.79895,85.006806 503.23733,53.786389 460.9375,42.0625 C 460.83409,42.028773 460.7299,41.997514 460.625,41.96875 C 447.08737,38.839171 434.67386,37.567662 423.375,37.625 z"
         style="fill:#000000;fill-opacity:1;fill-rule:evenodd;stroke:none;stroke-width:3;stroke-linecap:butt;stroke-linejoin:round;stroke-miterlimit:4;stroke-dasharray:none;stroke-opacity:1" />
      <rect
         style="fill:#ffffff;fill-opacity:1;stroke:none;stroke-width:3;stroke-linecap:round;stroke-linejoin:round;stroke-miterlimit:4;stroke-dasharray:none;stroke-opacity:1"
         id="rect3404"
         width="190"
         height="190"
         x="352.5"
         y="30" />
      <path
         id="rect3229"
         d="M 52.5,25 L 52.5,225 L 252.5,225 L 252.5,25 L 52.5,25 z M 62.5,35 L 242.5,35 L 242.5,215 L 62.5,215 L 62.5,35 z"
         style="fill:#000000;fill-opacity:1;stroke:none;stroke-width:3;stroke-linecap:round;stroke-linejoin:round;stroke-miterlimit:4;stroke-dasharray:none;stroke-opacity:1" />
      <rect
         y="38"
         x="65.5"
         height="174"
         width="174"
         id="rect3273"
         style="fill:#000000;fill-opacity:1;stroke:none;stroke-width:3;stroke-linecap:round;stroke-linejoin:round;stroke-miterlimit:4;stroke-dasharray:none;stroke-opacity:1" />
      <path
         style="fill:#000000;fill-opacity:1;stroke:none;stroke-width:3;stroke-linecap:round;stroke-linejoin:round;stroke-miterlimit:4;stroke-dasharray:none;stroke-opacity:1"
         d="M 347.5,25 L 347.5,225 L 547.5,225 L 547.5,25 L 347.5,25 z M 357.5,35 L 537.5,35 L 537.5,215 L 357.5,215 L 357.5,35 z"
         id="path3281" />
      <rect
         style="fill:#000000;fill-opacity:1;stroke:none;stroke-width:3;stroke-linecap:round;stroke-linejoin:round;stroke-miterlimit:4;stroke-dasharray:none;stroke-opacity:1"
         id="rect3283"
         width="174"
         height="174"
         x="360.5"
         y="38" />
      <path
         sodipodi:nodetypes="czcc"
         id="path3296"
         d="M 125.76087,186.16005 C 130.96145,183.46699 137.8971,181.7829 142.52045,182.19404 C 147.09157,182.60055 152.90117,184.45229 153.13912,190.12606 L 125.76087,186.16005 z"
         style="fill:#000000;fill-opacity:1;fill-rule:evenodd;stroke:#ffffff;stroke-width:3;stroke-linecap:butt;stroke-linejoin:miter;stroke-miterlimit:4;stroke-dasharray:none;stroke-opacity:1" />
      <path
         sodipodi:nodetypes="czzcc"
         id="path3292"
         d="M 121.15518,184.88069 C 121.15518,184.88069 145.53931,185.28444 150.5804,187.56735 C 155.6215,189.85025 156.61885,191.43038 157.48893,194.09206 C 158.32114,196.6379 157.88066,198.4709 156.33751,199.84917 L 121.15518,184.88069 z"
         style="fill:#000000;fill-opacity:1;fill-rule:evenodd;stroke:#ffffff;stroke-width:3;stroke-linecap:butt;stroke-linejoin:miter;stroke-miterlimit:4;stroke-dasharray:none;stroke-opacity:1" />
      <path
         style="fill:#000000;fill-opacity:1;fill-rule:evenodd;stroke:#ffffff;stroke-width:3;stroke-linecap:butt;stroke-linejoin:miter;stroke-miterlimit:4;stroke-dasharray:none;stroke-opacity:1"
         d="M 177.76087,186.16005 C 182.96145,183.46699 189.8971,181.7829 194.52045,182.19404 C 199.09157,182.60055 204.90117,184.45229 205.13912,190.12606 L 177.76087,186.16005 z"
         id="path3316"
         sodipodi:nodetypes="czcc" />
      <path
         style="fill:#000000;fill-opacity:1;fill-rule:evenodd;stroke:#ffffff;stroke-width:3;stroke-linecap:butt;stroke-linejoin:miter;stroke-miterlimit:4;stroke-dasharray:none;stroke-opacity:1"
         d="M 173.15518,184.88069 C 173.15518,184.88069 197.53931,185.28444 202.5804,187.56735 C 207.6215,189.85025 208.61885,191.43038 209.48893,194.09206 C 210.32114,196.6379 209.88066,198.4709 208.33751,199.84917 L 173.15518,184.88069 z"
         id="path3314"
         sodipodi:nodetypes="czzcc" />
      <path
         id="path3287"
         d="M 124.28125,135.6875 C 128.73222,139.42636 132.71337,144.50529 133.21875,148.46875 C 134.07786,155.20628 133.23839,158.91505 131.3125,161.5 C 141.50091,173.8004 164.60363,186.39051 177.09375,187.5625 C 164.74174,187.54255 162.16326,193.6373 162.3125,198.78125 C 162.45844,203.81143 164.86471,207.45336 167.84375,209.78125 C 165.92668,206.18827 164.86007,202.28739 165.78125,200.75 C 166.93015,201.60373 168.39087,202.21933 170.625,200.71875 C 172.80506,199.25449 172.67161,192.50015 182.34375,192.375 C 191.90205,192.2513 196.95429,203.99499 200.96875,204.40625 C 204.87051,204.80595 205.0624,202.89683 205.875,202.03125 C 208.851,203.44291 212.74346,205.35026 210.34375,216.8125 C 215.20374,205.85056 212.93226,194.81556 199.75,191.21875 C 186.52126,187.60925 155.35196,177.04951 142.28125,160.90625 C 151.06998,152.93919 148.45852,144.10293 145.96875,138.90625 C 134.33646,138.08891 128.09917,136.42917 124.28125,135.6875 z"
         style="fill:#000000;fill-opacity:1;fill-rule:evenodd;stroke:#ffffff;stroke-width:3;stroke-linecap:butt;stroke-linejoin:round;stroke-miterlimit:4;stroke-dasharray:none;stroke-opacity:1" />
      <path
         style="fill:#000000;fill-opacity:1;fill-rule:evenodd;stroke:#ffffff;stroke-width:3;stroke-linecap:butt;stroke-linejoin:round;stroke-miterlimit:4;stroke-dasharray:none;stroke-opacity:1"
         d="M 36.018844,168.48367 C 54.732644,96.84491 97.932751,66.708877 138.55096,55.451069 C 178.85496,44.28035 215.78369,61.292321 225.59171,70.853644 C 213.36188,60.272851 203.39184,58.639868 196.25103,54.307457 C 189.11021,49.975046 184.32468,46.59109 181.04208,39.430547 C 169.12004,44.857087 158.57498,45.380003 147.659,41.854 C 143.0015,44.322645 139.11211,46.767499 135.07067,50.948493 C 146.59285,24.426051 171.71694,17.733083 187.13141,19.123251 C 192.89441,15.687682 193.14389,13.238492 204.23618,12.890346 C 215.32315,12.542366 258.5448,29.551733 258.4366,74.357952 C 258.32841,119.16139 210.45551,138.02572 169.20841,139.24345 C 128.36311,140.44931 123.02863,132.86009 118.57842,136.14242 C 114.05415,139.47938 122.10494,150.21239 110.29385,160.91924 C 111.91857,181.19056 132.23317,188.63645 145.74337,191.21393 C 159.23307,193.7875 162.20547,205.86281 157.34548,216.82475 C 159.74519,205.36251 155.84684,203.43065 152.87084,202.01899 C 152.05824,202.88458 151.86397,204.80683 147.96221,204.40713 C 143.94776,203.99588 138.90482,192.26582 129.34652,192.38952 C 119.67438,192.51468 119.81061,199.26528 117.63055,200.72954 C 115.39642,202.23012 113.94475,201.60175 112.79585,200.74802 C 111.87468,202.28541 112.92534,206.19969 114.84241,209.79267 C 111.86337,207.46477 109.47344,203.80854 109.3275,198.77836 C 109.17826,193.63442 114.52106,188.10334 119.90484,187.44096 C 114.0162,181.65475 101.7179,167.05242 99.316509,161.50703 C 101.2424,158.92208 104.69361,157.27559 104.39742,149.03695 C 104.10135,140.80161 97.770754,136.00464 94.3125,135.04373 C 90.823274,134.07421 85.271463,135.40841 84.833856,125.28298 C 78.921596,125.28716 46.807623,136.80115 59.504841,181.58587 C 50.597119,181.56963 41.561016,175.52928 36.018844,168.48367 z"
         id="path3324"
         sodipodi:nodetypes="czcscccczzzzczcczzzcczcczzccc" />
      <path
         sodipodi:nodetypes="czzcc"
         id="path3285"
         d="M 170.67396,64.947934 C 173.0246,64.911464 191.05866,71.472894 191.04576,92.970378 C 191.03285,114.46731 168.69137,123.77785 151.79489,124.00031 L 84.833856,124.88191 C 73.009336,124.89027 46.458392,130.71911 36.018844,168.48367"
         style="fill:none;fill-rule:evenodd;stroke:#ffffff;stroke-width:3;stroke-linecap:round;stroke-linejoin:round;stroke-miterlimit:4;stroke-dasharray:none;stroke-opacity:1" />
      <path
         sodipodi:nodetypes="cz"
         id="path3326"
         d="M 186.3271,34.821515 C 168.87422,30.538361 152.31573,39.462 147.65939,41.854297"
         style="fill:none;fill-rule:evenodd;stroke:#ffffff;stroke-width:3;stroke-linecap:round;stroke-linejoin:round;stroke-miterlimit:4;stroke-dasharray:none;stroke-opacity:1" />
      <path
         id="path3328"
         d="M 206.75,23.125 C 199.85,23.125 194.25,28.725002 194.25,35.625 C 194.25,42.525 199.85,48.125002 206.75,48.125 C 213.65,48.125 219.25,42.525002 219.25,35.625 C 219.25,28.725 213.65,23.125 206.75,23.125 z M 206.75,29.125 C 210.338,29.125 213.25,32.037 213.25,35.625 C 213.25,39.212998 210.338,42.125 206.75,42.125 C 203.162,42.124998 200.25,39.213 200.25,35.625 C 200.25,32.036998 203.162,29.125 206.75,29.125 z"
         style="fill:#ffffff;fill-opacity:1;stroke:none;stroke-width:3;stroke-linecap:round;stroke-linejoin:round;stroke-miterlimit:4;stroke-dasharray:none;stroke-opacity:1" />
      <path
         style="fill:#000000;fill-opacity:1;fill-rule:evenodd;stroke:#ffffff;stroke-width:3;stroke-linecap:butt;stroke-linejoin:miter;stroke-miterlimit:4;stroke-dasharray:none;stroke-opacity:1"
         d="M 472.69478,178.16005 C 467.4942,175.46699 460.55855,173.7829 455.9352,174.19404 C 451.36408,174.60055 445.55448,176.45229 445.31653,182.12606 L 472.69478,178.16005 z"
         id="path3341"
         sodipodi:nodetypes="czcc" />
      <path
         style="fill:#000000;fill-opacity:1;fill-rule:evenodd;stroke:#ffffff;stroke-width:3;stroke-linecap:butt;stroke-linejoin:miter;stroke-miterlimit:4;stroke-dasharray:none;stroke-opacity:1"
         d="M 477.30047,176.88069 C 477.30047,176.88069 452.91634,177.28444 447.87525,179.56735 C 442.83415,181.85025 441.8368,183.43038 440.96672,186.09206 C 440.13451,188.6379 440.57499,190.4709 442.11814,191.84917 L 477.30047,176.88069 z"
         id="path3343"
         sodipodi:nodetypes="czzcc" />
      <path
         sodipodi:nodetypes="czcc"
         id="path3345"
         d="M 420.69478,178.16005 C 415.4942,175.46699 408.55855,173.7829 403.9352,174.19404 C 399.36408,174.60055 393.55448,176.45229 393.31653,182.12606 L 420.69478,178.16005 z"
         style="fill:#000000;fill-opacity:1;fill-rule:evenodd;stroke:#ffffff;stroke-width:3;stroke-linecap:butt;stroke-linejoin:miter;stroke-miterlimit:4;stroke-dasharray:none;stroke-opacity:1" />
      <path
         sodipodi:nodetypes="czzcc"
         id="path3347"
         d="M 425.30047,176.88069 C 425.30047,176.88069 400.91634,177.28444 395.87525,179.56735 C 390.83415,181.85025 389.8368,183.43038 388.96672,186.09206 C 388.13451,188.6379 388.57499,190.4709 390.11814,191.84917 L 425.30047,176.88069 z"
         style="fill:#000000;fill-opacity:1;fill-rule:evenodd;stroke:#ffffff;stroke-width:3;stroke-linecap:butt;stroke-linejoin:miter;stroke-miterlimit:4;stroke-dasharray:none;stroke-opacity:1" />
      <path
         id="path3349"
         d="M 474.15625,127.65625 C 468.8596,128.16067 460.8412,129.90694 452.4375,131.03125 C 449.96527,136.24291 447.46479,144.99904 456.1875,152.90625 C 443.11679,169.04951 411.94748,179.60925 398.71875,183.21875 C 385.53649,186.81556 383.265,197.85056 388.125,208.8125 C 385.72529,197.35026 389.61774,195.44291 392.59375,194.03125 C 393.40635,194.89683 393.59823,196.80595 397.5,196.40625 C 401.51446,195.99499 406.56669,184.2513 416.125,184.375 C 425.79714,184.50015 425.66368,191.25449 427.84375,192.71875 C 430.07788,194.21933 431.53859,193.60373 432.6875,192.75 C 433.60868,194.28739 432.54206,198.18827 430.625,201.78125 C 433.60404,199.45336 436.0103,195.81143 436.15625,190.78125 C 436.30549,185.6373 433.727,179.54255 421.375,179.5625 C 433.86512,178.39051 456.96783,165.8004 467.15625,153.5 C 465.23036,150.91505 464.39088,147.20628 465.25,140.46875 C 465.75538,136.50529 469.73652,131.42636 474.1875,127.6875 C 474.18221,127.67481 474.16157,127.66893 474.15625,127.65625 z"
         style="fill:#000000;fill-opacity:1;fill-rule:evenodd;stroke:#ffffff;stroke-width:3;stroke-linecap:butt;stroke-linejoin:round;stroke-miterlimit:4;stroke-dasharray:none;stroke-opacity:1" />
      <path
         style="fill:none;fill-rule:evenodd;stroke:#ffffff;stroke-width:3;stroke-linecap:round;stroke-linejoin:round;stroke-miterlimit:4;stroke-dasharray:none;stroke-opacity:1"
         d="M 427.78169,56.947934 C 425.43105,56.911464 407.39699,63.472894 407.40989,84.970378 C 407.4228,106.46731 429.76428,115.77785 446.66076,116.00031 L 513.62179,116.88191 C 525.44631,116.89027 551.99726,122.71911 562.43681,160.48367"
         id="path3353"
         sodipodi:nodetypes="czzcc" />
      <path
         sodipodi:nodetypes="cccccccsscsccsssccsccsscccc"
         d="M 459.1004,48.657503 C 389.52776,32.573958 352.6261,67.231569 347.66109,77.156725 C 342.69608,87.081881 344.73247,88.465306 345.01658,95.168633 C 336.46808,108.07063 330.41738,133.35708 348.27789,156.09917 C 346.51978,150.55634 346.21698,145.97235 346.25827,140.70122 C 354.54822,132.77228 359.0994,123.24556 359.99044,110.17696 C 367.85072,110.69159 379.13452,106.48053 386.70497,102.60479 C 398.03609,119.20429 412.93312,126.40642 429.64938,130.84131 C 446.74164,135.37595 475.42702,124.86009 479.87723,128.14242 C 484.4015,131.47938 476.35071,142.21239 488.1618,152.91924 C 486.53708,173.19056 466.22248,180.63645 452.71228,183.21393 C 439.22258,185.7875 436.25018,197.86281 441.11017,208.82475 C 438.71046,197.36251 442.60881,195.43065 445.58481,194.01899 C 446.39741,194.88458 446.59168,196.80683 450.49344,196.40713 C 454.50789,195.99588 459.55083,184.26582 469.10913,184.38952 C 478.78127,184.51468 478.64504,191.26528 480.8251,192.72954 C 483.05923,194.23012 484.5109,193.60175 485.6598,192.74802 C 486.58097,194.28541 485.53031,198.19969 483.61324,201.79267 C 486.59228,199.46477 488.98221,195.80854 489.12815,190.77836 C 489.27739,185.63442 483.93459,180.10334 478.55081,179.44096 C 484.43945,173.65475 496.73775,159.05242 499.13914,153.50703 C 497.21325,150.92208 493.76204,149.27559 494.05823,141.03695 C 494.3543,132.80161 500.6849,128.00464 504.14315,127.04373 C 507.63238,126.07421 513.18419,127.40841 513.62179,117.28298 C 519.53405,117.28716 551.64803,128.80115 538.95081,173.58587 C 547.85853,173.56963 556.89463,167.52928 562.43681,160.48367 C 543.72301,88.84491 499.71861,59.915311 459.1004,48.657503 z"
         style="fill:#000000;fill-opacity:1;fill-rule:evenodd;stroke:#ffffff;stroke-width:3;stroke-linecap:butt;stroke-linejoin:round;stroke-miterlimit:4;stroke-dasharray:none;stroke-opacity:1"
         id="path3351" />
      <path
         sodipodi:nodetypes="cz"
         id="path3381"
         d="M 358.44669,103.33653 C 346.38405,116.65723 346.36663,135.46719 346.25871,140.70101"
         style="fill:none;fill-rule:evenodd;stroke:#ffffff;stroke-width:3;stroke-linecap:round;stroke-linejoin:round;stroke-miterlimit:4;stroke-dasharray:none;stroke-opacity:1" />
      <path
         style="fill:#ffffff;fill-opacity:1;stroke:none;stroke-width:3;stroke-linecap:round;stroke-linejoin:round;stroke-miterlimit:4;stroke-dasharray:none;stroke-opacity:1"
         d="M 374.01128,72.229558 C 380.91128,72.229558 386.51128,77.82956 386.51128,84.729558 C 386.51128,91.629558 380.91128,97.22956 374.01128,97.229558 C 367.11128,97.229558 361.51128,91.62956 361.51128,84.729558 C 361.51128,77.829558 367.11128,72.229558 374.01128,72.229558 z M 374.01128,78.229558 C 370.42328,78.229558 367.51128,81.141558 367.51128,84.729558 C 367.51128,88.317556 370.42328,91.229558 374.01128,91.229558 C 377.59928,91.229556 380.51128,88.317558 380.51128,84.729558 C 380.51128,81.141556 377.59928,78.229558 374.01128,78.229558 z"
         id="path3357" />
      <path
         style="fill:none;fill-rule:evenodd;stroke:#ffffff;stroke-width:3;stroke-linecap:round;stroke-linejoin:round;stroke-miterlimit:4;stroke-dasharray:none;stroke-opacity:1"
         d="M 427.78181,56.948264 C 425.43117,56.911794 407.39711,63.473224 407.41001,84.970708 C 407.42292,106.46764 429.7644,115.77818 446.66088,116.00064 L 513.62191,116.88224 C 525.44643,116.8906 551.99738,122.71944 562.43693,160.484"
         id="path2435"
         sodipodi:nodetypes="czzcc" />
    </g>
  </g>
</svg>
