<?xml version="1.0" encoding="UTF-8" standalone="no"?>
<!-- Created with Inkscape (http://www.inkscape.org/) -->
<svg
   xmlns:dc="http://purl.org/dc/elements/1.1/"
   xmlns:cc="http://creativecommons.org/ns#"
   xmlns:rdf="http://www.w3.org/1999/02/22-rdf-syntax-ns#"
   xmlns:svg="http://www.w3.org/2000/svg"
   xmlns="http://www.w3.org/2000/svg"
   xmlns:sodipodi="http://sodipodi.sourceforge.net/DTD/sodipodi-0.dtd"
   xmlns:inkscape="http://www.inkscape.org/namespaces/inkscape"
   width="250"
   height="300"
   id="svg2"
   sodipodi:version="0.32"
   inkscape:version="0.46"
   version="1.0"
   sodipodi:docname="Seanchan-icon.svg"
   inkscape:output_extension="org.inkscape.output.svg.inkscape">
  <defs
     id="defs4">
    <inkscape:perspective
       sodipodi:type="inkscape:persp3d"
       inkscape:vp_x="0 : 526.18109 : 1"
       inkscape:vp_y="0 : 1000 : 0"
       inkscape:vp_z="744.09448 : 526.18109 : 1"
       inkscape:persp3d-origin="372.04724 : 350.78739 : 1"
       id="perspective10" />
    <inkscape:perspective
       id="perspective3217"
       inkscape:persp3d-origin="372.04724 : 350.78739 : 1"
       inkscape:vp_z="744.09448 : 526.18109 : 1"
       inkscape:vp_y="0 : 1000 : 0"
       inkscape:vp_x="0 : 526.18109 : 1"
       sodipodi:type="inkscape:persp3d" />
  </defs>
  <sodipodi:namedview
     id="base"
     pagecolor="#ffffff"
     bordercolor="#666666"
     borderopacity="1.0"
     gridtolerance="10000"
     guidetolerance="10"
     objecttolerance="10"
     inkscape:pageopacity="0.0"
     inkscape:pageshadow="2"
     inkscape:zoom="3.1433333"
     inkscape:cx="125"
     inkscape:cy="150"
     inkscape:document-units="px"
     inkscape:current-layer="layer1"
     showgrid="false"
     inkscape:window-width="1904"
     inkscape:window-height="1150"
     inkscape:window-x="0"
     inkscape:window-y="14" />
  <metadata
     id="metadata7">
    <rdf:RDF>
      <cc:Work
         rdf:about="">
        <dc:format>image/svg+xml</dc:format>
        <dc:type
           rdf:resource="http://purl.org/dc/dcmitype/StillImage" />
      </cc:Work>
    </rdf:RDF>
  </metadata>
  <g
     inkscape:label="Layer 1"
     inkscape:groupmode="layer"
     id="layer1">
    <g
       id="g3578"
       transform="translate(0,25.116596)">
      <rect
         y="30"
         x="30"
         height="190"
         width="190"
         id="rect3389"
         style="opacity:1;fill:#ffffff;fill-opacity:1;stroke:none;stroke-width:3;stroke-linecap:round;stroke-linejoin:round;stroke-miterlimit:4;stroke-dasharray:none;stroke-opacity:1" />
      <path
         id="path3575"
         d="M 80.875,-2.4375 C 80.255976,-2.4400699 79.52861,-2.4465368 78.75,-2.40625 C 68.010709,-1.850574 59.251136,1.4334396 53.1875,7.625 C 47.123864,13.81656 44.090546,22.521347 43.46875,32.84375 C 42.725995,45.174153 48.922302,56.650807 53.96875,67.40625 C 48.620924,73.695686 44.309913,80.717824 44.40625,88.9375 C 44.502142,97.120031 47.906869,103.47559 52.65625,108 C 50.622391,110.06864 48.485547,111.98999 46.46875,113.59375 C 44.922832,114.82307 43.491938,115.91335 42.21875,117 C 40.945562,118.08665 39.737123,118.90618 38.75,121.125 C 37.32712,124.32331 37.374891,127.38254 37.5,129.46875 C 37.549029,130.28632 37.515916,130.80659 37.5,131.28125 C 37.149517,131.45532 36.881952,131.61984 36.375,131.84375 C 35.546941,132.20949 34.598292,132.60403 33.5625,133.1875 C 32.526708,133.77097 31.243859,134.42753 30.1875,136.375 C 28.981914,138.5976 29.032196,140.62097 29.03125,141.78125 C 29.030889,142.22445 28.996807,142.41918 28.96875,142.59375 C 28.662226,142.85266 28.195212,143.20039 28.53125,143.09375 C 26.375802,143.76683 24.985216,145.85625 25.196455,148.10444 C 25.407695,150.35264 27.16315,152.14646 29.40625,152.40625 C 31.464017,152.65564 33.150866,153.00364 35.59375,152.96875 C 36.398869,152.95725 37.127453,152.7992 37.8125,152.625 C 37.707726,153.13762 37.5,153.61627 37.5,154.15625 C 37.5,154.62475 37.671121,155.04765 37.75,155.5 C 33.046504,161.17446 29.382538,166.62263 29.40625,172.875 C 29.423604,177.45136 31.951667,181.20332 35.0625,184.1875 C 38.173333,187.17168 42.094905,189.66342 46.375,191.90625 C 54.93519,196.39191 64.974226,199.8549 72.21875,202.1875 C 81.149328,205.06298 93.841766,206.79729 105.25,207.90625 C 105.49623,210.76456 105.77181,213.62922 105.8125,216.4375 C 105.96281,226.81129 105.20208,233.98306 104.875,239.125 C 104.71146,241.69597 104.58909,243.7316 105,245.9375 C 105.41091,248.1434 107.35961,251.16601 110.03125,252 C 111.68873,252.51742 113.64221,251.97696 114.65625,251.3125 C 115.67029,250.64804 116.14698,249.98386 116.5625,249.375 C 117.39354,248.15729 117.87198,246.98635 118.375,245.59375 C 119.38105,242.80856 120.31225,239.21011 121.21875,234.9375 C 122.65226,228.18096 123.91928,219.82716 125,211.46875 C 126.08072,219.82716 127.34774,228.18096 128.78125,234.9375 C 129.68775,239.21011 130.61895,242.80856 131.625,245.59375 C 132.12802,246.98635 132.60646,248.15729 133.4375,249.375 C 133.85302,249.98386 134.32971,250.64804 135.34375,251.3125 C 136.35779,251.97696 138.31127,252.51742 139.96875,252 C 142.64039,251.16601 144.58909,248.1434 145,245.9375 C 145.41091,243.7316 145.28854,241.69597 145.125,239.125 C 144.79792,233.98306 144.03719,226.81129 144.1875,216.4375 C 144.22819,213.62922 144.50377,210.76456 144.75,207.90625 C 156.15823,206.79729 168.85067,205.06298 177.78125,202.1875 C 185.02577,199.8549 195.06481,196.39191 203.625,191.90625 C 207.9051,189.66342 211.82667,187.17168 214.9375,184.1875 C 218.04833,181.20332 220.5764,177.45136 220.59375,172.875 C 220.61746,166.62263 216.95349,161.17446 212.25,155.5 C 212.32888,155.04765 212.5,154.62475 212.5,154.15625 C 212.5,153.61627 212.29227,153.13762 212.1875,152.625 C 212.87255,152.7992 213.60113,152.95725 214.40625,152.96875 C 216.84913,153.00364 218.53598,152.65564 220.59375,152.40625 C 222.83685,152.14646 224.59231,150.35264 224.80354,148.10444 C 225.01478,145.85625 223.6242,143.76683 221.46875,143.09375 C 221.80479,143.20039 221.33778,142.85267 221.03125,142.59375 C 221.0032,142.41919 220.96911,142.22445 220.96875,141.78125 C 220.9678,140.62097 221.01809,138.5976 219.8125,136.375 C 218.75614,134.42753 217.47329,133.77097 216.4375,133.1875 C 215.40171,132.60403 214.45306,132.20949 213.625,131.84375 C 213.11805,131.61984 212.85048,131.45532 212.5,131.28125 C 212.48408,130.80659 212.45097,130.28632 212.5,129.46875 C 212.62511,127.38254 212.67288,124.32331 211.25,121.125 C 210.26288,118.90619 209.05444,118.08665 207.78125,117 C 206.50806,115.91335 205.07717,114.82307 203.53125,113.59375 C 201.51445,111.98999 199.37761,110.06864 197.34375,108 C 202.09313,103.47559 205.49786,97.120031 205.59375,88.9375 C 205.69009,80.717824 201.37908,73.695685 196.03125,67.40625 C 201.0777,56.650805 207.274,45.174151 206.53125,32.84375 C 205.90945,22.521347 202.87614,13.81656 196.8125,7.625 C 190.74886,1.4334396 181.98929,-1.850574 171.25,-2.40625 C 170.47139,-2.4465368 169.74402,-2.4400699 169.125,-2.4375 C 163.58749,-2.4145112 158.86515,-2.1549134 154.46875,-0.90625 C 150.07235,0.34241336 146.08373,2.7392228 142.875,6.40625 C 136.35353,13.859142 134.02446,23.537166 134.0625,31.875 C 134.10016,40.127814 136.28611,46.232405 139.71875,50.34375 C 141.8385,52.882624 143.21835,54.182221 143.9375,54.71875 C 143.86617,55.01306 143.87112,54.881132 143.8125,55.1875 C 143.34246,57.644177 143.37709,60.388075 144.96875,63.4375 C 147.36761,68.033456 151.48763,69.693184 152.875,70.28125 C 152.8785,70.470458 152.89976,70.711072 152.90625,70.9375 C 144.70444,65.969693 139.40131,65.766141 135.375,63.625 C 132.27597,61.976975 132.17714,61.38472 132.1875,61.40625 C 132.19268,61.417015 132.20258,61.345534 131.8125,60.375 C 131.42242,59.404466 130.03561,57.63915 128.625,56.96875 C 127.37882,56.376488 126.18908,56.181361 125.3125,56.125 C 125.10439,56.111368 124.89561,56.111368 124.6875,56.125 C 123.81092,56.181361 122.62118,56.376488 121.375,56.96875 C 119.96439,57.63915 118.57758,59.404466 118.1875,60.375 C 117.79742,61.345534 117.80732,61.417015 117.8125,61.40625 C 117.82286,61.38472 117.72403,61.976975 114.625,63.625 C 110.59869,65.766141 105.29556,65.969693 97.09375,70.9375 C 97.100243,70.711072 97.121501,70.470458 97.125,70.28125 C 98.512367,69.693182 102.63239,68.033456 105.03125,63.4375 C 106.62291,60.388075 106.65754,57.644177 106.1875,55.1875 C 106.12888,54.881132 106.13383,55.013056 106.0625,54.71875 C 106.78165,54.182221 108.1615,52.882624 110.28125,50.34375 C 113.71389,46.232405 115.89984,40.127814 115.9375,31.875 C 115.97554,23.537166 113.64647,13.859142 107.125,6.40625 C 103.91627,2.7392228 99.927651,0.34241336 95.53125,-0.90625 C 91.134849,-2.1549134 86.412514,-2.4145112 80.875,-2.4375 z M 75.03125,21.3125 C 75.419,21.307018 75.769997,21.305254 76.0625,21.3125 C 78.569971,21.374618 80.311937,21.820896 81.53125,23.03125 C 82.750563,24.241604 84.185971,26.950117 84.09375,33.53125 C 84.067342,35.415948 82.425274,38.696831 79,42.5625 C 76.799703,45.045694 73.947632,47.776085 70.90625,50.59375 C 68.77499,44.97083 67.178475,39.996607 67.28125,37.09375 C 67.500209,30.908986 68.217975,28.938066 70.28125,26.125 C 70.893138,25.290753 72.380093,23.738279 73.71875,22.625 C 74.388079,22.06836 75.036951,21.606898 75.4375,21.375 C 75.838049,21.143102 76.109659,21.297256 75.03125,21.3125 z M 173.9375,21.3125 C 174.23,21.305254 174.581,21.307018 174.96875,21.3125 C 173.89034,21.297256 174.16195,21.143102 174.5625,21.375 C 174.96305,21.606898 175.61192,22.06836 176.28125,22.625 C 177.61991,23.738279 179.10686,25.290753 179.71875,26.125 C 181.78203,28.938066 182.49979,30.908986 182.71875,37.09375 C 182.82152,39.996608 181.22501,44.970828 179.09375,50.59375 C 176.05237,47.776085 173.2003,45.045694 171,42.5625 C 167.57473,38.696831 165.93266,35.415946 165.90625,33.53125 C 165.81403,26.950117 167.24944,24.241604 168.46875,23.03125 C 169.68806,21.820896 171.43003,21.374618 173.9375,21.3125 z M 103.75,49.96875 C 104.12556,50.272361 104.75038,50.835113 105.15625,51.90625 C 105.19255,52.002048 105.15881,52.091175 105.1875,52.1875 C 104.88785,51.434299 104.42044,50.529522 103.75,49.96875 z M 146.25,49.96875 C 145.57956,50.529519 145.11214,51.434314 144.8125,52.1875 C 144.84119,52.091175 144.80745,52.002048 144.84375,51.90625 C 145.24962,50.835113 145.87444,50.272361 146.25,49.96875 z"
         style="fill:#000000;fill-opacity:1;fill-rule:evenodd;stroke:none;stroke-width:3;stroke-linecap:butt;stroke-linejoin:miter;stroke-miterlimit:4;stroke-opacity:1" />
      <path
         id="rect3223"
         d="M 25,25 L 25,225 L 225,225 L 225,25 L 25,25 z M 46.5,46.5 L 203.5,46.5 L 203.5,203.5 L 46.5,203.5 L 46.5,46.5 z"
         style="opacity:1;fill:#000000;fill-opacity:1;stroke:none;stroke-width:0.97827512;stroke-linecap:butt;stroke-linejoin:miter;stroke-miterlimit:4;stroke-dasharray:none;stroke-opacity:1" />
      <path
         id="path3405"
         d="M 46.8125,152.40625 C 39.60505,160.02945 34.16765,167.60969 34.1875,172.84375 C 34.2295,183.91954 59.39084,193.02174 73.6875,197.625 C 87.50482,202.07392 114.36087,204.46889 125,204.40625 C 135.63913,204.46889 162.49518,202.07392 176.3125,197.625 C 190.60916,193.02174 215.7705,183.91954 215.8125,172.84375 C 215.83235,167.60969 210.39495,160.02945 203.1875,152.40625 C 205.09996,155.99824 206.22838,159.24311 206.21875,161.78125 C 206.17674,172.85705 186.02822,181.42128 171.21875,184.6875 C 159.60944,187.24792 138.4113,189.10873 125,189.6875 C 111.5887,189.10873 90.39056,187.24792 78.78125,184.6875 C 63.97178,181.42128 43.82326,172.85705 43.78125,161.78125 C 43.77162,159.24311 44.90004,155.99824 46.8125,152.40625 z"
         style="fill:#000000;fill-opacity:1;fill-rule:evenodd;stroke:#ffffff;stroke-width:3;stroke-linecap:butt;stroke-linejoin:miter;stroke-miterlimit:4;stroke-dasharray:none;stroke-opacity:1" />
      <path
         id="path3409"
         d="M 125,114.25 C 100.2706,114.45993 86.35978,119.96103 72.625,129.90625 C 67.84184,133.36969 61.96418,138.09256 56.25,143.25 C 55.51574,143.91178 54.7868,144.57865 54.0625,145.25 C 53.76976,145.52242 53.4783,145.78836 53.1875,146.0625 C 53.17677,146.07258 53.16698,146.08366 53.15625,146.09375 C 52.2785,148.21718 51.77507,150.15057 51.78125,151.78125 C 51.82326,162.85705 71.97178,171.42128 86.78125,174.6875 C 96.20855,176.76668 112.12255,177.96498 125,178.5 C 137.87745,177.96498 153.79145,176.76668 163.21875,174.6875 C 178.02822,171.42128 198.17674,162.85705 198.21875,151.78125 C 198.22493,150.15057 197.7215,148.21718 196.84375,146.09375 C 196.83302,146.08366 196.82323,146.07258 196.8125,146.0625 C 196.5217,145.78836 196.23024,145.52242 195.9375,145.25 C 195.2132,144.57865 194.48426,143.91178 193.75,143.25 C 188.03582,138.09256 182.15816,133.36969 177.375,129.90625 C 163.64022,119.96103 149.7294,114.45993 125,114.25 z"
         style="fill:#000000;fill-opacity:1;fill-rule:evenodd;stroke:#ffffff;stroke-width:3;stroke-linecap:butt;stroke-linejoin:miter;stroke-miterlimit:4;stroke-dasharray:none;stroke-opacity:1" />
      <path
         style="fill:#000000;fill-rule:evenodd;stroke:#ffffff;stroke-width:3;stroke-linecap:butt;stroke-linejoin:round;stroke-miterlimit:4;stroke-dasharray:none;stroke-opacity:1"
         d="M 92.625,171.28125 C 93.14423,171.26618 93.71754,171.2782 94.34375,171.3125 C 100.83756,171.66817 105.47225,181.24769 108.09375,193.46875 C 106.0531,190.6514 104.04051,187.77858 101.59375,187.78125 C 96.2275,187.78709 96.72572,193.3562 96.5625,195.84375 C 90.40977,195.5019 91.24292,182.20984 88.3125,182.28125 C 85.38278,182.35265 86.30561,187.4135 87.03125,190.9375 C 81.78802,187.47741 80.4296,182.04114 79.9375,177.625 C 79.91444,177.41806 79.9222,177.18681 79.90625,176.96875 C 80.16782,177.01664 80.42271,177.03442 80.6875,177.03125 C 88.33931,176.93976 84.83657,171.50728 92.625,171.28125 z"
         id="path3401" />
      <path
         id="path3411"
         d="M 125,114.25 C 100.2706,114.45993 86.35978,119.96103 72.625,129.90625 C 69.07572,132.47625 64.89684,135.72385 60.65625,139.34375 C 60.08827,140.96539 59.77633,142.4832 59.78125,143.78125 C 59.82326,154.85705 80.50303,159.73378 95.3125,163 C 102.76171,164.64292 114.20405,165.37771 125,165.6875 C 135.79595,165.37771 147.23829,164.64292 154.6875,163 C 169.49697,159.73378 190.17674,154.85705 190.21875,143.78125 C 190.22367,142.4832 189.91173,140.96539 189.34375,139.34375 C 185.10316,135.72385 180.92428,132.47625 177.375,129.90625 C 163.64022,119.96103 149.7294,114.45993 125,114.25 z"
         style="fill:#000000;fill-opacity:1;fill-rule:evenodd;stroke:#ffffff;stroke-width:3;stroke-linecap:butt;stroke-linejoin:miter;stroke-miterlimit:4;stroke-dasharray:none;stroke-opacity:1" />
      <path
         id="path3171"
         d="M 157.375,171.28125 C 156.85577,171.26618 156.28246,171.2782 155.65625,171.3125 C 149.16244,171.66817 144.52775,181.24769 141.90625,193.46875 C 143.9469,190.6514 145.95949,187.77858 148.40625,187.78125 C 153.7725,187.78709 153.27428,193.3562 153.4375,195.84375 C 159.59023,195.5019 158.75708,182.20984 161.6875,182.28125 C 164.61722,182.35265 163.69439,187.4135 162.96875,190.9375 C 168.21198,187.47741 169.5704,182.04114 170.0625,177.625 C 170.08556,177.41806 170.0778,177.18681 170.09375,176.96875 C 169.83218,177.01664 169.57729,177.03442 169.3125,177.03125 C 161.66069,176.93976 165.16343,171.50728 157.375,171.28125 z"
         style="fill:#000000;fill-rule:evenodd;stroke:#ffffff;stroke-width:3;stroke-linecap:butt;stroke-linejoin:round;stroke-miterlimit:4;stroke-dasharray:none;stroke-opacity:1" />
      <path
         id="path3162"
         d="M 190.40625,68.15625 C 186.82146,76.101495 183.8671,83.966103 184.25,91.46875 C 184.57999,97.93485 187.13406,103.18595 190.40625,107.46875 C 196.38181,103.68772 200.70646,97.923422 200.8125,88.875 C 200.89798,81.581698 196.39313,74.697859 190.40625,68.15625 z"
         style="fill:#000000;fill-opacity:1;fill-rule:evenodd;stroke:#ffffff;stroke-width:3;stroke-linecap:butt;stroke-linejoin:miter;stroke-miterlimit:4;stroke-dasharray:none;stroke-opacity:1" />
      <path
         style="fill:#000000;fill-opacity:1;fill-rule:evenodd;stroke:#ffffff;stroke-width:3;stroke-linecap:butt;stroke-linejoin:miter;stroke-miterlimit:4;stroke-dasharray:none;stroke-opacity:1"
         d="M 59.59375,68.15625 C 63.17854,76.101495 66.1329,83.966103 65.75,91.46875 C 65.42001,97.93485 62.86594,103.18595 59.59375,107.46875 C 53.61819,103.68772 49.29354,97.923422 49.1875,88.875 C 49.10202,81.581698 53.60687,74.697859 59.59375,68.15625 z"
         id="path3228" />
      <rect
         y="161.4528"
         x="113.86533"
         height="36.320255"
         width="22.269354"
         id="rect3476"
         style="opacity:1;fill:#000000;fill-opacity:1;stroke:none;stroke-width:3;stroke-linecap:round;stroke-linejoin:round;stroke-miterlimit:4;stroke-dasharray:none;stroke-opacity:1" />
      <g
         id="g3391">
        <path
           id="path2385"
           style="fill:#000000;fill-opacity:1;stroke:#ffffff;stroke-width:3;stroke-linecap:butt;stroke-linejoin:round;stroke-miterlimit:4;stroke-dasharray:none;stroke-opacity:1"
           d="M 125,149.625 C 123.66178,149.79149 122.17494,149.67529 121.125,148.6875 C 118.69627,146.40252 118,136.9375 118,136.9375 C 116.40249,129.20797 109.53211,121.65625 99.90625,121.65625 C 90.52218,121.65625 82.90625,129.27218 82.90625,138.65625 C 82.90625,148.04032 91.98107,155.65625 99.0625,155.65625 C 106.1382,155.65625 110.55557,151.50857 111.53125,149.625 C 112.625,147.51346 108.05669,145.71735 113.15625,143.375 C 118.02162,141.14022 122.01956,162.50283 122.5625,180.71875 C 123.10511,198.92395 115.69089,248.75552 111.46875,247.4375 C 107.50713,246.20083 110.902,237.64952 110.59375,216.375 C 110.29377,195.67049 104.64729,171.87683 94.34375,171.3125 C 84.32442,170.76373 88.84943,176.93366 80.6875,177.03125 C 72.53396,177.12874 65.81041,152.52255 66.40625,133.96875 C 66.99295,115.69971 76.36149,94.345938 90.09375,82.09375 C 103.96854,69.714407 109.82562,71.592521 116.875,67.84375 C 124.04598,64.030309 121.52483,62.190259 123.4375,61.28125 C 123.9611,61.032403 124.49762,60.938551 125,60.90625 C 125.50238,60.938551 126.0389,61.032403 126.5625,61.28125 C 128.47517,62.190259 125.95402,64.030309 133.125,67.84375 C 140.17438,71.592521 146.03146,69.714407 159.90625,82.09375 C 173.63851,94.345938 183.00705,115.69971 183.59375,133.96875 C 184.18959,152.52255 177.46604,177.12874 169.3125,177.03125 C 161.15057,176.93366 165.67558,170.76373 155.65625,171.3125 C 145.35271,171.87683 139.70623,195.67049 139.40625,216.375 C 139.098,237.64952 142.49287,246.20083 138.53125,247.4375 C 134.30911,248.75552 126.89489,198.92395 127.4375,180.71875 C 127.98044,162.50283 131.97838,141.14022 136.84375,143.375 C 141.94331,145.71735 137.375,147.51346 138.46875,149.625 C 139.44443,151.50857 143.8618,155.65625 150.9375,155.65625 C 158.01893,155.65625 167.09375,148.04032 167.09375,138.65625 C 167.09375,129.27218 159.47782,121.65625 150.09375,121.65625 C 140.46789,121.65625 133.59751,129.20797 132,136.9375 C 132,136.9375 131.30373,146.40252 128.875,148.6875 C 127.82506,149.67529 126.33822,149.79149 125,149.625 z"
           sodipodi:nodetypes="cscsssssssssssssscsssssssssssssscsc" />
        <path
           style="fill:none;fill-opacity:1;stroke:#ffffff;stroke-width:3;stroke-linecap:round;stroke-linejoin:round;stroke-miterlimit:4;stroke-dasharray:none;stroke-opacity:1"
           d="M 125,86.4375 L 125,60.90625"
           id="path3387"
           sodipodi:nodetypes="cc" />
      </g>
      <path
         sodipodi:nodetypes="csssssssssssssssssssssssssssssssscssssssssssssssssssssssssssssssssc"
         d="M 125,92.6875 C 122.24438,90.641298 119.41122,89.003825 117.1875,88.5625 C 112.00119,87.533213 106.57732,90.708415 103.125,90.125 C 99.67267,89.541587 97.82121,85.674855 94.125,85.09375 C 90.42879,84.512648 89.96366,87.498328 86.90625,88.59375 C 83.84885,89.689168 80.03744,87.696238 79.8125,84.03125 C 79.58798,80.372924 85.64839,77.731154 86.6875,74.21875 C 87.72661,70.706345 86.63603,67.053312 88.28125,64.4375 C 89.92648,61.821687 94.92103,61.389911 96.25,58.84375 C 97.57898,56.297591 93.88087,54.773362 97.03125,49.84375 C 100.18163,44.914136 105.97002,45.233037 106.03125,31.8125 C 106.09056,18.81272 99.34144,2.4205428 80.84375,2.34375 C 91.59931,2.3884013 98.22127,3.4941086 103.53125,9.5625 C 109.03909,15.856994 111.18998,24.449844 111.15625,31.84375 C 111.12228,39.288778 109.21278,44.181811 106.625,47.28125 C 104.03722,50.380689 102.12737,51.367567 101.34375,52.59375 C 100.38576,54.092782 100.70965,53.278406 100.875,53.875 C 100.95767,54.173297 101.25306,54.803108 101.5,56.09375 C 101.74694,57.384392 101.66004,59.535094 100.78125,61.21875 C 98.95666,64.714465 96.16682,65.489764 94.53125,66.25 C 93.33929,66.80404 92.70248,67.316079 92.5625,67.34375 C 92.57338,67.294633 92.59778,67.149844 92.59375,67.15625 C 92.49867,67.307416 92.5104,67.354048 92.5625,67.34375 C 92.52212,67.526104 92.41977,67.992064 92.375,69.1875 C 92.31817,70.704927 92.38795,72.971682 91.59375,75.65625 C 90.40647,79.669504 87.79529,81.322363 86.3125,82.75 C 86.11806,82.937211 86.14276,82.968378 86,83.125 C 86.24153,82.921719 86.20271,82.959088 86.96875,82.3125 C 88.36756,81.131812 91.69936,79.527076 94.90625,80.03125 C 98.34274,80.571522 100.58296,82.519927 101.96875,83.65625 C 103.35454,84.792573 103.92335,85.086077 103.96875,85.09375 C 103.75973,85.058427 105.73758,84.844787 108.3125,84.21875 C 110.88742,83.592713 114.27672,82.786357 118.1875,83.5625 C 120.69664,84.060472 122.90693,85.119998 125,86.4375 C 127.09307,85.119998 129.30336,84.060472 131.8125,83.5625 C 135.72328,82.786357 139.11258,83.592713 141.6875,84.21875 C 144.26242,84.844787 146.24027,85.058427 146.03125,85.09375 C 146.07665,85.086077 146.64546,84.792573 148.03125,83.65625 C 149.41704,82.519927 151.65726,80.571522 155.09375,80.03125 C 158.30064,79.527076 161.63244,81.131812 163.03125,82.3125 C 163.79729,82.959088 163.75847,82.921719 164,83.125 C 163.85724,82.968378 163.88194,82.937211 163.6875,82.75 C 162.20471,81.322363 159.59353,79.669504 158.40625,75.65625 C 157.61205,72.971682 157.68183,70.704927 157.625,69.1875 C 157.58023,67.992064 157.47788,67.526104 157.4375,67.34375 C 157.4896,67.354048 157.50133,67.307416 157.40625,67.15625 C 157.40222,67.149844 157.42662,67.294633 157.4375,67.34375 C 157.29752,67.316079 156.66071,66.80404 155.46875,66.25 C 153.83318,65.489764 151.04334,64.714465 149.21875,61.21875 C 148.33996,59.535094 148.25306,57.384392 148.5,56.09375 C 148.74694,54.803108 149.04233,54.173297 149.125,53.875 C 149.29035,53.278406 149.61424,54.092782 148.65625,52.59375 C 147.87263,51.367567 145.96278,50.380689 143.375,47.28125 C 140.78722,44.181811 138.87772,39.288778 138.84375,31.84375 C 138.81002,24.449844 140.96091,15.856994 146.46875,9.5625 C 151.77873,3.4941086 158.40069,2.3884013 169.15625,2.34375 C 150.65856,2.4205428 143.90944,18.81272 143.96875,31.8125 C 144.02998,45.233037 149.81837,44.914136 152.96875,49.84375 C 156.11913,54.773362 152.42102,56.297591 153.75,58.84375 C 155.07897,61.389911 160.07352,61.821687 161.71875,64.4375 C 163.36397,67.053312 162.27339,70.706345 163.3125,74.21875 C 164.35161,77.731154 170.41202,80.372924 170.1875,84.03125 C 169.96256,87.696238 166.15115,89.689168 163.09375,88.59375 C 160.03634,87.498328 159.57121,84.512648 155.875,85.09375 C 152.17879,85.674855 150.32733,89.541587 146.875,90.125 C 143.42268,90.708415 137.99881,87.533213 132.8125,88.5625 C 130.58878,89.003825 127.75562,90.641298 125,92.6875 z"
         style="fill:#000000;fill-opacity:1;fill-rule:evenodd;stroke:#ffffff;stroke-width:3;stroke-linecap:butt;stroke-linejoin:round;stroke-miterlimit:4;stroke-opacity:1"
         id="path3209" />
      <path
         d="M 125,103.84375 L 87.0625,115.0625 C 80.81673,114.30671 72.58984,113.2639 65.40625,110.40625 C 58.46782,118.9647 48.39025,122.60108 46.9375,125.1875 C 44.76448,129.05622 46.45296,132.71577 44.96875,135.40625 C 43.46248,138.13672 38.3835,137.78113 37,139.5625 C 35.6165,141.34387 36.45402,143.53176 35.53125,145.1875 C 34.62116,146.82053 31.64867,147.85984 29.96875,147.65625 C 31.26944,147.2435 32.7216,145.9054 33.46875,144.5 C 34.21589,143.09459 33.31643,140.60781 34.375,138.65625 C 35.43358,136.70469 41.21884,135.74381 42.15625,133.625 C 43.07436,131.54983 41.21999,127.34453 43.125,123.0625 C 44.97402,118.90634 64.78598,110.3582 65.75,91.46875 C 66.70054,72.843723 47.11301,52.000058 48.25,33.125 C 49.4029,13.985781 59.13167,3.4030337 79,2.375 C 79.62126,2.3428548 80.24705,2.3412728 80.84375,2.34375 C 99.34144,2.4205428 106.09056,18.81272 106.03125,31.8125 C 105.97002,45.233037 100.18163,44.914136 97.03125,49.84375 C 93.88087,54.773362 97.57898,56.297591 96.25,58.84375 C 94.92103,61.389911 89.92648,61.821687 88.28125,64.4375 C 86.63603,67.053312 87.72661,70.706345 86.6875,74.21875 C 85.64839,77.731154 79.58798,80.372924 79.8125,84.03125 C 80.03744,87.696238 83.84885,89.689168 86.90625,88.59375 C 89.96366,87.498328 90.42879,84.512648 94.125,85.09375 C 97.82121,85.674855 99.67267,89.541587 103.125,90.125 C 106.57732,90.708415 112.00119,87.533213 117.1875,88.5625 C 119.41075,89.003732 122.23872,90.641268 125,92.6875 C 127.76128,90.641268 130.58925,89.003732 132.8125,88.5625 C 137.99881,87.533213 143.42268,90.708415 146.875,90.125 C 150.32733,89.541587 152.17879,85.674855 155.875,85.09375 C 159.57121,84.512648 160.03634,87.498328 163.09375,88.59375 C 166.15115,89.689168 169.96256,87.696238 170.1875,84.03125 C 170.41202,80.372924 164.35161,77.731154 163.3125,74.21875 C 162.27339,70.706345 163.36397,67.053312 161.71875,64.4375 C 160.07352,61.821687 155.07897,61.389911 153.75,58.84375 C 152.42102,56.297591 156.11913,54.773362 152.96875,49.84375 C 149.81837,44.914136 144.02998,45.233037 143.96875,31.8125 C 143.90944,18.81272 150.65856,2.4205428 169.15625,2.34375 C 169.75295,2.3412728 170.37874,2.3428548 171,2.375 C 190.86833,3.4030337 200.5971,13.985781 201.75,33.125 C 202.88699,52.000058 183.29946,72.843723 184.25,91.46875 C 185.21402,110.3582 205.02598,118.90634 206.875,123.0625 C 208.78001,127.34453 206.92564,131.54983 207.84375,133.625 C 208.78116,135.74381 214.56642,136.70469 215.625,138.65625 C 216.68357,140.60781 215.78411,143.09459 216.53125,144.5 C 217.2784,145.9054 218.73056,147.2435 220.03125,147.65625 C 218.35133,147.85984 215.37884,146.82053 214.46875,145.1875 C 213.54598,143.53176 214.3835,141.34387 213,139.5625 C 211.6165,137.78113 206.53752,138.13672 205.03125,135.40625 C 203.54704,132.71577 205.23552,129.05622 203.0625,125.1875 C 201.60975,122.60108 191.53218,118.9647 184.59375,110.40625 C 177.41016,113.2639 169.18327,114.30671 162.9375,115.0625 L 125,103.84375 z M 173.8125,16.53125 C 174.21973,16.521162 174.63244,16.525612 175.03125,16.53125 C 181.41189,16.621446 192.04081,21.131673 192.59375,36.75 C 192.87804,44.779926 188.87985,53.263777 185,62.625 C 173.99048,52.032073 161.2487,42.421927 161.125,33.59375 C 160.91978,18.948717 167.70398,16.682577 173.8125,16.53125 z M 76.1875,16.53125 C 75.78027,16.521162 75.36756,16.525612 74.96875,16.53125 C 68.58811,16.621446 57.95919,21.131673 57.40625,36.75 C 57.12196,44.779926 61.12015,53.263777 65,62.625 C 76.00952,52.032073 88.7513,42.421927 88.875,33.59375 C 89.08022,18.948717 82.29602,16.682577 76.1875,16.53125 z"
         style="fill:#000000;fill-opacity:1;fill-rule:evenodd;stroke:#ffffff;stroke-width:3;stroke-linecap:butt;stroke-linejoin:round;stroke-miterlimit:4;stroke-dasharray:none;stroke-opacity:1"
         id="path3327" />
      <path
         id="path3215"
         d="M 175.03125,16.53125 C 177.06116,16.559945 181.62155,20.66621 183.5625,23.3125 C 186.1176,26.796119 187.26377,30.264889 187.5,36.9375 C 187.71625,43.045456 184.36416,50.889294 180.5,60.15625 C 176.63584,69.423206 172.46208,80.180757 172.875,92.65625 C 173.30107,105.52921 180.16439,114.30522 186.71875,119.71875 C 189.99593,122.42551 193.23608,124.41548 195.625,125.90625 C 196.81946,126.65163 197.78385,127.25906 198.375,127.6875 C 198.54176,127.80836 198.59962,127.84906 198.6875,127.9375 C 199.06852,128.70491 199.18954,129.39758 199.21875,130.84375 C 199.2505,132.41584 198.95355,134.95841 200.5625,137.875 C 202.28021,141.29785 205.70876,142.38501 208.84375,143.25 C 208.88115,144.14148 209.87181,145.82324 210.59375,146.46875 C 211.2837,147.08566 212.58228,148.16056 214.46875,148.1875 C 216.40184,148.21511 217.80669,147.92585 220.03125,147.65625 C 218.35133,147.85984 215.37884,146.82053 214.46875,145.1875 C 213.54598,143.53176 214.3835,141.34387 213,139.5625 C 211.6165,137.78113 206.53752,138.13672 205.03125,135.40625 C 203.54704,132.71577 205.23552,129.05622 203.0625,125.1875 C 200.85461,121.25667 178.7111,114.92886 177.96875,92.5 C 177.22542,70.042056 193.15219,52.523328 192.59375,36.75 C 192.04081,21.131673 181.41189,16.621446 175.03125,16.53125 z"
         style="fill:#000000;fill-opacity:1;fill-rule:evenodd;stroke:#ffffff;stroke-width:3;stroke-linecap:butt;stroke-linejoin:round;stroke-miterlimit:4;stroke-dasharray:none;stroke-opacity:1" />
      <path
         style="fill:#000000;fill-opacity:1;fill-rule:evenodd;stroke:#ffffff;stroke-width:3;stroke-linecap:butt;stroke-linejoin:round;stroke-miterlimit:4;stroke-dasharray:none;stroke-opacity:1"
         d="M 74.96875,16.53125 C 72.93884,16.559945 68.37845,20.66621 66.4375,23.3125 C 63.8824,26.796119 62.73623,30.264889 62.5,36.9375 C 62.28375,43.045456 65.63584,50.889294 69.5,60.15625 C 73.36416,69.423206 77.53792,80.180757 77.125,92.65625 C 76.69893,105.52921 69.83561,114.30522 63.28125,119.71875 C 60.00407,122.42551 56.76392,124.41548 54.375,125.90625 C 53.18054,126.65163 52.21615,127.25906 51.625,127.6875 C 51.45824,127.80836 51.40038,127.84906 51.3125,127.9375 C 50.93148,128.70491 50.81046,129.39758 50.78125,130.84375 C 50.7495,132.41584 51.04645,134.95841 49.4375,137.875 C 47.71979,141.29785 44.29124,142.38501 41.15625,143.25 C 41.11885,144.14148 40.12819,145.82324 39.40625,146.46875 C 38.7163,147.08566 37.41772,148.16056 35.53125,148.1875 C 33.59816,148.21511 32.19331,147.92585 29.96875,147.65625 C 31.64867,147.85984 34.62116,146.82053 35.53125,145.1875 C 36.45402,143.53176 35.6165,141.34387 37,139.5625 C 38.3835,137.78113 43.46248,138.13672 44.96875,135.40625 C 46.45296,132.71577 44.76448,129.05622 46.9375,125.1875 C 49.14539,121.25667 71.2889,114.92886 72.03125,92.5 C 72.77458,70.042056 56.84781,52.523328 57.40625,36.75 C 57.95919,21.131673 68.58811,16.621446 74.96875,16.53125 z"
         id="path3235" />
      <path
         id="path3436"
         d="M 125,99.28125 C 102.46977,100.37852 92.00166,107.1718 79.59375,116.15625 C 74.63504,119.7468 68.81196,125.03687 63.3125,130.84375 C 62.88861,130.64671 62.43547,130.5 61.9375,130.5 C 60.10823,130.50001 58.625,131.98323 58.625,133.8125 C 58.625,134.41866 58.77794,135.01101 59.0625,135.5 C 57.42828,137.37378 55.84807,139.27009 54.375,141.15625 C 53.98188,140.98728 53.54953,140.875 53.09375,140.875 C 51.26449,140.87499 49.78125,142.35823 49.78125,144.1875 C 49.78125,144.99454 50.07966,145.7365 50.5625,146.3125 C 49.12558,148.4128 47.8447,150.46757 46.8125,152.40625 C 48.43186,150.69348 50.14799,148.97197 51.90625,147.28125 C 52.33145,146.87292 52.75789,146.46608 53.1875,146.0625 C 53.4783,145.78836 53.76976,145.52242 54.0625,145.25 C 54.7868,144.57865 55.51574,143.91178 56.25,143.25 C 61.96418,138.09256 67.84184,133.36969 72.625,129.90625 C 86.35978,119.96103 100.2706,114.45993 125,114.25 C 149.7294,114.45993 163.64022,119.96103 177.375,129.90625 C 182.15816,133.36969 188.03582,138.09256 193.75,143.25 C 194.48426,143.91178 195.2132,144.57865 195.9375,145.25 C 196.23024,145.52242 196.5217,145.78836 196.8125,146.0625 C 197.24211,146.46608 197.66855,146.87292 198.09375,147.28125 C 199.85201,148.97197 201.56814,150.69348 203.1875,152.40625 C 202.1553,150.46757 200.87442,148.4128 199.4375,146.3125 C 199.92034,145.7365 200.21875,144.99454 200.21875,144.1875 C 200.21875,142.35823 198.73551,140.87499 196.90625,140.875 C 196.45047,140.875 196.01812,140.98728 195.625,141.15625 C 194.15193,139.27009 192.57172,137.37378 190.9375,135.5 C 191.22206,135.01101 191.375,134.41866 191.375,133.8125 C 191.375,131.98323 189.89177,130.50001 188.0625,130.5 C 187.56453,130.5 187.11139,130.64671 186.6875,130.84375 C 181.18804,125.03687 175.36496,119.7468 170.40625,116.15625 C 157.99834,107.1718 147.53023,100.37852 125,99.28125 z"
         style="fill:#000000;fill-opacity:1;fill-rule:evenodd;stroke:#ffffff;stroke-width:3;stroke-linecap:butt;stroke-linejoin:miter;stroke-miterlimit:4;stroke-dasharray:none;stroke-opacity:1" />
      <path
         id="path3413"
         d="M 204.40625,150.84375 C 203.63903,150.84375 202.93687,151.12429 202.375,151.5625 C 203.94435,153.19315 205.43163,154.82602 206.8125,156.4375 C 207.37662,155.84324 207.71875,155.03968 207.71875,154.15625 C 207.71875,152.32698 206.23552,150.84376 204.40625,150.84375 z"
         style="opacity:1;fill:#000000;fill-opacity:1;stroke:#ffffff;stroke-width:3;stroke-linecap:round;stroke-linejoin:round;stroke-miterlimit:4;stroke-dasharray:none;stroke-opacity:1" />
      <path
         style="opacity:1;fill:#000000;fill-opacity:1;stroke:#ffffff;stroke-width:3;stroke-linecap:round;stroke-linejoin:round;stroke-miterlimit:4;stroke-dasharray:none;stroke-opacity:1"
         d="M 45.59375,150.84375 C 46.36097,150.84375 47.06313,151.12429 47.625,151.5625 C 46.05565,153.19315 44.56837,154.82602 43.1875,156.4375 C 42.62338,155.84324 42.28125,155.03968 42.28125,154.15625 C 42.28125,152.32698 43.76448,150.84376 45.59375,150.84375 z"
         id="path3470" />
      <path
         id="path3478"
         d="M 154.4375,92 C 152.00498,92.00498 148.66395,95.229683 145.5625,95.21875 C 142.46123,95.207818 140.16048,92.576706 135.875,92.6875 C 131.63586,92.797095 125.24424,96.258597 125.25,99.1875 C 125.25009,99.231715 125.2494,99.269022 125.25,99.3125 C 128.32192,99.468692 131.15481,99.702279 133.8125,100.0625 C 134.82947,99.157441 135.89657,98.328328 137.03125,97.9375 C 140.02161,96.907512 143.55577,98.288279 146.90625,97.28125 C 150.21422,96.287003 151.77228,93.983663 153.71875,93.21875 C 155.6806,92.447794 157.38165,93.098369 158.6875,93.625 C 157.9987,92.991942 156.86969,91.995024 154.4375,92 z"
         style="fill:#000000;fill-rule:evenodd;stroke:#ffffff;stroke-width:3;stroke-linecap:butt;stroke-linejoin:round;stroke-miterlimit:4;stroke-dasharray:none;stroke-opacity:1" />
      <path
         style="fill:#000000;fill-rule:evenodd;stroke:#ffffff;stroke-width:3;stroke-linecap:butt;stroke-linejoin:round;stroke-miterlimit:4;stroke-dasharray:none;stroke-opacity:1"
         d="M 95.5625,92 C 97.99502,92.00498 101.33605,95.229683 104.4375,95.21875 C 107.53877,95.207818 109.83952,92.576706 114.125,92.6875 C 118.36414,92.797095 124.75576,96.258597 124.75,99.1875 C 124.74991,99.231715 124.7506,99.269022 124.75,99.3125 C 121.67808,99.468692 118.84519,99.702279 116.1875,100.0625 C 115.17053,99.157441 114.10343,98.328328 112.96875,97.9375 C 109.97839,96.907512 106.44423,98.288279 103.09375,97.28125 C 99.78578,96.287003 98.22772,93.983663 96.28125,93.21875 C 94.3194,92.447794 92.61835,93.098369 91.3125,93.625 C 92.0013,92.991942 93.13031,91.995024 95.5625,92 z"
         id="path3485" />
    </g>
  </g>
</svg>
