<?xml version="1.0" encoding="UTF-8" standalone="no"?>
<!-- Created with Inkscape (http://www.inkscape.org/) -->
<svg
   xmlns:dc="http://purl.org/dc/elements/1.1/"
   xmlns:cc="http://creativecommons.org/ns#"
   xmlns:rdf="http://www.w3.org/1999/02/22-rdf-syntax-ns#"
   xmlns:svg="http://www.w3.org/2000/svg"
   xmlns="http://www.w3.org/2000/svg"
   xmlns:sodipodi="http://sodipodi.sourceforge.net/DTD/sodipodi-0.dtd"
   xmlns:inkscape="http://www.inkscape.org/namespaces/inkscape"
   width="250"
   height="250"
   id="svg2"
   sodipodi:version="0.32"
   inkscape:version="0.46"
   version="1.0"
   sodipodi:docname="Staff-icon.svg"
   inkscape:output_extension="org.inkscape.output.svg.inkscape">
  <defs
     id="defs4">
    <inkscape:perspective
       sodipodi:type="inkscape:persp3d"
       inkscape:vp_x="0 : 526.18109 : 1"
       inkscape:vp_y="0 : 1000 : 0"
       inkscape:vp_z="744.09448 : 526.18109 : 1"
       inkscape:persp3d-origin="372.04724 : 350.78739 : 1"
       id="perspective10" />
    <inkscape:perspective
       id="perspective3217"
       inkscape:persp3d-origin="372.04724 : 350.78739 : 1"
       inkscape:vp_z="744.09448 : 526.18109 : 1"
       inkscape:vp_y="0 : 1000 : 0"
       inkscape:vp_x="0 : 526.18109 : 1"
       sodipodi:type="inkscape:persp3d" />
    <clipPath
       clipPathUnits="userSpaceOnUse"
       id="clipPath3227">
      <rect
         y="14.059755"
         x="15.915535"
         height="220.55493"
         width="231.4245"
         id="rect3229"
         style="opacity:1;fill:none;fill-opacity:1;stroke:#000000;stroke-width:3.38886523;stroke-linecap:round;stroke-linejoin:round;stroke-miterlimit:4;stroke-dasharray:none;stroke-opacity:1"
         transform="matrix(0.9999452,-1.0471784e-2,1.0471784e-2,0.9999452,0,0)" />
    </clipPath>
    <inkscape:perspective
       sodipodi:type="inkscape:persp3d"
       inkscape:vp_x="0 : 526.18109 : 1"
       inkscape:vp_y="0 : 1000 : 0"
       inkscape:vp_z="744.09448 : 526.18109 : 1"
       inkscape:persp3d-origin="372.04724 : 350.78739 : 1"
       id="perspective3810" />
    <inkscape:perspective
       id="perspective3348"
       inkscape:persp3d-origin="372.04724 : 350.78739 : 1"
       inkscape:vp_z="744.09448 : 526.18109 : 1"
       inkscape:vp_y="0 : 1000 : 0"
       inkscape:vp_x="0 : 526.18109 : 1"
       sodipodi:type="inkscape:persp3d" />
  </defs>
  <sodipodi:namedview
     id="base"
     pagecolor="#ffffff"
     bordercolor="#666666"
     borderopacity="1.0"
     gridtolerance="10000"
     guidetolerance="10"
     objecttolerance="10"
     inkscape:pageopacity="0.0"
     inkscape:pageshadow="2"
     inkscape:zoom="3.772"
     inkscape:cx="125"
     inkscape:cy="125"
     inkscape:document-units="px"
     inkscape:current-layer="layer1"
     showgrid="false"
     inkscape:window-width="1920"
     inkscape:window-height="1150"
     inkscape:window-x="-8"
     inkscape:window-y="-8" />
  <metadata
     id="metadata7">
    <rdf:RDF>
      <cc:Work
         rdf:about="">
        <dc:format>image/svg+xml</dc:format>
        <dc:type
           rdf:resource="http://purl.org/dc/dcmitype/StillImage" />
      </cc:Work>
    </rdf:RDF>
  </metadata>
  <g
     inkscape:label="Layer 1"
     inkscape:groupmode="layer"
     id="layer1">
    <g
       id="g3886">
      <rect
         y="30"
         x="30"
         height="190"
         width="190"
         id="rect3239"
         style="opacity:1;fill:#ffffff;fill-opacity:1;stroke:none;stroke-width:3;stroke-linecap:round;stroke-linejoin:round;stroke-miterlimit:4;stroke-dasharray:none;stroke-opacity:1" />
      <path
         id="path3656"
         d="M 25 25 L 25 225 L 225 225 L 225 25 L 25 25 z M 71 71 L 179 71 L 179 179 L 71 179 L 71 71 z "
         style="opacity:1;fill:#000000;fill-opacity:1;stroke:none;stroke-width:3;stroke-linecap:round;stroke-linejoin:round;stroke-miterlimit:4;stroke-dasharray:none;stroke-opacity:1" />
      <g
         id="g3717">
        <path
           style="fill:#000000;fill-rule:evenodd;stroke:none;stroke-width:2;stroke-linecap:round;stroke-linejoin:round;stroke-miterlimit:4;stroke-opacity:1"
           d="M 235.78125,153.96875 C 235.4437,153.98883 235.10884,154.04115 234.78125,154.125 C 231.69926,154.83854 229.51398,156.37308 227.53125,157.96875 C 227.4533,157.92061 227.42507,157.85946 227.34375,157.8125 C 225.94592,157.0056 224.25668,156.87925 222.75436,157.46923 C 221.25204,158.0592 220.10021,159.30128 219.625,160.84375 C 219.55756,160.87892 219.54521,160.86273 219.4375,160.9375 C 219.16017,161.13001 216.09351,162.19783 213.125,164.59375 C 212.36368,165.20821 211.82637,165.95935 211.1875,166.65625 C 210.17049,166.4156 209.10505,166.48083 208.125,166.84375 C 207.06779,165.31376 205.90468,163.86422 204.375,162.625 C 202.69838,161.28459 200.37903,161.08719 198.5,162.125 C 196.12043,160.14034 193.20261,158.72633 189.90625,157.84375 C 186.32088,156.88379 183.54711,156.50275 183.71875,156.5625 C 183.97757,156.6526 184.62699,156.72696 182.09375,155.28125 C 180.77296,154.52456 179.19068,154.37195 177.74962,154.86227 C 176.30857,155.35259 175.14771,156.43855 174.5625,157.84375 C 173.26234,157.92643 172.31614,158.17741 171.53125,158.375 C 170.46045,158.64457 169.18228,158.6325 170.4375,158.6875 C 168.59856,158.6069 166.35712,158.60045 163.84375,160.375 C 161.69396,161.88693 160.97601,164.74544 162.15625,167.09375 C 162.74087,168.25417 163.23422,168.87832 163.5625,169.375 C 163.59963,169.43118 163.59427,169.44755 163.625,169.5 C 163.54775,170.00173 163.48664,170.8835 163.5625,172 C 161.17902,173.60992 160.51353,176.82646 162.0625,179.25 C 163.21214,181.0433 163.63641,181.26364 163.84375,181.71875 C 163.43329,180.8178 163.97004,185.06775 166.4375,189.40625 C 167.18501,190.72058 167.98819,191.76943 168.8125,192.6875 C 168.10388,194.16788 167.60518,195.86071 168.09375,197.96875 C 168.30974,198.92321 168.78563,199.79929 169.46875,200.5 C 169.2372,200.54704 168.80659,200.68327 168.65625,200.6875 C 166.40339,200.74919 164.43565,202.22813 163.75,204.375 C 163.14681,206.26539 163.66102,208.25672 164.40625,209.875 C 163.00016,211.36898 162.16347,212.9811 161.40625,214.4375 C 160.29261,216.57942 159.37973,218.58026 158.65625,219.625 C 157.76757,220.90165 157.48425,222.50411 157.8813,224.00809 C 158.27835,225.51206 159.31572,226.76586 160.71875,227.4375 C 162.80991,228.44134 165.04979,228.49131 166.09375,228.4375 C 167.13771,228.38369 166.92145,228.3922 166.78125,228.34375 C 166.27288,228.16805 166.65757,228.32762 167.75,229.3125 C 168.16181,229.68377 168.77204,230.1805 169.375,230.65625 C 169.18525,232.9977 170.55863,235.18493 172.75,236.03125 C 174.97037,236.88913 176.57803,236.48874 177.375,236.375 C 178.17197,236.26126 178.34366,236.29969 178.21875,236.28125 C 179.08212,236.40868 181.13196,237.57534 184.9375,237.125 C 185.33765,237.07765 185.6441,236.95367 186,236.875 C 186.05154,236.90714 186.10363,236.9384 186.15625,236.96875 C 188.60794,238.13422 191.78197,238.26292 194.25,237.375 C 196.04538,236.72906 197.24097,235.82201 198.5,234.6875 C 199.75903,233.55299 200.95218,232.21181 201.84375,230.25 C 202.88582,227.95697 204.10091,225.47222 205.03125,224.5625 C 206.29822,223.32361 210.4819,221.40121 210.78125,221.40625 C 211.02803,221.4104 211.82611,221.93003 212.78125,223.09375 C 212.3774,222.60171 213.0045,223.46089 213.28125,224.0625 C 213.39938,224.3193 213.45395,224.5886 213.5,224.78125 C 213.47471,224.8977 213.46511,224.95844 213.375,225.28125 C 213.27938,225.62381 213.23216,225.74748 213.1875,225.875 C 212.63983,227.10967 212.58395,228.50679 213.03125,229.78125 C 214.06408,232.74051 215.99387,234.62431 218.1875,235.96875 C 220.38113,237.31319 223.22044,238.61072 226.875,236.9375 C 227.32601,236.73655 227.74674,236.47359 228.125,236.15625 C 230.17859,234.38598 230.51039,232.6263 230.8125,231.0625 C 231.11461,229.4987 231.12823,227.93743 231,226.3125 C 230.74355,223.06265 229.93551,219.57872 227.46875,216.46875 C 225.81083,214.37853 224.68254,213.22947 224.25,212.59375 C 223.81746,211.95803 223.58294,211.58468 223.28125,209.46875 C 222.94019,207.07667 223.65156,206.38703 225.90625,204.5625 C 226.3675,204.18925 226.77188,204.04263 228.0625,203.84375 C 229.35312,203.64487 231.38398,203.56251 233.875,202.78125 C 238.43736,201.35033 243.99915,198.84742 247.8125,193.96875 C 249.49412,191.80516 249.25029,188.71666 247.25,186.84375 C 247.67598,185.75741 247.98901,184.59999 248.15625,183.34375 C 248.71734,179.12919 248.10168,177.02441 248.15625,176.84375 C 248.99892,174.06696 247.45314,171.12858 244.6875,170.25 C 244.56454,169.28342 244.38584,168.40723 244.1875,167.65625 C 242.96014,163.00901 241.29737,161.71486 241.28125,159.25 C 241.27641,157.81251 240.68818,156.43857 239.6513,155.44293 C 238.61443,154.44729 237.21776,153.91527 235.78125,153.96875 z M 170.6875,214.84375 C 170.76791,214.85926 171.06631,214.98293 171.125,215 C 171.32748,215.0589 171.12343,215.12233 170.6875,214.84375 z"
           id="path3545" />
        <path
           id="path3827"
           style="fill:#000000;fill-rule:evenodd;stroke:#ffffff;stroke-width:2;stroke-linecap:round;stroke-linejoin:round;stroke-miterlimit:4;stroke-dasharray:none;stroke-opacity:1"
           d="M 206.38139,205.78048 C 206.53023,205.19627 206.04721,204.64778 204.95575,203.7163 C 203.00054,202.04768 197.44459,199.76689 192.82907,198.59583 C 188.15516,197.40995 185.03803,199.11948 182.47544,198.75449 C 179.91285,198.38951 177.58794,197.05916 176.19138,196.94654 C 174.79481,196.83392 174.6994,196.6359 173.23727,196.77627 C 172.88545,195.25828 174.18942,193.2028 176.14609,192.13079 C 174.75448,190.99914 172.79497,189.88042 171.02748,186.77266 C 169.21681,183.58898 169.32731,180.9867 168.66399,179.53073 C 168.00067,178.07476 167.02235,177.1239 166.53844,176.36906 C 167.64461,175.90495 169.13844,175.39523 170.71418,175.86442 C 169.74372,174.47202 169.07651,173.30896 168.82972,172.02197 C 168.58294,170.73497 169.2269,169.36658 168.93396,168.24482 C 168.64102,167.12305 167.40461,165.7155 166.9015,164.71686 C 167.75898,164.11144 169.05579,163.96167 170.23357,164.01329 C 171.41134,164.0649 174.15239,162.9373 175.58624,163.05952 C 177.02009,163.18173 178.43289,163.60504 179.82167,164.84755 C 179.30873,163.32837 179.05261,160.9311 179.46927,159.88403 C 180.15382,160.2747 180.69867,161.13115 181.98221,161.57795 C 183.26574,162.02476 185.40548,162.13781 188.52758,162.97373 C 192.04901,163.91656 194.73592,165.46869 196.5018,167.52009 C 198.21812,169.51391 197.69287,170.95018 198.30461,171.62375 C 198.9176,172.29869 199.64328,172.06246 200.10494,171.55397 C 200.56659,171.04548 199.78839,169.53992 199.93303,168.77888 C 200.07768,168.01785 200.05508,167.42221 201.03222,166.73822 C 202.84462,168.20647 204.08273,170.03194 205.45654,172.55167 C 206.27335,174.04979 206.95808,175.79716 207.41428,177.63615 C 206.80984,179.04431 206.36117,180.5796 206.41717,182.28338 C 206.46051,183.60167 206.89697,184.92452 207.47521,186.19455 C 207.05381,188.66353 206.55037,191.10496 206.7118,192.22399 C 206.98652,194.12833 207.9534,195.78459 208.88225,195.80336 C 209.81109,195.82212 210.75985,195.83603 210.80228,193.37812 C 210.84471,190.92021 206.56055,186.58405 206.41924,182.28502 C 206.27592,177.92471 209.45994,174.66786 210.01051,171.82167 C 211.30697,172.84916 211.81609,172.98141 212.65898,173.94562 C 212.88363,172.54383 214.60415,170.22368 216.46975,168.71796 C 218.33487,167.21261 220.9678,166.33072 222.46936,165.28841 C 224.03325,164.20285 224.45721,163.48869 224.68828,162.39274 C 226.00504,163.15309 226.74573,165.40112 226.38412,166.6981 C 226.63726,165.46813 232.13323,160.17388 235.95678,159.28866 C 235.98532,163.64993 238.35716,166.32962 239.06493,169.0095 C 239.75495,171.62222 240.1655,174.87637 237.92179,178.08002 C 239.22089,176.81996 241.16852,175.19288 243.1062,175.30453 C 242.41177,177.60336 243.25805,179.93347 242.89512,182.65959 C 242.53909,185.33395 240.81947,187.92843 238.82627,189.74043 C 240.3898,189.79607 241.79818,189.77167 243.63499,190.72032 C 241.4755,193.4831 235.59121,196.67882 232.29137,197.71377 C 228.92373,198.76998 225.47585,198.09594 222.56796,200.44905 C 219.66012,202.80212 217.39665,205.74968 218.03205,210.2062 C 218.77955,215.44891 220.42767,216.09315 223.32571,219.74685 C 226.22339,223.40011 226.4019,230.60378 224.64635,232.11713 C 222.69117,233.0123 218.97944,230.77613 218.02031,228.02803 L 218.09032,227.97855 C 218.09032,227.97855 218.90055,225.8159 218.87496,224.4429 C 218.84936,223.06989 217.47549,220.45508 216.87347,219.7216 C 216.25164,218.96398 214.14733,216.15869 210.88916,216.10387 C 207.62982,216.04903 203.45406,218.69668 201.32478,220.77878 C 199.19551,222.86087 197.93883,226.0638 197.02363,228.07766 C 196.13631,230.03016 193.85851,231.87269 192.47213,232.37148 C 191.08575,232.87026 189.78702,232.82115 188.43562,232.17873 C 188.73562,231.29294 188.72541,230.50098 188.96807,229.42586 C 188.09864,230.49592 185.82427,231.68706 184.30455,231.8669 C 182.78483,232.04674 180.75137,231.30046 178.98792,231.04018 C 177.27504,230.78737 175.82092,231.53482 174.6537,231.08384 C 174.92599,229.87814 175.20531,229.28105 175.41205,228.24867 C 171.70313,226.44215 170.4911,224.02903 168.50721,223.34336 C 166.52331,222.65769 165.18295,223.70065 163.01196,222.65849 C 165.32585,219.31712 166.8545,214.01889 169.54422,212.4229 C 172.16917,210.86535 172.68231,212.25992 173.41614,212.16383 C 174.36237,212.03993 174.35166,211.35986 173.96781,210.65782 C 173.58395,209.95578 171.77517,209.82691 170.92075,209.38811 C 169.85305,208.83976 168.2558,207.77458 168.81941,206.00823 C 171.40736,205.93534 174.44047,204.62369 177.73661,202.81079 C 181.02225,201.00367 186.44059,199.88764 189.9408,200.2071 C 193.44102,200.52656 197.66379,202.34476 199.61785,203.59069 C 201.57191,204.83662 202.8614,207.31397 204.10432,207.40669 C 205.34723,207.4994 206.21805,206.42164 206.38139,205.78048 z"
           sodipodi:nodetypes="cssssccssccsscssccsssssscscscszssccsscccsccsccssssccczzzzzzcczzcczczzzzczzzzz" />
        <path
           style="fill:none;fill-rule:evenodd;stroke:#ffffff;stroke-width:2;stroke-linecap:round;stroke-linejoin:round;stroke-miterlimit:4;stroke-dasharray:none;stroke-opacity:1"
           d="M 176.16853,218.65394 C 183.07517,219.77451 189.65627,219.11781 195.31946,215.25419 C 200.97697,211.39443 209.03541,210.76409 215.36142,213.31837 C 211.04122,208.44751 208.64347,204.52204 206.52689,200.65453 C 204.41031,196.78703 203.34978,192.16644 200.99472,188.21846 C 198.63966,184.27047 194.64586,178.77502 190.46862,175.13351 C 186.30519,171.50404 177.72032,168.11887 173.54814,167.66903"
           id="path3855"
           sodipodi:nodetypes="czczzzz" />
        <path
           style="fill:none;fill-rule:evenodd;stroke:#ffffff;stroke-width:2;stroke-linecap:round;stroke-linejoin:round;stroke-miterlimit:4;stroke-dasharray:none;stroke-opacity:1"
           d="M 180.54104,227.9687 C 181.60291,223.47862 185.53563,220.00757 189.55359,218.06319"
           id="path3857"
           sodipodi:nodetypes="cc" />
        <path
           style="fill:none;fill-rule:evenodd;stroke:#ffffff;stroke-width:2;stroke-linecap:round;stroke-linejoin:round;stroke-miterlimit:4;stroke-dasharray:none;stroke-opacity:1"
           d="M 192.41589,223.29481 C 192.36642,219.3207 193.63238,216.03385 198.53326,213.51665"
           id="path3859"
           sodipodi:nodetypes="cc" />
        <path
           style="fill:none;fill-rule:evenodd;stroke:#ffffff;stroke-width:2;stroke-linecap:round;stroke-linejoin:round;stroke-miterlimit:4;stroke-dasharray:none;stroke-opacity:1"
           d="M 196.86278,214.32084 C 194.11647,216.04346 187.63166,214.96202 184.47246,211.87206"
           id="path3861"
           sodipodi:nodetypes="cc" />
        <path
           style="fill:none;fill-rule:evenodd;stroke:#ffffff;stroke-width:2;stroke-linecap:round;stroke-linejoin:round;stroke-miterlimit:4;stroke-dasharray:none;stroke-opacity:1"
           d="M 179.04663,182.74403 C 184.10592,179.95452 193.62888,179.26285 197.78463,183.4393"
           id="path3869"
           sodipodi:nodetypes="cc" />
        <path
           style="fill:none;fill-rule:evenodd;stroke:#ffffff;stroke-width:2;stroke-linecap:round;stroke-linejoin:round;stroke-miterlimit:4;stroke-dasharray:none;stroke-opacity:1"
           d="M 189.45145,167.95358 C 189.58485,169.96157 190.68206,175.12119 194.68529,179.41876"
           id="path3871"
           sodipodi:nodetypes="cc" />
        <path
           style="fill:none;fill-rule:evenodd;stroke:#ffffff;stroke-width:2;stroke-linecap:round;stroke-linejoin:round;stroke-miterlimit:4;stroke-dasharray:none;stroke-opacity:1"
           d="M 200.77248,174.16542 C 198.47278,178.7272 198.64336,184.63818 201.13712,188.42461"
           id="path3873"
           sodipodi:nodetypes="cc" />
        <path
           style="fill:none;fill-rule:evenodd;stroke:#ffffff;stroke-width:2;stroke-linecap:round;stroke-linejoin:round;stroke-miterlimit:4;stroke-dasharray:none;stroke-opacity:1"
           d="M 185.0863,192.17041 C 190.69962,188.63009 202.35609,190.40991 203.86379,194.55966"
           id="path3875"
           sodipodi:nodetypes="cc" />
        <path
           style="fill:none;fill-rule:evenodd;stroke:#ffffff;stroke-width:2;stroke-linecap:round;stroke-linejoin:round;stroke-miterlimit:4;stroke-dasharray:none;stroke-opacity:1"
           d="M 231.56356,171.68052 C 231.90666,173.69951 229.85486,179.84119 227.59013,182.57163 C 225.31046,185.32007 222.61638,187.69752 219.40267,191.42411 C 216.18528,195.15496 213.8247,199.87452 212.92604,203.19172 C 212.02684,206.51098 212.45415,208.77224 213.21399,210.75884"
           id="path3891"
           sodipodi:nodetypes="czzzz" />
        <path
           style="fill:none;fill-rule:evenodd;stroke:#ffffff;stroke-width:2;stroke-linecap:round;stroke-linejoin:round;stroke-miterlimit:4;stroke-dasharray:none;stroke-opacity:1"
           d="M 217.01558,181.11885 C 219.67134,184.00359 218.43105,191.39019 216.40842,195.5257"
           id="path3914"
           sodipodi:nodetypes="cc" />
        <path
           style="fill:none;fill-rule:evenodd;stroke:#ffffff;stroke-width:2;stroke-linecap:round;stroke-linejoin:round;stroke-miterlimit:4;stroke-dasharray:none;stroke-opacity:1"
           d="M 220.93596,189.701 C 225.24969,184.78924 234.00249,183.94073 234.00249,183.94073"
           id="path3916"
           sodipodi:nodetypes="cc" />
        <path
           style="fill:none;fill-rule:evenodd;stroke:#ffffff;stroke-width:2;stroke-linecap:round;stroke-linejoin:round;stroke-miterlimit:4;stroke-dasharray:none;stroke-opacity:1"
           d="M 229.88272,190.77153 C 221.35307,192.9683 212.72589,200.95322 212.54186,205.08902"
           id="path3918"
           sodipodi:nodetypes="cc" />
      </g>
      <g
         id="g3701">
        <path
           id="path3600"
           d="M 14.21875,96.03125 C 14.5563,96.01117 14.89116,95.95885 15.21875,95.875 C 18.30074,95.16146 20.48602,93.62692 22.46875,92.03125 C 22.5467,92.07939 22.57493,92.14054 22.65625,92.1875 C 24.05408,92.9944 25.74332,93.12075 27.24564,92.53077 C 28.74796,91.9408 29.89979,90.69872 30.375,89.15625 C 30.44244,89.12108 30.45479,89.13727 30.5625,89.0625 C 30.83983,88.86999 33.90649,87.80217 36.875,85.40625 C 37.63632,84.79179 38.17363,84.04065 38.8125,83.34375 C 39.82951,83.5844 40.89495,83.51917 41.875,83.15625 C 42.93221,84.68624 44.09532,86.13578 45.625,87.375 C 47.30162,88.71541 49.62097,88.91281 51.5,87.875 C 53.87957,89.85966 56.79739,91.27367 60.09375,92.15625 C 63.67912,93.11621 66.45289,93.49725 66.28125,93.4375 C 66.02243,93.3474 65.37301,93.27304 67.90625,94.71875 C 69.22704,95.47544 70.80932,95.62805 72.25038,95.13773 C 73.69143,94.64741 74.85229,93.56145 75.4375,92.15625 C 76.73766,92.07357 77.68386,91.82259 78.46875,91.625 C 79.53955,91.35543 80.81772,91.3675 79.5625,91.3125 C 81.40144,91.3931 83.64288,91.39955 86.15625,89.625 C 88.30604,88.11307 89.02399,85.25456 87.84375,82.90625 C 87.25913,81.74583 86.76578,81.12168 86.4375,80.625 C 86.40037,80.56882 86.40573,80.55245 86.375,80.5 C 86.45225,79.99827 86.51336,79.1165 86.4375,78 C 88.82098,76.39008 89.48647,73.17354 87.9375,70.75 C 86.78786,68.9567 86.36359,68.73636 86.15625,68.28125 C 86.56671,69.1822 86.02996,64.93225 83.5625,60.59375 C 82.81499,59.27942 82.01181,58.23057 81.1875,57.3125 C 81.89612,55.83212 82.39482,54.13929 81.90625,52.03125 C 81.69026,51.07679 81.21437,50.20071 80.53125,49.5 C 80.7628,49.45296 81.19341,49.31673 81.34375,49.3125 C 83.59661,49.25081 85.56435,47.77187 86.25,45.625 C 86.85319,43.73461 86.33898,41.74328 85.59375,40.125 C 86.99984,38.63102 87.83653,37.0189 88.59375,35.5625 C 89.70739,33.42058 90.62027,31.41974 91.34375,30.375 C 92.23243,29.09835 92.51575,27.49589 92.1187,25.99191 C 91.72165,24.48794 90.68428,23.23414 89.28125,22.5625 C 87.19009,21.55866 84.95021,21.50869 83.90625,21.5625 C 82.86229,21.61631 83.07855,21.6078 83.21875,21.65625 C 83.72712,21.83195 83.34243,21.67238 82.25,20.6875 C 81.83819,20.31623 81.22796,19.8195 80.625,19.34375 C 80.81475,17.0023 79.44137,14.81507 77.25,13.96875 C 75.02963,13.11087 73.42197,13.51126 72.625,13.625 C 71.82803,13.73874 71.65634,13.70031 71.78125,13.71875 C 70.91788,13.59132 68.86804,12.42466 65.0625,12.875 C 64.66235,12.92235 64.3559,13.04633 64,13.125 C 63.94846,13.09286 63.89637,13.0616 63.84375,13.03125 C 61.39206,11.86578 58.21803,11.73708 55.75,12.625 C 53.95462,13.27094 52.75903,14.17799 51.5,15.3125 C 50.24097,16.44701 49.04782,17.78819 48.15625,19.75 C 47.11418,22.04303 45.89909,24.52778 44.96875,25.4375 C 43.70178,26.67639 39.5181,28.59879 39.21875,28.59375 C 38.97197,28.5896 38.17389,28.06997 37.21875,26.90625 C 37.6226,27.39829 36.9955,26.53911 36.71875,25.9375 C 36.60062,25.6807 36.54605,25.4114 36.5,25.21875 C 36.52529,25.1023 36.53489,25.04156 36.625,24.71875 C 36.72062,24.37619 36.76784,24.25252 36.8125,24.125 C 37.36017,22.89033 37.41605,21.49321 36.96875,20.21875 C 35.93592,17.25949 34.00613,15.37569 31.8125,14.03125 C 29.61887,12.68681 26.77956,11.38928 23.125,13.0625 C 22.67399,13.26345 22.25326,13.52641 21.875,13.84375 C 19.82141,15.61402 19.48961,17.3737 19.1875,18.9375 C 18.88539,20.5013 18.87177,22.06257 19,23.6875 C 19.25645,26.93735 20.06449,30.42128 22.53125,33.53125 C 24.18917,35.62147 25.31746,36.77053 25.75,37.40625 C 26.18254,38.04197 26.41706,38.41532 26.71875,40.53125 C 27.05981,42.92333 26.34844,43.61297 24.09375,45.4375 C 23.6325,45.81075 23.22812,45.95737 21.9375,46.15625 C 20.64688,46.35513 18.61602,46.43749 16.125,47.21875 C 11.56264,48.64967 6.00085,51.15258 2.1875,56.03125 C 0.50588,58.19484 0.74971,61.28334 2.75,63.15625 C 2.32402,64.24259 2.01099,65.40001 1.84375,66.65625 C 1.28266,70.87081 1.89832,72.97559 1.84375,73.15625 C 1.00108,75.93304 2.54686,78.87142 5.3125,79.75 C 5.43546,80.71658 5.61416,81.59277 5.8125,82.34375 C 7.03986,86.99099 8.70263,88.28514 8.71875,90.75 C 8.72359,92.18749 9.31182,93.56143 10.3487,94.55707 C 11.38557,95.55271 12.78224,96.08473 14.21875,96.03125 z M 79.3125,35.15625 C 79.23209,35.14074 78.93369,35.01707 78.875,35 C 78.67252,34.9411 78.87657,34.87767 79.3125,35.15625 z"
           style="fill:#000000;fill-rule:evenodd;stroke:none;stroke-width:2;stroke-linecap:round;stroke-linejoin:round;stroke-miterlimit:4;stroke-opacity:1" />
        <path
           sodipodi:nodetypes="cssssccssccsscssccsssssscscscszssccsscccsccsccssssccczzzzzzcczzcczczzzzczzzzz"
           d="M 43.61861,44.21952 C 43.46977,44.80373 43.95279,45.35222 45.04425,46.2837 C 46.99946,47.95232 52.55541,50.23311 57.17093,51.40417 C 61.84484,52.59005 64.96197,50.88052 67.52456,51.24551 C 70.08715,51.61049 72.41206,52.94084 73.80862,53.05346 C 75.20519,53.16608 75.3006,53.3641 76.76273,53.22373 C 77.11455,54.74172 75.81058,56.7972 73.85391,57.86921 C 75.24552,59.00086 77.20503,60.11958 78.97252,63.22734 C 80.78319,66.41102 80.67269,69.0133 81.33601,70.46927 C 81.99933,71.92524 82.97765,72.8761 83.46156,73.63094 C 82.35539,74.09505 80.86156,74.60477 79.28582,74.13558 C 80.25628,75.52798 80.92349,76.69104 81.17028,77.97803 C 81.41706,79.26503 80.7731,80.63342 81.06604,81.75518 C 81.35898,82.87695 82.59539,84.2845 83.0985,85.28314 C 82.24102,85.88856 80.94421,86.03833 79.76643,85.98671 C 78.58866,85.9351 75.84761,87.0627 74.41376,86.94048 C 72.97991,86.81827 71.56711,86.39496 70.17833,85.15245 C 70.69127,86.67163 70.94739,89.0689 70.53073,90.11597 C 69.84618,89.7253 69.30133,88.86885 68.01779,88.42205 C 66.73426,87.97524 64.59452,87.86219 61.47242,87.02627 C 57.95099,86.08344 55.26408,84.53131 53.4982,82.47991 C 51.78188,80.48609 52.30713,79.04982 51.69539,78.37625 C 51.0824,77.70131 50.35672,77.93754 49.89506,78.44603 C 49.43341,78.95452 50.21161,80.46008 50.06697,81.22112 C 49.92232,81.98215 49.94492,82.57779 48.96778,83.26178 C 47.15538,81.79353 45.91727,79.96806 44.54346,77.44833 C 43.72665,75.95021 43.04192,74.20284 42.58572,72.36385 C 43.19016,70.95569 43.63883,69.4204 43.58283,67.71662 C 43.53949,66.39833 43.10303,65.07548 42.52479,63.80545 C 42.94619,61.33647 43.44963,58.89504 43.2882,57.77601 C 43.01348,55.87167 42.0466,54.21541 41.11775,54.19664 C 40.18891,54.17788 39.24015,54.16397 39.19772,56.62188 C 39.15529,59.07979 43.43945,63.41595 43.58076,67.71498 C 43.72408,72.07529 40.54006,75.33214 39.98949,78.17833 C 38.69303,77.15084 38.18391,77.01859 37.34102,76.05438 C 37.11637,77.45617 35.39585,79.77632 33.53025,81.28204 C 31.66513,82.78739 29.0322,83.66928 27.53064,84.71159 C 25.96675,85.79715 25.54279,86.51131 25.31172,87.60726 C 23.99496,86.84691 23.25427,84.59888 23.61588,83.3019 C 23.36274,84.53187 17.86677,89.82612 14.04322,90.71134 C 14.01468,86.35007 11.64284,83.67038 10.93507,80.9905 C 10.24505,78.37778 9.8345,75.12363 12.07821,71.91998 C 10.77911,73.18004 8.83148,74.80712 6.8938,74.69547 C 7.58823,72.39664 6.74195,70.06653 7.10488,67.34041 C 7.46091,64.66605 9.18053,62.07157 11.17373,60.25957 C 9.6102,60.20393 8.20182,60.22833 6.36501,59.27968 C 8.5245,56.5169 14.40879,53.32118 17.70863,52.28623 C 21.07627,51.23002 24.52415,51.90406 27.43204,49.55095 C 30.33988,47.19788 32.60335,44.25032 31.96795,39.7938 C 31.22045,34.55109 29.57233,33.90685 26.67429,30.25315 C 23.77661,26.59989 23.5981,19.39622 25.35365,17.88287 C 27.30883,16.9877 31.02056,19.22387 31.97969,21.97197 L 31.90968,22.02145 C 31.90968,22.02145 31.09945,24.1841 31.12504,25.5571 C 31.15064,26.93011 32.52451,29.54492 33.12653,30.2784 C 33.74836,31.03602 35.85267,33.84131 39.11084,33.89613 C 42.37018,33.95097 46.54594,31.30332 48.67522,29.22122 C 50.80449,27.13913 52.06117,23.9362 52.97637,21.92234 C 53.86369,19.96984 56.14149,18.12731 57.52787,17.62852 C 58.91425,17.12974 60.21298,17.17885 61.56438,17.82127 C 61.26438,18.70706 61.27459,19.49902 61.03193,20.57414 C 61.90136,19.50408 64.17573,18.31294 65.69545,18.1331 C 67.21517,17.95326 69.24863,18.69954 71.01208,18.95982 C 72.72496,19.21263 74.17908,18.46518 75.3463,18.91616 C 75.07401,20.12186 74.79469,20.71895 74.58795,21.75133 C 78.29687,23.55785 79.5089,25.97097 81.49279,26.65664 C 83.47669,27.34231 84.81705,26.29935 86.98804,27.34151 C 84.67415,30.68288 83.1455,35.98111 80.45578,37.5771 C 77.83083,39.13465 77.31769,37.74008 76.58386,37.83617 C 75.63763,37.96007 75.64834,38.64014 76.03219,39.34218 C 76.41605,40.04422 78.22483,40.17309 79.07925,40.61189 C 80.14695,41.16024 81.7442,42.22542 81.18059,43.99177 C 78.59264,44.06466 75.55953,45.37631 72.26339,47.18921 C 68.97775,48.99633 63.55941,50.11236 60.0592,49.7929 C 56.55898,49.47344 52.33621,47.65524 50.38215,46.40931 C 48.42809,45.16338 47.1386,42.68603 45.89568,42.59331 C 44.65277,42.5006 43.78195,43.57836 43.61861,44.21952 z"
           style="fill:#000000;fill-rule:evenodd;stroke:#ffffff;stroke-width:2;stroke-linecap:round;stroke-linejoin:round;stroke-miterlimit:4;stroke-dasharray:none;stroke-opacity:1"
           id="path3602" />
        <path
           sodipodi:nodetypes="czczzzz"
           id="path3604"
           d="M 73.83147,31.34606 C 66.92483,30.22549 60.34373,30.88219 54.68054,34.74581 C 49.02303,38.60557 40.96459,39.23591 34.63858,36.68163 C 38.95878,41.55249 41.35653,45.47796 43.47311,49.34547 C 45.58969,53.21297 46.65022,57.83356 49.00528,61.78154 C 51.36034,65.72953 55.35414,71.22498 59.53138,74.86649 C 63.69481,78.49596 72.27968,81.88113 76.45186,82.33097"
           style="fill:none;fill-rule:evenodd;stroke:#ffffff;stroke-width:2;stroke-linecap:round;stroke-linejoin:round;stroke-miterlimit:4;stroke-dasharray:none;stroke-opacity:1" />
        <path
           sodipodi:nodetypes="cc"
           id="path3606"
           d="M 69.45896,22.0313 C 68.39709,26.52138 64.46437,29.99243 60.44641,31.93681"
           style="fill:none;fill-rule:evenodd;stroke:#ffffff;stroke-width:2;stroke-linecap:round;stroke-linejoin:round;stroke-miterlimit:4;stroke-dasharray:none;stroke-opacity:1" />
        <path
           sodipodi:nodetypes="cc"
           id="path3608"
           d="M 57.58411,26.70519 C 57.63358,30.6793 56.36762,33.96615 51.46674,36.48335"
           style="fill:none;fill-rule:evenodd;stroke:#ffffff;stroke-width:2;stroke-linecap:round;stroke-linejoin:round;stroke-miterlimit:4;stroke-dasharray:none;stroke-opacity:1" />
        <path
           sodipodi:nodetypes="cc"
           id="path3610"
           d="M 53.13722,35.67916 C 55.88353,33.95654 62.36834,35.03798 65.52754,38.12794"
           style="fill:none;fill-rule:evenodd;stroke:#ffffff;stroke-width:2;stroke-linecap:round;stroke-linejoin:round;stroke-miterlimit:4;stroke-dasharray:none;stroke-opacity:1" />
        <path
           sodipodi:nodetypes="cc"
           id="path3612"
           d="M 70.95337,67.25597 C 65.89408,70.04548 56.37112,70.73715 52.21537,66.5607"
           style="fill:none;fill-rule:evenodd;stroke:#ffffff;stroke-width:2;stroke-linecap:round;stroke-linejoin:round;stroke-miterlimit:4;stroke-dasharray:none;stroke-opacity:1" />
        <path
           sodipodi:nodetypes="cc"
           id="path3614"
           d="M 60.54855,82.04642 C 60.41515,80.03843 59.31794,74.87881 55.31471,70.58124"
           style="fill:none;fill-rule:evenodd;stroke:#ffffff;stroke-width:2;stroke-linecap:round;stroke-linejoin:round;stroke-miterlimit:4;stroke-dasharray:none;stroke-opacity:1" />
        <path
           sodipodi:nodetypes="cc"
           id="path3616"
           d="M 49.22752,75.83458 C 51.52722,71.2728 51.35664,65.36182 48.86288,61.57539"
           style="fill:none;fill-rule:evenodd;stroke:#ffffff;stroke-width:2;stroke-linecap:round;stroke-linejoin:round;stroke-miterlimit:4;stroke-dasharray:none;stroke-opacity:1" />
        <path
           sodipodi:nodetypes="cc"
           id="path3618"
           d="M 64.9137,57.82959 C 59.30038,61.36991 47.64391,59.59009 46.13621,55.44034"
           style="fill:none;fill-rule:evenodd;stroke:#ffffff;stroke-width:2;stroke-linecap:round;stroke-linejoin:round;stroke-miterlimit:4;stroke-dasharray:none;stroke-opacity:1" />
        <path
           sodipodi:nodetypes="czzzz"
           id="path3620"
           d="M 18.43644,78.31948 C 18.09334,76.30049 20.14514,70.15881 22.40987,67.42837 C 24.68954,64.67993 27.38362,62.30248 30.59733,58.57589 C 33.81472,54.84504 36.1753,50.12548 37.07396,46.80828 C 37.97316,43.48902 37.54585,41.22776 36.78601,39.24116"
           style="fill:none;fill-rule:evenodd;stroke:#ffffff;stroke-width:2;stroke-linecap:round;stroke-linejoin:round;stroke-miterlimit:4;stroke-dasharray:none;stroke-opacity:1" />
        <path
           sodipodi:nodetypes="cc"
           id="path3622"
           d="M 32.98442,68.88115 C 30.32866,65.99641 31.56895,58.60981 33.59158,54.4743"
           style="fill:none;fill-rule:evenodd;stroke:#ffffff;stroke-width:2;stroke-linecap:round;stroke-linejoin:round;stroke-miterlimit:4;stroke-dasharray:none;stroke-opacity:1" />
        <path
           sodipodi:nodetypes="cc"
           id="path3624"
           d="M 29.06404,60.299 C 24.75031,65.21076 15.99751,66.05927 15.99751,66.05927"
           style="fill:none;fill-rule:evenodd;stroke:#ffffff;stroke-width:2;stroke-linecap:round;stroke-linejoin:round;stroke-miterlimit:4;stroke-dasharray:none;stroke-opacity:1" />
        <path
           sodipodi:nodetypes="cc"
           id="path3626"
           d="M 20.11728,59.22847 C 28.64693,57.0317 37.27411,49.04678 37.45814,44.91098"
           style="fill:none;fill-rule:evenodd;stroke:#ffffff;stroke-width:2;stroke-linecap:round;stroke-linejoin:round;stroke-miterlimit:4;stroke-dasharray:none;stroke-opacity:1" />
      </g>
      <path
         id="path3845"
         d="M 189.5625,3.375 C 189.01184,3.3711324 188.54246,3.3853534 188.15625,3.40625 C 174.61307,4.1390478 165.84708,13.066627 161.34375,21.71875 C 156.84042,30.370873 155.66269,38.569622 155.59375,42.84375 C 155.55463,45.268988 156.28991,47.919993 157.90625,49.875 C 159.52259,51.830007 161.6241,52.794689 163.34375,53.25 C 166.78304,54.160622 169.48316,53.765094 170.71875,53.78125 C 171.0418,53.785474 171.04942,53.740092 171.65625,54.21875 C 172.26308,54.697408 173.23914,55.779803 174.40625,57.34375 C 176.65323,60.354745 178.59402,61.914126 176.09375,69.59375 C 176.09297,69.596139 175.48929,70.616007 172.9375,71.875 C 170.38571,73.133993 166.36575,74.430788 161.59375,75.65625 C 152.04975,78.107175 139.4724,80.404743 127.25,84.28125 C 115.86562,87.891967 104.19736,92.726136 94.6875,99.3125 C 85.975375,105.34637 78.807823,113.17761 76.5625,123.09375 C 68.224205,129.21562 60.207182,136.35378 52.90625,144.59375 C 51.518669,144.37897 50.092791,144.28705 48.65625,144.34375 C 47.654123,144.3833 46.74966,144.51579 45.90625,144.65625 C 31.229687,147.10056 22.990563,162.96311 25.625,178.78125 C 25.707723,179.27795 25.866738,179.73168 25.96875,180.21875 C 22.999499,184.10606 21.470103,189.17226 21.4375,194.8125 C 21.411701,199.27564 23.014784,202.56626 24.65625,205.375 C 21.036025,212.08007 15.531985,218.40797 8.96875,223 C 7.7689969,223.82898 6.9046174,225.05906 6.53125,226.46875 C 5.3329217,231.10013 5.696887,236.07873 8.15625,240.5 C 10.615613,244.92127 16.163302,248.39845 22.28125,247.875 C 26.46355,247.51715 29.639454,245.56359 33.09375,242.9375 C 36.548046,240.31141 40.051536,236.81633 43.375,232.5625 C 49.139968,225.1837 54.15845,215.42609 56.34375,204.375 C 68.657848,202.04982 76.322236,190.22589 76.625,177.03125 C 78.428924,177.09625 79.402904,177.1378 81.9375,177.125 C 90.956742,177.07944 98.793507,171.77705 104.78125,165.0625 C 110.31194,158.86048 114.33315,151.18811 115.625,143.1875 C 120.44406,135.49503 130.62015,126.99466 152.53125,127.0625 C 151.0331,130.4829 150.07797,134.18541 150.03125,137.96875 C 149.92233,146.79086 147.73014,147.90545 148.40625,147.375 C 145.99286,149.30649 145.39823,152.73421 147.02006,155.3657 C 148.64189,157.9972 151.97116,159.00657 154.78125,157.71875 C 159.35463,155.56564 162.51055,152.46873 164.9375,149.9375 C 167.36445,147.40627 169.15425,145.49795 170.65625,144.625 C 171.16983,144.32651 172.11366,143.87771 172.9375,143.46875 C 174.94731,143.61258 176.85325,143.5672 178.6875,143.40625 C 182.50029,143.07168 186.59472,141.68058 191.3125,139.8125 C 196.03028,137.94442 200.70905,135.80764 204.34375,132.78125 C 207.23784,130.37152 210.25148,127.33683 212.6875,123.90625 C 215.11827,120.48306 217.40575,116.6078 216.84375,111.5 C 221.10374,108.42254 224.98294,105.03005 227.9375,101.3125 C 231.81837,96.429423 234.65439,91.250745 234.65625,85.375 C 234.65761,81.043468 234.25499,78.037845 233.65625,75.78125 C 233.39343,74.790727 233.2482,74.714199 232.90625,73.96875 C 234.86826,60.265419 230.6182,44.158963 223.28125,30.4375 C 215.60584,16.083047 204.28387,3.4783935 189.5625,3.375 z"
         style="fill:#000000;fill-rule:evenodd;stroke:none;stroke-width:3;stroke-linecap:butt;stroke-linejoin:round;stroke-miterlimit:4;stroke-opacity:1" />
      <path
         id="path3853"
         d="M 82.78125,35 C 82.107304,36.076632 81.401427,36.967934 80.5625,37.5 L 162.375,37.5 C 162.52452,36.713365 162.72545,35.872625 162.9375,35 L 82.78125,35 z"
         style="opacity:1;fill:#ffffff;fill-opacity:1;stroke:none;stroke-width:3;stroke-linecap:round;stroke-linejoin:round;stroke-miterlimit:4;stroke-dasharray:none;stroke-opacity:1" />
      <path
         id="path3699"
         d="M 215,105.5 C 214.1945,106.12897 213.35345,106.75194 212.5,107.34375 L 212.5,173.78125 C 212.55288,173.83797 212.6008,173.87407 212.65625,173.9375 C 212.8194,172.91946 213.77632,171.4168 215,170.09375 L 215,105.5 z"
         style="opacity:1;fill:#ffffff;fill-opacity:1;stroke:none;stroke-width:3;stroke-linecap:round;stroke-linejoin:round;stroke-miterlimit:4;stroke-dasharray:none;stroke-opacity:1" />
      <path
         id="path3862"
         d="M 37.34375,76.0625 C 37.1806,77.08054 36.223676,78.583199 35,79.90625 L 35,159.125 C 35.748289,157.92207 36.560295,156.80308 37.5,155.8125 L 37.5,76.21875 C 37.447117,76.162025 37.399203,76.125935 37.34375,76.0625 z"
         style="opacity:1;fill:#ffffff;fill-opacity:1;stroke:none;stroke-width:3;stroke-linecap:round;stroke-linejoin:round;stroke-miterlimit:4;stroke-dasharray:none;stroke-opacity:1" />
      <path
         id="path3647"
         d="M 47.8125,212.5 C 47.48601,213.34564 47.141003,214.17917 46.78125,215 L 167.21875,215 C 167.8927,213.92337 168.59857,213.03207 169.4375,212.5 L 47.8125,212.5 z"
         style="opacity:1;fill:#ffffff;fill-opacity:1;stroke:none;stroke-width:3;stroke-linecap:round;stroke-linejoin:round;stroke-miterlimit:4;stroke-dasharray:none;stroke-opacity:1" />
      <path
         sodipodi:nodetypes="cccsccsccsc"
         id="path3733"
         d="M 31.71875,205.375 C 31.678612,205.31151 31.633953,205.25105 31.59375,205.1875 C 28.102477,213.82209 19.786531,223.88645 12.46875,228 C 10.833897,234.31849 13.750516,242.46569 21.75,241.78125 C 29.733094,241.09819 48.744246,222.17189 51.21875,198.65625 C 43.10604,198.11799 35.671551,191.43731 32.65625,181.9375 C 29.839904,184.27164 27.594864,189.24478 27.5625,194.84375 C 27.539567,198.81103 29.607403,202.04743 31.59375,205.1875 L 31.71875,205.375 C 33.516505,208.21853 35.202595,211.01735 35.25,214.21875 C 35.335058,219.96286 31.115511,223.14857 28.90625,224.5625"
         style="fill:none;fill-rule:evenodd;stroke:#ffffff;stroke-width:3;stroke-linecap:round;stroke-linejoin:round;stroke-opacity:1;stroke-miterlimit:4;stroke-dasharray:none" />
      <path
         id="path3735"
         d="M 48.90625 150.46875 C 48.245978 150.49481 47.570177 150.57693 46.90625 150.6875 C 36.283416 152.45668 29.459109 164.5888 31.65625 177.78125 C 33.85339 190.9737 44.252166 200.23793 54.875 198.46875 C 65.497834 196.69957 72.353386 184.56744 70.15625 171.375 C 70.150835 171.34249 70.130514 171.31372 70.125 171.28125 C 67.962956 172.12749 66.88117 173.74351 65.09375 175.28125 C 63.070018 177.02229 60.200711 178.625 57.0625 178.625 C 50.769744 178.625 45.65625 173.51151 45.65625 167.21875 C 45.65625 164.08054 47.30863 161.5561 49 159.1875 C 50.922874 156.4947 52.913541 153.89891 55 151.40625 C 53.037648 150.72204 50.985039 150.3867 48.90625 150.46875 z "
         style="opacity:1;fill:none;fill-opacity:1;stroke:#ffffff;stroke-width:3;stroke-linecap:round;stroke-linejoin:round;stroke-miterlimit:4;stroke-dasharray:none;stroke-opacity:1" />
      <path
         sodipodi:nodetypes="csc"
         id="path3740"
         d="M 52.574529,150.79636 C 41.467656,154.70717 36.005666,166.81351 39.5625,175.65625 C 41.317628,180.01972 44.858696,183.25116 49.3125,185.09375"
         style="opacity:1;fill:none;fill-opacity:1;stroke:#ffffff;stroke-width:3;stroke-linecap:round;stroke-linejoin:round;stroke-miterlimit:4;stroke-dasharray:none;stroke-opacity:1" />
      <path
         sodipodi:nodetypes="cssczzszc"
         id="path3752"
         d="M 81.919406,126.72322 C 69.845322,135.34275 58.37409,146.06001 49,159.1875 C 47.30863,161.5561 45.65625,164.08054 45.65625,167.21875 C 45.65625,173.51151 50.769744,178.625 57.0625,178.625 C 60.200711,178.625 63.070018,177.02229 65.09375,175.28125 C 67.117482,173.54021 68.245565,171.71089 71.049841,170.99682 C 73.854117,170.28275 78.296276,171.01512 81.919406,170.99682 C 95.793625,170.92675 110.7155,151.82105 110.02121,137.32768 C 109.31425,122.56981 121.86285,107.10498 130.16967,104.71898"
         style="opacity:1;fill:none;fill-opacity:1;stroke:#ffffff;stroke-width:3.00015235000000000;stroke-linecap:round;stroke-linejoin:round;stroke-miterlimit:4;stroke-dasharray:none;stroke-opacity:1" />
      <path
         sodipodi:nodetypes="czzzczzzzzzzz"
         id="path3783"
         d="M 110.02121,140.50901 C 116.0304,130.52315 129.5068,119.83376 155.88547,120.89077 C 181.74695,121.92705 193.35196,117.28978 205.25859,111.57889 C 218.2341,105.35532 228.5234,93.518128 228.52598,85.365854 C 228.52847,77.47869 227.04856,75.407545 226.6702,74.7614 C 231.21167,50.761377 210.54259,8.3510075 188.49417,9.5440085 C 166.1814,10.751313 161.81057,37.204026 161.71792,42.948038 C 161.62955,48.427006 167.30221,47.615549 170.80002,47.661285 C 174.3518,47.707727 176.74811,50.267019 179.30301,53.69063 C 181.81272,57.053687 184.98466,62.044729 181.90603,71.500783 C 178.8115,81.005654 152.55175,82.702729 129.10923,90.137857 C 105.42594,97.649345 80.903146,110.68398 81.919406,130.69989 C 82.935073,150.70412 80.240367,161.01096 76.617179,163.83881"
         style="fill:none;fill-rule:evenodd;stroke:#ffffff;stroke-width:3;stroke-linecap:round;stroke-linejoin:round;stroke-opacity:1;stroke-miterlimit:4;stroke-dasharray:none" />
      <path
         style="opacity:1;fill:none;fill-opacity:1;stroke:#ffffff;stroke-width:3.00015235000000000;stroke-linecap:round;stroke-linejoin:round;stroke-miterlimit:4;stroke-dasharray:none;stroke-opacity:1"
         d="M 77.919406,170.99682 C 99.099228,168.95064 100.72807,142.05496 102.33298,126.45811 C 103.94399,110.80201 119.57918,91.726376 134.98581,88.407847"
         id="path3785"
         sodipodi:nodetypes="czc" />
      <path
         sodipodi:nodetypes="czzzzzc"
         id="path3820"
         d="M 166.48993,135.20679 C 172.69656,134.41448 173.67568,132.88046 177.6246,120.36055 C 181.6495,107.59975 189.46412,104.84516 197.24284,104.71898 C 205.03037,104.59267 209.14877,107.7369 209.70307,112.67232 C 210.25484,117.58532 205.63645,124.75199 199.89396,129.37434 C 194.27865,133.8943 182.57586,136.93974 178.15483,137.32768 C 173.73035,137.71592 171.60192,137.86332 166.48993,135.20679 z"
         style="fill:#000000;fill-rule:evenodd;stroke:#ffffff;stroke-width:3;stroke-linecap:butt;stroke-linejoin:round;stroke-opacity:1;stroke-miterlimit:4;stroke-dasharray:none" />
      <path
         id="path3828"
         d="M 177.6875 120.1875 C 173.92203 120.66307 169.75879 120.96297 165.03125 121.03125 C 159.57344 124.57323 156.23962 131.27936 156.15625 138.03125 C 156.03447 147.89458 153.47649 151.1762 152.1875 152.1875 C 159.16814 148.90108 162.27785 142.43331 167.59375 139.34375 C 168.77048 138.65985 170.20816 137.97619 171.6875 137.25 C 170.21375 136.93077 168.6261 136.32361 166.5 135.21875 C 172.70663 134.42644 173.67608 132.89491 177.625 120.375 C 177.64552 120.30993 177.66604 120.25132 177.6875 120.1875 z "
         style="fill:#000000;fill-rule:evenodd;stroke:#ffffff;stroke-width:3;stroke-linecap:butt;stroke-linejoin:round;stroke-opacity:1;stroke-miterlimit:4;stroke-dasharray:none" />
      <path
         sodipodi:nodetypes="czzc"
         id="path3874"
         d="M 54.612937,168.87593 C 55.14316,164.45741 56.865165,160.44836 59.760821,156.77977 C 62.635342,153.13795 65.322167,150.95768 68.133616,148.72747 C 70.917894,146.51882 73.480637,144.08863 75.556734,141.03924"
         style="fill:none;fill-rule:evenodd;stroke:#ffffff;stroke-width:2;stroke-linecap:round;stroke-linejoin:miter;stroke-opacity:1;stroke-miterlimit:4;stroke-dasharray:none" />
      <path
         sodipodi:nodetypes="cc"
         id="path3876"
         d="M 62.528324,168.41964 C 64.835983,161.62589 68.698043,158.19875 74.937953,157.27569"
         style="fill:none;fill-rule:evenodd;stroke:#ffffff;stroke-width:2;stroke-linecap:round;stroke-linejoin:miter;stroke-opacity:1;stroke-miterlimit:4;stroke-dasharray:none" />
      <path
         sodipodi:nodetypes="czcc"
         id="path3878"
         d="M 217.12619,92.258749 C 216.41923,98.444681 209.04029,106.30965 203.3404,106.57476 C 197.62208,106.84073 190.96855,113.55603 190.34995,120.09544 C 195.29869,110.6398 203.16367,108.60729 209.17285,108.43054"
         style="fill:none;fill-rule:evenodd;stroke:#ffffff;stroke-width:3;stroke-linecap:round;stroke-linejoin:round;stroke-opacity:1;stroke-miterlimit:4;stroke-dasharray:none" />
      <path
         sodipodi:nodetypes="czzzzzzz"
         id="path3880"
         d="M 152.17391,97.560976 C 156.4157,96.765641 163.35973,88.370087 167.4806,86.876294 C 171.64739,85.365854 184.75268,83.180096 190.46506,80.558964 C 196.22251,77.91715 198.74571,75.046262 198.72362,72.195742 C 198.70212,69.420216 197.46376,69.433587 197.50795,65.677843 C 197.55213,61.922099 201.33986,55.398972 199.74919,50.936264 C 198.15852,46.473556 190.75556,44.008356 188.63893,40.101585 C 186.53956,36.226657 186.22327,31.874989 186.10293,27.836691"
         style="fill:none;fill-rule:evenodd;stroke:#ffffff;stroke-width:2;stroke-linecap:round;stroke-linejoin:miter;stroke-opacity:1;stroke-miterlimit:4;stroke-dasharray:none" />
      <path
         sodipodi:nodetypes="czzzzzzzzz"
         id="path3882"
         d="M 198.03818,31.283139 C 197.64466,31.854792 197.45062,33.942722 198.8128,34.871802 C 200.18944,35.810747 203.88341,37.555019 206.78685,40.827147 C 209.57052,43.964298 211.63756,50.351836 211.51882,55.04098 C 211.40012,59.728769 207.59875,60.357017 207.37782,63.891835 C 207.15689,67.426653 210.53892,74.42218 210.43766,77.147403 C 210.34238,79.711541 210.61165,82.945326 205.99152,84.835631 C 201.23148,86.78318 186.3291,86.603041 178.15483,89.872747 C 169.98056,93.142453 162.29233,100.52138 156.94592,103.39342 C 151.59951,106.26546 149.69954,106.22128 146.07635,107.10498"
         style="fill:none;fill-rule:evenodd;stroke:#ffffff;stroke-width:2;stroke-linecap:round;stroke-linejoin:miter;stroke-opacity:1;stroke-miterlimit:4;stroke-dasharray:none" />
      <path
         sodipodi:nodetypes="czzzzzzzzzzz"
         id="path3884"
         d="M 126.193,119.83033 C 128.09498,118.02112 129.69757,115.65621 135.39746,114.55158 C 141.09736,113.44695 153.35677,116.01876 161.06229,112.68149 C 168.79471,109.33258 173.90808,99.719444 181.94082,97.137827 C 189.95158,94.56327 197.7639,94.823501 203.03349,93.370158 C 208.39157,91.892411 212.51222,88.561124 214.89823,85.291417 C 217.28423,82.02171 217.50992,77.989306 216.82844,74.794036 C 216.15002,71.613154 212.79604,68.221987 213.41463,65.747614 C 214.03322,63.273241 219.69221,60.978899 220.83775,59.650053 C 222.01443,58.285081 221.69121,56.245293 220.92135,55.324671 C 220.11428,54.359549 219.44253,54.175854 219.08904,53.468891 C 218.73556,52.761927 219.07034,51.431601 219.24708,50.636267"
         style="fill:none;fill-rule:evenodd;stroke:#ffffff;stroke-width:2;stroke-linecap:round;stroke-linejoin:miter;stroke-opacity:1;stroke-miterlimit:4;stroke-dasharray:none" />
    </g>
  </g>
</svg>
