<?xml version="1.0" encoding="UTF-8" standalone="no"?>
<!-- Created with Inkscape (http://www.inkscape.org/) -->
<svg
   xmlns:dc="http://purl.org/dc/elements/1.1/"
   xmlns:cc="http://creativecommons.org/ns#"
   xmlns:rdf="http://www.w3.org/1999/02/22-rdf-syntax-ns#"
   xmlns:svg="http://www.w3.org/2000/svg"
   xmlns="http://www.w3.org/2000/svg"
   xmlns:sodipodi="http://sodipodi.sourceforge.net/DTD/sodipodi-0.dtd"
   xmlns:inkscape="http://www.inkscape.org/namespaces/inkscape"
   width="250"
   height="300"
   id="svg2"
   sodipodi:version="0.32"
   inkscape:version="0.46"
   version="1.0"
   sodipodi:docname="Stag-icon.svg"
   inkscape:output_extension="org.inkscape.output.svg.inkscape">
  <defs
     id="defs4">
    <inkscape:perspective
       sodipodi:type="inkscape:persp3d"
       inkscape:vp_x="0 : 526.18109 : 1"
       inkscape:vp_y="0 : 1000 : 0"
       inkscape:vp_z="744.09448 : 526.18109 : 1"
       inkscape:persp3d-origin="372.04724 : 350.78739 : 1"
       id="perspective10" />
    <inkscape:perspective
       id="perspective3217"
       inkscape:persp3d-origin="372.04724 : 350.78739 : 1"
       inkscape:vp_z="744.09448 : 526.18109 : 1"
       inkscape:vp_y="0 : 1000 : 0"
       inkscape:vp_x="0 : 526.18109 : 1"
       sodipodi:type="inkscape:persp3d" />
    <clipPath
       clipPathUnits="userSpaceOnUse"
       id="clipPath3225">
      <rect
         style="opacity:0.95;fill:none;fill-opacity:1;stroke:#000000;stroke-width:2.35893869;stroke-linecap:round;stroke-linejoin:round;stroke-miterlimit:4;stroke-dasharray:none;stroke-opacity:1"
         id="rect3227"
         width="186.80968"
         height="202.45125"
         x="35.439274"
         y="16.616375"
         transform="matrix(0.9999025,1.3962179e-2,-1.3962179e-2,0.9999025,0,0)" />
    </clipPath>
  </defs>
  <sodipodi:namedview
     id="base"
     pagecolor="#ffffff"
     bordercolor="#666666"
     borderopacity="1.0"
     gridtolerance="10000"
     guidetolerance="10"
     objecttolerance="10"
     inkscape:pageopacity="0.0"
     inkscape:pageshadow="2"
     inkscape:zoom="3.1433333"
     inkscape:cx="125"
     inkscape:cy="150"
     inkscape:document-units="px"
     inkscape:current-layer="layer1"
     showgrid="false"
     inkscape:window-width="1904"
     inkscape:window-height="1150"
     inkscape:window-x="0"
     inkscape:window-y="14" />
  <metadata
     id="metadata7">
    <rdf:RDF>
      <cc:Work
         rdf:about="">
        <dc:format>image/svg+xml</dc:format>
        <dc:type
           rdf:resource="http://purl.org/dc/dcmitype/StillImage" />
      </cc:Work>
    </rdf:RDF>
  </metadata>
  <g
     inkscape:label="Layer 1"
     inkscape:groupmode="layer"
     id="layer1">
    <g
       id="g3276">
      <rect
         y="60"
         x="35"
         height="180"
         width="180"
         id="rect3236"
         style="opacity:0.95;fill:#ffffff;fill-opacity:1;stroke:none;stroke-width:2;stroke-linecap:round;stroke-linejoin:round;stroke-miterlimit:4;stroke-dasharray:none;stroke-opacity:1" />
      <path
         id="rect3229"
         d="M 25,50 L 25,250 L 225,250 L 225,50 L 25,50 z M 42.5,67.5 L 207.5,67.5 L 207.5,232.5 L 42.5,232.5 L 42.5,67.5 z"
         style="opacity:0.95;fill:#000000;fill-opacity:1;stroke:none;stroke-width:2;stroke-linecap:round;stroke-linejoin:round;stroke-miterlimit:4;stroke-dasharray:none;stroke-opacity:1" />
      <rect
         y="82.5"
         x="57.5"
         height="135"
         width="135"
         id="rect3234"
         style="opacity:0.95;fill:#000000;fill-opacity:1;stroke:none;stroke-width:2;stroke-linecap:round;stroke-linejoin:round;stroke-miterlimit:4;stroke-dasharray:none;stroke-opacity:1" />
      <path
         id="path3403"
         style="fill:#ffffff;fill-rule:evenodd;stroke:#000000;stroke-width:3;stroke-linecap:round;stroke-linejoin:round;stroke-miterlimit:4;stroke-dasharray:none;stroke-opacity:1"
         d="M 158.6875,215.84375 C 162.71986,212.88407 164.82647,217.89872 161.91714,220.18236 C 161.20963,220.73771 161.13691,222.21884 161.54334,222.82476 C 161.97987,223.47557 163.18583,224.23487 165.06878,224.23494 C 167.01584,224.23501 170.32489,223.13559 170.389,217.05585 C 170.4531,210.97713 160.4857,197.98639 157.1205,195.39038 C 154.46039,197.15311 152.07805,199.9521 151.99258,202.18488 C 151.90943,204.35713 153.07583,205.85373 154.10785,206.35131 C 159.3661,208.88657 156.1557,213.45525 151.9375,211.3125 C 148.2592,209.44401 146.43549,206.10356 146.59375,201.96875 C 146.70652,199.02275 147.98468,197.02518 149.34375,195.28125 C 150.70282,193.53732 152.3082,192.07891 154.125,190.875 C 155.04012,190.26539 156.11935,189.94926 157.21875,189.96875 L 157.21875,189.96875 C 158.38491,189.98682 159.51398,190.38145 160.4375,191.09375 C 163.53918,193.48647 166.40166,197.22509 169.53125,201.90625 C 172.66084,206.58741 175.84483,211.09566 175.78125,217.125 C 175.73891,221.13991 174.49861,224.6181 172.1875,226.84375 C 169.87639,229.0694 167.06161,229.65632 165.0625,229.65625 C 161.67379,229.65612 158.92358,228.63377 157.03125,225.8125 C 155.62374,223.71409 155.74867,222.40099 155.90625,220.90625 C 156.06383,219.41151 156.45377,217.4851 158.6875,215.84375 z"
         sodipodi:nodetypes="csssscssssssccssssssss" />
      <path
         id="path3405"
         style="fill:#ffffff;fill-rule:evenodd;stroke:#000000;stroke-width:3;stroke-linecap:round;stroke-linejoin:miter;stroke-miterlimit:4;stroke-dasharray:none;stroke-opacity:1"
         d="M 177.84068,143.43913 C 177.81454,146.18184 172.51552,146.43807 172.625,140.96875 C 172.6557,139.39312 173.52824,136.58764 175.53125,135.21875 C 177.53426,133.84986 179.13444,133.88142 180.625,133.875 C 183.14371,133.86414 186.09332,135.37331 187.5,137.46875 C 188.90668,139.56419 189.19944,141.70763 189.21875,143.8125 C 189.25073,147.29796 187.57696,149.86001 185.84375,151.8125 C 184.11054,153.76499 182.07859,155.2697 180.03125,156.53125 C 175.14443,159.54245 169.57213,160.21681 165.3125,160.5625 C 161.42526,160.75862 157.53978,160.685 153.71875,159.84375 C 151.62236,159.40449 149.35753,158.86549 147.1875,157.40625 C 145.01747,155.94701 143.36596,153.84917 141.875,151.28125 C 140.38404,148.71333 144.02945,144.18155 146.57722,148.56964 C 149.12499,152.95773 150.99148,153.74857 154.81564,154.54985 C 158.16858,155.16678 161.01255,155.48806 164.87446,155.17465 C 168.73637,154.86124 173.78501,154.01974 177.18755,151.92314 C 180.59008,149.82654 183.82382,146.77936 183.79717,143.87432 C 183.77052,140.96929 182.71467,139.28134 180.65227,139.29023 C 178.58941,139.29913 177.86682,140.69735 177.84068,143.43913 z"
         sodipodi:nodetypes="csssssssccscccssssz" />
      <path
         sodipodi:nodetypes="cccccccccccccccccczc"
         id="path3337"
         d="M 148.43952,168.41852 C 151.18755,163.29463 153.70504,155.198 166.89465,154.48845 C 167.57381,156.61814 167.39218,158.79287 166.80593,160.3444 C 169.59128,159.58904 174.86754,159.58947 178.25164,160.3444 C 181.10338,161.72042 184.92353,164.14255 186.32576,167.08762 C 182.49314,168.16943 178.83293,169.11833 175.85603,170.72541 C 176.33947,171.88887 177.67998,172.91106 178.87274,173.91956 C 174.47573,177.67859 167.34022,175.7422 159.7078,174.27447 C 167.33635,175.73471 176.95206,182.88135 181.62326,188.38199 C 180.17233,188.91395 178.45401,189.69968 177.0982,189.80162 C 177.42819,192.56536 181.22749,195.89751 183.39779,198.763 C 183.97101,201.71722 184.2257,205.74696 183.57525,208.07929 C 179.90809,209.7018 172.87572,203.94238 168.49173,198.05319 C 167.47935,198.72977 167.19405,199.97126 166.98338,201.60225 C 158.07749,200.66017 162.13125,187.66275 155.44892,179.50933 C 156.30834,181.02712 160.63915,186.80903 158.19944,190.77761 C 156.73572,190.75349 154.77126,190.65423 153.23076,190.60016 C 151.86772,194.00642 151.3818,197.4565 148.88316,200.18263 C 145.3198,199.89205 142.20084,191.85474 142.05121,186.16383 C 141.90179,180.48033 143.30317,172.88352 148.43952,168.41852 z"
         style="fill:#ffffff;fill-rule:evenodd;stroke:#000000;stroke-width:3;stroke-linecap:butt;stroke-linejoin:round;stroke-miterlimit:4;stroke-dasharray:none;stroke-opacity:1" />
      <path
         sodipodi:nodetypes="cc"
         id="path3339"
         d="M 149.72252,175.77203 C 151.24189,180.66492 150.90711,185.01702 148.94995,187.66948"
         style="fill:none;fill-rule:evenodd;stroke:#000000;stroke-width:3;stroke-linecap:round;stroke-linejoin:miter;stroke-miterlimit:4;stroke-dasharray:none;stroke-opacity:1" />
      <path
         sodipodi:nodetypes="cc"
         id="path3341"
         d="M 156.90734,169.20525 C 158.94176,165.54846 168.31551,164.98191 175.98963,165.4197"
         style="fill:none;fill-rule:evenodd;stroke:#000000;stroke-width:3;stroke-linecap:round;stroke-linejoin:miter;stroke-miterlimit:4;stroke-dasharray:none;stroke-opacity:1" />
      <path
         sodipodi:nodetypes="cc"
         id="path3343"
         d="M 153.43082,174.61319 C 163.29386,178.5275 167.82622,190.55371 175.06256,196.70846"
         style="fill:none;fill-rule:evenodd;stroke:#000000;stroke-width:3;stroke-linecap:round;stroke-linejoin:miter;stroke-miterlimit:4;stroke-dasharray:none;stroke-opacity:1" />
      <path
         sodipodi:nodetypes="csssscssssssccssssssss"
         d="M 91.3125,215.84375 C 87.280136,212.88407 85.17353,217.89872 88.082856,220.18236 C 88.790369,220.73771 88.863087,222.21884 88.456664,222.82476 C 88.020135,223.47557 86.814174,224.23487 84.931218,224.23494 C 82.984163,224.23501 79.675107,223.13559 79.610997,217.05585 C 79.546898,210.97713 89.514298,197.98639 92.879497,195.39038 C 95.539607,197.15311 97.921954,199.9521 98.00742,202.18488 C 98.090568,204.35713 96.924168,205.85373 95.892152,206.35131 C 90.633896,208.88657 93.844297,213.45525 98.0625,211.3125 C 101.7408,209.44401 103.56451,206.10356 103.40625,201.96875 C 103.29348,199.02275 102.01532,197.02518 100.65625,195.28125 C 99.29718,193.53732 97.691802,192.07891 95.875,190.875 C 94.959876,190.26539 93.880655,189.94926 92.78125,189.96875 L 92.78125,189.96875 C 91.615086,189.98682 90.486019,190.38145 89.5625,191.09375 C 86.460823,193.48647 83.598345,197.22509 80.46875,201.90625 C 77.339155,206.58741 74.155169,211.09566 74.21875,217.125 C 74.261087,221.13991 75.501391,224.6181 77.8125,226.84375 C 80.123609,229.0694 82.938391,229.65632 84.9375,229.65625 C 88.326207,229.65612 91.076417,228.63377 92.96875,225.8125 C 94.376263,223.71409 94.251327,222.40099 94.09375,220.90625 C 93.936173,219.41151 93.546227,217.4851 91.3125,215.84375 z"
         style="fill:#ffffff;fill-rule:evenodd;stroke:#000000;stroke-width:3;stroke-linecap:round;stroke-linejoin:round;stroke-miterlimit:4;stroke-dasharray:none;stroke-opacity:1"
         id="path3373" />
      <path
         sodipodi:nodetypes="csssssssccscccssssz"
         d="M 72.159317,143.43913 C 72.185465,146.18184 77.484475,146.43807 77.375,140.96875 C 77.344303,139.39312 76.471756,136.58764 74.46875,135.21875 C 72.465744,133.84986 70.865558,133.88142 69.375,133.875 C 66.85629,133.86414 63.906683,135.37331 62.5,137.46875 C 61.093317,139.56419 60.800562,141.70763 60.78125,143.8125 C 60.749274,147.29796 62.423042,149.86001 64.15625,151.8125 C 65.889458,153.76499 67.921409,155.2697 69.96875,156.53125 C 74.855572,159.54245 80.427872,160.21681 84.6875,160.5625 C 88.574744,160.75862 92.460216,160.685 96.28125,159.84375 C 98.377642,159.40449 100.64247,158.86549 102.8125,157.40625 C 104.98253,155.94701 106.63404,153.84917 108.125,151.28125 C 109.61596,148.71333 105.97055,144.18155 103.42278,148.56964 C 100.87501,152.95773 99.008519,153.74857 95.184363,154.54985 C 91.831422,155.16678 88.987449,155.48806 85.125539,155.17465 C 81.263629,154.86124 76.214986,154.01974 72.812452,151.92314 C 69.409918,149.82654 66.176178,146.77936 66.202829,143.87432 C 66.229481,140.96929 67.285334,139.28134 69.347731,139.29023 C 71.410587,139.29913 72.133178,140.69735 72.159317,143.43913 z"
         style="fill:#ffffff;fill-rule:evenodd;stroke:#000000;stroke-width:3;stroke-linecap:round;stroke-linejoin:miter;stroke-miterlimit:4;stroke-dasharray:none;stroke-opacity:1"
         id="path3371" />
      <path
         style="fill:#ffffff;fill-rule:evenodd;stroke:#000000;stroke-width:3;stroke-linecap:butt;stroke-linejoin:round;stroke-miterlimit:4;stroke-dasharray:none;stroke-opacity:1"
         d="M 101.56048,168.41852 C 98.81245,163.29463 96.29496,155.198 83.10535,154.48845 C 82.42619,156.61814 82.60782,158.79287 83.19407,160.3444 C 80.40872,159.58904 75.13246,159.58947 71.74836,160.3444 C 68.89662,161.72042 65.07647,164.14255 63.67424,167.08762 C 67.50686,168.16943 71.16707,169.11833 74.14397,170.72541 C 73.66053,171.88887 72.32002,172.91106 71.12726,173.91956 C 75.52427,177.67859 82.65978,175.7422 90.2922,174.27447 C 82.66365,175.73471 73.04794,182.88135 68.37674,188.38199 C 69.82767,188.91395 71.54599,189.69968 72.9018,189.80162 C 72.57181,192.56536 68.77251,195.89751 66.60221,198.763 C 66.02899,201.71722 65.7743,205.74696 66.42475,208.07929 C 70.09191,209.7018 77.12428,203.94238 81.50827,198.05319 C 82.52065,198.72977 82.80595,199.97126 83.01662,201.60225 C 91.92251,200.66017 87.86875,187.66275 94.55108,179.50933 C 93.69166,181.02712 89.36085,186.80903 91.80056,190.77761 C 93.26428,190.75349 95.22874,190.65423 96.76924,190.60016 C 98.13228,194.00642 98.6182,197.4565 101.11684,200.18263 C 104.6802,199.89205 107.79916,191.85474 107.94879,186.16383 C 108.09821,180.48033 106.69683,172.88352 101.56048,168.41852 z"
         id="path3355"
         sodipodi:nodetypes="cccccccccccccccccczc" />
      <path
         style="fill:none;fill-rule:evenodd;stroke:#000000;stroke-width:3;stroke-linecap:round;stroke-linejoin:miter;stroke-miterlimit:4;stroke-dasharray:none;stroke-opacity:1"
         d="M 100.27748,175.77203 C 98.75811,180.66492 99.09289,185.01702 101.05005,187.66948"
         id="path3357"
         sodipodi:nodetypes="cc" />
      <path
         style="fill:none;fill-rule:evenodd;stroke:#000000;stroke-width:3;stroke-linecap:round;stroke-linejoin:miter;stroke-miterlimit:4;stroke-dasharray:none;stroke-opacity:1"
         d="M 93.09266,169.20525 C 91.05824,165.54846 81.68449,164.98191 74.01037,165.4197"
         id="path3359"
         sodipodi:nodetypes="cc" />
      <path
         style="fill:none;fill-rule:evenodd;stroke:#000000;stroke-width:3;stroke-linecap:round;stroke-linejoin:miter;stroke-miterlimit:4;stroke-dasharray:none;stroke-opacity:1"
         d="M 96.56918,174.61319 C 86.70614,178.5275 82.17378,190.55371 74.93744,196.70846"
         id="path3361"
         sodipodi:nodetypes="cc" />
      <path
         sodipodi:nodetypes="csssscscsccscscsssscc"
         d="M 112.875,219.5 C 110.64498,216.37774 114.03749,214.1216 113.1875,205.84375 C 112.30236,197.2236 104.15471,186.75309 103.65625,182.28125 C 103.19283,178.12378 107.13201,175.87296 106.53125,172.4375 C 105.93049,169.00204 100.39512,167.42994 98.25,163.84375 C 95.96638,160.026 98.28271,154.77216 101.4375,151.4375 C 97.91149,151.60232 93.78356,151.74267 87.75,148.5625 C 81.59035,145.31588 72.61348,129.52629 72.46875,115.8125 C 80.59549,116.73286 94.06721,120.00504 99.53125,124.375 C 104.43637,128.29796 107.28228,131.50197 110.34375,134.5625 C 120.09484,132.77802 129.89758,133.21471 139.65625,134.5625 C 142.71772,131.50197 145.56363,128.29796 150.46875,124.375 C 155.93279,120.00504 169.40451,116.73286 177.53125,115.8125 C 177.38652,129.52629 168.40965,145.31588 162.25,148.5625 C 156.21644,151.74267 152.08851,151.60232 148.5625,151.4375 C 151.71729,154.77216 154.03362,160.026 151.75,163.84375 C 149.60488,167.42994 144.06951,169.00204 143.46875,172.4375 C 142.86799,175.87296 146.80717,178.12378 146.34375,182.28125 C 145.84529,186.75309 137.69764,197.2236 136.8125,205.84375 C 135.96251,214.1216 139.35502,216.37774 137.125,219.5 C 130.03487,222.71338 119.93098,223.09462 112.875,219.5 z"
         style="fill:#ffffff;fill-rule:evenodd;stroke:#000000;stroke-width:3;stroke-linecap:butt;stroke-linejoin:round;stroke-miterlimit:4;stroke-dasharray:none;stroke-opacity:1"
         id="path3274" />
      <path
         sodipodi:nodetypes="cczczcczccccccczzc"
         id="path3264"
         d="M 142.52386,139.34252 C 138.25054,140.03988 133.44138,137.32506 131.70732,134.25239 C 133.23888,131.51328 138.58541,127.27897 138.13527,118.9974 C 137.68513,110.71582 124.84854,90.119571 139.97879,67.126193 C 134.69122,85.843283 137.53999,107.46313 148.34997,108.85155 C 159.47284,110.28016 163.20067,87.353743 158.11241,65.853659 C 167.87497,79.687124 166.0042,93.457918 165.96603,98.134723 C 174.13406,92.297684 183.44868,88.981287 183.88124,78.260869 C 184.30098,67.858075 167.20309,69.588307 163.20255,38.494168 C 168.64273,49.842373 174.23359,61.496006 185.72118,64.696266 C 188.32002,51.809416 180.53699,32.583518 170.51962,23.860021 C 191.99748,34.860808 196.26986,64.395175 192.1527,80.805938 C 212.86895,71.413452 202.03959,32.644782 188.20096,15.170701 C 206.89268,33.982849 211.53482,48.25959 211.97671,65.803801 C 226.16363,55.64426 230.9264,33.467014 210.60445,13.997879 C 223.05026,18.660609 232.4109,34.561648 229.47049,50.019397 C 226.53414,65.455726 216.30123,74.671191 197.26183,87.969877 C 178.28519,101.22473 149.8978,111.94923 142.52386,139.34252 z"
         style="fill:#ffffff;fill-rule:evenodd;stroke:#000000;stroke-width:3;stroke-linecap:butt;stroke-linejoin:round;stroke-miterlimit:4;stroke-dasharray:none;stroke-opacity:1" />
      <path
         style="fill:#ffffff;fill-rule:evenodd;stroke:#000000;stroke-width:3;stroke-linecap:butt;stroke-linejoin:round;stroke-miterlimit:4;stroke-dasharray:none;stroke-opacity:1"
         d="M 107.47614,139.34252 C 111.74946,140.03988 116.55862,137.32506 118.29268,134.25239 C 116.76112,131.51328 111.41459,127.27897 111.86473,118.9974 C 112.31487,110.71582 125.15146,90.119571 110.02121,67.126193 C 115.30878,85.843283 112.46001,107.46313 101.65003,108.85155 C 90.52716,110.28016 86.79933,87.353743 91.88759,65.853659 C 82.12503,79.687124 83.9958,93.457918 84.03397,98.134723 C 75.86594,92.297684 66.55132,88.981287 66.11876,78.260869 C 65.69902,67.858075 82.79691,69.588307 86.79745,38.494168 C 81.35727,49.842373 75.76641,61.496006 64.27882,64.696266 C 61.67998,51.809416 69.46301,32.583518 79.48038,23.860021 C 58.00252,34.860808 53.73014,64.395175 57.8473,80.805938 C 37.13105,71.413452 47.96041,32.644782 61.79904,15.170701 C 43.10732,33.982849 38.46518,48.25959 38.02329,65.803801 C 23.83637,55.64426 19.0736,33.467014 39.39555,13.997879 C 26.94974,18.660609 17.5891,34.561648 20.52951,50.019397 C 23.46586,65.455726 33.69877,74.671191 52.73817,87.969877 C 71.71481,101.22473 100.1022,111.94923 107.47614,139.34252 z"
         id="path3272"
         sodipodi:nodetypes="cczczcczccccccczzc" />
      <g
         id="g3297">
        <path
           sodipodi:type="arc"
           style="opacity:0.95;fill:#000000;fill-opacity:1;stroke:none;stroke-width:3;stroke-linecap:round;stroke-linejoin:round;stroke-miterlimit:4;stroke-dasharray:none;stroke-opacity:1"
           id="path3293"
           sodipodi:cx="158.27147"
           sodipodi:cy="164.95229"
           sodipodi:rx="4.9310713"
           sodipodi:ry="8.430541"
           d="M 163.20254,164.95229 A 4.9310713,8.430541 0 1 1 153.3404,164.95229 A 4.9310713,8.430541 0 1 1 163.20254,164.95229 z"
           transform="matrix(0.8893749,0.4571786,-0.4571786,0.8893749,80.196117,-50.611)" />
        <path
           transform="matrix(0.2835333,0.1228738,-0.1457489,0.2390332,126.78037,105.75766)"
           d="M 163.20254,164.95229 A 4.9310713,8.430541 0 1 1 153.3404,164.95229 A 4.9310713,8.430541 0 1 1 163.20254,164.95229 z"
           sodipodi:ry="8.430541"
           sodipodi:rx="4.9310713"
           sodipodi:cy="164.95229"
           sodipodi:cx="158.27147"
           id="path3295"
           style="opacity:0.95;fill:#ffffff;fill-opacity:1;stroke:none;stroke-width:3;stroke-linecap:round;stroke-linejoin:round;stroke-miterlimit:4;stroke-dasharray:none;stroke-opacity:1"
           sodipodi:type="arc" />
      </g>
      <g
         transform="matrix(-1,0,0,1,250,0)"
         id="g3303">
        <path
           transform="matrix(0.8893749,0.4571786,-0.4571786,0.8893749,80.196117,-50.611)"
           d="M 163.20254,164.95229 A 4.9310713,8.430541 0 1 1 153.3404,164.95229 A 4.9310713,8.430541 0 1 1 163.20254,164.95229 z"
           sodipodi:ry="8.430541"
           sodipodi:rx="4.9310713"
           sodipodi:cy="164.95229"
           sodipodi:cx="158.27147"
           id="path3305"
           style="opacity:0.95;fill:#000000;fill-opacity:1;stroke:none;stroke-width:3;stroke-linecap:round;stroke-linejoin:round;stroke-miterlimit:4;stroke-dasharray:none;stroke-opacity:1"
           sodipodi:type="arc" />
        <path
           sodipodi:type="arc"
           style="opacity:0.95;fill:#ffffff;fill-opacity:1;stroke:none;stroke-width:3;stroke-linecap:round;stroke-linejoin:round;stroke-miterlimit:4;stroke-dasharray:none;stroke-opacity:1"
           id="path3307"
           sodipodi:cx="158.27147"
           sodipodi:cy="164.95229"
           sodipodi:rx="4.9310713"
           sodipodi:ry="8.430541"
           d="M 163.20254,164.95229 A 4.9310713,8.430541 0 1 1 153.3404,164.95229 A 4.9310713,8.430541 0 1 1 163.20254,164.95229 z"
           transform="matrix(0.2835333,0.1228738,-0.1457489,0.2390332,126.78037,105.75766)" />
      </g>
      <path
         sodipodi:nodetypes="czzzz"
         id="path3309"
         d="M 130.8295,205.42019 C 131.22309,202.19275 131.14553,198.77535 132.24642,196.50536 C 133.35832,194.2127 134.24626,193.23739 135.02124,190.54247 C 135.79622,187.84756 134.52437,184.28491 135.43451,180.74206 C 136.34465,177.19921 140.09855,173.77551 142.63721,170.46935"
         style="fill:none;fill-rule:evenodd;stroke:#000000;stroke-width:3;stroke-linecap:round;stroke-linejoin:miter;stroke-miterlimit:4;stroke-dasharray:none;stroke-opacity:1" />
      <path
         sodipodi:nodetypes="ccczz"
         id="path3311"
         d="M 136.85144,177.90821 C 136.47181,180.42685 137.40595,185.85451 139.3901,185.58323 C 138.18615,179.34906 140.24168,176.6575 144.96266,174.14931 C 143.72074,171.75919 143.37316,170.94415 141.6926,171.53205 C 140.01204,172.11995 137.23107,175.38957 136.85144,177.90821 z"
         style="fill:#000000;fill-rule:evenodd;stroke:#000000;stroke-width:1px;stroke-linecap:butt;stroke-linejoin:round;stroke-opacity:1" />
      <path
         style="fill:none;fill-rule:evenodd;stroke:#000000;stroke-width:3;stroke-linecap:round;stroke-linejoin:miter;stroke-miterlimit:4;stroke-dasharray:none;stroke-opacity:1"
         d="M 119.1705,205.42019 C 118.77691,202.19275 118.85447,198.77535 117.75358,196.50536 C 116.64168,194.2127 115.75374,193.23739 114.97876,190.54247 C 114.20378,187.84756 115.47563,184.28491 114.56549,180.74206 C 113.65535,177.19921 109.90145,173.77551 107.36279,170.46935"
         id="path3315"
         sodipodi:nodetypes="czzzz" />
      <path
         sodipodi:nodetypes="cszscccccccccccccccsccccccsscccscccccc"
         id="path3322"
         d="M 171.875,121.6875 C 159.63393,122.00948 148.3973,133.70211 147.06689,141.98921 C 146.96942,142.59636 146.63489,143.27212 146.41459,143.48854 C 146.11642,143.78146 145.50814,144.10128 144.80703,144.14639 C 141.87645,144.33494 139.20721,143.1965 138.09375,143.15625 C 140.11117,145.20878 142.3332,148.56379 140,152.125 C 134.9301,152.42323 136.86045,145.80376 131.5625,146.3125 C 134.79039,150.08422 134.2434,153.36191 133.875,154.625 C 132.34877,154.94077 130.97575,154.70826 128.625,153.375 C 128.80043,155.0942 129.61564,160.55821 128.84375,162.3125 C 127.75609,162.48793 126.71705,162.0339 125.875,160.4375 C 125.3487,162.63035 128.79366,166.21062 125.25,168 C 123.49571,167.05268 120.55652,165.49703 121.46875,151.375 C 119.96006,151.67322 119.2187,151.97811 118.21875,152.75 C 117.95561,151.83777 118.41183,147.36834 120.21875,146 C 118.13114,145.68424 116.86564,149.27578 116.09375,149.46875 C 115.11135,149.13543 114.90738,148.45663 115.46875,147.28125 C 113.50394,147.15844 111.86231,148.21114 110.40625,149.28125 C 109.79224,145.50954 111.82299,143.04981 113.15625,141.59375 C 111.12127,142.13758 110.08603,142.63661 109.15625,144.53125 C 108.18464,146.51113 109.00576,150.73109 104.09375,155.90625 C 107.9181,156.76585 109.93766,150.38605 112.9375,152 C 112.67436,153.50869 110.95177,154.67667 111.25,157.0625 C 112.39029,156.08008 112.9261,153.98743 115.03125,154.53125 C 114.82073,156.44342 115.93925,163.43366 117.78125,163.46875 C 117.51811,160.24085 117.52256,157.90021 119.03125,157.8125 C 120.96096,158.88261 119.71277,165.69099 120.625,169.375 C 121.53723,173.059 122.88329,173.99428 124.09375,179.90625 C 125.30015,185.79838 123.56808,199.38475 125.375,207.15625 C 128.33975,184.92941 125.96801,170.22254 132.40625,159.46875 C 134.00264,162.29316 133.89801,164.7166 133.6875,165.59375 C 135.26636,165.31306 136.00276,163.81239 136.40625,161.8125 C 136.80974,159.81261 134.87071,153.3195 136.625,150.96875 C 137.85301,153.24933 141.02256,156.16888 142.53125,156.625 C 143.51366,153.08133 141.83061,147.09748 142.09375,145.0625 C 143.5456,145.78151 145.95788,146.09148 147.03125,144.875 C 150.27193,140.16269 155.25567,137.61134 160.28125,135.21875 C 149.71147,133.44238 164.75809,124.1688 171.875,121.6875 z"
         style="fill:#000000;fill-rule:evenodd;stroke:#000000;stroke-width:1px;stroke-linecap:butt;stroke-linejoin:round;stroke-opacity:1" />
      <path
         style="fill:#000000;fill-rule:evenodd;stroke:#000000;stroke-width:1px;stroke-linecap:butt;stroke-linejoin:round;stroke-opacity:1"
         d="M 78.13498,121.69808 C 91.88433,122.05974 104.37048,136.75635 102.97065,144.8709 C 99.63975,139.8971 94.22467,137.15285 89.72138,135.21556 C 100.29115,133.43919 85.25189,124.17938 78.13498,121.69808 z"
         id="path3326"
         sodipodi:nodetypes="cccc" />
      <path
         sodipodi:nodetypes="cc"
         id="path3328"
         d="M 103.42278,148.56964 C 100.87501,152.95773 99.008519,153.74857 95.184363,154.54985"
         style="fill:none;fill-rule:evenodd;stroke:#000000;stroke-width:3;stroke-linecap:round;stroke-linejoin:miter;stroke-miterlimit:4;stroke-dasharray:none;stroke-opacity:1" />
      <path
         style="fill:none;fill-rule:evenodd;stroke:#000000;stroke-width:3;stroke-linecap:round;stroke-linejoin:miter;stroke-miterlimit:4;stroke-dasharray:none;stroke-opacity:1"
         d="M 146.57722,148.56964 C 149.12499,152.95773 150.99148,153.74857 154.81564,154.54985"
         id="path3332"
         sodipodi:nodetypes="cc" />
      <path
         style="fill:#000000;fill-rule:evenodd;stroke:#000000;stroke-width:1px;stroke-linecap:butt;stroke-linejoin:round;stroke-opacity:1"
         d="M 113.14856,177.90821 C 113.52819,180.42685 112.59405,185.85451 110.6099,185.58323 C 111.81385,179.34906 109.75832,176.6575 105.03734,174.14931 C 106.27926,171.75919 106.62684,170.94415 108.3074,171.53205 C 109.98796,172.11995 112.76893,175.38957 113.14856,177.90821 z"
         id="path2418"
         sodipodi:nodetypes="ccczz" />
      <path
         id="rect2490"
         d="M 118.25 213.25 C 118.10669 213.23722 117.91022 213.28322 117.625 213.46875 C 116.4276 214.2476 116.03125 215.50517 116.03125 216.75 L 116.03125 222.59375 C 116.03125 225.41185 119.09737 227.6875 122.90625 227.6875 L 125 227.6875 L 127.09375 227.6875 C 130.90263 227.6875 133.96875 225.41185 133.96875 222.59375 L 133.96875 216.75 C 133.96875 215.50517 133.5724 214.2476 132.375 213.46875 C 132.08978 213.28322 131.89331 213.23722 131.75 213.25 C 131.32006 213.28835 131.42397 214.00057 131.5 214.21875 C 131.59469 214.49047 131.75 214.95777 131.75 215.34375 C 131.75 217.66435 128.72545 219.5625 125 219.5625 C 121.27455 219.5625 118.25 217.66435 118.25 215.34375 C 118.25 214.95777 118.40531 214.49047 118.5 214.21875 C 118.57603 214.00057 118.67994 213.28835 118.25 213.25 z "
         style="opacity:0.94999999999999996;fill:#000000;fill-opacity:1;stroke:none;stroke-width:3;stroke-linecap:round;stroke-linejoin:round;stroke-miterlimit:4;stroke-dasharray:none;stroke-opacity:1" />
      <path
         sodipodi:type="arc"
         style="opacity:0.95;fill:#000000;fill-opacity:1;stroke:none;stroke-width:3;stroke-linecap:round;stroke-linejoin:round;stroke-miterlimit:4;stroke-dasharray:none;stroke-opacity:1"
         id="path3266"
         sodipodi:cx="124.23118"
         sodipodi:cy="202.81018"
         sodipodi:rx="5.2492099"
         sodipodi:ry="3.962683"
         d="M 129.48039,202.81018 A 5.2492099,3.962683 0 1 1 118.98197,202.81018 A 5.2492099,3.962683 0 1 1 129.48039,202.81018 z"
         transform="matrix(0.7142027,0,0,0.4452439,36.273752,125.054)" />
    </g>
  </g>
</svg>
