<?xml version="1.0" encoding="UTF-8" standalone="no"?>
<!-- Created with Inkscape (http://www.inkscape.org/) -->
<svg
   xmlns:dc="http://purl.org/dc/elements/1.1/"
   xmlns:cc="http://creativecommons.org/ns#"
   xmlns:rdf="http://www.w3.org/1999/02/22-rdf-syntax-ns#"
   xmlns:svg="http://www.w3.org/2000/svg"
   xmlns="http://www.w3.org/2000/svg"
   xmlns:sodipodi="http://sodipodi.sourceforge.net/DTD/sodipodi-0.dtd"
   xmlns:inkscape="http://www.inkscape.org/namespaces/inkscape"
   width="250"
   height="250"
   id="svg2"
   sodipodi:version="0.32"
   inkscape:version="0.46"
   version="1.0"
   sodipodi:docname="Triangle-icon.svg"
   inkscape:output_extension="org.inkscape.output.svg.inkscape">
  <defs
     id="defs4">
    <inkscape:perspective
       sodipodi:type="inkscape:persp3d"
       inkscape:vp_x="0 : 526.18109 : 1"
       inkscape:vp_y="0 : 1000 : 0"
       inkscape:vp_z="744.09448 : 526.18109 : 1"
       inkscape:persp3d-origin="372.04724 : 350.78739 : 1"
       id="perspective10" />
    <inkscape:perspective
       id="perspective3217"
       inkscape:persp3d-origin="372.04724 : 350.78739 : 1"
       inkscape:vp_z="744.09448 : 526.18109 : 1"
       inkscape:vp_y="0 : 1000 : 0"
       inkscape:vp_x="0 : 526.18109 : 1"
       sodipodi:type="inkscape:persp3d" />
    <clipPath
       clipPathUnits="userSpaceOnUse"
       id="clipPath3225">
      <rect
         style="opacity:1;fill:none;fill-opacity:1;stroke:#000000;stroke-width:3;stroke-linecap:round;stroke-linejoin:round;stroke-miterlimit:4;stroke-dasharray:none;stroke-opacity:1"
         id="rect3227"
         width="190.34995"
         height="185.57794"
         x="20.413574"
         y="16.702015" />
    </clipPath>
  </defs>
  <sodipodi:namedview
     id="base"
     pagecolor="#ffffff"
     bordercolor="#666666"
     borderopacity="1.0"
     gridtolerance="10000"
     guidetolerance="10"
     objecttolerance="10"
     inkscape:pageopacity="0.0"
     inkscape:pageshadow="2"
     inkscape:zoom="3.772"
     inkscape:cx="125"
     inkscape:cy="125"
     inkscape:document-units="px"
     inkscape:current-layer="layer1"
     showgrid="false"
     inkscape:window-width="1920"
     inkscape:window-height="1150"
     inkscape:window-x="-8"
     inkscape:window-y="-8" />
  <metadata
     id="metadata7">
    <rdf:RDF>
      <cc:Work
         rdf:about="">
        <dc:format>image/svg+xml</dc:format>
        <dc:type
           rdf:resource="http://purl.org/dc/dcmitype/StillImage" />
      </cc:Work>
    </rdf:RDF>
  </metadata>
  <g
     inkscape:label="Layer 1"
     inkscape:groupmode="layer"
     id="layer1">
    <g
       id="g4182">
      <rect
         y="35"
         x="35"
         height="180"
         width="180"
         id="rect4142"
         style="opacity:1;fill:#ffffff;fill-opacity:1;stroke:none;stroke-width:2;stroke-linecap:round;stroke-linejoin:round;stroke-miterlimit:4;stroke-dasharray:none;stroke-opacity:1" />
      <path
         id="rect3229"
         d="M 25,25.000002 L 25,225 L 225,225 L 225,25.000002 L 25,25.000002 z M 44,44.000002 L 206,44.000002 L 206,206 L 44,206 L 44,44.000002 z"
         style="fill:#000000;fill-opacity:1;stroke:none;stroke-width:3;stroke-linecap:round;stroke-linejoin:round;stroke-miterlimit:4;stroke-dasharray:none;stroke-opacity:1" />
      <rect
         y="56.000004"
         x="56"
         height="138"
         width="138"
         id="rect3234"
         style="fill:#000000;fill-opacity:1;stroke:none;stroke-width:3;stroke-linecap:round;stroke-linejoin:round;stroke-miterlimit:4;stroke-dasharray:none;stroke-opacity:1" />
      <rect
         ry="6.0975609"
         y="163.5737"
         x="31.945961"
         height="19.088093"
         width="186.10808"
         id="rect3236"
         style="fill:#ffffff;fill-opacity:1;stroke:#000000;stroke-width:3;stroke-linecap:round;stroke-linejoin:round;stroke-miterlimit:4;stroke-dasharray:none;stroke-opacity:1" />
      <path
         id="path3440"
         d="M 161.90625,178.90625 C 158.3836,179.02002 155.5692,180.40042 153.59375,182.65625 L 203,182.65625 C 202.48312,182.30573 201.91917,181.94971 201.21875,181.59375 C 193.22035,177.52886 172.71155,179.60605 163.5625,178.9375 C 162.98924,178.89561 162.44751,178.88877 161.90625,178.90625 z"
         style="fill:none;fill-rule:evenodd;stroke:#000000;stroke-width:2;stroke-linecap:butt;stroke-linejoin:miter;stroke-miterlimit:4;stroke-dasharray:none;stroke-opacity:1" />
      <path
         id="path3449"
         d="M 161.71875,174.1875 C 156.23713,174.15038 153.5508,175.85882 148,176.78125 C 142.44922,177.70368 137.63266,177.27691 132.28125,178.9375 C 129.38257,179.83699 126.05987,181.01867 123.3125,182.65625 L 211.96875,182.65625 C 212.42492,182.65625 212.85417,182.59411 213.28125,182.5 C 211.4936,180.51545 209.12893,178.9927 206.25,177.875 C 200.03867,175.46354 190.18119,177.05415 181.40625,176.3125 C 172.63131,175.57085 167.20035,174.22462 161.71875,174.1875 z"
         style="fill:none;fill-rule:evenodd;stroke:#000000;stroke-width:2;stroke-linecap:butt;stroke-linejoin:miter;stroke-miterlimit:4;stroke-dasharray:none;stroke-opacity:1" />
      <path
         id="path3454"
         d="M 156.53125,171.21875 C 153.85997,171.2315 150.56618,171.47463 145.53125,172.3125 C 137.5206,173.64557 117.20686,179.88228 103.8125,182.65625 L 211.96875,182.65625 C 213.89392,182.65625 215.57159,181.76007 216.6875,180.375 C 215.97533,179.6402 215.21072,178.96616 214.46875,178.40625 C 210.45463,175.37709 203.68681,173.79447 198.3125,173.125 C 192.9382,172.45552 184.98911,173.42182 179.75,173.375 C 174.5109,173.32819 168.98903,171.71834 163.84375,171.53125 C 161.27111,171.4377 159.20253,171.206 156.53125,171.21875 z M 55.59375,173.90625 C 49.089009,173.98221 45.964922,174.75354 42.40625,175.25 C 39.821591,175.61058 35.749305,175.18354 31.9375,175.375 L 31.9375,176.5625 C 31.9375,179.94055 34.653201,182.65625 38.03125,182.65625 L 86.15625,182.65625 C 76.380749,179.93685 65.070364,174.02681 58.59375,173.90625 C 57.514314,173.88616 56.522999,173.8954 55.59375,173.90625 z"
         style="fill:none;fill-rule:evenodd;stroke:#000000;stroke-width:2;stroke-linecap:butt;stroke-linejoin:miter;stroke-miterlimit:4;stroke-dasharray:none;stroke-opacity:1" />
      <path
         id="path3456"
         d="M 45.65625,177.875 C 43.675242,177.86459 41.956862,178.07725 39.78125,178.6875 C 38.228506,179.12304 35.76154,179.67341 33.3125,180.40625 C 34.428725,181.77997 36.115232,182.65625 38.03125,182.65625 L 74.375,182.65625 C 68.399103,179.74408 57.679934,178.85327 53.03125,178.40625 C 49.875327,178.10277 47.637258,177.88541 45.65625,177.875 z"
         style="fill:none;fill-rule:evenodd;stroke:#000000;stroke-width:2;stroke-linecap:butt;stroke-linejoin:miter;stroke-miterlimit:4;stroke-dasharray:none;stroke-opacity:1" />
      <path
         id="path3464"
         d="M 38.03125,163.5625 C 34.653201,163.5625 31.9375,166.2782 31.9375,169.65625 L 31.9375,172.1875 C 41.280295,172.53519 56.871033,170.3975 63.90625,171.25 C 72.85159,172.33396 77.80267,175.75246 84.84375,176.84375 C 91.884829,177.93504 100.23203,177.61045 110.28125,176.5625 C 120.33047,175.51455 142.06651,169.20448 151.375,168.34375 C 160.68348,167.48303 166.55363,168.96173 171.53125,169.40625 C 176.50887,169.85078 180.052,170.48847 184.53125,170.71875 C 189.0105,170.94904 195.26921,168.8331 201.5,169.65625 C 205.13271,170.13616 211.88217,172.89873 218.0625,174.40625 L 218.0625,169.65625 C 218.0625,166.2782 215.34679,163.5625 211.96875,163.5625 L 38.03125,163.5625 z"
         style="fill:none;fill-rule:evenodd;stroke:#000000;stroke-width:2;stroke-linecap:butt;stroke-linejoin:miter;stroke-miterlimit:4;stroke-dasharray:none;stroke-opacity:1" />
      <path
         sodipodi:nodetypes="cccssssssssccc"
         id="path3469"
         d="M 38.03125,163.5625 C 34.653201,163.5625 31.9375,166.2782 31.9375,169.65625 L 31.9375,170.28125 C 34.842108,169.25361 37.290979,168.43728 38.984889,168.35886 C 43.097856,168.16845 45.258695,169.58156 49.576584,168.89011 C 53.934429,168.19225 63.458555,167.04874 68.65625,167.8125 C 73.594294,168.53811 76.008524,173.05496 89.875,173.90625 C 103.74147,174.75754 148.10555,164.25196 159.59375,164.90625 C 171.06385,165.55951 179.7379,167.97898 186.09375,168.09375 C 192.44961,168.20852 198.00757,166.59419 201.75,166.75 C 205.49243,166.90581 208.7305,169.39725 212.35783,169.67033 C 213.97946,169.79241 215.62472,169.19551 218.03125,168.96875 C 217.69135,165.91714 215.11398,163.5625 211.96875,163.5625 L 38.03125,163.5625 z"
         style="fill:none;fill-rule:evenodd;stroke:#000000;stroke-width:2;stroke-linecap:butt;stroke-linejoin:miter;stroke-miterlimit:4;stroke-dasharray:none;stroke-opacity:1" />
      <path
         id="path3484"
         d="M 38.03125,163.5625 C 37.269944,163.5625 36.545819,163.71609 35.875,163.96875 C 39.296274,165.43236 43.016123,166.42838 46.125,166.75 C 48.943626,167.04159 52.486849,165.45449 56.0625,163.5625 L 38.03125,163.5625 z"
         style="fill:none;fill-rule:evenodd;stroke:#000000;stroke-width:2;stroke-linecap:butt;stroke-linejoin:miter;stroke-miterlimit:4;stroke-dasharray:none;stroke-opacity:1" />
      <path
         id="path3482"
         d="M 74.3125,163.5625 C 74.842788,165.03885 75.595736,166.51123 77.6875,167.5625 C 82.825403,170.14468 90.072293,169.75156 103.125,168.625 C 110.64521,167.97594 127.21402,165.52489 141.9375,163.5625 L 74.3125,163.5625 z"
         style="fill:none;fill-rule:evenodd;stroke:#000000;stroke-width:2;stroke-linecap:butt;stroke-linejoin:miter;stroke-miterlimit:4;stroke-dasharray:none;stroke-opacity:1" />
      <path
         id="path3474"
         d="M 202.65625,163.5625 C 206.72499,165.61088 210.5828,167.31051 213.5625,166.9375 C 214.85788,166.77534 215.99376,166.52916 217,166.25 C 215.90637,164.62855 214.08003,163.5625 211.96875,163.5625 L 202.65625,163.5625 z"
         style="fill:none;fill-rule:evenodd;stroke:#000000;stroke-width:2;stroke-linecap:butt;stroke-linejoin:miter;stroke-miterlimit:4;stroke-dasharray:none;stroke-opacity:1" />
      <rect
         transform="matrix(-0.5,0.8660254,-0.8660254,-0.5,0,0)"
         ry="6.0975609"
         y="-149.13744"
         x="-39.266964"
         height="19.088093"
         width="186.10808"
         id="rect3265"
         style="fill:#ffffff;fill-opacity:1;stroke:#000000;stroke-width:3;stroke-linecap:round;stroke-linejoin:round;stroke-miterlimit:4;stroke-dasharray:none;stroke-opacity:1" />
      <path
         id="path3363"
         d="M 118.69625,87.65625 C 117.89746,87.625204 116.92913,87.922279 115.79,88.5625 C 106.67696,93.684267 89.83697,120.59843 85.040005,132.03125 C 80.283658,143.36725 76.267512,149.71024 73.383755,153.75 C 70.499999,157.78975 73.515495,153.02647 67.290005,160.40625 C 60.934826,167.93977 51.577656,192.76893 49.790005,194.59375 C 49.333411,195.05984 47.914403,195.59536 46.102505,196.1875 L 50.446255,198.6875 C 53.371731,200.37652 57.100982,199.39422 58.790005,196.46875 L 120.88375,88.875 C 120.33286,88.141995 119.6174,87.692052 118.69625,87.65625 z"
         style="fill:none;fill-rule:evenodd;stroke:#000000;stroke-width:2;stroke-linecap:butt;stroke-linejoin:miter;stroke-miterlimit:4;stroke-dasharray:none;stroke-opacity:1" />
      <path
         id="path3368"
         d="M 111.7275,102.0625 C 110.00293,102.09638 108.1487,102.85173 106.25875,104.96875 C 100.98091,110.88069 94.182024,126.05586 88.758755,135.46875 C 83.335487,144.88163 77.752332,149.16014 74.415005,158.125 C 71.164195,166.85744 61.209137,174.45309 59.852505,179.21875 C 58.495876,183.98441 56.435829,192.12929 57.227505,193.78125 C 57.51906,194.38963 57.893806,195.33931 59.008755,196.09375 L 113.19625,102.21875 C 112.72105,102.11871 112.2284,102.05266 111.7275,102.0625 z"
         style="fill:none;fill-rule:evenodd;stroke:#000000;stroke-width:2;stroke-linecap:butt;stroke-linejoin:miter;stroke-miterlimit:4;stroke-dasharray:none;stroke-opacity:1" />
      <path
         id="path3373"
         d="M 87.852505,146.09375 C 82.175835,152.14199 77.503276,158.18559 76.915005,158.90625 C 75.693165,160.40305 74.962079,163.47227 73.633755,165.6875 C 72.287124,167.93325 63.733194,175.68558 61.727505,181.875 C 60.665669,185.15175 59.980643,189.87635 60.008755,194.34375 L 87.852505,146.09375 z"
         style="fill:none;fill-rule:evenodd;stroke:#000000;stroke-width:2;stroke-linecap:butt;stroke-linejoin:miter;stroke-miterlimit:4;stroke-dasharray:none;stroke-opacity:1" />
      <path
         id="path3378"
         d="M 143.54,49.59375 C 138.92889,51.104937 133.75936,55.012165 128.79,63.09375 C 119.83759,77.652899 114.23238,81.597508 106.25875,92.53125 C 98.285129,103.46499 89.631859,116.48427 84.508755,125.9375 C 79.385654,135.39073 76.36203,143.86382 73.383755,148.1875 C 70.405481,152.51118 70.558793,152.10472 65.946255,158 C 61.33372,163.89528 50.285077,183.81147 48.727505,188.75 C 48.083668,190.79138 45.829565,192.53489 43.290005,194.34375 C 43.642479,194.68362 44.033459,194.99363 44.477505,195.25 L 50.446255,198.6875 C 53.371731,200.37652 57.100982,199.39422 58.790005,196.46875 L 143.54,49.59375 z"
         style="fill:none;fill-rule:evenodd;stroke:#000000;stroke-width:2;stroke-linecap:butt;stroke-linejoin:miter;stroke-miterlimit:4;stroke-dasharray:none;stroke-opacity:1" />
      <path
         id="path3383"
         d="M 134.07125,33.25 C 132.12022,33.386387 130.25189,34.484078 129.19625,36.3125 L 76.133755,128.21875 C 80.389289,124.05107 84.81321,119.02665 88.227505,114.78125 C 94.599688,106.85796 101.76793,88.320111 110.2275,81.125 C 118.83989,73.799916 129.58813,55.434571 135.69625,50.375 C 141.80437,45.31543 140.60286,47.289114 143.1025,42.9375 C 143.98985,41.392721 144.37016,39.788606 144.3525,38.09375 C 144.09339,37.880378 143.80947,37.673618 143.50875,37.5 L 137.54,34.0625 C 136.44295,33.429116 135.24187,33.168168 134.07125,33.25 z"
         style="fill:none;fill-rule:evenodd;stroke:#000000;stroke-width:2;stroke-linecap:butt;stroke-linejoin:miter;stroke-miterlimit:4;stroke-dasharray:none;stroke-opacity:1" />
      <path
         id="path3388"
         d="M 134.07125,33.25 C 132.12022,33.386387 130.25189,34.484078 129.19625,36.3125 L 98.946255,88.6875 C 102.22598,85.890691 105.31647,82.760444 106.8525,81 C 109.97719,77.418796 110.47085,74.961572 111.94625,72.90625 C 113.42165,70.850929 114.7992,70.359969 118.19625,65.46875 C 121.60706,60.557715 133.7366,41.175983 139.13375,38.1875 C 140.03903,37.686235 140.8354,37.050064 141.50875,36.34375 L 137.54,34.0625 C 136.44295,33.429116 135.24187,33.168168 134.07125,33.25 z"
         style="fill:none;fill-rule:evenodd;stroke:#000000;stroke-width:2;stroke-linecap:butt;stroke-linejoin:miter;stroke-miterlimit:4;stroke-dasharray:none;stroke-opacity:1" />
      <path
         id="path3393"
         d="M 134.07125,33.25 C 132.12022,33.386387 130.25189,34.484078 129.19625,36.3125 L 110.4775,68.75 C 112.75718,68.199843 114.8881,66.770423 116.6025,63.90625 C 120.92494,56.68494 131.53182,43.342871 135.82125,33.40625 C 135.23577,33.273335 134.65656,33.209084 134.07125,33.25 z"
         style="fill:none;fill-rule:evenodd;stroke:#000000;stroke-width:2;stroke-linecap:butt;stroke-linejoin:miter;stroke-miterlimit:4;stroke-dasharray:none;stroke-opacity:1" />
      <rect
         transform="matrix(-0.5,-0.8660254,0.8660254,-0.5,0,0)"
         style="fill:#ffffff;fill-opacity:1;stroke:#000000;stroke-width:3;stroke-linecap:round;stroke-linejoin:round;stroke-miterlimit:4;stroke-dasharray:none;stroke-opacity:1"
         id="rect3238"
         width="186.10808"
         height="19.088093"
         x="-271.84109"
         y="67.368919"
         ry="6.0975609" />
      <path
         id="path3428"
         d="M 121.6025,37.6875 C 122.71001,44.60732 124.54026,52.085771 126.13375,54.875 C 128.94128,59.789264 128.42556,57.488933 130.38375,60.4375 C 132.34194,63.386065 132.71291,69.679172 136.75875,75.03125 C 139.28141,78.368377 143.44646,80.239917 148.44625,84.1875 L 121.6025,37.6875 z"
         style="fill:none;fill-rule:evenodd;stroke:#000000;stroke-width:2;stroke-linecap:butt;stroke-linejoin:miter;stroke-miterlimit:4;stroke-dasharray:none;stroke-opacity:1" />
      <path
         id="path3335"
         d="M 172.04,125.0625 C 177.56166,139.64862 183.15114,154.94095 188.165,162.25 C 191.89603,167.68898 196.78694,172.51565 201.69625,176.40625 L 172.04,125.0625 z"
         style="fill:none;fill-rule:evenodd;stroke:#000000;stroke-width:2;stroke-linecap:butt;stroke-linejoin:miter;stroke-miterlimit:4;stroke-dasharray:none;stroke-opacity:1" />
      <path
         id="path3340"
         d="M 115.3525,33.25 C 115.13411,33.255899 114.91457,33.282718 114.69625,33.3125 C 116.80699,40.278027 121.05517,49.725821 123.75875,55.9375 C 127.54345,64.633135 133.20004,78.188358 140.19625,84.84375 C 146.91933,91.239322 153.52441,96.097843 155.82125,100.46875 C 158.0082,104.63055 162.2098,121.5504 165.38375,128.3125 C 168.5577,135.0746 173.76143,140.84404 176.50875,146.34375 C 179.25607,151.84346 180.38363,158.57041 184.19625,164.625 C 188.00887,170.67958 198.98635,177.94456 203.29,184.25 C 204.97035,186.71194 206.17523,190.22714 207.25875,193.6875 C 208.74059,191.78842 209.04097,189.12711 207.75875,186.90625 L 120.79,36.3125 C 119.6288,34.301235 117.51396,33.191617 115.3525,33.25 z"
         style="fill:none;fill-rule:evenodd;stroke:#000000;stroke-width:2;stroke-linecap:butt;stroke-linejoin:miter;stroke-miterlimit:4;stroke-dasharray:none;stroke-opacity:1" />
      <path
         id="path3346"
         d="M 108.50875,36.3125 L 106.4775,37.5 C 103.55202,39.189024 102.56972,42.918275 104.25875,45.84375 L 191.2275,196.46875 C 192.91652,199.39423 196.61452,200.37652 199.54,198.6875 L 205.4775,195.28125 C 205.10751,194.5366 204.78682,193.88401 204.3525,193 C 201.15524,186.49234 190.7613,178.36713 184.7275,170.46875 C 178.3406,162.10815 174.65101,150.79046 170.665,144.21875 C 166.67899,137.64705 162.05801,131.63905 159.54,125.9375 C 157.022,120.23595 157.64258,115.03181 153.7275,107.09375 C 149.8124,99.155695 136.21467,87.359571 130.63375,77.9375 C 125.05283,68.515431 119.30076,51.116962 115.25875,43.46875 C 113.51617,40.171466 111.06733,37.899769 108.50875,36.3125 z"
         style="fill:none;fill-rule:evenodd;stroke:#000000;stroke-width:2;stroke-linecap:butt;stroke-linejoin:miter;stroke-miterlimit:4;stroke-dasharray:none;stroke-opacity:1" />
      <path
         id="path3351"
         d="M 105.3525,38.34375 C 103.33356,40.241383 102.81101,43.3362 104.25875,45.84375 L 191.2275,196.46875 C 192.91652,199.39423 196.61452,200.37652 199.54,198.6875 L 202.38375,197.0625 C 201.95113,196.34124 201.5412,195.59615 201.165,194.84375 C 198.62478,189.76332 192.09662,185.37291 184.19625,174.96875 C 176.29588,164.56458 155.66263,127.83069 153.9775,122.21875 C 152.36553,116.85046 152.07246,113.69432 148.415,107.09375 C 144.75753,100.49318 132.4617,88.711343 127.4775,80.0625 C 122.4933,71.413655 117.23226,53.213637 112.3525,46.40625 C 109.91261,43.002557 107.70569,40.298963 105.3525,38.34375 z"
         style="fill:none;fill-rule:evenodd;stroke:#000000;stroke-width:2;stroke-linecap:butt;stroke-linejoin:miter;stroke-miterlimit:4;stroke-dasharray:none;stroke-opacity:1" />
      <path
         id="path3424"
         d="M 130.04,90.5 L 148.57125,122.59375 C 149.3594,121.05348 149.94211,119.60759 149.7275,117.96875 C 148.98911,112.33016 147.35641,109.66922 143.1025,104.1875 C 140.78631,101.2028 135.36971,95.161131 130.04,90.5 z"
         style="fill:none;fill-rule:evenodd;stroke:#000000;stroke-width:2;stroke-linecap:butt;stroke-linejoin:miter;stroke-miterlimit:4;stroke-dasharray:none;stroke-opacity:1" />
      <path
         id="path3357"
         d="M 180.415,177.75 L 191.2275,196.46875 C 192.49997,198.67274 194.92166,199.77826 197.29,199.46875 C 197.36942,198.66678 197.35591,197.76104 197.19625,196.71875 C 196.6895,193.41057 189.33896,186.14178 180.415,177.75 z"
         style="fill:none;fill-rule:evenodd;stroke:#000000;stroke-width:2;stroke-linecap:butt;stroke-linejoin:miter;stroke-miterlimit:4;stroke-dasharray:none;stroke-opacity:1" />
      <path
         d="M 53.287378,16.436904 C 52.77309,16.308332 67.498647,67.78532 67.867138,67.404219 C 68.235629,67.023118 16.292471,54.03733 16.438269,54.547003 C 16.584067,55.056677 53.801667,16.565476 53.287378,16.436904 z"
         inkscape:randomized="0"
         inkscape:rounded="-0.01"
         inkscape:flatsided="true"
         sodipodi:arg2="-0.27862011"
         sodipodi:arg1="-1.3258177"
         sodipodi:r2="15.303149"
         sodipodi:r1="30.606298"
         sodipodi:cy="46.129374"
         sodipodi:cx="45.864263"
         sodipodi:sides="3"
         id="path3500"
         style="opacity:1;fill:#ffffff;fill-opacity:1;stroke:#000000;stroke-width:3;stroke-linecap:round;stroke-linejoin:round;stroke-miterlimit:4;stroke-dasharray:none;stroke-opacity:1"
         sodipodi:type="star" />
      <path
         transform="matrix(-1,0,0,1,250,0)"
         sodipodi:type="star"
         style="opacity:1;fill:#ffffff;fill-opacity:1;stroke:#000000;stroke-width:3;stroke-linecap:round;stroke-linejoin:round;stroke-miterlimit:4;stroke-dasharray:none;stroke-opacity:1"
         id="path3506"
         sodipodi:sides="3"
         sodipodi:cx="45.864262"
         sodipodi:cy="46.129375"
         sodipodi:r1="30.606298"
         sodipodi:r2="15.303149"
         sodipodi:arg1="-1.3258177"
         sodipodi:arg2="-0.27862011"
         inkscape:flatsided="true"
         inkscape:rounded="-0.01"
         inkscape:randomized="0"
         d="M 53.287378,16.436904 C 52.77309,16.308332 67.498647,67.78532 67.867138,67.404219 C 68.235629,67.023118 16.292471,54.03733 16.438269,54.547003 C 16.584067,55.056677 53.801667,16.565476 53.287378,16.436904 z" />
      <path
         id="path4008"
         d="M 122.28125,56.5 C 121.23371,56.5 120.2722,56.811317 119.46875,57.34375 C 119.20093,57.521228 118.94622,57.7446 118.71875,57.96875 C 118.2638,58.417051 117.91016,58.933717 117.65625,59.53125 C 117.52929,59.826056 117.41054,60.116181 117.34375,60.4375 C 117.34169,60.447279 117.34575,60.458949 117.34375,60.46875 C 117.31333,60.619857 117.29731,60.781644 117.28125,60.9375 C 117.28013,60.94789 117.2823,60.95834 117.28125,60.96875 C 117.26618,61.124778 117.25,61.277442 117.25,61.4375 C 117.24976,61.45786 117.25,61.479576 117.25,61.5 C 117.25006,62.759504 116.81058,63.899834 116.09375,64.78125 C 117.01548,65.874383 118.39745,66.593756 119.96875,66.59375 L 120.0625,66.59375 C 120.37759,66.587974 120.67077,66.559195 120.96875,66.5 C 121.29742,66.434708 121.63595,66.311621 121.9375,66.1875 C 122.15918,66.096254 122.35858,65.995008 122.5625,65.875 C 123.18876,65.496792 123.74763,65.023347 124.15625,64.40625 C 124.16163,64.398443 124.15091,64.382839 124.15625,64.375 C 124.31615,64.130921 124.47632,63.866494 124.59375,63.59375 C 124.60645,63.564269 124.61288,63.529775 124.625,63.5 C 124.74976,63.194439 124.84059,62.86534 124.90625,62.53125 C 124.931,62.405324 124.95304,62.285603 124.96875,62.15625 C 124.97301,62.114892 124.96553,62.072912 124.96875,62.03125 C 124.98064,61.908973 124.99646,61.78115 125,61.65625 C 125.00147,61.604462 125,61.552205 125,61.5 C 124.99995,60.276254 125.43479,59.171785 126.15625,58.3125 C 125.23452,57.219369 123.85255,56.5 122.28125,56.5 z"
         style="fill:#ffffff;fill-opacity:1;stroke:#000000;stroke-width:2;stroke-linecap:round;stroke-linejoin:round;stroke-miterlimit:4;stroke-dasharray:none;stroke-opacity:1" />
      <path
         id="path4014"
         d="M 114.40625,56.5 C 114.24078,56.5 114.0652,56.511866 113.90625,56.53125 C 113.42941,56.589401 112.99382,56.726708 112.5625,56.90625 C 112.46502,56.946376 112.37375,56.987549 112.28125,57.03125 C 112.08761,57.12273 111.89999,57.224316 111.71875,57.34375 C 111.6997,57.356652 111.67511,57.361832 111.65625,57.375 C 111.577,57.440449 111.51874,57.529848 111.4375,57.59375 C 111.26866,57.726558 111.08783,57.846226 110.9375,58 C 110.72871,58.209647 110.5117,58.443912 110.34375,58.6875 C 110.33916,58.694396 110.34831,58.711829 110.34375,58.71875 C 110.16726,58.98657 109.99912,59.292199 109.875,59.59375 C 109.75088,59.895301 109.65904,60.202579 109.59375,60.53125 C 109.56892,60.663114 109.5452,60.802084 109.53125,60.9375 C 109.52761,60.968684 109.53434,60.999888 109.53125,61.03125 C 109.51988,61.167058 109.5,61.298694 109.5,61.4375 C 109.49906,61.478196 109.5,61.521562 109.5,61.5625 C 109.5,61.781409 109.53656,62.007475 109.5625,62.21875 C 109.57616,62.324144 109.57383,62.428114 109.59375,62.53125 C 109.61168,62.628252 109.63304,62.717614 109.65625,62.8125 C 109.70447,63.003598 109.77479,63.193681 109.84375,63.375 C 109.93143,63.605524 110.0376,63.850258 110.15625,64.0625 C 110.262,64.251651 110.37179,64.421201 110.5,64.59375 C 110.58627,64.710343 110.68552,64.829291 110.78125,64.9375 C 110.90725,65.079924 111.04631,65.21709 111.1875,65.34375 C 111.39292,65.527156 111.61019,65.696727 111.84375,65.84375 C 112.05159,65.974108 112.24152,66.089553 112.46875,66.1875 C 112.75417,66.312482 113.06475,66.399636 113.375,66.46875 C 115.59034,65.974366 117.25011,63.968602 117.25,61.5 C 117.24995,60.28488 117.695,59.204747 118.40625,58.34375 C 117.48626,57.231721 116.11504,56.5 114.53125,56.5 L 114.40625,56.5 z"
         style="fill:#ffffff;fill-opacity:1;stroke:#000000;stroke-width:2;stroke-linecap:round;stroke-linejoin:round;stroke-miterlimit:4;stroke-dasharray:none;stroke-opacity:1" />
      <path
         style="fill:#ffffff;fill-opacity:1;stroke:#000000;stroke-width:2;stroke-linecap:round;stroke-linejoin:round;stroke-miterlimit:4;stroke-dasharray:none;stroke-opacity:1"
         d="M 127.71875,66.59376 C 128.76629,66.59376 129.7278,66.282443 130.53125,65.75001 C 130.79907,65.572532 131.05378,65.34916 131.28125,65.12501 C 131.7362,64.676709 132.08984,64.160043 132.34375,63.56251 C 132.47071,63.267704 132.58946,62.977579 132.65625,62.65626 C 132.65831,62.646481 132.65425,62.634811 132.65625,62.62501 C 132.68667,62.473903 132.70269,62.312116 132.71875,62.15626 C 132.71987,62.14587 132.7177,62.13542 132.71875,62.12501 C 132.73382,61.968982 132.75,61.816318 132.75,61.65626 C 132.75024,61.6359 132.75,61.614184 132.75,61.59376 C 132.74994,60.334256 133.18942,59.193926 133.90625,58.31251 C 132.98452,57.219377 131.60255,56.500004 130.03125,56.50001 L 129.9375,56.50001 C 129.62241,56.505786 129.32923,56.534565 129.03125,56.59376 C 128.70258,56.659052 128.36405,56.782139 128.0625,56.90626 C 127.84082,56.997506 127.64142,57.098752 127.4375,57.21876 C 126.81124,57.596968 126.25237,58.070413 125.84375,58.68751 C 125.83837,58.695317 125.84909,58.710921 125.84375,58.71876 C 125.68385,58.962839 125.52368,59.227266 125.40625,59.50001 C 125.39355,59.529491 125.38712,59.563985 125.375,59.59376 C 125.25024,59.899321 125.15941,60.22842 125.09375,60.56251 C 125.069,60.688436 125.04696,60.808157 125.03125,60.93751 C 125.02699,60.978868 125.03447,61.020848 125.03125,61.06251 C 125.01936,61.184787 125.00354,61.31261 125,61.43751 C 124.99853,61.489298 125,61.541555 125,61.59376 C 125.00005,62.817506 124.56521,63.921975 123.84375,64.78126 C 124.76548,65.874391 126.14745,66.59376 127.71875,66.59376 z"
         id="path4066" />
      <path
         style="fill:#ffffff;fill-opacity:1;stroke:#000000;stroke-width:2;stroke-linecap:round;stroke-linejoin:round;stroke-miterlimit:4;stroke-dasharray:none;stroke-opacity:1"
         d="M 135.59375,66.59376 C 135.75922,66.59376 135.9348,66.581894 136.09375,66.56251 C 136.57059,66.504359 137.00618,66.367052 137.4375,66.18751 C 137.53498,66.147384 137.62625,66.106211 137.71875,66.06251 C 137.91239,65.97103 138.10001,65.869444 138.28125,65.75001 C 138.3003,65.737108 138.32489,65.731928 138.34375,65.71876 C 138.423,65.653311 138.48126,65.563912 138.5625,65.50001 C 138.73134,65.367202 138.91217,65.247534 139.0625,65.09376 C 139.27129,64.884113 139.4883,64.649848 139.65625,64.40626 C 139.66084,64.399364 139.65169,64.381931 139.65625,64.37501 C 139.83274,64.10719 140.00088,63.801561 140.125,63.50001 C 140.24912,63.198459 140.34096,62.891181 140.40625,62.56251 C 140.43108,62.430646 140.4548,62.291676 140.46875,62.15626 C 140.47239,62.125076 140.46566,62.093872 140.46875,62.06251 C 140.48012,61.926702 140.5,61.795066 140.5,61.65626 C 140.50094,61.615564 140.5,61.572198 140.5,61.53126 C 140.5,61.312351 140.46344,61.086285 140.4375,60.87501 C 140.42384,60.769616 140.42617,60.665646 140.40625,60.56251 C 140.38832,60.465508 140.36696,60.376146 140.34375,60.28126 C 140.29553,60.090162 140.22521,59.900079 140.15625,59.71876 C 140.06857,59.488236 139.9624,59.243502 139.84375,59.03126 C 139.738,58.842109 139.62821,58.672559 139.5,58.50001 C 139.41373,58.383417 139.31448,58.264469 139.21875,58.15626 C 139.09275,58.013836 138.95369,57.87667 138.8125,57.75001 C 138.60708,57.566604 138.38981,57.397033 138.15625,57.25001 C 137.94841,57.119652 137.75848,57.004207 137.53125,56.90626 C 137.24583,56.781278 136.93525,56.694124 136.625,56.62501 C 134.40966,57.119394 132.74989,59.125158 132.75,61.59376 C 132.75005,62.80888 132.305,63.889013 131.59375,64.75001 C 132.51374,65.862039 133.88496,66.59376 135.46875,66.59376 L 135.59375,66.59376 z"
         id="path4068" />
      <path
         style="fill:#ffffff;fill-opacity:1;stroke:#000000;stroke-width:2;stroke-linecap:round;stroke-linejoin:round;stroke-miterlimit:4;stroke-dasharray:none;stroke-opacity:1"
         d="M 59.422372,178.30182 C 59.946142,179.20902 60.696506,179.88605 61.559331,180.31564 C 61.846941,180.45884 62.167742,180.56774 62.475597,180.65266 C 63.091312,180.82251 63.715578,180.87044 64.360012,180.79156 C 64.678801,180.75411 64.989432,180.71189 65.301097,180.60907 C 65.310596,180.60597 65.318672,180.59662 65.32816,180.59345 C 65.474233,180.54424 65.622355,180.47722 65.76536,180.4132 C 65.774918,180.40897 65.782883,180.40187 65.792423,180.39757 C 65.935082,180.33261 66.075383,180.27029 66.213998,180.19026 C 66.23175,180.18029 66.250436,180.16922 66.268124,180.15901 C 67.358857,179.52921 68.566151,179.33964 69.687895,179.51973 C 70.173711,178.17492 70.105721,176.61841 69.320066,175.25763 L 69.273191,175.17644 C 69.110644,174.90645 68.93913,174.66694 68.738876,174.43848 C 68.517997,174.18649 68.242135,173.95486 67.983868,173.75577 C 67.794007,173.60941 67.606625,173.48735 67.400735,173.37075 C 66.760067,173.0175 66.070617,172.77023 65.331885,172.7249 C 65.322434,172.72414 65.314281,172.74123 65.304822,172.74052 C 65.013494,172.72409 64.704408,172.71759 64.40949,172.75226 C 64.377608,172.756 64.344521,172.76768 64.312675,172.77207 C 63.985671,172.81681 63.655248,172.9027 63.333088,173.01288 C 63.211658,173.05441 63.096956,173.09518 62.977078,173.14625 C 62.939131,173.16324 62.906515,173.19071 62.868825,173.20875 C 62.756985,173.25959 62.638377,173.30981 62.528441,173.36919 C 62.482856,173.39381 62.438335,173.42121 62.393124,173.44732 C 61.333354,174.05923 60.159436,174.23488 59.054543,174.03972 C 58.568729,175.38453 58.636722,176.94104 59.422372,178.30182 z"
         id="path4086" />
      <path
         style="fill:#ffffff;fill-opacity:1;stroke:#000000;stroke-width:2;stroke-linecap:round;stroke-linejoin:round;stroke-miterlimit:4;stroke-dasharray:none;stroke-opacity:1"
         d="M 63.359872,185.12177 C 63.442607,185.26507 63.540673,185.4112 63.636935,185.53916 C 63.925716,185.92304 64.262422,186.23162 64.63357,186.51538 C 64.71706,186.57974 64.798352,186.63819 64.882448,186.69645 C 65.058492,186.81841 65.240278,186.9301 65.434331,187.02734 C 65.455029,187.03739 65.471811,187.05609 65.492644,187.06584 C 65.58895,187.10175 65.695502,187.1075 65.791462,187.14591 C 65.990897,187.22573 66.184948,187.32249 66.393285,187.3758 C 66.67924,187.45179 66.990624,187.52259 67.285553,187.54625 C 67.29382,187.54678 67.304342,187.53014 67.312616,187.53062 C 67.6328,187.54956 67.981552,187.54236 68.304763,187.49907 C 68.627974,187.45579 68.940005,187.38169 69.257287,187.27389 C 69.3839,187.22947 69.516111,187.18052 69.64036,187.1249 C 69.669186,187.11246 69.692844,187.09103 69.72155,187.07802 C 69.844848,187.01996 69.968788,186.97136 70.088998,186.90196 C 70.124711,186.88242 70.161797,186.85993 70.197251,186.83946 C 70.386831,186.73 70.56433,186.58531 70.73433,186.45721 C 70.818774,186.39268 70.909979,186.34271 70.989338,186.27389 C 71.064379,186.20986 71.131089,186.14669 71.201657,186.07914 C 71.343043,185.94183 71.4725,185.78589 71.595047,185.63551 C 71.750846,185.44432 71.909707,185.23 72.034189,185.02113 C 72.145124,184.83497 72.237063,184.65512 72.32239,184.45781 C 72.380228,184.3248 72.433615,184.17937 72.479461,184.04236 C 72.539804,183.86203 72.589063,183.67302 72.628159,183.48742 C 72.684283,183.21781 72.722501,182.94487 72.733047,182.66909 C 72.74202,182.42391 72.747034,182.20171 72.718243,181.95595 C 72.683771,181.64627 72.603958,181.33373 72.508688,181.03049 C 70.972869,179.35914 68.405941,178.92462 66.268124,180.15901 C 65.215824,180.76662 64.057877,180.92126 62.956606,180.73579 C 62.453556,182.08854 62.505477,183.64192 63.297372,185.01352 L 63.359872,185.12177 z"
         id="path4088" />
      <path
         id="path4090"
         d="M 65.445075,168.54593 C 64.921305,167.63873 64.170941,166.9617 63.308116,166.53211 C 63.020505,166.38891 62.699704,166.28001 62.39185,166.19509 C 61.776135,166.02524 61.151869,165.97731 60.507435,166.05619 C 60.188646,166.09364 59.878015,166.13586 59.56635,166.23868 C 59.556851,166.24178 59.548774,166.25113 59.539286,166.2543 C 59.393214,166.30351 59.245092,166.37053 59.102087,166.43455 C 59.092529,166.43878 59.084564,166.44588 59.075024,166.45018 C 58.932364,166.51514 58.792064,166.57746 58.653449,166.65749 C 58.635697,166.66746 58.61701,166.67853 58.599323,166.68874 C 57.50859,167.31854 56.301295,167.50811 55.179552,167.32802 C 54.693736,168.67283 54.761726,170.22934 55.547381,171.59012 L 55.594256,171.67131 C 55.756803,171.9413 55.928316,172.18081 56.128571,172.40927 C 56.34945,172.66126 56.625312,172.89289 56.883579,173.09198 C 57.07344,173.23834 57.260822,173.3604 57.466712,173.477 C 58.107379,173.83025 58.79683,174.07752 59.535561,174.12285 C 59.545012,174.12361 59.553166,174.10652 59.562625,174.10723 C 59.853953,174.12366 60.163039,174.13016 60.457957,174.09549 C 60.489838,174.09175 60.522926,174.08007 60.554772,174.07568 C 60.881775,174.03094 61.212199,173.94505 61.534359,173.83487 C 61.655789,173.79334 61.77049,173.75257 61.890368,173.7015 C 61.928316,173.68451 61.960931,173.65704 61.998622,173.639 C 62.110462,173.58816 62.22907,173.53794 62.339006,173.47856 C 62.384591,173.45394 62.429112,173.42654 62.474323,173.40044 C 63.534093,172.78852 64.708011,172.61287 65.812904,172.80803 C 66.298718,171.46322 66.230725,169.90671 65.445075,168.54593 z"
         style="fill:#ffffff;fill-opacity:1;stroke:#000000;stroke-width:2;stroke-linecap:round;stroke-linejoin:round;stroke-miterlimit:4;stroke-dasharray:none;stroke-opacity:1" />
      <path
         id="path4092"
         d="M 61.507575,161.72598 C 61.42484,161.58268 61.326773,161.43655 61.230511,161.30859 C 60.941731,160.92471 60.605025,160.61613 60.233877,160.33237 C 60.150387,160.26801 60.069095,160.20956 59.984999,160.1513 C 59.808955,160.02934 59.627169,159.91765 59.433116,159.82041 C 59.412417,159.81036 59.395636,159.79166 59.374802,159.78191 C 59.278497,159.746 59.171945,159.74025 59.075984,159.70184 C 58.876549,159.62202 58.682499,159.52526 58.474162,159.47195 C 58.188207,159.39596 57.876822,159.32516 57.581894,159.3015 C 57.573627,159.30097 57.563105,159.31761 57.554831,159.31713 C 57.234647,159.29819 56.885894,159.30539 56.562684,159.34868 C 56.239473,159.39196 55.927442,159.46606 55.61016,159.57386 C 55.483547,159.61828 55.351336,159.66723 55.227087,159.72285 C 55.198261,159.73529 55.174602,159.75672 55.145897,159.76973 C 55.022599,159.82779 54.898659,159.87639 54.778449,159.94579 C 54.742735,159.96533 54.705649,159.98782 54.670196,160.00829 C 54.480615,160.11775 54.303116,160.26244 54.133117,160.39054 C 54.048673,160.45507 53.957467,160.50504 53.878109,160.57386 C 53.803068,160.63789 53.736358,160.70106 53.665789,160.76861 C 53.524404,160.90592 53.394947,161.06186 53.2724,161.21224 C 53.1166,161.40343 52.95774,161.61775 52.833258,161.82662 C 52.722323,162.01278 52.630383,162.19263 52.545057,162.38994 C 52.487219,162.52295 52.433832,162.66838 52.387985,162.80539 C 52.327643,162.98572 52.278383,163.17473 52.239288,163.36033 C 52.183163,163.62994 52.144945,163.90288 52.1344,164.17866 C 52.125426,164.42384 52.120413,164.64604 52.149204,164.8918 C 52.183676,165.20148 52.263488,165.51402 52.358759,165.81726 C 53.894578,167.48861 56.461506,167.92313 58.599323,166.68874 C 59.651622,166.08113 60.80957,165.92649 61.91084,166.11196 C 62.413891,164.75921 62.36197,163.20583 61.570075,161.83423 L 61.507575,161.72598 z"
         style="fill:#ffffff;fill-opacity:1;stroke:#000000;stroke-width:2;stroke-linecap:round;stroke-linejoin:round;stroke-miterlimit:4;stroke-dasharray:none;stroke-opacity:1" />
      <path
         id="path4134"
         d="M 194.35682,173.3277 C 194.88059,172.4205 195.09174,171.43215 195.03236,170.47013 C 195.01257,170.14945 194.94648,169.81718 194.8661,169.50811 C 194.70533,168.88996 194.4347,168.32536 194.04418,167.8067 C 193.85235,167.54935 193.66047,167.30145 193.41559,167.08295 C 193.40816,167.07627 193.39602,167.07395 193.38853,167.06732 C 193.27288,166.96542 193.14078,166.87066 193.01383,166.77882 C 193.00539,166.77266 192.99526,166.76931 192.98677,166.7632 C 192.85918,166.67213 192.73506,166.58179 192.59644,166.50176 C 192.57893,166.49137 192.56001,166.48072 192.54232,166.47051 C 191.45153,165.84081 190.68371,164.89004 190.2788,163.82854 C 188.87125,164.08022 187.55727,164.91735 186.77163,166.27814 L 186.72475,166.35933 C 186.57221,166.63509 186.45054,166.90338 186.35282,167.19104 C 186.24503,167.50832 186.18236,167.86304 186.13907,168.18625 C 186.10726,168.42385 186.09524,168.64716 186.09721,168.88377 C 186.11161,169.61523 186.24219,170.33595 186.57231,170.99837 C 186.57638,171.00693 186.59525,171.00545 186.59937,171.014 C 186.7308,171.27451 186.87971,171.54544 187.0572,171.78351 C 187.07638,171.80925 187.10304,171.83206 187.12277,171.85744 C 187.32501,172.11827 187.5646,172.36148 187.8211,172.58539 C 187.91778,172.66979 188.01045,172.74873 188.11461,172.82702 C 188.1483,172.85138 188.1884,172.8659 188.22287,172.88952 C 188.32282,172.96095 188.4256,173.03856 188.532,173.10408 C 188.57612,173.13125 188.62211,173.1561 188.66732,173.1822 C 189.72714,173.79403 190.46622,174.72285 190.84965,175.7773 C 192.25719,175.52562 193.57117,174.68848 194.35682,173.3277 z"
         style="fill:#ffffff;fill-opacity:1;stroke:#000000;stroke-width:2;stroke-linecap:round;stroke-linejoin:round;stroke-miterlimit:4;stroke-dasharray:none;stroke-opacity:1" />
      <path
         id="path4136"
         d="M 198.29432,166.50775 C 198.37705,166.36445 198.45457,166.20646 198.51726,166.05911 C 198.70532,165.61708 198.8042,165.17119 198.86437,164.70789 C 198.87836,164.6034 198.88834,164.50378 198.89674,164.40182 C 198.91434,164.18838 198.92017,163.9751 198.90736,163.75843 C 198.90571,163.73548 198.91352,163.71159 198.91155,163.68868 C 198.89449,163.58732 198.8462,163.49217 198.83148,163.38986 C 198.80088,163.17724 198.78766,162.9608 198.72966,162.75372 C 198.65249,162.46808 198.55812,162.16301 198.43114,161.89577 C 198.42746,161.88835 198.40779,161.88755 198.40408,161.88014 C 198.26038,161.59339 198.07977,161.29496 197.88068,161.03669 C 197.68159,160.77843 197.4614,160.54525 197.20941,160.32438 C 197.10762,160.23694 196.99913,160.14691 196.88883,160.06712 C 196.86365,160.04838 196.83326,160.03861 196.80764,160.02025 C 196.69571,159.9425 196.59165,159.85946 196.47144,159.79006 C 196.43667,159.7689 196.39864,159.74803 196.36319,159.72756 C 196.17361,159.61811 195.95955,159.53673 195.76361,159.45356 C 195.66551,159.41269 195.57663,159.35869 195.47735,159.32438 C 195.38438,159.2914 195.29631,159.26522 195.20253,159.23788 C 195.01293,159.18409 194.81315,159.14994 194.62165,159.11901 C 194.37817,159.07968 194.11313,159.04926 193.87,159.04589 C 193.65332,159.0429 193.45159,159.0532 193.23805,159.07796 C 193.09394,159.09438 192.94131,159.12086 192.79973,159.14966 C 192.61339,159.18756 192.42507,159.23941 192.24478,159.29835 C 191.98324,159.38455 191.72775,159.48792 191.48365,159.61668 C 191.26683,159.7315 191.07189,159.83826 190.87345,159.98607 C 190.6225,160.17076 190.39173,160.39616 190.17675,160.63028 C 189.49723,162.79602 190.40439,165.2363 192.54232,166.47051 C 193.59467,167.07802 194.30757,168.00351 194.69759,169.04997 C 196.12063,168.80925 197.43992,167.9876 198.23182,166.616 L 198.29432,166.50775 z"
         style="fill:#ffffff;fill-opacity:1;stroke:#000000;stroke-width:2;stroke-linecap:round;stroke-linejoin:round;stroke-miterlimit:4;stroke-dasharray:none;stroke-opacity:1" />
      <path
         style="fill:#ffffff;fill-opacity:1;stroke:#000000;stroke-width:2;stroke-linecap:round;stroke-linejoin:round;stroke-miterlimit:4;stroke-dasharray:none;stroke-opacity:1"
         d="M 182.89662,172.98983 C 182.37285,173.89703 182.1617,174.88538 182.22108,175.8474 C 182.24087,176.16808 182.30696,176.50035 182.38734,176.80942 C 182.54811,177.42757 182.81873,177.99216 183.20926,178.51082 C 183.40109,178.76818 183.59297,179.01608 183.83784,179.23458 C 183.84528,179.24125 183.85742,179.24357 183.86491,179.25021 C 183.98056,179.3521 184.11266,179.44687 184.23961,179.53871 C 184.24804,179.54487 184.25818,179.54822 184.26667,179.55433 C 184.39426,179.6454 184.51838,179.73574 184.65699,179.81577 C 184.67451,179.82616 184.69343,179.83681 184.71112,179.84702 C 185.80191,180.47672 186.56973,181.42749 186.97464,182.48899 C 188.38219,182.23731 189.69617,181.40018 190.48181,180.03939 L 190.52869,179.9582 C 190.68123,179.68244 190.8029,179.41414 190.90062,179.12649 C 191.00841,178.80921 191.07108,178.45449 191.11436,178.13128 C 191.14618,177.89367 191.1582,177.67036 191.15623,177.43376 C 191.14182,176.7023 191.01124,175.98158 190.68113,175.31916 C 190.67706,175.3106 190.65819,175.31208 190.65407,175.30353 C 190.52264,175.04302 190.37372,174.77209 190.19624,174.53402 C 190.17705,174.50828 190.1504,174.48547 190.13067,174.46008 C 189.92843,174.19926 189.68883,173.95605 189.43233,173.73214 C 189.33565,173.64774 189.24299,173.56879 189.13882,173.49051 C 189.10514,173.46614 189.06504,173.45163 189.03057,173.42801 C 188.93062,173.35658 188.82783,173.27896 188.72144,173.21345 C 188.67732,173.18628 188.63133,173.16143 188.58612,173.13532 C 187.5263,172.52349 186.78722,171.59468 186.40379,170.54023 C 184.99624,170.79191 183.68227,171.62904 182.89662,172.98983 z"
         id="path4138" />
      <path
         style="fill:#ffffff;fill-opacity:1;stroke:#000000;stroke-width:2;stroke-linecap:round;stroke-linejoin:round;stroke-miterlimit:4;stroke-dasharray:none;stroke-opacity:1"
         d="M 178.95912,179.80978 C 178.87638,179.95308 178.79887,180.11107 178.73618,180.25842 C 178.54812,180.70045 178.44924,181.14633 178.38907,181.60964 C 178.37508,181.71412 178.3651,181.81375 178.35669,181.91571 C 178.3391,182.12915 178.33326,182.34242 178.34608,182.5591 C 178.34772,182.58205 178.33992,182.60593 178.34189,182.62885 C 178.35895,182.73021 178.40724,182.82536 178.42196,182.92767 C 178.45255,183.14029 178.46577,183.35673 178.52378,183.56381 C 178.60095,183.84945 178.69532,184.15452 178.8223,184.42176 C 178.82598,184.42918 178.84565,184.42997 178.84936,184.43738 C 178.99306,184.72414 179.17367,185.02257 179.37276,185.28083 C 179.57185,185.5391 179.79204,185.77227 180.04403,185.99315 C 180.14581,186.08059 180.25431,186.17062 180.36461,186.2504 C 180.38979,186.26915 180.42018,186.27892 180.44579,186.29728 C 180.55772,186.37503 180.66178,186.45806 180.78199,186.52747 C 180.81677,186.54863 180.85479,186.5695 180.89025,186.58997 C 181.07983,186.69942 181.29389,186.78079 181.48983,186.86397 C 181.58793,186.90483 181.6768,186.95884 181.77608,186.99315 C 181.86905,187.02613 181.95712,187.05231 182.0509,187.07965 C 182.24051,187.13344 182.44029,187.16758 182.63179,187.19852 C 182.87527,187.23785 183.1403,187.26827 183.38343,187.27164 C 183.60012,187.27463 183.80185,187.26433 184.01539,187.23957 C 184.15949,187.22315 184.31213,187.19667 184.45371,187.16787 C 184.64005,187.12997 184.82837,187.07812 185.00865,187.01917 C 185.2702,186.93298 185.52569,186.8296 185.76979,186.70085 C 185.98661,186.58603 186.18155,186.47927 186.37999,186.33145 C 186.63094,186.14676 186.8617,185.92137 187.07668,185.68724 C 187.7562,183.52151 186.84905,181.08123 184.71112,179.84702 C 183.65877,179.2395 182.94587,178.31401 182.55585,177.26755 C 181.13281,177.50827 179.81351,178.32993 179.02162,179.70153 L 178.95912,179.80978 z"
         id="path4140" />
    </g>
  </g>
</svg>
