<?xml version="1.0" encoding="UTF-8" standalone="no"?>
<!-- Created with Inkscape (http://www.inkscape.org/) -->
<svg
   xmlns:dc="http://purl.org/dc/elements/1.1/"
   xmlns:cc="http://creativecommons.org/ns#"
   xmlns:rdf="http://www.w3.org/1999/02/22-rdf-syntax-ns#"
   xmlns:svg="http://www.w3.org/2000/svg"
   xmlns="http://www.w3.org/2000/svg"
   xmlns:sodipodi="http://sodipodi.sourceforge.net/DTD/sodipodi-0.dtd"
   xmlns:inkscape="http://www.inkscape.org/namespaces/inkscape"
   width="750"
   height="300"
   id="svg2"
   sodipodi:version="0.32"
   inkscape:version="0.46"
   version="1.0"
   sodipodi:docname="Trolloc-icon.svg"
   inkscape:output_extension="org.inkscape.output.svg.inkscape">
  <defs
     id="defs4">
    <inkscape:perspective
       sodipodi:type="inkscape:persp3d"
       inkscape:vp_x="0 : 526.18109 : 1"
       inkscape:vp_y="0 : 1000 : 0"
       inkscape:vp_z="744.09448 : 526.18109 : 1"
       inkscape:persp3d-origin="372.04724 : 350.78739 : 1"
       id="perspective10" />
    <inkscape:perspective
       id="perspective3217"
       inkscape:persp3d-origin="372.04724 : 350.78739 : 1"
       inkscape:vp_z="744.09448 : 526.18109 : 1"
       inkscape:vp_y="0 : 1000 : 0"
       inkscape:vp_x="0 : 526.18109 : 1"
       sodipodi:type="inkscape:persp3d" />
    <clipPath
       clipPathUnits="userSpaceOnUse"
       id="clipPath3225">
      <rect
         style="opacity:1;fill:none;fill-opacity:1;stroke:#000000;stroke-width:2.93727779;stroke-linecap:round;stroke-linejoin:round;stroke-miterlimit:4;stroke-dasharray:none;stroke-opacity:1"
         id="rect3227"
         width="620.06274"
         height="203.87225"
         x="-100.50755"
         y="27.111494"
         transform="matrix(0.9999863,-5.2359638e-3,5.2359638e-3,0.9999863,0,0)" />
    </clipPath>
    <clipPath
       id="clipPath2519"
       clipPathUnits="userSpaceOnUse">
      <rect
         transform="matrix(0.9999863,-5.2359638e-3,5.2359638e-3,0.9999863,0,0)"
         y="27.111494"
         x="-100.50755"
         height="203.87225"
         width="620.06274"
         id="rect2521"
         style="opacity:1;fill:none;fill-opacity:1;stroke:#000000;stroke-width:2.93727779;stroke-linecap:round;stroke-linejoin:round;stroke-miterlimit:4;stroke-dasharray:none;stroke-opacity:1" />
    </clipPath>
    <inkscape:perspective
       sodipodi:type="inkscape:persp3d"
       inkscape:vp_x="0 : 526.18109 : 1"
       inkscape:vp_y="0 : 1000 : 0"
       inkscape:vp_z="744.09448 : 526.18109 : 1"
       inkscape:persp3d-origin="372.04724 : 350.78739 : 1"
       id="perspective2517" />
    <inkscape:perspective
       id="perspective2515"
       inkscape:persp3d-origin="372.04724 : 350.78739 : 1"
       inkscape:vp_z="744.09448 : 526.18109 : 1"
       inkscape:vp_y="0 : 1000 : 0"
       inkscape:vp_x="0 : 526.18109 : 1"
       sodipodi:type="inkscape:persp3d" />
    <inkscape:perspective
       id="perspective2525"
       inkscape:persp3d-origin="372.04724 : 350.78739 : 1"
       inkscape:vp_z="744.09448 : 526.18109 : 1"
       inkscape:vp_y="0 : 1000 : 0"
       inkscape:vp_x="0 : 526.18109 : 1"
       sodipodi:type="inkscape:persp3d" />
  </defs>
  <sodipodi:namedview
     id="base"
     pagecolor="#ffffff"
     bordercolor="#666666"
     borderopacity="1.0"
     gridtolerance="10000"
     guidetolerance="10"
     objecttolerance="10"
     inkscape:pageopacity="0.0"
     inkscape:pageshadow="2"
     inkscape:zoom="1.9946667"
     inkscape:cx="375"
     inkscape:cy="150"
     inkscape:document-units="px"
     inkscape:current-layer="layer1"
     showgrid="false"
     inkscape:window-width="1904"
     inkscape:window-height="1150"
     inkscape:window-x="0"
     inkscape:window-y="14"
     showguides="true"
     inkscape:guide-bbox="true" />
  <metadata
     id="metadata7">
    <rdf:RDF>
      <cc:Work
         rdf:about="">
        <dc:format>image/svg+xml</dc:format>
        <dc:type
           rdf:resource="http://purl.org/dc/dcmitype/StillImage" />
      </cc:Work>
    </rdf:RDF>
  </metadata>
  <g
     inkscape:label="Layer 1"
     inkscape:groupmode="layer"
     id="layer1">
    <g
       id="g3474">
      <rect
         y="65.222519"
         x="280.25"
         height="190"
         width="190"
         id="rect3607"
         style="fill:#ffffff;fill-opacity:1;stroke:none;stroke-width:3;stroke-linecap:square;stroke-linejoin:round;stroke-miterlimit:4;stroke-dasharray:none;stroke-opacity:1" />
      <rect
         style="fill:#ffffff;fill-opacity:1;stroke:none;stroke-width:3;stroke-linecap:square;stroke-linejoin:round;stroke-miterlimit:4;stroke-dasharray:none;stroke-opacity:1"
         id="rect3605"
         width="170"
         height="170"
         x="82.25"
         y="65.222519" />
      <rect
         y="65.222519"
         x="498.25"
         height="170"
         width="170"
         id="rect3603"
         style="fill:#ffffff;fill-opacity:1;stroke:none;stroke-width:3;stroke-linecap:square;stroke-linejoin:round;stroke-miterlimit:4;stroke-dasharray:none;stroke-opacity:1" />
      <path
         id="rect3231"
         d="M 493.25,60.222519 L 493.25,240.22252 L 673.25,240.22252 L 673.25,60.222519 L 493.25,60.222519 z M 500.75,67.722519 L 665.75,67.722519 L 665.75,232.72252 L 500.75,232.72252 L 500.75,67.722519 z"
         style="fill:#000000;fill-opacity:1;stroke:none;stroke-width:3;stroke-linecap:round;stroke-linejoin:round;stroke-miterlimit:4;stroke-dasharray:none;stroke-opacity:1" />
      <rect
         style="fill:#000000;fill-opacity:1;stroke:none;stroke-width:3;stroke-linecap:round;stroke-linejoin:round;stroke-miterlimit:4;stroke-dasharray:none;stroke-opacity:1"
         id="rect3257"
         width="160"
         height="160"
         x="503.25"
         y="70.222519" />
      <path
         id="rect3229"
         d="M 275.25,60.222519 L 275.25,260.22252 L 475.25,260.22252 L 475.25,60.222519 L 275.25,60.222519 z M 282.75,67.722519 L 467.75,67.722519 L 467.75,252.72252 L 282.75,252.72252 L 282.75,67.722519 z"
         style="fill:#000000;fill-opacity:1;stroke:none;stroke-width:3;stroke-linecap:round;stroke-linejoin:round;stroke-miterlimit:4;stroke-dasharray:none;stroke-opacity:1" />
      <path
         id="rect3233"
         d="M 77.250001,60.222519 L 77.250001,240.22252 L 257.25,240.22252 L 257.25,60.222519 L 77.250001,60.222519 z M 84.750001,67.722519 L 249.75,67.722519 L 249.75,232.72252 L 84.750001,232.72252 L 84.750001,67.722519 z"
         style="fill:#000000;fill-opacity:1;stroke:none;stroke-width:3;stroke-linecap:round;stroke-linejoin:round;stroke-miterlimit:4;stroke-dasharray:none;stroke-opacity:1" />
      <rect
         y="70.222519"
         x="87.25"
         height="160"
         width="160"
         id="rect3255"
         style="fill:#000000;fill-opacity:1;stroke:none;stroke-width:3;stroke-linecap:round;stroke-linejoin:round;stroke-miterlimit:4;stroke-dasharray:none;stroke-opacity:1" />
      <rect
         y="70.222519"
         x="285.25"
         height="180"
         width="180"
         id="rect3259"
         style="fill:#000000;fill-opacity:1;stroke:none;stroke-width:3;stroke-linecap:round;stroke-linejoin:round;stroke-miterlimit:4;stroke-dasharray:none;stroke-opacity:1" />
      <path
         sodipodi:nodetypes="czc"
         d="M 346.0315,52.097519 C 355.30922,48.817229 365.23015,48.410019 375.00013,48.410019 C 384.7701,48.410019 394.69103,48.817229 403.96875,52.097519 L 405.50794,52.286011 L 398.06746,72.127281 L 347.47222,72.127281 L 346.0315,52.097519 z"
         style="fill:#ffffff;fill-rule:evenodd;stroke:#000000;stroke-width:3;stroke-linecap:butt;stroke-linejoin:miter;stroke-miterlimit:4;stroke-dasharray:none;stroke-opacity:1"
         id="path3427" />
      <path
         transform="translate(-1.0026738,-1.0026738)"
         d="M 309.47582,164.41533 A 6.3004031,10.584678 0 1 1 296.87501,164.41533 A 6.3004031,10.584678 0 1 1 309.47582,164.41533 z"
         sodipodi:ry="10.584678"
         sodipodi:rx="6.3004031"
         sodipodi:cy="164.41533"
         sodipodi:cx="303.17542"
         id="path2692"
         style="opacity:0.95;fill:#ffffff;fill-opacity:1;stroke:#000000;stroke-width:3;stroke-linecap:round;stroke-linejoin:round;stroke-miterlimit:4;stroke-dasharray:none;stroke-opacity:1"
         sodipodi:type="arc" />
      <path
         sodipodi:type="arc"
         style="opacity:0.95;fill:#ffffff;fill-opacity:1;stroke:#000000;stroke-width:3;stroke-linecap:round;stroke-linejoin:round;stroke-miterlimit:4;stroke-dasharray:none;stroke-opacity:1"
         id="path3466"
         sodipodi:cx="303.17542"
         sodipodi:cy="164.41533"
         sodipodi:rx="6.3004031"
         sodipodi:ry="10.584678"
         d="M 309.47582,164.41533 A 6.3004031,10.584678 0 1 1 296.87501,164.41533 A 6.3004031,10.584678 0 1 1 309.47582,164.41533 z"
         transform="matrix(-1,0,0,1,751.00267,-1.0026738)" />
      <path
         id="path3612"
         d="M 293.0625,41.285019 C 291.33569,41.266573 289.55525,41.283887 287.75,41.316269 C 285.88651,41.349696 283.98074,41.412758 282.03125,41.503769 C 238.89982,43.517349 217.33555,68.022976 191.0625,82.535019 L 190.28125,82.535019 C 190.28125,82.535019 190.2688,82.763981 190.03125,83.097519 C 188.7052,83.813129 187.35478,84.501136 186,85.160019 C 182.84188,86.034897 177.34647,86.828952 167.75,86.972519 C 144.32327,87.322989 90.885707,57.498509 67.593751,57.410019 C 43.860561,57.319852 15.77536,80.184247 24.812501,83.441269 C 33.998681,86.752009 39.039414,68.288689 68.031251,67.972519 C 96.581911,67.661162 136.41906,112.44126 177.03125,112.53502 C 199.44943,112.58677 215.41711,103.48867 229.90625,94.753769 C 230.81756,94.204238 231.72412,93.672756 232.625,93.128769 C 243.07732,86.817232 252.90619,81.021724 263.96875,79.472519 C 268.22416,78.876591 271.95278,78.557936 275.25,78.503769 C 293.055,78.211266 297.59994,85.107554 296.59375,91.378769 C 296.49221,92.01163 296.36454,92.591917 296.21875,93.128769 C 296.12544,93.47238 296.01459,93.787893 295.90625,94.097519 C 295.88507,94.15771 295.86545,94.226013 295.84375,94.285019 C 295.77143,94.482384 295.70263,94.693984 295.625,94.878769 C 295.60171,94.933713 295.55497,94.981117 295.53125,95.035019 C 295.42697,95.271969 295.33041,95.504112 295.21875,95.722519 C 294.97222,96.206211 294.70863,96.653738 294.4375,97.066269 C 294.12679,97.539031 293.82004,97.991044 293.5,98.410019 C 293.47384,98.444328 293.43238,98.469661 293.40625,98.503769 C 293.18112,98.796964 292.96835,99.092564 292.75,99.378769 C 292.55761,99.63219 292.36801,99.901059 292.1875,100.16002 C 292.13601,100.23347 292.08149,100.30434 292.03125,100.37877 C 291.81717,100.69769 291.59062,101.03089 291.40625,101.37877 C 290.60798,102.88502 290.14725,104.7341 290.4375,107.69127 C 291.24397,115.90766 301.46874,119.59752 301.46875,119.59752 C 301.46875,119.59752 310.51048,140.77835 308.96875,141.72252 C 307.42703,142.66669 303.5025,145.66116 303.3125,152.16002 C 303.18982,156.35655 305.78875,160.69512 308.28125,165.25377 C 310.77376,169.81242 313.52813,175.81008 312.0625,185.06627 C 310.59688,194.32246 306.65877,205.72827 303.3125,210.87877 C 305.87578,219.09602 316.33654,219.49414 321.375,227.44127 C 326.27809,235.17486 322.47355,238.87568 330.6875,245.78502 C 337.28326,251.33319 364.4377,253.19127 375,253.19127 C 385.5623,253.19127 412.71674,251.33319 419.3125,245.78502 C 427.52646,238.87568 423.72191,235.17486 428.625,227.44127 C 433.66347,219.49414 444.12422,219.09602 446.6875,210.87877 C 443.34124,205.72827 439.40312,194.32246 437.9375,185.06627 C 436.47188,175.81008 439.22624,169.81242 441.71875,165.25377 C 444.21126,160.69512 446.81018,156.35655 446.6875,152.16002 C 446.49751,145.66116 442.57297,142.66669 441.03125,141.72252 C 439.48953,140.77835 448.53124,119.59752 448.53125,119.59752 C 448.53125,119.59752 458.75603,115.90766 459.5625,107.69127 C 459.76385,105.63985 459.60487,104.12322 459.21875,102.87877 C 459.13294,102.6055 459.04318,102.34641 458.9375,102.09752 C 458.84966,101.88814 458.75616,101.69924 458.65625,101.50377 C 458.45929,101.12095 458.23284,100.75738 458,100.41002 C 457.97472,100.3721 457.96312,100.32266 457.9375,100.28502 C 457.84212,100.14558 457.72443,100.01551 457.625,99.878769 C 457.45356,99.642162 457.27376,99.39462 457.09375,99.160019 C 456.92806,98.944439 456.76271,98.724373 456.59375,98.503769 C 456.25777,98.06508 455.92123,97.623869 455.59375,97.128769 C 455.57278,97.097085 455.55212,97.06704 455.53125,97.035019 C 454.89254,96.054369 454.31188,94.895727 453.875,93.410019 C 453.84626,93.312856 453.80864,93.228935 453.78125,93.128769 C 453.63294,92.585741 453.50908,92.019657 453.40625,91.378769 C 452.43734,85.339819 456.60241,78.723781 472.8125,78.503769 C 476.55329,78.452997 480.92476,78.757406 486.03125,79.472519 C 497.08308,81.02022 506.93345,86.826083 517.375,93.128769 C 519.56666,94.453013 521.79724,95.793961 524.0625,97.128769 C 537.52258,105.06014 552.58279,112.58209 572.96875,112.53502 C 613.58095,112.44126 653.41812,67.661164 681.96875,67.972519 C 710.96059,68.288687 716.0013,86.75201 725.1875,83.441269 C 734.22464,80.184246 706.13941,57.319851 682.40625,57.410019 C 659.11429,57.49851 605.67673,87.322987 582.25,86.972519 C 572.65354,86.828953 567.15812,86.034897 564,85.160019 C 562.64522,84.501136 561.2948,83.813129 559.96875,83.097519 C 559.7312,82.763982 559.71876,82.535018 559.71875,82.535019 L 558.9375,82.535019 C 532.66445,68.022976 511.10019,43.517349 467.96875,41.503769 C 405.58519,38.591408 387.84286,66.062705 375,66.660019 C 362.94728,66.099453 346.59354,41.856846 293.0625,41.285019 z"
         style="fill:#ffffff;fill-rule:evenodd;stroke:#000000;stroke-width:3;stroke-linecap:butt;stroke-linejoin:miter;stroke-miterlimit:4;stroke-dasharray:none;stroke-opacity:1" />
      <path
         sodipodi:nodetypes="cc"
         id="path3465"
         d="M 446.9111,150.79316 C 452.62093,152.38961 454.3612,161.66629 452.13192,164.64345"
         style="fill:none;fill-rule:evenodd;stroke:#000000;stroke-width:3;stroke-linecap:butt;stroke-linejoin:miter;stroke-miterlimit:4;stroke-dasharray:none;stroke-opacity:1" />
      <path
         sodipodi:nodetypes="cscsc"
         d="M 151.88067,93.136292 C 202.61929,93.670456 220.12283,44.40291 282.04416,41.512129 C 344.42772,38.599768 362.15727,66.065047 375.00013,66.662362 C 387.84298,66.065047 405.57253,38.599768 467.95609,41.512129 C 529.87742,44.40291 547.38096,93.670456 598.11958,93.136292"
         style="fill:none;fill-rule:evenodd;stroke:#000000;stroke-width:3;stroke-linecap:round;stroke-linejoin:round;stroke-miterlimit:4;stroke-dasharray:none;stroke-opacity:1"
         id="path2653" />
      <path
         sodipodi:nodetypes="cczcc"
         d="M 335.219,212.69127 C 335.219,212.69128 339.0848,218.79928 346.06275,220.81627 C 353.74505,218.52481 366.41625,217.41002 375.00013,217.41002 C 383.584,217.41002 396.2552,218.52481 403.9375,220.81627 C 410.91545,218.79928 414.78125,212.69128 414.78125,212.69127"
         style="fill:none;fill-rule:evenodd;stroke:#000000;stroke-width:3;stroke-linecap:round;stroke-linejoin:round;stroke-miterlimit:4;stroke-dasharray:none;stroke-opacity:1"
         id="path3443" />
      <path
         style="fill:none;fill-rule:evenodd;stroke:#000000;stroke-width:3;stroke-linecap:butt;stroke-linejoin:miter;stroke-miterlimit:4;stroke-dasharray:none;stroke-opacity:1"
         d="M 303.08915,150.79316 C 297.37932,152.38961 295.63905,161.66629 297.86833,164.64345"
         id="path3530"
         sodipodi:nodetypes="cc" />
      <path
         sodipodi:nodetypes="cccssssssssccssssssssccc"
         d="M 366.3195,101.5197 C 366.3195,101.5197 325.98108,83.641448 302.78206,99.754775 C 306.93943,114.54441 298.60658,123.00493 293.38604,125.78747 C 291.66781,138.90035 301.38848,142.45775 309.78993,141.64645 C 318.2449,140.82998 322.43975,147.00965 322.40258,152.67725 C 322.36542,158.34485 316.27142,162.3316 310.72424,164.6159 C 305.17706,166.9002 293.25394,163.96012 288.63617,166.06976 C 283.98,168.19695 278.85997,170.12653 278.7989,176.08794 C 278.7373,182.10194 282.27107,182.33361 284.69155,184.91259 C 287.11203,187.49157 285.45697,196.4085 294.13942,195.81431 C 302.84081,195.21883 299.66814,190.19428 304.90991,187.37797 C 310.15169,184.56167 329.69723,181.82395 329.69723,181.82395 C 329.69723,181.82395 420.30302,181.82395 420.30302,181.82395 C 420.30302,181.82395 439.84856,184.56167 445.09034,187.37797 C 450.33211,190.19428 447.15944,195.21883 455.86083,195.81431 C 464.54328,196.4085 462.88822,187.49157 465.3087,184.91259 C 467.72918,182.33361 471.26295,182.10194 471.20135,176.08794 C 471.14028,170.12653 466.02025,168.19695 461.36408,166.06976 C 456.74631,163.96012 444.82319,166.9002 439.27601,164.6159 C 433.72883,162.3316 427.63483,158.34485 427.59767,152.67725 C 427.5605,147.00965 431.75535,140.82998 440.21032,141.64645 C 448.61177,142.45775 458.33244,138.90035 456.61421,125.78747 C 451.39367,123.00493 443.06082,114.54441 447.21819,99.754775 C 424.01917,83.641448 383.68075,101.5197 383.68075,101.5197"
         style="fill:#ffffff;fill-rule:evenodd;stroke:#000000;stroke-width:3;stroke-linecap:round;stroke-linejoin:round;stroke-miterlimit:4;stroke-dasharray:none;stroke-opacity:1"
         id="path3429" />
      <path
         style="fill:#000000;fill-rule:evenodd;stroke:none;stroke-width:1px;stroke-linecap:butt;stroke-linejoin:miter;stroke-opacity:1"
         d="M 367.7227,145.24924 C 371.26121,144.638 369.79841,159.14962 366.21748,161.50573 C 362.63655,163.86183 354.37621,162.80841 354.77772,159.09735 C 355.18142,155.36604 358.72923,154.22446 361.21052,151.34193 C 363.6918,148.45941 364.18419,145.86048 367.7227,145.24924 z"
         id="path3518"
         sodipodi:nodetypes="cczsz" />
      <path
         style="fill:#000000;fill-rule:evenodd;stroke:none;stroke-width:1px;stroke-linecap:butt;stroke-linejoin:miter;stroke-opacity:1"
         d="M 369.52899,122.36974 C 370.64479,117.64725 368.26587,113.61923 362.30387,109.72579 C 355.85066,105.51158 335.30101,106.62502 328.28566,110.32789 C 321.39855,113.96308 315.81184,118.44891 315.03964,125.07916 C 314.27069,131.6815 332.44078,141.15686 343.33796,141.0346 C 353.93413,140.91571 368.48043,126.80761 369.52899,122.36974 z"
         id="path3520"
         sodipodi:nodetypes="czzzzz" />
      <path
         sodipodi:nodetypes="cscsccssscscscscscsssccscsc"
         d="M 375.00013,178.87877 C 372.86529,177.7358 369.25157,175.9973 366.93775,176.00377 C 363.55536,176.01321 360.15443,177.71819 358.094,178.97252 C 357.18502,177.62089 354.71171,175.54817 351.7815,175.53502 C 348.85219,175.52187 346.73148,176.52531 345.1565,178.06627 C 343.56633,176.72695 340.16706,173.98031 336.844,174.03502 C 336.62246,174.03867 336.4081,174.06783 336.18775,174.09752 C 332.60268,174.5805 329.99024,177.37373 329.969,182.09752 C 329.94749,186.88192 332.69234,192.59121 335.81275,195.81627 C 338.93317,199.04134 345.19049,202.74645 348.4065,203.41002 C 351.07709,205.34625 351.88666,206.65271 354.00025,207.56627 C 356.11383,208.47983 358.87449,208.7475 360.9065,208.03502 C 362.8173,209.50426 366.0017,210.97576 368.68775,211.03502 C 371.43438,211.09562 374.93775,209.06627 375.00013,209.06627 C 375.0625,209.06627 378.56587,211.09562 381.3125,211.03502 C 383.99855,210.97576 387.18295,209.50426 389.09375,208.03502 C 391.12576,208.7475 393.88642,208.47983 396,207.56627 C 398.11359,206.65271 398.92316,205.34625 401.59375,203.41002 C 404.80976,202.74645 411.06708,199.04134 414.1875,195.81627 C 417.30791,192.59121 420.05276,186.88192 420.03125,182.09752 C 420.01001,177.37373 417.39757,174.5805 413.8125,174.09752 C 413.59215,174.06783 413.37779,174.03867 413.15625,174.03502 C 409.83319,173.98031 406.43392,176.72695 404.84375,178.06627 C 403.26877,176.52531 401.14806,175.52187 398.21875,175.53502 C 395.28854,175.54817 392.81523,177.62089 391.90625,178.97252 C 389.84582,177.71819 386.44489,176.01321 383.0625,176.00377 C 380.74868,175.9973 377.13497,177.7358 375.00013,178.87877 z"
         style="fill:#ffffff;fill-rule:evenodd;stroke:#000000;stroke-width:3;stroke-linecap:butt;stroke-linejoin:round;stroke-miterlimit:4;stroke-dasharray:none;stroke-opacity:1"
         id="path3449" />
      <path
         style="fill:none;fill-rule:evenodd;stroke:#000000;stroke-width:3;stroke-linecap:butt;stroke-linejoin:miter;stroke-miterlimit:4;stroke-dasharray:none;stroke-opacity:1"
         d="M 345.34365,177.86465 C 342.79831,179.84437 343.59703,188.18281 344.19219,192.34887 C 344.80832,196.66182 346.1719,200.67174 349.40408,204.10593"
         id="path3524"
         sodipodi:nodetypes="czz" />
      <path
         style="fill:none;fill-rule:evenodd;stroke:#000000;stroke-width:3;stroke-linecap:butt;stroke-linejoin:miter;stroke-miterlimit:4;stroke-dasharray:none;stroke-opacity:1"
         d="M 357.88855,178.95552 C 357.82795,184.51083 357.68654,189.3793 358.13097,194.22758 C 358.57539,199.07585 359.90867,203.17668 360.85812,208.10576"
         id="path3526"
         sodipodi:nodetypes="czz" />
      <path
         sodipodi:nodetypes="cscsc"
         d="M 344.37399,192.10646 C 350.05051,193.72255 355.32301,194.6922 360.4339,195.01542 C 365.54133,195.33842 370.85769,195.25784 375.00013,195.25784 C 379.14256,195.25784 384.45892,195.33842 389.56635,195.01542 C 394.67724,194.6922 399.94974,193.72255 405.62626,192.10646"
         style="fill:none;fill-rule:evenodd;stroke:#000000;stroke-width:3;stroke-linecap:butt;stroke-linejoin:miter;stroke-miterlimit:4;stroke-dasharray:none;stroke-opacity:1"
         id="path3455" />
      <path
         sodipodi:nodetypes="cc"
         id="path3565"
         d="M 375,179.00956 L 375,208.47533"
         style="fill:none;fill-rule:evenodd;stroke:#000000;stroke-width:2.9417851;stroke-linecap:butt;stroke-linejoin:miter;stroke-miterlimit:4;stroke-dasharray:none;stroke-opacity:1" />
      <path
         sodipodi:nodetypes="czz"
         id="path3451"
         d="M 404.6566,177.86465 C 407.20194,179.84437 406.40322,188.18281 405.80806,192.34887 C 405.19193,196.66182 403.82835,200.67174 400.59617,204.10593"
         style="fill:none;fill-rule:evenodd;stroke:#000000;stroke-width:3;stroke-linecap:butt;stroke-linejoin:miter;stroke-miterlimit:4;stroke-dasharray:none;stroke-opacity:1" />
      <path
         sodipodi:nodetypes="czz"
         id="path3453"
         d="M 392.1117,178.95552 C 392.1723,184.51083 392.31371,189.3793 391.86928,194.22758 C 391.42486,199.07585 390.09158,203.17668 389.14213,208.10576"
         style="fill:none;fill-rule:evenodd;stroke:#000000;stroke-width:3;stroke-linecap:butt;stroke-linejoin:miter;stroke-miterlimit:4;stroke-dasharray:none;stroke-opacity:1" />
      <path
         sodipodi:nodetypes="cczsz"
         id="path3445"
         d="M 382.27755,145.24924 C 378.73904,144.638 380.20184,159.14962 383.78277,161.50573 C 387.3637,163.86183 395.62404,162.80841 395.22253,159.09735 C 394.81883,155.36604 391.27102,154.22446 388.78973,151.34193 C 386.30845,148.45941 385.81606,145.86048 382.27755,145.24924 z"
         style="fill:#000000;fill-rule:evenodd;stroke:none;stroke-width:1px;stroke-linecap:butt;stroke-linejoin:miter;stroke-opacity:1" />
      <path
         sodipodi:nodetypes="czzzzz"
         id="path3447"
         d="M 380.47126,122.36974 C 379.35546,117.64725 381.73438,113.61923 387.69638,109.72579 C 394.14959,105.51158 414.69924,106.62502 421.71459,110.32789 C 428.6017,113.96308 434.18841,118.44891 434.96061,125.07916 C 435.72956,131.6815 417.55947,141.15686 406.66229,141.0346 C 396.06612,140.91571 381.51982,126.80761 380.47126,122.36974 z"
         style="fill:#000000;fill-rule:evenodd;stroke:none;stroke-width:1px;stroke-linecap:butt;stroke-linejoin:miter;stroke-opacity:1" />
      <path
         id="path3281"
         d="M 620.62713,238.92995 C 620.68093,229.07242 620.05145,219.52913 622.21875,210.16002 C 626.76172,203.61911 634.37621,200.56879 639.59375,182.66002 C 644.83072,164.68462 637.86598,160.2207 638.25,155.97252 C 638.63402,151.72434 640.07893,152.21303 640.625,148.25377 C 641.17407,144.2725 637.43817,135.02343 636.46875,130.66002 C 635.49934,126.29661 636.67644,118.73334 632.90625,119.78502 C 629.3199,120.78542 632.51335,129.54995 623.03125,126.09752 C 613.61112,122.66765 617.98082,111.06362 613.34375,109.50377 C 608.88397,108.00355 610.32601,119.88842 599.28125,118.19127 C 588.20509,116.4893 593.86378,101.12033 588.8125,100.78502 C 583.75197,100.44909 589.41677,110.99776 574.75,110.66002 C 560.08914,110.3224 566.29916,95.065245 561.71875,95.253769 C 557.12594,95.442807 558.50689,101.39778 556.375,105.28502 C 554.24314,109.17225 551.39044,110.40809 548.25,113.25377 C 545.10953,116.09945 540.82505,123.00478 540.75,129.25377 C 540.6749,135.50826 544.06016,139.52877 544.25,141.66002 C 541.04476,144.27532 533.9144,144.9133 532.625,150.22252 C 532.09199,152.79234 533.10482,154.334 533.59375,156.22252 C 530.52287,158.50658 523.66071,164.70689 522.75,169.00377 C 521.82993,173.34491 524.8104,173.09875 525.90625,174.34752 C 525.61771,176.1896 523.92034,178.51456 524.9375,184.03502 C 543.84491,184.01042 544.15796,207.23428 560.53125,213.12877 C 562.13764,221.26703 562.13438,229.57035 561.75,238.99458"
         style="fill:#000000;fill-rule:evenodd;stroke:#ffffff;stroke-width:3;stroke-linecap:butt;stroke-linejoin:round;stroke-miterlimit:4;stroke-dasharray:none;stroke-opacity:1"
         sodipodi:nodetypes="ccsssssssssscssscccscccc" />
      <path
         sodipodi:nodetypes="cccc"
         id="path3283"
         d="M 535.80406,159.52378 C 532.29642,162.04149 528.6776,165.88023 528.2889,171.19205 C 531.1623,177.69905 545.79181,175.15358 548.46117,171.78535 C 544.73355,169.5278 538.26881,163.99622 535.80406,159.52378 z"
         style="fill:#ffffff;fill-rule:evenodd;stroke:none;stroke-width:1px;stroke-linecap:butt;stroke-linejoin:miter;stroke-opacity:1" />
      <path
         sodipodi:nodetypes="cccc"
         id="path3285"
         d="M 552.3481,169.41215 C 545.417,167.60618 537.72312,158.25228 539.16611,151.61308 C 542.33554,146.42995 553.62373,144.27976 558.54731,146.47113 C 550.41824,149.63213 550.21598,161.10998 552.3481,169.41215 z"
         style="fill:#ffffff;fill-rule:evenodd;stroke:#ffffff;stroke-width:1px;stroke-linecap:butt;stroke-linejoin:round;stroke-opacity:1" />
      <path
         sodipodi:nodetypes="ccccc"
         id="path3287"
         d="M 552.614,142.42828 C 558.94736,143.0955 561.96119,144.14601 565.40294,146.71964 L 565.669,136.38499 C 563.07979,132.35646 556.90888,128.43935 552.614,130.05644 L 552.614,142.42828 z"
         style="fill:#ffffff;fill-rule:evenodd;stroke:none;stroke-width:1px;stroke-linecap:butt;stroke-linejoin:miter;stroke-opacity:1" />
      <path
         sodipodi:nodetypes="cccc"
         id="path3289"
         d="M 549.62106,128.14718 C 553.21517,124.83745 564.14884,128.37093 567.84238,135.5255 C 575.61311,116.58228 567.64603,110.24019 560.52498,108.89533 L 549.62106,128.14718 z"
         style="fill:#ffffff;fill-rule:evenodd;stroke:none;stroke-width:1px;stroke-linecap:butt;stroke-linejoin:miter;stroke-opacity:1" />
      <path
         sodipodi:nodetypes="cccc"
         id="path3291"
         d="M 576.34637,132.8323 L 582.47716,114.43282 C 589.61943,116.69614 598.57962,123.55374 594.34321,138.56043 C 587.73358,133.79039 582.45275,132.25755 576.34637,132.8323 z"
         style="fill:#ffffff;fill-rule:evenodd;stroke:none;stroke-width:1px;stroke-linecap:butt;stroke-linejoin:miter;stroke-opacity:1" />
      <path
         sodipodi:nodetypes="ccccc"
         id="path3293"
         d="M 579.906,135.61859 L 579.906,148.33663 C 583.37959,149.79109 590.23369,148.45736 591.871,146.52721 L 591.871,140.14067 C 589.44065,137.7916 583.32235,134.35185 579.906,135.61859 z"
         style="fill:#ffffff;fill-rule:evenodd;stroke:none;stroke-width:1px;stroke-linecap:butt;stroke-linejoin:miter;stroke-opacity:1" />
      <path
         sodipodi:nodetypes="cccc"
         id="path3295"
         d="M 583.66377,151.01978 C 583.30323,153.99423 583.91891,157.61118 584.85037,159.32601 C 587.36397,159.85424 590.73792,154.15581 589.65772,150.09937 C 588.18198,150.78934 585.4696,150.84828 583.66377,151.01978 z"
         style="fill:#ffffff;fill-rule:evenodd;stroke:none;stroke-width:1px;stroke-linecap:butt;stroke-linejoin:miter;stroke-opacity:1" />
      <path
         sodipodi:nodetypes="cccc"
         id="path3297"
         d="M 600.86953,136.58276 L 606.60479,121.75021 C 612.60302,121.64201 620.57772,132.35012 616.49316,144.29569 C 612.40859,140.13652 609.63981,138.46411 600.86953,136.58276 z"
         style="fill:#ffffff;fill-rule:evenodd;stroke:none;stroke-width:1px;stroke-linecap:butt;stroke-linejoin:miter;stroke-opacity:1" />
      <path
         sodipodi:nodetypes="ccccc"
         id="path3299"
         d="M 601.85837,150.45306 L 605.03015,139.54928 C 608.09614,140.05306 611.83597,141.85872 614.11994,145.28453 C 615.13464,147.94878 612.87901,152.74238 610.25019,153.9007 C 608.77846,151.67038 605.71171,149.84086 601.85837,150.45306 z"
         style="fill:#ffffff;fill-rule:evenodd;stroke:none;stroke-width:1px;stroke-linecap:butt;stroke-linejoin:miter;stroke-opacity:1" />
      <path
         sodipodi:nodetypes="cccc"
         id="path3301"
         d="M 599.26068,161.16684 C 601.3707,159.18739 602.63007,156.01999 604.42934,152.40415 C 607.01968,152.15036 608.58307,154.26033 608.18692,156.75503 C 607.79077,159.24973 603.08368,165.12395 599.26068,161.16684 z"
         style="fill:#ffffff;fill-rule:evenodd;stroke:none;stroke-width:1px;stroke-linecap:butt;stroke-linejoin:miter;stroke-opacity:1" />
      <path
         sodipodi:nodetypes="cccc"
         id="path3303"
         d="M 629.34804,130.39105 L 624.30872,143.7366 C 628.12222,145.28333 630.16602,146.27107 633.08882,151.72031 C 639.37367,145.50127 634.46277,132.59635 629.34804,130.39105 z"
         style="fill:#ffffff;fill-rule:evenodd;stroke:none;stroke-width:1px;stroke-linecap:butt;stroke-linejoin:miter;stroke-opacity:1" />
      <path
         sodipodi:nodetypes="cccc"
         id="path3305"
         d="M 620.71469,154.64052 C 623.65127,155.30951 625.94784,158.03025 627.56812,161.89699 C 632.34519,158.34371 631.85307,150.54911 626.77706,147.2622 C 624.17688,150.11356 622.56624,151.83031 620.71469,154.64052 z"
         style="fill:#ffffff;fill-rule:evenodd;stroke:none;stroke-width:1px;stroke-linecap:butt;stroke-linejoin:miter;stroke-opacity:1" />
      <path
         sodipodi:nodetypes="cccc"
         id="path3307"
         d="M 614.09323,163.65018 C 617.0457,161.77501 619.60393,159.45201 621.23957,157.74388 C 623.46852,158.01341 625.16853,159.72285 624.20608,162.09476 C 623.24363,164.46666 616.91023,167.02408 614.09323,163.65018 z"
         style="fill:#ffffff;fill-rule:evenodd;stroke:none;stroke-width:1px;stroke-linecap:butt;stroke-linejoin:miter;stroke-opacity:1" />
      <path
         sodipodi:nodetypes="czzzzc"
         id="path3309"
         d="M 599.22646,202.24154 C 604.1478,208.09385 608.3359,209.55478 613.32887,209.16339 C 618.51844,208.7566 626.11924,201.33949 630.93017,193.93531 C 635.68325,186.62017 641.94252,164.57728 634.68775,164.66573 C 627.63072,164.75177 631.87237,173.78091 623.95488,184.7963 C 616.13083,195.68169 605.3801,201.53117 599.22646,202.24154 z"
         style="fill:#ffffff;fill-rule:evenodd;stroke:none;stroke-width:1px;stroke-linecap:butt;stroke-linejoin:miter;stroke-opacity:1" />
      <path
         transform="matrix(1.0112891,0,0,0.9193537,-6.7113178,25.835733)"
         d="M 620.59401,191.4257 A 1.9776738,2.1754413 0 1 1 616.63866,191.4257 A 1.9776738,2.1754413 0 1 1 620.59401,191.4257 z"
         sodipodi:ry="2.1754413"
         sodipodi:rx="1.9776738"
         sodipodi:cy="191.4257"
         sodipodi:cx="618.61633"
         id="path3311"
         style="fill:#000000;fill-opacity:1;stroke:none;stroke-width:3;stroke-linecap:round;stroke-linejoin:round;stroke-miterlimit:4;stroke-dasharray:none;stroke-opacity:1"
         sodipodi:type="arc" />
      <path
         sodipodi:type="arc"
         style="fill:#000000;fill-opacity:1;stroke:none;stroke-width:3;stroke-linecap:round;stroke-linejoin:round;stroke-miterlimit:4;stroke-dasharray:none;stroke-opacity:1"
         id="path3313"
         sodipodi:cx="618.61633"
         sodipodi:cy="191.4257"
         sodipodi:rx="1.9776738"
         sodipodi:ry="2.1754413"
         d="M 620.59401,191.4257 A 1.9776738,2.1754413 0 1 1 616.63866,191.4257 A 1.9776738,2.1754413 0 1 1 620.59401,191.4257 z"
         transform="matrix(1.0112891,0,0,0.9193537,-6.7115444,25.835733)" />
      <path
         transform="matrix(1.0112891,0,0,0.9193537,-1.140574,20.177035)"
         d="M 620.59401,191.4257 A 1.9776738,2.1754413 0 1 1 616.63866,191.4257 A 1.9776738,2.1754413 0 1 1 620.59401,191.4257 z"
         sodipodi:ry="2.1754413"
         sodipodi:rx="1.9776738"
         sodipodi:cy="191.4257"
         sodipodi:cx="618.61633"
         id="path3315"
         style="fill:#000000;fill-opacity:1;stroke:none;stroke-width:3;stroke-linecap:round;stroke-linejoin:round;stroke-miterlimit:4;stroke-dasharray:none;stroke-opacity:1"
         sodipodi:type="arc" />
      <path
         sodipodi:type="arc"
         style="fill:#000000;fill-opacity:1;stroke:none;stroke-width:3;stroke-linecap:round;stroke-linejoin:round;stroke-miterlimit:4;stroke-dasharray:none;stroke-opacity:1"
         id="path3317"
         sodipodi:cx="618.61633"
         sodipodi:cy="191.4257"
         sodipodi:rx="1.9776738"
         sodipodi:ry="2.1754413"
         d="M 620.59401,191.4257 A 1.9776738,2.1754413 0 1 1 616.63866,191.4257 A 1.9776738,2.1754413 0 1 1 620.59401,191.4257 z"
         transform="matrix(1.0112891,0,0,0.9193537,3.2438032,13.72727)" />
      <path
         sodipodi:nodetypes="cccc"
         id="path3319"
         d="M 554.49683,198.98212 C 556.67776,207.0597 561.12576,209.54453 565.46917,210.54777 C 570.01034,210.75994 574.50337,210.06127 578.153,205.9724 C 567.8905,205.29903 564.18193,204.48206 554.49683,198.98212 z"
         style="fill:#ffffff;fill-rule:evenodd;stroke:none;stroke-width:1px;stroke-linecap:butt;stroke-linejoin:miter;stroke-opacity:1" />
      <path
         sodipodi:nodetypes="cccc"
         id="path3321"
         d="M 589.631,175.37937 C 593.15587,180.71884 594.03064,185.11 593.74991,190.77103 C 595.54948,186.20908 598.12054,180.41703 602.05613,177.91614 C 598.2788,178.57954 594.31722,178.21679 589.631,175.37937 z"
         style="fill:#ffffff;fill-rule:evenodd;stroke:none;stroke-width:1px;stroke-linecap:butt;stroke-linejoin:miter;stroke-opacity:1" />
      <path
         sodipodi:nodetypes="cccc"
         id="path3323"
         d="M 556.86534,173.85053 C 556.44714,176.25415 556.48011,177.32707 556.4698,179.38089 C 558.58137,179.42981 565.06641,178.33241 566.75371,176.42151 C 564.09012,176.09275 559.26871,175.17777 556.86534,173.85053 z"
         style="fill:#ffffff;fill-rule:evenodd;stroke:none;stroke-width:1px;stroke-linecap:butt;stroke-linejoin:miter;stroke-opacity:1" />
      <path
         sodipodi:nodetypes="czzzczcczz"
         id="path3325"
         d="M 563.09596,148.58565 C 559.15017,147.99213 555.35826,154.53531 555.38303,158.53494 C 555.4078,162.53456 559.40324,168.08049 564.87586,168.22554 C 570.15086,168.36535 572.4253,169.66351 573.08695,171.78536 C 573.74861,173.9072 571.28848,174.1277 570.65283,176.39493 C 575.15913,176.88226 580.53862,175.49796 583.26823,172.7742 C 585.99785,170.05043 587.7352,165.42954 587.05253,161.37211 C 581.66553,162.44399 579.69439,163.33422 577.13744,155.70527 C 573.9872,157.96469 569.3911,157.41003 567.05131,155.96396 C 564.71152,154.51789 566.84825,149.15006 563.09596,148.58565 z"
         style="fill:#ffffff;fill-rule:evenodd;stroke:none;stroke-width:1px;stroke-linecap:butt;stroke-linejoin:miter;stroke-opacity:1" />
      <path
         sodipodi:nodetypes="cssccscscsccssscccccccssssssccccsssccscscsccssscccsccccscc"
         id="path3438"
         d="M 166.53125,96.378769 C 165.37191,96.462158 164.28186,97.001224 163.5,97.878769 C 158.89068,103.05228 154.07837,113.08141 149.53125,123.59752 C 147.33903,128.66745 145.37261,133.5423 143.78125,137.97252 C 140.71839,130.63282 136.26896,123.6349 130.96875,118.25377 C 129.56288,116.85849 127.39814,116.56085 125.65625,117.50377 C 123.91437,118.44669 123.00666,120.40752 123.40625,122.34752 C 125.07294,130.08064 124.60005,137.84295 123.03125,143.94127 C 121.46245,150.03959 118.39411,154.33158 117.03125,155.19127 C 115.4051,156.19661 114.58452,158.10639 115,159.97252 C 115.41548,161.83866 116.97593,163.25204 118.875,163.47252 C 120.39435,163.66652 121.85819,163.72166 123.28125,163.72252 C 121.95522,165.8582 120.48512,168.15218 118.65625,170.34752 C 114.21736,175.67587 108.70664,180.71623 105.78125,182.50377 C 104.6331,183.20348 103.84386,184.39112 103.65625,185.72252 C 103.46865,187.05392 103.90241,188.38903 104.8125,189.37877 L 125.9375,212.31627 C 126.7864,213.24932 127.98857,213.78236 129.25,213.78502 L 163.0625,213.78502 L 163.0625,238.22252 L 183.0625,238.22252 L 183.0625,217.66002 C 183.47004,217.55024 183.84192,217.43506 184,217.37877 C 184.49307,217.2032 185.00682,216.95105 185.5,216.66002 C 186.02527,216.35005 186.46749,215.9843 186.84375,215.62877 C 187.29363,215.20365 187.61958,214.81361 187.875,214.44127 C 187.6425,214.78018 187.72937,214.69711 188.0625,214.16002 C 188.06254,214.14949 188.06254,214.1393 188.0625,214.12877 C 188.14856,213.98584 188.19114,213.90035 188.25,213.78502 L 204.4375,213.78502 C 205.69893,213.78236 206.9011,213.24932 207.75,212.31627 L 228.90625,189.37877 C 229.81634,188.38903 230.2501,187.05393 230.0625,185.72252 C 229.87488,184.39111 229.08565,183.20348 227.9375,182.50377 C 225.01211,180.71623 219.50139,175.67587 215.0625,170.34752 C 213.23363,168.15218 211.76352,165.8582 210.4375,163.72252 C 211.86056,163.72166 213.3244,163.66652 214.84375,163.47252 C 216.74282,163.25204 218.30327,161.83866 218.71875,159.97252 C 219.13423,158.10639 218.31365,156.19661 216.6875,155.19127 C 215.32463,154.33157 212.2563,150.03959 210.6875,143.94127 C 209.1187,137.84295 208.64581,130.08064 210.3125,122.34752 C 210.71209,120.40752 209.80438,118.44669 208.0625,117.50377 C 206.32061,116.56085 204.15587,116.85849 202.75,118.25377 C 197.44979,123.6349 193.00036,130.63282 189.9375,137.97252 C 188.34305,133.54222 186.35233,128.66752 184.15625,123.59752 C 179.60123,113.08154 174.79462,103.04981 170.1875,97.878769 C 169.38106,96.973176 168.24269,96.432169 167.03125,96.378769 C 166.86348,96.372116 166.69687,96.366856 166.53125,96.378769 z M 155.40625,147.53502 C 154.23443,156.63587 151.18288,164.22057 147.09375,170.09752 C 147.81752,166.29626 148.28973,162.36781 148.28125,158.12877 C 148.27847,156.73978 148.15397,155.29402 148,153.84752 C 150.64018,151.88516 153.08048,149.7406 155.40625,147.53502 z M 178.3125,147.53502 C 180.63827,149.7406 183.07858,151.88516 185.71875,153.84752 C 185.56478,155.29402 185.44028,156.73978 185.4375,158.12877 C 185.42902,162.36781 185.90123,166.29626 186.625,170.09752 C 182.53587,164.22057 179.48432,156.63587 178.3125,147.53502 z"
         style="fill:#ffffff;fill-rule:evenodd;stroke:none;stroke-width:3;stroke-linecap:butt;stroke-linejoin:round;stroke-miterlimit:4;stroke-opacity:1" />
      <path
         sodipodi:nodetypes="cccccscccccccsccccc"
         id="path3330"
         d="M 204.4375,209.28502 L 225.59375,186.34752 C 217.96425,181.68557 203.61647,165.62281 202.53125,157.50377 C 205.71805,159.21039 209.37201,159.63061 214.28125,159.00377 C 207.86964,154.95932 202.27878,138.38581 205.9375,121.41002 C 196.78016,130.70716 189.9604,146.68161 189.9375,158.12877 C 189.91461,169.5735 192.53421,178.79314 198.25,186.34752 C 184.7417,179.80425 172.06341,161.98178 173.28125,136.34752 C 178.46655,141.38658 183.29521,146.61548 188.875,150.66002 C 187.66871,141.70469 173.86856,108.76344 166.84375,100.87877 C 159.81894,108.76344 146.05004,141.70469 144.84375,150.66002 C 150.42355,146.61548 155.25221,141.38658 160.4375,136.34752 C 161.65534,161.98178 148.97705,179.80426 135.46875,186.34752 C 141.18454,178.79313 143.80414,169.57349 143.78125,158.12877 C 143.75835,146.68162 136.93859,130.70716 127.78125,121.41002 C 131.43997,138.38581 125.84911,154.95933 119.4375,159.00377 C 124.34675,159.6306 128.0007,159.2104 131.1875,157.50377 C 130.10227,165.6228 115.7545,181.68557 108.125,186.34752 L 129.25,209.28502"
         style="fill:none;fill-rule:evenodd;stroke:#000000;stroke-width:3;stroke-linecap:butt;stroke-linejoin:round;stroke-miterlimit:4;stroke-dasharray:none;stroke-opacity:1" />
      <path
         sodipodi:nodetypes="ccsccccscc"
         id="path3357"
         d="M 166.875,191.81627 C 156.86143,191.81627 148.71876,199.64984 148.71875,209.28502 C 148.7136,209.67984 148.72644,210.03471 148.78125,210.37877 C 149.16489,212.78722 151.05424,213.96614 154.78125,213.87877 L 154.78125,238.22252 L 178.9375,238.22252 L 178.9375,213.87877 C 182.6645,213.96613 184.55386,212.78721 184.9375,210.37877 C 184.99231,210.03471 185.00515,209.67984 185,209.28502 C 185,199.64984 176.88857,191.81628 166.875,191.81627 z"
         style="fill:#ffffff;fill-rule:evenodd;stroke:#000000;stroke-width:3;stroke-linecap:butt;stroke-linejoin:round;stroke-miterlimit:4;stroke-dasharray:none;stroke-opacity:1" />
      <path
         id="path3412"
         d="M 205.9375,121.41002 C 196.78016,130.70716 189.9604,146.68161 189.9375,158.12877 C 189.91604,168.8582 192.22137,177.63059 197.21875,184.91002 C 197.55191,185.39532 197.89276,185.87537 198.25,186.34752 L 204.59375,197.47252 L 213.40625,186.34752 C 202.57274,182.75357 196.56472,170.47964 196.5625,155.78502 C 196.56031,141.304 200.3358,134.28268 205.9375,121.41002 z"
         style="fill:#000000;fill-rule:evenodd;stroke:none;stroke-width:3;stroke-linecap:butt;stroke-linejoin:round;stroke-miterlimit:4;stroke-dasharray:none;stroke-opacity:1" />
      <path
         id="rect3383"
         d="M 197.3125,185.03502 C 197.61817,185.4764 197.92431,185.91706 198.25,186.34752 L 199.21875,188.03502 L 212.0625,188.03502 L 213.40625,186.34752 C 212.33189,185.99111 211.32248,185.55588 210.34375,185.03502 L 197.3125,185.03502 z"
         style="fill:#ffffff;fill-opacity:1;stroke:none;stroke-width:3;stroke-linecap:round;stroke-linejoin:round;stroke-miterlimit:4;stroke-dasharray:none;stroke-opacity:1" />
      <path
         id="rect3416"
         d="M 210.34375,185.03502 C 211.32248,185.55588 212.33189,185.99111 213.40625,186.34752 L 212.0625,188.03502 L 224.03125,188.03502 L 225.59375,186.34752 C 224.9977,185.98331 224.35604,185.52918 223.6875,185.03502 L 210.34375,185.03502 z"
         style="fill:#000000;fill-opacity:1;stroke:none;stroke-width:3;stroke-linecap:round;stroke-linejoin:round;stroke-miterlimit:4;stroke-dasharray:none;stroke-opacity:1" />
      <path
         sodipodi:nodetypes="ccccscccccccccc"
         id="rect3443"
         d="M 166.84375,100.87877 C 159.81894,108.76344 146.05004,141.70469 144.84375,150.66002 C 150.42355,146.61548 155.25221,141.38658 160.4375,136.34752 C 161.65534,161.98178 148.97705,179.80426 135.46875,186.34752 C 141.18454,178.79313 143.80414,169.57349 143.78125,158.12877 C 143.75835,146.68162 136.93859,130.70716 127.78125,121.41002 C 131.43997,138.38581 125.84911,154.95933 119.4375,159.00377 C 124.34675,159.6306 128.0007,159.2104 131.1875,157.50377 C 130.10227,165.6228 115.7545,181.68557 108.125,186.34752 L 129.25,209.28502 L 148.71875,209.28502 C 148.67755,212.4436 150.52181,213.97862 154.78125,213.87877 L 154.78125,238.22252 L 166.84375,238.22252 L 166.84375,100.87877 z"
         style="fill:#000000;fill-opacity:1;stroke:#000000;stroke-width:0.5;stroke-linecap:round;stroke-linejoin:round;stroke-miterlimit:4;stroke-dasharray:none;stroke-opacity:1" />
      <path
         id="path3483"
         d="M 133.5625,131.41002 C 136.58833,138.84257 138.56405,145.55259 138.5625,155.78502 C 138.56034,170.05652 132.92621,182.33607 122.5,186.87877 L 128.9375,194.97252 L 134.25,185.66002 C 134.27782,185.60596 134.30914,185.55376 134.34375,185.50377 C 134.68403,185.05403 135.01894,184.60191 135.34375,184.12877 C 140.15791,177.11623 142.39606,168.65625 142.375,158.12877 C 142.35935,150.30497 138.79632,139.96966 133.5625,131.41002 z"
         style="fill:#ffffff;fill-opacity:1;fill-rule:evenodd;stroke:none;stroke-width:3;stroke-linecap:butt;stroke-linejoin:round;stroke-miterlimit:4;stroke-opacity:1" />
      <path
         sodipodi:nodetypes="ccccc"
         id="path3529"
         d="M 136.77344,189.30846 L 127.34375,193.28502 C 125.66026,193.99615 124.56513,195.645 124.5625,197.47252 L 133.66577,197.67306 L 136.77344,189.30846 z"
         style="fill:#000000;fill-opacity:1;stroke:none;stroke-width:3;stroke-linecap:butt;stroke-linejoin:round;stroke-miterlimit:4;stroke-opacity:1" />
      <path
         sodipodi:nodetypes="cccccc"
         id="path3373"
         d="M 166.875,191.81627 C 176.88857,191.81628 185,199.64984 185,209.28502 L 204.4375,209.28502 L 204.59375,209.12877 L 204.59375,197.47252 L 166.875,181.56627"
         style="fill:#000000;fill-opacity:1;stroke:#000000;stroke-width:3;stroke-linecap:square;stroke-linejoin:round;stroke-miterlimit:4;stroke-dasharray:none;stroke-opacity:1" />
      <path
         sodipodi:nodetypes="cccc"
         id="path3457"
         d="M 166.84375,181.56627 L 129.125,197.47252 L 129.125,212.28452 L 149.219,212.28452"
         style="fill:#000000;fill-opacity:1;stroke:#ffffff;stroke-width:3;stroke-linecap:butt;stroke-linejoin:round;stroke-miterlimit:4;stroke-dasharray:none;stroke-opacity:1" />
      <path
         sodipodi:nodetypes="ccssssssssssssssccc"
         id="path3468"
         d="M 166.84375,191.81627 C 156.84472,191.8328 148.71876,199.66002 148.71875,209.28502 C 148.7136,209.67984 148.72644,210.03471 148.78125,210.37877 C 148.81249,210.57489 148.88625,210.76166 148.9375,210.94127 C 148.96385,211.03221 148.9684,211.13579 149,211.22252 C 149.01512,211.26457 149.04614,211.30646 149.0625,211.34752 C 149.07163,211.36995 149.08424,211.38789 149.09375,211.41002 C 149.16076,211.56976 149.22607,211.7345 149.3125,211.87877 C 149.33987,211.92312 149.37699,211.9609 149.40625,212.00377 C 149.54014,212.19993 149.70099,212.40101 149.875,212.56627 C 150.06995,212.75141 150.28471,212.92005 150.53125,213.06627 C 150.77779,213.21249 151.04432,213.33412 151.34375,213.44127 C 151.55783,213.51788 151.78956,213.60345 152.03125,213.66002 C 152.07038,213.66911 152.11639,213.6827 152.15625,213.69127 C 152.36229,213.73555 152.58663,213.75477 152.8125,213.78502 C 153.02646,213.81387 153.23688,213.83132 153.46875,213.84752 C 153.87785,213.8761 154.31537,213.88969 154.78125,213.87877 L 154.78125,238.22252 L 166.84375,238.22252"
         style="fill:none;fill-rule:evenodd;stroke:#ffffff;stroke-width:3;stroke-linecap:butt;stroke-linejoin:round;stroke-miterlimit:4;stroke-dasharray:none;stroke-opacity:1" />
      <path
         id="path3519"
         d="M 103.84375,185.03502 C 103.77565,185.25783 103.68924,185.48842 103.65625,185.72252 C 103.54369,186.52136 103.66957,187.30594 103.96875,188.03502 L 123.40625,188.03502 L 122.5,186.87877 C 123.66097,186.37293 124.74027,185.72478 125.78125,185.03502 L 103.84375,185.03502 z"
         style="fill:#ffffff;fill-opacity:1;stroke:none;stroke-width:3;stroke-linecap:round;stroke-linejoin:round;stroke-miterlimit:4;stroke-dasharray:none;stroke-opacity:1" />
      <path
         sodipodi:nodetypes="cccccsccc"
         id="path3510"
         d="M 125.875,185.03502 C 124.81444,185.74334 123.68575,186.36214 122.5,186.87877 L 123.40625,188.03502 L 134.90625,188.03502 L 136.25,185.66002 C 136.27782,185.60596 136.30914,185.55376 136.34375,185.50377 C 136.45135,185.36155 136.54987,185.20955 136.65625,185.06627 C 136.56461,185.05099 136.46647,185.05045 136.375,185.03502 L 125.875,185.03502 z"
         style="fill:#000000;fill-opacity:1;fill-rule:evenodd;stroke:none;stroke-width:3;stroke-linecap:butt;stroke-linejoin:round;stroke-miterlimit:4;stroke-opacity:1" />
      <path
         id="path3535"
         d="M 174.5,203.18238 C 174.5,207.18438 171.252,210.43238 167.25,210.43238 C 163.248,210.43238 160,207.18438 160,203.18238 C 160,199.18038 163.248,195.93238 167.25,195.93238 C 171.252,195.93238 174.5,199.18038 174.5,203.18238 z"
         style="fill:#000000;fill-opacity:1;stroke:none;stroke-width:2.98782015;stroke-linecap:square;stroke-linejoin:round;stroke-miterlimit:4;stroke-opacity:1" />
      <path
         sodipodi:nodetypes="css"
         style="fill:#ffffff;fill-opacity:1;stroke:none;stroke-width:2.98782015;stroke-linecap:square;stroke-linejoin:round;stroke-miterlimit:4;stroke-opacity:1"
         d="M 167.25,210.43238 C 163.248,210.43238 160,207.18438 160,203.18238 C 160,199.18038 163.248,195.93238 167.25,195.93238"
         id="path3549" />
      <path
         sodipodi:nodetypes="css"
         id="path3537"
         d="M 164.24479,200.17718 C 165.90366,198.51831 168.59634,198.51831 170.2552,200.17718 C 171.91408,201.83605 171.91407,204.52871 170.2552,206.18758"
         style="fill:#ffffff;fill-opacity:1;stroke:none;stroke-width:3;stroke-linecap:square;stroke-linejoin:round;stroke-miterlimit:4;stroke-opacity:1" />
      <path
         id="path3539"
         d="M 172.25,217.43252 C 172.25,220.1925 170.00999,222.43252 167.25,222.43252 C 164.49,222.43252 162.25,220.1925 162.25,217.43252 C 162.25,214.67251 164.49,212.43252 167.25,212.43252 C 170.00999,212.43252 172.25,214.67251 172.25,217.43252 z"
         style="fill:#ffffff;fill-opacity:1;stroke:none;stroke-width:3;stroke-linecap:square;stroke-linejoin:round;stroke-miterlimit:4;stroke-opacity:1" />
      <path
         sodipodi:nodetypes="css"
         id="path3541"
         d="M 169.01776,219.20029 C 168.04196,220.17609 166.45803,220.17609 165.48223,219.20029 C 164.50642,218.22448 164.50642,216.64056 165.48223,215.66475"
         style="fill:#000000;fill-opacity:1;stroke:none;stroke-width:3;stroke-linecap:square;stroke-linejoin:round;stroke-miterlimit:4;stroke-opacity:1" />
      <path
         style="fill:#000000;fill-opacity:1;stroke:none;stroke-width:3;stroke-linecap:square;stroke-linejoin:round;stroke-miterlimit:4;stroke-opacity:1"
         d="M 170.25521,206.18758 C 168.59634,207.84645 165.90367,207.84644 164.24481,206.18759 C 162.58593,204.52871 162.58594,201.83605 164.24481,200.17718"
         id="path3547"
         sodipodi:nodetypes="css" />
      <path
         sodipodi:nodetypes="ccs"
         style="fill:#000000;fill-opacity:1;stroke:none;stroke-width:3;stroke-linecap:square;stroke-linejoin:round;stroke-miterlimit:4;stroke-opacity:1"
         d="M 167.25,212.43252 C 170.00999,212.43252 172.25,214.67251 172.25,217.43252 C 172.25,220.1925 170.00999,222.43252 167.25,222.43252"
         id="path3553" />
      <path
         style="fill:#ffffff;fill-opacity:1;stroke:none;stroke-width:3;stroke-linecap:square;stroke-linejoin:round;stroke-miterlimit:4;stroke-opacity:1"
         d="M 165.48224,215.66476 C 166.45804,214.68895 168.04196,214.68895 169.01777,215.66476 C 169.99358,216.64057 169.99358,218.22449 169.01777,219.2003"
         id="path3551"
         sodipodi:nodetypes="css" />
      <path
         id="path3576"
         d="M 83.562501,60.222519 C 87.453171,61.319521 91.642605,62.700024 95.968751,64.222519 L 219.25,64.222519 C 221.28769,62.87012 223.32919,61.537549 225.4375,60.222519 L 83.562501,60.222519 z M 77.250001,69.253769 L 77.250001,240.22252 L 257.25,240.22252 L 257.25,80.941269 C 255.90649,81.338969 254.57013,81.81513 253.25,82.316269 L 253.25,236.22252 L 81.250001,236.22252 L 81.250001,70.472519 C 79.896752,70.00355 78.566734,69.5987 77.250001,69.253769 z"
         style="fill:#000000;fill-opacity:1;stroke:none;stroke-width:3;stroke-linecap:round;stroke-linejoin:round;stroke-miterlimit:4;stroke-dasharray:none;stroke-opacity:1" />
      <path
         id="path3597"
         d="M 524.5625,60.222519 C 526.67081,61.537549 528.71231,62.87012 530.75,64.222519 L 654.03125,64.222519 C 658.3574,62.700024 662.54683,61.319521 666.4375,60.222519 L 524.5625,60.222519 z M 673.25,69.097519 C 671.93619,69.426146 670.60064,69.830224 669.25,70.285019 L 669.25,236.22252 L 497.25,236.22252 L 497.25,82.503769 C 495.92951,81.989467 494.59257,81.509812 493.25,81.097519 L 493.25,240.22252 L 673.25,240.22252 L 673.25,69.097519 z"
         style="fill:#000000;fill-opacity:1;stroke:none;stroke-width:3;stroke-linecap:round;stroke-linejoin:round;stroke-miterlimit:4;stroke-dasharray:none;stroke-opacity:1" />
    </g>
  </g>
</svg>
