<?xml version="1.0" encoding="UTF-8" standalone="no"?>
<!-- Created with Inkscape (http://www.inkscape.org/) -->
<svg
   xmlns:dc="http://purl.org/dc/elements/1.1/"
   xmlns:cc="http://creativecommons.org/ns#"
   xmlns:rdf="http://www.w3.org/1999/02/22-rdf-syntax-ns#"
   xmlns:svg="http://www.w3.org/2000/svg"
   xmlns="http://www.w3.org/2000/svg"
   xmlns:sodipodi="http://sodipodi.sourceforge.net/DTD/sodipodi-0.dtd"
   xmlns:inkscape="http://www.inkscape.org/namespaces/inkscape"
   width="250"
   height="250"
   id="svg2"
   sodipodi:version="0.32"
   inkscape:version="0.46"
   version="1.0"
   sodipodi:docname="Valere-icon.svg"
   inkscape:output_extension="org.inkscape.output.svg.inkscape">
  <defs
     id="defs4">
    <inkscape:perspective
       sodipodi:type="inkscape:persp3d"
       inkscape:vp_x="0 : 526.18109 : 1"
       inkscape:vp_y="0 : 1000 : 0"
       inkscape:vp_z="744.09448 : 526.18109 : 1"
       inkscape:persp3d-origin="372.04724 : 350.78739 : 1"
       id="perspective10" />
    <inkscape:perspective
       id="perspective3217"
       inkscape:persp3d-origin="372.04724 : 350.78739 : 1"
       inkscape:vp_z="744.09448 : 526.18109 : 1"
       inkscape:vp_y="0 : 1000 : 0"
       inkscape:vp_x="0 : 526.18109 : 1"
       sodipodi:type="inkscape:persp3d" />
    <clipPath
       clipPathUnits="userSpaceOnUse"
       id="clipPath3227">
      <rect
         style="opacity:1;fill:none;fill-opacity:1;stroke:#000000;stroke-width:3;stroke-linecap:round;stroke-linejoin:miter;stroke-miterlimit:4;stroke-dasharray:none;stroke-opacity:1"
         id="rect3229"
         width="215.53552"
         height="206.52174"
         x="23.329798"
         y="16.967127"
         transform="matrix(0.9999619,8.7265358e-3,-8.7265358e-3,0.9999619,0,0)" />
    </clipPath>
  </defs>
  <sodipodi:namedview
     id="base"
     pagecolor="#ffffff"
     bordercolor="#666666"
     borderopacity="1.0"
     gridtolerance="10000"
     guidetolerance="10"
     objecttolerance="10"
     inkscape:pageopacity="0.0"
     inkscape:pageshadow="2"
     inkscape:zoom="3.772"
     inkscape:cx="125"
     inkscape:cy="125"
     inkscape:document-units="px"
     inkscape:current-layer="layer1"
     showgrid="false"
     inkscape:window-width="1904"
     inkscape:window-height="1150"
     inkscape:window-x="0"
     inkscape:window-y="14" />
  <metadata
     id="metadata7">
    <rdf:RDF>
      <cc:Work
         rdf:about="">
        <dc:format>image/svg+xml</dc:format>
        <dc:type
           rdf:resource="http://purl.org/dc/dcmitype/StillImage" />
      </cc:Work>
    </rdf:RDF>
  </metadata>
  <g
     inkscape:label="Layer 1"
     inkscape:groupmode="layer"
     id="layer1">
    <g
       id="g3274">
      <path
         id="path3256"
         d="M 57.3125,12.3125 C 43.670658,12.451769 31.562975,14.521533 22.15625,18.46875 C 12.749525,22.415967 5.3104478,28.653962 4.21875,37.5625 C 3.5118667,43.330851 6.1253503,48.578593 9.71875,52.75 C 13.31215,56.921407 18.030177,60.593081 23.3125,64.5 C 37.304319,74.848648 43.279389,88.673544 46.53125,105.5625 C 49.783111,122.45146 49.949461,142.0757 52.28125,162.09375 C 57.160505,203.98142 91.485714,235.5625 136.03125,235.5625 C 180.99775,235.5625 217.625,198.96928 217.625,154 C 217.625,153.61066 217.62568,153.42144 217.625,153.40625 C 217.66412,153.14762 217.68501,152.88656 217.6875,152.625 C 217.81108,147.89013 217.29879,143.30424 216.5,138.84375 L 228.90625,127.46875 C 230.93417,127.54028 233.06535,127.05965 234.875,125.25 C 237.3922,122.7328 237.48095,119.28925 236.84375,116.875 C 236.20655,114.46075 234.89234,112.4236 233.09375,110.625 C 231.29515,108.8264 229.25801,107.5122 226.84375,106.875 C 224.42949,106.2378 220.98594,106.32656 218.46875,108.84375 C 216.74818,110.56432 216.1196,112.89456 216.15625,114.75 C 216.15955,114.91706 216.20778,115.05613 216.21875,115.21875 L 210.59375,120.40625 C 198.42583,94.181396 172.02174,75.875002 141.28125,75.875 C 134.05632,75.875 127.0533,76.912582 120.4375,78.78125 C 109.13092,81.974855 98.94166,87.772872 90.40625,95.375 C 96.104205,86.517515 103.45744,79.966247 112.625,77.0625 C 120.19747,75.329222 126.76679,72.810205 131.90625,69.25 C 137.1585,65.611667 141.12227,60.579943 141.875,54.4375 C 142.54716,48.952514 140.49445,43.64712 137.0625,39.21875 C 133.63055,34.79038 128.81097,30.935435 122.9375,27.53125 C 111.19056,20.72288 95.139114,15.65653 77.03125,13.4375 C 70.242516,12.605574 63.610812,12.248201 57.3125,12.3125 z"
         style="fill:#000000;fill-opacity:1;stroke:none;stroke-width:3;stroke-linecap:butt;stroke-linejoin:miter;stroke-miterlimit:4;stroke-opacity:1" />
      <rect
         y="30"
         x="30"
         height="190"
         width="190"
         id="rect3236"
         style="opacity:1;fill:#ffffff;fill-opacity:1;stroke:none;stroke-width:3;stroke-linecap:round;stroke-linejoin:miter;stroke-miterlimit:4;stroke-dasharray:none;stroke-opacity:1" />
      <path
         id="rect3223"
         d="M 25 25 L 25 225 L 225 225 L 225 25 L 25 25 z M 37.5 37.5 L 212.5 37.5 L 212.5 212.5 L 37.5 212.5 L 37.5 37.5 z "
         style="opacity:1;fill:#000000;fill-opacity:1;stroke:none;stroke-width:3;stroke-linecap:round;stroke-linejoin:miter;stroke-miterlimit:4;stroke-dasharray:none;stroke-opacity:1" />
      <rect
         y="42.5"
         x="42.5"
         height="165"
         width="165"
         id="rect3234"
         style="opacity:1;fill:#000000;fill-opacity:1;stroke:none;stroke-width:3;stroke-linecap:round;stroke-linejoin:miter;stroke-miterlimit:4;stroke-dasharray:none;stroke-opacity:1" />
      <path
         id="path3795"
         d="M 204.90625,141.9375 L 199.03125,147.3125 C 199.18258,149.01123 199.26562,150.72971 199.25,152.46875 C 198.90625,168.80551 192.16476,183.5502 181.4375,194.34375 C 181.4271,194.35421 181.41666,194.36454 181.40625,194.375 C 175.72167,205.48613 165.5214,213.91392 153.21875,217.1875 L 153.21875,217.21875 C 182.91362,210.40466 205.16156,184.0894 205.75,152.46875 C 205.75381,151.59293 205.74782,151.98983 205.75,151.8125 C 205.71457,148.45176 205.43619,145.15764 204.90625,141.9375 z"
         style="opacity:1;fill:#000000;fill-opacity:1;stroke:#ffffff;stroke-width:3.00006937999999980;stroke-linecap:butt;stroke-linejoin:miter;stroke-miterlimit:4;stroke-dasharray:none;stroke-opacity:1" />
      <path
         sodipodi:nodetypes="csscsscscscsscscssccsscsc"
         d="M 151.6875,210.84375 C 167.85139,206.47325 179.78125,191.72739 179.78125,174.1875 C 179.78125,153.21149 162.75726,136.1875 141.78125,136.1875 C 139.10416,136.1875 136.48992,136.44134 133.96875,136.96875 C 116.73559,140.57383 103.78125,155.88858 103.78125,174.1875 C 103.78125,195.16351 120.80525,212.1875 141.78125,212.1875 C 143.11232,212.1875 144.42772,212.10816 145.71875,211.96875 C 143.20221,212.29102 140.63495,212.46875 138.03125,212.46875 C 128.20758,212.46875 118.91693,210.14781 110.6875,206.03125 C 102.41269,197.94912 97.28125,186.65926 97.28125,174.1875 C 97.281249,152.81747 112.37091,134.97266 132.46875,130.6875 C 135.47258,130.04704 138.58727,129.6875 141.78125,129.6875 C 166.34527,129.68751 186.28125,149.62348 186.28125,174.1875 C 186.28126,194.78944 172.23451,212.12764 153.21875,217.20312 C 148.33398,218.33966 143.25518,218.96875 138.03125,218.96875 C 101.05064,218.96875 70.979536,189.29097 70.296875,152.46875 C 70.281248,119.97277 92.155947,92.577036 121.96875,84.15625 C 128.11187,82.421093 134.58524,81.46875 141.28125,81.46875 C 172.55732,81.468752 199.10382,101.74315 208.5625,129.84375 L 203.28125,134.6875 C 195.55763,107.71855 170.72083,87.968752 141.28125,87.96875 C 135.23079,87.96875 129.36663,88.814925 123.8125,90.375 C 96.683279,97.995202 76.781249,122.91522 76.796875,152.46875 C 77.480021,185.7014 104.63971,212.46875 138.03125,212.46875 C 142.73869,212.46875 147.31579,211.91334 151.71875,210.90625"
         style="opacity:1;fill:#000000;fill-opacity:1;stroke:#ffffff;stroke-width:3;stroke-linecap:butt;stroke-linejoin:miter;stroke-miterlimit:4;stroke-dasharray:none;stroke-opacity:1"
         id="path2416" />
      <path
         sodipodi:nodetypes="ccscsssscscssssscscc"
         d="M 197.84375,139.65625 L 203.28125,134.6875 C 195.55763,107.71855 170.72083,87.968752 141.28125,87.96875 C 135.23079,87.96875 129.36663,88.814925 123.8125,90.375 C 109.40716,93.917931 98.718753,106.94397 98.71875,122.4375 C 98.71875,140.65348 113.50277,155.4375 131.71875,155.4375 C 135.45904,155.4375 139.05362,154.80458 142.40625,153.65625 C 155.38161,149.21199 164.71875,136.91319 164.71875,122.4375 C 164.71875,110.73521 158.5993,100.45354 149.40625,94.59375 C 146.58425,94.169782 143.68917,93.937499 140.75,93.9375 C 135.46307,93.9375 130.16557,94.641204 125.391,96.312 C 127.43217,96.199361 129.63281,95.9375 131.71875,95.9375 C 146.34678,95.9375 158.21875,107.80948 158.21875,122.4375 C 158.21876,133.96059 150.84041,143.7909 140.5625,147.4375 C 137.79308,148.42009 134.82369,148.9375 131.71875,148.9375 C 117.09073,148.93751 105.21875,137.06552 105.21875,122.4375 C 105.21875,109.89542 113.94702,99.400368 125.39114,96.359889 C 130.09621,94.675369 135.33991,93.938527 140.75103,93.938527 C 163.20997,93.938525 182.67852,106.75297 192.57864,125.70364 C 195.05321,130.25365 196.74796,134.84148 197.84375,139.65625 z"
         style="fill:#000000;fill-opacity:1;stroke:#ffffff;stroke-width:3;stroke-linecap:round;stroke-linejoin:miter;stroke-miterlimit:4;stroke-dasharray:none;stroke-opacity:1"
         id="path3455" />
      <path
         sodipodi:nodetypes="cssssszssccccsscc"
         d="M 110.9375,71.765625 C 125.50881,68.517523 135.31972,62.106302 136.34375,53.75 C 138.17213,38.829942 111.28078,23.250112 76.34375,18.96875 C 69.793057,18.165995 63.416179,17.813326 57.375,17.875 C 31.196556,18.142255 11.235559,26.127452 9.75,38.25 C 8.8171024,45.862687 16.255795,52.303533 26.640625,59.984375 C 57.304106,82.66374 53.22741,122.19055 57.797389,161.42311 C 62.370815,200.68528 94.080356,229.96875 136.03125,229.96875 C 177.98214,229.96875 212.03125,195.9509 212.03125,154 C 212.03125,153.49022 212.01001,152.97615 212.14062,152.46875 C 212.28125,147.08085 211.67009,141.82659 210.53125,136.78125 L 204.90625,141.9375 C 205.47066,145.36713 205.78125,148.8801 205.76562,152.46875 C 205.17719,184.0894 182.91362,210.40466 153.21875,217.21875 C 148.33398,218.33966 143.25518,218.96875 138.03125,218.96875 C 101.05064,218.96875 70.979536,189.29097 70.296875,152.46875 C 70.281248,120.42118 82.018046,80.925617 110.9375,71.765625 z"
         style="opacity:1;fill:#000000;fill-opacity:1;stroke:#ffffff;stroke-width:3;stroke-linecap:butt;stroke-linejoin:miter;stroke-miterlimit:4;stroke-dasharray:none;stroke-opacity:1"
         id="path3632" />
      <path
         id="path3634"
         d="M 119.875 91.625 C 94.78 100.45648 76.797641 124.36503 76.8125 152.46875 C 77.294479 175.91533 90.961381 196.11979 110.6875 206 C 106.41587 201.82386 102.97847 196.79225 100.65625 191.1875 C 90.263248 181.45853 83.656746 167.73728 83.3125 152.46875 C 83.302949 136.20844 89.99313 121.50501 100.78125 110.96875 C 104.06833 102.09114 111.0551 95.024022 119.875 91.625 z "
         style="opacity:1;fill:#000000;fill-opacity:1;stroke:#ffffff;stroke-width:3;stroke-linecap:butt;stroke-linejoin:miter;stroke-miterlimit:4;stroke-dasharray:none;stroke-opacity:1" />
      <path
         id="path3697"
         d="M 176.0625 190.5625 C 166.21318 200.09432 152.81178 205.96875 138.03125 205.96875 C 129.64939 205.96875 121.69593 204.091 114.59375 200.71875 C 121.49587 207.78941 131.12733 212.1875 141.78125 212.1875 C 142.64028 212.1875 143.50136 212.15284 144.34375 212.09375 C 144.83897 212.05902 145.32307 211.99164 145.8125 211.9375 C 146.46487 211.85933 147.13181 211.78879 147.78125 211.6875 C 148.28604 211.60448 148.7829 211.50861 149.28125 211.40625 C 150.08995 211.24014 150.89586 211.0578 151.6875 210.84375 C 162.44338 207.9355 171.32376 200.4252 176.0625 190.5625 z "
         style="opacity:1;fill:#000000;fill-opacity:1;stroke:#ffffff;stroke-width:2.99993610000000020;stroke-linecap:round;stroke-linejoin:miter;stroke-miterlimit:4;stroke-dasharray:none;stroke-opacity:1" />
      <path
         id="path3569"
         d="M 199.03125 147.3125 L 192.75 152.46875 C 192.54834 161.41322 190.18779 169.82427 186.1875 177.21875 C 186.1861 177.23941 186.18893 177.26059 186.1875 177.28125 C 185.76393 183.40273 184.06264 189.1828 181.40625 194.375 C 192.15164 183.57866 198.90592 168.82135 199.25 152.46875 C 199.26562 150.72971 199.18258 149.01123 199.03125 147.3125 z "
         style="opacity:1;fill:#000000;fill-opacity:1;stroke:#ffffff;stroke-width:3;stroke-linecap:butt;stroke-linejoin:miter;stroke-miterlimit:4;stroke-dasharray:none;stroke-opacity:1" />
      <path
         sodipodi:nodetypes="cccsssccsssccssscc"
         d="M 192.375,144.65625 L 197.84375,139.65625 C 196.74796,134.84148 195.05321,130.25365 192.85938,125.95312 C 188.37494,117.28416 179.32802,111.375 168.90625,111.375 C 154.00224,111.375 141.90625,123.47098 141.90625,138.375 C 141.90625,153.27902 154.00224,165.37499 168.90625,165.375 C 175.45767,165.375 181.44763,163.04187 186.125,159.15625 L 227.125,121.53125 C 228.66115,122.16601 230.10238,122.14762 230.9375,121.3125 C 232.30936,119.94064 231.51115,116.91741 229.15625,114.5625 C 226.80134,112.20759 223.77811,111.40939 222.40625,112.78125 C 221.47627,113.71123 221.56418,115.39949 222.4375,117.125 L 183.0625,153.1875 C 179.38093,156.70719 174.39748,158.875 168.90625,158.875 C 157.5902,158.875 148.40625,149.69106 148.40625,138.375 C 148.40625,127.05894 157.5902,117.875 168.90625,117.875 C 176.85901,117.875 183.75736,122.40695 187.9375,129.79688 C 190.53688,135.00378 191.77699,139.72484 192.375,144.65625 z"
         style="opacity:1;fill:#000000;fill-opacity:1;stroke:#ffffff;stroke-width:3;stroke-linecap:butt;stroke-linejoin:miter;stroke-miterlimit:4;stroke-dasharray:none;stroke-opacity:1"
         id="path3601" />
      <path
         id="path3259"
         style="opacity:1;fill:none;fill-opacity:1;stroke:#ffffff;stroke-width:3;stroke-linecap:butt;stroke-linejoin:miter;stroke-miterlimit:4;stroke-dasharray:none;stroke-opacity:1"
         d="M 110.9375,71.765625 C 125.50881,68.517523 135.31972,62.106302 136.34375,53.75 C 138.17213,38.829942 111.28078,23.250112 76.34375,18.96875 C 69.793057,18.165995 63.416179,17.813326 57.375,17.875 C 31.196556,18.142255 11.235559,26.127452 9.75,38.25 C 8.8171024,45.862687 16.255795,52.303533 26.640625,59.984375 C 57.304106,82.66374 53.22741,122.19055 57.797389,161.42311 C 62.370815,200.68528 94.080356,229.96875 136.03125,229.96875 C 177.98214,229.96875 212.03125,195.9509 212.03125,154 C 212.03125,153.49022 212.01001,152.97615 212.14062,152.46875 C 212.28125,147.08085 211.67009,141.82659 210.53125,136.78125 L 204.90625,141.9375 C 205.47066,145.36713 205.78125,148.8801 205.76562,152.46875 C 205.17719,184.0894 182.91362,210.40466 153.21875,217.21875 C 148.33398,218.33966 143.25518,218.96875 138.03125,218.96875 C 101.05064,218.96875 70.979536,189.29097 70.296875,152.46875 C 70.281248,120.42118 82.018046,80.925617 110.9375,71.765625 z"
         sodipodi:nodetypes="cssssszssccccsscc" />
      <path
         sodipodi:nodetypes="czzcsscc"
         d="M 53.65161,87.338085 C 50.760195,73.637457 43.078012,62.505447 36.777598,56.327383 C 30.744869,50.411807 23.734073,44.537947 22.418166,41.107569 C 21.133205,37.757861 20.708447,34.353389 26.75,29.40625 C 19.382891,31.967387 16.349207,36.150381 16,39 C 15.804756,40.593239 16.308807,42.202412 18.71875,45 C 21.128693,47.797588 25.284,51.172088 30.375,54.9375 C 42.288686,63.551935 48.904416,73.637457 53.65161,87.338085 z"
         style="fill:#ffffff;fill-opacity:1;stroke:#ffffff;stroke-width:1;stroke-linecap:butt;stroke-linejoin:miter;stroke-miterlimit:4;stroke-opacity:1;stroke-dasharray:none"
         id="path3266" />
      <path
         sodipodi:nodetypes="czzcsscccc"
         d="M 69.756922,113.55084 C 73.012144,94.454219 88.121929,74.60097 98.780634,67.418317 C 109.25774,60.358039 121.95891,57.914284 124.23798,53.265112 C 126.50114,48.648381 124.63627,43.515381 120.15008,39.403168 C 124.92056,43.226135 125.57939,43.748576 127.6875,46.46875 C 129.79561,49.188924 130.30826,51.249558 130.09375,53 C 129.85326,54.96247 128.56824,57.114799 125.125,59.5 C 120.28797,62.797978 114.62248,64.30608 109.03125,65.75 C 92.322079,71.042488 80.998721,84.92517 74,101 C 72.440322,105.15076 71.013656,109.33293 69.756922,113.55084 z"
         style="fill:#ffffff;fill-opacity:1;stroke:#ffffff;stroke-width:1;stroke-linecap:butt;stroke-linejoin:round;stroke-miterlimit:4;stroke-opacity:1;stroke-dasharray:none"
         id="path3261" />
    </g>
  </g>
</svg>
