<?xml version="1.0" encoding="UTF-8" standalone="no"?>
<!-- Created with Inkscape (http://www.inkscape.org/) -->

<svg
   xmlns:dc="http://purl.org/dc/elements/1.1/"
   xmlns:cc="http://creativecommons.org/ns#"
   xmlns:rdf="http://www.w3.org/1999/02/22-rdf-syntax-ns#"
   xmlns:svg="http://www.w3.org/2000/svg"
   xmlns="http://www.w3.org/2000/svg"
   xmlns:sodipodi="http://sodipodi.sourceforge.net/DTD/sodipodi-0.dtd"
   xmlns:inkscape="http://www.inkscape.org/namespaces/inkscape"
   version="1.0"
   width="250"
   height="250"
   id="svg2572"
   sodipodi:version="0.32"
   inkscape:version="0.47 r22583"
   sodipodi:docname="Waves-icon.svg"
   inkscape:output_extension="org.inkscape.output.svg.inkscape">
  <metadata
     id="metadata10">
    <rdf:RDF>
      <cc:Work
         rdf:about="">
        <dc:format>image/svg+xml</dc:format>
        <dc:type
           rdf:resource="http://purl.org/dc/dcmitype/StillImage" />
      </cc:Work>
    </rdf:RDF>
  </metadata>
  <sodipodi:namedview
     inkscape:window-height="1150"
     inkscape:window-width="1916"
     inkscape:pageshadow="2"
     inkscape:pageopacity="0.0"
     guidetolerance="10.0"
     gridtolerance="10.0"
     objecttolerance="10.0"
     borderopacity="1.0"
     bordercolor="#666666"
     pagecolor="#ffffff"
     id="base"
     showgrid="false"
     inkscape:zoom="3.612"
     inkscape:cx="125"
     inkscape:cy="125"
     inkscape:window-x="0"
     inkscape:window-y="14"
     inkscape:current-layer="svg2572"
     inkscape:window-maximized="0" />
  <defs
     id="defs2574">
    <inkscape:perspective
       sodipodi:type="inkscape:persp3d"
       inkscape:vp_x="0 : 34.913399 : 1"
       inkscape:vp_y="0 : 1000 : 0"
       inkscape:vp_z="69.069183 : 34.913399 : 1"
       inkscape:persp3d-origin="34.534592 : 23.275599 : 1"
       id="perspective12" />
    <inkscape:perspective
       id="perspective3294"
       inkscape:persp3d-origin="372.04724 : 350.78739 : 1"
       inkscape:vp_z="744.09448 : 526.18109 : 1"
       inkscape:vp_y="0 : 1000 : 0"
       inkscape:vp_x="0 : 526.18109 : 1"
       sodipodi:type="inkscape:persp3d" />
  </defs>
  <g
     id="g3683">
    <path
       id="rect2682"
       d="M 25 25 L 25 225 L 225 225 L 225 25 L 25 25 z M 42.5 42.5 L 207.5 42.5 L 207.5 207.5 L 43.03125 207.5 L 42.5 42.5 z "
       style="fill:#000000;fill-opacity:1;fill-rule:evenodd;stroke:#ffffff;stroke-width:0;stroke-linecap:butt;stroke-miterlimit:4;stroke-opacity:1;stroke-dasharray:none;stroke-dashoffset:0" />
    <path
       sodipodi:nodetypes="ccccc"
       d="m 203.59824,46.401759 -157.196479,0 0.502221,157.196481 156.694258,0 0,-157.196481 z"
       id="path2680"
       style="fill:#000000;stroke:none" />
    <path
       id="path3609"
       d="M 43.75 43.75 L 43.84375 68.53125 C 50.133357 63.104604 55.765519 62.164677 59.84375 62.25 C 66.13328 62.381585 69.93646 65.690436 69.96875 71.5625 C 70.00105 77.433973 65.80587 80.695459 59.84375 80.875 C 53.88162 81.054541 49.68645 84.316032 49.71875 90.1875 C 49.75105 96.05957 53.55422 99.36842 59.84375 99.5 C 66.01076 99.62902 75.745874 97.488132 85.90625 80.875 C 96.066625 64.261868 105.80174 62.120977 111.96875 62.25 C 118.25828 62.381585 122.06145 65.690436 122.09375 71.5625 C 122.12605 77.433973 117.93087 80.695459 111.96875 80.875 C 106.00662 81.054541 101.81145 84.316032 101.84375 90.1875 C 101.87605 96.05957 105.67922 99.36842 111.96875 99.5 C 118.13576 99.62902 127.87049 97.488132 138.03125 80.875 C 148.192 64.261868 157.92674 62.120977 164.09375 62.25 C 170.38328 62.381585 174.18645 65.690436 174.21875 71.5625 C 174.25105 77.433973 170.05587 80.695459 164.09375 80.875 C 158.13162 81.054541 153.93645 84.316032 153.96875 90.1875 C 154.00105 96.05957 157.80422 99.36842 164.09375 99.5 C 170.26076 99.62902 179.99568 97.488132 190.15625 80.875 C 195.83357 71.592245 201.38712 66.841316 206.25 64.46875 L 206.25 43.75 L 43.75 43.75 z "
       style="fill:#ffffff;stroke:none;stroke-width:1;stroke-opacity:1" />
    <path
       id="path3614"
       d="M 84.71875 107.25 C 78.530764 107.43891 69.369102 110.30018 59.84375 125.875 C 54.284953 134.96413 48.851509 139.70342 44.0625 142.125 L 44.125 158.28125 C 50.298777 153.07262 55.82778 152.16598 59.84375 152.25 C 66.13328 152.38159 69.93646 155.69044 69.96875 161.5625 C 70.00105 167.43397 65.80587 170.69545 59.84375 170.875 C 53.88162 171.05454 49.68645 174.31603 49.71875 180.1875 C 49.75105 186.05957 53.55422 189.36842 59.84375 189.5 C 66.01076 189.62902 75.745874 187.48813 85.90625 170.875 C 96.066625 154.26186 105.80174 152.12098 111.96875 152.25 C 118.25828 152.38159 122.06145 155.69044 122.09375 161.5625 C 122.12605 167.43397 117.93087 170.69545 111.96875 170.875 C 106.00662 171.05454 101.81145 174.31603 101.84375 180.1875 C 101.87605 186.05957 105.67922 189.36842 111.96875 189.5 C 118.13576 189.62902 127.87049 187.48813 138.03125 170.875 C 148.192 154.26186 157.92674 152.12098 164.09375 152.25 C 170.38328 152.38159 174.18645 155.69044 174.21875 161.5625 C 174.25105 167.43397 170.05587 170.69545 164.09375 170.875 C 158.13162 171.05454 153.93645 174.31603 153.96875 180.1875 C 154.00105 186.05957 157.80422 189.36842 164.09375 189.5 C 170.26076 189.62902 179.99568 187.48813 190.15625 170.875 C 195.83357 161.59224 201.38712 156.84132 206.25 154.46875 L 206.25 138.15625 C 199.92588 143.64892 194.25301 144.58571 190.15625 144.5 C 183.86672 144.36842 180.06355 141.05957 180.03125 135.1875 C 179.99895 129.31603 184.19412 126.05454 190.15625 125.875 C 196.11837 125.69546 200.31355 122.43397 200.28125 116.5625 C 200.24895 110.69044 196.44578 107.38159 190.15625 107.25 C 183.98924 107.12098 174.25431 109.26186 164.09375 125.875 C 153.93318 142.48813 144.19826 144.62902 138.03125 144.5 C 131.74172 144.36842 127.93855 141.05957 127.90625 135.1875 C 127.87395 129.31603 132.06912 126.05454 138.03125 125.875 C 143.99337 125.69546 148.18855 122.43397 148.15625 116.5625 C 148.12395 110.69044 144.32078 107.38159 138.03125 107.25 C 131.86424 107.12098 122.1295 109.26186 111.96875 125.875 C 101.80799 142.48813 92.07326 144.62902 85.90625 144.5 C 79.61672 144.36842 75.81355 141.05957 75.78125 135.1875 C 75.74895 129.31603 79.94412 126.05454 85.90625 125.875 C 91.86837 125.69546 96.06355 122.43397 96.03125 116.5625 C 95.99895 110.69044 92.19578 107.38159 85.90625 107.25 C 85.520812 107.24194 85.131282 107.23741 84.71875 107.25 z "
       style="fill:#ffffff;stroke:none;stroke-width:1;stroke-opacity:1" />
  </g>
</svg>
