<?xml version="1.0" encoding="UTF-8" standalone="no"?>
<!-- Created with Inkscape (http://www.inkscape.org/) -->
<svg
   xmlns:dc="http://purl.org/dc/elements/1.1/"
   xmlns:cc="http://creativecommons.org/ns#"
   xmlns:rdf="http://www.w3.org/1999/02/22-rdf-syntax-ns#"
   xmlns:svg="http://www.w3.org/2000/svg"
   xmlns="http://www.w3.org/2000/svg"
   xmlns:sodipodi="http://sodipodi.sourceforge.net/DTD/sodipodi-0.dtd"
   xmlns:inkscape="http://www.inkscape.org/namespaces/inkscape"
   width="300"
   height="250"
   id="svg2"
   sodipodi:version="0.32"
   inkscape:version="0.46"
   version="1.0"
   sodipodi:docname="Wolf-icon.svg"
   inkscape:output_extension="org.inkscape.output.svg.inkscape">
  <defs
     id="defs4">
    <inkscape:perspective
       id="perspective3217"
       inkscape:persp3d-origin="372.04724 : 350.78739 : 1"
       inkscape:vp_z="744.09448 : 526.18109 : 1"
       inkscape:vp_y="0 : 1000 : 0"
       inkscape:vp_x="0 : 526.18109 : 1"
       sodipodi:type="inkscape:persp3d" />
  </defs>
  <sodipodi:namedview
     id="base"
     pagecolor="#ffffff"
     bordercolor="#666666"
     borderopacity="1.0"
     gridtolerance="10000"
     guidetolerance="10"
     objecttolerance="10"
     inkscape:pageopacity="0.0"
     inkscape:pageshadow="2"
     inkscape:zoom="3.772"
     inkscape:cx="125"
     inkscape:cy="125"
     inkscape:document-units="px"
     inkscape:current-layer="layer1"
     showgrid="false"
     inkscape:window-width="1904"
     inkscape:window-height="1150"
     inkscape:window-x="0"
     inkscape:window-y="14" />
  <metadata
     id="metadata7">
    <rdf:RDF>
      <cc:Work
         rdf:about="">
        <dc:format>image/svg+xml</dc:format>
        <dc:type
           rdf:resource="http://purl.org/dc/dcmitype/StillImage" />
      </cc:Work>
    </rdf:RDF>
  </metadata>
  <g
     inkscape:label="Layer 1"
     inkscape:groupmode="layer"
     id="layer1">
    <g
       id="g2442">
      <path
         id="path3301"
         d="M 72.906851,16.96875 C 71.466784,16.96386 70.101506,17.609485 69.191579,18.725662 C 68.281652,19.841838 67.924381,21.309208 68.219351,22.71875 C 69.57017,29.236003 68.486115,32.862696 67.156851,35.15625 C 64.968723,35.818994 62.781647,36.471004 60.938101,37.25 C 58.536456,38.264823 56.570357,39.133946 54.750601,40.96875 C 54.502786,41.21476 54.282718,41.487224 54.094351,41.78125 L 52.156851,44.8125 C 49.76624,45.014865 47.153058,45.42935 44.031851,46.125 C 39.621131,47.108055 35.353121,47.973041 31.813101,50.9375 C 31.2072,51.439586 30.734848,52.083701 30.438101,52.8125 C 28.790777,56.941231 29.403434,61.308823 31.063101,64.75 C 32.404243,67.530743 34.465113,69.722603 36.813101,71.5 C 38.134518,75.357988 41.215415,78.476747 45.031851,79.71875 C 46.287837,80.124185 47.655643,79.991402 48.810195,79.351958 C 49.964747,78.712514 50.802952,77.623506 51.125601,76.34375 C 51.749855,76.573063 53.650892,77.119086 55.375601,78.125 C 56.449359,78.751255 57.455415,79.443221 58.031851,79.96875 C 58.608287,80.494279 58.555257,80.988209 58.313101,79.875 C 58.690253,81.608794 58.976539,79.769968 57.906851,81.34375 C 56.961105,82.726079 56.809211,84.503012 57.506622,86.025801 C 58.204034,87.54859 59.648669,88.594338 61.313101,88.78125 C 61.498498,88.801971 61.714757,88.770107 61.906851,88.78125 C 61.601328,89.375184 61.249159,89.82835 60.875601,90.125 C 59.447963,91.259057 58.791203,93.10742 59.183203,94.88803 C 59.575203,96.66864 60.947457,98.070318 62.719351,98.5 C 61.442537,99.829942 61.045943,101.77636 61.700602,103.49985 C 62.355262,105.22335 63.944073,106.41562 65.781851,106.5625 C 66.34101,106.60524 66.764222,106.54667 67.281851,106.5625 C 66.633824,110.89255 65.265168,114.02009 63.844351,115.96875 C 62.962718,117.1666 62.689941,118.707 63.106627,120.13476 C 63.523312,121.56252 64.581817,122.71439 65.969351,123.25 C 66.78266,123.56088 67.543915,123.72188 68.281851,123.8125 C 68.364384,125.26771 68.486464,126.85249 69.000601,128.625 C 69.972667,131.97623 71.369702,134.52429 71.438101,134.9375 C 71.871368,137.55488 72.394204,135.8151 71.031851,138.8125 C 70.34627,140.33841 70.50968,142.11189 71.462549,143.48684 C 72.415418,144.86178 74.018624,145.63745 75.688101,145.53125 C 78.889385,145.31999 80.602966,143.65707 82.000601,141.875 C 82.193676,142.55055 82.410688,143.20225 82.563101,143.96875 C 79.715126,149.11842 76.863065,156.28134 73.938101,170.75 C 68.010817,176.41237 62.751862,183.33568 61.000601,190.65625 C 60.943087,190.89667 61.105702,190.69471 60.875601,190.84375 C 60.6455,190.99279 59.941718,191.28491 58.969351,191.4375 C 57.024617,191.74268 54.539906,191.50765 52.156851,191.625 C 48.287197,191.81555 45.757158,193.88027 43.469351,196.5 C 41.181544,199.11973 39.346988,202.75497 39.594351,207.0625 C 39.740572,209.63141 41.89697,211.62193 44.469351,211.5625 C 45.388487,212.85128 46.886844,213.60046 48.469351,213.5625 C 49.470404,214.95608 51.142506,215.70501 52.848794,215.52404 C 54.555082,215.34307 56.032888,214.26006 56.719351,212.6875 C 56.85541,212.3724 57.4334,211.74309 58.250601,211.3125 C 58.938547,210.95001 59.515818,210.92779 59.438101,210.875 C 60.187489,211.20436 60.812081,211.52737 62.500601,212.03125 C 63.725027,212.39664 65.081295,212.73334 66.625601,212.84375 C 68.169907,212.95416 70.087655,212.99211 72.156851,211.59375 C 73.870417,210.43572 74.864149,208.54685 75.250601,207.09375 C 75.637053,205.64065 75.636199,204.46392 75.656851,203.4375 C 75.686167,201.98049 75.816932,201.29165 75.938101,200.53125 C 78.211446,199.27806 80.311525,197.71444 81.813101,195.5 C 83.559458,192.92457 84.581663,189.77111 85.313101,186.21875 C 96.911657,178.6841 100.2177,172.6314 102.65685,168.5625 C 105.64971,163.56993 106.41846,159.69921 115.53185,156.09375 C 115.91912,155.94053 117.34964,155.90478 119.15685,156 L 119.15685,178.15625 C 115.95919,183.68999 114.27293,190.31968 113.84435,197.125 C 112.94716,197.5894 112.09947,198.12537 111.1881,198.6875 C 110.26828,199.25484 109.38476,199.81099 108.5631,200.40625 C 106.82525,200.19998 105.02438,200.61401 103.5006,201.4375 C 100.41278,203.10622 97.194615,206.86575 96.438101,213.375 C 96.265053,214.89195 96.828233,216.40012 97.953196,217.43237 C 99.078159,218.46462 100.6291,218.89632 102.1256,218.59375 C 103.23874,219.51555 104.70963,219.88328 106.1256,219.59375 C 107.23873,220.51555 108.70963,220.88328 110.1256,220.59375 C 111.99442,222.16019 114.74354,222.06586 116.5006,220.375 C 118.25801,218.67504 118.59101,218.93757 120.09435,218.9375 L 126.84435,218.9375 C 130.91923,218.93732 135.03183,215.94777 135.7506,211.5 C 136.23845,208.48106 134.9476,206.62268 134.5006,205.59375 C 134.0536,204.56482 133.79897,203.93177 133.84435,202.3125 C 133.91659,199.73481 133.94623,202.55338 137.3756,198.28125 C 138.75155,196.57654 138.79021,194.15399 137.46935,192.40625 C 136.55152,191.19768 136.28449,190.98119 136.3756,191.15625 C 136.46671,191.33131 136.30447,191.20148 136.34435,189.59375 C 136.34677,189.49624 136.83897,188.03723 138.21935,186.125 C 139.59973,184.21277 141.5519,181.92278 143.15685,179.125 C 145.12992,175.68551 145.31484,172.24682 145.53185,169.5 C 145.74886,166.75318 145.98542,164.63801 146.7506,163.03125 C 147.69486,161.04846 148.23973,160.57457 148.46935,160.40625 C 148.69897,160.23793 149.04214,160.14691 150.4381,159.59375 C 150.50128,159.56388 150.56379,159.53262 150.6256,159.5 C 152.91507,159.41046 155.26422,159.15217 157.65685,158.75 C 159.39838,161.13246 161.80221,162.65828 164.1881,163.625 C 164.70592,166.2448 165.46872,168.90038 166.71935,171.40625 C 168.04817,174.06877 169.76754,176.61788 172.1881,178.53125 L 172.1881,188.59375 C 171.6279,189.00186 171.54447,189.09343 170.78185,189.59375 C 169.90042,190.17201 168.94781,190.73215 168.21935,191.09375 C 167.49089,191.45535 166.83599,191.49965 167.5006,191.46875 C 166.87932,191.49764 167.263,191.54234 166.2506,191.21875 C 165.2382,190.89516 163.30243,190.40946 160.8131,190.4375 C 157.41099,190.47581 154.12822,191.77437 151.28185,194.21875 C 148.43548,196.66313 146.17031,200.72752 146.53185,205.4375 C 146.74336,208.03266 148.99594,209.97933 151.59435,209.8125 C 152.43288,210.98346 153.75537,211.71312 155.19311,211.79805 C 156.63084,211.88298 158.03004,211.3141 159.0006,210.25 C 159.31508,209.90193 158.43553,210.25 160.0006,210.25 L 172.65685,210.25 C 174.02775,210.25 174.3998,209.96232 174.8756,209.78125 C 175.3514,209.60018 175.75411,209.40808 176.1881,209.1875 C 177.05607,208.74634 178.02293,208.20461 179.09435,207.53125 C 181.23719,206.18454 183.84319,204.36274 186.53185,202.25 C 191.90917,198.02453 197.60788,193.09826 200.3131,187.09375 C 201.0167,185.54038 200.83801,183.72963 199.84435,182.34375 C 198.37721,180.29453 197.06855,178.98238 196.5006,178.1875 C 195.93265,177.39262 195.87482,177.40221 195.90685,176.34375 C 195.91545,176.05959 195.91075,176.12681 195.90685,176.03125 C 195.90855,176.09742 195.98059,176.10958 197.21935,175.4375 C 198.54502,174.71262 199.44913,173.40281 199.65685,171.90625 C 201.37913,171.22098 202.54883,169.60045 202.65685,167.75 C 202.67034,167.52394 202.62221,167.23853 202.6256,167 C 203.07694,167.01886 203.49981,167.07913 203.96935,167.125 C 206.16453,170.58312 208.50985,173.96672 211.46935,176.78125 C 215.02327,180.16109 219.71321,182.77859 225.21935,182.78125 C 229.79969,182.78346 232.62781,181.92104 234.1881,181.21875 C 235.74839,180.51646 234.97978,180.54936 236.96935,180.5625 C 236.76297,180.56114 237.10074,180.5232 237.8131,181.15625 C 238.52546,181.7893 239.44184,182.97429 240.2506,184.40625 C 241.86812,187.27017 242.96233,191.21745 242.96935,193.40625 C 242.97801,196.10903 242.31377,198.01586 241.71935,199 C 241.46672,199.41826 241.27367,199.48457 241.1881,199.53125 L 237.84435,199.53125 C 233.65215,199.53127 231.59738,201.99728 229.8131,204.5625 C 228.02882,207.12772 226.73299,210.42686 226.6881,214.1875 C 226.67109,215.77161 227.44125,217.26091 228.74376,218.16265 C 230.04628,219.0644 231.71136,219.26103 233.1881,218.6875 C 234.53437,219.98307 236.51284,220.37388 238.2506,219.6875 C 239.91971,221.61584 242.80999,221.89111 244.8131,220.3125 C 245.88936,221.60222 247.5644,222.23116 249.22354,221.96852 C 250.88267,221.70588 252.28156,220.59033 252.90685,219.03125 C 253.53564,217.47113 253.5368,217.8617 253.59435,217.84375 C 253.6519,217.8258 254.13749,217.87004 255.84435,217.84375 C 257.10323,217.82435 259.00306,217.78924 261.1881,216.65625 C 263.37314,215.52326 265.53317,212.4959 265.59435,209.375 C 265.62437,207.84354 265.82106,206.81396 265.40685,204.9375 C 265.22115,204.09623 264.76696,203.28374 264.2506,202.53125 C 264.82225,197.7418 264.2536,193.65092 263.5006,190.25 C 264.88511,189.25726 265.63544,187.60178 265.46935,185.90625 C 265.21331,183.26612 264.29027,179.95961 262.65685,176.09375 C 261.84014,174.16082 260.88021,172.15819 259.65685,170.28125 C 262.08943,169.85759 263.79719,167.64835 263.59435,165.1875 C 265.59481,164.73075 267.555,164.01258 269.3756,162.90625 C 273.72365,160.26405 277.24569,155.41065 277.65685,149.25 C 277.7584,147.6408 277.04055,146.08913 275.74837,145.12472 C 274.45619,144.16031 272.76441,143.91357 271.2506,144.46875 C 268.38909,145.53378 269.16023,145.91678 264.8756,145.6875 C 264.07284,145.64454 260.08945,144.45534 257.1881,142 C 254.28675,139.54466 252.06727,136.23158 252.0631,131.03125 C 252.05695,123.3711 249.78748,117.03101 246.7506,112.53125 C 245.23216,110.28137 243.53955,108.48264 241.6256,107.15625 C 240.19014,106.16145 238.5773,105.31945 236.65685,105.15625 C 236.64701,105.15541 236.63546,105.15705 236.6256,105.15625 C 233.09518,99.460414 228.93499,95.640592 225.53185,93 C 224.67455,92.335422 223.61644,91.982717 222.53185,92 C 206.57925,92.157241 199.63628,92.442935 183.2506,83.84375 C 165.97237,74.776156 146.97634,72.130991 133.15685,73.40625 C 127.81526,69.770645 123.13022,66.898266 115.6881,63.71875 C 113.57321,56.861841 108.96581,51.718355 105.21935,48.03125 C 105.07866,44.472105 104.79178,40.62497 103.71935,37.0625 C 101.93037,31.119757 98.826478,23.414273 90.594351,17.8125 C 88.987731,16.708567 86.871221,16.692691 85.248222,17.772399 C 83.625222,18.852106 82.822001,20.810346 83.219351,22.71875 C 83.465355,23.905638 83.595637,24.931491 83.688101,25.9375 C 81.733341,23.038088 79.153279,20.234269 75.594351,17.8125 C 74.803812,17.267263 73.867172,16.973201 72.906851,16.96875 L 72.906851,16.96875 z M 245.59435,163.0625 C 246.05224,163.53392 246.44452,164.05869 246.9381,164.5 C 246.03445,164.47404 245.22508,164.03955 244.28185,163.15625 C 244.72158,163.18575 245.16328,163.1542 245.59435,163.0625 z M 195.53185,171.59375 C 195.67385,171.6741 195.81987,171.74711 195.96935,171.8125 C 195.94549,171.87435 195.93216,171.82315 195.53185,171.59375 z"
         style="fill:#000000;fill-rule:evenodd;stroke:none;stroke-width:3;stroke-linecap:butt;stroke-linejoin:round;stroke-miterlimit:4;stroke-opacity:1" />
      <rect
         y="30"
         x="55.000599"
         height="190"
         width="190"
         id="rect3247"
         style="fill:#ffffff;fill-opacity:1;stroke:none;stroke-width:3;stroke-linecap:square;stroke-linejoin:round;stroke-miterlimit:4;stroke-dasharray:none;stroke-opacity:1" />
      <path
         id="path3226"
         d="M 72.906851,21.75 C 74.723146,30.513021 72.584036,35.953587 70.313101,39.09375 C 64.757111,40.630481 59.852097,42.602977 58.125601,44.34375 L 54.906851,49.40625 C 51.611942,49.29425 38.605731,51.47009 34.875601,54.59375 C 32.692814,60.064527 36.319573,65.964582 40.906851,68.71875 C 41.401489,71.937635 43.427919,74.187541 46.500601,75.1875 C 46.75316,73.088766 47.109814,71.371218 50.531851,71.34375 C 53.955503,71.31627 62.326882,75.921528 62.969351,78.875 C 63.611819,81.828474 62.626904,82.879916 61.844351,84.03125 C 64.149236,84.288851 65.908386,83.535009 68.219351,80.84375 C 68.174114,85.464839 67.460971,91.002965 63.844351,93.875 C 65.987363,93.424534 67.545417,92.750484 68.719351,91.96875 C 69.325547,95.368816 69.448908,99.108907 66.156851,101.8125 C 69.158253,102.04193 71.10216,101.78737 72.438101,101.3125 C 72.419614,109.30417 70.359748,115.11706 67.688101,118.78125 C 69.14478,119.33806 71.489794,119.17839 72.656851,118.5 C 73.211585,121.61801 72.907888,124.91464 73.594351,127.28125 C 74.280815,129.64786 75.813234,132.08043 76.156851,134.15625 C 76.500469,136.23206 77.021921,137.15908 75.375601,140.78125 C 78.015549,140.60703 80.846557,135.83062 82.156851,131.75 C 85.059184,135.13972 86.790257,139.17184 87.625601,144.59375 C 84.542073,149.77074 81.596271,156.12104 78.281851,173.125 C 72.395671,178.49481 67.113374,185.69274 65.656851,191.78125 C 64.306908,197.42423 55.561085,196.25093 52.406851,196.40625 C 49.244241,196.56198 44.034458,201.38483 44.344351,206.78125 C 45.492694,204.12182 48.485872,202.57885 50.656851,202.15625 C 49.221697,203.9913 48.203058,206.32079 48.344351,208.78125 C 49.492694,206.12182 52.485872,204.57885 54.656851,204.15625 C 53.221697,205.9913 52.203058,208.32079 52.344351,210.78125 C 53.778934,207.45892 58.109872,205.84334 60.094351,206.03125 C 60.094352,206.03125 66.997784,209.29528 69.469351,207.625 C 71.940917,205.95471 70.052541,201.24451 71.656851,197.46875 C 76.935104,195.65242 79.807918,191.59159 81.094351,183.375 C 93.80035,175.59275 95.750137,170.78623 98.563101,166.09375 C 101.18642,161.71763 103.4154,155.75745 113.78185,151.65625 C 115.95482,150.79657 118.98594,150.95705 122.6256,151.5 C 123.06083,151.92881 123.48896,152.36302 123.9381,152.84375 L 123.9381,179.28125 C 120.31705,184.86233 118.43085,192.68414 118.40685,200.4375 C 116.12063,201.01253 111.10164,204.15934 109.40685,205.9375 C 108.71354,205.06953 107.18926,204.8644 105.78185,205.625 C 104.41765,206.36224 101.77646,208.8751 101.1881,213.9375 C 103.22613,211.96611 105.1202,210.21492 106.6881,209.53125 C 105.983,210.8518 105.45776,212.61723 105.1881,214.9375 C 107.22613,212.9661 109.1202,211.21492 110.6881,210.53125 C 109.983,211.8518 109.45776,213.61723 109.1881,215.9375 C 111.24222,213.95054 113.13564,212.17293 114.71935,211.5 C 114.01133,212.82157 113.45939,214.60317 113.1881,216.9375 C 115.88903,214.32488 118.29345,214.15633 120.09435,214.15625 L 126.84435,214.15625 C 128.87044,214.15616 130.69228,212.85127 131.03185,210.75 C 131.37141,208.64871 128.92676,207.05213 129.0631,202.1875 C 129.19637,197.43242 132.47369,196.75517 133.65685,195.28125 C 132.53751,193.80733 131.46234,193.53085 131.5631,189.46875 C 131.66114,185.51624 136.43912,181.26971 139.03185,176.75 C 141.62459,172.23029 139.94051,166.21329 142.4381,160.96875 C 144.74487,156.1249 146.63595,155.96943 148.6881,155.15625 C 148.68437,155.05273 148.66461,154.94655 148.65685,154.84375 C 152.43562,154.8081 156.32775,154.42752 160.28185,153.4375 C 161.31428,157.11043 165.26177,159.23089 168.3756,159.96875 C 168.80914,165.79635 172.0875,173.61546 176.96935,175.9375 L 176.96935,191.03125 C 176.96935,191.03125 170.5074,196.12037 167.71935,196.25 C 165.04502,196.37435 164.90498,195.17337 160.8756,195.21875 C 156.84611,195.26413 150.80477,198.84731 151.28185,205.0625 C 152.54752,202.75823 155.66086,203.90455 155.7506,203.9375 C 155.56435,204.86017 155.46123,205.88304 155.46935,207.0625 C 156.97191,205.39948 158.59197,205.46875 160.0006,205.46875 L 172.65685,205.46875 C 174.52768,205.46875 192.11952,193.67008 195.96935,185.125 C 193.60637,181.82452 191.00009,180.33523 191.1256,176.1875 C 191.24866,172.12038 193.3937,172.0879 194.9381,171.25 C 194.86878,169.84729 194.34001,168.94687 193.40685,167.6875 C 194.73288,166.75087 196.68422,166.7681 197.90685,167.46875 C 197.99988,165.91018 197.80522,164.44427 196.9381,163.1875 C 198.48791,161.82606 203.12438,161.93169 206.6881,162.5625 C 211.66875,170.69141 217.051,177.99605 225.21935,178 C 233.51441,178.00401 231.67899,175.7461 237.0006,175.78125 C 242.44466,175.8172 247.72872,186.5816 247.7506,193.40625 C 247.77286,200.35337 244.41916,204.3125 242.1256,204.3125 L 237.84435,204.3125 C 235.31065,204.31251 231.53235,208.97217 231.46935,214.25 C 234.06913,211.26071 235.68743,210.54318 237.1881,210.375 C 236.77161,211.91527 236.48912,213.59409 236.46935,215.25 C 239.01632,212.32144 240.61885,211.56193 242.09435,211.375 C 241.92769,212.94656 241.89805,214.71259 241.8756,216.59375 C 244.92673,213.0855 246.63525,212.7581 248.3756,212.71875 C 248.22996,214.43169 248.27166,216.11021 248.46935,217.25 C 250.48827,212.24077 253.87298,213.0919 255.78185,213.0625 C 257.69121,213.03308 260.74764,212.62071 260.8131,209.28125 C 260.87692,206.02554 261.08661,205.39895 259.3131,204.0625 C 260.62703,198.41989 258.51709,189.09139 257.9381,187 C 258.82156,186.45234 259.64874,186.24669 260.71935,186.375 C 260.40874,183.17213 257.28816,172.86526 252.15685,169.03125 C 249.78798,168.93468 244.27282,170.79661 239.78185,165.46875 C 236.97396,162.13763 238.14888,157.46955 239.03185,149.4375 C 240.71797,153.68585 242.62359,157.09372 244.6256,158.40625 C 244.50526,155.90484 244.97052,154.73147 245.3131,154.1875 C 246.82801,159.11444 253.18912,164.6731 258.84435,165.59375 C 257.62188,164.1697 256.56503,161.85345 256.34435,160.59375 C 263.00138,162.22582 272.2905,158.17271 272.90685,148.9375 C 270.63143,149.78439 269.53855,150.7004 264.6256,150.4375 C 259.71621,150.17478 247.29257,144.38955 247.28185,131.03125 C 247.27106,117.5948 239.30789,109.29423 235.40685,109.9375 C 234.94822,110.01313 234.53601,110.13983 234.1881,110.3125 C 230.80456,103.60499 226.3991,99.733459 222.59435,96.78125 C 206.63165,96.938591 198.01054,96.972898 181.03185,88.0625 C 164.01985,79.134622 144.59281,76.676753 131.84435,78.21875 C 125.18952,73.667118 121.30645,71.005672 111.84435,67.1875 C 110.53574,60.111824 104.76722,54.230813 100.5631,50.125 C 100.46216,46.253476 100.15962,41.76855 99.156851,38.4375 C 97.456889,32.79047 94.985506,26.566862 87.906851,21.75 C 89.295645,28.450466 88.372384,33.194384 86.844351,36.46875 C 85.848066,36.45559 84.745992,36.492409 83.563101,36.59375 C 81.8584,31.460957 79.228211,26.05154 72.906851,21.75 z"
         style="fill:#000000;fill-rule:evenodd;stroke:none;stroke-width:3;stroke-linecap:butt;stroke-linejoin:round;stroke-miterlimit:4;stroke-dasharray:none;stroke-opacity:1" />
      <path
         id="rect3223"
         d="M 50.000601,25 L 50.000601,225 L 250.0006,225 L 250.0006,25 L 50.000601,25 z M 60.000601,35 L 240.0006,35 L 240.0006,215 L 60.000601,215 L 60.000601,35 z"
         style="fill:#000000;fill-opacity:1;stroke:none;stroke-width:3;stroke-linecap:square;stroke-linejoin:round;stroke-miterlimit:4;stroke-dasharray:none;stroke-opacity:1" />
      <path
         sodipodi:nodetypes="ccccc"
         id="path3243"
         d="M 62.500601,162.906 L 62.500601,165.96875 L 237.5006,165.96875 L 237.5006,162.906 L 62.500601,162.906 z"
         style="fill:#000000;fill-opacity:1;stroke:none;stroke-width:3;stroke-linecap:square;stroke-linejoin:round;stroke-miterlimit:4;stroke-dasharray:none;stroke-opacity:1" />
      <path
         id="path3241"
         d="M 62.500601,168.96875 L 62.500601,170.625 L 237.5006,170.625 L 237.5006,168.96875 L 62.500601,168.96875 z"
         style="fill:#000000;fill-opacity:1;stroke:none;stroke-width:3;stroke-linecap:square;stroke-linejoin:round;stroke-miterlimit:4;stroke-dasharray:none;stroke-opacity:1" />
      <path
         id="rect3228"
         d="M 62.500601,186.625 L 62.500601,212.5 L 237.5006,212.5 L 237.5006,186.625 L 62.500601,186.625 z"
         style="fill:#000000;fill-opacity:1;stroke:none;stroke-width:3;stroke-linecap:square;stroke-linejoin:round;stroke-miterlimit:4;stroke-dasharray:none;stroke-opacity:1" />
      <path
         id="path3166"
         d="M 62.500601,37.5 L 62.500601,155.65625 L 237.5006,155.65625 L 237.5006,37.5 L 62.500601,37.5 z"
         style="fill:#000000;fill-opacity:1;stroke:none;stroke-width:3;stroke-linecap:square;stroke-linejoin:round;stroke-miterlimit:4;stroke-dasharray:none;stroke-opacity:1" />
      <path
         id="path2386"
         d="M 235.78185,109.90625 C 235.65237,109.90898 235.52876,109.9174 235.40685,109.9375 C 234.94822,110.01313 234.53601,110.13983 234.1881,110.3125 C 236.67046,115.24562 238.60946,121.69479 239.34435,130.46875 C 240.00218,138.32264 239.56585,144.47867 239.03185,149.375 C 240.72332,153.6488 242.6151,157.08816 244.6256,158.40625 C 244.50526,155.90484 244.97052,154.73147 245.3131,154.1875 C 246.82801,159.11444 253.18912,164.6731 258.84435,165.59375 C 257.62188,164.1697 256.56503,161.85345 256.34435,160.59375 C 263.00138,162.22582 272.2905,158.17271 272.90685,148.9375 C 270.63143,149.78439 269.53855,150.7004 264.6256,150.4375 C 259.71621,150.17478 247.29257,144.38955 247.28185,131.03125 C 247.2714,118.01469 239.79584,109.82149 235.78185,109.90625 z"
         style="fill:#000000;fill-rule:evenodd;stroke:#ffffff;stroke-width:3;stroke-linecap:butt;stroke-linejoin:round;stroke-miterlimit:4;stroke-dasharray:none;stroke-opacity:1" />
      <path
         id="path3160"
         d="M 62.500601,156.65625 L 62.500601,160.90625 L 237.5006,160.90625 L 237.5006,156.65625 L 62.500601,156.65625 z"
         style="fill:#000000;fill-opacity:1;stroke:none;stroke-width:3;stroke-linecap:square;stroke-linejoin:round;stroke-miterlimit:4;stroke-dasharray:none;stroke-opacity:1" />
      <path
         sodipodi:nodetypes="cscccccscccccscccccssccsc"
         id="path3168"
         d="M 155.78185,203.9375 C 155.78185,203.9375 155.7519,203.93798 155.7506,203.9375 C 155.64181,204.47645 155.28144,206.12327 155.23549,206.74795 L 157.3756,205.78125 C 158.27226,205.46505 159.1789,205.46875 160.0006,205.46875 L 172.65685,205.46875 C 174.52768,205.46875 192.11952,193.67008 195.96935,185.125 C 193.60637,181.82452 191.00009,180.33523 191.1256,176.1875 C 191.24866,172.12038 193.3937,172.0879 194.9381,171.25 C 194.86878,169.84729 194.34001,168.94687 193.40685,167.6875 C 194.73288,166.75087 196.68422,166.7681 197.90685,167.46875 C 197.99988,165.91018 197.80522,164.44427 196.9381,163.1875 C 198.48791,161.82606 203.12438,161.93169 206.6881,162.5625 C 206.46205,162.1936 206.22514,161.84051 206.0006,161.46875 C 200.88216,152.99452 195.63874,143.56683 180.03185,142.71875 C 173.53852,148.56514 166.84138,151.795 160.28185,153.4375 C 161.31428,157.11043 165.26177,159.23089 168.3756,159.96875 C 168.80914,165.79635 172.0875,173.61546 176.96935,175.9375 L 176.96935,191.03125 C 176.96935,191.03125 170.5074,196.12037 167.71935,196.25 C 165.04502,196.37435 164.90498,195.17337 160.8756,195.21875 C 156.84611,195.26413 150.80477,198.84731 151.28185,205.0625 C 152.54752,202.75823 155.66086,203.90455 155.7506,203.9375 C 156.716,199.15487 159.97082,197.64358 162.09435,197.5625 C 164.62935,197.46571 165.68245,197.72387 167.15685,198.59375"
         style="fill:#000000;fill-rule:evenodd;stroke:#ffffff;stroke-width:3;stroke-linecap:round;stroke-linejoin:round;stroke-miterlimit:4;stroke-dasharray:none;stroke-opacity:1" />
      <path
         id="path3178"
         d="M 72.906851,21.75 C 74.722131,30.50812 72.583051,35.949412 70.313101,39.09375 C 74.747513,37.867236 79.604598,36.901319 83.594351,36.5625 C 81.888562,31.439197 79.217019,26.043924 72.906851,21.75 z"
         style="fill:#000000;fill-rule:evenodd;stroke:#ffffff;stroke-width:3;stroke-linecap:round;stroke-linejoin:round;stroke-miterlimit:4;stroke-dasharray:none;stroke-opacity:1" />
      <path
         id="path3180"
         d="M 72.906851,21.75 C 74.72213,30.508119 72.583191,35.949278 70.313101,39.09375 C 73.429558,38.231769 76.759594,37.504158 79.844351,37.03125 C 78.970791,31.743406 77.745813,27.870714 72.906851,21.75 z"
         style="fill:#000000;fill-rule:evenodd;stroke:#ffffff;stroke-width:3;stroke-linecap:round;stroke-linejoin:round;stroke-miterlimit:4;stroke-dasharray:none;stroke-opacity:1" />
      <path
         sodipodi:nodetypes="ccczzcccczzcz"
         id="path2400"
         d="M 71.925309,93.849417 C 73.5971,105.77323 71.125442,114.04926 67.683528,118.76988 C 69.140206,119.32669 71.493041,119.18316 72.660098,118.50477 C 73.214831,121.62278 72.911616,124.90702 73.598079,127.27363 C 74.284542,129.64024 75.823474,132.07052 76.167091,134.14634 C 76.510708,136.22216 77.018077,137.15196 75.371757,140.77413 C 78.011704,140.5999 80.852075,135.84096 82.162369,131.76034 C 85.064704,135.15007 86.79208,139.18486 87.627424,144.60677 C 84.543896,149.78376 81.602402,156.11375 78.287982,173.11771 C 72.401801,178.48752 67.101261,185.70671 65.644738,191.79522 C 64.294796,197.43821 55.56496,196.25183 52.410726,196.40715 C 49.248117,196.56288 44.043836,201.39043 44.353729,206.78685 C 45.788312,203.46452 50.119398,201.84712 52.103877,202.03503"
         style="fill:none;fill-rule:evenodd;stroke:#ffffff;stroke-width:3;stroke-linecap:round;stroke-linejoin:round;stroke-miterlimit:4;stroke-dasharray:none;stroke-opacity:1" />
      <path
         style="fill:#000000;fill-rule:evenodd;stroke:#ffffff;stroke-width:3;stroke-linecap:round;stroke-linejoin:round;stroke-miterlimit:4;stroke-dasharray:none;stroke-opacity:1"
         d="M 54.289835,199.4676 C 51.127226,199.62333 48.043836,203.39043 48.353729,208.78685 C 49.788312,205.46452 54.119398,203.84712 56.103877,204.03503"
         id="path2402"
         sodipodi:nodetypes="ccz" />
      <rect
         y="211.29375"
         x="232.05255"
         height="7.6882291"
         width="10.869565"
         id="rect3346"
         style="fill:#000000;fill-opacity:1;stroke:none;stroke-width:3;stroke-linecap:round;stroke-linejoin:round;stroke-miterlimit:4;stroke-dasharray:none;stroke-opacity:1" />
      <path
         style="fill:#000000;fill-opacity:1;fill-rule:evenodd;stroke:none;stroke-width:3;stroke-linecap:round;stroke-linejoin:round;stroke-miterlimit:4;stroke-dasharray:none;stroke-opacity:1"
         d="M 60.410726,200.40715 C 57.248117,200.56288 52.043836,205.39043 52.353729,210.78685 C 53.788312,207.46452 58.119398,205.84712 60.103877,206.03503 C 60.103877,206.03503 66.983749,209.29747 69.455316,207.62719 C 71.926883,205.95691 70.055372,201.23837 71.659682,197.46261 C 76.937935,195.64629 79.803037,191.59575 81.08947,183.37916 C 93.795467,175.59692 95.745069,170.80148 98.558033,166.109 C 101.18136,161.73287 103.42112,155.76198 113.78756,151.66078 C 124.19536,147.54322 153.77968,166.36572 180.04101,142.72085 C 195.6479,143.56894 200.88511,152.98373 206.00355,161.45796 C 211.17608,170.02176 216.69149,177.98658 225.23052,177.99071 C 233.52558,177.99472 231.66553,175.75119 236.98714,175.78634 C 242.4312,175.8223 247.74216,186.59662 247.76404,193.42127 C 247.7863,200.36838 244.42422,204.32032 242.13066,204.32032 L 237.84439,204.32032 C 235.3107,204.32032 231.53922,208.96246 231.47622,214.24029 C 235.08718,210.08832 236.8187,210.33876 238.94657,210.32141 L 239.74079,210.2333 L 253.79169,198.83351 L 246.8988,174.17815 L 225.42478,169.14104 L 219.32722,156.68081 L 187.77897,134.14634 L 158.61672,145.54613 L 122.56157,142.09968 L 89.68777,160.92259 L 72.455532,191.41039 L 60.410726,200.40715 z"
         id="path3348"
         sodipodi:nodetypes="cczzcczzczzzzzzcc" />
      <path
         sodipodi:nodetypes="cczzcczzczzzzzzcc"
         id="path2404"
         d="M 57.759613,201.73271 C 54.597004,201.88844 52.043836,205.39043 52.353729,210.78685 C 53.788312,207.46452 58.119398,205.84712 60.103877,206.03503 C 60.103877,206.03503 66.983749,209.29747 69.455316,207.62719 C 71.926883,205.95691 70.055372,201.23837 71.659682,197.46261 C 76.937935,195.64629 79.803037,191.59575 81.08947,183.37916 C 93.795467,175.59692 95.745069,170.80148 98.558033,166.109 C 101.18136,161.73287 103.42112,155.76198 113.78756,151.66078 C 124.19536,147.54322 153.77968,166.36572 180.04101,142.72085 C 195.6479,143.56894 200.88511,152.98373 206.00355,161.45796 C 211.17608,170.02176 216.69149,177.98658 225.23052,177.99071 C 233.52558,177.99472 231.66553,175.75119 236.98714,175.78634 C 242.4312,175.8223 247.74216,186.59662 247.76404,193.42127 C 247.7863,200.36838 244.42422,204.32032 242.13066,204.32032 L 237.84439,204.32032 C 235.3107,204.32032 231.53922,208.96246 231.47622,214.24029 C 235.08718,210.08832 236.8187,210.33876 238.94657,210.32141"
         style="fill:none;fill-rule:evenodd;stroke:#ffffff;stroke-width:3;stroke-linecap:round;stroke-linejoin:round;stroke-miterlimit:4;stroke-dasharray:none;stroke-opacity:1" />
      <path
         sodipodi:nodetypes="ccc"
         id="path2408"
         d="M 241.49766,204.3405 C 238.96397,204.3405 236.5396,209.96236 236.4766,215.24019 C 240.08756,211.08822 241.81908,211.33866 243.94695,211.32131"
         style="fill:#000000;fill-rule:evenodd;stroke:#ffffff;stroke-width:3;stroke-linecap:round;stroke-linejoin:round;stroke-miterlimit:4;stroke-dasharray:none;stroke-opacity:1" />
      <path
         sodipodi:nodetypes="czcc"
         id="path2412"
         d="M 250.19189,202.76865 C 248.80395,203.95248 247.99781,204.39013 245.04837,205.58534 C 242.05817,206.79706 241.92728,211.32966 241.86428,216.60749 C 245.47524,212.45552 247.20676,212.70596 249.33463,212.68861"
         style="fill:#000000;fill-rule:evenodd;stroke:#ffffff;stroke-width:3;stroke-linecap:round;stroke-linejoin:round;stroke-miterlimit:4;stroke-dasharray:none;stroke-opacity:1" />
      <path
         sodipodi:nodetypes="cccsccccscccccccccsscssscscccc"
         id="path3331"
         d="M 116.98548,109.21288 L 98.962458,114.00103 L 92.094351,131.25 C 94.613368,136.23756 97.942304,139.05637 103.84435,141.6875 C 109.70491,144.30014 115.56839,143.8853 123.9381,152.84375 L 123.9381,179.28125 C 120.31705,184.86233 118.43085,192.68414 118.40685,200.4375 C 116.12063,201.01253 111.10164,204.15934 109.40685,205.9375 C 108.71354,205.06953 107.18926,204.8644 105.78185,205.625 C 104.41765,206.36224 101.77646,208.8751 101.1881,213.9375 C 103.22613,211.96611 105.1202,210.21492 106.6881,209.53125 C 105.983,210.8518 105.45776,212.61723 105.1881,214.9375 C 107.22613,212.9661 109.1202,211.21492 110.6881,210.53125 C 109.983,211.8518 109.45776,213.61723 109.1881,215.9375 C 111.24309,213.9497 113.14355,212.17114 114.71935,211.5 C 114.01133,212.82157 113.45939,214.60317 113.1881,216.9375 C 115.88903,214.32488 118.29345,214.15633 120.09435,214.15625 L 126.84435,214.15625 C 128.87044,214.15616 130.69228,212.85127 131.03185,210.75 C 131.37141,208.64871 128.92676,207.05213 129.0631,202.1875 C 129.19637,197.43242 132.47369,196.75517 133.65685,195.28125 C 132.53751,193.80733 131.46234,193.53085 131.5631,189.46875 C 131.66114,185.51624 136.43912,181.26971 139.03185,176.75 C 141.62459,172.23029 139.94051,166.21329 142.4381,160.96875 C 144.74487,156.1249 146.63595,155.96943 148.6881,155.15625 C 148.43774,148.20305 138.98161,142.88791 135.96935,135.53125 C 132.91859,128.0806 134.77904,123.72781 136.1881,122.03125 L 136.09435,121.6875 L 130.78185,115.3125 L 116.98548,109.21288 z"
         style="fill:#000000;fill-opacity:1;fill-rule:evenodd;stroke:none;stroke-width:3;stroke-linecap:round;stroke-linejoin:round;stroke-miterlimit:4;stroke-dasharray:none;stroke-opacity:1" />
      <path
         sodipodi:nodetypes="czcccczcz"
         id="path3188"
         d="M 92.102166,131.25654 C 94.62118,136.24411 97.93193,139.0415 103.83397,141.67263 C 109.69453,144.28526 115.58389,143.89778 123.9536,152.85623 L 123.9536,179.28021 C 120.33255,184.86129 118.4405,192.68797 118.4165,200.44133 C 116.13028,201.01636 111.09414,204.17174 109.39934,205.9499 C 108.70604,205.08194 107.18854,204.86039 105.78112,205.62099 C 104.41692,206.35823 101.7909,208.86503 101.20254,213.92743 C 103.90347,211.31481 106.31544,209.06249 108.11005,209.21278"
         style="fill:none;fill-rule:evenodd;stroke:#ffffff;stroke-width:3;stroke-linecap:round;stroke-linejoin:round;stroke-miterlimit:4;stroke-dasharray:none;stroke-opacity:1" />
      <path
         sodipodi:nodetypes="czcz"
         id="path3192"
         d="M 114.0572,207.60733 C 113.3639,206.73937 111.95604,205.85996 109.78112,206.62056 C 107.6062,207.38115 105.7909,209.8646 105.20254,214.927 C 107.90347,212.31438 110.31544,210.06206 112.11005,210.21235"
         style="fill:#000000;fill-rule:evenodd;stroke:#ffffff;stroke-width:3;stroke-linecap:round;stroke-linejoin:round;stroke-miterlimit:4;stroke-dasharray:none;stroke-opacity:1" />
      <path
         style="fill:#000000;fill-rule:evenodd;stroke:#ffffff;stroke-width:3;stroke-linecap:round;stroke-linejoin:round;stroke-miterlimit:4;stroke-dasharray:none;stroke-opacity:1"
         d="M 118.0572,208.60776 C 117.3639,207.7398 115.95604,206.86039 113.78112,207.62099 C 111.6062,208.38158 109.7909,210.86503 109.20254,215.92743 C 111.90347,213.31481 114.31544,211.06249 116.11005,211.21278"
         id="path3190"
         sodipodi:nodetypes="czcz" />
      <path
         sodipodi:nodetypes="ccczzzzczzzczz"
         id="path3194"
         d="M 119.9966,208.54688 L 117.78112,208.62056 C 115.6062,209.38115 113.7909,211.8646 113.20254,216.927 C 115.90347,214.31438 118.3087,214.14708 120.1096,214.147 L 126.85903,214.14671 C 128.88512,214.14662 130.68589,212.84905 131.02546,210.74778 C 131.36502,208.6465 128.91555,207.06025 129.05189,202.19562 C 129.18516,197.44054 132.47373,196.76202 133.65689,195.2881 C 132.53755,193.81418 131.47291,193.53911 131.57367,189.47701 C 131.67171,185.5245 136.43667,181.27813 139.0294,176.75842 C 141.62214,172.23871 139.93075,166.21435 142.42834,160.96981 C 144.73511,156.12595 146.62585,155.97192 148.678,155.15874 C 148.42764,148.20554 138.97166,142.88928 135.9594,135.53262 C 132.90864,128.08197 134.76962,123.74308 136.17868,122.04652"
         style="fill:#000000;fill-rule:evenodd;stroke:#ffffff;stroke-width:3;stroke-linecap:round;stroke-linejoin:round;stroke-miterlimit:4;stroke-dasharray:none;stroke-opacity:1" />
      <path
         sodipodi:nodetypes="ccccc"
         id="path3221"
         d="M 68.269978,89.711656 C 69.110711,93.603866 70.182668,98.486875 66.144026,101.8036 C 72.887517,102.31909 74.264998,100.40737 75.532005,99.045937 C 76.217622,102.28277 77.150866,104.2726 79.504458,106.36335 C 80.483856,101.266 82.57597,102.92422 84.810058,98.566037"
         style="fill:#000000;fill-rule:evenodd;stroke:#ffffff;stroke-width:3;stroke-linecap:round;stroke-linejoin:round;stroke-miterlimit:4;stroke-dasharray:none;stroke-opacity:1" />
      <path
         sodipodi:nodetypes="czczzcccczzczccczcccccccczzcccczcc"
         id="path3317"
         d="M 254.35491,203.15623 C 253.41602,204.9932 251.33407,205.1705 249.82371,207.44249 C 248.25736,209.79872 248.04974,214.77886 248.4766,217.24 C 250.49552,212.23078 253.87558,213.10677 255.78445,213.07737 C 257.6938,213.04796 260.74311,212.61492 260.80857,209.27546 C 260.87239,206.01976 261.08981,205.39094 259.3163,204.05449 C 260.63023,198.41188 258.50985,189.08035 257.93086,186.98896 C 258.81433,186.44129 259.65671,186.24497 260.72732,186.37328 C 260.41671,183.17041 257.27667,172.85528 252.14536,169.02127 C 249.77649,168.9247 244.27028,170.79164 239.77931,165.46378 C 235.25476,160.09609 241.07195,151.27928 239.32976,130.47901 C 237.59433,109.75941 229.19416,101.88687 222.59402,96.765642 C 206.63131,96.922981 198.00589,96.96588 181.0272,88.055482 C 164.0152,79.127603 144.59315,76.687217 131.84469,78.229214 C 125.18986,73.677586 121.29945,71.019541 111.83735,67.201369 C 110.50009,59.970767 104.5151,53.956274 100.29222,49.840933 C 98.344298,45.563095 96.643373,37.931309 89.290243,36.641031 C 81.937113,35.350753 62.016579,40.420105 58.135302,44.333477 L 54.919668,49.413325 C 51.624759,49.301326 38.599733,51.467911 34.869603,54.591571 C 32.683191,60.071433 36.330588,65.975431 40.928648,68.72372 C 44.795473,63.347176 58.594797,63.910907 60.102131,67.013289 C 60.566849,68.343156 59.731593,69.754272 58.815089,69.540421 C 54.09674,63.935806 45.194475,64.369558 40.890133,68.753522 C 41.298193,72.568747 44.716859,74.927322 46.513135,75.184791 C 46.765693,73.086058 47.09757,71.363787 50.519607,71.336319 C 53.94326,71.308839 62.337371,75.929945 62.97984,78.883417 C 63.622309,81.836889 62.633631,82.888963 61.851078,84.040297 C 64.155961,84.297899 65.902786,83.55022 68.213751,80.858961 C 68.168514,85.480052 67.468825,91.015897 63.852205,93.887932 C 71.447856,92.291309 71.808514,87.760063 73.109735,86.242436 C 74.573453,89.518462 76.007423,92.298863 78.818204,91.771259 C 81.628985,91.243655 81.139763,85.322544 81.961025,82.000654 C 83.513522,85.25988 86.461311,86.212069 88.362213,86.161188 L 228.60611,121.421 L 233.64323,167.55037 L 251.6708,179.48038 L 254.35491,203.15623 z"
         style="fill:#000000;fill-opacity:1;fill-rule:evenodd;stroke:none;stroke-width:3;stroke-linecap:round;stroke-linejoin:round;stroke-miterlimit:4;stroke-dasharray:none;stroke-opacity:1" />
      <path
         style="fill:none;fill-rule:evenodd;stroke:#ffffff;stroke-width:3;stroke-linecap:round;stroke-linejoin:round;stroke-miterlimit:4;stroke-dasharray:none;stroke-opacity:1"
         d="M 254.35491,203.15623 C 253.41602,204.9932 251.33407,205.1705 249.82371,207.44249 C 248.25736,209.79872 248.04974,214.77886 248.4766,217.24 C 250.49552,212.23078 253.87558,213.10677 255.78445,213.07737 C 257.6938,213.04796 260.74311,212.61492 260.80857,209.27546 C 260.87239,206.01976 261.08981,205.39094 259.3163,204.05449 C 260.63023,198.41188 258.50985,189.08035 257.93086,186.98896 C 258.81433,186.44129 259.65671,186.24497 260.72732,186.37328 C 260.41671,183.17041 257.27667,172.85528 252.14536,169.02127 C 249.77649,168.9247 244.27028,170.79164 239.77931,165.46378 C 235.25476,160.09609 241.07195,151.27928 239.32976,130.47901 C 237.59433,109.75941 229.19416,101.88687 222.59402,96.765642 C 206.63131,96.922981 198.00589,96.96588 181.0272,88.055482 C 164.0152,79.127603 144.59315,76.687217 131.84469,78.229214 C 125.18986,73.677586 121.29945,71.019541 111.83735,67.201369 C 110.50009,59.970767 104.5151,53.956274 100.29222,49.840933 C 98.344298,45.563095 96.643373,37.931309 89.290243,36.641031 C 81.937113,35.350753 62.016579,40.420105 58.135302,44.333477 L 54.919668,49.413325 C 51.624759,49.301326 38.599733,51.467911 34.869603,54.591571 C 32.683191,60.071433 36.330588,65.975431 40.928648,68.72372 C 44.795473,63.347176 58.594797,63.910907 60.102131,67.013289 C 60.566849,68.343156 59.731593,69.754272 58.815089,69.540421 C 54.09674,63.935806 45.194475,64.369558 40.890133,68.753522 C 41.298193,72.568747 44.716859,74.927322 46.513135,75.184791 C 46.765693,73.086058 47.09757,71.363787 50.519607,71.336319 C 53.94326,71.308839 62.337371,75.929945 62.97984,78.883417 C 63.622309,81.836889 62.633631,82.888963 61.851078,84.040297 C 64.155961,84.297899 65.902786,83.55022 68.213751,80.858961 C 68.168514,85.480052 67.468825,91.015897 63.852205,93.887932 C 71.447856,92.291309 71.808514,87.760063 73.109735,86.242436 C 74.573453,89.518462 76.007423,92.298863 78.818204,91.771259 C 81.628985,91.243655 81.139763,85.322544 81.961025,82.000654 C 83.513522,85.25988 86.461311,86.212069 88.362213,86.161188"
         id="path2410"
         sodipodi:nodetypes="czczzcccczzczccczcccccccczzcccczcc" />
      <path
         style="fill:#000000;fill-rule:evenodd;stroke:#ffffff;stroke-width:3;stroke-linecap:round;stroke-linejoin:round;stroke-miterlimit:4;stroke-dasharray:none;stroke-opacity:1"
         d="M 100.62396,56.650331 C 100.60363,53.019194 100.85994,44.057879 99.166556,38.432711 C 97.466594,32.785683 94.990769,26.57033 87.912114,21.753468 C 90.38759,33.696816 85.507223,39.493649 82.973115,41.671399"
         id="path3172"
         sodipodi:nodetypes="czcz" />
      <path
         sodipodi:nodetypes="cccczzcz"
         id="path3170"
         d="M 89.045655,76.487294 C 90.831871,73.868499 93.797216,73.007651 96.575605,72.762803 C 96.328697,70.293423 95.223452,68.598748 93.579818,66.447362 C 95.741642,66.320155 97.091031,65.614144 98.194948,64.504149 C 96.869849,62.503515 94.975686,60.605342 94.95626,57.136134 C 94.935927,53.504997 95.945429,44.250892 95.037229,38.270776 C 94.130933,32.303202 93.12901,28.35114 87.912601,21.753 C 90.388077,33.696348 85.507223,39.493649 82.973115,41.671399"
         style="fill:#000000;fill-rule:evenodd;stroke:#ffffff;stroke-width:3;stroke-linecap:round;stroke-linejoin:round;stroke-miterlimit:4;stroke-dasharray:none;stroke-opacity:1" />
      <path
         sodipodi:nodetypes="ccc"
         id="path3176"
         d="M 86.049868,44.019448 C 87.102442,42.669995 88.964687,41.725377 91.069834,41.266563 C 91.50166,43.911492 91.123813,45.908683 90.017261,48.472644"
         style="fill:none;fill-rule:evenodd;stroke:#ffffff;stroke-width:3;stroke-linecap:round;stroke-linejoin:miter;stroke-miterlimit:4;stroke-dasharray:none;stroke-opacity:1" />
    </g>
  </g>
</svg>
